<svg width="25" height="20" viewBox="0 0 25 20" fill="none" xmlns="http://www.w3.org/2000/svg">
<path fill-rule="evenodd" clip-rule="evenodd" d="M4.8981e-05 6.75841C-0.000972275 6.83541 0.0139865 6.91178 0.0439802 6.9827C0.0739739 7.05362 0.118351 7.11755 0.174307 7.17045L6.73516 13.373C6.78805 13.4245 6.85065 13.465 6.91932 13.4921C6.98799 13.5191 7.06135 13.5323 7.13515 13.5308C7.20895 13.5293 7.28171 13.5131 7.3492 13.4832C7.41668 13.4533 7.47755 13.4103 7.52826 13.3566C7.57898 13.303 7.61852 13.2398 7.64459 13.1707C7.67067 13.1017 7.68276 13.0281 7.68015 12.9544C7.67755 12.8806 7.6603 12.8081 7.62942 12.741C7.59854 12.674 7.55464 12.6138 7.50027 12.5638L1.95631 7.32264H17.2409C20.6411 7.32264 23.3867 9.93817 23.3867 13.1045C23.3867 16.2707 20.6411 18.8863 17.2409 18.8863C17.1672 18.8853 17.0939 18.8989 17.0254 18.9264C16.957 18.9539 16.8946 18.9948 16.8421 19.0466C16.7895 19.0984 16.7478 19.1601 16.7193 19.2282C16.6909 19.2963 16.6762 19.3693 16.6762 19.4431C16.6762 19.5169 16.6909 19.59 16.7193 19.658C16.7478 19.7261 16.7895 19.7879 16.8421 19.8397C16.8946 19.8915 16.957 19.9323 17.0254 19.9598C17.0939 19.9874 17.1672 20.001 17.2409 19.9999C21.2152 19.9999 24.5004 16.9127 24.5004 13.1045C24.5004 9.29625 21.2152 6.20899 17.2409 6.20899H1.95631L7.50027 0.967888C7.55482 0.918016 7.5989 0.857786 7.62993 0.790703C7.66097 0.723621 7.67834 0.651035 7.68103 0.57717C7.68372 0.503306 7.67169 0.429641 7.64562 0.360477C7.61955 0.291313 7.57997 0.228031 7.5292 0.17432C7.47842 0.120608 7.41746 0.0775297 7.34986 0.0476204C7.28227 0.0177112 7.2094 0.00156564 7.1355 0.000108264C7.0616 -0.00134911 6.98815 0.0119199 6.91943 0.039141C6.85072 0.0663621 6.7881 0.106984 6.73525 0.158652L0.174307 6.36115C0.12016 6.41234 0.0768368 6.47387 0.0469044 6.54211C0.016972 6.61034 0.00103894 6.6839 4.8981e-05 6.75841Z" fill="black"/>
</svg>
