<svg width="25" height="20" viewBox="0 0 25 20" fill="none" xmlns="http://www.w3.org/2000/svg">
<path fill-rule="evenodd" clip-rule="evenodd" d="M24.5 6.75841C24.501 6.83541 24.486 6.91178 24.456 6.9827C24.426 7.05362 24.3816 7.11755 24.3257 7.17045L17.7648 13.373C17.7119 13.4245 17.6493 13.465 17.5807 13.4921C17.512 13.5191 17.4386 13.5323 17.3648 13.5308C17.2911 13.5293 17.2183 13.5131 17.1508 13.4832C17.0833 13.4533 17.0224 13.4103 16.9717 13.3566C16.921 13.303 16.8815 13.2398 16.8554 13.1707C16.8293 13.1017 16.8172 13.0281 16.8198 12.9544C16.8225 12.8806 16.8397 12.8081 16.8706 12.741C16.9015 12.674 16.9454 12.6138 16.9997 12.5638L22.5437 7.32264H7.25906C3.8589 7.32264 1.11329 9.93817 1.11329 13.1045C1.11329 16.2707 3.8589 18.8863 7.25906 18.8863C7.33284 18.8853 7.4061 18.8989 7.47457 18.9264C7.54305 18.9539 7.60536 18.9948 7.65791 19.0466C7.71046 19.0984 7.75219 19.1601 7.78067 19.2282C7.80915 19.2963 7.82381 19.3693 7.82381 19.4431C7.82381 19.5169 7.80915 19.59 7.78067 19.658C7.75219 19.7261 7.71046 19.7879 7.65791 19.8397C7.60536 19.8915 7.54305 19.9323 7.47457 19.9598C7.4061 19.9874 7.33284 20.001 7.25906 19.9999C3.28476 19.9999 -0.000362396 16.9127 -0.000362396 13.1045C-0.000362396 9.29625 3.28476 6.20899 7.25906 6.20899H22.5437L16.9997 0.967888C16.9452 0.918016 16.9011 0.857786 16.8701 0.790703C16.839 0.723621 16.8217 0.651035 16.819 0.57717C16.8163 0.503306 16.8283 0.429641 16.8544 0.360477C16.8805 0.291313 16.92 0.228031 16.9708 0.17432C17.0216 0.120608 17.0825 0.0775297 17.1501 0.0476204C17.2177 0.0177112 17.2906 0.00156564 17.3645 0.000108264C17.4384 -0.00134911 17.5118 0.0119199 17.5806 0.039141C17.6493 0.0663621 17.7119 0.106984 17.7648 0.158652L24.3257 6.36115C24.3798 6.41234 24.4232 6.47387 24.4531 6.54211C24.483 6.61034 24.499 6.6839 24.5 6.75841Z" fill="black"/>
</svg>
