<svg width="9" height="12" viewBox="0 0 9 12" fill="none" xmlns="http://www.w3.org/2000/svg">
<path d="M0.4375 0.578125H3.99219C5.61198 0.578125 6.78646 0.809896 7.51562 1.27344C8.25 1.73177 8.61719 2.46354 8.61719 3.46875C8.61719 4.15104 8.45573 4.71094 8.13281 5.14844C7.8151 5.58594 7.39062 5.84896 6.85938 5.9375V6.01562C7.58333 6.17708 8.10417 6.47917 8.42188 6.92188C8.74479 7.36458 8.90625 7.95312 8.90625 8.6875C8.90625 9.72917 8.52865 10.5417 7.77344 11.125C7.02344 11.7083 6.0026 12 4.71094 12H0.4375V0.578125ZM2.85938 5.10156H4.26562C4.92188 5.10156 5.39583 5 5.6875 4.79688C5.98438 4.59375 6.13281 4.25781 6.13281 3.78906C6.13281 3.35156 5.97135 3.03906 5.64844 2.85156C5.33073 2.65885 4.82552 2.5625 4.13281 2.5625H2.85938V5.10156ZM2.85938 7.02344V10H4.4375C5.10417 10 5.59635 9.8724 5.91406 9.61719C6.23177 9.36198 6.39062 8.97135 6.39062 8.44531C6.39062 7.4974 5.71354 7.02344 4.35938 7.02344H2.85938Z" fill="black"/>
</svg>
