<svg width="14" height="16" viewBox="0 0 14 16" fill="none" xmlns="http://www.w3.org/2000/svg">
<path d="M10.0202 8.88889C10.9632 8.88889 11.8676 9.26349 12.5344 9.93029C13.2012 10.5971 13.5758 11.5015 13.5758 12.4444C13.5758 13.3874 13.2012 14.2918 12.5344 14.9586C11.8676 15.6254 10.9632 16 10.0202 16C9.07721 16 8.17284 15.6254 7.50604 14.9586C6.83925 14.2918 6.46465 13.3874 6.46465 12.4444C6.46465 11.5015 6.83925 10.5971 7.50604 9.93029C8.17284 9.26349 9.07721 8.88889 10.0202 8.88889ZM6.46465 9.80909e-09C7.08525 -5.57834e-05 7.68224 0.237901 8.13264 0.664851C8.58305 1.0918 8.85256 1.67523 8.88566 2.29495L8.88889 2.42424H12.4444C12.5673 2.42428 12.6855 2.47095 12.7753 2.55481C12.8651 2.63868 12.9196 2.75349 12.928 2.87604C12.9364 2.9986 12.8979 3.11977 12.8204 3.21506C12.7429 3.31036 12.6321 3.37267 12.5104 3.38941L12.4444 3.39394H11.7598L11.35 8.45705C11.0399 8.35374 10.7188 8.28713 10.3932 8.25859L10.7876 3.39394H2.14174L2.92461 13.0469C2.95417 13.4112 3.11975 13.751 3.38843 13.9987C3.65711 14.2464 4.00918 14.3839 4.37463 14.3838L6.29204 14.3845C6.47758 14.7407 6.71289 15.0672 6.98828 15.3542L4.37463 15.3535C3.76556 15.3536 3.17879 15.1244 2.73103 14.7115C2.28328 14.2986 2.00735 13.7323 1.95814 13.1252L1.16881 3.39394H0.484848C0.367685 3.39393 0.254486 3.3515 0.166186 3.27449C0.0778867 3.19748 0.0204595 3.09111 0.00452523 2.97503L0 2.90909C4.94086e-06 2.79193 0.0424358 2.67873 0.119445 2.59043C0.196455 2.50213 0.302834 2.4447 0.418909 2.42877L0.484848 2.42424H4.0404C4.0404 1.78129 4.29581 1.16468 4.75045 0.710044C5.20508 0.255411 5.8217 9.80909e-09 6.46465 9.80909e-09ZM8.41956 10.8438C8.35896 10.9044 8.32492 10.9866 8.32492 11.0723C8.32492 11.158 8.35896 11.2402 8.41956 11.3008L9.56315 12.4451L8.42085 13.5867C8.36015 13.6474 8.32602 13.7296 8.32596 13.8154C8.3259 13.9011 8.35992 13.9834 8.42052 14.0441C8.48113 14.1048 8.56337 14.1389 8.64915 14.139C8.73492 14.1391 8.8172 14.1051 8.8779 14.0444L10.0202 12.9021L11.1644 14.0457C11.1943 14.0766 11.2299 14.1012 11.2694 14.1182C11.3088 14.1351 11.3512 14.144 11.3941 14.1444C11.4371 14.1448 11.4796 14.1366 11.5193 14.1203C11.5591 14.1041 11.5952 14.0801 11.6255 14.0497C11.6559 14.0194 11.6799 13.9833 11.6961 13.9436C11.7124 13.9039 11.7205 13.8613 11.7202 13.8184C11.7198 13.7755 11.7109 13.733 11.6939 13.6936C11.677 13.6542 11.6524 13.6185 11.6215 13.5887L10.4779 12.4444L11.6228 11.3002C11.6817 11.2392 11.7142 11.1576 11.7135 11.0728C11.7128 10.9881 11.6788 10.907 11.6189 10.8471C11.5589 10.7872 11.4778 10.7532 11.3931 10.7524C11.3083 10.7517 11.2267 10.7843 11.1657 10.8432L10.0208 11.9874L8.87661 10.8432C8.81599 10.7826 8.73379 10.7485 8.64808 10.7485C8.56237 10.7485 8.48017 10.7826 8.41956 10.8432V10.8438ZM6.46465 0.969697C6.09608 0.969652 5.74124 1.10952 5.47184 1.36105C5.20243 1.61257 5.03856 1.95698 5.01333 2.32469L5.0101 2.42424H7.91919L7.91596 2.32469C7.89073 1.95698 7.72686 1.61257 7.45746 1.36105C7.18805 1.10952 6.83321 0.969652 6.46465 0.969697Z" fill="#EC1212"/>
</svg>
