<svg width="14" height="14" viewBox="0 0 14 14" fill="none" xmlns="http://www.w3.org/2000/svg">
<path d="M5.68829 0.897C6.63611 0.896134 7.56288 1.1764 8.35138 1.70235C9.13988 2.2283 9.75467 2.97629 10.118 3.85171C10.4813 4.72713 10.5768 5.69063 10.3924 6.62034C10.208 7.55005 9.75207 8.40418 9.08217 9.07469C8.41227 9.74521 7.55855 10.202 6.62901 10.3872C5.69947 10.5724 4.73588 10.4778 3.86013 10.1153C2.98438 9.75277 2.23583 9.13866 1.70916 8.35064C1.18249 7.56262 0.901378 6.6361 0.901378 5.68829C0.907124 4.42009 1.41316 3.2054 2.30952 2.30823C3.20587 1.41105 4.4201 0.903904 5.68829 0.897ZM5.68829 0C4.56326 0 3.46348 0.333612 2.52805 0.95865C1.59261 1.58369 0.863531 2.47208 0.432998 3.51148C0.00246473 4.55087 -0.110183 5.6946 0.109301 6.79802C0.328785 7.90144 0.870543 8.915 1.66606 9.71052C2.46159 10.506 3.47514 11.0478 4.57856 11.2673C5.68198 11.4868 6.82571 11.3741 7.86511 10.9436C8.90451 10.5131 9.7929 9.78397 10.4179 8.84853C11.043 7.9131 11.3766 6.81333 11.3766 5.68829C11.3766 4.17966 10.7773 2.73282 9.71052 1.66606C8.64376 0.5993 7.19692 0 5.68829 0Z" fill="#109CF1"/>
<path d="M13.8574 13.2537L10.6326 10.007L10.0112 10.624L13.2361 13.8707C13.2766 13.9115 13.3247 13.9439 13.3778 13.9661C13.4308 13.9883 13.4877 13.9998 13.5452 14C13.6027 14.0002 13.6596 13.9891 13.7128 13.9673C13.766 13.9454 13.8144 13.9134 13.8552 13.8729C13.896 13.8323 13.9284 13.7842 13.9506 13.7312C13.9728 13.6781 13.9843 13.6212 13.9845 13.5637C13.9847 13.5062 13.9736 13.4493 13.9518 13.3961C13.93 13.3429 13.8979 13.2945 13.8574 13.2537Z" fill="#109CF1"/>
</svg>
