<svg width="13" height="15" viewBox="0 0 13 15" fill="none" xmlns="http://www.w3.org/2000/svg">
<path d="M10.7344 0.578125V7.96875C10.7344 8.8125 10.5443 9.55208 10.1641 10.1875C9.78906 10.8229 9.24479 11.3099 8.53125 11.6484C7.81771 11.987 6.97396 12.1562 6 12.1562C4.53125 12.1562 3.39062 11.7812 2.57812 11.0312C1.76562 10.276 1.35938 9.24479 1.35938 7.9375V0.578125H3.77344V7.57031C3.77344 8.45052 3.95052 9.09635 4.30469 9.50781C4.65885 9.91927 5.24479 10.125 6.0625 10.125C6.85417 10.125 7.42708 9.91927 7.78125 9.50781C8.14062 9.09115 8.32031 8.4401 8.32031 7.55469V0.578125H10.7344Z" fill="black"/>
<path d="M0 13.6016H12.0938V14.3984H0V13.6016Z" fill="black"/>
</svg>
