<svg width="25" height="25" viewBox="0 0 25 25" fill="none" xmlns="http://www.w3.org/2000/svg">
<path d="M16.2802 22.3858C15.0745 22.8491 13.8065 23.0833 12.5 23.0833C6.8436 23.0833 2.21204 18.6218 1.93278 13.0333H12.5C12.5631 13.0333 12.6233 13.021 12.6782 13.0016C12.6825 13.0006 12.6873 12.9993 12.6923 12.9977L12.6924 12.998L12.7015 12.9943L22.4907 9.00606C22.8745 10.1001 23.0833 11.2758 23.0833 12.5C23.0833 13.8065 22.8491 15.0748 22.3858 16.2801C22.1504 16.106 21.8964 15.9567 21.6299 15.8318L21.6291 15.8314C21.6263 15.8302 21.6235 15.8288 21.6203 15.8272C21.6174 15.8258 21.6142 15.8242 21.6102 15.8222C21.6029 15.8187 21.5931 15.8139 21.5826 15.8092C21.4895 15.7667 21.3954 15.7295 21.3017 15.6945L21.3017 15.6945C21.2739 15.6841 21.2435 15.6726 21.2127 15.6619C21.2126 15.6619 21.2125 15.6619 21.2125 15.6618L21.1633 15.8036M16.2802 22.3858L15.5796 20.949C15.5671 20.904 15.556 20.8593 15.5453 20.8161L15.5451 20.8155C15.5267 20.74 15.5078 20.6606 15.4928 20.5791C15.4818 20.5214 15.4737 20.4627 15.4661 20.4084C15.4647 20.398 15.4633 20.3878 15.4618 20.3778L15.4617 20.3768C15.4596 20.3615 15.4572 20.3449 15.4547 20.3275C15.4485 20.2846 15.4416 20.2368 15.4373 20.1907L15.4373 20.1907C15.4247 20.0569 15.4167 19.921 15.4167 19.7833C15.4167 17.3756 17.3756 15.4167 19.7833 15.4167C19.921 15.4167 20.0569 15.4247 20.1907 15.4373L20.1908 15.4373C20.2359 15.4416 20.2832 15.4484 20.3258 15.4545C20.3437 15.4571 20.3609 15.4596 20.3767 15.4617L20.3778 15.4618C20.3878 15.4633 20.398 15.4647 20.4084 15.4661C20.4629 15.4737 20.5217 15.4819 20.5796 15.4929M16.2802 22.3858C16.1057 22.1497 15.9563 21.8953 15.831 21.628L15.8306 21.6269L15.8218 21.6086L15.8216 21.6081C15.8183 21.6014 15.8142 21.593 15.8102 21.5844L15.81 21.5839C15.7675 21.4903 15.7297 21.3956 15.6944 21.3007L15.6943 21.3005C15.6845 21.274 15.673 21.2435 15.6625 21.2137M16.2802 22.3858L15.6625 21.2137M21.1633 15.8036C21.0798 15.7744 20.9951 15.748 20.9092 15.7242C20.8662 15.7123 20.8233 15.7016 20.78 15.6909C20.7045 15.6725 20.6286 15.6548 20.5515 15.6403M21.1633 15.8036C21.1921 15.8135 21.2204 15.8243 21.2492 15.835C21.3416 15.8695 21.4324 15.9055 21.5214 15.9462M21.1633 15.8036L21.5214 15.9462M20.5515 15.6403L20.5796 15.4929M20.5515 15.6403C20.4976 15.63 20.4432 15.6224 20.3886 15.6148C20.378 15.6133 20.3674 15.6119 20.3568 15.6104M20.5515 15.6403L20.5794 15.4929C20.5795 15.4929 20.5795 15.4929 20.5796 15.4929M20.5796 15.4929L20.3568 15.6104M15.6625 21.2137C15.6625 21.2136 15.6625 21.2135 15.6624 21.2134L15.8039 21.1637L15.6625 21.2137ZM20.3568 15.6104C20.3378 15.6078 20.3188 15.6051 20.2999 15.6023C20.2589 15.5964 20.218 15.5905 20.1766 15.5866C20.0463 15.5743 19.9152 15.5667 19.7833 15.5667C17.4584 15.5667 15.5667 17.4584 15.5667 19.7833C15.5667 19.9152 15.5743 20.0463 15.5866 20.1766L20.3568 15.6104ZM21.5662 15.9676C21.8367 16.0944 22.0931 16.2467 22.329 16.4249L21.5662 15.9676ZM21.5662 15.9676C21.5598 15.9647 21.5534 15.9615 21.547 15.9583C21.5384 15.9541 21.5299 15.9499 21.5214 15.9462M21.5662 15.9676L21.5214 15.9462M17.2857 21.9333L17.287 21.9347C17.2934 21.9424 17.298 21.9472 17.304 21.9537C17.3088 21.9589 17.3147 21.9652 17.3233 21.9749M17.2857 21.9333L21.4994 16.9705L21.5781 16.8428L21.4995 16.9705C21.5088 16.9763 21.5179 16.9818 21.5268 16.9873C21.5741 17.0163 21.6171 17.0427 21.6591 17.072L21.7449 16.949L21.6586 17.0717C21.675 17.0832 21.6889 17.0939 21.7051 17.1064C21.7149 17.1139 21.7255 17.1221 21.738 17.1315L21.7385 17.1318C21.8068 17.1826 21.8714 17.2321 21.9326 17.2851L21.9334 17.2858C21.9461 17.2966 21.9558 17.3062 21.975 17.324L21.9764 17.3253C22.0478 17.3896 22.1168 17.4557 22.1823 17.5253L22.1823 17.5253C22.7398 18.1165 23.0833 18.9097 23.0833 19.7833C23.0833 21.6026 21.6026 23.0833 19.7833 23.0833C18.9104 23.0833 18.1176 22.7401 17.5263 22.1838L17.4235 22.293L17.5265 22.1839C17.4556 22.1171 17.3884 22.0473 17.3233 21.9749M17.2857 21.9333C17.2317 21.871 17.1815 21.8053 17.1297 21.7359C17.1197 21.7225 17.1114 21.7117 17.104 21.7021C17.0928 21.6875 17.0836 21.6755 17.0732 21.6604L17.0725 21.6595M17.2857 21.9333L17.0725 21.6595M17.3233 21.9749L17.2118 22.0746L17.3232 21.9747C17.3232 21.9747 17.3233 21.9748 17.3233 21.9749ZM17.0725 21.6595C17.044 21.6188 17.0185 21.5773 16.9903 21.5312C16.9836 21.5202 16.9767 21.509 16.9696 21.4975M17.0725 21.6595L16.7459 21.0719M16.7459 21.0719L16.746 21.0721C16.7671 21.1221 16.7914 21.1701 16.8183 21.2233C16.8239 21.2342 16.8296 21.2454 16.8353 21.2569M16.7459 21.0719C16.7435 21.0662 16.741 21.0595 16.7373 21.0491L16.7363 21.0463C16.7331 21.0373 16.7287 21.0252 16.7239 21.0132L16.5849 21.0694L16.724 21.0135C16.6926 20.9354 16.6634 20.86 16.6386 20.7837M16.7459 21.0719L16.6386 20.7837M16.8353 21.2569L16.7018 21.3241L16.8352 21.2567C16.8353 21.2568 16.8353 21.2569 16.8353 21.2569ZM16.8353 21.2569C16.8454 21.2768 16.8532 21.2931 16.8603 21.3079C16.8709 21.33 16.8799 21.3487 16.8919 21.3704L16.7608 21.4431L16.8917 21.3699C16.9067 21.3968 16.9214 21.4203 16.9381 21.4469C16.9478 21.4623 16.9581 21.4787 16.9696 21.4975M16.9696 21.4975C16.9695 21.4973 16.9694 21.4972 16.9693 21.497L16.8416 21.5758L16.9698 21.4978C16.9697 21.4977 16.9696 21.4976 16.9696 21.4975ZM16.6386 20.7837V20.7836L16.6318 20.7619C16.5677 20.5559 16.5233 20.3419 16.501 20.1209L16.5009 20.1202C16.4892 20.0094 16.4833 19.897 16.4833 19.7833C16.4833 17.9641 17.9641 16.4833 19.7833 16.4833C19.897 16.4833 20.0096 16.4892 20.1207 16.5006L20.1209 16.5006C20.3418 16.5229 20.5561 16.5676 20.7622 16.6318L20.7791 16.637C20.8574 16.6622 20.9351 16.6921 21.0147 16.7242L21.0709 16.5852M16.6386 20.7837L20.136 16.3513C20.3671 16.3747 20.5914 16.4215 20.8068 16.4886L20.8084 16.489C20.8977 16.5169 20.9847 16.5503 21.0709 16.5852M21.0709 16.5852C21.0804 16.5891 21.0901 16.5925 21.0997 16.596C21.1099 16.5996 21.1201 16.6033 21.13 16.6074C21.1878 16.6322 21.2435 16.6603 21.2993 16.6885C21.3083 16.693 21.3173 16.6976 21.3263 16.7021M21.0709 16.5852L21.0138 16.7239C21.0267 16.7292 21.0394 16.7337 21.0484 16.7369L21.0501 16.7375C21.0603 16.7412 21.0664 16.7434 21.0716 16.7456M21.3263 16.7021L21.2586 16.836M21.3263 16.7021L21.2589 16.8361C21.2588 16.8361 21.2587 16.836 21.2586 16.836M21.3263 16.7021C21.3402 16.7092 21.3543 16.716 21.3685 16.7228C21.3935 16.7348 21.4185 16.7469 21.4428 16.7604L21.2586 16.836M21.2586 16.836C21.2493 16.8313 21.2402 16.8267 21.2311 16.8221C21.1754 16.794 21.1244 16.7683 21.0716 16.7456M21.0716 16.7456C21.0717 16.7456 21.0718 16.7457 21.0719 16.7457L21.1299 16.6075L21.0709 16.7453C21.0711 16.7454 21.0714 16.7455 21.0716 16.7456ZM12.5 0.85C6.07606 0.85 0.85 6.07606 0.85 12.5C0.85 18.9239 6.07606 24.15 12.5 24.15C14.0891 24.15 15.6269 23.8307 17.0779 23.2085C17.8222 23.7976 18.7624 24.15 19.7833 24.15C22.1911 24.15 24.15 22.1911 24.15 19.7833C24.15 18.7624 23.7976 17.8222 23.2085 17.0779C23.8307 15.6273 24.15 14.0895 24.15 12.5C24.15 6.07606 18.9239 0.85 12.5 0.85ZM20.8429 5.99937C21.3286 6.62107 21.7454 7.29822 22.0839 8.01959L15.3069 10.7806L20.8429 5.99937ZM20.1456 5.19212L13.0333 11.3347V1.93278C15.8237 2.07209 18.332 3.29574 20.1456 5.19212ZM1.93278 11.9667C2.20312 6.55511 6.55511 2.20312 11.9667 1.93278V11.9667H1.93278Z" fill="#334D6E" stroke="#334D6E" stroke-width="0.3"/>
<path d="M19.8182 18.9221C19.6262 18.9221 19.4697 19.0562 19.4697 19.2208H18.7728C18.7728 18.8319 19.0651 18.5033 19.4697 18.3797V17.7273H20.1667V18.3797C20.5713 18.5033 20.8637 18.8319 20.8637 19.2208C20.8637 19.7149 20.3946 20.1169 19.8182 20.1169C19.6262 20.1169 19.4697 20.251 19.4697 20.4156C19.4697 20.5802 19.6262 20.7143 19.8182 20.7143C20.0102 20.7143 20.1667 20.5802 20.1667 20.4156H20.8637C20.8637 20.8045 20.5713 21.1331 20.1667 21.2567V21.9091H19.4697V21.2567C19.0651 21.1331 18.7728 20.8045 18.7728 20.4156C18.7728 19.9216 19.2418 19.5195 19.8182 19.5195C20.0102 19.5195 20.1667 19.3854 20.1667 19.2208C20.1667 19.0562 20.0102 18.9221 19.8182 18.9221Z" fill="#334D6E"/>
</svg>
