<svg xmlns="http://www.w3.org/2000/svg" xmlns:xlink="http://www.w3.org/1999/xlink" width="48" height="48" viewBox="0 0 48 48">
  <defs>
    <clipPath id="clip-path">
      <rect id="Rectangle_2209" data-name="Rectangle 2209" width="48" height="48" transform="translate(190 190)" fill="none"/>
    </clipPath>
  </defs>
  <g id="Offer_History_48_" data-name="Offer History(48)" transform="translate(-190 -190)" clip-path="url(#clip-path)">
    <path id="Path_2079" data-name="Path 2079" d="M292.366,530.159v18.209a.759.759,0,0,1-.759.759H255.569a.759.759,0,0,1-.759-.759V530.159a.759.759,0,0,1,.759-.759h8.353a.759.759,0,0,1,.759.759v1.517a1.522,1.522,0,0,0,1.518,1.517h15.187a1.522,1.522,0,0,0,1.518-1.517v-1.517a.759.759,0,0,1,.759-.759h7.943A.76.76,0,0,1,292.366,530.159Zm-1.869,0" transform="translate(-59.792 -313.124)" fill="#57a7dc" fill-rule="evenodd"/>
    <path id="Path_2080" data-name="Path 2080" d="M246.74,213.815a.763.763,0,0,0-.147.216c-.01.024-.016.047-.025.072a.764.764,0,0,0-.041.2c0,.016-.009.03-.009.047v15.929A1.517,1.517,0,0,0,245,231.8v18.209a1.518,1.518,0,0,0,1.518,1.517h36.447a1.518,1.518,0,0,0,1.518-1.517V231.8a1.517,1.517,0,0,0-1.518-1.517h-6.075V213.587a1.517,1.517,0,0,0-1.518-1.517h-1.519v-1.517a1.517,1.517,0,0,0-1.518-1.517h-1.519v-1.517A1.518,1.518,0,0,0,269.3,206H254.871c-.017,0-.029.009-.046.009a.733.733,0,0,0-.2.041.57.57,0,0,0-.069.026.741.741,0,0,0-.218.146l-7.593,7.587Zm1.3,1.29h3.484l-1.741,1.74a.755.755,0,0,0-.146.216c-.011.024-.017.047-.026.071a.774.774,0,0,0-.041.2c0,.017-.009.031-.009.047v12.9h-1.521Zm7.37-1.74,1.741-1.74v3.924l-1.073,1.073h-3.927Zm-2.588,6.514a.755.755,0,0,0-.146.216c-.011.024-.017.047-.026.072a.732.732,0,0,0-.04.2c0,.017-.009.031-.009.047v9.865h-1.524V218.139h3.484Zm4.111-1.962,1.519-1.517,1.741-1.74v5h-5Zm26.035,32.088H246.518V231.8h8.353v1.517a2.277,2.277,0,0,0,2.278,2.276h15.187a2.277,2.277,0,0,0,2.278-2.276V231.8h8.353Zm-7.593-19.726h-.759a1.518,1.518,0,0,0-1.519,1.517v1.517a.759.759,0,0,1-.759.759H257.149a.759.759,0,0,1-.759-.759V231.8a1.518,1.518,0,0,0-1.519-1.517h-.759v-9.1h6.075a1.517,1.517,0,0,0,1.518-1.517v-6.07h13.668Zm-3.037-18.209H260.948c-.016,0-.029.009-.046.009a.76.76,0,0,0-.2.04c-.022.009-.046.015-.068.025a.774.774,0,0,0-.218.147l-1.742,1.74v-3.479h13.665Zm-3.038-3.035H257.908c-.016,0-.029.009-.045.009a.726.726,0,0,0-.2.041.671.671,0,0,0-.07.025.752.752,0,0,0-.218.146L255.63,211v-3.479H269.3Zm-15.186-.444v3.924l-1.074,1.073h-3.927Zm0,0" transform="translate(-50.742 -14.761)" fill="#0a346c"/>
    <path id="Path_2081" data-name="Path 2081" d="M402.689,423.117h1.519a.759.759,0,1,0,0-1.517h-1.519a.759.759,0,1,0,0,1.517Zm0,0" transform="translate(-195.523 -213.67)" fill="#0a346c"/>
    <path id="Path_2082" data-name="Path 2082" d="M470.65,421.6h-9.111a.759.759,0,1,0,0,1.517h9.111a.759.759,0,0,0,0-1.517Zm0,0" transform="translate(-249.816 -213.67)" fill="#0a346c"/>
    <path id="Path_2083" data-name="Path 2083" d="M404.208,500h-1.519a.759.759,0,1,0,0,1.517h1.519a.759.759,0,0,0,0-1.517Zm0,0" transform="translate(-195.523 -286)" fill="#0a346c"/>
    <path id="Path_2084" data-name="Path 2084" d="M470.65,500h-9.111a.759.759,0,1,0,0,1.517h9.111a.759.759,0,1,0,0-1.517Zm0,0" transform="translate(-249.816 -286)" fill="#0a346c"/>
    <path id="Path_2085" data-name="Path 2085" d="M561.137,460.8h-1.518a.759.759,0,0,0,0,1.517h1.518a.759.759,0,1,0,0-1.517Zm0,0" transform="translate(-340.303 -249.835)" fill="#0a346c"/>
    <path id="Path_2086" data-name="Path 2086" d="M402.689,462.317H411.8a.759.759,0,0,0,0-1.517h-9.111a.759.759,0,1,0,0,1.517Zm0,0" transform="translate(-195.523 -249.835)" fill="#0a346c"/>
    <path id="Path_2087" data-name="Path 2087" d="M309.165,676.4h-4.556a.759.759,0,1,0,0,1.517h4.556a.759.759,0,1,0,0-1.517Zm0,0" transform="translate(-105.036 -448.743)" fill="#0a346c"/>
    <path id="Path_2088" data-name="Path 2088" d="M617.69,677.159a.759.759,0,0,0,.759.759h4.556a.759.759,0,0,0,0-1.517h-4.556A.759.759,0,0,0,617.69,677.159Zm0,0" transform="translate(-394.579 -448.743)" fill="#0a346c"/>
    <path id="Path_2089" data-name="Path 2089" d="M429.855,598.745a.41.41,0,0,1,0-.354l.5-1.043a1.2,1.2,0,0,0-.5-1.575l-1-.542a.4.4,0,0,1-.2-.286l-.2-1.143a1.157,1.157,0,0,0-1.3-.973l-1.116.162a.38.38,0,0,1-.327-.109l-.81-.807a1.129,1.129,0,0,0-1.609,0l-.81.807a.387.387,0,0,1-.327.11l-1.116-.163a1.156,1.156,0,0,0-1.3.973l-.2,1.143a.4.4,0,0,1-.2.286l-1,.542a1.2,1.2,0,0,0-.5,1.575l.5,1.043a.411.411,0,0,1,0,.354l-.5,1.042a1.2,1.2,0,0,0,.5,1.576l1,.542a.4.4,0,0,1,.2.286l.2,1.143a1.161,1.161,0,0,0,1.136.986,1.1,1.1,0,0,0,.166-.012l1.116-.163a.383.383,0,0,1,.327.109l.81.807a1.127,1.127,0,0,0,1.609,0l.81-.807a.387.387,0,0,1,.327-.109l1.116.163a1.156,1.156,0,0,0,1.3-.973l.2-1.143a.4.4,0,0,1,.2-.286l1-.542a1.2,1.2,0,0,0,.5-1.576Zm-7.284-3.723a1.445,1.445,0,1,1-1.4,1.445A1.425,1.425,0,0,1,422.572,595.022Zm-.725,6.426a.378.378,0,0,1-.271.115.373.373,0,0,1-.27-.115.4.4,0,0,1,0-.557l5.052-5.2a.376.376,0,0,1,.542,0,.4.4,0,0,1,0,.557Zm3.786.667a1.445,1.445,0,1,1,1.4-1.445,1.425,1.425,0,0,1-1.4,1.445Z" transform="translate(-210.102 -370.636)" fill="#0a346c"/>
    <path id="Path_2090" data-name="Path 2090" d="M511.7,698.606a.657.657,0,1,0,.637.657A.649.649,0,0,0,511.7,698.606Z" transform="translate(-296.167 -469.23)" fill="#0a346c"/>
    <path id="Path_2091" data-name="Path 2091" d="M472.627,645.646a.657.657,0,1,0-.638-.656A.648.648,0,0,0,472.627,645.646Z" transform="translate(-260.158 -419.159)" fill="#0a346c"/>
  </g>
</svg>
