<svg xmlns="http://www.w3.org/2000/svg" width="92" height="92" viewBox="0 0 92 92">
  <g id="Campaign_SMS_report" data-name="Campaign SMS report" transform="translate(-384 -83.1)">
    <rect id="Rectangle_2115" data-name="Rectangle 2115" width="92" height="92" transform="translate(384 83.1)" fill="none"/>
    <g id="Group_4387" data-name="Group 4387" transform="translate(357.702 -70)">
      <path id="Path_2098" data-name="Path 2098" d="M61.825,191.941,64,199.569s3.845-1.305,2.787-4.885S61.825,191.941,61.825,191.941Z" transform="translate(0.787 0.18)" fill="#57a7dc"/>
      <path id="Path_2097" data-name="Path 2097" d="M102.852,531.2l3.508,11.855,4.96-1.089-3.992-14.032L102,529.627Z" transform="translate(-66.153 -316.85)" fill="#57a7dc"/>
      <path id="Path_2096" data-name="Path 2096" d="M28.353,196.293,40.174,193.1a1.407,1.407,0,0,1,.77.01c7.414,1.188,12.555-8.05,17.37-12.637a1.42,1.42,0,0,1,2.4.618l2.511,9.448c6.494-.152,8.647,8.6,3.1,11.662l2.512,9.45a1.43,1.43,0,0,1-1.7,1.765c-6.457-1.529-15.519-6.979-21.364-2.241a1.408,1.408,0,0,1-.69.427l-2.1.567L46.4,224.98a1.436,1.436,0,0,1-1.007,1.754l-4.879,1.317a1.421,1.421,0,0,1-1.741-1.014l-3.405-12.809-2.1.567a1.422,1.422,0,0,1-1.741-1.015l-1.174-4.414-.215.058a1.208,1.208,0,0,1-1.476-.859l-1.211-4.559a1.218,1.218,0,0,1,.852-1.486l.215-.058-1.174-4.415a1.436,1.436,0,0,1,1.007-1.754ZM91.729,191a1.435,1.435,0,0,1,0-2.869h16.945a1.435,1.435,0,0,1,0,2.869Zm-6.87-6.107a1.435,1.435,0,0,1,0-2.869h23.815a1.435,1.435,0,0,1,0,2.869ZM80,178.789a1.435,1.435,0,0,1,0-2.869h28.671a1.435,1.435,0,0,1,0,2.869ZM39.265,217.815l2.133-.575-1.151-4.33-2.132.576Zm2.869,2.193L40,220.583l1.151,4.329,2.133-.576Zm-5.762-22.915,3.446,12.966q1.582-.428,3.163-.855l-3.446-12.964-3.163.853Zm.7,13.707-3.446-12.964-3.163.854,3.446,12.964Zm39.15-40.7h36.234c2.393,0,4.843,1.688,4.843,4.268v18.278a6.817,6.817,0,0,1-.587,2.049s-2.566,2.219-4.256,2.219h-6.414l-5.656,11.742a1.417,1.417,0,0,1-2.558,0l-5.656-11.742H76.221c-2.393,0-4.843-1.688-4.843-4.268V174.368c0-2.58,2.45-4.268,4.843-4.268Zm36.234,2.869H76.221c-.777,0-2,.455-2,1.4v18.278c0,.945,1.219,1.4,2,1.4H93.058a1.43,1.43,0,0,1,1.279.813l4.768,9.9,4.727-9.811a1.426,1.426,0,0,1,1.321-.9h7.3c.776,0,2-.455,2-1.4V174.368c0-.945-1.22-1.4-2-1.4Zm-48.45,20.495,1.545,5.814A3.366,3.366,0,0,0,64.005,193.464ZM42.443,196.1l3.127,11.767c6.234-3.6,13.67.128,19.878,2.1l-6.835-25.709C54.218,189.092,49.622,196.078,42.443,196.1Z" transform="translate(0)" fill="#0a346c"/>
      <rect id="Rectangle_2112" data-name="Rectangle 2112" width="32" height="3" rx="1.5" transform="translate(78.308 175.865)" fill="#57a7dc"/>
      <rect id="Rectangle_2113" data-name="Rectangle 2113" width="27" height="3" rx="1.5" transform="translate(83.308 181.965)" fill="#57a7dc"/>
      <rect id="Rectangle_2114" data-name="Rectangle 2114" width="20" height="3" rx="1.5" transform="translate(90.308 188.065)" fill="#57a7dc"/>
    </g>
  </g>
</svg>
