<svg xmlns="http://www.w3.org/2000/svg" width="92" height="92" viewBox="0 0 92 92">
  <g id="discount_Reason" data-name="discount Reason" transform="translate(1.143 0.687)">
    <rect id="Rectangle_2120" data-name="Rectangle 2120" width="92" height="92" transform="translate(-1.143 -0.687)" fill="none"/>
    <g id="Group_4394" data-name="Group 4394" transform="translate(-0.142 0.313)">
      <path id="Path_2153" data-name="Path 2153" d="M82.788,0H58.753A15.157,15.157,0,0,0,47.175,4.941,1.5,1.5,0,0,0,49.3,7.063,12.1,12.1,0,0,1,58.753,3H82.788a4.509,4.509,0,0,1,4.507,4.5V31.509a12.067,12.067,0,0,1-4.068,9.442L38.614,85.575a4.62,4.62,0,0,1-6.372,0L4.624,57.989a4.5,4.5,0,0,1,0-6.365L44.946,11.406c.619.158,1.241.315,1.884.488a114.236,114.236,0,0,1,14.529,4.834A9,9,0,1,0,69.268,12a1.5,1.5,0,1,0,0,3A6.017,6.017,0,1,1,64.1,17.953a19.3,19.3,0,0,1,4.872,2.962,7.254,7.254,0,0,1-1.341.22,1.5,1.5,0,0,0,.131,3c.043,0,.089,0,.134-.006.924-.082,3.735-.33,4.275-2.342,1.48-5.52-20.2-11.621-24.563-12.788A110.864,110.864,0,0,0,29.565,5.556c-6.1-.534-9.073.161-9.631,2.246-.269,1-.981,3.658,11.2,8.455a1.5,1.5,0,1,0,1.1-2.791c-5.884-2.318-8.322-4.017-9.106-4.816,1.855-.543,8.19-.386,18.39,1.931L2.5,49.5a7.494,7.494,0,0,0,0,10.61L30.118,87.7a7.517,7.517,0,0,0,10.622,0L85.352,43.073A15.117,15.117,0,0,0,90.3,31.509V7.5A7.515,7.515,0,0,0,82.788,0Z" transform="translate(-0.299)" fill="#0a346c"/>
      <path id="Path_2154" data-name="Path 2154" d="M297.916,311.135a1.506,1.506,0,0,0-2.065.538l-17.288,29.489a4.514,4.514,0,0,1-6.115,1.7l-3.369-2.183a1.508,1.508,0,0,0-1.64,2.531l3.434,2.223a7.544,7.544,0,0,0,10.3-2.751L298.453,313.2A1.508,1.508,0,0,0,297.916,311.135Z" transform="translate(-220.02 -256.44)" fill="#57a7dc"/>
      <path id="Path_2155" data-name="Path 2155" d="M204.348,240.442v21.116a1.508,1.508,0,0,0,3.016,0V240.442a1.508,1.508,0,1,0-3.016,0Z" transform="translate(-168.432 -197.001)" fill="#57a7dc"/>
      <path id="Path_2156" data-name="Path 2156" d="M255.548,259.017A3.017,3.017,0,1,0,258.565,256,3.02,3.02,0,0,0,255.548,259.017Z" transform="translate(-210.627 -211.003)" fill="#57a7dc"/>
      <path id="Path_2157" data-name="Path 2157" d="M136.081,310.217A3.017,3.017,0,1,0,139.1,307.2,3.02,3.02,0,0,0,136.081,310.217Z" transform="translate(-112.185 -253.204)" fill="#57a7dc"/>
    </g>
  </g>
</svg>
