<svg xmlns="http://www.w3.org/2000/svg" width="92" height="92" viewBox="0 0 92 92">
  <g id="Due_Fees_Report" data-name="Due Fees Report" transform="translate(1301 973.081)">
    <rect id="Rectangle_2119" data-name="Rectangle 2119" width="92" height="92" transform="translate(-1301 -973.081)" fill="none"/>
    <g id="Group_4393" data-name="Group 4393" transform="translate(-1301.677 -973)">
      <path id="Path_2152" data-name="Path 2152" d="M60.421,22.776,39.678,2.033,12.991,28.72l20.641,15.7,10.5-21.646Z" fill="#57a7dc"/>
      <path id="Path_2147" data-name="Path 2147" d="M78.628,36.626H55.853V32.893H78.628Z" transform="translate(-5.229 -2.697)" fill="#57a7dc"/>
      <path id="Path_2148" data-name="Path 2148" d="M78.628,46.3H55.853V42.569H78.628Z" transform="translate(-5.229 -3.513)" fill="#57a7dc"/>
      <path id="Path_2149" data-name="Path 2149" d="M78.628,55.981H55.853V52.247H78.628Z" transform="translate(-5.229 -4.329)" fill="#57a7dc"/>
      <path id="Path_2151" data-name="Path 2151" d="M72.485,20.947h-11.2L40.858,1.424a1.806,1.806,0,0,0-2.505,0L12.267,26.355a1.88,1.88,0,0,0-.558,1.6,1.941,1.941,0,0,0-.031.31V62.919a1.837,1.837,0,0,0,1.82,1.854H43.282V90.919h38.4V30.311A9.291,9.291,0,0,0,72.485,20.947ZM39.606,5.34,55.937,20.948H37.728a9.291,9.291,0,0,0-9.194,9.365v7.619L15.987,27.912ZM15.318,32.061,31.665,45.114,15.318,58.977Zm3.558,29L39.022,43.637l4.26,3.47V61.065ZM78.038,87.211H46.923v-56.9a9.43,9.43,0,0,0-1.872-5.658H72.485a5.612,5.612,0,0,1,5.553,5.658Z" transform="translate(0 0)" fill="#0a346c"/>
      <path id="Icon_awesome-rupee-sign" data-name="Icon awesome-rupee-sign" d="M15.3,5.429a.6.6,0,0,0,.6-.6V2.846a.6.6,0,0,0-.6-.6H.6a.6.6,0,0,0-.6.6V5.068a.6.6,0,0,0,.6.6H4.831A3.583,3.583,0,0,1,7.86,7.018H.6a.6.6,0,0,0-.6.6V9.6a.6.6,0,0,0,.6.6H8.481a3.432,3.432,0,0,1-3.713,2.912H.6a.6.6,0,0,0-.6.6v2.633a.6.6,0,0,0,.192.438l8.2,7.567a.6.6,0,0,0,.4.158h4.1a.6.6,0,0,0,.4-1.034L5.8,16.549a6.8,6.8,0,0,0,6.87-6.353H15.3a.6.6,0,0,0,.6-.6V7.614a.6.6,0,0,0-.6-.6H12.382a6.8,6.8,0,0,0-.708-1.589Z" transform="translate(55.303 58.294)" fill="#57a7dc"/>
    </g>
  </g>
</svg>
