<svg xmlns="http://www.w3.org/2000/svg" width="92" height="92" viewBox="0 0 92 92">
  <g id="Fee_types" data-name="Fee types" transform="translate(-44.633 -132.734)">
    <rect id="Rectangle_2118" data-name="Rectangle 2118" width="92" height="92" transform="translate(44.634 132.734)" fill="none"/>
    <g id="Layer_2" data-name="Layer 2" transform="translate(45.634 143.734)">
      <path id="Path_2139" data-name="Path 2139" d="M132.764,231.042h-58.9a2.1,2.1,0,0,1-2.1-2.1V200.133a2.1,2.1,0,0,1,2.1-2.1h58.9a2.1,2.1,0,0,1,2.1,2.1v28.811A2.1,2.1,0,0,1,132.764,231.042Zm-56.8-4.191h54.708V202.215H75.961Zm27.354-4.469a7.857,7.857,0,1,1,7.857-7.857A7.857,7.857,0,0,1,103.314,222.382Zm0-11.511a3.66,3.66,0,1,0,3.66,3.66,3.66,3.66,0,0,0-3.66-3.66Zm29.944-28.051" transform="translate(-63.261 -171.486)" fill="#57a7dc"/>
      <path id="Path_2140" data-name="Path 2140" d="M201.587,210.393H183.253a2.047,2.047,0,1,1,0-4.093h16.255V147.383H149.914v17.557a2.035,2.035,0,0,1-1.022,1.839,2.139,2.139,0,0,1-2.143,0,2.035,2.035,0,0,1-1.022-1.839v-19.6a2.071,2.071,0,0,1,2.1-2.046h53.765a2.074,2.074,0,0,1,2.1,2.046v63.01a2.019,2.019,0,0,1-.613,1.448,2.118,2.118,0,0,1-1.483.6Z" transform="translate(-113.682 -143.29)" fill="#0a346c"/>
      <path id="Path_2141" data-name="Path 2141" d="M275.426,292.5a2.1,2.1,0,0,1-.9-3.991,3.043,3.043,0,0,0,0-4.836,2.1,2.1,0,0,1,1.781-3.794,7.173,7.173,0,0,1,0,12.441,2.063,2.063,0,0,1-.891.2Z" transform="translate(-199.501 -236.25)" fill="#57a7dc"/>
      <path id="Path_2142" data-name="Path 2142" d="M222.238,174.211H204.005a2.1,2.1,0,0,1,0-4.191h18.233a2.1,2.1,0,1,1,0,4.191Z" transform="translate(-151.302 -161.269)" fill="#57a7dc"/>
      <path id="Path_2143" data-name="Path 2143" d="M210.93,200.181H181.4a2.1,2.1,0,0,1,0-4.191H210.93a2.1,2.1,0,0,1,0,4.191Z" transform="translate(-136.265 -179.148)" fill="#57a7dc"/>
      <path id="Path_2144" data-name="Path 2144" d="M106.774,294.181h-58.9a2.1,2.1,0,0,1-2.1-2.092V263.265a2.1,2.1,0,0,1,2.1-2.1h2.645a2.1,2.1,0,1,1,0,4.191h-.55v24.633h54.711v-.5a2.1,2.1,0,1,1,4.187,0v2.6a2.092,2.092,0,0,1-2.1,2.092Z" transform="translate(-45.78 -224.184)" fill="#0a346c"/>
      <path id="Path_2145" data-name="Path 2145" d="M214.388,277.471H209a2.1,2.1,0,0,1,0-4.191h5.392a2.1,2.1,0,1,1,0,4.191Z" transform="translate(-154.592 -231.737)" fill="#0a346c"/>
      <path id="Path_2146" data-name="Path 2146" d="M110.831,277.471h-5.4a2.1,2.1,0,1,1,0-4.191h5.4a2.1,2.1,0,1,1,0,4.191Z" transform="translate(-84.653 -231.737)" fill="#0a346c"/>
    </g>
  </g>
</svg>
