<svg xmlns="http://www.w3.org/2000/svg" width="92" height="92" viewBox="0 0 92 92">
  <g id="Mange_Cheque" data-name="Mange Cheque" transform="translate(-16466 -684)">
    <rect id="Rectangle_2109" data-name="Rectangle 2109" width="92" height="92" transform="translate(16466 684)" fill="none"/>
    <g id="Cheque" transform="translate(16467.15 685.15)">
      <g id="Group_4379" data-name="Group 4379" transform="translate(0 36.112)">
        <path id="Path_2061" data-name="Path 2061" d="M64.513,73.629H10.93V34.93H61.536a1.488,1.488,0,1,0,0-2.977H9.442a1.488,1.488,0,0,0-1.488,1.488V67.676H4.977v-38.7h56.56a1.488,1.488,0,1,0,0-2.977H3.488A1.488,1.488,0,0,0,2,27.488V69.164a1.488,1.488,0,0,0,1.488,1.488H7.954v4.465a1.488,1.488,0,0,0,1.488,1.488H64.513a1.488,1.488,0,1,0,0-2.977Z" transform="translate(-2 -26)" fill="#0a346c"/>
        <path id="Path_2062" data-name="Path 2062" d="M65.884,31.954H61.419V27.488A1.488,1.488,0,0,0,59.93,26H55.793a1.488,1.488,0,1,0,0,2.977h2.649v2.977H55.465a1.488,1.488,0,0,0,0,2.977H64.4v38.7H52.488a1.488,1.488,0,1,0,0,2.977h13.4a1.488,1.488,0,0,0,1.488-1.488V33.442A1.488,1.488,0,0,0,65.884,31.954Z" transform="translate(22.322 -26)" fill="#0a346c"/>
      </g>
      <g id="Group_4377" data-name="Group 4377" transform="translate(61.415 0)">
        <path id="Path_2070" data-name="Path 2070" d="M62.665,79.007l-4.8-12.27h9.283Z" transform="translate(-55.035 7.711)" fill="#57a7dc"/>
        <path id="Path_2071" data-name="Path 2071" d="M56.748,17.9V7.73s2.03-4.641,5.943-4.641,6.154,5.059,6.154,5.059V17.9Z" transform="translate(-55.202 -1.837)" fill="#57a7dc"/>
        <path id="Path_2067" data-name="Path 2067" d="M56.4,76.745V19.939h1.488a1.492,1.492,0,0,1,1.488,1.495V33.393a1.488,1.488,0,1,0,2.977,0V21.434a4.475,4.475,0,0,0-4.465-4.485V9.475A7.442,7.442,0,1,0,43,9.475v8.969a1.492,1.492,0,0,0,1.488,1.495V76.745a1.5,1.5,0,0,0,.077.472l4.465,13.454a1.486,1.486,0,0,0,2.828,0l4.465-13.454A1.5,1.5,0,0,0,56.4,76.745ZM45.977,9.475a4.465,4.465,0,1,1,8.93,0v7.475h-8.93Zm7.442,10.464V57.312H47.465V19.939Zm0,55.312H47.465V60.3h5.954ZM50.442,85.473l-2.4-7.232h4.8Z" transform="translate(-43 -2)" fill="#0a346c"/>
      </g>
      <g id="Group_4378" data-name="Group 4378" transform="translate(13.396 53.825)">
        <path id="Path_2063" data-name="Path 2063" d="M11,51.488v5.954a1.488,1.488,0,0,0,1.488,1.488H48.21A1.488,1.488,0,0,0,49.7,57.442V51.488A1.488,1.488,0,0,0,48.21,50H12.488A1.488,1.488,0,0,0,11,51.488Zm2.977,1.488H46.722v2.977H13.977Z" transform="translate(-11 -31.991)" fill="#57a7dc"/>
        <path id="Path_2064" data-name="Path 2064" d="M49.3,38H25.488a1.488,1.488,0,1,0,0,2.977H49.3A1.488,1.488,0,1,0,49.3,38Z" transform="translate(-4.447 -38)" fill="#57a7dc"/>
        <path id="Path_2065" data-name="Path 2065" d="M50.791,43.488A1.488,1.488,0,0,0,49.3,42H25.488a1.488,1.488,0,1,0,0,2.977H49.3A1.488,1.488,0,0,0,50.791,43.488Z" transform="translate(-4.447 -36.019)" fill="#57a7dc"/>
        <path id="Path_2068" data-name="Path 2068" d="M55.488,40.977h2.977a1.488,1.488,0,1,0,0-2.977H55.488a1.488,1.488,0,1,0,0,2.977Z" transform="translate(10.391 -38)" fill="#57a7dc"/>
        <path id="Path_2069" data-name="Path 2069" d="M55.488,44.977h2.977a1.488,1.488,0,1,0,0-2.977H55.488a1.488,1.488,0,0,0,0,2.977Z" transform="translate(10.391 -36.019)" fill="#57a7dc"/>
      </g>
      <path id="rupee" d="M11.6,4.66a.452.452,0,0,0,.452-.452V2.7A.452.452,0,0,0,11.6,2.25H.452A.452.452,0,0,0,0,2.7V4.387a.452.452,0,0,0,.452.452H3.663a2.716,2.716,0,0,1,2.3,1.026H.452A.452.452,0,0,0,0,6.316V7.822a.452.452,0,0,0,.452.452H6.429a2.6,2.6,0,0,1-2.815,2.208H.452A.452.452,0,0,0,0,10.933v2a.452.452,0,0,0,.145.332L6.36,19a.452.452,0,0,0,.306.12H9.775a.452.452,0,0,0,.306-.784L4.4,13.09A5.158,5.158,0,0,0,9.608,8.274H11.6a.452.452,0,0,0,.452-.452V6.316a.452.452,0,0,0-.452-.452H9.387a5.157,5.157,0,0,0-.537-1.2Z" transform="translate(15.916 47.482)" fill="#57a7dc"/>
    </g>
  </g>
</svg>
