<svg xmlns="http://www.w3.org/2000/svg" width="92" height="92" viewBox="0 0 92 92">
  <g id="Online_Payment" data-name="Online Payment" transform="translate(-0.949 -0.948)">
    <rect id="Rectangle_2110" data-name="Rectangle 2110" width="92" height="92" transform="translate(0.949 0.948)" fill="none"/>
    <g id="Group_4383" data-name="Group 4383" transform="translate(-0.051 -0.052)">
      <g id="Group_4381" data-name="Group 4381">
        <path id="Path_2077" data-name="Path 2077" d="M5.5,26.491a1.5,1.5,0,0,0,1.5-1.5v-1.5a1.5,1.5,0,0,1,1.5-1.5h3a1.5,1.5,0,1,0,0-3h-3A4.5,4.5,0,0,0,4,23.495v1.5A1.5,1.5,0,0,0,5.5,26.491Z" transform="translate(0.997 8.503)" fill="#0a346c"/>
        <path id="Path_2078" data-name="Path 2078" d="M90.5,60.471H89V36.5a1.5,1.5,0,0,0-3,0V60.471H8V49.983a1.5,1.5,0,0,0-3,0V60.471H3.5a1.5,1.5,0,0,0-1.5,1.5v5.993a7.5,7.5,0,0,0,7.5,7.491h75A7.5,7.5,0,0,0,92,67.962V61.969A1.5,1.5,0,0,0,90.5,60.471Zm-37.5,3v1.5a1.5,1.5,0,0,1-1.5,1.5h-9a1.5,1.5,0,0,1-1.5-1.5v-1.5Zm36,4.495a4.5,4.5,0,0,1-4.5,4.495H9.5A4.5,4.5,0,0,1,5,67.962V63.467H38v1.5a4.5,4.5,0,0,0,4.5,4.495h9A4.5,4.5,0,0,0,56,64.966v-1.5H89Z" transform="translate(0 16.546)" fill="#0a346c"/>
        <path id="Path_2081" data-name="Path 2081" d="M11,51.485a1.5,1.5,0,0,0-3,0v3a1.5,1.5,0,0,0,1.5,1.5H78.52a1.5,1.5,0,0,0,1.5-1.5V39.5a1.5,1.5,0,0,0-3,0V52.983H11Z" transform="translate(2.99 18.015)" fill="#0a346c"/>
      </g>
      <path id="Path_2076" data-name="Path 2076" d="M85.416,2H22.488a1.5,1.5,0,0,0-1.5,1.5v3h-3a1.5,1.5,0,0,0-1.5,1.5v3h-3a1.5,1.5,0,0,0-1.5,1.5V30.467a1.5,1.5,0,1,0,3,0V13.986H74.928V49.945H32.976a1.5,1.5,0,1,0,0,3h43.45a1.5,1.5,0,0,0,1.5-1.5v-3h3a1.5,1.5,0,0,0,1.5-1.5v-3h3a1.5,1.5,0,0,0,1.5-1.5V3.5A1.5,1.5,0,0,0,85.416,2ZM79.423,45.45h-1.5V12.488a1.5,1.5,0,0,0-1.5-1.5H19.491v-1.5H79.423Zm4.495-4.495h-1.5V7.993a1.5,1.5,0,0,0-1.5-1.5H23.986V5H83.917Z" transform="translate(5.086 0)" fill="#0a346c"/>
      <g id="Group_4380" data-name="Group 4380">
        <circle id="Ellipse_24" data-name="Ellipse 24" cx="7" cy="7" r="7" transform="translate(42.949 24.948)" fill="#57a7dc"/>
        <path id="Path_2075" data-name="Path 2075" d="M45.979,24.99a8.99,8.99,0,1,0-8.99,8.99A8.99,8.99,0,0,0,45.979,24.99ZM31,24.99a5.993,5.993,0,1,1,5.993,5.993A5.993,5.993,0,0,1,31,24.99Z" transform="translate(13.011 7.006)" fill="#0a346c"/>
        <path id="Path_2072" data-name="Path 2072" d="M30.983,41.966H63.945a1.5,1.5,0,0,0,1.5-1.5,3,3,0,0,1,3-3,1.5,1.5,0,0,0,1.5-1.5V17.993a1.5,1.5,0,0,0-1.5-1.5,3,3,0,0,1-3-3,1.5,1.5,0,0,0-1.5-1.5H21.993a1.5,1.5,0,0,0-1.5,1.5,3,3,0,0,1-3,3,1.5,1.5,0,0,0-1.5,1.5v8.99a1.5,1.5,0,0,0,3,0V19.3A6.016,6.016,0,0,0,23.3,15H62.637a6.016,6.016,0,0,0,4.3,4.306v15.36a6.016,6.016,0,0,0-4.3,4.306H30.983a1.5,1.5,0,0,0,0,3Z" transform="translate(7.036 5.009)" fill="#57a7dc"/>
        <path id="Path_2073" data-name="Path 2073" d="M47.495,24a1.5,1.5,0,1,0,0-3h-3a1.5,1.5,0,1,0,0,3Z" transform="translate(20.505 9.501)" fill="#57a7dc"/>
        <path id="Path_2074" data-name="Path 2074" d="M25.495,21h-3a1.5,1.5,0,0,0,0,3h3a1.5,1.5,0,0,0,0-3Z" transform="translate(9.502 9.501)" fill="#57a7dc"/>
      </g>
      <g id="Rupee">
        <path id="Path_2079" data-name="Path 2079" d="M18.481,55.962A16.481,16.481,0,1,0,2,39.481,16.481,16.481,0,0,0,18.481,55.962Zm0-29.966A13.485,13.485,0,1,1,5,39.481,13.485,13.485,0,0,1,18.481,26Z" transform="translate(0 10.521)" fill="#57a7dc"/>
        <path id="rupee-2" data-name="rupee" d="M12.3,4.806a.479.479,0,0,0,.479-.479v-1.6A.479.479,0,0,0,12.3,2.25H.479A.479.479,0,0,0,0,2.729V4.516A.479.479,0,0,0,.479,5H3.884A2.881,2.881,0,0,1,6.319,6.083H.479A.479.479,0,0,0,0,6.562v1.6a.479.479,0,0,0,.479.479H6.818A2.759,2.759,0,0,1,3.833,10.98H.479A.479.479,0,0,0,0,11.459v2.117a.479.479,0,0,0,.154.352l6.591,6.084a.479.479,0,0,0,.325.127h3.3a.479.479,0,0,0,.325-.831L4.667,13.746A5.47,5.47,0,0,0,10.19,8.639H12.3a.479.479,0,0,0,.479-.479v-1.6a.479.479,0,0,0-.479-.479H9.955a5.469,5.469,0,0,0-.569-1.278Z" transform="translate(11.986 38.807)" fill="#0a346c"/>
      </g>
      <g id="Group_4382" data-name="Group 4382">
        <path id="Path_2082" data-name="Path 2082" d="M27,43h3v3H27Z" transform="translate(12.501 20.502)" fill="#57a7dc"/>
        <path id="Path_2083" data-name="Path 2083" d="M31,43h3v3H31Z" transform="translate(14.502 20.502)" fill="#57a7dc"/>
        <path id="Path_2084" data-name="Path 2084" d="M35,43h3v3H35Z" transform="translate(16.502 20.502)" fill="#57a7dc"/>
      </g>
    </g>
  </g>
</svg>
