<svg xmlns="http://www.w3.org/2000/svg" width="92" height="92" viewBox="0 0 92 92">
  <g id="Payment_History" data-name="Payment History" transform="translate(-16498.379 -120.378)">
    <rect id="Rectangle_2102" data-name="Rectangle 2102" width="92" height="92" transform="translate(16498.379 120.378)" fill="none"/>
    <g id="history" transform="translate(16498.436 120.435)">
      <g id="c3">
        <path id="Path_2056" data-name="Path 2056" d="M16308.716,550.611v-6.078s1.3-2.092,2.791-2.092h56.988s2.593,1.2,2.691,3.188,0,4.982,0,4.982Z" transform="translate(-16293.057 -506.057)" fill="#57a7dc"/>
        <path id="Path_2033" data-name="Path 2033" d="M75.063,194.72h62.788v-6.126A4.6,4.6,0,0,0,133.257,184H76.594A4.6,4.6,0,0,0,72,188.594v33.691a4.6,4.6,0,0,0,4.594,4.594h4.594v-3.063H76.594a1.532,1.532,0,0,1-1.531-1.531V208.5h6.126V205.44H75.063Zm1.531-7.657h56.663a1.532,1.532,0,0,1,1.531,1.531v3.063H75.063v-3.063A1.532,1.532,0,0,1,76.594,187.063Zm0,0" transform="translate(-58.217 -148.777)" fill="#0a346c"/>
      </g>
      <g id="c1">
        <path id="Path_2032" data-name="Path 2032" d="M197.257,256H140.594A4.6,4.6,0,0,0,136,260.594v33.691a4.6,4.6,0,0,0,4.594,4.594h56.663a4.6,4.6,0,0,0,4.594-4.594V260.594A4.6,4.6,0,0,0,197.257,256Zm1.531,38.286a1.532,1.532,0,0,1-1.531,1.531H140.594a1.532,1.532,0,0,1-1.531-1.531V260.594a1.532,1.532,0,0,1,1.531-1.531h56.663a1.532,1.532,0,0,1,1.531,1.531Zm0,0" transform="translate(-109.966 -206.995)" fill="#0a346c"/>
        <g id="c1-2" data-name="c1">
          <path id="Path_2034" data-name="Path 2034" d="M365.783,288h-9.189A4.6,4.6,0,0,0,352,292.594v9.189a4.6,4.6,0,0,0,4.594,4.594h9.189a4.6,4.6,0,0,0,4.594-4.594v-9.189A4.6,4.6,0,0,0,365.783,288Zm-10.72,13.783v-9.189a1.532,1.532,0,0,1,1.531-1.531h1.531v3.063h3.063v-3.063h4.594a1.532,1.532,0,0,1,1.531,1.531v4.594h-6.126a3.067,3.067,0,0,0-3.063,3.063v3.063h-1.531A1.532,1.532,0,0,1,355.063,301.783Zm10.72,1.531h-4.594v-3.063h6.126v1.531A1.532,1.532,0,0,1,365.783,303.314Zm0,0" transform="translate(-284.618 -232.869)" fill="#57a7dc"/>
          <path id="Path_2035" data-name="Path 2035" d="M320,312h3.063v3.063H320Zm0,0" transform="translate(-258.743 -252.275)" fill="#57a7dc"/>
          <path id="Path_2036" data-name="Path 2036" d="M200,312h19.908v3.063H200Zm0,0" transform="translate(-161.715 -252.275)" fill="#57a7dc"/>
          <path id="Path_2037" data-name="Path 2037" d="M168,312h3.063v3.063H168Zm0,0" transform="translate(-135.84 -252.275)" fill="#57a7dc"/>
          <path id="Path_2038" data-name="Path 2038" d="M320,344h3.063v3.063H320Zm0,0" transform="translate(-258.743 -278.149)" fill="#57a7dc"/>
          <path id="Path_2039" data-name="Path 2039" d="M200,344h19.908v3.063H200Zm0,0" transform="translate(-161.715 -278.149)" fill="#57a7dc"/>
          <path id="Path_2040" data-name="Path 2040" d="M168,344h3.063v3.063H168Zm0,0" transform="translate(-135.84 -278.149)" fill="#57a7dc"/>
          <path id="Path_2041" data-name="Path 2041" d="M247.657,384h-4.594A3.067,3.067,0,0,0,240,387.063v4.594a3.067,3.067,0,0,0,3.063,3.063h4.594a3.067,3.067,0,0,0,3.063-3.063v-4.594A3.067,3.067,0,0,0,247.657,384Zm0,7.657h-4.594v-4.594h4.594Zm0,0" transform="translate(-194.057 -310.492)" fill="#57a7dc"/>
          <path id="Path_2042" data-name="Path 2042" d="M175.657,384h-4.594A3.067,3.067,0,0,0,168,387.063v4.594a3.067,3.067,0,0,0,3.063,3.063h4.594a3.067,3.067,0,0,0,3.063-3.063v-4.594A3.067,3.067,0,0,0,175.657,384Zm0,7.657h-4.594v-4.594h4.594Zm0,0" transform="translate(-135.84 -310.492)" fill="#57a7dc"/>
          <path id="Path_2043" data-name="Path 2043" d="M424,408h3.063v3.063H424Zm0,0" transform="translate(-342.835 -329.898)" fill="#57a7dc"/>
          <path id="Path_2044" data-name="Path 2044" d="M392,408h3.063v3.063H392Zm0,0" transform="translate(-316.96 -329.898)" fill="#57a7dc"/>
          <path id="Path_2045" data-name="Path 2045" d="M360,408h3.063v3.063H360Zm0,0" transform="translate(-291.086 -329.898)" fill="#57a7dc"/>
          <path id="Path_2046" data-name="Path 2046" d="M328,408h3.063v3.063H328Zm0,0" transform="translate(-265.212 -329.898)" fill="#57a7dc"/>
        </g>
      </g>
      <g id="c2">
        <path id="Path_2047" data-name="Path 2047" d="M9.189,47.474V32.16H21.44a4.6,4.6,0,0,0,4.594-4.594V18.377a4.6,4.6,0,0,0-4.594-4.594H9.189V4.594A1.532,1.532,0,0,1,10.72,3.063H82.7a1.532,1.532,0,0,1,1.531,1.531V45.943h3.063V4.594A4.6,4.6,0,0,0,82.7,0H10.72A4.6,4.6,0,0,0,6.126,4.594v9.189H4.594A4.6,4.6,0,0,0,0,18.377V33.691a4.6,4.6,0,0,0,4.594,4.594H6.126v9.189a4.6,4.6,0,0,0,4.594,4.594V49.005A1.532,1.532,0,0,1,9.189,47.474Zm-6.126-29.1a1.532,1.532,0,0,1,1.531-1.531H21.44a1.532,1.532,0,0,1,1.531,1.531v9.189A1.532,1.532,0,0,1,21.44,29.1H3.063ZM4.594,35.223a1.532,1.532,0,0,1-1.531-1.531V32.16H6.126v3.063Zm0,0" fill="#0a346c"/>
        <g id="c2-2" data-name="c2">
          <path id="Path_2048" data-name="Path 2048" d="M78.126,107.063A3.063,3.063,0,1,1,75.063,104,3.063,3.063,0,0,1,78.126,107.063Zm0,0" transform="translate(-58.217 -84.092)" fill="#57a7dc"/>
          <path id="Path_2049" data-name="Path 2049" d="M204.068,43.063h-3.063A3.067,3.067,0,0,0,197.943,40H194.88a3.067,3.067,0,0,0-3.063,3.063H181.1A3.067,3.067,0,0,0,178.034,40h-3.063a3.067,3.067,0,0,0-3.063,3.063v2.359l-8.79,7.534a3.03,3.03,0,0,0-1.93-.7h-3.063a3.067,3.067,0,0,0-3.063,3.063H152v3.063h3.063a3.067,3.067,0,0,0,3.063,3.063h3.063a3.067,3.067,0,0,0,3.063-3.063V56.018l8.79-7.534a3.029,3.029,0,0,0,1.93.7h3.063a3.067,3.067,0,0,0,3.063-3.063h10.72a3.067,3.067,0,0,0,3.063,3.063h3.063a3.067,3.067,0,0,0,3.063-3.063h3.063ZM158.126,58.377V55.314h3.063l0,3.063Zm16.846-12.251V43.063h3.063l0,3.063Zm19.908,0V43.063h3.063l0,3.063Zm0,0" transform="translate(-122.903 -32.343)" fill="#57a7dc"/>
          <path id="Path_2050" data-name="Path 2050" d="M248,136h3.063v3.063H248Zm0,0" transform="translate(-200.526 -109.966)" fill="#57a7dc"/>
          <path id="Path_2051" data-name="Path 2051" d="M280,136h21.44v3.063H280Zm0,0" transform="translate(-226.4 -109.966)" fill="#57a7dc"/>
          <path id="Path_2052" data-name="Path 2052" d="M408,136h3.063v3.063H408Zm0,0" transform="translate(-329.898 -109.966)" fill="#57a7dc"/>
          <path id="Path_2053" data-name="Path 2053" d="M264,104h3.063v3.063H264Zm0,0" transform="translate(-213.463 -84.092)" fill="#57a7dc"/>
          <path id="Path_2054" data-name="Path 2054" d="M296,104h18.377v3.063H296Zm0,0" transform="translate(-239.338 -84.092)" fill="#57a7dc"/>
          <path id="Path_2055" data-name="Path 2055" d="M408,104h3.063v3.063H408Zm0,0" transform="translate(-329.898 -84.092)" fill="#57a7dc"/>
        </g>
      </g>
    </g>
  </g>
</svg>
