<svg xmlns="http://www.w3.org/2000/svg" width="92" height="92.252" viewBox="0 0 92 92.252">
  <g id="Referred_by_Reports" data-name="Referred by Reports" transform="translate(-0.162 -0.162)">
    <rect id="Rectangle_2006" data-name="Rectangle 2006" width="92" height="92" transform="translate(0.162 0.162)" fill="none"/>
    <g id="Group_4396" data-name="Group 4396" transform="translate(3.486 0.493)">
      <path id="Subtraction_16" data-name="Subtraction 16" d="M35.178,90H5.214A5.25,5.25,0,0,1,0,84.727V5.273A5.25,5.25,0,0,1,5.214,0h46.57a1.717,1.717,0,0,1,1.229.515L69.7,17.39a1.76,1.76,0,0,1,.509,1.243V42.012a1.738,1.738,0,1,1-3.476,0V20.391H55.26a5.25,5.25,0,0,1-5.214-5.273V3.516H5.214A1.75,1.75,0,0,0,3.476,5.273V84.727a1.75,1.75,0,0,0,1.738,1.758H20.159v-.206h3.476v.207h7.646v-.21h3.476v.211h.461A3.412,3.412,0,0,1,35.179,90ZM53.522,6v9.116a1.75,1.75,0,0,0,1.738,1.758h9.013Z" transform="translate(1.676 1.67)" fill="#0a346c" stroke="#0a346c" stroke-width="0.5"/>
      <g id="Group_4232" data-name="Group 4232" transform="translate(10.991 11.182)">
        <g id="Group_4231" data-name="Group 4231">
          <path id="Path_1717" data-name="Path 1717" d="M-16622.043-1146.463l-.049,1.525.049-18.437s17.088,1.976,17.5,18.37h-17.5" transform="translate(16638.654 1165.094)" fill="#57a7dc"/>
          <path id="Path_1713" data-name="Path 1713" d="M69.586,54.729a1.738,1.738,0,0,0-1.738,1.738v3.126A15.984,15.984,0,1,0,85.476,77.221H88.6a1.738,1.738,0,0,0,1.738-1.738A20.778,20.778,0,0,0,69.586,54.729Zm0,33.262a12.509,12.509,0,0,1-1.738-24.9V75.483a1.738,1.738,0,0,0,1.738,1.738H81.974A12.528,12.528,0,0,1,69.586,87.991Zm1.738-14.246h0V58.291A17.312,17.312,0,0,1,86.778,73.745Z" transform="translate(-53.602 -54.729)" fill="#0a346c" stroke="#0a346c" stroke-width="0.5"/>
        </g>
        <g id="Group_4229" data-name="Group 4229" transform="translate(0.069 40.439)">
          <path id="Path_1714" data-name="Path 1714" d="M85.787,294.251H55.581c-.873,0-1.581,1.245-1.581,2.781s.708,2.781,1.581,2.781H85.787c.873,0,1.581-1.245,1.581-2.781S86.661,294.251,85.787,294.251Z" transform="translate(-54 -294.251)" fill="#57a7dc"/>
          <path id="Path_2164" data-name="Path 2164" d="M78.184,294.251H55.2c-.665,0-1.2,1.245-1.2,2.781s.539,2.781,1.2,2.781H78.184c.665,0,1.2-1.245,1.2-2.781S78.848,294.251,78.184,294.251Z" transform="translate(-54 -276.251)" fill="#57a7dc"/>
          <path id="Path_1715" data-name="Path 1715" d="M68.7,342.5H55.986c-1.1,0-1.986,1.245-1.986,2.781s.889,2.78,1.986,2.78H68.7c1.1,0,1.986-1.245,1.986-2.78S69.8,342.5,68.7,342.5Z" transform="translate(-54 -334.158)" fill="#57a7dc"/>
          <path id="Path_1716" data-name="Path 1716" d="M172.827,343.315a2.779,2.779,0,1,0,.815,1.966A2.8,2.8,0,0,0,172.827,343.315Z" transform="translate(-148.255 -334.158)" fill="#0a346c"/>
        </g>
      </g>
      <g id="Group_4395" data-name="Group 4395" transform="translate(39.012 47.441)">
        <path id="Path_2166" data-name="Path 2166" d="M16337.013,1360.672c1.133-3.453-1.905-7.323-1.905-7.323s.119-.417-6.49-.774-5.775,8.1-5.775,8.1l4.654-.066,1.142-1.141,1.424.647,4.824,1.089Z" transform="translate(-16297.779 -1351.974)" fill="#57a7dc"/>
        <path id="Path_2163" data-name="Path 2163" d="M26.357,43.488c5.5-1.786,5.862-8.016,5.862-8.016h-2.2L34.394,31.1,39,35.7H36.571s-1.379,9.261-10.245,7.838" transform="translate(-0.238 -0.301)" fill="#57a7dc"/>
        <path id="Path_2165" data-name="Path 2165" d="M16337.013,1360.672c1.133-3.453-1.905-7.323-1.905-7.323s.119-.417-6.49-.774-5.775,8.1-5.775,8.1l4.654-.066,1.142-1.141,1.424.647,4.824,1.089Z" transform="translate(-16318.611 -1336.134)" fill="#57a7dc"/>
        <path id="Path_2158" data-name="Path 2158" d="M38.36,40.012a6.391,6.391,0,0,1-2.032-2.854h-.372a2.823,2.823,0,0,1-1.416-5.27V28.663A5.67,5.67,0,0,1,40.2,23H44.45a5.67,5.67,0,0,1,5.663,5.663v3.225a2.823,2.823,0,0,1-1.416,5.27h-.372a6.4,6.4,0,0,1-2.032,2.854,7.789,7.789,0,0,1,7.36,7.765v2.832a.708.708,0,0,1-.708.708H31.708A.708.708,0,0,1,31,50.609V47.777A7.789,7.789,0,0,1,38.36,40.012ZM45.5,41.406l-2.224,2.779,2.156,2.156.982-4.908c-.181-.016-.362-.028-.547-.028Zm-4.531,0,1.359,1.7,1.359-1.7Zm-1.814,0h-.367c-.185,0-.366.012-.547.028l.982,4.908,2.156-2.156Zm-3.2-5.663H36a6.325,6.325,0,0,1-.042-.708V32.911a1.416,1.416,0,1,0,0,2.832ZM48.7,28.663a4.252,4.252,0,0,0-4.248-4.248H40.2a4.252,4.252,0,0,0-4.248,4.248V31.5h2.832A1.417,1.417,0,0,0,40.2,30.079V27.248h1.416v.708a3.544,3.544,0,0,0,3.54,3.54H48.7Zm0,7.079a1.416,1.416,0,0,0,0-2.832v2.124a6.326,6.326,0,0,1-.042.708Zm-1.416-.708V32.911H45.158a4.944,4.944,0,0,1-3.76-1.737,2.835,2.835,0,0,1-2.611,1.737H37.371v2.124a4.955,4.955,0,0,0,9.911,0ZM32.416,49.9H52.238V47.777A6.381,6.381,0,0,0,47.8,41.709L46.56,47.917a.709.709,0,0,1-.489.539.722.722,0,0,1-.2.03.709.709,0,0,1-.5-.207l-3.039-3.039-3.039,3.039a.708.708,0,0,1-1.195-.362l-1.242-6.208a6.383,6.383,0,0,0-4.435,6.069Z" transform="translate(-31 -7.317)" fill="#0a346c"/>
        <path id="Path_2159" data-name="Path 2159" d="M1,28.609V25.777a7.789,7.789,0,0,1,7.36-7.765,6.391,6.391,0,0,1-2.032-2.854H5.955A2.823,2.823,0,0,1,4.54,9.889V6.663A5.67,5.67,0,0,1,10.2,1h4.248a5.67,5.67,0,0,1,5.663,5.663V9.889a2.823,2.823,0,0,1-1.416,5.27h-.372a6.4,6.4,0,0,1-2.032,2.854,7.789,7.789,0,0,1,7.36,7.765v2.832a.708.708,0,0,1-.708.708H1.708A.708.708,0,0,1,1,28.609Zm14.5-9.2-2.224,2.779,2.156,2.156.982-4.908c-.181-.016-.362-.028-.547-.028Zm-4.531,0,1.359,1.7,1.359-1.7Zm-1.814,0H8.787c-.185,0-.366.012-.547.028l.982,4.908,2.156-2.156Zm-3.2-5.663H6a6.325,6.325,0,0,1-.042-.708V10.911a1.416,1.416,0,0,0,0,2.832ZM18.7,6.663a4.252,4.252,0,0,0-4.248-4.248H10.2A4.252,4.252,0,0,0,5.955,6.663V9.5H8.787A1.417,1.417,0,0,0,10.2,8.079V5.248h1.416v.708a3.544,3.544,0,0,0,3.54,3.54H18.7Zm0,7.079a1.416,1.416,0,0,0,0-2.832v2.124a6.325,6.325,0,0,1-.042.708Zm-1.416-.708V10.911H15.158A4.944,4.944,0,0,1,11.4,9.174a2.835,2.835,0,0,1-2.611,1.737H7.371v2.124a4.955,4.955,0,1,0,9.911,0ZM2.416,27.9H22.238V25.777A6.381,6.381,0,0,0,17.8,19.709L16.56,25.917a.709.709,0,0,1-.489.539.723.723,0,0,1-.2.03.709.709,0,0,1-.5-.207l-3.039-3.039L9.288,26.278a.708.708,0,0,1-1.195-.362L6.851,19.708a6.383,6.383,0,0,0-4.435,6.069Z" transform="translate(20.347 -1)" fill="#0a346c"/>
        <path id="Path_2160" data-name="Path 2160" d="M7.708,55.743a7.089,7.089,0,0,0,7.044-6.371H12.663a.708.708,0,0,1-.5-1.208l4.955-4.955a.707.707,0,0,1,1,0l4.955,4.955a.708.708,0,0,1-.5,1.208H20.421a8.506,8.506,0,0,1-8.465,7.787H7.708a.708.708,0,0,1,0-1.416Zm11.327-7.079a.708.708,0,0,1,.708-.708h1.123l-3.247-3.247-3.247,3.247h1.123a.708.708,0,0,1,.708.708,8.5,8.5,0,0,1-3.781,7.064A7.089,7.089,0,0,0,19.034,48.663Z" transform="translate(16.47 -13.158)" fill="#0a346c"/>
      </g>
    </g>
  </g>
</svg>
