<svg xmlns="http://www.w3.org/2000/svg" width="92" height="92" viewBox="0 0 92 92">
  <g id="Transactional_SMS_Report" data-name="Transactional SMS Report" transform="translate(-18 -18.001)">
    <rect id="Rectangle_2111" data-name="Rectangle 2111" width="92" height="92" transform="translate(18 18.001)" fill="none"/>
    <g id="Group_4386" data-name="Group 4386" transform="translate(15 17)">
      <g id="Group_4384" data-name="Group 4384" transform="translate(10 2.001)">
        <path id="Path_2094" data-name="Path 2094" d="M25.922,18.669V49.51L52.058,69.068l29.5-20.78V18.669Z" transform="translate(-14.363 -6.568)" fill="#57a7dc"/>
        <path id="Path_2089" data-name="Path 2089" d="M48.485,15.267a1.452,1.452,0,0,1-.993-2.511c6.189-5.8,11.057-10.363,11.057-10.363A1.452,1.452,0,0,1,60.54,2.4L71.472,12.762a1.452,1.452,0,1,1-2,2.107L59.535,5.447C57.8,7.07,53.992,10.641,49.478,14.874A1.445,1.445,0,0,1,48.485,15.267Z" transform="translate(-20.352 -2.001)" fill="#0a346c"/>
        <path id="Path_2090" data-name="Path 2090" d="M110.4,49.244a1.449,1.449,0,0,1-1.048-.447c-.147-.152-1.446-1.408-8.486-8.1a1.452,1.452,0,0,1,2-2.105c8.185,7.778,8.474,8.08,8.583,8.194a1.452,1.452,0,0,1-1.05,2.456Z" transform="translate(-35.182 -11.926)" fill="#0a346c"/>
        <path id="Path_2091" data-name="Path 2091" d="M13.176,49.355a1.449,1.449,0,0,1-1.075-2.42c.123-.135.412-.452,8.691-8.244a1.452,1.452,0,0,1,1.991,2.115c-7.038,6.625-8.372,7.912-8.541,8.091A1.463,1.463,0,0,1,13.176,49.355Z" transform="translate(-10.473 -11.954)" fill="#0a346c"/>
        <path id="Path_2088" data-name="Path 2088" d="M25.027,49.754A1.448,1.448,0,0,1,23.585,48.3V17.726a1.448,1.448,0,0,1,1.442-1.452H80.419a1.447,1.447,0,0,1,1.442,1.452v22.2l.107,8.092a1.447,1.447,0,0,1-1.423,1.471h-.019a1.447,1.447,0,0,1-1.441-1.433l-.107-8.111V19.178H26.469V48.3A1.447,1.447,0,0,1,25.027,49.754Z" transform="translate(-13.723 -5.912)" fill="#57a7dc"/>
        <path id="Path_2085" data-name="Path 2085" d="M81.657,105.049H16.343A6.3,6.3,0,0,1,10,98.812V54.151a6.165,6.165,0,0,1,1.619-4.134,1.44,1.44,0,0,1,1.94-.181L47.675,75.775,84.616,49.955a1.44,1.44,0,0,1,1.932.26A6.094,6.094,0,0,1,88,54.151V98.812A6.3,6.3,0,0,1,81.657,105.049ZM13.069,53.105a3.1,3.1,0,0,0-.18,1.046V98.812a3.4,3.4,0,0,0,3.454,3.333H81.657a3.4,3.4,0,0,0,3.454-3.333V54.151a3.076,3.076,0,0,0-.137-.909L48.464,78.761a1.438,1.438,0,0,1-1.7-.034Z" transform="translate(-10 -15.049)" fill="#0a346c"/>
        <path id="Path_2086" data-name="Path 2086" d="M14.845,115.28a1.452,1.452,0,0,1-.984-2.521L35.9,92.5a1.452,1.452,0,1,1,1.965,2.138L15.826,114.9A1.446,1.446,0,0,1,14.845,115.28Z" transform="translate(-10.929 -26.716)" fill="#0a346c"/>
        <path id="Path_2087" data-name="Path 2087" d="M104.421,115.28a1.445,1.445,0,0,1-.982-.383L81.4,94.64A1.452,1.452,0,0,1,83.369,92.5L105.4,112.759a1.452,1.452,0,0,1-.984,2.521Z" transform="translate(-29.843 -26.716)" fill="#0a346c"/>
      </g>
      <g id="Group_4385" data-name="Group 4385" transform="translate(34.578 17.52)">
        <path id="Path_2092" data-name="Path 2092" d="M58.557,63.755a2.2,2.2,0,0,1-1.117-.3c-7-3.979-13.3-8.412-13.3-18.677V29.064a1.452,1.452,0,0,1,1.213-1.432l1.833-.306a30.734,30.734,0,0,0,8.588-2.738l2.149-1.053a1.452,1.452,0,0,1,1.257-.01L61.9,24.811a30.826,30.826,0,0,0,8.788,2.648l1.037.147a1.453,1.453,0,0,1,1.249,1.437V44.752c0,10.281-6.3,14.716-13.317,18.706A2.2,2.2,0,0,1,58.557,63.755Zm.319-2.828.018.01ZM47.039,30.294V44.773c0,7.852,3.879,11.587,11.518,15.972,7.639-4.385,11.518-8.122,11.518-15.992V30.3a33.7,33.7,0,0,1-9.412-2.866l-2.094-.986-1.524.746a33.626,33.626,0,0,1-9.393,3Z" transform="translate(-44.135 -23.387)" fill="#0a346c"/>
        <path id="Path_2093" data-name="Path 2093" d="M58.494,55.672l-5.157-3.678a1.452,1.452,0,0,1,1.686-2.365l3.087,2.2,8.473-9.065A1.452,1.452,0,0,1,68.7,44.748Z" transform="translate(-46.489 -28.57)" fill="#0a346c"/>
        <path id="Path_2095" data-name="Path 2095" d="M64,24.872" transform="translate(-49.578 -23.794)" fill="none" stroke="#707070" stroke-width="1"/>
      </g>
    </g>
  </g>
</svg>
