<?xml version="1.0" standalone="no"?>
<!DOCTYPE svg PUBLIC "-//W3C//DTD SVG 20010904//EN"
 "http://www.w3.org/TR/2001/REC-SVG-20010904/DTD/svg10.dtd">
<svg version="1.0" xmlns="http://www.w3.org/2000/svg"
 width="612.000000pt" height="408.000000pt" viewBox="0 0 612.000000 408.000000"
 preserveAspectRatio="xMidYMid meet">
<metadata>
Created by potrace 1.16, written by Peter Selinger 2001-2019
</metadata>
<g transform="translate(0.000000,408.000000) scale(0.100000,-0.100000)"
fill="#000000" stroke="none">
<path d="M1831 2981 c-8 -5 -25 -7 -38 -5 -12 2 -23 0 -23 -5 0 -6 -6 -8 -13
-5 -20 7 -137 -38 -203 -77 -78 -48 -119 -84 -154 -135 -34 -49 -67 -163 -55
-191 5 -10 7 -24 6 -30 -3 -17 27 -73 39 -73 13 0 13 0 -5 50 -34 97 -4 195
90 285 57 54 158 114 233 136 23 7 42 15 42 19 0 4 11 5 25 2 14 -2 25 0 25 4
0 5 39 9 87 8 88 -1 146 -17 170 -45 17 -21 20 -62 5 -79 -26 -30 -105 -155
-105 -167 0 -7 -4 -10 -8 -7 -11 6 -50 -47 -42 -59 3 -5 2 -7 -4 -4 -15 9
-382 -405 -455 -513 -15 -24 -16 -17 -10 130 14 358 14 352 0 348 -9 -3 -14
-33 -16 -109 -6 -236 -21 -445 -35 -483 -11 -30 -12 -47 -4 -69 6 -17 7 -65 3
-118 -5 -61 -3 -89 4 -89 15 0 18 13 25 112 6 78 9 87 29 92 24 6 106 73 106
87 0 16 -28 10 -42 -10 -8 -10 -31 -29 -52 -41 l-38 -23 7 49 c4 27 19 67 33
89 33 53 172 221 259 315 206 223 329 376 358 445 19 47 27 88 16 80 -7 -3 -8
0 -5 10 10 24 -24 54 -79 70 -56 17 -154 20 -176 6z"/>
<path d="M2985 2680 c-3 -5 -4 -14 -1 -18 2 -4 -2 -37 -9 -72 -7 -36 -21 -126
-30 -200 -13 -100 -24 -146 -41 -179 -26 -47 -31 -87 -13 -93 8 -3 7 -19 -4
-58 -10 -34 -13 -58 -7 -64 13 -13 28 30 52 144 19 93 68 195 82 172 3 -6 15
-53 26 -106 20 -98 43 -156 60 -156 13 0 13 33 0 46 -6 6 -21 59 -34 120 -13
60 -26 116 -30 125 -7 16 49 94 161 227 52 62 63 82 43 82 -17 0 -156 -167
-243 -291 l-39 -54 7 50 c9 71 45 297 51 318 6 18 -20 25 -31 7z"/>
<path d="M3587 2663 c-3 -5 -21 -64 -41 -132 -38 -129 -62 -184 -103 -238 -35
-45 -51 -49 -49 -10 1 23 -4 32 -17 35 -32 7 -61 -6 -117 -53 -30 -25 -59 -45
-63 -45 -5 0 6 12 23 26 29 25 70 91 70 114 0 5 -8 10 -19 10 -26 0 -84 -67
-100 -117 -25 -76 7 -96 69 -42 53 46 112 89 122 89 4 0 8 -9 8 -19 0 -28 -49
-63 -76 -57 -32 8 -40 -12 -10 -25 36 -17 89 -3 141 36 51 40 55 41 55 20 0
-25 17 -17 81 40 34 30 67 55 75 55 7 0 19 -21 26 -47 12 -42 17 -48 42 -51
41 -5 73 15 101 62 24 40 24 40 30 14 14 -55 52 -46 97 24 35 53 38 52 53 -15
3 -16 16 -32 30 -39 22 -10 29 -8 50 12 23 22 55 97 55 130 0 13 7 16 29 12
16 -2 32 1 36 8 9 15 7 17 -41 25 -40 6 -41 5 -47 -24 -12 -58 -49 -132 -65
-129 -8 2 -21 24 -29 51 -9 30 -19 47 -29 47 -19 0 -70 -53 -79 -81 -11 -33
-32 -21 -45 26 -14 49 -31 56 -65 27 -46 -38 -75 -112 -45 -112 6 0 5 -6 -2
-14 -11 -11 -16 -10 -30 7 -10 11 -18 28 -18 37 0 10 -8 28 -18 40 -17 20 -22
22 -53 11 -19 -6 -49 -25 -67 -42 -18 -17 -36 -29 -39 -26 -3 3 18 75 46 161
28 85 51 163 51 174 0 22 -15 38 -23 25z"/>
<path d="M2695 2628 c-2 -7 -24 -83 -49 -168 -57 -199 -57 -200 -109 -254 -50
-53 -76 -62 -53 -18 24 47 30 97 12 111 -23 19 -83 -14 -125 -69 -43 -57 -67
-60 -64 -7 4 57 -25 48 -71 -23 -21 -33 -42 -58 -46 -55 -4 2 -4 24 1 47 11
61 -5 72 -41 28 -23 -28 -28 -31 -23 -12 9 38 -23 26 -69 -25 -24 -25 -53 -58
-65 -71 -23 -24 -23 -24 -23 -3 0 11 -4 21 -9 21 -4 0 -6 11 -3 25 8 44 -27
29 -86 -35 -67 -73 -82 -76 -82 -16 0 84 -29 73 -94 -35 -32 -54 -45 -84 -38
-91 6 -6 22 11 47 51 21 34 41 61 46 61 4 0 9 -12 11 -27 2 -22 9 -29 32 -31
23 -3 38 7 87 56 l58 60 3 -32 c3 -28 6 -31 36 -31 17 0 32 0 32 -1 0 0 -60
-52 -132 -116 -139 -120 -198 -187 -245 -278 -25 -50 -28 -65 -28 -155 0 -122
18 -162 80 -183 147 -49 285 174 392 633 26 116 40 156 59 175 l24 25 0 -38
c0 -36 2 -38 27 -35 18 2 35 14 48 35 22 35 40 42 49 18 3 -8 18 -15 34 -15
22 0 38 12 78 62 52 66 84 85 84 49 0 -38 -32 -90 -62 -100 -37 -13 -27 -31
17 -31 45 0 84 16 118 48 l27 26 0 -42 c0 -22 5 -44 12 -48 7 -4 35 20 73 61
l62 69 19 -40 c15 -31 25 -40 50 -42 20 -2 36 4 49 18 23 26 13 37 -19 21 -30
-16 -42 -9 -61 35 -8 19 -19 34 -25 34 -22 0 -65 -31 -90 -66 -61 -82 -56 -30
23 226 41 135 55 210 38 210 -6 0 -14 -6 -16 -12z m-656 -685 c-66 -265 -136
-429 -218 -514 -52 -54 -87 -67 -127 -47 -46 22 -67 70 -68 152 0 99 40 181
143 289 95 101 294 272 299 258 2 -6 -11 -68 -29 -138z"/>
<path d="M4819 2236 c-4 -4 -214 -35 -284 -41 -22 -2 -62 -7 -90 -11 -27 -4
-63 -8 -80 -9 -80 -5 -435 -55 -670 -95 -99 -17 -205 -35 -235 -40 -30 -5 -81
-14 -112 -20 -32 -5 -82 -14 -110 -19 -29 -5 -87 -16 -128 -25 -41 -8 -94 -18
-117 -21 -24 -4 -43 -10 -43 -13 0 -4 -17 -8 -38 -8 -33 -2 -158 -27 -522
-105 -58 -13 -106 -26 -108 -30 -2 -5 -9 -6 -16 -3 -13 5 -123 -20 -133 -30
-3 -2 -2 -9 1 -14 3 -6 23 -4 48 4 24 7 144 34 268 60 124 25 230 50 236 55 6
5 13 6 16 4 3 -3 72 8 154 24 555 111 1139 205 1589 256 246 28 395 53 395 66
0 4 7 6 15 3 8 -4 15 -1 15 5 0 10 -42 16 -51 7z"/>
</g>
</svg>
