<svg width="29" height="37" viewBox="0 0 29 37" fill="none" xmlns="http://www.w3.org/2000/svg">
<path d="M28.4887 6.06061C28.4887 5.64214 28.5637 5.86632 23.7806 1.09126C23.4507 0.777408 24.6277 0.874554 5.24792 0.874554C5.04909 0.874554 4.8584 0.953284 4.7178 1.09342C4.5772 1.23356 4.49822 1.42364 4.49822 1.62182V5.35818H0.749703C0.550869 5.35818 0.36018 5.43691 0.219583 5.57705C0.0789865 5.71719 0 5.90726 0 6.10545V35.9963C0 36.1944 0.0789865 36.3845 0.219583 36.5247C0.36018 36.6648 0.550869 36.7435 0.749703 36.7435H23.2408C23.4396 36.7435 23.6303 36.6648 23.7709 36.5247C23.9115 36.3845 23.9905 36.1944 23.9905 35.9963V32.2599H27.739C27.9378 32.2599 28.1285 32.1812 28.2691 32.041C28.4097 31.9009 28.4887 31.7108 28.4887 31.5126C28.4887 6.71074 28.4887 6.26237 28.4887 6.06061ZM25.9322 5.35818H23.9905V3.42275L25.9322 5.35818ZM22.4911 35.249H1.49941V6.85272H17.9929V10.5891C17.9929 10.7873 18.0719 10.9773 18.2125 11.1175C18.3531 11.2576 18.5437 11.3363 18.7426 11.3363H22.4911V35.249ZM19.4923 7.90637L21.434 9.8418H19.4923V7.90637ZM23.9905 30.7654C23.9905 10.3649 24.073 10.6264 23.9155 10.2827C23.8331 10.0884 24.2079 10.4919 19.2749 5.57488C18.9525 5.26103 19.5298 5.35818 5.99762 5.35818V2.36909H22.4911V6.10545C22.4911 6.30363 22.5701 6.49371 22.7107 6.63385C22.8513 6.77399 23.042 6.85272 23.2408 6.85272H26.9893V30.7654H23.9905Z" fill="#CCD4DD"/>
<path d="M18.7427 14.3251H5.24802C5.04919 14.3251 4.8585 14.4038 4.7179 14.5439C4.57731 14.6841 4.49832 14.8741 4.49832 15.0723C4.49832 15.2705 4.57731 15.4606 4.7179 15.6007C4.8585 15.7409 5.04919 15.8196 5.24802 15.8196H18.7427C18.9415 15.8196 19.1322 15.7409 19.2728 15.6007C19.4134 15.4606 19.4924 15.2705 19.4924 15.0723C19.4924 14.8741 19.4134 14.6841 19.2728 14.5439C19.1322 14.4038 18.9415 14.3251 18.7427 14.3251Z" fill="#CCD4DD"/>
<path d="M18.7427 18.061H5.24802C5.04919 18.061 4.8585 18.1398 4.7179 18.2799C4.57731 18.42 4.49832 18.6101 4.49832 18.8083C4.49832 19.0065 4.57731 19.1965 4.7179 19.3367C4.8585 19.4768 5.04919 19.5555 5.24802 19.5555H18.7427C18.9415 19.5555 19.1322 19.4768 19.2728 19.3367C19.4134 19.1965 19.4924 19.0065 19.4924 18.8083C19.4924 18.6101 19.4134 18.42 19.2728 18.2799C19.1322 18.1398 18.9415 18.061 18.7427 18.061Z" fill="#CCD4DD"/>
<path d="M18.7427 21.7979H5.24802C5.04919 21.7979 4.8585 21.8766 4.7179 22.0167C4.57731 22.1569 4.49832 22.3469 4.49832 22.5451C4.49832 22.7433 4.57731 22.9334 4.7179 23.0735C4.8585 23.2136 5.04919 23.2924 5.24802 23.2924H18.7427C18.9415 23.2924 19.1322 23.2136 19.2728 23.0735C19.4134 22.9334 19.4924 22.7433 19.4924 22.5451C19.4924 22.3469 19.4134 22.1569 19.2728 22.0167C19.1322 21.8766 18.9415 21.7979 18.7427 21.7979Z" fill="#CCD4DD"/>
<path d="M18.7427 25.5345H5.24802C5.04919 25.5345 4.8585 25.6133 4.7179 25.7534C4.57731 25.8935 4.49832 26.0836 4.49832 26.2818C4.49832 26.48 4.57731 26.6701 4.7179 26.8102C4.8585 26.9503 5.04919 27.0291 5.24802 27.0291H18.7427C18.9415 27.0291 19.1322 26.9503 19.2728 26.8102C19.4134 26.6701 19.4924 26.48 19.4924 26.2818C19.4924 26.0836 19.4134 25.8935 19.2728 25.7534C19.1322 25.6133 18.9415 25.5345 18.7427 25.5345Z" fill="#CCD4DD"/>
<path d="M18.7427 29.2705H5.24802C5.04919 29.2705 4.8585 29.3492 4.7179 29.4894C4.57731 29.6295 4.49832 29.8196 4.49832 30.0178C4.49832 30.2159 4.57731 30.406 4.7179 30.5461C4.8585 30.6863 5.04919 30.765 5.24802 30.765H18.7427C18.9415 30.765 19.1322 30.6863 19.2728 30.5461C19.4134 30.406 19.4924 30.2159 19.4924 30.0178C19.4924 29.8196 19.4134 29.6295 19.2728 29.4894C19.1322 29.3492 18.9415 29.2705 18.7427 29.2705Z" fill="#CCD4DD"/>
</svg>
