<svg width="21" height="21" viewBox="0 0 21 21" fill="none" xmlns="http://www.w3.org/2000/svg">
<path d="M5.6852 9.25222L5.68405 9.25106C5.53485 9.09943 5.45159 8.89499 5.45243 8.68227C5.45328 8.46954 5.53814 8.26576 5.68855 8.11532C5.83895 7.96488 6.04271 7.87997 6.25543 7.87908C6.46816 7.87819 6.67262 7.96139 6.82428 8.11056L6.82544 8.11171L6.82544 8.11171L9.69362 10.9792V1.60638C9.69362 1.39252 9.77858 1.18741 9.9298 1.03618C10.081 0.884958 10.2861 0.8 10.5 0.8C10.7139 0.8 10.919 0.884958 11.0702 1.03618C11.2214 1.18741 11.3064 1.39252 11.3064 1.60638V10.9791L14.1746 8.11161L14.1746 8.1116C14.2495 8.03673 14.3384 7.97735 14.4362 7.93684C14.5341 7.89633 14.6389 7.87549 14.7448 7.87551C14.8507 7.87553 14.9556 7.89641 15.0534 7.93695C15.1512 7.97749 15.2401 8.03691 15.315 8.1118C15.3899 8.1867 15.4492 8.27561 15.4898 8.37345C15.5303 8.47129 15.5511 8.57616 15.5511 8.68205C15.5511 8.78795 15.5302 8.89281 15.4896 8.99064C15.4491 9.08847 15.3897 9.17735 15.3148 9.25222C15.3148 9.25222 15.3148 9.25222 15.3148 9.25222L11.0701 13.4959L11.0694 13.4966C11.0545 13.5113 11.0402 13.5222 11.0339 13.527L11.0338 13.5271L11.0272 13.5321L11.0271 13.5321L11.0264 13.5327L11.0264 13.5327C11.0163 13.5414 11.0056 13.5502 10.9943 13.559M5.6852 9.25222L10.8766 13.6354L10.8863 13.6303L10.8863 13.6303L10.8898 13.6284C10.9264 13.608 10.9613 13.5848 10.9943 13.559M5.6852 9.25222L9.92915 13.495L10.0713 13.3543L9.92988 13.4958L9.92966 13.4956C9.94473 13.5107 9.95916 13.5218 9.96583 13.5268L9.97317 13.5324C9.97329 13.5325 9.97338 13.5326 9.97347 13.5326C9.98392 13.5417 9.99461 13.5504 10.0055 13.5588C10.0385 13.5847 10.0735 13.608 10.1102 13.6284L10.1102 13.6284M5.6852 9.25222L10.1102 13.6284M10.9943 13.559C10.9943 13.559 10.9944 13.5589 10.9945 13.5588L10.8711 13.4014L10.994 13.5592C10.9941 13.5592 10.9942 13.5591 10.9943 13.559ZM10.1102 13.6284L10.1137 13.6303M10.1102 13.6284L10.1137 13.6303M10.1137 13.6303L10.1234 13.6354L10.1137 13.6303ZM10.743 13.6917C10.5855 13.7453 10.4146 13.7453 10.2572 13.6917C10.2111 13.677 10.1663 13.6582 10.1236 13.6355L10.743 13.6917ZM10.743 13.6917C10.7891 13.677 10.8337 13.6582 10.8764 13.6355L10.743 13.6917ZM0.8 18.5851L0.8 18.5853C0.800489 19.0134 0.970762 19.4238 1.27346 19.7265C1.57617 20.0292 1.98658 20.1995 2.41467 20.2H2.41489H18.5851H18.5853C19.0134 20.1995 19.4238 20.0292 19.7265 19.7265C20.0292 19.4238 20.1995 19.0134 20.2 18.5853V18.5851V12.9255C20.2 12.7117 20.115 12.5066 19.9638 12.3553C19.8126 12.2041 19.6075 12.1191 19.3936 12.1191C19.1798 12.1191 18.9746 12.2041 18.8234 12.3553C18.6722 12.5066 18.5872 12.7117 18.5872 12.9255L18.5872 18.5848C18.5872 18.5848 18.5872 18.5849 18.5872 18.5849C18.5872 18.5852 18.5872 18.5855 18.587 18.5858C18.5869 18.5861 18.5867 18.5863 18.5865 18.5865C18.5861 18.587 18.5855 18.5872 18.5849 18.5872C18.5849 18.5872 18.5848 18.5872 18.5848 18.5872H2.41519C2.41516 18.5872 2.41513 18.5872 2.4151 18.5872C2.4145 18.5872 2.41391 18.587 2.41348 18.5865C2.41325 18.5863 2.41307 18.586 2.41295 18.5857C2.41283 18.5854 2.41277 18.5851 2.41277 18.5848V12.9255C2.41277 12.7117 2.32781 12.5066 2.17658 12.3553C2.02536 12.2041 1.82025 12.1191 1.60638 12.1191C1.39252 12.1191 1.18741 12.2041 1.03618 12.3553C0.884958 12.5066 0.8 12.7117 0.8 12.9255L0.8 18.5851Z" fill="#0BB5CC" stroke="#0BB5CC" stroke-width="0.4"/>
</svg>
