<svg width="21" height="21" viewBox="0 0 21 21" fill="none" xmlns="http://www.w3.org/2000/svg">
<path d="M5.62483 16.424H3.37292C2.74359 16.424 2.14002 16.174 1.69501 15.729C1.25 15.284 1 14.6804 1 14.0511L1 9.30524C1 8.6759 1.25 8.07234 1.69501 7.62733C2.14002 7.18232 2.74359 6.93232 3.37292 6.93232L17.6271 6.93232C18.2564 6.93232 18.86 7.18232 19.305 7.62733C19.75 8.07234 20 8.6759 20 9.30524V14.0511C20 14.6804 19.75 15.284 19.305 15.729C18.86 16.174 18.2564 16.424 17.6271 16.424H15.2542" stroke="#BE31D4" stroke-width="1.5" stroke-linecap="round" stroke-linejoin="round"/>
<path d="M5.76221 4.55939V2.18647C5.76221 1.8718 5.88721 1.57002 6.10971 1.34751C6.33222 1.12501 6.634 1.00001 6.94867 1.00001H14.0674C14.3821 1.00001 14.6839 1.12501 14.9064 1.34751C15.1289 1.57002 15.2539 1.8718 15.2539 2.18647V4.55939M5.76221 18.7969V12.8634H15.2539V18.7969C15.2539 19.1116 15.1289 19.4134 14.9064 19.6359C14.6839 19.8584 14.3821 19.9834 14.0674 19.9834H6.94867C6.634 19.9834 6.33222 19.8584 6.10971 19.6359C5.88721 19.4134 5.76221 19.1116 5.76221 18.7969V18.7969Z" stroke="#BE31D4" stroke-width="1.5" stroke-linecap="round" stroke-linejoin="round"/>
<path d="M18.2201 9.8985C18.2201 9.24323 17.6889 8.71204 17.0336 8.71204C16.3784 8.71204 15.8472 9.24323 15.8472 9.8985C15.8472 10.5538 16.3784 11.085 17.0336 11.085C17.6889 11.085 18.2201 10.5538 18.2201 9.8985Z" fill="#BE31D5"/>
</svg>
