<svg xmlns="http://www.w3.org/2000/svg" width="48" height="52" viewBox="0 0 48 52">
  <g id="Add_Exam" data-name="Add Exam" transform="translate(0 0)">
    <g id="Pad">
      <path id="Subtraction_7" data-name="Subtraction 7" d="M1998.652-1414h-30.159a4.469,4.469,0,0,1-4.493-4.393v-35.256a4.469,4.469,0,0,1,4.493-4.4h4.495v-1.563a1.485,1.485,0,0,1,1.5-1.463h4.857a4.5,4.5,0,0,1,4.238-2.93,4.5,4.5,0,0,1,4.237,2.93h4.744a1.487,1.487,0,0,1,1.5,1.463v1.563h4.594a4.469,4.469,0,0,1,4.485,4.4v23.224a8.593,8.593,0,0,0-1.137-.075,8.557,8.557,0,0,0-1.852.2l0-23.353a1.486,1.486,0,0,0-1.5-1.464h-4.85a4.512,4.512,0,0,1-4.236,2.929H1977.48a4.508,4.508,0,0,1-4.244-2.927h-4.744a1.484,1.484,0,0,0-1.5,1.463v35.251a1.485,1.485,0,0,0,1.5,1.463h26.681a8.493,8.493,0,0,0,3.892,2.914C1998.921-1414.007,1998.782-1414,1998.652-1414Zm-22.668-44.141v1.563a1.484,1.484,0,0,0,1.5,1.463h12.082a1.485,1.485,0,0,0,1.5-1.463v-1.563h-4.493a1.484,1.484,0,0,1-1.5-1.463,1.483,1.483,0,0,0-1.5-1.464,1.483,1.483,0,0,0-1.5,1.464,1.484,1.484,0,0,1-1.5,1.463Z" transform="translate(-1964 1464)" fill="#0a346c"/>
      <g id="Group_4271" data-name="Group 4271" transform="translate(6.006 13.816)">
        <path id="Path_1363" data-name="Path 1363" d="M69.9,256.381a1.273,1.273,0,0,0-1.8-.014l-4.274,4.209-1.654-1.654a1.273,1.273,0,1,0-1.8,1.8l2.547,2.547a1.275,1.275,0,0,0,1.793,0l5.179-5.094A1.275,1.275,0,0,0,69.9,256.381Z" transform="translate(-59.902 -246.787)" fill="#57a7dc"/>
        <path id="Path_1364" data-name="Path 1364" d="M69.9,361.381a1.272,1.272,0,0,0-1.8-.014l-4.274,4.209-1.654-1.654a1.273,1.273,0,1,0-1.8,1.8l2.547,2.547a1.273,1.273,0,0,0,1.793,0l5.179-5.094a1.273,1.273,0,0,0,0-1.795Z" transform="translate(-59.902 -342.875)" fill="#57a7dc"/>
        <path id="Path_1365" data-name="Path 1365" d="M67.263,156.466l-1.646-1.646,1.646-1.646a1.273,1.273,0,0,0-1.8-1.8l-1.646,1.646-1.646-1.646a1.273,1.273,0,0,0-1.8,1.8l1.65,1.656-1.646,1.646a1.275,1.275,0,0,0,1.8,1.8l1.646-1.646,1.646,1.646a1.274,1.274,0,1,0,1.8-1.8Z" transform="translate(-59.909 -150.704)" fill="#57a7dc"/>
        <path id="Path_1366" data-name="Path 1366" d="M220.027,181H212.3a1.275,1.275,0,1,0,0,2.547h7.726a1.275,1.275,0,1,0,0-2.547Z" transform="translate(-198.111 -178.157)" fill="#57a7dc"/>
        <path id="Path_1367" data-name="Path 1367" d="M219.975,286h-7.726a1.275,1.275,0,0,0,0,2.547h7.726a1.275,1.275,0,1,0,0-2.547Z" transform="translate(-198.06 -274.24)" fill="#57a7dc"/>
        <path id="Path_1368" data-name="Path 1368" d="M219.975,391h-7.726a1.275,1.275,0,0,0,0,2.547h7.726a1.275,1.275,0,1,0,0-2.547Z" transform="translate(-198.06 -370.326)" fill="#57a7dc"/>
      </g>
      <g id="Group_4273" data-name="Group 4273">
        <g id="Ellipse_13" data-name="Ellipse 13" transform="translate(28 32)" fill="none" stroke="#0a346c" stroke-width="3">
          <circle cx="10" cy="10" r="10" stroke="none"/>
          <circle cx="10" cy="10" r="8.5" fill="none"/>
        </g>
        <g id="Group_4272" data-name="Group 4272" transform="translate(-1.816 -1.816)">
          <rect id="Rectangle_2032" data-name="Rectangle 2032" width="2" height="12" rx="1" transform="translate(38.816 37.816)" fill="#0a346c"/>
          <rect id="Rectangle_2033" data-name="Rectangle 2033" width="2" height="12" rx="1" transform="translate(45.816 42.816) rotate(90)" fill="#0a346c"/>
        </g>
      </g>
    </g>
  </g>
</svg>
