<svg width="119" height="119" viewBox="0 0 119 119" fill="none" xmlns="http://www.w3.org/2000/svg">
<g filter="url(#filter0_d)">
<path d="M87.157 83.157C102.466 67.8482 102.466 43.0278 87.157 27.719C71.8482 12.4102 47.0278 12.4102 31.719 27.719C16.4102 43.0278 16.4102 67.8482 31.719 83.157C47.0278 98.4658 71.8482 98.4658 87.157 83.157Z" fill="#B9C4E1"/>
</g>
<g filter="url(#filter1_d)">
<path d="M59.4391 68.7347C67.8604 68.7347 74.6873 59.9078 74.6873 49.0192C74.6873 38.1306 67.8604 29.3037 59.4391 29.3037C51.0178 29.3037 44.1909 38.1306 44.1909 49.0192C44.1909 59.9078 51.0178 68.7347 59.4391 68.7347Z" fill="white"/>
<path d="M59.4393 70.1938C46.6851 70.1938 35.4563 74.0922 28.8945 80.0001C36.0798 88.9227 47.0907 94.6369 59.4393 94.6369C71.788 94.6369 82.7989 88.9227 89.9841 80.0001C83.4284 74.0922 72.1996 70.1938 59.4393 70.1938Z" fill="white"/>
<path d="M61.1463 80.3329H57.7383C54.5361 80.3329 51.915 77.7119 51.915 74.5097V61.2651C51.915 58.063 54.5361 55.4419 57.7383 55.4419H61.1463C64.3484 55.4419 66.9695 58.063 66.9695 61.2651V74.5097C66.9695 77.7119 64.3484 80.3329 61.1463 80.3329Z" fill="white"/>
<path d="M46.2977 49.9336C47.1875 52.4881 46.8304 54.9336 45.5108 55.3936C44.1911 55.8537 42.3994 54.1527 41.5095 51.5982C40.6197 49.0437 40.9769 46.5982 42.2965 46.1382C43.6161 45.6721 45.4078 47.373 46.2977 49.9336Z" fill="white"/>
<path d="M77.375 51.5936C78.2632 49.0354 77.9104 46.5891 76.5871 46.1297C75.2638 45.6702 73.471 47.3716 72.5828 49.9298C71.6946 52.488 72.0474 54.9342 73.3707 55.3937C74.694 55.8531 76.4868 54.1518 77.375 51.5936Z" fill="white"/>
<path d="M46.0916 49.8487C44.1122 46.247 42.0722 42.4214 42.1751 38.3051C42.278 34.195 45.4076 29.8548 49.5177 30.0001C50.232 30.0243 50.9524 30.1817 51.6666 30.0848C53.0892 29.885 54.1424 28.7228 55.2926 27.8633C57.8955 25.9323 61.5153 25.4783 64.5177 26.695C66.37 27.4516 67.9378 28.7712 69.7478 29.6308C73.1134 31.2289 77.2659 31.0654 80.4923 29.195C79.8204 30.4601 78.6824 31.471 77.3446 31.9916C78.5795 32.385 79.9415 32.3487 81.1521 31.8887C80.4257 33.2083 79.2151 34.2616 77.8107 34.8003C78.8519 34.8729 79.8991 34.9456 80.9402 35.0182C80.0504 36.2773 78.7792 37.264 77.3325 37.8148C78.1497 37.839 78.9669 37.8693 79.7841 37.8935C79.1727 39.6974 77.5928 41.1441 75.7405 41.586C76.2671 41.5921 76.7938 41.5981 77.3204 41.6102C75.5952 44.1042 73.864 46.5981 72.1388 49.0921C71.6424 49.8063 71.134 50.5327 70.4015 51.0049C69.7962 51.3923 69.0819 51.5739 68.3797 51.7313C63.2586 52.8814 57.962 53.2264 52.7381 52.7482C50.9524 52.5848 49.0819 52.2942 47.6594 51.1925C46.2369 50.0969 45.4802 47.948 46.4548 46.4468" fill="white"/>
<path d="M49.6088 73.9225C49.7238 71.8523 49.9781 69.7942 50.3776 67.7603C51.4006 68.9285 53.1379 69.0738 54.6875 69.1404C57.0362 69.2372 59.3848 69.3341 61.7396 69.4249C62.012 71.029 62.2057 72.9116 61.0434 74.0556C60.5047 74.5823 59.7662 74.8486 59.0398 75.0484C57.4538 75.4903 55.8134 75.7203 54.173 75.7263C52.2238 75.7385 49.8994 75.1513 49.2759 73.305C49.4877 73.1295 49.6996 72.96 49.9115 72.7845" fill="white"/>
<path d="M69.2698 73.9225C69.1548 71.8523 68.9005 69.7942 68.501 67.7603C67.478 68.9285 65.7407 69.0738 64.1911 69.1404C61.8424 69.2372 59.4938 69.3341 57.139 69.4249C56.8666 71.029 56.6729 72.9116 57.8352 74.0556C58.3739 74.5823 59.1124 74.8486 59.8388 75.0484C61.4247 75.4903 63.0652 75.7203 64.7056 75.7263C66.6548 75.7385 68.9792 75.1513 69.6027 73.305C69.3908 73.1295 69.179 72.96 68.9671 72.7845" fill="white"/>
</g>
<defs>
<filter id="filter0_d" x="0" y="0" width="118.876" height="118.876" filterUnits="userSpaceOnUse" color-interpolation-filters="sRGB">
<feFlood flood-opacity="0" result="BackgroundImageFix"/>
<feColorMatrix in="SourceAlpha" type="matrix" values="0 0 0 0 0 0 0 0 0 0 0 0 0 0 0 0 0 0 127 0"/>
<feOffset dy="4"/>
<feGaussianBlur stdDeviation="2"/>
<feColorMatrix type="matrix" values="0 0 0 0 0 0 0 0 0 0 0 0 0 0 0 0 0 0 0.1 0"/>
<feBlend mode="normal" in2="BackgroundImageFix" result="effect1_dropShadow"/>
<feBlend mode="normal" in="SourceGraphic" in2="effect1_dropShadow" result="shape"/>
</filter>
<filter id="filter1_d" x="24.8945" y="26.0208" width="69.0896" height="76.6162" filterUnits="userSpaceOnUse" color-interpolation-filters="sRGB">
<feFlood flood-opacity="0" result="BackgroundImageFix"/>
<feColorMatrix in="SourceAlpha" type="matrix" values="0 0 0 0 0 0 0 0 0 0 0 0 0 0 0 0 0 0 127 0"/>
<feOffset dy="4"/>
<feGaussianBlur stdDeviation="2"/>
<feColorMatrix type="matrix" values="0 0 0 0 0 0 0 0 0 0 0 0 0 0 0 0 0 0 0.1 0"/>
<feBlend mode="normal" in2="BackgroundImageFix" result="effect1_dropShadow"/>
<feBlend mode="normal" in="SourceGraphic" in2="effect1_dropShadow" result="shape"/>
</filter>
</defs>
</svg>
