<svg xmlns="http://www.w3.org/2000/svg" width="49.999" height="50" viewBox="0 0 49.999 50">
  <g id="calendar_1_" transform="translate(0 0)">
    <path id="Path_1579" data-name="Path 1579" d="M45.834,4.688H39.062V1.562a1.563,1.563,0,1,0-3.126,0V4.688H26.562V1.562a1.563,1.563,0,1,0-3.126,0V4.688H14.062V1.562a1.563,1.563,0,1,0-3.126,0V4.688H4.167A4.165,4.165,0,0,0,0,8.853v36.98A4.167,4.167,0,0,0,4.167,50H45.833A4.165,4.165,0,0,0,50,45.833V8.853a4.164,4.164,0,0,0-4.165-4.165Zm1.041,41.145a1.042,1.042,0,0,1-1.041,1.042H4.167a1.043,1.043,0,0,1-1.042-1.042V8.853A1.042,1.042,0,0,1,4.167,7.812h6.771v3.126a1.563,1.563,0,0,0,3.126,0V7.812h9.375v3.126a1.563,1.563,0,0,0,3.126,0V7.812H35.94v3.126a1.563,1.563,0,0,0,3.126,0V7.812h6.772a1.042,1.042,0,0,1,1.041,1.041Z" fill="#0a346c"/>
    <rect id="Rectangle_1497" data-name="Rectangle 1497" width="6.425" height="4.819" transform="translate(10.894 18.696)" fill="#34aeff"/>
    <rect id="Rectangle_1498" data-name="Rectangle 1498" width="6.425" height="4.819" transform="translate(10.894 26.485)" fill="#34aeff"/>
    <rect id="Rectangle_1499" data-name="Rectangle 1499" width="6.425" height="4.819" transform="translate(10.894 34.276)" fill="#34aeff"/>
    <rect id="Rectangle_1500" data-name="Rectangle 1500" width="6.425" height="4.819" transform="translate(21.788 34.276)" fill="#34aeff"/>
    <rect id="Rectangle_1501" data-name="Rectangle 1501" width="6.425" height="4.819" transform="translate(21.788 26.485)" fill="#34aeff"/>
    <rect id="Rectangle_1502" data-name="Rectangle 1502" width="6.425" height="4.819" transform="translate(21.788 18.696)" fill="#34aeff"/>
    <rect id="Rectangle_1503" data-name="Rectangle 1503" width="6.425" height="4.819" transform="translate(32.682 34.276)" fill="#34aeff"/>
    <rect id="Rectangle_1504" data-name="Rectangle 1504" width="6.425" height="4.819" transform="translate(32.682 26.485)" fill="#34aeff"/>
    <rect id="Rectangle_1505" data-name="Rectangle 1505" width="6.425" height="4.819" transform="translate(32.682 18.696)" fill="#34aeff"/>
  </g>
</svg>
