<svg width="10" height="10" viewBox="0 0 10 10" fill="none" xmlns="http://www.w3.org/2000/svg">
<path d="M7.0624 5.85422C7.14054 5.93237 7.18445 6.03836 7.18445 6.14888C7.18445 6.2594 7.14054 6.36539 7.0624 6.44354L5.29464 8.2113C5.29224 8.2137 5.28969 8.21573 5.28724 8.21802C5.27984 8.22505 5.27245 8.23208 5.26458 8.23854C5.2612 8.2413 5.25755 8.24375 5.25411 8.24635C5.24677 8.25203 5.23948 8.25776 5.23172 8.26292C5.22891 8.26484 5.22583 8.26641 5.22292 8.26823C5.21432 8.2737 5.20573 8.27911 5.19667 8.28396C5.19458 8.2851 5.19224 8.28604 5.1901 8.28714C5.18021 8.29224 5.17016 8.29719 5.15974 8.30146C5.15833 8.30208 5.15682 8.3025 5.15536 8.30302C5.14425 8.30758 5.13293 8.31165 5.12146 8.31521C5.11995 8.31573 5.11839 8.31594 5.11693 8.31641C5.10543 8.31983 5.09379 8.32275 5.08203 8.32516C5.07865 8.32583 5.07516 8.32615 5.07177 8.32672C5.06182 8.32849 5.05182 8.33021 5.04156 8.3312C5.01391 8.33401 4.98604 8.33401 4.95839 8.3312C4.94812 8.33016 4.93812 8.32844 4.92818 8.32672C4.92479 8.32609 4.92135 8.32583 4.91802 8.32516C4.90623 8.32275 4.89455 8.31983 4.88302 8.31641C4.88156 8.31594 4.88005 8.31568 4.87854 8.31521C4.86708 8.31166 4.85579 8.30761 4.84469 8.30307L4.84026 8.30151C4.82995 8.29713 4.81982 8.29234 4.8099 8.28714C4.80776 8.28604 4.80547 8.2851 4.80333 8.28401C4.79439 8.27907 4.78564 8.27381 4.77708 8.26823C4.77417 8.26641 4.77109 8.26484 4.76823 8.26292C4.76052 8.25771 4.75323 8.25203 4.74589 8.24635C4.74245 8.24375 4.7388 8.2413 4.73547 8.23854C4.72765 8.23198 4.72008 8.22513 4.71276 8.21802C4.71031 8.21573 4.70776 8.2137 4.70536 8.2113L2.9376 6.44354C2.85945 6.3654 2.81554 6.25941 2.81553 6.14889C2.81552 6.03837 2.85941 5.93237 2.93755 5.85422C3.01569 5.77606 3.12168 5.73215 3.2322 5.73214C3.34272 5.73213 3.44872 5.77602 3.52688 5.85417L4.58333 6.91078V3.75C4.58333 3.63949 4.62723 3.53351 4.70537 3.45537C4.78351 3.37723 4.88949 3.33333 5 3.33333C5.11051 3.33333 5.21649 3.37723 5.29463 3.45537C5.37277 3.53351 5.41667 3.63949 5.41667 3.75V6.91078L6.47312 5.85422C6.55128 5.7761 6.65726 5.73222 6.76776 5.73222C6.87826 5.73222 6.98424 5.7761 7.0624 5.85422V5.85422ZM10 2.08333V9.16667C9.99975 9.3876 9.91187 9.59942 9.75565 9.75565C9.59942 9.91187 9.3876 9.99975 9.16667 10H0.833333C0.612396 9.99975 0.400578 9.91187 0.244352 9.75565C0.0881253 9.59942 0.000248136 9.3876 0 9.16667V2.08333C4.80662e-05 2.06795 0.00093473 2.05258 0.00265618 2.03729C0.00312493 2.03349 0.0039062 2.02974 0.00442704 2.02594C0.00598954 2.01443 0.00786462 2.00302 0.0104167 1.99182C0.0113542 1.98755 0.0125521 1.98344 0.0136459 1.97917C0.0175036 1.96414 0.0221985 1.94934 0.0277084 1.93484C0.0316667 1.92457 0.036007 1.9145 0.0407292 1.90464C0.0418751 1.90214 0.0427084 1.89943 0.0440105 1.89698L0.877344 0.230313C0.91195 0.161108 0.965142 0.102906 1.03096 0.062228C1.09678 0.02155 1.17263 2.62982e-06 1.25 0H8.75C8.82737 2.62982e-06 8.90322 0.02155 8.96904 0.062228C9.03486 0.102906 9.08805 0.161108 9.12266 0.230313L9.95599 1.89698C9.95724 1.89948 9.95807 1.90214 9.95932 1.90464C9.97067 1.92855 9.97972 1.95349 9.98635 1.97911C9.9874 1.98339 9.98865 1.9876 9.98958 1.99188C9.99208 2.00302 9.99396 2.01432 9.99557 2.02583C9.99609 2.02964 9.99688 2.03349 9.99734 2.03729C9.99907 2.05258 9.99995 2.06795 10 2.08333V2.08333ZM1.09083 1.66667H8.90917L8.4925 0.833333H1.5075L1.09083 1.66667ZM9.16719 9.16667L9.16667 2.5H0.833333V9.16667H9.16719Z" fill="#797979"/>
</svg>
