<svg width="12" height="11" viewBox="0 0 12 11" fill="none" xmlns="http://www.w3.org/2000/svg">
<g clip-path="url(#clip0)">
<path d="M8.6631 3.14286C5.74332 3.14286 4.90909 5.5 4.90909 5.5C4.90909 1.17857 8.6631 1.17857 8.6631 1.17857V0L12 2.35714L8.6631 4.71429V3.14286Z" fill="#797979"/>
<path d="M3.02272 4.15H1.90909C1.23881 4.15 0.695449 4.69336 0.695449 5.36364V8.5C0.695449 9.52173 1.52372 10.35 2.54545 10.35H7.27272C8.29445 10.35 9.12272 9.52173 9.12272 8.5V6.27273C9.12272 6.03926 9.31198 5.85 9.54545 5.85C9.77891 5.85 9.96818 6.03926 9.96818 6.27273V9C9.96818 10.1874 9.00559 11.15 7.81818 11.15H2C0.812583 11.15 -0.150006 10.1874 -0.150006 9V5.13636C-0.150006 4.14978 0.649776 3.35 1.63636 3.35H3.02272C3.24364 3.35 3.42272 3.52909 3.42272 3.75C3.42272 3.97091 3.24364 4.15 3.02272 4.15Z" fill="#797979" stroke="#797979" stroke-width="0.3"/>
</g>
<defs>
<clipPath id="clip0">
<rect width="12" height="11" fill="white"/>
</clipPath>
</defs>
</svg>
