<svg width="15" height="12" viewBox="0 0 15 12" fill="none" xmlns="http://www.w3.org/2000/svg">
<g clip-path="url(#clip0)">
<path d="M3.70253 10.7194C3.90972 10.7194 4.07648 10.5504 4.07648 10.3435C4.07648 10.1366 3.90972 9.96763 3.70253 9.96763C3.49535 9.96763 3.32859 10.1366 3.32859 10.3435C3.32859 10.5504 3.49535 10.7194 3.70253 10.7194Z" fill="#797979" stroke="#797979" stroke-width="0.2"/>
<rect x="0.545471" y="6" width="2.18182" height="4.90908" fill="#797979"/>
<path d="M14.1516 7.2693L14.1515 7.26909C14.0535 7.04665 13.8795 6.8665 13.6607 6.76109C13.4419 6.65568 13.1927 6.63196 12.958 6.69419L12.958 6.69416L12.9556 6.69485L8.99708 7.84918L8.99706 7.84912L8.99368 7.85024C8.90143 7.88074 8.82462 7.94587 8.77936 8.03187C8.73409 8.11786 8.72386 8.21806 8.7508 8.31143C8.77774 8.40481 8.83977 8.48415 8.92392 8.53272C9.00808 8.58131 9.10778 8.59532 9.20206 8.5718L9.20208 8.57187L9.20586 8.57077L13.1596 7.41744C13.22 7.40477 13.283 7.41271 13.3385 7.44006C13.3945 7.46765 13.4396 7.51337 13.4664 7.56985L13.592 7.86106C13.6145 7.91699 13.617 7.97908 13.599 8.03667C13.5811 8.09363 13.5442 8.14262 13.4946 8.17548L7.98653 11.2711C7.89 11.3172 7.78501 11.3426 7.67816 11.346C7.57157 11.3493 7.46545 11.3305 7.36646 11.2908L4.91597 10.0597L4.916 10.0596L4.91289 10.0582C4.82423 10.0174 4.72319 10.0128 4.63118 10.0453C4.53918 10.0779 4.46349 10.145 4.42011 10.2324C4.37672 10.3199 4.36902 10.4208 4.3986 10.5138C4.42819 10.6068 4.49278 10.6847 4.57875 10.7309L4.57873 10.7309L4.58119 10.7321L7.03532 11.9651L7.03531 11.9651L7.03749 11.9661C7.22974 12.057 7.44014 12.1027 7.65268 12.0998C7.89627 12.1037 8.13678 12.0449 8.3513 11.9292L8.35131 11.9293L8.35284 11.9284L13.8681 8.82811L13.8681 8.82815L13.8706 8.82665C14.0797 8.70094 14.2363 8.5037 14.3116 8.27138C14.3868 8.03906 14.3756 7.78732 14.28 7.56263L14.2796 7.56168L14.1516 7.2693Z" fill="#797979" stroke="#797979" stroke-width="0.2"/>
<path d="M3.11295 6.3819H6.17869H6.18244L6.18243 6.38197C6.3713 6.38905 6.5498 6.47016 6.67951 6.60776L6.68172 6.6101L6.68168 6.61013L8.47075 8.6344C8.47082 8.63449 8.4709 8.63457 8.47097 8.63466C8.63225 8.81583 8.72097 9.05031 8.72012 9.29302C8.71927 9.53584 8.62883 9.7698 8.46615 9.94987L8.46518 9.95094L8.46518 9.95093L8.35273 10.0718C8.35266 10.0719 8.35259 10.072 8.35252 10.0721C8.27051 10.1613 8.17142 10.2331 8.06113 10.2831C7.95075 10.3332 7.83143 10.3605 7.71027 10.3634L7.70787 10.3635V10.3635H7.67631L3.11295 6.3819ZM3.11295 6.3819V6.20607H3.11297L3.11293 6.20413C3.10808 5.95462 3.0048 5.71715 2.82562 5.54369C2.64661 5.3704 2.40642 5.27508 2.15748 5.27859H0.855553C0.60648 5.27469 0.366046 5.36989 0.186943 5.54328C0.00764308 5.71686 -0.0955312 5.95461 -0.0999841 6.20429L-0.1 6.20429V6.20607V10.3435H-0.100016L-0.0999841 10.3452C-0.0955312 10.5949 0.00764308 10.8327 0.186943 11.0063C0.366051 11.1796 0.606495 11.2748 0.855576 11.2709H2.16022C2.40916 11.2745 2.64936 11.1791 2.82837 11.0058C3.00755 10.8324 3.11083 10.5949 3.11569 10.3454H3.11571V10.3435V7.13355H6.14564L7.90729 9.1343C7.90741 9.13444 7.90753 9.13458 7.90765 9.13471C7.94406 9.17731 7.9641 9.23158 7.9641 9.28774C7.9641 9.34348 7.94436 9.39736 7.90846 9.43981L7.79706 9.55959L7.79661 9.56008C7.7821 9.5759 7.76457 9.58862 7.74508 9.59751C7.72606 9.60619 7.70553 9.61104 7.68467 9.61181C7.64071 9.61125 7.59851 9.59414 7.5665 9.56379C7.56641 9.56371 7.56632 9.56362 7.56623 9.56354L6.51123 8.5409L6.51118 8.54085L6.44158 8.61265L3.11295 6.3819ZM2.16584 10.5194L2.16585 10.5193H2.16096H0.854748V10.5192L0.850339 10.5194C0.79997 10.5216 0.750723 10.5038 0.713285 10.4699C0.676453 10.4365 0.653968 10.3901 0.650562 10.3404V6.20911C0.653963 6.1591 0.676701 6.11238 0.713931 6.07892C0.751765 6.04492 0.801476 6.02739 0.852149 6.0301L0.852142 6.03025H0.857501H2.16096V6.03037L2.16584 6.03013C2.21658 6.02765 2.26628 6.04531 2.30415 6.07934C2.34137 6.11279 2.36421 6.1594 2.3679 6.20937V10.3402C2.36421 10.3901 2.34137 10.4367 2.30415 10.4702C2.26628 10.5042 2.21658 10.5219 2.16584 10.5194Z" fill="#797979" stroke="#797979" stroke-width="0.2"/>
<path d="M6.99832 5.2478L8.29142 5.96518C10.0276 5.76443 12.1514 4.60877 13.6131 3.68863L13.6795 3.64682L13.7359 3.70138C13.8722 3.83321 14.0172 3.95562 14.1701 4.06775L14.2873 4.15377L14.165 4.23247C13.3988 4.72565 12.4204 5.30302 11.3851 5.7792C10.351 6.25483 9.25408 6.63244 8.25209 6.72077L8.24331 6.72155V6.72116H8.22063H8.21991V6.62116C8.17181 6.62191 8.12436 6.61003 8.08227 6.58668L6.99832 5.2478ZM6.99832 5.2478C7.24975 5.18946 7.53704 5.11653 7.84815 5.0279L8.04108 4.97294L7.88107 4.85196C7.71193 4.72408 7.55705 4.57828 7.41912 4.41711L7.34314 4.48213L7.31619 4.38583C6.83668 4.52004 6.34962 4.62552 5.8576 4.70171C5.77942 4.71212 5.70651 4.74693 5.64922 4.80118C5.59161 4.85573 5.55275 4.92714 5.53817 5.00515C5.5236 5.08316 5.53406 5.16379 5.56806 5.23548C5.60204 5.30713 5.65778 5.36619 5.72735 5.4042L6.99832 5.2478Z" fill="#797979" stroke="#797979" stroke-width="0.2"/>
<path d="M9.6087 4.96485C10.0991 4.96676 10.5791 4.8228 10.9878 4.55119C11.3965 4.27958 11.7155 3.89255 11.9045 3.43911C12.0935 2.98568 12.1439 2.48624 12.0494 2.00406C11.9549 1.52188 11.7197 1.07865 11.3736 0.730512C11.0275 0.382371 10.5861 0.144982 10.1052 0.0484115C9.62438 -0.0481588 9.12574 0.000434704 8.67247 0.188037C8.2192 0.37564 7.83169 0.693811 7.55903 1.10225C7.28636 1.51069 7.14081 1.99103 7.14081 2.48242C7.1408 3.13913 7.4005 3.76909 7.86305 4.23436C8.3256 4.69963 8.95329 4.9623 9.6087 4.96485ZM9.6087 0.551634C9.99011 0.550269 10.3633 0.662346 10.6811 0.873672C10.9989 1.085 11.247 1.38607 11.3939 1.73875C11.5408 2.09143 11.5799 2.47986 11.5064 2.85485C11.4328 3.22984 11.2498 3.57451 10.9806 3.84523C10.7114 4.11594 10.368 4.30052 9.99406 4.37558C9.62008 4.45064 9.23227 4.41281 8.87977 4.26688C8.52726 4.12095 8.2259 3.87348 8.01385 3.55581C7.80181 3.23815 7.68862 2.86458 7.68862 2.48242C7.68861 1.97153 7.89069 1.48147 8.25058 1.11958C8.61047 0.757685 9.09883 0.553459 9.6087 0.551634Z" fill="#797979"/>
<path d="M9.6087 4.96485C10.0991 4.96676 10.5791 4.8228 10.9878 4.55119C11.3965 4.27958 11.7155 3.89255 11.9045 3.43911C12.0935 2.98568 12.1439 2.48624 12.0494 2.00406C11.9549 1.52188 11.7197 1.07865 11.3736 0.730512C11.0275 0.382371 10.5861 0.144982 10.1052 0.0484115C9.62438 -0.0481588 9.12574 0.000434704 8.67247 0.188037C8.2192 0.37564 7.83169 0.693811 7.55903 1.10225C7.28636 1.51069 7.14081 1.99103 7.14081 2.48242C7.1408 3.13913 7.4005 3.76909 7.86305 4.23436C8.3256 4.69963 8.95329 4.9623 9.6087 4.96485ZM9.6087 0.551634C9.99011 0.550269 10.3633 0.662346 10.6811 0.873672C10.9989 1.085 11.247 1.38607 11.3939 1.73875C11.5408 2.09143 11.5799 2.47986 11.5064 2.85485C11.4328 3.22984 11.2498 3.57451 10.9806 3.84523C10.7114 4.11594 10.368 4.30052 9.99406 4.37558C9.62008 4.45064 9.23227 4.41281 8.87977 4.26688C8.52726 4.12095 8.2259 3.87348 8.01385 3.55581C7.80181 3.23815 7.68862 2.86458 7.68862 2.48242C7.68861 1.97153 7.89069 1.48147 8.25058 1.11958C8.61047 0.757685 9.09883 0.553459 9.6087 0.551634Z" stroke="#797979"/>
<path d="M9.75732 3.05064C9.71504 3.06539 9.67025 3.07153 9.62558 3.06868C9.58091 3.06584 9.53725 3.05408 9.49718 3.03409C9.45789 3.01816 9.42232 2.99425 9.39271 2.96387C9.3631 2.93349 9.34009 2.89729 9.32513 2.85756C9.30176 2.7877 9.25166 2.73 9.18584 2.69715C9.12002 2.6643 9.04387 2.659 8.97414 2.68241C8.90442 2.70582 8.84683 2.75602 8.81405 2.82197C8.78127 2.88793 8.77598 2.96423 8.79934 3.03409C8.83853 3.14577 8.90032 3.24814 8.98085 3.33476C9.06138 3.42138 9.15891 3.4904 9.26732 3.53747L9.33339 3.5623V3.72365C9.33339 3.79681 9.36239 3.86697 9.41401 3.91869C9.46564 3.97042 9.53566 3.99948 9.60867 3.99948C9.68168 3.99948 9.75169 3.97042 9.80332 3.91869C9.85495 3.86697 9.88395 3.79681 9.88395 3.72365V3.58574C9.91533 3.57659 9.94613 3.56554 9.97617 3.55264C10.1244 3.49485 10.2457 3.38348 10.316 3.24051C10.3863 3.09753 10.4006 2.93334 10.3561 2.78033C10.2459 2.42727 9.9335 2.33487 9.70502 2.26867C9.57563 2.23143 9.45451 2.19558 9.41597 2.13076C9.40484 2.11173 9.39897 2.09007 9.39897 2.06801C9.39897 2.04595 9.40484 2.02429 9.41597 2.00526C9.46001 1.9363 9.59628 1.91975 9.70364 1.94044C9.74778 1.95112 9.7886 1.97257 9.82247 2.00289C9.85633 2.03321 9.88218 2.07145 9.89771 2.11421C9.90451 2.15192 9.91909 2.1878 9.9405 2.21956C9.96191 2.25132 9.98969 2.27825 10.0221 2.29865C10.0544 2.31905 10.0907 2.33247 10.1286 2.33805C10.1664 2.34362 10.205 2.34123 10.2419 2.33104C10.2787 2.32084 10.3131 2.30305 10.3427 2.27882C10.3723 2.25458 10.3966 2.22442 10.4139 2.19027C10.4313 2.15611 10.4413 2.11871 10.4435 2.08044C10.4456 2.04218 10.4397 2.00389 10.4263 1.96802C10.388 1.83919 10.319 1.72163 10.2252 1.62551C10.1315 1.52939 10.0158 1.45761 9.88808 1.41637V1.24122C9.88808 1.16807 9.85907 1.09791 9.80745 1.04618C9.75582 0.994453 9.68581 0.965393 9.6128 0.965393C9.53979 0.965393 9.46977 0.994453 9.41814 1.04618C9.36652 1.09791 9.33751 1.16807 9.33751 1.24122V1.42602C9.23778 1.45287 9.1457 1.50272 9.06862 1.5716C8.99155 1.64047 8.93163 1.72645 8.89364 1.82267C8.85566 1.9189 8.84066 2.02269 8.84986 2.12575C8.85906 2.22882 8.89219 2.3283 8.94661 2.41624C9.09527 2.66724 9.3499 2.74171 9.55361 2.80102C9.75732 2.86032 9.81513 2.88652 9.82889 2.9472C9.84266 3.00788 9.75732 3.05064 9.75732 3.05064Z" fill="#797979"/>
<path d="M9.75732 3.05064C9.71504 3.06539 9.67025 3.07153 9.62558 3.06868C9.58091 3.06584 9.53725 3.05408 9.49718 3.03409C9.45789 3.01816 9.42232 2.99425 9.39271 2.96387C9.3631 2.93349 9.34009 2.89729 9.32513 2.85756C9.30176 2.7877 9.25166 2.73 9.18584 2.69715C9.12002 2.6643 9.04387 2.659 8.97414 2.68241C8.90442 2.70582 8.84683 2.75602 8.81405 2.82197C8.78127 2.88793 8.77598 2.96423 8.79934 3.03409C8.83853 3.14577 8.90032 3.24814 8.98085 3.33476C9.06138 3.42138 9.15891 3.4904 9.26732 3.53747L9.33339 3.5623V3.72365C9.33339 3.79681 9.36239 3.86697 9.41401 3.91869C9.46564 3.97042 9.53566 3.99948 9.60867 3.99948C9.68168 3.99948 9.75169 3.97042 9.80332 3.91869C9.85495 3.86697 9.88395 3.79681 9.88395 3.72365V3.58574C9.91533 3.57659 9.94613 3.56554 9.97617 3.55264C10.1244 3.49485 10.2457 3.38348 10.316 3.24051C10.3863 3.09753 10.4006 2.93334 10.3561 2.78033C10.2459 2.42727 9.9335 2.33487 9.70502 2.26867C9.57563 2.23143 9.45451 2.19558 9.41597 2.13076C9.40484 2.11173 9.39897 2.09007 9.39897 2.06801C9.39897 2.04595 9.40484 2.02429 9.41597 2.00526C9.46001 1.9363 9.59628 1.91975 9.70364 1.94044C9.74778 1.95112 9.7886 1.97257 9.82247 2.00289C9.85633 2.03321 9.88218 2.07145 9.89771 2.11421C9.90451 2.15192 9.91909 2.1878 9.9405 2.21956C9.96191 2.25132 9.98969 2.27825 10.0221 2.29865C10.0544 2.31905 10.0907 2.33247 10.1286 2.33805C10.1664 2.34362 10.205 2.34123 10.2419 2.33104C10.2787 2.32084 10.3131 2.30305 10.3427 2.27882C10.3723 2.25458 10.3966 2.22442 10.4139 2.19027C10.4313 2.15611 10.4413 2.11871 10.4435 2.08044C10.4456 2.04218 10.4397 2.00389 10.4263 1.96802C10.388 1.83919 10.319 1.72163 10.2252 1.62551C10.1315 1.52939 10.0158 1.45761 9.88808 1.41637V1.24122C9.88808 1.16807 9.85907 1.09791 9.80745 1.04618C9.75582 0.994453 9.68581 0.965393 9.6128 0.965393C9.53979 0.965393 9.46977 0.994453 9.41814 1.04618C9.36652 1.09791 9.33751 1.16807 9.33751 1.24122V1.42602C9.23778 1.45287 9.1457 1.50272 9.06862 1.5716C8.99155 1.64047 8.93163 1.72645 8.89364 1.82267C8.85566 1.9189 8.84066 2.02269 8.84986 2.12575C8.85906 2.22882 8.89219 2.3283 8.94661 2.41624C9.09527 2.66724 9.3499 2.74171 9.55361 2.80102C9.75732 2.86032 9.81513 2.88652 9.82889 2.9472C9.84266 3.00788 9.75732 3.05064 9.75732 3.05064Z" stroke="#797979"/>
</g>
<defs>
<clipPath id="clip0">
<rect width="14.2608" height="12" fill="white"/>
</clipPath>
</defs>
</svg>
