<svg width="12" height="12" viewBox="0 0 12 12" fill="none" xmlns="http://www.w3.org/2000/svg">
<path d="M6 0C2.68633 0 0 2.68667 0 6C0 9.31367 2.68633 12 6 12C9.31367 12 12 9.31367 12 6C12 2.68667 9.31367 0 6 0ZM6 11.3333C3.05467 11.3333 0.666667 8.94567 0.666667 6C0.666667 3.05467 3.05467 0.666667 6 0.666667C8.94567 0.666667 11.3333 3.05467 11.3333 6C11.3333 8.94567 8.94567 11.3333 6 11.3333Z" fill="#797979"/>
<path d="M3.59235 3.11398C3.59235 2.61798 3.87135 2.30798 4.38835 2.30798H6.20735C7.79901 2.30798 8.78068 3.02132 8.78068 4.64365C8.78068 5.78065 7.92301 6.43165 6.86868 6.59698L8.62601 8.47832C8.77035 8.63332 8.83235 8.78832 8.83235 8.93298C8.83235 9.33598 8.51201 9.72865 8.05768 9.72865C7.87135 9.72865 7.62335 9.65632 7.45801 9.45998L5.16368 6.67965H5.14301V8.92232C5.14301 9.43932 4.81235 9.72832 4.36768 9.72832C3.92301 9.72832 3.59235 9.43932 3.59235 8.92232V3.11398V3.11398ZM5.14268 5.56332H6.20701C6.77535 5.56332 7.16835 5.22232 7.16835 4.64365C7.16835 4.05465 6.77501 3.73398 6.20701 3.73398H5.14268V5.56332Z" fill="#797979"/>
</svg>
