<svg width="12" height="12" viewBox="0 0 12 12" fill="none" xmlns="http://www.w3.org/2000/svg">
<g clip-path="url(#clip0)">
<path d="M5.67857 11.3571C5.67857 11.2857 5.64286 11.25 5.57143 11.25C5.30804 11.25 5.08147 11.1551 4.89174 10.9654C4.70201 10.7757 4.60714 10.5491 4.60714 10.2857C4.60714 10.2143 4.57143 10.1786 4.5 10.1786C4.42857 10.1786 4.39286 10.2143 4.39286 10.2857C4.39286 10.6116 4.50781 10.8895 4.73772 11.1194C4.96763 11.3493 5.24554 11.4643 5.57143 11.4643C5.64286 11.4643 5.67857 11.4286 5.67857 11.3571ZM1.21875 9.42857H9.92411C8.73661 8.08929 8.14286 6.23214 8.14286 3.85714C8.14286 3.62946 8.08929 3.39509 7.98214 3.15402C7.875 2.91295 7.72098 2.68304 7.52009 2.46429C7.3192 2.24554 7.04799 2.06585 6.70647 1.92522C6.36496 1.7846 5.98661 1.71429 5.57143 1.71429C5.15625 1.71429 4.7779 1.7846 4.43638 1.92522C4.09487 2.06585 3.82366 2.24554 3.62277 2.46429C3.42188 2.68304 3.26786 2.91295 3.16071 3.15402C3.05357 3.39509 3 3.62946 3 3.85714C3 6.23214 2.40625 8.08929 1.21875 9.42857ZM11.1429 9.42857C11.1429 9.66071 11.058 9.86161 10.8884 10.0312C10.7188 10.2009 10.5179 10.2857 10.2857 10.2857H7.28571C7.28571 10.7589 7.1183 11.1629 6.78348 11.4978C6.44866 11.8326 6.04464 12 5.57143 12C5.09821 12 4.6942 11.8326 4.35938 11.4978C4.02455 11.1629 3.85714 10.7589 3.85714 10.2857H0.857143C0.625 10.2857 0.424107 10.2009 0.254464 10.0312C0.0848214 9.86161 0 9.66071 0 9.42857C0.223214 9.24107 0.426339 9.04464 0.609375 8.83929C0.792411 8.63393 0.982143 8.36719 1.17857 8.03906C1.375 7.71094 1.54129 7.35714 1.67746 6.97768C1.81362 6.59821 1.92522 6.13839 2.01228 5.59821C2.09933 5.05804 2.14286 4.47768 2.14286 3.85714C2.14286 3.17857 2.40402 2.54799 2.92634 1.9654C3.44866 1.38281 4.13393 1.02902 4.98214 0.904018C4.94643 0.819196 4.92857 0.732143 4.92857 0.642857C4.92857 0.464286 4.99107 0.3125 5.11607 0.1875C5.24107 0.0625 5.39286 0 5.57143 0C5.75 0 5.90179 0.0625 6.02679 0.1875C6.15179 0.3125 6.21429 0.464286 6.21429 0.642857C6.21429 0.732143 6.19643 0.819196 6.16071 0.904018C7.00893 1.02902 7.6942 1.38281 8.21652 1.9654C8.73884 2.54799 9 3.17857 9 3.85714C9 4.47768 9.04353 5.05804 9.13058 5.59821C9.21763 6.13839 9.32924 6.59821 9.4654 6.97768C9.60156 7.35714 9.76786 7.71094 9.96429 8.03906C10.1607 8.36719 10.3504 8.63393 10.5335 8.83929C10.7165 9.04464 10.9196 9.24107 11.1429 9.42857Z" fill="#797979"/>
</g>
<defs>
<clipPath id="clip0">
<rect width="11.1429" height="12" fill="white"/>
</clipPath>
</defs>
</svg>
