<svg width="9" height="12" viewBox="0 0 9 12" fill="none" xmlns="http://www.w3.org/2000/svg">
<g clip-path="url(#clip0)">
<path d="M1.63121 1.34047L1.81214 1.41874L1.79694 1.54021C1.72761 1.55208 1.67481 1.61234 1.67481 1.68501C1.67481 1.75048 1.71734 1.80608 1.77654 1.82474L1.66668 3.36342C1.66214 3.42769 1.67508 3.53009 1.69534 3.59115L1.78441 3.85875C1.80481 3.91982 1.83788 3.91982 1.85841 3.85875L1.94761 3.59115C1.96788 3.53009 1.98095 3.42769 1.97628 3.36342L1.86641 1.82474C1.92521 1.80568 1.96815 1.75048 1.96815 1.68501C1.96815 1.61234 1.91535 1.55208 1.84588 1.54021L1.83188 1.42714L2.24948 1.60808L2.45415 1.69661V2.44208C2.43095 2.52648 2.41095 2.61248 2.39815 2.70101C2.38361 2.80182 2.37615 2.90528 2.37615 3.01008C2.37615 3.05302 2.37788 3.09528 2.38015 3.13728C2.38362 3.19888 2.38948 3.25955 2.39815 3.31955C2.39961 3.33782 2.40108 3.35609 2.40281 3.37422C2.52508 4.75623 3.33349 5.8241 4.31296 5.8241C5.29256 5.8241 6.10097 4.75623 6.2231 3.37422C6.22484 3.35609 6.22644 3.33782 6.22777 3.31955C6.23644 3.25955 6.24217 3.19888 6.24577 3.13728C6.24817 3.09542 6.24977 3.05302 6.24977 3.01008C6.24977 2.90528 6.2423 2.80168 6.22777 2.70101C6.21497 2.61261 6.1951 2.52688 6.17177 2.44248V1.69661L6.37644 1.60808L6.99471 1.34034C7.15631 1.27034 7.15631 1.15607 6.99471 1.08594L4.60696 0.0526003C4.44536 -0.0175334 4.18082 -0.0175334 4.01896 0.0526003L1.63121 1.08607C1.46961 1.15607 1.46961 1.27047 1.63121 1.34047Z" fill="#797979"/>
<path d="M8.17271 8.42599C8.18725 8.32919 8.19551 8.22519 8.19551 8.11066C8.19551 6.81638 7.23644 5.74611 5.98977 5.57264C5.98537 5.57211 5.98083 5.57198 5.9763 5.57104C5.94043 5.56638 5.9047 5.56238 5.86843 5.55891C5.8683 5.56251 5.8671 5.56611 5.8671 5.56971C5.86657 5.58051 5.8647 5.59064 5.8635 5.60144C5.85683 5.66144 5.83897 5.71958 5.81083 5.77598C5.63857 6.20971 5.11376 6.99825 4.75109 7.52012L4.64669 7.54212L4.58083 6.59852C4.68549 6.54492 4.77576 6.45598 4.83336 6.35265C4.87509 6.27851 4.90043 6.19758 4.90043 6.11491C4.90043 6.11491 4.63283 6.23358 4.35962 6.23358C4.34402 6.23358 4.32842 6.23331 4.31282 6.23238C4.29722 6.23331 4.28162 6.23358 4.26602 6.23358C3.99282 6.23358 3.72522 6.11491 3.72522 6.11491C3.72522 6.19758 3.75055 6.27865 3.79215 6.35265C3.84989 6.45585 3.94002 6.54465 4.04482 6.59852L3.97896 7.54212L3.87469 7.51999C3.51189 6.99838 2.98708 6.20958 2.81482 5.77584C2.78682 5.71958 2.76895 5.66131 2.76215 5.60131C2.76082 5.59051 2.75922 5.58038 2.75855 5.56958C2.75855 5.56611 2.75735 5.56238 2.75722 5.55878C2.72108 5.56211 2.68521 5.56624 2.64948 5.57091C2.64508 5.57184 2.64028 5.57198 2.63615 5.57251C1.38961 5.74598 0.430403 6.81625 0.430403 8.11052C0.430403 8.22506 0.438669 8.32919 0.453203 8.42586C0.183334 8.57186 0 8.85706 0 9.18546V9.74133C0 10.1811 0.328535 10.5433 0.753471 10.5979C0.769204 11.0503 1.13627 11.4147 1.58988 11.4244L4.14149 11.9636L4.31296 12L4.48429 11.9639L7.03591 11.4247C7.48951 11.4149 7.85658 11.0504 7.87231 10.5981C8.29738 10.5436 8.62578 10.1813 8.62578 9.7416V9.18573C8.62592 8.85733 8.44258 8.57199 8.17271 8.42599ZM1.62681 11.082H1.60894C1.33547 11.082 1.11187 10.8673 1.09627 10.5977C1.51961 10.5417 1.84668 10.1801 1.84668 9.74147V9.1856C1.84668 8.74639 1.51881 8.38439 1.09467 8.32919V7.90212C1.09467 7.62412 1.31627 7.39692 1.59201 7.38825L4.14136 7.92679V11.6133L1.62681 11.082ZM7.01697 11.082H6.99897L4.48429 11.6133V7.92679L7.03364 7.38825C7.30951 7.39692 7.53098 7.62425 7.53098 7.90212V8.32919C7.10684 8.38439 6.77897 8.74639 6.77897 9.1856V9.74147C6.77897 10.1801 7.10604 10.5417 7.52951 10.5977C7.51404 10.8673 7.29031 11.082 7.01697 11.082Z" fill="#797979"/>
</g>
<defs>
<clipPath id="clip0">
<rect width="8.62578" height="12" fill="white"/>
</clipPath>
</defs>
</svg>
