<svg width="56" height="56" viewBox="0 0 56 56" fill="none" xmlns="http://www.w3.org/2000/svg">
<path d="M37.9531 56H26.3594V52.7188H37.9531C44.285 52.7188 49.4375 47.5662 49.4375 41.2344V37.7344H52.7188V41.2344C52.7188 49.3766 46.0953 56 37.9531 56Z" fill="#E6F3FF"/>
<path d="M49.4375 41.2344C49.4375 47.5662 44.285 52.7188 37.9531 52.7188H28V56H37.9531C46.0953 56 52.7188 49.3766 52.7188 41.2344V37.7344H49.4375V41.2344Z" fill="#C4C4C4"/>
<path d="M52.7188 24.6094H49.4375C49.4375 12.8494 39.76 3.28125 28 3.28125C16.24 3.28125 6.5625 12.8494 6.5625 24.6094H3.28125C3.28125 11.039 14.4296 0 28 0C41.5704 0 52.7188 11.039 52.7188 24.6094Z" fill="#C4C4C4"/>
<path d="M49.4375 24.6094H52.7188C52.7188 11.039 41.5704 0 28 0V3.28125C39.76 3.28125 49.4375 12.8494 49.4375 24.6094Z" fill="#C4C4C4"/>
<path d="M13.2344 39.375H4.92188C2.20784 39.375 0 37.1672 0 34.4531V27.8906C0 25.1766 2.20784 22.9688 4.92188 22.9688H13.2344V39.375Z" fill="#C4C4C4"/>
<path d="M51.0781 39.375H42.7656V22.9688H51.0781C53.7922 22.9688 56 25.1766 56 27.8906V34.4531C56 37.1672 53.7922 39.375 51.0781 39.375Z" fill="#C4C4C4"/>
<path d="M28 49.2188C18.0505 49.2188 9.95312 41.1229 9.95312 31.1719C9.95312 21.2208 18.0505 13.125 28 13.125C37.9495 13.125 46.0469 21.2208 46.0469 31.1719C46.0469 41.1229 37.9495 49.2188 28 49.2188Z" fill="#2782FF"/>
<path d="M45.0469 31.1719C45.0469 21.2208 36.9495 13.125 27 13.125V49.2188C36.9495 49.2188 45.0469 41.1229 45.0469 31.1719Z" fill="#4E98FF"/>
<path d="M32.9219 26.25C32.9219 27.9892 31.9704 29.6298 30.4609 30.5156C29.9686 30.811 29.6406 31.3359 29.6406 31.9265V34.4531H26.3594V31.9264C26.3594 30.5484 26.9828 29.2031 28 28.2843C28.6632 27.621 29.6406 27.4271 29.6406 26.2499C29.6406 25.331 28.9189 24.6093 28 24.6093C27.0811 24.6093 26.3594 25.331 26.3594 26.2499H23.0781C23.0781 23.5263 25.2765 21.328 28 21.328C30.7235 21.328 32.9219 23.5264 32.9219 26.25Z" fill="white"/>
<path d="M26.3594 37.7344H29.6406V41.0156H26.3594V37.7344Z" fill="white"/>
<path d="M28 37.7344H29.6406V41.0156H28V37.7344Z" fill="white"/>
<path d="M32.9219 26.25C32.9219 27.9892 31.9704 29.6298 30.4609 30.5156C29.9686 30.811 29.6406 31.3359 29.6406 31.9266V34.4531H28V28.2844C28.6633 27.6211 29.6406 27.4272 29.6406 26.25C29.6406 25.3311 28.9189 24.6094 28 24.6094V21.3281C30.7235 21.3281 32.9219 23.5265 32.9219 26.25Z" fill="white"/>
</svg>
