<svg width="21" height="18" viewBox="0 0 21 18" fill="none" xmlns="http://www.w3.org/2000/svg">
<path d="M13.2303 9.84514V3.66104L9.15942 0H0.678476C0.30422 0.000988539 0.0010992 0.273594 0 0.610173V13.7289C0.0010992 14.0655 0.30422 14.3381 0.678476 14.3391H7.12399L13.2303 9.84514Z" fill="#B0D3F0"/>
<path d="M9.15967 0L13.2305 3.66104H9.83814C9.46343 3.66104 9.15967 3.38785 9.15967 3.05086V0Z" fill="#90BAE1"/>
<path d="M5.08891 4.88141H2.03577C1.84842 4.88141 1.69653 4.74482 1.69653 4.57633C1.69653 4.40783 1.84842 4.27124 2.03577 4.27124H5.08891C5.27627 4.27124 5.42815 4.40783 5.42815 4.57633C5.42815 4.74482 5.27627 4.88141 5.08891 4.88141Z" fill="#285680"/>
<path d="M8.82053 6.4068H2.03577C1.84842 6.4068 1.69653 6.27021 1.69653 6.10172C1.69653 5.93322 1.84842 5.79663 2.03577 5.79663H8.82053C9.00788 5.79663 9.15977 5.93322 9.15977 6.10172C9.15977 6.27021 9.00788 6.4068 8.82053 6.4068Z" fill="#285680"/>
<path d="M8.82053 7.93244H2.03577C1.84842 7.93244 1.69653 7.79585 1.69653 7.62735C1.69653 7.45886 1.84842 7.32227 2.03577 7.32227H8.82053C9.00788 7.32227 9.15977 7.45886 9.15977 7.62735C9.15977 7.79585 9.00788 7.93244 8.82053 7.93244Z" fill="#285680"/>
<path d="M8.82053 9.45758H2.03577C1.84842 9.45758 1.69653 9.32099 1.69653 9.1525C1.69653 8.984 1.84842 8.84741 2.03577 8.84741H8.82053C9.00788 8.84741 9.15977 8.984 9.15977 9.1525C9.15977 9.32099 9.00788 9.45758 8.82053 9.45758Z" fill="#285680"/>
<path d="M8.14174 11.5935H10.1772V15.2545H8.14174C7.57967 15.2545 7.12402 14.8448 7.12402 14.3393V12.5088C7.12402 12.0033 7.57967 11.5935 8.14174 11.5935Z" fill="#CC66A1"/>
<path d="M14.9266 18C14.7393 18 14.5874 17.8634 14.5874 17.6949C14.5874 17.5264 14.7393 17.3898 14.9266 17.3898C17.3623 17.3898 19.3367 15.6141 19.3367 13.4237C19.3367 11.2333 17.3623 9.45758 14.9266 9.45758C14.7393 9.45758 14.5874 9.32099 14.5874 9.1525C14.5874 8.984 14.7393 8.84741 14.9266 8.84741C17.737 8.84741 20.0152 10.8963 20.0152 13.4237C20.0152 15.9511 17.737 18 14.9266 18Z" fill="#FF5364"/>
<path d="M14.9266 16.7798C14.7393 16.7798 14.5874 16.6432 14.5874 16.4747C14.5874 16.3062 14.7393 16.1696 14.9266 16.1696C16.6128 16.1696 17.9798 14.9403 17.9798 13.4238C17.9798 11.9074 16.6128 10.678 14.9266 10.678C14.7393 10.678 14.5874 10.5415 14.5874 10.373C14.5874 10.2045 14.7393 10.0679 14.9266 10.0679C16.9876 10.0679 18.6583 11.5704 18.6583 13.4238C18.6583 15.2773 16.9876 16.7798 14.9266 16.7798Z" fill="#FF5364"/>
<path d="M14.9266 15.5593C14.7393 15.5593 14.5874 15.4227 14.5874 15.2542C14.5874 15.0857 14.7393 14.9491 14.9266 14.9491C15.8634 14.9491 16.6228 14.2662 16.6228 13.4237C16.6228 12.5812 15.8634 11.8983 14.9266 11.8983C14.7393 11.8983 14.5874 11.7617 14.5874 11.5932C14.5874 11.4247 14.7393 11.2881 14.9266 11.2881C16.2381 11.2881 17.3013 12.2442 17.3013 13.4237C17.3013 14.6032 16.2381 15.5593 14.9266 15.5593Z" fill="#FF5364"/>
<path d="M12.5661 17.0093L9.83789 15.2541V11.5931L12.5661 9.83793C12.7764 9.73481 13.0315 9.73898 13.2374 9.84891C13.4433 9.95884 13.5695 10.1582 13.5695 10.3736V16.4736C13.5695 16.689 13.4433 16.8884 13.2374 16.9983C13.0315 17.1082 12.7764 17.1124 12.5661 17.0093Z" fill="#894B9D"/>
</svg>
