<svg width="35" height="35" viewBox="0 0 35 35" fill="none" xmlns="http://www.w3.org/2000/svg">
<path d="M1.6089 13.6157L13.6157 1.6089C15.7609 -0.536301 19.2391 -0.536301 21.3843 1.6089L33.3911 13.6157C35.5363 15.7609 35.5363 19.2391 33.3911 21.3843L21.3843 33.3911C19.2391 35.5363 15.7609 35.5363 13.6157 33.3911L1.6089 21.3843C-0.536301 19.2391 -0.536301 15.7609 1.6089 13.6157Z" fill="#FFDA6B"/>
<path d="M17.4995 9.80981C18.1062 9.80981 18.5981 10.3017 18.5981 10.9084V19.6974C18.5981 20.3041 18.1062 20.796 17.4995 20.796C16.8928 20.796 16.4008 20.3041 16.4008 19.6974V10.9084C16.4008 10.3017 16.8928 9.80981 17.4995 9.80981Z" fill="white"/>
<path d="M16.4008 22.9932H18.598V25.1904H16.4008V22.9932Z" fill="white"/>
</svg>
