<svg width="21" height="18" viewBox="0 0 21 18" fill="none" xmlns="http://www.w3.org/2000/svg">
<path d="M18.037 0.678627L20.3298 14.1641C20.4039 14.6003 20.0705 15.0084 19.5855 15.0751L4.59046 17.137C4.10546 17.2037 3.65165 16.9039 3.57747 16.4677L1.28473 2.98221C1.21059 2.54604 1.54401 2.13792 2.02901 2.07121L17.0241 0.00927823C17.5091 -0.0573987 17.9629 0.242453 18.037 0.678627Z" fill="url(#paint0_linear)"/>
<path d="M18.1972 1.7549L19.3469 15.3579C19.3841 15.7979 19.0172 16.1821 18.528 16.2155L3.40231 17.2494C2.91307 17.2829 2.48586 16.953 2.44866 16.513L1.29898 2.91003C1.26178 2.47004 1.62867 2.08585 2.11787 2.05238L17.2436 1.01845C17.7328 0.984988 18.16 1.31491 18.1972 1.7549Z" fill="url(#paint1_linear)"/>
<path d="M18.266 2.83865V16.4808C18.266 16.9221 17.8678 17.2802 17.3772 17.2802H2.20792C1.71726 17.2802 1.31909 16.9221 1.31909 16.4808V2.83865C1.31909 2.39739 1.7173 2.03931 2.20792 2.03931H17.3772C17.8679 2.03927 18.266 2.39743 18.266 2.83865Z" fill="url(#paint2_linear)"/>
<path d="M12.597 17.9969L1.04581 17.2154C0.556295 17.1822 0.189363 16.7985 0.226178 16.3583L1.36418 2.75455C1.40103 2.31431 1.82769 1.98432 2.31721 2.01743L17.4438 3.04086C17.9333 3.07401 18.3002 3.45771 18.2635 3.89795L17.377 14.4949C17.3667 14.6169 17.3036 14.7303 17.2012 14.8108L13.4798 17.7327C13.2366 17.9235 12.9187 18.0187 12.597 17.9969Z" fill="url(#paint3_linear)"/>
<path d="M3.14716 7.52058L16.2542 8.41431L16.3287 7.53011L3.22171 6.63639L3.14716 7.52058Z" fill="#FFF2EB"/>
<path d="M2.95722 9.77156L16.0642 10.6653L16.1388 9.78109L3.03177 8.88736L2.95722 9.77156Z" fill="#FFF2EB"/>
<path d="M2.76735 12.0221L12.4685 12.6836L12.543 11.7994L2.8419 11.1379L2.76735 12.0221Z" fill="#FFF2EB"/>
<path d="M13.4796 17.7327L14.7917 16.7026L0.279494 15.7207L0.226178 16.3584C0.190502 16.7846 0.534017 17.1583 1.00031 17.2113C1.01532 17.213 1.03053 17.2144 1.04585 17.2154L12.597 17.9969C12.9187 18.0187 13.2366 17.9235 13.4796 17.7327Z" fill="url(#paint4_linear)"/>
<path d="M17.3157 14.6822C17.3157 14.6822 17.284 14.7471 17.1731 14.8329C17.1319 14.8648 13.5017 17.7155 13.5017 17.7155C13.2446 17.9173 12.9084 18.0179 12.5681 17.9949C12.8618 18.0148 13.1178 17.8168 13.1399 17.5526L13.3355 15.2145C13.3723 14.7743 13.799 14.4443 14.2885 14.4774L17.3157 14.6822Z" fill="url(#paint5_linear)"/>
<defs>
<linearGradient id="paint0_linear" x1="13.5919" y1="10.4138" x2="25.3901" y2="20.0539" gradientUnits="userSpaceOnUse">
<stop stop-color="#B8DE6F"/>
<stop offset="1" stop-color="#8AA753"/>
</linearGradient>
<linearGradient id="paint1_linear" x1="12.9448" y1="11.159" x2="23.8763" y2="21.5966" gradientUnits="userSpaceOnUse">
<stop stop-color="#FE7695"/>
<stop offset="1" stop-color="#FE547B"/>
</linearGradient>
<linearGradient id="paint2_linear" x1="12.2366" y1="11.8581" x2="22.2625" y2="23.0063" gradientUnits="userSpaceOnUse">
<stop stop-color="#67DCDC"/>
<stop offset="1" stop-color="#019394"/>
</linearGradient>
<linearGradient id="paint3_linear" x1="9.24461" y1="8.11336" x2="9.24461" y2="25.424" gradientUnits="userSpaceOnUse">
<stop stop-color="#FCC344"/>
<stop offset="1" stop-color="#F7AE3D"/>
</linearGradient>
<linearGradient id="paint4_linear" x1="7.50751" y1="16.2757" x2="7.50751" y2="17.9447" gradientUnits="userSpaceOnUse">
<stop stop-color="#FCC344" stop-opacity="0"/>
<stop offset="1" stop-color="#D48000"/>
</linearGradient>
<linearGradient id="paint5_linear" x1="14.3063" y1="15.6743" x2="16.6477" y2="18.7014" gradientUnits="userSpaceOnUse">
<stop stop-color="#FCC344"/>
<stop offset="1" stop-color="#D48000"/>
</linearGradient>
</defs>
</svg>
