<svg width="29" height="28" viewBox="0 0 29 28" fill="none" xmlns="http://www.w3.org/2000/svg">
<path d="M26.3068 26.3594V2.50062C26.3068 1.14874 25.113 0.0192254 23.6099 0.000248827C22.0775 -0.0190559 20.8339 1.08738 20.8339 2.46097C20.8339 2.914 20.4255 3.28128 19.9218 3.28128H0.645264V23.8985C0.645264 26.1637 2.68718 28 5.20596 28H28.131C27.1277 28 26.3068 27.2617 26.3068 26.3594ZM13.476 23.8438C8.44101 23.8438 4.35463 20.1688 4.35463 15.6407C4.35463 11.1125 8.44101 7.43753 13.476 7.43753C18.511 7.43753 22.5974 11.1125 22.5974 15.6407C22.5974 20.1688 18.511 23.8438 13.476 23.8438ZM13.476 10.7188C11.9671 10.7188 10.7396 11.8227 10.7396 13.1797C10.7396 13.6331 11.1476 14 11.6517 14C12.1559 14 12.5639 13.6331 12.5639 13.1797C12.5639 12.7271 12.9736 12.3594 13.476 12.3594C13.9784 12.3594 14.3882 12.7271 14.3882 13.1797C14.3882 13.4721 14.2136 13.7445 13.9303 13.8911C13.0876 14.3301 12.5639 15.1464 12.5639 16.022V16.461C12.5639 16.9144 12.9718 17.2813 13.476 17.2813C13.9802 17.2813 14.3882 16.9144 14.3882 16.461V16.022C14.3882 15.7304 14.5627 15.4572 14.8442 15.3106C15.6887 14.8724 16.2124 14.0553 16.2124 13.1797C16.2124 11.8227 14.9849 10.7188 13.476 10.7188ZM13.476 18.9219C12.9723 18.9219 12.5639 19.2892 12.5639 19.7422C12.5639 20.1952 12.9723 20.5625 13.476 20.5625C13.9798 20.5625 14.3882 20.1952 14.3882 19.7422C14.3882 19.2892 13.9798 18.9219 13.476 18.9219Z" fill="url(#paint0_linear)"/>
<defs>
<linearGradient id="paint0_linear" x1="14.3882" y1="20.5883" x2="14.3882" y2="10.7059" gradientUnits="userSpaceOnUse">
<stop stop-color="#5558FF"/>
<stop offset="1" stop-color="#00C0FF"/>
</linearGradient>
</defs>
</svg>
