<svg width="16" height="16" viewBox="0 0 16 16" fill="none" xmlns="http://www.w3.org/2000/svg">
<path d="M15.0055 12.9177C14.9705 12.7936 14.8887 12.688 14.7774 12.623C14.6661 12.5581 14.5339 12.5389 14.4087 12.5695L13.1703 12.9027C13.8479 11.9038 14.2588 10.7482 14.3639 9.54569C14.4655 8.42065 14.301 7.2875 13.8837 6.23779C13.4664 5.18808 12.808 4.25125 11.9618 3.50301C11.8639 3.4221 11.7389 3.38166 11.6122 3.38999C11.4855 3.39831 11.3668 3.45476 11.2804 3.54777C11.1935 3.64675 11.1494 3.77618 11.1577 3.90766C11.1661 4.03913 11.2264 4.1619 11.3252 4.24902C12.0544 4.8927 12.6217 5.69911 12.9812 6.60293C13.3406 7.50674 13.4821 8.48252 13.3941 9.4512C13.3089 10.4715 12.9667 11.4536 12.3994 12.3059L12.2751 11.0576C12.2845 10.9841 12.2773 10.9095 12.2542 10.8392C12.231 10.7688 12.1924 10.7045 12.1413 10.651C12.0901 10.5974 12.0276 10.556 11.9584 10.5297C11.8891 10.5034 11.8149 10.4929 11.7411 10.499C11.6673 10.505 11.5957 10.5275 11.5317 10.5647C11.4677 10.602 11.4128 10.653 11.371 10.7142C11.3293 10.7753 11.3017 10.8451 11.2903 10.9182C11.2789 10.9914 11.284 11.0662 11.3053 11.1372L11.5539 14.34L14.6623 13.5145C14.7854 13.4784 14.8899 13.3962 14.9539 13.285C15.0178 13.1738 15.0363 13.0422 15.0055 12.9177Z" fill="#2577D2"/>
<path d="M0.49298 8.34212C0.55908 8.38462 0.633847 8.41181 0.711809 8.42169C0.841605 8.43872 0.97288 8.40388 1.07716 8.32474C1.18143 8.2456 1.25031 8.12854 1.26883 7.99895C1.47433 6.48164 2.24544 5.09797 3.42773 4.12502C4.61003 3.15207 6.11623 2.66167 7.64473 2.75202L6.53068 3.51295C6.45186 3.57233 6.39249 3.65382 6.36012 3.74705C6.32774 3.84028 6.32384 3.94103 6.34891 4.03648C6.37397 4.13194 6.42686 4.21778 6.50086 4.28308C6.57486 4.34838 6.6666 4.39019 6.76443 4.40318C6.87648 4.41343 6.98869 4.38538 7.08273 4.32361L9.73355 2.50335L7.46568 0.225531C7.42533 0.163693 7.37171 0.111617 7.30872 0.073084C7.24572 0.0345512 7.17494 0.0105285 7.10151 0.00276C7.02808 -0.0050085 6.95384 0.00367214 6.88418 0.0281717C6.81452 0.0526713 6.75119 0.092375 6.69879 0.1444C6.64639 0.196426 6.60623 0.259467 6.58123 0.328947C6.55622 0.398428 6.54701 0.472604 6.55424 0.54609C6.56148 0.619576 6.58499 0.690529 6.62307 0.753796C6.66115 0.817064 6.71284 0.871058 6.77438 0.91186L7.61986 1.75734C5.85471 1.67294 4.12207 2.25337 2.76397 3.38404C1.40587 4.51472 0.52102 6.11346 0.284097 7.86467C0.271346 7.95579 0.284118 8.04865 0.320995 8.13294C0.357872 8.21723 0.417407 8.28964 0.49298 8.34212Z" fill="#2577D2"/>
<path d="M9.15668 14.733C8.38005 14.9811 7.56083 15.0674 6.74955 14.9866C5.76152 14.8898 4.8119 14.5539 3.98268 14.008C3.15346 13.4622 2.46955 12.7227 1.99001 11.8534L3.22839 12.3159C3.34254 12.3357 3.46002 12.315 3.56056 12.2575C3.66109 12.1999 3.73837 12.109 3.77905 12.0005C3.81973 11.892 3.82126 11.7728 3.78338 11.6633C3.7455 11.5538 3.67058 11.461 3.57155 11.4008L1.28876 10.5553L0.557671 10.2917L0.005624 13.4499C-0.0135143 13.5761 0.0166005 13.7048 0.0897356 13.8094C0.162871 13.914 0.273427 13.9865 0.398522 14.0118H0.48307C0.600124 14.014 0.714177 13.9747 0.80515 13.9011C0.896124 13.8274 0.958185 13.7239 0.98041 13.609L1.18929 12.4154C1.7518 13.4008 2.54189 14.2372 3.4936 14.855C4.44531 15.4727 5.53101 15.8538 6.66003 15.9664C7.60396 16.0599 8.55704 15.9584 9.46005 15.668C9.57503 15.6204 9.66798 15.5314 9.72056 15.4186C9.77313 15.3058 9.78151 15.1774 9.74403 15.0587C9.70656 14.9401 9.62596 14.8397 9.51814 14.7776C9.41032 14.7155 9.28312 14.696 9.16165 14.723L9.15668 14.733Z" fill="#2577D2"/>
</svg>
