<svg width="21" height="20" viewBox="0 0 21 20" fill="none" xmlns="http://www.w3.org/2000/svg">
<path d="M18.9863 9.53954L18.0453 9.3733C17.9035 9.33265 17.7757 9.25345 17.6762 9.14451C17.5767 9.03558 17.5094 8.90118 17.4818 8.75626C17.438 8.48519 17.3778 8.21703 17.3014 7.95327C17.2635 7.81186 17.2661 7.66262 17.3089 7.52262C17.3518 7.38262 17.4332 7.25749 17.5437 7.16154L18.3298 6.59803C18.5935 6.41135 18.7727 6.12814 18.8287 5.80998C18.8846 5.49183 18.8127 5.16446 18.6285 4.89906L17.7325 3.61708C17.6411 3.48454 17.5238 3.37182 17.3878 3.28565C17.2517 3.19947 17.0997 3.14162 16.9408 3.11556C16.7828 3.08752 16.6208 3.09101 16.4641 3.12582C16.3074 3.16064 16.1592 3.22609 16.0279 3.31842L15.2418 3.88193C15.0881 3.97486 14.9049 4.00607 14.729 3.96927C14.6141 3.95028 14.5051 3.90495 14.4106 3.83685C14.1861 3.67136 13.9529 3.51806 13.7119 3.37759C13.5838 3.30381 13.4791 3.19541 13.4099 3.06484C13.3406 2.93427 13.3095 2.78682 13.3203 2.6394L13.4724 1.70679C13.5248 1.38799 13.4495 1.06139 13.2628 0.797709C13.0761 0.53403 12.7931 0.354508 12.475 0.298024L10.9338 0.0162703C10.615 -0.0361295 10.2884 0.0391668 10.0247 0.225851C9.76105 0.412536 9.58152 0.695579 9.52504 1.01368L9.36444 1.96882C9.32379 2.11064 9.24459 2.23839 9.13565 2.33788C9.02672 2.43737 8.89231 2.50468 8.7474 2.53233C8.47632 2.57608 8.20816 2.6363 7.9444 2.71265C7.83212 2.7375 7.71576 2.7375 7.60348 2.71265C7.42546 2.68746 7.264 2.59462 7.15268 2.45344L6.58917 1.66735C6.4977 1.53481 6.38044 1.42208 6.24441 1.33591C6.10837 1.24974 5.95635 1.19189 5.79744 1.16583C5.63942 1.13778 5.47741 1.14127 5.32074 1.17609C5.16407 1.2109 5.01583 1.27636 4.88456 1.36869L3.61103 2.25058C3.4785 2.34204 3.36577 2.4593 3.2796 2.59534C3.19343 2.73137 3.13558 2.88339 3.10951 3.0423C3.08147 3.20033 3.08496 3.36233 3.11978 3.519C3.15459 3.67567 3.22005 3.82391 3.31238 3.95518L3.87588 4.74128C3.9506 4.87126 3.98658 5.0199 3.9796 5.16967C3.97261 5.31943 3.92293 5.46408 3.83644 5.58654C3.67302 5.80443 3.52275 6.0364 3.38563 6.28247C3.31185 6.41055 3.20346 6.51523 3.07289 6.5845C2.94231 6.65377 2.79486 6.68483 2.64744 6.67411L1.70638 6.50787C1.38758 6.45547 1.06098 6.53077 0.797299 6.71745C0.53362 6.90414 0.354098 7.18718 0.297613 7.50528L0.01586 9.04647C-0.0357849 9.36517 0.0398123 9.6914 0.226369 9.9549C0.412926 10.2184 0.695514 10.3981 1.01327 10.4552L1.95432 10.6215C2.09614 10.6621 2.2239 10.7413 2.32338 10.8503C2.42287 10.9592 2.49018 11.0936 2.51783 11.2385C2.56161 11.5096 2.62183 11.7777 2.69815 12.0415C2.73609 12.1829 2.73349 12.3322 2.69064 12.4722C2.6478 12.6122 2.56643 12.7373 2.45585 12.8332L1.66975 13.3967C1.53653 13.4882 1.42269 13.6051 1.3348 13.7406C1.24692 13.8762 1.18671 14.0279 1.15764 14.1868C1.12857 14.3458 1.13122 14.5089 1.16544 14.6668C1.19966 14.8247 1.26476 14.9743 1.35701 15.107L2.25862 16.389C2.35088 16.5255 2.47031 16.6415 2.60945 16.7297C2.74859 16.8179 2.90444 16.8765 3.06725 16.9018C3.22527 16.9298 3.38728 16.9263 3.54395 16.8915C3.70062 16.8567 3.84886 16.7912 3.98013 16.6989L4.76622 16.1354C4.91995 16.0425 5.10319 16.0112 5.27901 16.048C5.39282 16.0677 5.50127 16.1108 5.5974 16.1748C5.8228 16.3345 6.05384 16.4829 6.29051 16.62C6.41768 16.6934 6.52178 16.8009 6.59099 16.9303C6.66021 17.0598 6.69179 17.2061 6.68215 17.3526L6.51591 18.2936C6.46427 18.6123 6.53987 18.9385 6.72642 19.202C6.91298 19.4655 7.19557 19.6452 7.51332 19.7024L9.05451 19.9841C9.37321 20.0358 9.69944 19.9602 9.96294 19.7736C10.2264 19.5871 10.4061 19.3045 10.4633 18.9867L10.6295 18.0457C10.6702 17.9039 10.7494 17.7761 10.8583 17.6766C10.9672 17.5771 11.1016 17.5098 11.2466 17.4822C11.5224 17.439 11.7953 17.3788 12.0636 17.3018C12.1759 17.277 12.2923 17.277 12.4046 17.3018C12.5826 17.327 12.744 17.4199 12.8554 17.5611L13.4189 18.3472C13.5103 18.4797 13.6276 18.5924 13.7636 18.6786C13.8997 18.7648 14.0517 18.8226 14.2106 18.8487C14.3686 18.8767 14.5306 18.8732 14.6873 18.8384C14.844 18.8036 14.9922 18.7381 15.1235 18.6458L16.4055 17.7442C16.671 17.557 16.8514 17.2719 16.9069 16.9517C16.9624 16.6316 16.8884 16.3025 16.7013 16.0368L16.1378 15.2507C16.0631 15.1207 16.0271 14.9721 16.0341 14.8223C16.0411 14.6725 16.0907 14.5279 16.1772 14.4054C16.3369 14.18 16.4853 13.949 16.6224 13.7123C16.6966 13.5848 16.8051 13.4806 16.9357 13.4119C17.0662 13.3431 17.2135 13.3125 17.3606 13.3235L18.3017 13.4897C18.6205 13.5421 18.9471 13.4668 19.2107 13.2801C19.4744 13.0935 19.6539 12.8104 19.7104 12.4923L19.9922 10.9511C20.04 10.6314 19.9618 10.3056 19.7742 10.0423C19.5866 9.77897 19.3042 9.59875 18.9863 9.53954ZM13.5259 10.6243C13.405 11.3241 13.0791 11.9724 12.5895 12.4869C12.1 13.0015 11.4688 13.3593 10.7759 13.515C10.0829 13.6707 9.35935 13.6174 8.69673 13.3617C8.03411 13.106 7.46223 12.6596 7.05346 12.0788C6.64469 11.498 6.4174 10.8089 6.40036 10.0989C6.38332 9.38889 6.5773 8.68976 6.95774 8.09002C7.33818 7.49028 7.88799 7.01688 8.53758 6.72973C9.18717 6.44257 9.90735 6.35458 10.607 6.47688C11.5429 6.64199 12.3754 7.17098 12.9224 7.94818C13.4694 8.72538 13.6864 9.68754 13.5259 10.6243Z" fill="#0498F9"/>
</svg>
