<svg width="9" height="9" viewBox="0 0 9 9" fill="none" xmlns="http://www.w3.org/2000/svg">
<path d="M8.37931 8.37939H0.310345C0.228036 8.37939 0.149099 8.41209 0.090898 8.47029C0.032697 8.52849 0 8.60743 0 8.68974C0 8.77205 0.032697 8.85099 0.090898 8.90919C0.149099 8.96739 0.228036 9.00008 0.310345 9.00008H8.37931C8.46162 9.00008 8.54056 8.96739 8.59876 8.90919C8.65696 8.85099 8.68966 8.77205 8.68966 8.68974C8.68966 8.60743 8.65696 8.52849 8.59876 8.47029C8.54056 8.41209 8.46162 8.37939 8.37931 8.37939Z" fill="black"/>
<path d="M4.34491 7.90759L7.63767 4.61483C7.68851 4.55546 7.71508 4.47909 7.71206 4.40098C7.70905 4.32288 7.67667 4.24879 7.6214 4.19351C7.56613 4.13824 7.49203 4.10587 7.41393 4.10285C7.33582 4.09983 7.25945 4.1264 7.20008 4.17724L4.65526 6.71897V0.310345C4.65526 0.228036 4.62256 0.149099 4.56436 0.0908979C4.50616 0.032697 4.42722 0 4.34491 0C4.2626 0 4.18367 0.032697 4.12546 0.0908979C4.06726 0.149099 4.03457 0.228036 4.03457 0.310345V6.71897L1.49284 4.17724C1.46502 4.14475 1.43078 4.11837 1.39228 4.09974C1.35378 4.08111 1.31184 4.07064 1.2691 4.06899C1.22636 4.06734 1.18374 4.07454 1.14391 4.09015C1.10409 4.10575 1.06792 4.12942 1.03768 4.15966C1.00743 4.1899 0.983764 4.22607 0.968162 4.2659C0.95256 4.30573 0.945358 4.34834 0.947009 4.39109C0.948659 4.43383 0.959127 4.47576 0.977755 4.51427C0.996383 4.55277 1.02277 4.58701 1.05526 4.61483L4.34491 7.90759Z" fill="black"/>
</svg>
