<svg width="26" height="29" viewBox="0 0 26 29" fill="none" xmlns="http://www.w3.org/2000/svg">
<path d="M1.23445 0.375135C1.64404 0.125145 2.11562 -0.00478821 2.59545 0.000134883H22.9614C23.5242 0.0115998 24.0673 0.209312 24.5057 0.562334C24.9442 0.915356 25.2532 1.40377 25.3844 1.95113C25.4454 2.23418 25.4696 2.5239 25.4564 2.81314V13.9891H23.8834C23.8097 13.992 23.7363 13.9993 23.6635 14.0111C23.4701 13.9967 23.2762 13.993 23.0824 14.0001C22.7824 14.0071 22.4725 13.9861 22.1684 14.0141C22.036 13.9957 21.9021 13.989 21.7684 13.9941H17.0294C16.8294 13.9941 16.6374 14.0021 16.4424 13.9841L16.5424 13.9191L10.1894 10.1061V13.9951C7.97645 13.9901 5.76245 13.9951 3.54945 13.9951C3.46546 13.9975 3.38166 14.0045 3.29845 14.0161C3.08645 13.9841 2.87145 14.0001 2.65645 14.0001C2.37245 14.0061 2.08645 13.9851 1.80345 14.0151C1.71965 14.0026 1.63516 13.9952 1.55045 13.9931H0.00944868C0.0154487 10.3581 0.00944868 6.72313 0.00944868 3.09313C-0.0117586 2.71465 0.012075 2.33499 0.0804485 1.96213C0.158003 1.63432 0.299966 1.3252 0.49808 1.05275C0.696193 0.7803 0.946503 0.549962 1.23445 0.375135ZM1.77445 2.56314C1.63756 2.59615 1.51541 2.67346 1.42698 2.78305C1.33855 2.89263 1.2888 3.02836 1.28545 3.16914V4.48514C1.29524 4.64571 1.36524 4.79668 1.48147 4.9079C1.5977 5.01912 1.7516 5.08241 1.91245 5.08513H3.22145C3.37893 5.0759 3.52741 5.00865 3.63822 4.89637C3.74902 4.78408 3.8143 4.63473 3.82145 4.47714C3.82645 4.05114 3.82145 3.62414 3.82145 3.19813C3.82384 3.08148 3.7945 2.96636 3.73655 2.86509C3.67861 2.76381 3.59423 2.68018 3.49245 2.62314C3.38203 2.56617 3.25856 2.53927 3.13445 2.54514H1.99845C1.92336 2.54334 1.84829 2.54937 1.77445 2.56314ZM22.1154 2.56314C21.9812 2.599 21.8623 2.67767 21.7767 2.7872C21.6912 2.89674 21.6437 3.03118 21.6414 3.17014V4.47613C21.6486 4.63373 21.7139 4.78308 21.8247 4.89537C21.9355 5.00765 22.084 5.0749 22.2414 5.08414C22.6775 5.08914 23.1134 5.08414 23.5494 5.08414C23.7113 5.08131 23.866 5.01718 23.9824 4.9047C24.0988 4.79222 24.1681 4.63977 24.1764 4.47814C24.1824 4.04013 24.1764 3.60213 24.1764 3.16413C24.1726 3.00523 24.1096 2.85349 23.9997 2.73863C23.8898 2.62376 23.741 2.55405 23.5824 2.54314C23.2344 2.53414 22.8824 2.54314 22.5374 2.54314C22.3963 2.53605 22.2549 2.5441 22.1154 2.56713V2.56314ZM1.77645 6.38014C1.67391 6.40424 1.57895 6.4534 1.50007 6.5232C1.42118 6.59301 1.36084 6.68129 1.32445 6.78013C1.28754 6.90526 1.27365 7.03605 1.28345 7.16614V8.30113C1.29229 8.45739 1.35834 8.60492 1.469 8.71558C1.57967 8.82624 1.7272 8.89229 1.88345 8.90113C2.28345 8.90913 2.67845 8.90113 3.07545 8.90113C3.21045 8.91218 3.3461 8.88986 3.47045 8.83613C3.57808 8.78364 3.66886 8.70204 3.73249 8.60059C3.79612 8.49914 3.83005 8.38189 3.83045 8.26213V6.98313C3.82721 6.82274 3.76366 6.66945 3.65247 6.55381C3.54128 6.43816 3.39059 6.36866 3.23045 6.35914C2.89245 6.35114 2.55345 6.35914 2.21445 6.35914C2.06811 6.35267 1.92149 6.3597 1.77645 6.38014ZM22.1144 6.38014C22.0154 6.40699 21.9243 6.45739 21.8489 6.52703C21.7735 6.59668 21.7161 6.68351 21.6814 6.78013C21.6443 6.90555 21.6304 7.03671 21.6404 7.16713V8.29813C21.648 8.45686 21.7145 8.60705 21.827 8.71931C21.9394 8.83158 22.0897 8.89784 22.2484 8.90513C22.6544 8.91113 23.0604 8.90513 23.4664 8.90513C23.5978 8.91344 23.729 8.88651 23.8464 8.82713C23.9471 8.77258 24.0313 8.69204 24.0902 8.5939C24.1491 8.49575 24.1806 8.3836 24.1814 8.26913V6.98513C24.1781 6.82615 24.1154 6.67417 24.0056 6.55907C23.8959 6.44397 23.7471 6.37408 23.5884 6.36313C23.2394 6.35414 22.8884 6.36313 22.5414 6.36313C22.3984 6.35454 22.2549 6.36192 22.1134 6.38514L22.1144 6.38014ZM1.77545 10.2001C1.63786 10.2329 1.51502 10.3103 1.42617 10.4203C1.33731 10.5303 1.28747 10.6667 1.28445 10.8081C1.28445 11.2461 1.27945 11.6851 1.28445 12.1231C1.29402 12.2838 1.36394 12.4349 1.48022 12.5462C1.5965 12.6574 1.75053 12.7206 1.91145 12.7231H3.21145C3.37018 12.7158 3.52048 12.6496 3.63293 12.5373C3.74538 12.425 3.8119 12.2749 3.81945 12.1161V10.8091C3.81662 10.6476 3.7526 10.4931 3.64031 10.3769C3.52802 10.2607 3.37582 10.1915 3.21445 10.1831C2.86645 10.1761 2.51445 10.1831 2.16945 10.1831C2.03787 10.1765 1.90597 10.1822 1.77545 10.2001ZM22.1104 10.2061C22.0125 10.2327 21.9224 10.2823 21.8475 10.3508C21.7727 10.4194 21.7154 10.5049 21.6804 10.6001C21.6431 10.7252 21.6292 10.856 21.6395 10.9861V12.1171C21.6467 12.2759 21.713 12.4262 21.8253 12.5386C21.9375 12.6511 22.0877 12.7176 22.2464 12.7251C22.6814 12.7301 23.1164 12.7251 23.5525 12.7251C23.7143 12.7226 23.8691 12.6587 23.9857 12.5464C24.1022 12.4341 24.1719 12.2818 24.1804 12.1201C24.1864 11.6821 24.1804 11.2441 24.1804 10.8071C24.1771 10.6483 24.1145 10.4965 24.005 10.3814C23.8955 10.2663 23.7469 10.1963 23.5884 10.1851C23.2394 10.1751 22.8885 10.1851 22.5424 10.1851C22.3987 10.1738 22.2541 10.1789 22.1115 10.2001L22.1104 10.2061Z" fill="#E75749"/>
<path d="M10.1926 10.1001C12.3099 11.3721 14.4276 12.6431 16.5456 13.9131L16.4456 13.9781C14.3609 15.2261 12.2772 16.4754 10.1946 17.7261V13.9901C10.1936 12.6951 10.1906 11.4001 10.1926 10.1001Z" fill="white"/>
<path d="M0.00925085 13.9881H1.55025C1.63496 13.9902 1.71945 13.9975 1.80325 14.0101C1.63622 14.0435 1.48919 14.1416 1.39425 14.2831C1.30511 14.4403 1.26636 14.6211 1.28325 14.8011V15.8461C1.28286 15.9363 1.30028 16.0258 1.33451 16.1093C1.36875 16.1928 1.41912 16.2687 1.48276 16.3327C1.54639 16.3967 1.62203 16.4475 1.70534 16.4823C1.78865 16.517 1.878 16.5349 1.96825 16.5351H3.16025C3.31896 16.5318 3.47153 16.4731 3.59152 16.3692C3.71152 16.2653 3.79137 16.1227 3.81725 15.9661C3.82525 15.5191 3.81725 15.066 3.81725 14.623C3.81512 14.4763 3.76195 14.3348 3.66688 14.2229C3.57181 14.1111 3.44077 14.0358 3.29625 14.0101C3.37947 13.9984 3.46326 13.9914 3.54725 13.9891H10.1873V17.7251C12.2719 16.4777 14.3556 15.2284 16.4383 13.9771C16.6383 13.9951 16.8293 13.9841 17.0253 13.9871H21.7663C21.8999 13.9819 22.0338 13.9886 22.1663 14.0071C22.0611 14.0262 21.9625 14.0716 21.8795 14.1388C21.7965 14.2061 21.7318 14.2932 21.6913 14.3921C21.6478 14.5231 21.6325 14.6617 21.6463 14.7991V15.8131C21.6404 15.9066 21.6541 16.0004 21.6864 16.0884C21.7186 16.1764 21.7689 16.2567 21.8338 16.3243C21.8988 16.3919 21.9771 16.4453 22.0637 16.481C22.1504 16.5168 22.2435 16.5342 22.3373 16.5321H23.4973C23.6746 16.5327 23.8452 16.4644 23.9732 16.3417C24.1012 16.2189 24.1765 16.0513 24.1833 15.8741V14.89C24.2063 14.6882 24.1716 14.484 24.0833 14.3011C24.037 14.2262 23.9758 14.1616 23.9036 14.1114C23.8313 14.0612 23.7495 14.0263 23.6633 14.0091C23.7361 13.9973 23.8095 13.9899 23.8833 13.9871H25.4563C25.4673 15.7081 25.4563 17.4301 25.4563 19.1521V25.4451C25.4533 26.0503 25.2365 26.6351 24.8443 27.0961C24.4457 27.5653 23.8903 27.8738 23.2813 27.9641C22.9553 27.9964 22.6276 28.0074 22.3003 27.9971H3.45825C3.00169 28.0148 2.54444 27.9987 2.09025 27.949C1.6169 27.8609 1.17806 27.6408 0.824235 27.3143C0.470415 26.9877 0.215993 26.5678 0.0902507 26.1031C0.0271661 25.8595 -0.00310147 25.6086 0.000250791 25.3571V14.8911C0.00725079 14.5911 -0.00174915 14.2891 0.00925085 13.9881ZM1.80425 17.831C1.6505 17.8571 1.51247 17.9408 1.41825 18.0651C1.32439 18.2011 1.27735 18.3639 1.28425 18.529V19.6911C1.29124 19.8682 1.36662 20.0357 1.49454 20.1584C1.62247 20.2811 1.79299 20.3494 1.97025 20.3491H3.25325C3.41926 20.3201 3.56886 20.2312 3.67358 20.0992C3.77831 19.9672 3.83086 19.8013 3.82125 19.633V18.442C3.8217 18.356 3.80414 18.2708 3.7697 18.1919C3.73525 18.113 3.68469 18.0422 3.62125 17.984C3.48587 17.8685 3.31213 17.8079 3.13425 17.814H1.99825C1.93319 17.8136 1.86824 17.8193 1.80425 17.831ZM22.1703 17.831C22.03 17.8533 21.9016 17.9231 21.8066 18.0286C21.7115 18.1342 21.6557 18.2692 21.6483 18.411V19.633C21.6424 19.7265 21.656 19.8201 21.6883 19.908C21.7205 19.9959 21.7707 20.0761 21.8355 20.1436C21.9004 20.2111 21.9786 20.2644 22.0651 20.3001C22.1516 20.3358 22.2447 20.3532 22.3383 20.3511C22.7663 20.3511 23.1953 20.3561 23.6233 20.3511C23.7814 20.3193 23.9237 20.2338 24.0261 20.1092C24.1285 19.9845 24.1847 19.8284 24.1853 19.6671V18.654C24.2082 18.4563 24.1649 18.2566 24.0623 18.0861C24.0006 18.003 23.9204 17.9356 23.828 17.8893C23.7356 17.8429 23.6336 17.8189 23.5303 17.8191H22.5763C22.4409 17.8104 22.305 17.8141 22.1703 17.8301V17.831ZM1.80525 21.6481C1.72538 21.6609 1.64887 21.6895 1.58019 21.7323C1.51152 21.7751 1.45204 21.8311 1.40525 21.897C1.31851 22.0299 1.27518 22.1865 1.28125 22.345V23.477C1.2824 23.6445 1.34358 23.8061 1.45367 23.9323C1.56376 24.0585 1.71547 24.1411 1.88125 24.1651H3.25725C3.42326 24.1359 3.57276 24.0467 3.6773 23.9145C3.78185 23.7823 3.83415 23.6163 3.82425 23.4481V22.2591C3.82484 22.1728 3.80735 22.0874 3.7729 22.0084C3.73845 21.9293 3.68781 21.8583 3.62425 21.8C3.48974 21.685 3.31713 21.6244 3.14025 21.63H1.99925C1.93416 21.6299 1.8692 21.6359 1.80525 21.6481ZM22.1673 21.6481C22.0535 21.6661 21.9471 21.7157 21.8602 21.7912C21.7732 21.8667 21.7092 21.965 21.6753 22.0751C21.6471 22.1826 21.6373 22.2942 21.6463 22.4051V23.6001C21.6727 23.7561 21.7526 23.898 21.8724 24.0014C21.9921 24.1049 22.1441 24.1635 22.3023 24.1671H23.4953C23.5881 24.1667 23.6798 24.1477 23.7651 24.111C23.8504 24.0743 23.9273 24.0208 23.9914 23.9537C24.0555 23.8865 24.1053 23.8071 24.1379 23.7202C24.1706 23.6334 24.1853 23.5408 24.1813 23.4481V22.2841C24.1817 22.1768 24.1559 22.071 24.106 21.976C24.0562 21.881 23.9838 21.7996 23.8953 21.7391C23.6481 21.6304 23.3757 21.5923 23.1083 21.6291C22.7963 21.6391 22.4793 21.609 22.1683 21.647L22.1673 21.6481Z" fill="#C0392B"/>
</svg>
