<svg width="42" height="12" viewBox="0 0 42 12" fill="none" xmlns="http://www.w3.org/2000/svg">
<path fill-rule="evenodd" clip-rule="evenodd" d="M12.4117 2.02461C13.0025 1.55446 13.184 0.800301 12.8178 0.339686C12.4514 -0.120314 11.6754 -0.112006 11.0849 0.35784C10.4945 0.827994 10.3126 1.58215 10.6788 2.04246C11.0452 2.50276 11.8209 2.49446 12.4117 2.02461ZM38.5892 8.74338C38.2757 9.30646 37.7323 9.86522 37.0822 10.0077C35.8114 10.2861 35.9074 8.4363 36.1206 7.66646C36.2123 7.33415 36.3474 7.05815 36.4886 6.80707C36.7714 6.30461 37.1674 5.75292 37.7357 5.55722C37.7742 5.54399 37.8135 5.5323 37.8538 5.52246C38.4326 5.3803 38.8458 5.78922 39.0292 6.30892C39.324 7.14184 38.9972 8.01015 38.5892 8.74338ZM29.9871 5.74399C30.3471 5.55876 30.9455 5.48092 31.0652 6.09199C31.2006 6.78553 30.0692 8.13107 28.4886 8.76307C27.8858 7.66153 29.0111 6.2643 29.9871 5.74399ZM41.4065 6.56369C41.3357 5.53384 40.9108 4.52953 39.9622 4.07015C39.0905 3.6483 37.4385 3.75999 36.5591 4.14061C33.3871 5.63046 33.5723 8.33292 33.4538 8.96461C32.8898 9.34184 31.9335 9.61999 31.068 9.73661C30.3068 9.83815 29.4815 9.79938 29.0157 9.43815C30.596 8.81015 34.5049 6.86646 33.2258 4.59661C31.9695 2.28153 24.8622 4.57046 25.9982 9.61969C25.3468 10.0265 25.0871 9.90922 24.9283 9.28061C24.9 8.16215 25.1877 7.30215 25.3492 6.31538C25.4031 5.98615 25.4708 5.63169 25.4369 5.28092C25.3785 4.67661 24.9452 4.0763 24.2788 4.01784C22.3806 4.01784 21.3695 5.40184 20.8932 5.71938C20.7037 5.26276 21.3662 4.03538 19.4372 4.03538C17.9665 3.94399 16.9886 4.92953 16.2797 5.54369C16.1818 5.18492 16.1486 4.77076 15.9988 4.43876C15.8735 4.16092 15.6277 3.85507 15.3148 3.80707C14.9985 3.75876 14.6471 3.97569 14.42 4.14061C13.7228 4.64769 13.0145 5.31599 12.5431 5.94707C12.7991 6.42246 13.5302 6.09445 13.9991 6.03476C13.9788 6.50122 13.9418 6.98861 13.8763 7.45599C13.7729 8.18984 13.7529 8.82399 13.1043 9.28061C12.7142 9.55476 12.1677 9.79015 11.964 9.19292C11.7671 8.61415 11.9357 7.93384 12.0483 7.35446C12.1889 6.63292 12.264 5.90307 12.3674 5.17538C12.4231 4.78584 12.492 4.48092 12.2108 4.15046C11.9935 3.89569 11.652 3.73999 11.3151 3.7723C10.4194 3.85753 9.99723 4.67353 9.36769 5.07015C9.68738 3.80122 8.67169 3.4403 7.65446 3.59569C7.25077 3.65753 5.88554 4.25999 5.42062 5.70184C6.244 5.63876 6.67508 5.76092 6.596 6.66646C6.56277 7.04615 6.37138 7.46092 6.15754 7.85938C5.91046 8.31846 5.44708 9.21938 4.84031 8.57015C4.29323 7.98553 4.33538 6.86707 4.21015 6.12245C4.14 5.70461 4.06646 5.18461 3.92954 4.75446C3.81169 4.3843 3.54154 3.93969 3.21015 3.84215C2.85446 3.73784 2.41569 3.90122 2.15754 4.05292C1.33631 4.53569 0.710462 5.22338 0 5.78953V5.84215C0.140308 5.97661 0.178154 6.19753 0.385846 6.22769C0.875077 6.29938 1.34092 5.77169 1.66585 6.32153C1.864 6.65692 1.92585 7.02461 2.05262 7.38584C2.22185 7.8683 2.35262 8.39292 2.49108 8.94707C2.72554 9.88522 3.01292 11.2871 3.82431 11.6311C4.23846 11.8065 4.86 11.572 5.17508 11.3852C6.02862 10.8797 6.69323 10.1483 7.26277 9.40307C7.82738 8.66399 8.39569 7.79938 8.84154 6.9123C9.11477 6.3683 9.29692 5.90861 10.0695 6.01753C10.0185 7.14892 9.66554 8.10861 9.45538 9.08707C9.38123 9.43199 9.28523 9.80769 9.28 10.1575C9.27046 10.7831 9.532 11.396 9.99938 11.5258C10.3452 11.6212 10.8268 11.5852 11.1572 11.5606C12.2763 11.4794 13.2578 10.7409 13.8658 10.1329C14.2022 10.5391 14.6277 11.5788 16.2145 11.5788C15.4862 9.98369 15.9545 6.15907 17.9111 6.33353C18.484 6.55415 18.2262 7.51384 18.104 8.0523C18.0197 8.42492 17.2554 11.8569 20.2265 11.596C20.2265 10.9446 19.9683 7.33107 21.9157 6.37261C22.0905 6.28184 22.7015 6.27753 22.7354 6.57876C22.8871 7.94215 22.2582 9.16399 22.2791 10.5431C22.2951 12.7188 25.6615 10.8917 26.4018 10.4735C26.8268 10.7861 28.0818 12.0215 30.9628 11.3677C31.5043 11.2314 31.9815 11.0877 32.4188 10.8766C32.8782 10.6551 33.3034 10.4117 33.7695 10.2625C33.7058 10.2831 34.3194 11.0178 34.3871 11.0695C34.6815 11.2963 35.0382 11.4446 35.3895 11.5575C36.2071 11.8191 37.0754 11.7234 37.8997 11.5283C39.5628 11.1338 40.688 9.8803 41.2028 8.28553C41.3686 7.77169 41.4477 7.16338 41.4065 6.56369Z" fill="#00A3DA"/>
</svg>
