<svg width="22" height="21" viewBox="0 0 22 21" fill="none" xmlns="http://www.w3.org/2000/svg">
<path fill-rule="evenodd" clip-rule="evenodd" d="M1.3 1.3V12.14H9.12105V1.3H1.3ZM10.3205 0.562479C10.1582 0.229462 9.81643 0 9.42105 0H1C0.447715 0 0 0.447715 0 1V12.44C0 12.6949 0.0953997 12.9276 0.252446 13.1042C0.435618 13.3102 0.702653 13.44 1 13.44H9.42105C9.7184 13.44 9.98543 13.3102 10.1686 13.1042C10.2098 13.0578 10.2468 13.0076 10.2789 12.9541C10.3692 12.8039 10.4211 12.628 10.4211 12.44V1C10.4211 0.843096 10.3849 0.694634 10.3205 0.562479ZM11.7211 8.04588C11.6308 8.19611 11.5789 8.372 11.5789 8.56V20C11.5789 20.1569 11.6151 20.3054 11.6795 20.4375C11.8418 20.7705 12.1836 21 12.5789 21H21C21.5523 21 22 20.5523 22 20V8.56C22 8.30506 21.9046 8.07241 21.7476 7.89579C21.5644 7.68978 21.2973 7.56 21 7.56H12.5789C12.2816 7.56 12.0146 7.68978 11.8314 7.89579C11.7902 7.94216 11.7532 7.99239 11.7211 8.04588ZM11.6795 0.562479C11.6151 0.694635 11.5789 0.843097 11.5789 1V5.72C11.5789 5.908 11.6308 6.08389 11.7211 6.23412C11.7532 6.28761 11.7902 6.33784 11.8314 6.38421C12.0146 6.59022 12.2816 6.72 12.5789 6.72H21C21.2973 6.72 21.5644 6.59022 21.7476 6.38421C21.9046 6.20759 22 5.97494 22 5.72V1C22 0.447717 21.5523 0 21 0H12.5789C12.1836 0 11.8418 0.229463 11.6795 0.562479ZM10.3205 20.4375C10.3849 20.3054 10.4211 20.1569 10.4211 20V15.28C10.4211 15.092 10.3692 14.9161 10.2789 14.7659C10.2468 14.7124 10.2098 14.6622 10.1686 14.6158C9.98543 14.4098 9.7184 14.28 9.42105 14.28H1C0.702653 14.28 0.435618 14.4098 0.252446 14.6158C0.0953997 14.7924 0 15.0251 0 15.28V20C0 20.5523 0.447715 21 1 21H9.42105C9.81643 21 10.1582 20.7705 10.3205 20.4375ZM1.3 15.58V19.7H9.12105V15.58H1.3ZM20.7 19.7V8.86H12.8789V19.7H20.7ZM20.7 5.42V1.3H12.8789V5.42H20.7Z" fill="white"/>
</svg>
