<svg width="25" height="25" viewBox="0 0 25 25" fill="none" xmlns="http://www.w3.org/2000/svg">
<path d="M15.3933 4.68858L15.3932 4.68861L15.3948 4.69015C18.3999 7.69528 18.3999 12.5157 15.3948 15.5208C12.3898 18.5258 7.56966 18.5259 4.5645 15.5212C3.1236 14.0175 2.31027 12.1393 2.31027 10.074C2.31027 8.00689 3.06175 6.06693 4.56336 4.62788C6.06715 3.18675 7.94543 2.37329 10.011 2.37329C12.0772 2.37329 14.017 3.18714 15.3933 4.68858ZM3.61122 16.4107C5.38534 18.1848 7.72973 19.0719 10.011 19.0719C12.3554 19.0719 14.6369 18.1847 16.411 16.3474C19.896 12.8621 19.8959 7.0964 16.4107 3.61122C14.7 1.90055 12.4189 0.95 10.011 0.95C7.60306 0.95 5.32189 1.90055 3.61122 3.61122C1.90055 5.32189 0.95 7.60306 0.95 10.011C0.95 12.4189 1.90055 14.7 3.61122 16.4107Z" fill="white" stroke="white" stroke-width="0.1"/>
<path d="M13.9455 16.8441L13.9099 16.8796L13.9456 16.915L20.7509 23.6573C20.751 23.6573 20.751 23.6573 20.751 23.6573C21.0121 23.9184 21.3398 24.05 21.6685 24.05C21.9965 24.05 22.3218 23.9191 22.5807 23.7249L22.581 23.7253L22.586 23.7203L23.6573 22.6491C24.1809 22.1254 24.1809 21.3376 23.6573 20.814L16.8518 14.0085L16.8164 13.9731L16.7811 14.0085L13.9455 16.8441ZM11.992 13.8195L11.992 13.8194L11.9904 13.8212C11.381 14.4915 10.3428 14.4941 9.66823 13.8195L7.33673 11.4879C7.03072 11.1819 6.84735 10.7535 6.84726 10.3263C6.85242 9.88989 7.02809 9.47277 7.33673 9.16413C7.64536 8.8555 8.06248 8.67983 8.49892 8.67467C8.67787 8.67473 8.85846 8.73431 9.04858 8.79768C9.39221 8.93413 9.79659 8.72809 9.93136 8.39118C10.0689 8.04726 9.86279 7.64196 9.52542 7.50701C9.20381 7.37837 8.81934 7.3144 8.49863 7.3144C7.72872 7.3144 6.95997 7.63508 6.38382 8.21123C5.8081 8.78696 5.48699 9.49254 5.48699 10.326C5.48699 11.096 5.80767 11.8647 6.38382 12.4408L8.71533 14.7724C9.29148 15.3485 10.0602 15.6692 10.8301 15.6692C11.6001 15.6692 12.3688 15.3485 12.9449 14.7724L13.134 14.5833C13.4119 14.3054 13.3356 13.895 13.071 13.6304C12.7931 13.3525 12.3827 13.4288 12.1181 13.6934L11.992 13.8195ZM21.6685 22.669L15.8789 16.8795L16.8795 15.8789L22.669 21.6685L21.6685 22.669Z" fill="white" stroke="white" stroke-width="0.1"/>
<path d="M11.992 8.66003L11.992 8.66007L11.9937 8.66167C12.6641 9.27107 12.6666 10.3092 11.992 10.9838C11.6852 11.2907 11.3194 11.4733 10.8301 11.4733C10.6511 11.4733 10.4704 11.4137 10.2801 11.3503C9.93652 11.2138 9.53214 11.4199 9.39737 11.7568C9.26007 12.1001 9.46515 12.5045 9.80136 12.6402C10.0628 12.7703 10.4483 12.8336 10.7671 12.8336C10.8024 12.8336 10.8047 12.8347 10.8077 12.8362C10.8097 12.8372 10.8137 12.8396 10.8222 12.8473C10.8309 12.8551 10.8416 12.8658 10.8578 12.8819L10.8724 12.8966H10.8931C11.663 12.8966 12.4318 12.5759 13.0079 11.9998L13.0079 11.9998L13.0089 11.9988C14.1609 10.7828 14.1622 8.86141 13.0079 7.70712L10.6764 5.37562L10.6764 5.3756L10.6754 5.37467C9.45944 4.22267 7.53807 4.22133 6.38378 5.37562L6.19474 5.56466C5.91686 5.84254 5.99314 6.25294 6.25776 6.51756C6.53564 6.79544 6.94604 6.71916 7.21066 6.45455L7.33669 6.32852L7.33673 6.32856L7.33833 6.3268C7.94773 5.65645 8.98589 5.65391 9.6605 6.32852L11.992 8.66003Z" fill="white" stroke="white" stroke-width="0.1"/>
</svg>
