<svg width="22" height="25" viewBox="0 0 22 25" fill="none" xmlns="http://www.w3.org/2000/svg">
<path d="M20.375 22.75H4.125C3.13847 22.75 2.35 22.0131 2.35 21.125C2.35 20.2369 3.13847 19.5 4.125 19.5H16.625C18.3947 19.5 19.85 18.1738 19.85 16.525V3.875C19.85 2.22621 18.3947 0.9 16.625 0.9H4.125C2.35531 0.9 0.9 2.22621 0.9 3.875V21.125C0.9 22.7738 2.35531 24.1 4.125 24.1H20.375C20.7672 24.1 21.1 23.8053 21.1 23.425C21.1 23.0447 20.7672 22.75 20.375 22.75ZM2.35 3.875C2.35 2.98686 3.13846 2.25 4.125 2.25H16.625C17.6115 2.25 18.4 2.98686 18.4 3.875V16.525C18.4 17.4131 17.6115 18.15 16.625 18.15H4.125C3.47058 18.15 2.85975 18.3313 2.35 18.642V3.875Z" fill="white" stroke="white" stroke-width="0.2"/>
<path d="M12.9898 14.1307L12.9902 14.131C13.1324 14.2606 13.317 14.325 13.5 14.325C13.683 14.325 13.8676 14.2606 14.0098 14.131L14.0102 14.1307C14.297 13.8668 14.297 13.4343 14.0102 13.1705L10.612 10.0441C10.9199 9.58828 11.1 9.05187 11.1 8.47501C11.1 6.82622 9.64469 5.50001 7.875 5.50001C6.10531 5.50001 4.65 6.82622 4.65 8.47501C4.65 10.1238 6.10531 11.45 7.875 11.45C8.50233 11.45 9.08655 11.2827 9.5821 10.9956L12.9898 14.1307ZM7.875 6.85001C8.86154 6.85001 9.65 7.58687 9.65 8.47501C9.65 9.36314 8.86154 10.1 7.875 10.1C6.88847 10.1 6.1 9.36314 6.1 8.47501C6.1 7.58687 6.88847 6.85001 7.875 6.85001Z" fill="white" stroke="white" stroke-width="0.2"/>
</svg>
