<svg width="24" height="24" viewBox="0 0 24 24" fill="none" xmlns="http://www.w3.org/2000/svg">
<path d="M10.9833 17.0417C10.9833 20.3823 13.7011 23.1001 17.0417 23.1001C20.3822 23.1001 23.1 20.3823 23.1 17.0417C23.1 13.7011 20.3822 10.9834 17.0417 10.9834C13.7011 10.9834 10.9833 13.7011 10.9833 17.0417ZM12.1 17.0417C12.1 14.3167 14.3166 12.1 17.0417 12.1C19.7667 12.1 21.9833 14.3167 21.9833 17.0417C21.9833 19.7667 19.7667 21.9834 17.0417 21.9834C14.3166 21.9834 12.1 19.7667 12.1 17.0417Z" fill="white" stroke="white" stroke-width="0.2"/>
<path d="M15.7301 19.2706L15.7298 19.2702L13.8964 17.4369C13.6786 17.2191 13.6786 16.8652 13.8964 16.6474C14.1142 16.4296 14.4681 16.4296 14.6859 16.6474L16.0972 18.0586L18.9123 14.8411C18.9124 14.841 18.9124 14.841 18.9124 14.8409L18.9125 14.8409L18.9877 14.9068C19.1546 14.7152 19.4442 14.6959 19.6349 14.8637L15.7301 19.2706ZM15.7301 19.2706C15.8349 19.3742 15.9774 19.4333 16.125 19.4333H16.125H16.125H16.1251H16.1251H16.1251H16.1251H16.1252H16.1252H16.1252H16.1252H16.1253H16.1253H16.1253H16.1253H16.1254H16.1254H16.1254H16.1255H16.1255H16.1255H16.1255H16.1256H16.1256H16.1256H16.1256H16.1257H16.1257H16.1257H16.1258H16.1258H16.1258H16.1258H16.1259H16.1259H16.1259H16.126H16.126H16.126H16.126H16.1261H16.1261H16.1261H16.1261H16.1262H16.1262H16.1262H16.1263H16.1263H16.1263H16.1263H16.1264H16.1264H16.1264H16.1264H16.1265H16.1265H16.1265H16.1266H16.1266H16.1266H16.1266H16.1267H16.1267H16.1267H16.1268H16.1268H16.1268H16.1268H16.1269H16.1269H16.1269H16.127H16.127H16.127H16.127H16.1271H16.1271H16.1271H16.1272H16.1272H16.1272H16.1272H16.1273H16.1273H16.1273H16.1273H16.1274H16.1274H16.1274H16.1275H16.1275H16.1275H16.1275H16.1276H16.1276H16.1276H16.1277H16.1277H16.1277H16.1277H16.1278H16.1278H16.1278H16.1279H16.1279H16.1279H16.1279H16.128H16.128H16.128H16.1281H16.1281H16.1281H16.1281H16.1282H16.1282H16.1282H16.1283H16.1283H16.1283H16.1283H16.1284H16.1284H16.1284H16.1285H16.1285H16.1285H16.1286H16.1286H16.1286H16.1286H16.1287H16.1287H16.1287H16.1288H16.1288H16.1288H16.1288H16.1289H16.1289H16.1289H16.129H16.129H16.129H16.129H16.1291H16.1291H16.1291H16.1292H16.1292H16.1292H16.1292H16.1293H16.1293H16.1293H16.1294H16.1294H16.1294H16.1295H16.1295H16.1295H16.1295H16.1296H16.1296H16.1296H16.1297H16.1297H16.1297H16.1297H16.1298H16.1298H16.1298H16.1299H16.1299H16.1299H16.1299H16.13H16.13H16.13H16.1301H16.1301H16.1301H16.1302H16.1302H16.1302H16.1302H16.1303H16.1303H16.1303H16.1304H16.1304H16.1304H16.1304H16.1305H16.1305H16.1305H16.1306H16.1306H16.1306H16.1307H16.1307H16.1307H16.1307H16.1308H16.1308H16.1308H16.1309H16.1309H16.1309H16.1309H16.131H16.131H16.131H16.1311H16.1311H16.1311H16.1312H16.1312H16.1312H16.1312H16.1313H16.1313H16.1313H16.1314H16.1314H16.1314H16.1314H16.1315H16.1315H16.1315H16.1316H16.1316H16.1316H16.1317H16.1317H16.1317H16.1317H16.1318H16.1318H16.1318H16.1319H16.1319H16.1319H16.1319H16.132H16.132H16.132H16.1321H16.1321H16.1321H16.1322H16.1322H16.1322H16.1322H16.1323H16.1323H16.1323H16.1324H16.1324H16.1324H16.1325H16.1325H16.1325H16.1325H16.1326H16.1326H16.1326H16.1327H16.1327H16.1327H16.1327H16.1328H16.1328H16.1328H16.1329H16.1329H16.1329H16.133H16.133H16.133H16.133H16.1331H16.1331H16.1331H16.1332H16.1332H16.1332H16.1332H16.1333H16.1333H16.1333H16.1334H16.1334H16.1334H16.1335H16.1335H16.1335H16.1335H16.1336H16.1336H16.1336H16.1337H16.1337H16.1337H16.1338H16.1338H16.1338H16.1338H16.1339H16.1339H16.1339H16.134H16.134H16.134H16.134H16.1341H16.1341H16.1341H16.1342H16.1342H16.1342H16.1343H16.1343H16.1343H16.1343H16.1344H16.1344H16.1344H16.1345H16.1345H16.1345H16.1345H16.1346H16.1346H16.1346H16.1347H16.1347H16.1347H16.1347H16.1348H16.1348H16.1348H16.1349H16.1349H16.1349H16.135H16.135H16.135H16.135H16.1351H16.1351H16.1351H16.1352H16.1352H16.1352H16.1352H16.1353H16.1353H16.1353H16.1354H16.1354H16.1354H16.1354H16.1355H16.1355H16.1355H16.1356H16.1356H16.1356H16.1357H16.1357H16.1357H16.1357H16.1358H16.1358H16.1358H16.1359H16.1359H16.1359H16.1359H16.136H16.136H16.136H16.1361H16.1361H16.1361H16.1361H16.1362H16.1362H16.1362H16.1363H16.1363H16.1363H16.1363H16.1364H16.1364H16.1364H16.1365H16.1365H16.1365H16.1365H16.1366H16.1366H16.1366H16.1367H16.1367H16.1367H16.1367H16.1368H16.1368H16.1368H16.1369H16.1369H16.1369H16.1369H16.137H16.137H16.137H16.1371H16.1371H16.1371H16.1371H16.1372H16.1372H16.1372H16.1373H16.1373H16.1373H16.1373H16.1374H16.1374H16.1374H16.1375H16.1375H16.1375H16.1375H16.1376H16.1376H16.1376H16.1377H16.1377H16.1377H16.1377H16.1378H16.1378H16.1378H16.1379H16.1379H16.1379H16.1379H16.138H16.138H16.138H16.138H16.1381H16.1381H16.1381H16.1382H16.1382H16.1382H16.1382H16.1383H16.1383H16.1383H16.1384H16.1384H16.1384H16.1384H16.1385H16.1385H16.1385H16.1385H16.1386H16.1386H16.1386H16.1387H16.1387H16.1387H16.1387H16.1388H16.1388H16.1388H16.1389H16.1389H16.1389H16.1389H16.139H16.139H16.139H16.139H16.1391H16.1391H16.1391H16.1392H16.1392H16.1392H16.1392H16.1393H16.1393H16.1393H16.1393H16.1394H16.1394H16.1394H16.1394H16.1395H16.1395H16.1395H16.1396H16.1396H16.1396H16.1396V19.4334L16.1425 19.4333C16.297 19.4288 16.4432 19.3595 16.5449 19.2433L19.7532 15.5767C19.9564 15.3445 19.933 14.9917 19.7008 14.7885L15.7301 19.2706Z" fill="white" stroke="white" stroke-width="0.2"/>
<path d="M3.29167 20.35H8.79167C9.0999 20.35 9.35 20.0999 9.35 19.7917C9.35 19.4834 9.0999 19.2333 8.79167 19.2333H3.29167C2.58881 19.2333 2.01667 18.6612 2.01667 17.9583V3.29167C2.01667 2.58881 2.58881 2.01667 3.29167 2.01667H13.375C14.0779 2.01667 14.65 2.58881 14.65 3.29167V8.79167C14.65 9.0999 14.9001 9.35 15.2083 9.35C15.5166 9.35 15.7667 9.0999 15.7667 8.79167V3.29167C15.7667 1.97327 14.6934 0.9 13.375 0.9H3.29167C1.97327 0.9 0.9 1.97327 0.9 3.29167V17.9583C0.9 19.2767 1.97327 20.35 3.29167 20.35Z" fill="white" stroke="white" stroke-width="0.2"/>
<path d="M9.15 13.2742C9.15 13.5824 9.4001 13.8325 9.70833 13.8325C10.0164 13.8325 10.2667 13.5835 10.2667 13.2742V6.60004H11.9V10.185C11.9 10.4933 12.1501 10.7434 12.4583 10.7434C12.7666 10.7434 13.0167 10.4933 13.0167 10.185V6.04171C13.0167 5.73348 12.7666 5.48337 12.4583 5.48337H9.70833C9.4001 5.48337 9.15 5.73348 9.15 6.04171V13.2742Z" fill="white" stroke="white" stroke-width="0.2"/>
<path d="M4.20833 14.85H6.95833C7.26655 14.85 7.51666 14.5999 7.51666 14.2917V9.70833C7.51666 9.40011 7.26656 9.15 6.95833 9.15H4.20833C3.9001 9.15 3.65 9.40011 3.65 9.70833V14.2917C3.65 14.5999 3.9001 14.85 4.20833 14.85ZM6.39999 10.2667V13.7333H4.76666V10.2667H6.39999Z" fill="white" stroke="white" stroke-width="0.2"/>
<path d="M3.29171 14.85H9.26837C9.5766 14.85 9.82671 14.5999 9.82671 14.2917C9.82671 13.9835 9.5766 13.7334 9.26837 13.7334H3.29171C2.98348 13.7334 2.73337 13.9835 2.73337 14.2917C2.73337 14.5999 2.98348 14.85 3.29171 14.85Z" fill="white" stroke="white" stroke-width="0.2"/>
</svg>
