<svg width="24" height="24" viewBox="0 0 24 24" fill="none" xmlns="http://www.w3.org/2000/svg">
<path d="M6.76463 7.56278C6.0323 8.73557 5.71986 10.123 5.87968 11.4976C6.03877 12.8659 6.65624 14.1392 7.63033 15.111C6.92178 15.3637 6.25193 15.4114 5.62149 15.4563C5.40563 15.4717 5.19438 15.4868 4.98779 15.5096C4.57433 15.5553 4.18088 15.6326 3.81421 15.8097C3.44674 15.9871 3.1087 16.2634 2.80382 16.7035C1.59699 18.4456 0.950271 20.5143 0.95 22.6335C0.949952 22.7204 0.96702 22.8063 1.00023 22.8866C1.03344 22.9668 1.08213 23.0397 1.14354 23.1011C1.20494 23.1625 1.27784 23.2112 1.35808 23.2444C1.43831 23.2776 1.5243 23.2947 1.61114 23.2947H22.3889C22.4757 23.2947 22.5617 23.2776 22.6419 23.2444C22.7222 23.2112 22.7951 23.1625 22.8565 23.1011C22.9179 23.0397 22.9666 22.9668 22.9998 22.8866C23.033 22.8063 23.05 22.7204 23.05 22.6335C23.0497 20.5143 22.403 18.4456 21.1962 16.7035C20.8913 16.2634 20.5533 15.9871 20.1858 15.8097C19.8191 15.6326 19.4257 15.5553 19.0122 15.5096C18.8056 15.4868 18.5944 15.4717 18.3785 15.4563C17.7481 15.4114 17.0782 15.3637 16.3697 15.111C17.3437 14.1393 17.9612 12.866 18.1203 11.4977C18.2801 10.1232 17.9678 8.73577 17.2355 7.56299L21.412 5.89208C21.5348 5.84307 21.64 5.75836 21.7142 5.64892C21.7883 5.53947 21.828 5.4103 21.828 5.27809C21.828 5.14589 21.7883 5.01672 21.7142 4.90727C21.64 4.79782 21.5348 4.71312 21.412 4.6641L12.2454 0.997482L12.2454 0.99745V0.99745C12.0879 0.934183 11.9121 0.934183 11.7546 0.99745V0.99745L11.7546 0.997482L2.58801 4.6641L6.76463 7.56278ZM6.76463 7.56278L2.58801 5.89208C2.46523 5.84307 2.35997 5.75836 2.28581 5.64892C2.21166 5.53947 2.17202 5.4103 2.17202 5.27809C2.17202 5.14589 2.21166 5.01672 2.28581 4.90727C2.35996 4.79783 2.46521 4.71314 2.58798 4.66412L6.76463 7.56278ZM14.6764 14.8041L14.6764 14.8041L14.6745 14.8054C13.8827 15.3346 12.9517 15.6171 11.9994 15.617C11.047 15.6169 10.1161 15.3342 9.32442 14.8048L9.32444 14.8048L9.32301 14.8039C9.31865 14.8012 9.31455 14.799 9.3118 14.7976L9.30684 14.795C8.64717 14.3533 8.10636 13.756 7.73214 13.0558C7.35756 12.355 7.16144 11.5726 7.16111 10.778C7.16058 9.94204 7.37661 9.12024 7.78814 8.39264C8.19967 7.66504 8.79268 7.05646 9.50936 6.6262C10.226 6.19594 11.042 5.95868 11.8776 5.93754C12.7133 5.9164 13.5402 6.1121 14.2777 6.50557C15.0152 6.89904 15.6382 7.47686 16.086 8.18272C16.5338 8.88858 16.7911 9.6984 16.8329 10.5333C16.8746 11.3682 16.6993 12.1996 16.3242 12.9466C15.9494 13.6929 15.3878 14.3295 14.6941 14.7944L14.6878 14.7978C14.6865 14.7985 14.6851 14.7992 14.6836 14.8C14.6814 14.8012 14.6789 14.8026 14.6764 14.8041ZM7.60629 6.47513L4.61389 5.27799L12 2.32355L19.3861 5.278L16.394 6.47543C15.8272 5.89159 15.1497 5.42647 14.401 5.10735C13.642 4.78382 12.8253 4.61703 12.0002 4.617C11.175 4.61697 10.3584 4.78371 9.59932 5.10718C8.85058 5.42625 8.17306 5.89133 7.60629 6.47513ZM19.6821 16.893C20.8614 18.339 21.567 20.1124 21.7038 21.9724H2.29617C2.43302 20.1124 3.13864 18.339 4.31795 16.893C4.61115 16.5335 4.92879 16.3354 5.26819 16.2309C5.6089 16.1261 5.97418 16.1149 6.36417 16.134C6.53 16.1422 6.70044 16.1559 6.87496 16.1699C7.5103 16.2211 8.19968 16.2766 8.91777 16.0825C9.84806 16.643 10.9137 16.9392 12 16.9392C13.0863 16.9392 14.1519 16.643 15.0822 16.0825C15.8003 16.2766 16.4897 16.2211 17.125 16.1699C17.2996 16.1559 17.47 16.1422 17.6358 16.134C18.0258 16.1149 18.3911 16.1261 18.7318 16.2309C19.0712 16.3354 19.3888 16.5335 19.6821 16.893Z" fill="white" stroke="white" stroke-width="0.1"/>
</svg>
