<svg width="25" height="24" viewBox="0 0 25 24" fill="none" xmlns="http://www.w3.org/2000/svg">
<path d="M18.1607 0.922155L18.1607 0.922103L14.1722 0.568466L14.0329 0.51273L14.0329 0.512809C14.0328 0.51291 14.0328 0.51301 14.0328 0.513111L12.6043 4.08211L11.1758 0.512758C11.0917 0.302588 10.893 0.166895 10.6651 0.166895H7.56167C7.15889 0.166895 6.90088 0.550502 7.04953 0.922155C7.04953 0.922159 7.04953 0.922163 7.04954 0.922168L8.60923 4.82247H4.4582C2.43924 4.82247 0.801172 6.45888 0.801172 8.47801V19.3405C0.801172 21.3597 2.43924 22.9961 4.4582 22.9961H20.4944C22.5135 22.9961 24.15 21.3596 24.15 19.3405V8.47801C24.15 6.45896 22.5135 4.82247 20.4944 4.82247H16.601L18.1607 0.922155ZM23.0451 18.9662V19.1162H23.0466V19.3405C23.0466 20.7439 21.8978 21.8927 20.4944 21.8927H4.4582C3.05483 21.8927 1.90605 20.7439 1.90605 19.3405V8.47651C1.90605 7.07313 3.05483 5.92436 4.4582 5.92436H9.04968L9.85057 7.92594H9.11303C8.80408 7.92594 8.56247 8.16755 8.56247 8.47651C8.56247 8.78492 8.80427 9.02858 9.11303 9.02858H15.3207C15.6289 9.02858 15.8728 8.78472 15.8728 8.47651C15.8728 8.16775 15.6291 7.92594 15.3207 7.92594H14.1427L13.3425 5.92436H20.4944C21.8977 5.92436 23.0451 7.07302 23.0451 8.47651V18.9662ZM10.6071 14.8335L10.6074 14.834L10.7661 15.038L10.5422 15.1656L10.542 15.1657C9.36175 15.8402 8.56247 17.1084 8.56247 18.5656V19.3405C8.56247 19.6489 8.80428 19.8926 9.11303 19.8926H15.8381C16.1463 19.8926 16.3902 19.6487 16.3902 19.3405V18.5656C16.3902 17.1092 15.5917 15.8403 14.4121 15.1657L14.1888 15.0379L14.3455 14.8351L14.3456 14.835C14.6539 14.4356 14.8388 13.9357 14.8388 13.3919C14.8388 12.0856 13.7826 11.0294 12.4763 11.0294C11.17 11.0294 10.1138 12.0856 10.1138 13.3919C10.1138 13.9349 10.298 14.4334 10.6071 14.8335ZM8.49839 1.57758L8.3758 1.26953H10.2922L10.3492 1.41034C10.3492 1.41044 10.3493 1.41054 10.3493 1.41064C10.4942 1.77279 12.6949 7.27813 12.8304 7.61787L12.953 7.92594H11.0381L10.9811 7.78521C10.9811 7.78508 10.981 7.78493 10.981 7.78479C10.9478 7.70178 10.6266 6.89867 10.2251 5.89508C9.5315 4.16101 8.59843 1.82839 8.49839 1.57758ZM14.8618 1.41032L14.9187 1.26953H16.8347L15.4131 4.82247H13.4975L14.8615 1.41087L14.8618 1.41032ZM12.4763 12.1335C13.1672 12.1335 13.7362 12.7008 13.7362 13.3919C13.7362 14.0832 13.1677 14.6517 12.4763 14.6517C11.7852 14.6517 11.218 14.0827 11.218 13.3919C11.218 12.7013 11.7857 12.1335 12.4763 12.1335ZM12.4763 15.7544C14.0227 15.7544 15.2875 17.0192 15.2875 18.5656V18.79H9.6651V18.5656C9.6651 17.0192 10.9299 15.7544 12.4763 15.7544Z" fill="#7E8A90" stroke="#7E8A90" stroke-width="0.3"/>
</svg>
