<svg width="18" height="26" viewBox="0 0 18 26" fill="none" xmlns="http://www.w3.org/2000/svg">
<path d="M17.6733 6.39488L11.829 0.975586H0.512207V22.5996H6.09089V25.4687C6.09089 25.6546 6.19715 25.8406 6.38311 25.9468C6.46281 26 6.5425 26 6.6222 26C6.72846 26 6.83472 25.9734 6.91441 25.8937L9.09276 24.3795L11.2711 25.8937C11.4305 26 11.643 26.0265 11.829 25.9203C12.0149 25.8406 12.1212 25.6546 12.1212 25.4421V22.3074H17.6999V6.39488H17.6733ZM12.1212 2.67576L16.106 6.36832H12.1212V2.67576ZM9.09276 20.1025C7.36602 20.1025 5.9315 18.6946 5.9315 16.9413C5.9315 15.2145 7.33946 13.78 9.09276 13.78C10.8461 13.78 12.254 15.2145 12.254 16.9413C12.254 18.6946 10.8195 20.1025 9.09276 20.1025ZM9.38497 23.2903C9.19902 23.1575 8.95993 23.1575 8.77398 23.2903L7.1535 24.4326V20.6869C7.73793 20.9792 8.40206 21.1651 9.09276 21.1651C9.78345 21.1651 10.4476 20.9792 11.032 20.6869V24.4326L9.38497 23.2903ZM12.0946 21.2714V19.89C12.8384 19.1196 13.3166 18.0836 13.3166 16.9413C13.3166 14.6301 11.4305 12.7174 9.09276 12.7174C6.78159 12.7174 4.8689 14.6035 4.8689 16.9413C4.8689 18.0836 5.3205 19.1462 6.09089 19.89V21.537H1.57481V2.03819H11.032V7.43092H16.5841V21.2714H12.0946Z" fill="#7E8A90"/>
<path d="M8.80041 6.28857H3.80615V7.35118H8.80041V6.28857Z" fill="#7E8A90"/>
<path d="M14.3791 9.74203H3.80615V10.8046H14.3791V9.74203Z" fill="#7E8A90"/>
</svg>
