<svg width="10" height="6" viewBox="0 0 10 6" fill="none" xmlns="http://www.w3.org/2000/svg">
<path d="M4.99216 5.55608C4.82555 5.55644 4.6641 5.49186 4.53581 5.37355L0.257587 1.40564C0.111972 1.27093 0.0204009 1.07737 0.00301722 0.867526C-0.0143664 0.657682 0.0438616 0.448746 0.164892 0.286683C0.285922 0.12462 0.45984 0.0227054 0.648386 0.00335806C0.836931 -0.0159893 1.02466 0.0488158 1.17027 0.183518L4.99216 3.73877L8.81404 0.310491C8.88697 0.244572 8.9709 0.195344 9.06098 0.165639C9.15107 0.135934 9.24554 0.126337 9.33896 0.137398C9.43239 0.14846 9.52294 0.179963 9.60539 0.230097C9.68784 0.28023 9.76058 0.348006 9.81942 0.429529C9.88472 0.511126 9.93418 0.606853 9.96469 0.710712C9.9952 0.814571 10.0061 0.924324 9.99674 1.0331C9.98737 1.14187 9.95792 1.24731 9.91023 1.34282C9.86254 1.43834 9.79764 1.52186 9.7196 1.58816L5.44137 5.42117C5.3094 5.52077 5.15124 5.56827 4.99216 5.55608Z" fill="#334D6E"/>
</svg>
