<svg width="224" height="201" viewBox="0 0 224 201" fill="none" xmlns="http://www.w3.org/2000/svg">
<g opacity="0.5">
<path fill-rule="evenodd" clip-rule="evenodd" d="M83.9484 200.422C83.0807 200.422 82.2327 200.337 81.4124 200.175C85.1705 199.297 88.8997 198.274 92.5927 197.147C90.288 199.184 87.2604 200.422 83.9484 200.422Z" fill="#E7E5ED"/>
<path fill-rule="evenodd" clip-rule="evenodd" d="M192.186 167.163H191.461V165.934H192.186C192.526 165.934 192.801 166.209 192.801 166.549C192.801 166.888 192.526 167.163 192.186 167.163Z" fill="#FCFBFC"/>
<path fill-rule="evenodd" clip-rule="evenodd" d="M60.4331 80.6183H51.331C50.9913 80.6183 50.7156 80.3429 50.7156 80.0036C50.7156 79.6643 50.9913 79.3889 51.331 79.3889H60.4331C60.7728 79.3889 61.0485 79.6643 61.0485 80.0036C61.0485 80.3429 60.7728 80.6183 60.4331 80.6183Z" fill="#FCFBFC"/>
<path fill-rule="evenodd" clip-rule="evenodd" d="M9.7168 71.3378V62.5651C9.7168 61.6461 10.4651 60.8987 11.3851 60.8987H18.6005C18.3537 61.3154 18.0965 61.7248 17.8306 62.128H11.3851C11.1439 62.128 10.9476 62.3241 10.9476 62.5651V70.1447C10.5402 70.5448 10.1291 70.9425 9.7168 71.3378Z" fill="#FFFFFE"/>
<path fill-rule="evenodd" clip-rule="evenodd" d="M9.7168 79.347V71.3378C10.1291 70.9425 10.5402 70.5448 10.9476 70.1447V78.1349C10.5328 78.5357 10.1217 78.9395 9.7168 79.347ZM24.2614 62.128H17.8306C18.0965 61.7248 18.3537 61.3154 18.6005 60.8987H24.755C24.5986 61.3111 24.4343 61.7205 24.2614 62.128Z" fill="#FDFCFD"/>
<path fill-rule="evenodd" clip-rule="evenodd" d="M43.0294 110.729H11.3851C10.4651 110.729 9.7168 109.981 9.7168 109.062V79.347C10.1217 78.9395 10.5328 78.5357 10.9476 78.1349V109.062C10.9476 109.303 11.1439 109.5 11.3851 109.5H42.6226L43.0294 110.729ZM67.4466 86.9783V82.8267C67.8516 82.9872 68.262 83.1371 68.6774 83.2767V86.572L67.4466 86.9783ZM52.494 62.128H24.2614C24.4343 61.7205 24.5986 61.3111 24.755 60.8987H52.4553C52.4577 61.3111 52.4706 61.7205 52.494 62.128Z" fill="#FCFBFC"/>
<path fill-rule="evenodd" clip-rule="evenodd" d="M16.4651 72.8906C16.4516 72.8402 16.4448 72.7873 16.4448 72.7326C16.4448 72.3933 16.7205 72.1179 17.0602 72.1179H17.2368C16.9821 72.3773 16.7248 72.6349 16.4651 72.8906Z" fill="#FDFCFD"/>
<path fill-rule="evenodd" clip-rule="evenodd" d="M56.0715 73.3473H17.0604C16.7749 73.3473 16.5355 73.1537 16.4653 72.8906C16.725 72.6349 16.9823 72.3773 17.237 72.1179H55.3509C55.5792 72.5353 55.8192 72.9453 56.0715 73.3473Z" fill="#FCFBFC"/>
<path fill-rule="evenodd" clip-rule="evenodd" d="M60.4331 87.8888H17.0602C16.7205 87.8888 16.4448 87.6134 16.4448 87.2741C16.4448 86.9348 16.7205 86.6594 17.0602 86.6594H60.4331C60.7728 86.6594 61.0485 86.9348 61.0485 87.2741C61.0485 87.6134 60.7728 87.8888 60.4331 87.8888Z" fill="#FCFBFC"/>
<path fill-rule="evenodd" clip-rule="evenodd" d="M40.4442 80.6183H17.0602C16.7205 80.6183 16.4448 80.3429 16.4448 80.0036C16.4448 79.6643 16.7205 79.3889 17.0602 79.3889H40.4442C40.7839 79.3889 41.0596 79.6643 41.0596 80.0036C41.0596 80.3429 40.7839 80.6183 40.4442 80.6183Z" fill="#FCFBFC"/>
<path fill-rule="evenodd" clip-rule="evenodd" d="M40.4442 95.6H17.0602C16.7205 95.6 16.4448 95.3252 16.4448 94.9853C16.4448 94.646 16.7205 94.3706 17.0602 94.3706H40.4442C40.7839 94.3706 41.0596 94.646 41.0596 94.9853C41.0596 95.3252 40.7839 95.6 40.4442 95.6Z" fill="#FCFBFC"/>
<path fill-rule="evenodd" clip-rule="evenodd" d="M32.8301 102.54H17.0602C16.7205 102.54 16.4448 102.265 16.4448 101.925C16.4448 101.586 16.7205 101.311 17.0602 101.311H32.8301C33.1704 101.311 33.4454 101.586 33.4454 101.925C33.4454 102.265 33.1704 102.54 32.8301 102.54Z" fill="#FCFBFC"/>
<path fill-rule="evenodd" clip-rule="evenodd" d="M220.676 60.0015H193.016C191.78 60.0015 190.678 60.9038 190.272 62.25L189.356 65.2865C188.95 66.6326 187.849 67.535 186.612 67.535H147.015C145.41 67.535 144.109 69.0342 144.109 70.8831V115.664C144.109 117.514 145.41 119.013 147.015 119.013H220.676C222.389 119.013 223.778 117.514 223.778 115.664V63.3502C223.778 61.5007 222.389 60.0015 220.676 60.0015Z" fill="#374084"/>
<path fill-rule="evenodd" clip-rule="evenodd" d="M192.417 68.0077L193.396 64.9712C193.829 63.6244 195.005 62.7227 196.325 62.7227H220.676C222.389 62.7227 223.778 64.2212 223.778 66.0708V118.386C223.778 120.234 222.389 121.734 220.676 121.734H147.211C145.498 121.734 144.109 120.234 144.109 118.386V73.6043C144.109 71.7548 145.498 70.2555 147.211 70.2555H189.489C190.808 70.2555 191.984 69.3538 192.417 68.0077Z" fill="#65639D"/>
<path fill-rule="evenodd" clip-rule="evenodd" d="M220.854 121.734H191.461H220.676C222.389 121.734 223.778 120.234 223.778 118.385V85.9673V118.578C223.778 120.321 222.469 121.734 220.854 121.734Z" fill="#E8E7EE"/>
<path fill-rule="evenodd" clip-rule="evenodd" d="M220.676 121.734H191.462V107.748C191.462 105.652 189.81 103.942 187.737 103.844C187.639 101.773 185.926 100.123 183.828 100.123H148.686V84.5006H155.315C163.872 84.5006 171.373 79.9864 175.561 73.2126H191.458C192.702 73.2126 193.81 72.3619 194.219 71.0932L195.141 68.2306C195.55 66.9619 196.658 66.1118 197.902 66.1118H220.854C222.469 66.1118 223.778 67.525 223.778 69.2676V118.385C223.778 120.234 222.39 121.734 220.676 121.734Z" fill="#7774A8"/>
<path fill-rule="evenodd" clip-rule="evenodd" d="M215.385 117.959H197.213C196.873 117.959 196.598 117.684 196.598 117.344C196.598 117.005 196.873 116.73 197.213 116.73H215.385C216.558 116.73 217.512 115.777 217.512 114.605V100.206C217.512 99.8664 217.787 99.5911 218.127 99.5911C218.467 99.5911 218.742 99.8664 218.742 100.206V114.605C218.742 116.454 217.236 117.959 215.385 117.959Z" fill="#FFFFFE"/>
<path fill-rule="evenodd" clip-rule="evenodd" d="M3.71315 110.931H31.5519C32.7962 110.931 33.9045 111.946 34.3132 113.461L35.2356 116.876C35.6448 118.39 36.7525 119.405 37.9975 119.405H77.8504C79.4652 119.405 80.7741 121.092 80.7741 123.172V173.546C80.7741 175.626 79.4652 177.313 77.8504 177.313H3.71315C1.98885 177.313 0.591309 175.626 0.591309 173.546V114.698C0.591309 112.618 1.98885 110.931 3.71315 110.931Z" fill="#E57B89"/>
<path fill-rule="evenodd" clip-rule="evenodd" d="M0.591309 173.598V117.759C0.591309 115.678 1.98885 113.992 3.71315 113.992H28.2208C29.5495 113.992 30.7328 115.007 31.1698 116.521L32.1544 119.937C32.5907 121.451 33.7741 122.466 35.1027 122.466H46.9119L48.0122 125.792H33.1205C31.8682 125.792 30.7525 124.835 30.3415 123.408L29.4135 120.189C29.0018 118.762 27.8867 117.805 26.6338 117.805H3.53346C1.90885 117.805 0.591309 119.394 0.591309 121.355V173.598Z" fill="#E98A96"/>
<path fill-rule="evenodd" clip-rule="evenodd" d="M5.08362 180.374H3.53346C1.90885 180.374 0.591309 178.784 0.591309 176.823V176.606C0.591309 178.687 1.98885 180.374 3.71315 180.374H5.08362Z" fill="#F7F6F8"/>
<path fill-rule="evenodd" clip-rule="evenodd" d="M5.08362 180.374H3.71315C1.98885 180.374 0.591309 178.687 0.591309 176.607V173.598C0.610386 175.321 1.58946 176.766 2.91254 177.188C3.59192 178.279 4.31685 179.341 5.08362 180.374Z" fill="#F9F7F9"/>
<path fill-rule="evenodd" clip-rule="evenodd" d="M39.0375 180.374H5.08367C4.31691 179.341 3.59198 178.279 2.9126 177.188C3.16798 177.27 3.43629 177.313 3.71321 177.313H35.9249C36.9477 178.349 37.9834 179.367 39.0375 180.374Z" fill="#F4F2F5"/>
<path fill-rule="evenodd" clip-rule="evenodd" d="M66.0666 180.374H39.0377C37.9835 179.367 36.9478 178.348 35.925 177.313H65.0543L66.0666 180.374Z" fill="#EAEAF0"/>
<path fill-rule="evenodd" clip-rule="evenodd" d="M65.0541 177.313H3.71315C3.43623 177.313 3.16792 177.27 2.91254 177.188C1.58946 176.766 0.610386 175.321 0.591309 173.598V121.355C0.591309 119.394 1.90885 117.805 3.53346 117.805H26.6338C27.8867 117.805 29.0018 118.762 29.4135 120.189L30.3415 123.408C30.7525 124.835 31.8682 125.792 33.1205 125.792H48.0122L65.0541 177.313Z" fill="#EB97A0"/>
<path fill-rule="evenodd" clip-rule="evenodd" d="M6.27929 132.555C5.97529 132.555 5.72852 132.28 5.72852 131.94V123.408C5.72852 122.252 6.57036 121.312 7.60605 121.312H19.0793C19.3833 121.312 19.6301 121.587 19.6301 121.927C19.6301 122.267 19.3833 122.542 19.0793 122.542H7.60605C7.17775 122.542 6.83005 122.93 6.83005 123.408V131.94C6.83005 132.28 6.58329 132.555 6.27929 132.555Z" fill="#FFFFFE"/>
<path fill-rule="evenodd" clip-rule="evenodd" d="M155.315 84.5006H76.2339C63.101 84.5006 52.4548 73.8666 52.4548 60.7494C52.4548 47.6315 63.101 36.9976 76.2339 36.9976H155.315C168.448 36.9976 179.094 47.6315 179.094 60.7494C179.094 73.8666 168.448 84.5006 155.315 84.5006Z" fill="#C5D4E3"/>
<path fill-rule="evenodd" clip-rule="evenodd" d="M149.216 40.6304C149.216 59.0782 134.244 74.0333 115.774 74.0333C97.3051 74.0333 82.3328 59.0782 82.3328 40.6304C82.3328 22.1821 97.3051 7.22632 115.774 7.22632C134.244 7.22632 149.216 22.1821 149.216 40.6304Z" fill="#648BBB"/>
<path fill-rule="evenodd" clip-rule="evenodd" d="M155.315 77.503H76.2339C63.101 77.503 52.4548 66.8691 52.4548 53.7518V53.7512C52.4548 40.6339 63.101 30 76.2339 30H155.315C168.448 30 179.094 40.6339 179.094 53.7512V53.7518C179.094 66.8691 168.448 77.503 155.315 77.503Z" fill="#648BBB"/>
<path fill-rule="evenodd" clip-rule="evenodd" d="M149.216 33.6323C149.216 52.0806 134.244 67.0357 115.774 67.0357C97.3051 67.0357 82.3328 52.0806 82.3328 33.6323C82.3328 15.1839 97.3051 0.22876 115.774 0.22876C134.244 0.22876 149.216 15.1839 149.216 33.6323Z" fill="#648BBB"/>
<path fill-rule="evenodd" clip-rule="evenodd" d="M155.315 77.503H138.47L137.064 73.2537C136.521 71.6113 134.992 70.5707 133.35 70.5707C132.943 70.5707 132.53 70.6346 132.123 70.7692L131.203 71.0728L130.898 70.1539C130.355 68.5115 128.826 67.4708 127.184 67.4708C126.777 67.4708 126.363 67.5348 125.956 67.6694L96.1588 77.503H76.2339C63.101 77.503 52.4548 66.8691 52.4548 53.7518V53.7512C52.4548 40.6339 63.101 30 76.2339 30H82.5281C82.3988 31.1931 82.333 32.4052 82.333 33.6321C82.333 52.0805 97.3053 67.0356 115.774 67.0356C134.244 67.0356 149.216 52.0805 149.216 33.6321C149.216 32.4052 149.15 31.1931 149.021 30H155.315C168.448 30 179.094 40.6339 179.094 53.7512V53.7518C179.094 66.8691 168.448 77.503 155.315 77.503Z" fill="#87C1FE"/>
<path fill-rule="evenodd" clip-rule="evenodd" d="M115.774 67.0357C97.3051 67.0357 82.3328 52.0806 82.3328 33.6323C82.3328 15.1839 97.3051 0.22876 115.774 0.22876C134.244 0.22876 149.216 15.1839 149.216 33.6323C149.216 52.0806 134.244 67.0357 115.774 67.0357Z" fill="#87C1FE"/>
<path fill-rule="evenodd" clip-rule="evenodd" d="M107.954 38.6045C107.555 38.6045 107.158 38.4508 106.857 38.1447C106.261 37.5399 106.269 36.5668 106.875 35.9718L115.85 27.1592L124.682 35.9811C125.284 36.581 125.284 37.554 124.682 38.1539C124.081 38.7545 123.108 38.7545 122.507 38.1539L115.832 31.4871L109.032 38.1632C108.733 38.4576 108.343 38.6045 107.954 38.6045Z" fill="#FFFFFE"/>
<path fill-rule="evenodd" clip-rule="evenodd" d="M115.774 50.8266C114.925 50.8266 114.236 50.1382 114.236 49.2899V29.3233C114.236 28.4744 114.925 27.7866 115.774 27.7866C116.624 27.7866 117.313 28.4744 117.313 29.3233V49.2899C117.313 50.1382 116.624 50.8266 115.774 50.8266Z" fill="#FFFFFE"/>
<path fill-rule="evenodd" clip-rule="evenodd" d="M130.316 60.3076H101.003C98.9014 60.3076 97.1919 58.6 97.1919 56.5009V45.8638C97.1919 45.015 97.8805 44.3271 98.7304 44.3271C99.5802 44.3271 100.269 45.015 100.269 45.8638V56.5009C100.269 56.9053 100.598 57.2342 101.003 57.2342H130.316C130.848 57.2342 131.281 56.8027 131.281 56.2716V45.8638C131.281 45.015 131.969 44.3271 132.819 44.3271C133.669 44.3271 134.357 45.015 134.357 45.8638V56.2716C134.357 58.4974 132.545 60.3076 130.316 60.3076Z" fill="#FFFFFE"/>
<path fill-rule="evenodd" clip-rule="evenodd" d="M77.1741 189.87C75.5322 189.87 74.0036 188.83 73.4603 187.187L73.1562 186.268L90.747 180.463L92.4608 185.032L78.4024 189.672C77.995 189.806 77.5809 189.87 77.1741 189.87Z" fill="#AAB0CE"/>
<path fill-rule="evenodd" clip-rule="evenodd" d="M144.109 100.123H140.812L135.644 84.5007H140.784L144.109 94.5526V100.123Z" fill="#AAB0CE"/>
<path fill-rule="evenodd" clip-rule="evenodd" d="M145.952 100.123H144.109V94.5525L145.952 100.123Z" fill="#5E609C"/>
<path fill-rule="evenodd" clip-rule="evenodd" d="M140.784 84.5007H135.643L133.329 77.5032H138.469L140.784 84.5007Z" fill="#97A6C9"/>
<path fill-rule="evenodd" clip-rule="evenodd" d="M138.469 77.5031H133.329L131.202 71.073L132.122 70.7693C132.53 70.6347 132.943 70.5708 133.35 70.5708C134.992 70.5708 136.52 71.6115 137.064 73.2539L138.469 77.5031Z" fill="#7490BD"/>
<path fill-rule="evenodd" clip-rule="evenodd" d="M156.129 158.886L72.2362 186.572C70.1845 187.248 67.9722 186.136 67.2947 184.087L39.5771 100.292C38.899 98.2423 40.0128 96.0325 42.0639 95.3552L125.956 67.6694C128.007 66.992 130.22 68.1046 130.898 70.1539L158.616 153.95C159.293 155.999 158.18 158.209 156.129 158.886Z" fill="#FFFFFE"/>
<path fill-rule="evenodd" clip-rule="evenodd" d="M149.444 152.476L73.6769 177.48L48.6443 101.8L124.411 76.7957L149.444 152.476Z" fill="#C5D4E3"/>
<path fill-rule="evenodd" clip-rule="evenodd" d="M73.0334 178.121L67.3657 160.987L67.842 159.84L73.6771 177.48L87.8709 172.796L88.0143 173.177L73.0334 178.121Z" fill="#FFFFFE"/>
<path fill-rule="evenodd" clip-rule="evenodd" d="M73.6766 177.48L67.8416 159.84L75.6551 141.028C76.572 138.821 78.6852 137.474 80.9572 137.474C81.5289 137.474 82.1105 137.56 82.6852 137.738L98.0305 142.499C98.2336 142.562 98.4403 142.592 98.644 142.592C99.3499 142.592 100.022 142.226 100.402 141.596L113.178 120.357C113.542 119.751 113.96 119.193 114.423 118.687V121.866L101.984 142.545C101.264 143.743 99.9874 144.437 98.6471 144.437C98.26 144.437 97.8686 144.379 97.4828 144.26L82.1382 139.499C81.7468 139.377 81.3517 139.319 80.9628 139.319C79.4194 139.319 77.9837 140.235 77.3603 141.735L69.3339 161.06L74.2065 175.792L87.3659 171.449L87.8705 172.795L73.6766 177.48Z" fill="#E0EAF1"/>
<path fill-rule="evenodd" clip-rule="evenodd" d="M98.329 119.107C94.2072 119.107 90.3598 116.492 88.998 112.374C87.2989 107.239 90.1001 101.68 95.241 99.9837C96.2595 99.6481 97.2952 99.4883 98.313 99.4883C102.435 99.4883 106.284 102.102 107.646 106.22C109.345 111.356 106.544 116.914 101.403 118.61C100.384 118.947 99.3481 119.107 98.329 119.107ZM98.3161 101.332C97.4884 101.332 96.6478 101.461 95.8207 101.735C91.6453 103.112 89.3715 107.626 90.7506 111.796C91.8564 115.14 94.982 117.262 98.3284 117.263C99.1555 117.263 99.9961 117.133 100.824 116.86C104.999 115.482 107.272 110.969 105.893 106.799C104.787 103.455 101.663 101.332 98.3161 101.332Z" fill="#E0EAF1"/>
<path fill-rule="evenodd" clip-rule="evenodd" d="M187.55 177.073H170.831C170.711 176.88 170.61 176.674 170.53 176.455C170.304 175.84 170.054 175.236 169.78 174.646C169.588 174.232 169.482 173.794 169.462 173.356H171.869C172.121 173.957 172.716 174.381 173.409 174.381H191.268C190.756 175.945 189.285 177.073 187.55 177.073Z" fill="#AAB0CE"/>
<path fill-rule="evenodd" clip-rule="evenodd" d="M164.369 177.073H142.619L141.225 173.356H162.04C162.96 174.49 163.744 175.737 164.369 177.073Z" fill="#AAB0CE"/>
<path fill-rule="evenodd" clip-rule="evenodd" d="M170.831 177.073H164.369C163.744 175.737 162.959 174.49 162.04 173.356H169.462C169.482 173.794 169.588 174.232 169.78 174.646C170.054 175.236 170.304 175.84 170.53 176.455C170.61 176.674 170.711 176.88 170.831 177.073Z" fill="#B3BAD3"/>
<path fill-rule="evenodd" clip-rule="evenodd" d="M191.462 173.152H185.079C186.626 172.631 187.741 171.17 187.741 169.449V167.163H191.462V173.152ZM187.741 165.934H191.462V161.046H187.741V165.934ZM187.741 159.816H191.462V154.249H187.741V159.816ZM187.741 153.019H191.462V147.841H187.741V153.019ZM187.741 146.611H191.462V141.432H187.741V146.611ZM187.741 140.203H191.462V131.543H187.741V140.203ZM187.741 130.314H191.462V121.734H187.741V130.314Z" fill="#AAB0CE"/>
<path fill-rule="evenodd" clip-rule="evenodd" d="M191.268 174.382H173.409C172.716 174.382 172.121 173.957 171.869 173.356H183.828C184.266 173.356 184.687 173.284 185.079 173.152H191.462V173.165C191.462 173.59 191.394 173.999 191.268 174.382ZM187.741 131.543H191.462V130.314H187.741V131.543Z" fill="#B8BED6"/>
<path fill-rule="evenodd" clip-rule="evenodd" d="M187.741 141.432H191.462V140.203H187.741V141.432Z" fill="#B8BED6"/>
<path fill-rule="evenodd" clip-rule="evenodd" d="M187.741 154.249H191.462V153.02H187.741V154.249Z" fill="#B8BED6"/>
<path fill-rule="evenodd" clip-rule="evenodd" d="M187.741 147.841H191.462V146.611H187.741V147.841Z" fill="#B8BED6"/>
<path fill-rule="evenodd" clip-rule="evenodd" d="M187.741 161.046H191.462V159.816H187.741V161.046Z" fill="#B8BED6"/>
<path fill-rule="evenodd" clip-rule="evenodd" d="M187.741 167.163H191.462V165.934H187.741V167.163Z" fill="#B8BED6"/>
<path fill-rule="evenodd" clip-rule="evenodd" d="M191.462 121.734H187.741V104.031C187.741 103.968 187.739 103.906 187.737 103.844C189.81 103.942 191.462 105.652 191.462 107.748V121.734Z" fill="#696BA2"/>
<path fill-rule="evenodd" clip-rule="evenodd" d="M183.828 173.356H118.336C116.175 173.356 114.423 171.607 114.423 169.449V104.031C114.423 101.873 116.175 100.123 118.336 100.123H183.828C185.989 100.123 187.741 101.873 187.741 104.031V169.449C187.741 171.607 185.989 173.356 183.828 173.356Z" fill="#FFFFFE"/>
<path fill-rule="evenodd" clip-rule="evenodd" d="M180.616 165.805H138.392L130.305 144.247L132.015 142.269C132.562 141.638 133.329 141.309 134.106 141.309C134.664 141.309 135.227 141.479 135.716 141.827L145.683 148.939C146.242 149.338 146.891 149.535 147.539 149.535C148.283 149.535 149.024 149.274 149.622 148.76L163.955 136.439C165.157 135.406 166.656 134.89 168.154 134.89C169.684 134.89 171.214 135.428 172.426 136.502L180.616 143.755V165.805ZM147.539 147.69C147.266 147.69 146.992 147.606 146.756 147.438L136.789 140.326C135.973 139.745 135.035 139.462 134.104 139.462C132.81 139.462 131.53 140.01 130.618 141.064L129.567 142.279L129.213 141.336C128.624 139.767 127.133 138.799 125.549 138.799C125.52 138.799 125.491 138.799 125.463 138.8C124.72 137.91 123.613 137.393 122.455 137.393C121.999 137.393 121.535 137.473 121.083 137.642L120.625 137.814V106.36H181.455V142.033L173.651 135.123C172.091 133.74 170.123 133.048 168.154 133.048C166.226 133.048 164.298 133.712 162.751 135.042L148.418 147.363C148.165 147.58 147.853 147.69 147.539 147.69ZM154.789 115.957C150.54 115.957 147.083 119.41 147.083 123.654C147.083 127.898 150.54 131.35 154.789 131.35C159.037 131.35 162.494 127.898 162.494 123.654C162.494 119.41 159.037 115.957 154.789 115.957ZM154.789 129.506C151.558 129.506 148.93 126.881 148.93 123.654C148.93 120.427 151.558 117.801 154.789 117.801C158.019 117.801 160.648 120.427 160.648 123.654C160.648 126.881 158.019 129.506 154.789 129.506Z" fill="#F9DBDB"/>
<path fill-rule="evenodd" clip-rule="evenodd" d="M182.462 167.649H139.084L138.885 167.119H181.455V142.033L182.462 142.925V167.649Z" fill="#FFFFFE"/>
<path fill-rule="evenodd" clip-rule="evenodd" d="M181.455 167.12H138.885L138.392 165.805H180.616V143.755L172.426 136.502C171.214 135.428 169.684 134.89 168.154 134.89C166.656 134.89 165.157 135.406 163.955 136.439L149.622 148.76C149.024 149.274 148.283 149.535 147.539 149.535C146.891 149.535 146.242 149.337 145.683 148.939L135.716 141.827C135.227 141.479 134.664 141.309 134.106 141.309C133.329 141.309 132.562 141.637 132.015 142.269L130.305 144.247L129.567 142.279L130.618 141.064C131.53 140.01 132.81 139.462 134.104 139.462C135.035 139.462 135.973 139.745 136.789 140.326L146.756 147.438C146.992 147.606 147.266 147.69 147.539 147.69C147.853 147.69 148.165 147.579 148.418 147.363L162.751 135.042C164.298 133.712 166.226 133.048 168.154 133.048C170.123 133.048 172.091 133.74 173.651 135.122L181.455 142.033V167.12Z" fill="#FDEEED"/>
<path fill-rule="evenodd" clip-rule="evenodd" d="M154.789 131.35C150.54 131.35 147.084 127.898 147.084 123.654C147.084 119.41 150.54 115.958 154.789 115.958C159.038 115.958 162.494 119.41 162.494 123.654C162.494 127.898 159.038 131.35 154.789 131.35ZM154.789 117.802C151.558 117.802 148.93 120.427 148.93 123.654C148.93 126.881 151.558 129.506 154.789 129.506C158.02 129.506 160.648 126.881 160.648 123.654C160.648 120.427 158.02 117.802 154.789 117.802Z" fill="#FDEEED"/>
<path fill-rule="evenodd" clip-rule="evenodd" d="M102.399 197.453C101.991 197.453 101.59 197.389 101.209 197.267C100.878 196.833 100.748 196.274 100.846 195.735L114.974 190.447C115.387 190.628 115.844 190.728 116.324 190.728H121.074L103.772 197.204C103.319 197.373 102.855 197.453 102.399 197.453Z" fill="#ABB2CF"/>
<path fill-rule="evenodd" clip-rule="evenodd" d="M99.5891 196.265C99.5214 196.195 99.4556 196.122 99.3928 196.046C99.4562 196.045 99.5202 196.042 99.5848 196.037C99.5836 196.113 99.5848 196.19 99.5891 196.265Z" fill="#ABB2CF"/>
<path fill-rule="evenodd" clip-rule="evenodd" d="M130.146 187.333C130.114 187.108 130.085 186.881 130.06 186.654C130.751 186.615 131.443 186.593 132.142 186.586L130.146 187.333Z" fill="#ABB2CF"/>
<path fill-rule="evenodd" clip-rule="evenodd" d="M130.06 186.654C129.996 186.057 129.961 185.453 129.956 184.84L137.7 181.942C139.67 181.204 140.695 179.051 140.048 177.073H142.619L143.086 178.317C143.844 180.338 142.819 182.591 140.795 183.348L132.142 186.586C131.444 186.593 130.751 186.616 130.06 186.654Z" fill="#AAB0CE"/>
<path fill-rule="evenodd" clip-rule="evenodd" d="M121.074 190.728H116.324C115.844 190.728 115.387 190.628 114.973 190.447L122.38 187.676C124.9 187.161 127.455 186.798 130.06 186.654C130.085 186.881 130.114 187.108 130.146 187.333L121.074 190.728Z" fill="#B3BAD3"/>
<path fill-rule="evenodd" clip-rule="evenodd" d="M122.379 187.676L129.955 184.84C129.96 185.452 129.995 186.057 130.06 186.653C127.454 186.798 124.9 187.16 122.379 187.676Z" fill="#B3BAD3"/>
<path fill-rule="evenodd" clip-rule="evenodd" d="M101.208 197.267C100.599 197.072 100.04 196.73 99.5887 196.265C99.5844 196.19 99.5832 196.113 99.5844 196.037C99.9494 196.011 100.317 195.933 100.677 195.798L100.845 195.735C100.748 196.274 100.877 196.833 101.208 197.267Z" fill="#B5BBD4"/>
<path fill-rule="evenodd" clip-rule="evenodd" d="M142.619 177.073H140.048C140.03 177.019 140.012 176.965 139.991 176.911L138.658 173.356H141.224L142.619 177.073Z" fill="#8591BB"/>
<path fill-rule="evenodd" clip-rule="evenodd" d="M141.225 173.356H138.658L136.517 167.649H139.084L141.225 173.356Z" fill="#B9C1D7"/>
<path fill-rule="evenodd" clip-rule="evenodd" d="M138.392 165.805H135.825L128.515 146.318L130.305 144.247L138.392 165.805ZM127.777 144.35L126.12 139.93C125.961 139.508 125.737 139.128 125.463 138.799C125.492 138.799 125.521 138.799 125.55 138.799C127.134 138.799 128.625 139.767 129.214 141.336L129.568 142.279L127.777 144.35Z" fill="#B6ABC6"/>
<path fill-rule="evenodd" clip-rule="evenodd" d="M139.083 167.649H136.517L136.318 167.12H138.885L139.083 167.649Z" fill="#B9C1D7"/>
<path fill-rule="evenodd" clip-rule="evenodd" d="M138.886 167.12H136.318L135.825 165.805H138.392L138.886 167.12ZM128.515 146.318L127.777 144.35L129.567 142.279L130.305 144.247L128.515 146.318Z" fill="#B8B7CF"/>
<path fill-rule="evenodd" clip-rule="evenodd" d="M137.7 181.942L100.677 195.798C98.6543 196.555 96.3995 195.531 95.6414 193.51L81.7694 156.529C81.0112 154.508 82.0365 152.256 84.0598 151.498L121.083 137.642C123.107 136.885 125.361 137.909 126.12 139.931L139.992 176.911C140.75 178.932 139.724 181.184 137.7 181.942Z" fill="#FFFFFE"/>
<path fill-rule="evenodd" clip-rule="evenodd" d="M136.146 178.221L99.3501 191.992L85.563 155.238L122.359 141.467L136.146 178.221Z" fill="#648BBB"/>
<path fill-rule="evenodd" clip-rule="evenodd" d="M98.7716 192.923L95.4246 184L95.8849 182.755L99.3501 191.992L136.146 178.221L130.3 162.637L131.52 163.105L137.296 178.504L98.7716 192.923Z" fill="#FFFFFE"/>
<path fill-rule="evenodd" clip-rule="evenodd" d="M99.35 191.992L95.8848 182.755L99.1765 173.855C99.6682 172.526 100.913 171.696 102.266 171.696C102.552 171.696 102.843 171.733 103.133 171.81L110.776 173.855C110.823 173.868 110.87 173.874 110.917 173.874C111.111 173.874 111.295 173.77 111.392 173.593L117.266 162.894C118.285 161.037 120.236 159.953 122.262 159.953C122.938 159.953 123.622 160.074 124.283 160.327L130.3 162.637L136.146 178.221L99.35 191.992ZM102.269 173.54C101.673 173.54 101.125 173.909 100.908 174.494L97.3943 183.996L99.8521 190.549L134.92 177.425L130.082 164.529L123.62 162.049C123.174 161.878 122.711 161.796 122.255 161.796C120.888 161.796 119.573 162.528 118.885 163.781L113.011 174.479C112.584 175.259 111.776 175.72 110.92 175.72C110.714 175.72 110.505 175.693 110.298 175.637L102.655 173.592C102.526 173.557 102.396 173.54 102.269 173.54Z" fill="#A7C1DB"/>
<path fill-rule="evenodd" clip-rule="evenodd" d="M110.159 163.263C108.01 163.263 105.983 161.949 105.186 159.824C104.16 157.088 105.554 154.029 108.292 153.004C108.903 152.775 109.53 152.666 110.147 152.666C112.296 152.666 114.322 153.981 115.12 156.106C116.146 158.842 114.753 161.901 112.015 162.926C111.403 163.155 110.776 163.263 110.159 163.263ZM110.149 154.511C109.747 154.511 109.338 154.581 108.939 154.73C107.154 155.399 106.246 157.394 106.915 159.177C107.435 160.563 108.756 161.419 110.157 161.419C110.56 161.419 110.968 161.349 111.367 161.2C113.152 160.531 114.061 158.537 113.391 156.753C112.872 155.368 111.55 154.511 110.149 154.511Z" fill="#A7C1DB"/>
</g>
</svg>
