<svg width="20" height="20" viewBox="0 0 20 20" fill="none" xmlns="http://www.w3.org/2000/svg">
<circle cx="10" cy="10" r="10" fill="#ECE9E9"/>
<path d="M5.50057 9C4.67125 9 4 9.67087 4 10.4998C4 11.3288 4.67049 12 5.50057 12C6.32838 12 7.00038 11.3299 7.00038 10.4998C7.00038 9.67087 6.32838 9 5.50057 9ZM10.1388 9C9.31136 9 8.63822 9.67049 8.63822 10.4994C8.63822 11.3284 9.3106 11.9996 10.1388 11.9996C10.967 11.9996 11.6401 11.3295 11.6401 10.4994C11.6394 9.67087 10.967 9 10.1388 9ZM14.6227 9C13.7938 9 13.1218 9.67087 13.1218 10.5002C13.1218 11.3284 13.7926 11.9996 14.6227 11.9996C15.4501 11.9996 16.1221 11.3295 16.1221 10.5002C16.1221 9.67087 15.4501 9 14.6227 9Z" fill="black"/>
</svg>
