<svg width="20" height="20" viewBox="0 0 20 20" fill="none" xmlns="http://www.w3.org/2000/svg">
<path d="M10.1504 0H11.2782C11.3784 0 11.4286 0.0740741 11.4286 0.222222V19.7778C11.4286 19.9259 11.3784 20 11.2782 20H10.1504C10.0501 20 10 19.9259 10 19.7778V0.222222C10 0.0740741 10.0501 0 10.1504 0Z" fill="#109CF1"/>
<path d="M0.232558 9.33325H19.7674C19.9225 9.33325 20 9.38004 20 9.4736V10.5262C20 10.6198 19.9225 10.6666 19.7674 10.6666H0.232558C0.0775194 10.6666 0 10.6198 0 10.5262V9.4736C0 9.38004 0.0775194 9.33325 0.232558 9.33325Z" fill="#109CF1"/>
</svg>
