<svg width="41" height="41" viewBox="0 0 41 41" fill="none" xmlns="http://www.w3.org/2000/svg">
<mask id="path-1-outside-1" maskUnits="userSpaceOnUse" x="-0.62915" y="-0.344604" width="41" height="41" fill="black">
<rect fill="white" x="-0.62915" y="-0.344604" width="41" height="41"/>
<path d="M2.0229 0.655396C1.1144 0.655396 0.37085 1.56636 0.37085 2.68013V34.6739C0.37085 35.7877 1.11437 36.6965 2.0229 36.6965H15.269V38.9677H8.79678C8.75062 38.9655 8.70457 38.9747 8.6614 38.9949C8.61822 39.015 8.5788 39.0457 8.54551 39.0849C8.51222 39.1242 8.48573 39.1713 8.46764 39.2234C8.44954 39.2755 8.44022 39.3315 8.44022 39.3881C8.44022 39.4448 8.44954 39.5008 8.46764 39.5529C8.48573 39.6051 8.51222 39.6521 8.54551 39.6914C8.5788 39.7307 8.61822 39.7613 8.6614 39.7814C8.70457 39.8015 8.75062 39.8108 8.79678 39.8086H15.4612C15.508 39.8369 15.5595 39.8516 15.6117 39.8518H24.7638C24.816 39.8516 24.8675 39.8369 24.9144 39.8086H31.5802C31.6263 39.8108 31.6724 39.8015 31.7156 39.7814C31.7587 39.7613 31.7981 39.7307 31.8314 39.6914C31.8647 39.6521 31.8912 39.6051 31.9093 39.5529C31.9274 39.5008 31.9367 39.4448 31.9367 39.3881C31.9367 39.3315 31.9274 39.2755 31.9093 39.2234C31.8912 39.1713 31.8647 39.1242 31.8314 39.0849C31.7981 39.0457 31.7587 39.015 31.7156 38.9949C31.6724 38.9747 31.6263 38.9655 31.5802 38.9677H25.1067V36.6965H38.2683C39.1768 36.6965 39.9185 35.7877 39.9185 34.6739V2.68013C39.9185 1.56638 39.1767 0.655396 38.2683 0.655396H2.0229ZM2.0229 1.49797H38.2689C38.809 1.49797 39.2332 2.01798 39.2332 2.68013V34.6739C39.2332 35.3361 38.809 35.8561 38.2689 35.8561H2.0229C1.48277 35.8561 1.05859 35.3361 1.05859 34.6739V2.68013C1.05859 2.01798 1.48277 1.49797 2.0229 1.49797ZM20.3402 12.2565C18.7146 12.2565 17.3901 13.8754 17.3901 15.865C17.3901 17.0859 17.8904 18.1664 18.6516 18.8203C17.3531 19.1672 16.1847 19.9866 15.2493 21.1338C15.0076 20.983 14.7562 20.8557 14.4964 20.7525C15.0812 20.2375 15.4647 19.4001 15.4647 18.4551C15.4647 16.8948 14.4229 15.623 13.1473 15.623C11.8716 15.623 10.8286 16.8949 10.8286 18.4551C10.8286 19.3333 11.1589 20.1207 11.6754 20.6409C9.32599 21.3751 7.56679 24.1172 7.4897 27.4101C7.48831 27.4655 7.49584 27.5205 7.51184 27.5723C7.52785 27.624 7.55203 27.6714 7.58299 27.7117C7.61395 27.752 7.65109 27.7844 7.69228 27.807C7.73347 27.8297 7.7779 27.8422 7.82303 27.8438C7.86816 27.8454 7.9131 27.836 7.95527 27.8163C7.99745 27.7966 8.03605 27.7668 8.06884 27.7288C8.10163 27.6907 8.12798 27.6451 8.14638 27.5946C8.16478 27.5441 8.17487 27.4895 8.17607 27.4342C8.25677 23.9897 10.3694 21.2918 12.9271 21.2872C13.5801 21.2877 14.2008 21.465 14.7681 21.7835C13.7007 23.3715 13.0334 25.441 12.9802 27.7147C12.9778 27.7707 12.9845 27.8268 12.9999 27.8796C13.0154 27.9324 13.0394 27.9809 13.0704 28.0223C13.1014 28.0636 13.1388 28.0968 13.1804 28.1201C13.2221 28.1435 13.2671 28.1563 13.3129 28.1579C13.3586 28.1596 13.4042 28.15 13.4469 28.1297C13.4896 28.1095 13.5285 28.0789 13.5615 28.0399C13.5944 28.0009 13.6206 27.9543 13.6386 27.9026C13.6566 27.851 13.6659 27.7955 13.6662 27.7394C13.7186 25.4963 14.4147 23.4873 15.5094 22.0109C15.5578 21.9723 15.5974 21.9194 15.6247 21.857C16.7761 20.3813 18.3389 19.4787 20.0517 19.4762C21.9388 19.478 23.6434 20.573 24.817 22.3232V22.3232C24.8308 22.3489 24.8473 22.3736 24.8653 22.395C25.8037 23.8267 26.3908 25.6841 26.4391 27.7374C26.4393 27.7935 26.4486 27.849 26.4666 27.9007C26.4845 27.9524 26.5108 27.9991 26.5437 28.0381C26.5766 28.0772 26.6156 28.1078 26.6583 28.1281C26.701 28.1484 26.7466 28.158 26.7924 28.1563C26.8382 28.1547 26.8832 28.1418 26.9249 28.1185C26.9666 28.0952 27.004 28.0618 27.035 28.0205C27.066 27.9791 27.09 27.9306 27.1054 27.8777C27.1209 27.8249 27.1275 27.7687 27.125 27.7126C27.076 25.6274 26.5106 23.7142 25.5941 22.1863C26.308 21.6158 27.1382 21.2889 28.0272 21.2874C30.5856 21.2892 32.7006 23.9877 32.7818 27.4332C32.7829 27.4886 32.7929 27.5433 32.8112 27.5939C32.8296 27.6446 32.8559 27.6902 32.8887 27.7283C32.9215 27.7665 32.9601 27.7964 33.0023 27.8162C33.0446 27.836 33.0896 27.8453 33.1348 27.8437C33.1799 27.8421 33.2244 27.8297 33.2657 27.807C33.3069 27.7843 33.3441 27.7518 33.3751 27.7115C33.406 27.6711 33.4302 27.6236 33.4462 27.5718C33.4622 27.5199 33.4696 27.4647 33.4681 27.4093C33.3941 24.2659 31.7878 21.6229 29.5984 20.7513C30.1823 20.2362 30.5654 19.3996 30.5654 18.4554C30.5654 16.8952 29.5236 15.6233 28.248 15.6233C26.9724 15.6233 25.9293 16.8952 25.9293 18.4554C25.9293 19.3335 26.2598 20.1205 26.7761 20.6406C26.1963 20.8221 25.6535 21.1278 25.1624 21.5308C24.2764 20.3052 23.1422 19.3981 21.866 18.95C22.719 18.3159 23.2928 17.1715 23.2928 15.8654C23.2928 13.8758 21.9659 12.2565 20.3402 12.2565ZM20.3402 13.0968C21.5958 13.0968 22.6071 14.3313 22.6071 15.8649C22.6071 17.3985 21.5958 18.6351 20.3402 18.6351C19.0846 18.6351 18.0755 17.3984 18.0755 15.8649C18.0755 14.3313 19.0846 13.0968 20.3402 13.0968ZM13.1472 16.4637C14.0534 16.4637 14.7786 17.3512 14.7786 18.455C14.7786 19.5586 14.0533 20.4451 13.1472 20.4451C12.241 20.4451 11.5143 19.5586 11.5143 18.455C11.5143 17.3513 12.241 16.4637 13.1472 16.4637ZM28.2477 16.4637C29.1539 16.4637 29.8792 17.3512 29.8792 18.455C29.8792 19.5586 29.1539 20.4451 28.2477 20.4451C27.3415 20.4451 26.6144 19.5586 26.6144 18.455C26.6144 17.3513 27.3415 16.4637 28.2477 16.4637ZM15.956 36.813H24.4208V38.9681H15.956V36.813Z"/>
</mask>
<path d="M2.0229 0.655396C1.1144 0.655396 0.37085 1.56636 0.37085 2.68013V34.6739C0.37085 35.7877 1.11437 36.6965 2.0229 36.6965H15.269V38.9677H8.79678C8.75062 38.9655 8.70457 38.9747 8.6614 38.9949C8.61822 39.015 8.5788 39.0457 8.54551 39.0849C8.51222 39.1242 8.48573 39.1713 8.46764 39.2234C8.44954 39.2755 8.44022 39.3315 8.44022 39.3881C8.44022 39.4448 8.44954 39.5008 8.46764 39.5529C8.48573 39.6051 8.51222 39.6521 8.54551 39.6914C8.5788 39.7307 8.61822 39.7613 8.6614 39.7814C8.70457 39.8015 8.75062 39.8108 8.79678 39.8086H15.4612C15.508 39.8369 15.5595 39.8516 15.6117 39.8518H24.7638C24.816 39.8516 24.8675 39.8369 24.9144 39.8086H31.5802C31.6263 39.8108 31.6724 39.8015 31.7156 39.7814C31.7587 39.7613 31.7981 39.7307 31.8314 39.6914C31.8647 39.6521 31.8912 39.6051 31.9093 39.5529C31.9274 39.5008 31.9367 39.4448 31.9367 39.3881C31.9367 39.3315 31.9274 39.2755 31.9093 39.2234C31.8912 39.1713 31.8647 39.1242 31.8314 39.0849C31.7981 39.0457 31.7587 39.015 31.7156 38.9949C31.6724 38.9747 31.6263 38.9655 31.5802 38.9677H25.1067V36.6965H38.2683C39.1768 36.6965 39.9185 35.7877 39.9185 34.6739V2.68013C39.9185 1.56638 39.1767 0.655396 38.2683 0.655396H2.0229ZM2.0229 1.49797H38.2689C38.809 1.49797 39.2332 2.01798 39.2332 2.68013V34.6739C39.2332 35.3361 38.809 35.8561 38.2689 35.8561H2.0229C1.48277 35.8561 1.05859 35.3361 1.05859 34.6739V2.68013C1.05859 2.01798 1.48277 1.49797 2.0229 1.49797ZM20.3402 12.2565C18.7146 12.2565 17.3901 13.8754 17.3901 15.865C17.3901 17.0859 17.8904 18.1664 18.6516 18.8203C17.3531 19.1672 16.1847 19.9866 15.2493 21.1338C15.0076 20.983 14.7562 20.8557 14.4964 20.7525C15.0812 20.2375 15.4647 19.4001 15.4647 18.4551C15.4647 16.8948 14.4229 15.623 13.1473 15.623C11.8716 15.623 10.8286 16.8949 10.8286 18.4551C10.8286 19.3333 11.1589 20.1207 11.6754 20.6409C9.32599 21.3751 7.56679 24.1172 7.4897 27.4101C7.48831 27.4655 7.49584 27.5205 7.51184 27.5723C7.52785 27.624 7.55203 27.6714 7.58299 27.7117C7.61395 27.752 7.65109 27.7844 7.69228 27.807C7.73347 27.8297 7.7779 27.8422 7.82303 27.8438C7.86816 27.8454 7.9131 27.836 7.95527 27.8163C7.99745 27.7966 8.03605 27.7668 8.06884 27.7288C8.10163 27.6907 8.12798 27.6451 8.14638 27.5946C8.16478 27.5441 8.17487 27.4895 8.17607 27.4342C8.25677 23.9897 10.3694 21.2918 12.9271 21.2872C13.5801 21.2877 14.2008 21.465 14.7681 21.7835C13.7007 23.3715 13.0334 25.441 12.9802 27.7147C12.9778 27.7707 12.9845 27.8268 12.9999 27.8796C13.0154 27.9324 13.0394 27.9809 13.0704 28.0223C13.1014 28.0636 13.1388 28.0968 13.1804 28.1201C13.2221 28.1435 13.2671 28.1563 13.3129 28.1579C13.3586 28.1596 13.4042 28.15 13.4469 28.1297C13.4896 28.1095 13.5285 28.0789 13.5615 28.0399C13.5944 28.0009 13.6206 27.9543 13.6386 27.9026C13.6566 27.851 13.6659 27.7955 13.6662 27.7394C13.7186 25.4963 14.4147 23.4873 15.5094 22.0109C15.5578 21.9723 15.5974 21.9194 15.6247 21.857C16.7761 20.3813 18.3389 19.4787 20.0517 19.4762C21.9388 19.478 23.6434 20.573 24.817 22.3232V22.3232C24.8308 22.3489 24.8473 22.3736 24.8653 22.395C25.8037 23.8267 26.3908 25.6841 26.4391 27.7374C26.4393 27.7935 26.4486 27.849 26.4666 27.9007C26.4845 27.9524 26.5108 27.9991 26.5437 28.0381C26.5766 28.0772 26.6156 28.1078 26.6583 28.1281C26.701 28.1484 26.7466 28.158 26.7924 28.1563C26.8382 28.1547 26.8832 28.1418 26.9249 28.1185C26.9666 28.0952 27.004 28.0618 27.035 28.0205C27.066 27.9791 27.09 27.9306 27.1054 27.8777C27.1209 27.8249 27.1275 27.7687 27.125 27.7126C27.076 25.6274 26.5106 23.7142 25.5941 22.1863C26.308 21.6158 27.1382 21.2889 28.0272 21.2874C30.5856 21.2892 32.7006 23.9877 32.7818 27.4332C32.7829 27.4886 32.7929 27.5433 32.8112 27.5939C32.8296 27.6446 32.8559 27.6902 32.8887 27.7283C32.9215 27.7665 32.9601 27.7964 33.0023 27.8162C33.0446 27.836 33.0896 27.8453 33.1348 27.8437C33.1799 27.8421 33.2244 27.8297 33.2657 27.807C33.3069 27.7843 33.3441 27.7518 33.3751 27.7115C33.406 27.6711 33.4302 27.6236 33.4462 27.5718C33.4622 27.5199 33.4696 27.4647 33.4681 27.4093C33.3941 24.2659 31.7878 21.6229 29.5984 20.7513C30.1823 20.2362 30.5654 19.3996 30.5654 18.4554C30.5654 16.8952 29.5236 15.6233 28.248 15.6233C26.9724 15.6233 25.9293 16.8952 25.9293 18.4554C25.9293 19.3335 26.2598 20.1205 26.7761 20.6406C26.1963 20.8221 25.6535 21.1278 25.1624 21.5308C24.2764 20.3052 23.1422 19.3981 21.866 18.95C22.719 18.3159 23.2928 17.1715 23.2928 15.8654C23.2928 13.8758 21.9659 12.2565 20.3402 12.2565ZM20.3402 13.0968C21.5958 13.0968 22.6071 14.3313 22.6071 15.8649C22.6071 17.3985 21.5958 18.6351 20.3402 18.6351C19.0846 18.6351 18.0755 17.3984 18.0755 15.8649C18.0755 14.3313 19.0846 13.0968 20.3402 13.0968ZM13.1472 16.4637C14.0534 16.4637 14.7786 17.3512 14.7786 18.455C14.7786 19.5586 14.0533 20.4451 13.1472 20.4451C12.241 20.4451 11.5143 19.5586 11.5143 18.455C11.5143 17.3513 12.241 16.4637 13.1472 16.4637ZM28.2477 16.4637C29.1539 16.4637 29.8792 17.3512 29.8792 18.455C29.8792 19.5586 29.1539 20.4451 28.2477 20.4451C27.3415 20.4451 26.6144 19.5586 26.6144 18.455C26.6144 17.3513 27.3415 16.4637 28.2477 16.4637ZM15.956 36.813H24.4208V38.9681H15.956V36.813Z" fill="#109CF1"/>
<path d="M15.269 36.6965H15.469V36.4965H15.269V36.6965ZM15.269 38.9677V39.1677H15.469V38.9677H15.269ZM8.79678 38.9677L8.78724 39.1677H8.79678V38.9677ZM8.79678 39.8086V39.6084L8.78725 39.6088L8.79678 39.8086ZM15.4612 39.8086L15.5644 39.6373L15.5168 39.6086H15.4612V39.8086ZM15.6117 39.8518L15.6111 40.0518H15.6117V39.8518ZM24.7638 39.8518V40.0518L24.7644 40.0518L24.7638 39.8518ZM24.9144 39.8086V39.6086H24.8587L24.8111 39.6373L24.9144 39.8086ZM31.5802 39.8086L31.5897 39.6086H31.5802V39.8086ZM31.5802 38.9677V39.168L31.5897 39.1675L31.5802 38.9677ZM25.1067 38.9677H24.9067V39.1677H25.1067V38.9677ZM25.1067 36.6965V36.4965H24.9067V36.6965H25.1067ZM18.6516 18.8203L18.7032 19.0136L19.0696 18.9157L18.7819 18.6686L18.6516 18.8203ZM15.2493 21.1338L15.1434 21.3035L15.293 21.3968L15.4043 21.2602L15.2493 21.1338ZM14.4964 20.7525L14.3642 20.6024L14.1194 20.818L14.4225 20.9384L14.4964 20.7525ZM11.6754 20.6409L11.735 20.8318L12.0492 20.7336L11.8173 20.5L11.6754 20.6409ZM7.4897 27.4101L7.68963 27.4151L7.68964 27.4148L7.4897 27.4101ZM8.17607 27.4342L7.97612 27.4295L7.97611 27.4299L8.17607 27.4342ZM12.9271 21.2872L12.9272 21.0872L12.9267 21.0872L12.9271 21.2872ZM14.7681 21.7835L14.9341 21.895L15.055 21.7152L14.866 21.6091L14.7681 21.7835ZM12.9802 27.7147L13.1801 27.7235L13.1802 27.7194L12.9802 27.7147ZM13.6662 27.7394L13.4662 27.7347L13.4662 27.7386L13.6662 27.7394ZM15.5094 22.0109L15.3846 21.8546L15.3643 21.8709L15.3487 21.8918L15.5094 22.0109ZM15.6247 21.857L15.467 21.734L15.4515 21.7538L15.4414 21.7769L15.6247 21.857ZM20.0517 19.4762L20.0519 19.2762L20.0514 19.2762L20.0517 19.4762ZM24.8653 22.395L25.0325 22.2854L25.026 22.2754L25.0183 22.2662L24.8653 22.395ZM26.4391 27.7374L26.6391 27.7367L26.6391 27.7326L26.4391 27.7374ZM27.125 27.7126L26.925 27.7173L26.9252 27.7216L27.125 27.7126ZM25.5941 22.1863L25.4692 22.0301L25.3326 22.1393L25.4226 22.2892L25.5941 22.1863ZM28.0272 21.2874L28.0273 21.0874L28.0268 21.0874L28.0272 21.2874ZM32.7818 27.4332L32.9817 27.4293L32.9817 27.4285L32.7818 27.4332ZM33.4681 27.4093L33.2682 27.414L33.2682 27.4146L33.4681 27.4093ZM29.5984 20.7513L29.4661 20.6013L29.222 20.8167L29.5244 20.9371L29.5984 20.7513ZM26.7761 20.6406L26.8358 20.8315L27.1498 20.7332L26.918 20.4997L26.7761 20.6406ZM25.1624 21.5308L25.0003 21.6479L25.1249 21.8203L25.2893 21.6854L25.1624 21.5308ZM21.866 18.95L21.7467 18.7895L21.4447 19.014L21.7998 19.1387L21.866 18.95ZM15.956 36.813V36.613H15.756V36.813H15.956ZM24.4208 36.813H24.6208V36.613H24.4208V36.813ZM24.4208 38.9681V39.1681H24.6208V38.9681H24.4208ZM15.956 38.9681H15.756V39.1681H15.956V38.9681ZM2.0229 0.455396C0.967851 0.455396 0.17085 1.49583 0.17085 2.68013H0.57085C0.57085 1.63688 1.26095 0.855396 2.0229 0.855396V0.455396ZM0.17085 2.68013V34.6739H0.57085V2.68013H0.17085ZM0.17085 34.6739C0.17085 35.8585 0.968062 36.8965 2.0229 36.8965V36.4965C1.26067 36.4965 0.57085 35.7168 0.57085 34.6739H0.17085ZM2.0229 36.8965H15.269V36.4965H2.0229V36.8965ZM15.069 36.6965V38.9677H15.469V36.6965H15.069ZM15.269 38.7677H8.79678V39.1677H15.269V38.7677ZM8.80631 38.768C8.72686 38.7642 8.6486 38.7801 8.57686 38.8136L8.74593 39.1761C8.76055 39.1693 8.77438 39.1669 8.78725 39.1675L8.80631 38.768ZM8.57686 38.8136C8.50539 38.8469 8.44333 38.8962 8.39298 38.9556L8.69804 39.2143C8.71428 39.1951 8.73105 39.1831 8.74593 39.1761L8.57686 38.8136ZM8.39298 38.9556C8.34262 39.0149 8.30431 39.084 8.2787 39.1578L8.65657 39.289C8.66715 39.2585 8.68182 39.2334 8.69804 39.2143L8.39298 38.9556ZM8.2787 39.1578C8.25309 39.2315 8.24022 39.3098 8.24022 39.3881H8.64022C8.64022 39.3532 8.646 39.3194 8.65657 39.289L8.2787 39.1578ZM8.24022 39.3881C8.24022 39.4665 8.25309 39.5448 8.2787 39.6185L8.65657 39.4873C8.646 39.4569 8.64022 39.423 8.64022 39.3881H8.24022ZM8.2787 39.6185C8.30431 39.6923 8.34262 39.7614 8.39298 39.8208L8.69804 39.562C8.68182 39.5429 8.66715 39.5178 8.65657 39.4873L8.2787 39.6185ZM8.39298 39.8208C8.44342 39.8802 8.50551 39.9294 8.57686 39.9627L8.74593 39.6001C8.73094 39.5931 8.71419 39.5811 8.69804 39.562L8.39298 39.8208ZM8.57686 39.9627C8.64844 39.996 8.72669 40.0122 8.80631 40.0084L8.78725 39.6088C8.77456 39.6094 8.76071 39.607 8.74593 39.6001L8.57686 39.9627ZM8.79678 40.0086H15.4612V39.6086H8.79678V40.0086ZM15.3579 39.9799C15.4342 40.0259 15.5209 40.0515 15.6111 40.0518L15.6124 39.6518C15.5981 39.6518 15.5819 39.6478 15.5644 39.6373L15.3579 39.9799ZM15.6117 40.0518H24.7638V39.6518H15.6117V40.0518ZM24.7644 40.0518C24.8546 40.0515 24.9414 40.0259 25.0177 39.9799L24.8111 39.6373C24.7937 39.6478 24.7774 39.6518 24.7631 39.6518L24.7644 40.0518ZM24.9144 40.0086H31.5802V39.6086H24.9144V40.0086ZM31.5706 40.0084C31.6503 40.0122 31.7285 39.996 31.8001 39.9627L31.631 39.6001C31.6162 39.607 31.6024 39.6094 31.5897 39.6088L31.5706 40.0084ZM31.8001 39.9627C31.8714 39.9294 31.9335 39.8802 31.984 39.8208L31.6789 39.562C31.6628 39.5811 31.646 39.5931 31.631 39.6001L31.8001 39.9627ZM31.984 39.8208C32.0343 39.7614 32.0726 39.6923 32.0983 39.6185L31.7204 39.4873C31.7098 39.5178 31.6951 39.5429 31.6789 39.562L31.984 39.8208ZM32.0983 39.6185C32.1239 39.5448 32.1367 39.4665 32.1367 39.3881H31.7367C31.7367 39.4231 31.731 39.4569 31.7204 39.4873L32.0983 39.6185ZM32.1367 39.3881C32.1367 39.3098 32.1239 39.2315 32.0983 39.1578L31.7204 39.289C31.731 39.3194 31.7367 39.3532 31.7367 39.3881H32.1367ZM32.0983 39.1578C32.0726 39.084 32.0343 39.0149 31.984 38.9556L31.6789 39.2143C31.6951 39.2334 31.7098 39.2585 31.7204 39.289L32.0983 39.1578ZM31.984 38.9556C31.9336 38.8962 31.8716 38.8469 31.8001 38.8136L31.631 39.1761C31.6459 39.1831 31.6627 39.1951 31.6789 39.2143L31.984 38.9556ZM31.8001 38.8136C31.7284 38.7801 31.6501 38.7642 31.5706 38.768L31.5897 39.1675C31.6026 39.1669 31.6164 39.1693 31.631 39.1761L31.8001 38.8136ZM31.5802 38.7677H25.1067V39.1677H31.5802V38.7677ZM25.3067 38.9677V36.6965H24.9067V38.9677H25.3067ZM25.1067 36.8965H38.2683V36.4965H25.1067V36.8965ZM38.2683 36.8965C39.3234 36.8965 40.1185 35.8583 40.1185 34.6739H39.7185C39.7185 35.7172 39.0302 36.4965 38.2683 36.4965V36.8965ZM40.1185 34.6739V2.68013H39.7185V34.6739H40.1185ZM40.1185 2.68013C40.1185 1.49617 39.3235 0.455396 38.2683 0.455396V0.855396C39.0299 0.855396 39.7185 1.63659 39.7185 2.68013H40.1185ZM38.2683 0.455396H2.0229V0.855396H38.2683V0.455396ZM2.0229 1.69797H38.2689V1.29797H2.0229V1.69797ZM38.2689 1.69797C38.6624 1.69797 39.0332 2.08843 39.0332 2.68013H39.4332C39.4332 1.94753 38.9556 1.29797 38.2689 1.29797V1.69797ZM39.0332 2.68013V34.6739H39.4332V2.68013H39.0332ZM39.0332 34.6739C39.0332 35.2656 38.6624 35.6561 38.2689 35.6561V36.0561C38.9556 36.0561 39.4332 35.4065 39.4332 34.6739H39.0332ZM38.2689 35.6561H2.0229V36.0561H38.2689V35.6561ZM2.0229 35.6561C1.62938 35.6561 1.25859 35.2656 1.25859 34.6739H0.858591C0.858591 35.4065 1.33617 36.0561 2.0229 36.0561V35.6561ZM1.25859 34.6739V2.68013H0.858591V34.6739H1.25859ZM1.25859 2.68013C1.25859 2.08843 1.62938 1.69797 2.0229 1.69797V1.29797C1.33617 1.29797 0.858591 1.94753 0.858591 2.68013H1.25859ZM20.3402 12.0565C18.5684 12.0565 17.1901 13.8044 17.1901 15.865H17.5901C17.5901 13.9463 18.8608 12.4565 20.3402 12.4565V12.0565ZM17.1901 15.865C17.1901 17.1385 17.7117 18.2766 18.5213 18.972L18.7819 18.6686C18.0691 18.0563 17.5901 17.0332 17.5901 15.865H17.1901ZM18.6 18.6271C17.2538 18.9867 16.0513 19.8338 15.0943 21.0074L15.4043 21.2602C16.3181 20.1395 17.4523 19.3477 18.7032 19.0136L18.6 18.6271ZM15.3552 20.9641C15.1034 20.807 14.8413 20.6743 14.5702 20.5666L14.4225 20.9384C14.671 21.0371 14.9117 21.1589 15.1434 21.3035L15.3552 20.9641ZM14.6285 20.9026C15.2602 20.3464 15.6647 19.4524 15.6647 18.4551H15.2647C15.2647 19.3478 14.9022 20.1287 14.3642 20.6024L14.6285 20.9026ZM15.6647 18.4551C15.6647 16.8237 14.569 15.423 13.1473 15.423V15.823C14.2769 15.823 15.2647 16.966 15.2647 18.4551H15.6647ZM13.1473 15.423C11.7257 15.423 10.6286 16.8236 10.6286 18.4551H11.0286C11.0286 16.9662 12.0176 15.823 13.1473 15.823V15.423ZM10.6286 18.4551C10.6286 19.382 10.977 20.2213 11.5334 20.7818L11.8173 20.5C11.3409 20.02 11.0286 19.2846 11.0286 18.4551H10.6286ZM11.6157 20.45C9.15891 21.2178 7.36814 24.057 7.28975 27.4054L7.68964 27.4148C7.76544 24.1774 9.49307 21.5324 11.735 20.8318L11.6157 20.45ZM7.28976 27.4051C7.28784 27.4817 7.29821 27.5585 7.32078 27.6314L7.70291 27.5132C7.69346 27.4826 7.68878 27.4492 7.68963 27.4151L7.28976 27.4051ZM7.32078 27.6314C7.34334 27.7043 7.37806 27.7733 7.42442 27.8336L7.74156 27.5898C7.726 27.5696 7.71236 27.5438 7.70291 27.5132L7.32078 27.6314ZM7.42442 27.8336C7.4708 27.8939 7.52857 27.9452 7.59587 27.9823L7.78869 27.6318C7.77361 27.6235 7.7571 27.61 7.74156 27.5898L7.42442 27.8336ZM7.59587 27.9823C7.66334 28.0194 7.73825 28.0409 7.81601 28.0437L7.83005 27.6439C7.81755 27.6435 7.8036 27.64 7.78869 27.6318L7.59587 27.9823ZM7.81601 28.0437C7.89379 28.0464 7.9701 28.0302 8.04003 27.9974L7.87052 27.6351C7.85609 27.6419 7.84252 27.6443 7.83005 27.6439L7.81601 28.0437ZM8.04003 27.9974C8.10976 27.9648 8.1706 27.917 8.22032 27.8593L7.91735 27.5982C7.90149 27.6166 7.88514 27.6283 7.87052 27.6351L8.04003 27.9974ZM8.22032 27.8593C8.27 27.8017 8.30821 27.7347 8.33431 27.663L7.95845 27.5262C7.94775 27.5556 7.93326 27.5797 7.91735 27.5982L8.22032 27.8593ZM8.33431 27.663C8.36042 27.5913 8.37436 27.5151 8.37602 27.4385L7.97611 27.4299C7.97538 27.464 7.96914 27.4968 7.95845 27.5262L8.33431 27.663ZM8.37601 27.4389C8.41547 25.7549 8.9516 24.2618 9.7807 23.1933C10.6097 22.1251 11.7234 21.4894 12.9274 21.4872L12.9267 21.0872C11.5731 21.0896 10.3516 21.8052 9.46468 22.9481C8.57788 24.0909 8.01737 25.6689 7.97612 27.4295L8.37601 27.4389ZM12.9269 21.4872C13.5427 21.4877 14.1301 21.6547 14.6702 21.9579L14.866 21.6091C14.2715 21.2754 13.6174 21.0877 12.9272 21.0872L12.9269 21.4872ZM14.6021 21.6719C13.5119 23.2938 12.8343 25.4009 12.7803 27.71L13.1802 27.7194C13.2325 25.481 13.8894 23.4492 14.9341 21.895L14.6021 21.6719ZM12.7804 27.7059C12.777 27.7835 12.7862 27.8615 12.808 27.9359L13.1919 27.8234C13.1827 27.7921 13.1785 27.758 13.18 27.7235L12.7804 27.7059ZM12.808 27.9359C12.8298 28.0102 12.8641 28.0806 12.9104 28.1423L13.2303 27.9022C13.2147 27.8813 13.2011 27.8547 13.1919 27.8234L12.808 27.9359ZM12.9104 28.1423C12.9568 28.2041 13.0149 28.2567 13.0828 28.2947L13.2781 27.9456C13.2627 27.937 13.246 27.923 13.2303 27.9022L12.9104 28.1423ZM13.0828 28.2947C13.151 28.3328 13.2269 28.355 13.3057 28.3578L13.3201 27.9581C13.3074 27.9576 13.2932 27.9541 13.2781 27.9456L13.0828 28.2947ZM13.3057 28.3578C13.3845 28.3606 13.4619 28.344 13.5327 28.3104L13.3611 27.9491C13.3465 27.956 13.3328 27.9585 13.3201 27.9581L13.3057 28.3578ZM13.5327 28.3104C13.6032 28.2769 13.6645 28.2279 13.7143 28.1689L13.4086 27.9109C13.3926 27.9299 13.376 27.942 13.3611 27.9491L13.5327 28.3104ZM13.7143 28.1689C13.7641 28.11 13.802 28.0415 13.8275 27.9684L13.4497 27.8369C13.4392 27.867 13.4247 27.8919 13.4086 27.9109L13.7143 28.1689ZM13.8275 27.9684C13.8529 27.8953 13.8659 27.8178 13.8662 27.7401L13.4662 27.7386C13.466 27.7732 13.4602 27.8067 13.4497 27.8369L13.8275 27.9684ZM13.8661 27.744C13.9177 25.5384 14.6022 23.5702 15.67 22.13L15.3487 21.8918C14.2272 23.4043 13.5196 25.4542 13.4662 27.7347L13.8661 27.744ZM15.6341 22.1672C15.7104 22.1064 15.769 22.0262 15.8079 21.9371L15.4414 21.7769C15.4258 21.8125 15.4051 21.8382 15.3846 21.8546L15.6341 22.1672ZM15.7823 21.98C16.9048 20.5414 18.4139 19.6786 20.052 19.6762L20.0514 19.2762C18.264 19.2788 16.6473 20.2212 15.467 21.734L15.7823 21.98ZM20.0515 19.6762C21.8558 19.6779 23.5044 20.7248 24.6509 22.4346L24.9831 22.2118C23.7825 20.4213 22.0218 19.2781 20.0519 19.2762L20.0515 19.6762ZM24.6408 22.4178C24.6604 22.4543 24.6844 22.4907 24.7122 22.5238L25.0183 22.2662C25.0101 22.2565 25.0012 22.2434 24.9932 22.2286L24.6408 22.4178ZM24.698 22.5046C25.6145 23.9028 26.1916 25.7232 26.2392 27.7421L26.6391 27.7326C26.5899 25.645 25.993 23.7507 25.0325 22.2854L24.698 22.5046ZM26.2391 27.738C26.2394 27.8157 26.2523 27.8932 26.2777 27.9664L26.6555 27.835C26.645 27.8048 26.6392 27.7713 26.6391 27.7367L26.2391 27.738ZM26.2777 27.9664C26.3031 28.0395 26.341 28.108 26.3908 28.1671L26.6966 27.9092C26.6805 27.8902 26.666 27.8652 26.6555 27.835L26.2777 27.9664ZM26.3908 28.1671C26.4406 28.2261 26.5019 28.2752 26.5725 28.3087L26.7441 27.9474C26.7293 27.9404 26.7126 27.9283 26.6966 27.9092L26.3908 28.1671ZM26.5725 28.3087C26.6432 28.3424 26.7206 28.3591 26.7996 28.3562L26.7852 27.9565C26.7726 27.9569 26.7588 27.9544 26.7441 27.9474L26.5725 28.3087ZM26.7996 28.3562C26.8785 28.3534 26.9544 28.3312 27.0226 28.293L26.8272 27.944C26.8121 27.9525 26.7979 27.956 26.7852 27.9565L26.7996 28.3562ZM27.0226 28.293C27.0906 28.2549 27.1487 28.2023 27.195 28.1405L26.875 27.9005C26.8593 27.9214 26.8426 27.9354 26.8272 27.944L27.0226 28.293ZM27.195 28.1405C27.2413 28.0787 27.2756 28.0082 27.2974 27.9339L26.9134 27.8216C26.9043 27.853 26.8907 27.8796 26.875 27.9005L27.195 28.1405ZM27.2974 27.9339C27.3191 27.8595 27.3283 27.7813 27.3248 27.7037L26.9252 27.7216C26.9268 27.7561 26.9226 27.7903 26.9134 27.8216L27.2974 27.9339ZM27.325 27.7079C27.2751 25.59 26.7009 23.6427 25.7656 22.0834L25.4226 22.2892C26.3202 23.7856 26.8768 25.6647 26.9251 27.7173L27.325 27.7079ZM25.7189 22.3426C26.4024 21.7964 27.1897 21.4889 28.0275 21.4874L28.0268 21.0874C27.0868 21.089 26.2137 21.4352 25.4692 22.0301L25.7189 22.3426ZM28.027 21.4874C29.2314 21.4882 30.3458 22.1234 31.1755 23.1916C32.0053 24.26 32.5421 25.7535 32.5818 27.4379L32.9817 27.4285C32.9402 25.6674 32.379 24.089 31.4914 22.9462C30.6037 21.8034 29.3814 21.0883 28.0273 21.0874L28.027 21.4874ZM32.5818 27.4372C32.5833 27.5138 32.5972 27.5902 32.6232 27.662L32.9993 27.5258C32.9886 27.4963 32.9824 27.4634 32.9817 27.4293L32.5818 27.4372ZM32.6232 27.662C32.6492 27.7339 32.6874 27.801 32.7371 27.8587L33.0404 27.598C33.0244 27.5794 33.0099 27.5552 32.9993 27.5258L32.6232 27.662ZM32.7371 27.8587C32.7867 27.9165 32.8476 27.9645 32.9174 27.9973L33.0873 27.6351C33.0727 27.6283 33.0563 27.6165 33.0404 27.598L32.7371 27.8587ZM32.9174 27.9973C32.9876 28.0301 33.064 28.0463 33.1417 28.0436L33.1278 27.6438C33.1151 27.6443 33.1015 27.6418 33.0873 27.6351L32.9174 27.9973ZM33.1417 28.0436C33.2194 28.0409 33.2945 28.0195 33.3621 27.9822L33.1692 27.6318C33.1544 27.6399 33.1405 27.6434 33.1278 27.6438L33.1417 28.0436ZM33.3621 27.9822C33.4295 27.9451 33.4873 27.8937 33.5337 27.8332L33.2164 27.5897C33.2009 27.6099 33.1843 27.6235 33.1692 27.6318L33.3621 27.9822ZM33.5337 27.8332C33.5801 27.7728 33.6148 27.7037 33.6373 27.6307L33.255 27.5129C33.2456 27.5435 33.232 27.5694 33.2164 27.5897L33.5337 27.8332ZM33.6373 27.6307C33.6598 27.5576 33.6701 27.4806 33.6681 27.404L33.2682 27.4146C33.2691 27.4488 33.2645 27.4823 33.255 27.5129L33.6373 27.6307ZM33.6681 27.4046C33.5928 24.2065 31.9574 21.4752 29.6724 20.5655L29.5244 20.9371C31.6181 21.7707 33.1954 24.3252 33.2682 27.414L33.6681 27.4046ZM29.7307 20.9013C30.3613 20.345 30.7654 19.4519 30.7654 18.4554H30.3654C30.3654 19.3473 30.0033 20.1274 29.4661 20.6013L29.7307 20.9013ZM30.7654 18.4554C30.7654 16.824 29.6697 15.4233 28.248 15.4233V15.8233C29.3776 15.8233 30.3654 16.9663 30.3654 18.4554H30.7654ZM28.248 15.4233C26.8264 15.4233 25.7293 16.824 25.7293 18.4554H26.1293C26.1293 16.9665 27.1183 15.8233 28.248 15.8233V15.4233ZM25.7293 18.4554C25.7293 19.3823 26.0779 20.2212 26.6341 20.7815L26.918 20.4997C26.4416 20.0198 26.1293 19.2847 26.1293 18.4554H25.7293ZM26.7163 20.4498C26.1093 20.6398 25.5441 20.9588 25.0355 21.3762L25.2893 21.6854C25.7629 21.2967 26.2833 21.0045 26.8358 20.8315L26.7163 20.4498ZM25.3245 21.4136C24.419 20.161 23.2534 19.2252 21.9323 18.7613L21.7998 19.1387C23.031 19.571 24.1339 20.4494 25.0003 21.6479L25.3245 21.4136ZM21.9854 19.1105C22.8946 18.4345 23.4928 17.2275 23.4928 15.8654H23.0928C23.0928 17.1156 22.5433 18.1973 21.7467 18.7895L21.9854 19.1105ZM23.4928 15.8654C23.4928 13.8046 22.1119 12.0565 20.3402 12.0565V12.4565C21.8198 12.4565 23.0928 13.9469 23.0928 15.8654H23.4928ZM20.3402 13.2968C21.4499 13.2968 22.4071 14.4025 22.4071 15.8649H22.8071C22.8071 14.26 21.7417 12.8968 20.3402 12.8968V13.2968ZM22.4071 15.8649C22.4071 17.3274 21.4497 18.4351 20.3402 18.4351V18.8351C21.7419 18.8351 22.8071 17.4696 22.8071 15.8649H22.4071ZM20.3402 18.4351C19.231 18.4351 18.2755 17.3276 18.2755 15.8649H17.8755C17.8755 17.4692 18.9383 18.8351 20.3402 18.8351V18.4351ZM18.2755 15.8649C18.2755 14.4023 19.2307 13.2968 20.3402 13.2968V12.8968C18.9384 12.8968 17.8755 14.2603 17.8755 15.8649H18.2755ZM13.1472 16.6637C13.9073 16.6637 14.5786 17.4224 14.5786 18.455H14.9786C14.9786 17.2801 14.1994 16.2637 13.1472 16.2637V16.6637ZM14.5786 18.455C14.5786 19.4873 13.9074 20.2451 13.1472 20.2451V20.6451C14.1992 20.6451 14.9786 19.63 14.9786 18.455H14.5786ZM13.1472 20.2451C12.3867 20.2451 11.7143 19.487 11.7143 18.455H11.3143C11.3143 19.6302 12.0953 20.6451 13.1472 20.6451V20.2451ZM11.7143 18.455C11.7143 17.4227 12.3868 16.6637 13.1472 16.6637V16.2637C12.0952 16.2637 11.3143 17.2799 11.3143 18.455H11.7143ZM28.2477 16.6637C29.0079 16.6637 29.6792 17.4224 29.6792 18.455H30.0792C30.0792 17.2801 29.2999 16.2637 28.2477 16.2637V16.6637ZM29.6792 18.455C29.6792 19.4873 29.008 20.2451 28.2477 20.2451V20.6451C29.2998 20.6451 30.0792 19.63 30.0792 18.455H29.6792ZM28.2477 20.2451C27.4872 20.2451 26.8144 19.487 26.8144 18.455H26.4144C26.4144 19.6302 27.1959 20.6451 28.2477 20.6451V20.2451ZM26.8144 18.455C26.8144 17.4228 27.4872 16.6637 28.2477 16.6637V16.2637C27.1957 16.2637 26.4144 17.2798 26.4144 18.455H26.8144ZM15.956 37.013H24.4208V36.613H15.956V37.013ZM24.2208 36.813V38.9681H24.6208V36.813H24.2208ZM24.4208 38.7681H15.956V39.1681H24.4208V38.7681ZM16.156 38.9681V36.813H15.756V38.9681H16.156Z" fill="#109CF1" mask="url(#path-1-outside-1)"/>
</svg>
