<svg width="32" height="49" viewBox="0 0 32 49" fill="none" xmlns="http://www.w3.org/2000/svg">
<path d="M31.5304 40.7967C31.4842 40.6828 31.4214 40.5893 31.3478 40.5246C31.2741 40.46 31.1918 40.4262 31.1082 40.4262H28.9974V37.3845V9.46124C28.9974 9.24122 28.944 9.03022 28.849 8.87464C28.754 8.71907 28.6251 8.63167 28.4908 8.63167H24.931L24.8263 8.20029C24.6078 7.29649 24.1935 6.55639 23.6625 6.12169C23.1316 5.68699 22.5214 5.58823 21.9487 5.84432L20.8241 1.17109C20.7953 1.0508 20.7498 0.943157 20.6912 0.856744C20.6326 0.77033 20.5624 0.707533 20.4863 0.673354C20.446 0.665197 20.4051 0.665197 20.3647 0.673354C20.2415 0.667942 20.1213 0.736822 20.027 0.86692L18.2336 3.34456L16.9232 5.10877C16.8206 5.25545 16.7578 5.46283 16.7487 5.6853C16.7395 5.90778 16.7846 6.12711 16.8742 6.29505C16.9638 6.463 17.0904 6.5658 17.2263 6.58084C17.3622 6.59587 17.4961 6.52192 17.5987 6.37525L18.3552 5.32999L21.817 19.7092L14.9778 20.2622L13.1101 12.5638L14.8967 10.0972L16.2477 8.25007C16.2987 8.17744 16.3405 8.08907 16.3706 7.99001C16.4008 7.89095 16.4187 7.78314 16.4234 7.67272C16.4281 7.56231 16.4195 7.45146 16.398 7.34651C16.3766 7.24155 16.3427 7.14454 16.2984 7.06102C16.254 6.9775 16.2 6.9091 16.1396 6.85973C16.0791 6.81036 16.0132 6.78099 15.9458 6.77328C15.8784 6.76558 15.8107 6.7797 15.7466 6.81484C15.6825 6.84997 15.6232 6.90544 15.5722 6.97806L14.3766 8.6372H3.32917C3.1948 8.6372 3.06595 8.7246 2.97094 8.88017C2.87593 9.03575 2.82256 9.24675 2.82256 9.46677V37.3955V40.4373H0.711684C0.628424 40.437 0.546413 40.4704 0.472907 40.5345C0.3994 40.5985 0.336664 40.6912 0.290249 40.8044C0.243834 40.9176 0.21517 41.0477 0.206794 41.1834C0.198418 41.319 0.210588 41.456 0.242227 41.5821L1.16763 45.2488C1.97821 48.4564 3.91008 48.4564 5.61228 48.4564H26.2144C27.9031 48.4564 29.8485 48.4564 30.659 45.2488L31.5845 41.5821C31.616 41.4541 31.6276 41.3153 31.6182 41.1782C31.6088 41.0411 31.5786 40.91 31.5304 40.7967ZM22.327 7.40391C22.6023 7.31338 22.888 7.36558 23.1443 7.55323C23.3131 7.67174 23.4659 7.84365 23.594 8.05908C23.7221 8.27451 23.8229 8.52924 23.8907 8.80864L24.1204 9.76541L24.4109 10.971C24.4783 11.2501 24.5112 11.5482 24.5077 11.8482C24.5042 12.1482 24.4644 12.4441 24.3906 12.7187C24.3567 12.8442 24.316 12.9645 24.269 13.0781L24.2251 13.1777C24.1898 13.2554 24.1514 13.3293 24.1103 13.3989L24.0495 13.4874C24.0027 13.5575 23.9531 13.6221 23.9009 13.681L23.857 13.7363L23.0025 10.2244L22.327 7.40391ZM13.3364 23.9234L14.7076 23.0385L16.4774 26.3568C16.5967 26.5796 16.6814 26.8462 16.7246 27.134C16.7677 27.4218 16.7679 27.7224 16.7252 28.0103C16.6825 28.2983 16.5981 28.5652 16.4791 28.7885C16.3601 29.0118 16.2101 29.185 16.0417 29.2934C15.8251 29.4323 15.5876 29.4586 15.3616 29.3685C15.1355 29.2784 14.9319 29.0765 14.7785 28.7901L12.4752 24.4875L13.3364 23.9234ZM11.2086 23.5141L10.6277 21.1028L9.4051 16.0203L8.81743 13.6035L11.8064 11.6734L12.0327 12.6081L14.1537 21.4291L14.1875 21.5729L11.4282 23.3537L11.2086 23.5141ZM8.64519 17.403L9.49291 20.9369L9.39497 20.9977C9.25227 21.0959 9.09903 21.1464 8.94426 21.1462C8.78948 21.146 8.63629 21.0952 8.49368 20.9967C8.35106 20.8982 8.2219 20.7541 8.11377 20.5728C8.00565 20.3914 7.92074 20.1765 7.86403 19.9407C7.80733 19.7049 7.77997 19.4529 7.78356 19.1995C7.78716 18.9462 7.82163 18.6965 7.88496 18.4653C7.94829 18.234 8.0392 18.0258 8.15235 17.8529C8.2655 17.6799 8.39861 17.5458 8.54386 17.4583L8.64519 17.403ZM22.8742 19.6151L19.159 4.20731L20.1351 2.85788L22.1413 11.1812L23.1004 15.1465L24.1474 19.4935L22.8742 19.6151ZM12.7183 10.9379L12.563 10.3019H13.1844L12.7183 10.9379ZM3.83578 38.2196H5.90612C6.04048 38.2196 6.16934 38.1322 6.26434 37.9766C6.35935 37.821 6.41273 37.61 6.41273 37.39C6.41273 37.17 6.35935 36.959 6.26434 36.8034C6.16934 36.6478 6.04048 36.5604 5.90612 36.5604H3.83578V10.2908H11.1816L7.97646 12.3813C7.91455 12.4215 7.85809 12.4814 7.81032 12.5574C7.76254 12.6334 7.72439 12.724 7.69804 12.8242C7.67169 12.9244 7.65766 13.0321 7.65675 13.1411C7.65585 13.2502 7.66808 13.3584 7.69276 13.4598L8.27367 15.8766L8.17573 15.9374C7.90961 16.1088 7.66672 16.3643 7.46092 16.6895C7.25511 17.0146 7.09043 17.4029 6.97628 17.8322C6.86212 18.2615 6.80072 18.7235 6.79559 19.1916C6.79045 19.6598 6.84168 20.1251 6.94636 20.5608C7.05103 20.9966 7.20709 21.3943 7.40563 21.7313C7.60418 22.0683 7.84131 22.338 8.1035 22.5249C8.36568 22.7119 8.64779 22.8124 8.9337 22.8208C9.21962 22.8292 9.50374 22.7453 9.76986 22.5739L9.8678 22.5131L10.4487 24.9299C10.473 25.0318 10.5093 25.1248 10.5555 25.2036C10.6018 25.2824 10.6571 25.3455 10.7183 25.3892C10.7795 25.4329 10.8454 25.4563 10.9122 25.4582C10.9789 25.46 11.0452 25.4402 11.1073 25.4L11.4754 25.1013L14.0152 29.852C14.2006 30.1984 14.4259 30.4817 14.6781 30.6855C14.9304 30.8894 15.2047 31.01 15.4854 31.0403C15.766 31.0706 16.0476 31.01 16.314 30.8621C16.5804 30.7142 16.8265 30.4819 17.038 30.1783C17.2496 29.8747 17.4225 29.5059 17.5471 29.0928C17.6716 28.6798 17.7452 28.2306 17.7637 27.771C17.7822 27.3114 17.7452 26.8503 17.6549 26.414C17.5646 25.9778 17.4227 25.575 17.2373 25.2285L15.4371 21.8881L24.8938 21.1028C24.9722 21.0948 25.0483 21.0572 25.1162 20.9928C25.1841 20.9284 25.242 20.8391 25.2852 20.7318C25.3284 20.6246 25.3558 20.5023 25.3653 20.3748C25.3747 20.2472 25.366 20.1178 25.3396 19.9967L24.215 15.329H24.2319C24.3354 15.2379 24.4348 15.1343 24.5291 15.0193L24.5662 14.9751C24.6598 14.857 24.7479 14.7276 24.8297 14.588L24.8769 14.505C24.9557 14.3627 25.028 14.2112 25.0931 14.0515L25.1235 13.9685C25.1907 13.792 25.2495 13.6071 25.2991 13.4155C25.4266 12.9409 25.4952 12.4296 25.501 11.9112C25.5068 11.3929 25.4496 10.8778 25.3329 10.3959L25.316 10.324H27.9706V36.5936H8.07778C7.94342 36.5936 7.81457 36.681 7.71956 36.8366C7.62455 36.9922 7.57118 37.2032 7.57118 37.4232C7.57118 37.6432 7.62455 37.8542 7.71956 38.0098C7.81457 38.1653 7.94342 38.2527 8.07778 38.2527H27.9841V40.4649H3.83578V38.2196ZM20.0709 42.0909L19.7332 43.0587H12.0732L11.7355 42.0909H20.0709ZM29.7134 44.6128C29.2 46.648 28.0449 46.7918 26.2043 46.7918H5.60215C3.76147 46.7918 2.6064 46.6424 2.09304 44.6128L1.45809 42.0909H10.5771L11.3133 44.3031C11.3571 44.434 11.4216 44.5431 11.5 44.6191C11.5785 44.695 11.668 44.7348 11.7591 44.7344H20.0338C20.1249 44.7348 20.2144 44.695 20.2929 44.6191C20.3713 44.5431 20.4358 44.434 20.4796 44.3031L21.2159 42.0909H30.3348L29.7134 44.6128Z" fill="#109CF1"/>
</svg>
