<svg width="54" height="55" viewBox="0 0 54 55" fill="none" xmlns="http://www.w3.org/2000/svg">
<path d="M53.0767 20.0207L27.4918 0.58375C27.2891 0.429277 27.0578 0.429277 26.855 0.58375L16.4822 8.46393C16.0892 8.76262 15.913 9.54592 16.0888 10.2144C16.2646 10.8829 16.726 11.1822 17.1194 10.8836L27.1732 3.24534L36.3774 10.2376V19.9995C31.4927 16.9647 27.38 16.7344 27.195 16.7255C27.1805 16.7248 27.166 16.7248 27.1515 16.7255C26.9532 16.7344 22.2358 16.9989 16.8942 20.7056C14.7632 22.1833 12.8165 24.0233 11.1083 26.1737C10.9804 26.335 10.8871 26.5564 10.8364 26.8052L3.49931 21.2305L13.7852 13.416C14.1787 13.1173 14.3549 12.334 14.1787 11.6655C14.0029 10.997 13.5414 10.6976 13.1484 10.9963L1.26978 20.0207C0.988981 20.234 0.80835 20.7083 0.80835 21.2305C0.80835 21.7534 0.988981 22.2271 1.26978 22.4403L10.7925 29.676V36.0223C10.7925 36.7544 11.1421 37.3477 11.5726 37.3477C12.0034 37.3477 12.3526 36.7544 12.3526 36.0223V28.8448C12.3526 28.8441 12.3526 28.8428 12.3526 28.8421V27.9132C13.8798 26.0609 15.604 24.4628 17.4839 23.1594C22.3726 19.7671 26.8256 19.4001 27.1736 19.3762C27.5144 19.3987 31.6733 19.7364 36.3774 22.8313V36.0012C35.2369 36.5739 34.4017 38.3702 34.4017 40.4918C34.4017 42.4412 35.1065 44.1158 36.1062 44.8191L35.5607 47.2585C32.0012 48.2995 29.1827 49.7322 27.1732 51.5271C22.5448 47.3959 14.7942 46.2285 12.353 45.9544V42.2368C12.353 41.5048 12.0034 40.9115 11.573 40.9115C11.1421 40.9115 10.7929 41.5048 10.7929 42.2368V47.2066C10.7929 47.9154 11.1216 48.4991 11.5388 48.5306C11.6406 48.5381 21.7784 49.3426 26.7874 54.1893C26.9069 54.3048 27.0401 54.3629 27.1736 54.3629C27.3068 54.3629 27.44 54.3048 27.5598 54.1886C29.2438 52.5578 31.7691 51.1744 34.9138 50.1505L34.4528 52.2133C34.3615 52.6207 34.394 53.0779 34.5397 53.4368C34.6853 53.7949 34.9255 54.0096 35.1817 54.0096H39.1339C39.3906 54.0096 39.6303 53.7949 39.776 53.4368C39.9216 53.0779 39.9542 52.6207 39.8633 52.2133L39.158 49.0603C41.2805 48.6474 42.7908 48.5312 42.8081 48.5299C43.2252 48.4991 43.5543 47.9154 43.5543 47.2059V42.2361C43.5543 41.5048 43.2047 40.9108 42.7743 40.9108C42.3434 40.9108 41.9942 41.5048 41.9942 42.2361V45.9558C41.2661 46.0392 40.056 46.2039 38.5864 46.5053L38.2094 44.8191C39.2087 44.1158 39.9139 42.4412 39.9139 40.4918C39.9139 38.3695 39.0788 36.5739 37.9379 36.0012V23.9543C39.403 25.0964 40.7636 26.4204 41.9942 27.9132V28.8421V28.8448V36.0223C41.9942 36.7544 42.3434 37.3477 42.7743 37.3477C43.2051 37.3477 43.5543 36.7544 43.5543 36.0223V29.676L53.0771 22.4403C53.3579 22.2271 53.5385 21.7534 53.5385 21.2305C53.5385 20.7083 53.3575 20.234 53.0767 20.0207V20.0207ZM36.3122 51.3589L37.1574 47.5798L38.0026 51.3589H36.3122ZM38.3534 40.4918C38.3534 41.6121 37.8172 42.5232 37.1574 42.5232C36.4981 42.5232 35.9618 41.6121 35.9618 40.4918C35.9618 39.3709 36.4981 38.4597 37.1574 38.4597C37.8172 38.4597 38.3534 39.3709 38.3534 40.4918ZM43.5101 26.8052C43.4594 26.5564 43.3661 26.335 43.2381 26.1737C41.6611 24.1881 39.8785 22.4711 37.9375 21.0555V11.4228L50.8471 21.2305L43.5101 26.8052Z" fill="#334D6E"/>
</svg>
