<svg width="31" height="46" viewBox="0 0 31 46" fill="none" xmlns="http://www.w3.org/2000/svg">
<path d="M27.6733 4.89984H25.2189V3.29217C25.2189 2.43941 25.012 1.62158 24.6437 1.01859C24.2755 0.4156 23.7761 0.0768433 23.2553 0.0768433C22.7345 0.0768433 22.2351 0.4156 21.8668 1.01859C21.4986 1.62158 21.2917 2.43941 21.2917 3.29217V4.89984H17.3646V3.29217C17.3646 2.43941 17.1577 1.62158 16.7895 1.01859C16.4212 0.4156 15.9218 0.0768433 15.401 0.0768433C14.8802 0.0768433 14.3808 0.4156 14.0125 1.01859C13.6443 1.62158 13.4374 2.43941 13.4374 3.29217V4.89984H9.51028V3.29217C9.51028 2.43941 9.3034 1.62158 8.93516 1.01859C8.56692 0.4156 8.06747 0.0768433 7.5467 0.0768433C7.02593 0.0768433 6.52649 0.4156 6.15825 1.01859C5.79 1.62158 5.58313 2.43941 5.58313 3.29217V4.89984H3.12866C2.4777 4.89984 1.85339 5.32328 1.39309 6.07702C0.932789 6.83076 0.674194 7.85305 0.674194 8.919V41.0723C0.674194 42.1382 0.932789 43.1605 1.39309 43.9143C1.85339 44.668 2.4777 45.0915 3.12866 45.0915H16.8737C17.0039 45.0915 17.1287 45.0068 17.2208 44.856C17.3129 44.7053 17.3646 44.5008 17.3646 44.2876C17.3646 44.0744 17.3129 43.87 17.2208 43.7192C17.1287 43.5685 17.0039 43.4838 16.8737 43.4838H3.12866C2.73844 43.4819 2.36454 43.2272 2.08861 42.7754C1.81268 42.3235 1.65715 41.7113 1.65598 41.0723V16.1535H29.146V29.8186C29.146 30.0318 29.1977 30.2363 29.2898 30.387C29.3819 30.5378 29.5067 30.6225 29.6369 30.6225C29.7671 30.6225 29.892 30.5378 29.984 30.387C30.0761 30.2363 30.1278 30.0318 30.1278 29.8186V8.919C30.1278 7.85305 29.8692 6.83076 29.4089 6.07702C28.9486 5.32328 28.3243 4.89984 27.6733 4.89984ZM22.2735 3.29217C22.2735 2.86579 22.3769 2.45688 22.5611 2.15538C22.7452 1.85389 22.9949 1.68451 23.2553 1.68451C23.5157 1.68451 23.7654 1.85389 23.9495 2.15538C24.1336 2.45688 24.2371 2.86579 24.2371 3.29217V8.11517C24.2371 8.54155 24.1336 8.95046 23.9495 9.25196C23.7654 9.55345 23.5157 9.72283 23.2553 9.72283C22.9949 9.72283 22.7452 9.55345 22.5611 9.25196C22.3769 8.95046 22.2735 8.54155 22.2735 8.11517V3.29217ZM14.4192 3.29217C14.4192 2.86579 14.5226 2.45688 14.7068 2.15538C14.8909 1.85389 15.1406 1.68451 15.401 1.68451C15.6614 1.68451 15.9111 1.85389 16.0952 2.15538C16.2793 2.45688 16.3828 2.86579 16.3828 3.29217V8.11517C16.3828 8.54155 16.2793 8.95046 16.0952 9.25196C15.9111 9.55345 15.6614 9.72283 15.401 9.72283C15.1406 9.72283 14.8909 9.55345 14.7068 9.25196C14.5226 8.95046 14.4192 8.54155 14.4192 8.11517V3.29217ZM6.56492 3.29217C6.56492 2.86579 6.66835 2.45688 6.85247 2.15538C7.03659 1.85389 7.28632 1.68451 7.5467 1.68451C7.80709 1.68451 8.05681 1.85389 8.24093 2.15538C8.42505 2.45688 8.52849 2.86579 8.52849 3.29217V8.11517C8.52849 8.54155 8.42505 8.95046 8.24093 9.25196C8.05681 9.55345 7.80709 9.72283 7.5467 9.72283C7.28632 9.72283 7.03659 9.55345 6.85247 9.25196C6.66835 8.95046 6.56492 8.54155 6.56492 8.11517V3.29217ZM29.146 14.5458H1.65598V8.919C1.65715 8.28002 1.81268 7.66775 2.08861 7.21592C2.36454 6.76409 2.73844 6.50941 3.12866 6.5075H5.58313V8.11517C5.58313 8.96793 5.79 9.78576 6.15825 10.3888C6.52649 10.9917 7.02593 11.3305 7.5467 11.3305C8.06747 11.3305 8.56692 10.9917 8.93516 10.3888C9.3034 9.78576 9.51028 8.96793 9.51028 8.11517V6.5075H13.4374V8.11517C13.4374 8.96793 13.6443 9.78576 14.0125 10.3888C14.3808 10.9917 14.8802 11.3305 15.401 11.3305C15.9218 11.3305 16.4212 10.9917 16.7895 10.3888C17.1577 9.78576 17.3646 8.96793 17.3646 8.11517V6.5075H21.2917V8.11517C21.2917 8.96793 21.4986 9.78576 21.8668 10.3888C22.2351 10.9917 22.7345 11.3305 23.2553 11.3305C23.7761 11.3305 24.2755 10.9917 24.6437 10.3888C25.012 9.78576 25.2189 8.96793 25.2189 8.11517V6.5075H27.6733C28.0636 6.50941 28.4375 6.76409 28.7134 7.21592C28.9893 7.66775 29.1448 8.28002 29.146 8.919V14.5458Z" fill="#109CF1"/>
</svg>
