<svg width="56" height="50" viewBox="0 0 56 50" fill="none" xmlns="http://www.w3.org/2000/svg">
<path d="M41.6726 44.0254L41.6726 44.0254C37.5748 46.4328 32.8211 47.7056 27.925 47.7056C13.9688 47.7056 2.64101 37.4356 2.64101 24.8426C2.64101 12.2496 13.9688 1.97956 27.925 1.97956C41.8813 1.97956 53.2091 12.2496 53.2091 24.8426C53.2091 29.2629 51.8054 33.5583 49.1478 37.2636C48.9832 37.4924 48.9423 37.7793 49.0392 38.0415L41.6726 44.0254ZM41.6726 44.0254C41.8312 43.9323 42.0131 43.8851 42.1956 43.8851C42.297 43.8851 42.399 43.8994 42.4988 43.93C42.499 43.9301 42.4992 43.9301 42.4993 43.9302L52.2963 46.885M41.6726 44.0254L52.2963 46.885M52.2963 46.885L49.0392 38.0417L52.2963 46.885ZM27.925 0.194849C42.9226 0.194849 55.15 11.2379 55.15 24.8426C55.15 29.4689 53.7256 33.9665 51.0278 37.8776L54.7569 48.0023C54.8779 48.3298 54.7813 48.6879 54.519 48.9253C54.2591 49.1604 53.8786 49.2421 53.5349 49.1366C53.5348 49.1366 53.5347 49.1365 53.5346 49.1365L42.326 45.7559C38.0036 48.2011 33.0352 49.4904 27.925 49.4904C12.9275 49.4904 0.700096 38.4473 0.700096 24.8426C0.700096 11.2379 12.9275 0.194849 27.925 0.194849Z" fill="#334D6E" stroke="#334D6E" stroke-width="0.3"/>
<path d="M24.6249 15.8784L24.6248 15.8784C23.4252 16.7729 22.7422 18.0875 22.7422 19.483C22.7422 19.9899 22.2936 20.3753 21.7717 20.3753C21.2499 20.3753 20.8013 19.9899 20.8013 19.483C20.8013 17.5408 21.7519 15.7228 23.4015 14.4925L24.6249 15.8784ZM24.6249 15.8784C25.8243 14.9833 27.4092 14.6251 28.9776 14.9004C31.0026 15.2565 32.617 16.7257 33.0065 18.5394C33.4398 20.5593 32.4659 22.5217 30.5049 23.5394C28.3204 24.6723 26.9547 26.7897 26.9547 29.0705V32.103C26.9547 32.61 27.4033 32.9954 27.9251 32.9954C28.447 32.9954 28.8956 32.61 28.8956 32.103V29.0705C28.8956 27.4433 29.8725 25.9169 31.4588 25.0932C34.1077 23.7193 35.5018 20.9479 34.9102 18.1937L34.7636 18.2252L34.9102 18.1937C34.3655 15.6576 32.1228 13.637 29.3421 13.1478C27.2165 12.7727 25.0501 13.2622 23.4015 14.4925L24.6249 15.8784Z" fill="#334D6E" stroke="#334D6E" stroke-width="0.3"/>
<path d="M27.9412 34.8769H27.9331C27.4114 34.8769 26.9667 35.2625 26.9667 35.7683C26.9667 36.2759 27.4214 36.6597 27.9412 36.6597C28.4628 36.6597 28.9116 36.2749 28.9116 35.7683C28.9116 35.2617 28.4628 34.8769 27.9412 34.8769Z" fill="#334D6E" stroke="#334D6E" stroke-width="0.3"/>
</svg>
