<svg width="25" height="51" viewBox="0 0 25 51" fill="none" xmlns="http://www.w3.org/2000/svg">
<path d="M2.75193 0.532227C1.6271 0.532227 0.700195 2.05003 0.700195 3.89192V47.5679C0.700195 49.4098 1.6271 50.9276 2.75193 50.9276H22.5854C23.7102 50.9276 24.6371 49.4098 24.6371 47.5679V3.89192C24.6371 2.05003 23.7102 0.532227 22.5854 0.532227H2.75193ZM2.75193 2.77202H22.5854C22.9761 2.77202 23.2693 3.25214 23.2693 3.89192V47.5679C23.2693 48.2077 22.9761 48.6878 22.5854 48.6878H2.75193C2.36121 48.6878 2.06802 48.2077 2.06802 47.5679V3.89192C2.06802 3.25214 2.36121 2.77202 2.75193 2.77202ZM16.366 6.67416C16.1939 6.70334 16.0299 6.84407 15.9172 7.05913L11.5466 15.2484L9.3132 12.5011C9.02541 12.1447 8.56449 12.2541 8.35026 12.7295C8.13605 13.2049 8.20821 13.9583 8.50106 14.3035L11.2367 17.6632C11.5085 17.9927 11.9315 17.9202 12.1557 17.5057L16.9431 8.54649C17.1303 8.21375 17.1752 7.68689 17.0507 7.28298C16.9262 6.87908 16.6407 6.6252 16.366 6.67416ZM5.48757 23.4901C5.10985 23.4901 4.80366 23.9915 4.80366 24.61C4.80366 25.2285 5.10985 25.7299 5.48757 25.7299H19.8497C20.2274 25.7299 20.5336 25.2285 20.5336 24.61C20.5336 23.9915 20.2274 23.4901 19.8497 23.4901H5.48757ZM5.48757 32.4493C5.10985 32.4493 4.80366 32.9507 4.80366 33.5692C4.80366 34.1877 5.10985 34.6891 5.48757 34.6891H19.8497C20.2274 34.6891 20.5336 34.1877 20.5336 33.5692C20.5336 32.9507 20.2274 32.4493 19.8497 32.4493H5.48757ZM5.48757 41.4085C5.10985 41.4085 4.80366 41.9099 4.80366 42.5284C4.80366 43.1469 5.10985 43.6483 5.48757 43.6483H19.8497C20.2274 43.6483 20.5336 43.1469 20.5336 42.5284C20.5336 41.9099 20.2274 41.4085 19.8497 41.4085H5.48757Z" fill="#109CF1"/>
</svg>
