<svg width="25" height="47" viewBox="0 0 25 47" fill="none" xmlns="http://www.w3.org/2000/svg">
<path d="M8.74293 0.130125H8.69821C8.61519 0.118201 8.53117 0.130628 8.45233 0.166494C8.37348 0.202359 8.30182 0.260752 8.2426 0.33738L0.416207 10.5183C0.381135 10.565 0.35105 10.6175 0.326763 10.6746L0.309992 10.7146C0.288276 10.7711 0.272302 10.831 0.262475 10.8928C0.25594 10.9408 0.253131 10.9895 0.254089 11.0382V45.9443C0.254089 46.1371 0.312987 46.3221 0.417825 46.4585C0.522663 46.5948 0.664854 46.6715 0.813117 46.6715H24.2923C24.4406 46.6715 24.5828 46.5948 24.6876 46.4585C24.7924 46.3221 24.8513 46.1371 24.8513 45.9443V0.857334C24.8513 0.664466 24.7924 0.479498 24.6876 0.34312C24.5828 0.206742 24.4406 0.130125 24.2923 0.130125H8.74293ZM8.08048 2.61354V10.311H2.16317L8.08048 2.61354ZM23.7333 45.217H1.37215V11.7655H8.63951C8.78778 11.7655 8.92997 11.6888 9.03481 11.5525C9.13964 11.4161 9.19854 11.2311 9.19854 11.0382V1.58454H23.7333V45.217Z" fill="#109CF1"/>
<path d="M9.75782 33.582H5.28559C5.13733 33.582 4.99514 33.6586 4.8903 33.795C4.78546 33.9314 4.72656 34.1163 4.72656 34.3092V40.1269C4.72656 40.3197 4.78546 40.5047 4.8903 40.6411C4.99514 40.7775 5.13733 40.8541 5.28559 40.8541H9.75782C9.90608 40.8541 10.0483 40.7775 10.1531 40.6411C10.2579 40.5047 10.3168 40.3197 10.3168 40.1269V34.3092C10.3168 34.1163 10.2579 33.9314 10.1531 33.795C10.0483 33.6586 9.90608 33.582 9.75782 33.582ZM9.19879 39.3997H5.84462V35.0364H9.19879V39.3997Z" fill="#109CF1"/>
<path d="M10.1517 23.6265C10.0998 23.5588 10.0381 23.5052 9.97027 23.4686C9.90241 23.432 9.82966 23.4132 9.7562 23.4132C9.68273 23.4132 9.60999 23.432 9.54212 23.4686C9.47426 23.5052 9.4126 23.5588 9.36069 23.6265L7.52148 26.0153L5.68508 23.6265C5.58018 23.49 5.43791 23.4133 5.28956 23.4133C5.14122 23.4133 4.99895 23.49 4.89405 23.6265C4.78915 23.7629 4.73022 23.948 4.73022 24.141C4.73022 24.3339 4.78915 24.519 4.89405 24.6555L6.73605 27.0371L4.89964 29.4259C4.79474 29.5624 4.73581 29.7475 4.73581 29.9404C4.73581 30.1334 4.79474 30.3185 4.89964 30.4549C5.00454 30.5914 5.14681 30.6681 5.29515 30.6681C5.4435 30.6681 5.58577 30.5914 5.69067 30.4549L7.52148 28.0697L9.35789 30.4586C9.46279 30.595 9.60506 30.6717 9.7534 30.6717C9.90175 30.6717 10.044 30.595 10.1489 30.4586C10.2538 30.3221 10.3127 30.1371 10.3127 29.9441C10.3127 29.7511 10.2538 29.566 10.1489 29.4296L8.3153 27.0371L10.1517 24.6482C10.255 24.5121 10.3129 24.3286 10.3129 24.1373C10.3129 23.9461 10.255 23.7626 10.1517 23.6265V23.6265Z" fill="#109CF1"/>
<path d="M7.05771 17.2778L5.6797 15.4852C5.57481 15.3488 5.43254 15.2721 5.28419 15.2721C5.13585 15.2721 4.99358 15.3488 4.88868 15.4852C4.78378 15.6217 4.72485 15.8067 4.72485 15.9997C4.72485 16.1927 4.78378 16.3778 4.88868 16.5142L6.6608 18.8195C6.71272 18.8871 6.77437 18.9407 6.84224 18.9773C6.9101 19.0139 6.98285 19.0328 7.05631 19.0328C7.12978 19.0328 7.20252 19.0139 7.27039 18.9773C7.33825 18.9407 7.3999 18.8871 7.45182 18.8195L10.1519 15.3071C10.2568 15.1706 10.3158 14.9855 10.3158 14.7926C10.3158 14.5996 10.2568 14.4145 10.1519 14.2781C10.047 14.1416 9.90476 14.0649 9.75642 14.0649C9.60807 14.0649 9.4658 14.1416 9.36091 14.2781L7.05771 17.2778Z" fill="#109CF1"/>
<path d="M11.9938 17.5814H19.8202C19.9685 17.5814 20.1107 17.5049 20.2155 17.3687C20.3204 17.2325 20.3793 17.0478 20.3793 16.8551C20.3793 16.6625 20.3204 16.4778 20.2155 16.3415C20.1107 16.2053 19.9685 16.1288 19.8202 16.1288H11.9938C11.8456 16.1288 11.7034 16.2053 11.5985 16.3415C11.4937 16.4778 11.4348 16.6625 11.4348 16.8551C11.4348 17.0478 11.4937 17.2325 11.5985 17.3687C11.7034 17.5049 11.8456 17.5814 11.9938 17.5814Z" fill="#109CF1"/>
<path d="M11.9938 27.7622H19.8202C19.9685 27.7622 20.1107 27.6857 20.2155 27.5495C20.3204 27.4133 20.3793 27.2285 20.3793 27.0359C20.3793 26.8433 20.3204 26.6585 20.2155 26.5223C20.1107 26.3861 19.9685 26.3096 19.8202 26.3096H11.9938C11.8456 26.3096 11.7034 26.3861 11.5985 26.5223C11.4937 26.6585 11.4348 26.8433 11.4348 27.0359C11.4348 27.2285 11.4937 27.4133 11.5985 27.5495C11.7034 27.6857 11.8456 27.7622 11.9938 27.7622Z" fill="#109CF1"/>
<path d="M11.9938 37.9433H19.8202C19.9685 37.9433 20.1107 37.8668 20.2155 37.7306C20.3204 37.5944 20.3793 37.4096 20.3793 37.217C20.3793 37.0243 20.3204 36.8396 20.2155 36.7034C20.1107 36.5672 19.9685 36.4907 19.8202 36.4907H11.9938C11.8456 36.4907 11.7034 36.5672 11.5985 36.7034C11.4937 36.8396 11.4348 37.0243 11.4348 37.217C11.4348 37.4096 11.4937 37.5944 11.5985 37.7306C11.7034 37.8668 11.8456 37.9433 11.9938 37.9433Z" fill="#109CF1"/>
</svg>
