<svg width="16" height="16" viewBox="0 0 16 16" fill="none" xmlns="http://www.w3.org/2000/svg">
<path d="M8 0C10.1217 0 12.1566 0.842855 13.6569 2.34315C15.1571 3.84344 16 5.87827 16 8C16 10.1217 15.1571 12.1566 13.6569 13.6569C12.1566 15.1571 10.1217 16 8 16C5.87827 16 3.84344 15.1571 2.34315 13.6569C0.842855 12.1566 0 10.1217 0 8C0 5.87827 0.842855 3.84344 2.34315 2.34315C3.84344 0.842855 5.87827 0 8 0ZM8 1C7.08075 1 6.1705 1.18106 5.32122 1.53284C4.47194 1.88463 3.70026 2.40024 3.05025 3.05025C2.40024 3.70026 1.88463 4.47194 1.53284 5.32122C1.18106 6.1705 1 7.08075 1 8C1 8.91925 1.18106 9.82951 1.53284 10.6788C1.88463 11.5281 2.40024 12.2997 3.05025 12.9497C3.70026 13.5998 4.47194 14.1154 5.32122 14.4672C6.1705 14.8189 7.08075 15 8 15C9.85652 15 11.637 14.2625 12.9497 12.9497C14.2625 11.637 15 9.85652 15 8C15 6.14348 14.2625 4.36301 12.9497 3.05025C11.637 1.7375 9.85652 1 8 1ZM5.155 12.4621C5.87781 11.7344 6.85195 11.3112 7.87715 11.2796C8.90235 11.248 9.90072 11.6103 10.667 12.2921L10.845 12.4621C10.9329 12.5514 11.051 12.6044 11.1761 12.6108C11.3012 12.6171 11.4241 12.5763 11.5205 12.4963C11.617 12.4164 11.6799 12.3031 11.6968 12.179C11.7137 12.0549 11.6835 11.929 11.612 11.8261L11.555 11.7561L11.532 11.7341C11.0652 11.2702 10.5115 10.9029 9.90273 10.653C9.29391 10.4031 8.64184 10.2756 7.98374 10.2777C7.32564 10.2799 6.6744 10.4116 6.06722 10.6654C5.46004 10.9193 4.90881 11.2902 4.445 11.7571C4.35151 11.8513 4.29925 11.9787 4.29972 12.1114C4.30019 12.2441 4.35335 12.3711 4.4475 12.4646C4.54165 12.5581 4.66909 12.6104 4.80177 12.6099C4.93445 12.6094 5.06151 12.5563 5.155 12.4621ZM10.5 5.5C10.7652 5.5 11.0196 5.60536 11.2071 5.79289C11.3946 5.98043 11.5 6.23478 11.5 6.5C11.5 6.76522 11.3946 7.01957 11.2071 7.20711C11.0196 7.39464 10.7652 7.5 10.5 7.5C10.2348 7.5 9.98043 7.39464 9.79289 7.20711C9.60536 7.01957 9.5 6.76522 9.5 6.5C9.5 6.23478 9.60536 5.98043 9.79289 5.79289C9.98043 5.60536 10.2348 5.5 10.5 5.5ZM5.5 5.5C5.76522 5.5 6.01957 5.60536 6.20711 5.79289C6.39464 5.98043 6.5 6.23478 6.5 6.5C6.5 6.76522 6.39464 7.01957 6.20711 7.20711C6.01957 7.39464 5.76522 7.5 5.5 7.5C5.23478 7.5 4.98043 7.39464 4.79289 7.20711C4.60536 7.01957 4.5 6.76522 4.5 6.5C4.5 6.23478 4.60536 5.98043 4.79289 5.79289C4.98043 5.60536 5.23478 5.5 5.5 5.5Z" fill="#EA1111"/>
</svg>
