<svg width="16" height="16" viewBox="0 0 16 16" fill="none" xmlns="http://www.w3.org/2000/svg">
<path d="M8 0C10.1217 0 12.1566 0.842855 13.6569 2.34315C15.1571 3.84344 16 5.87827 16 8C16 10.1217 15.1571 12.1566 13.6569 13.6569C12.1566 15.1571 10.1217 16 8 16C5.87827 16 3.84344 15.1571 2.34315 13.6569C0.842855 12.1566 0 10.1217 0 8C0 5.87827 0.842855 3.84344 2.34315 2.34315C3.84344 0.842855 5.87827 0 8 0V0ZM8 1C7.08075 1 6.1705 1.18106 5.32122 1.53284C4.47194 1.88463 3.70026 2.40024 3.05025 3.05025C2.40024 3.70026 1.88463 4.47194 1.53284 5.32122C1.18106 6.1705 1 7.08075 1 8C1 8.91925 1.18106 9.82951 1.53284 10.6788C1.88463 11.5281 2.40024 12.2997 3.05025 12.9497C3.70026 13.5998 4.47194 14.1154 5.32122 14.4672C6.1705 14.8189 7.08075 15 8 15C9.85652 15 11.637 14.2625 12.9497 12.9497C14.2625 11.637 15 9.85652 15 8C15 6.14348 14.2625 4.36301 12.9497 3.05025C11.637 1.7375 9.85652 1 8 1ZM5.155 10.427C5.87781 11.1547 6.85195 11.5779 7.87715 11.6095C8.90235 11.6411 9.90072 11.2788 10.667 10.597L10.845 10.427C10.9329 10.3377 11.051 10.2847 11.1761 10.2783C11.3012 10.272 11.4241 10.3129 11.5205 10.3928C11.617 10.4728 11.6799 10.586 11.6968 10.7101C11.7137 10.8342 11.6835 10.9601 11.612 11.063L11.555 11.133L11.532 11.155C11.0652 11.6189 10.5115 11.9862 9.90273 12.2361C9.29391 12.486 8.64184 12.6135 7.98374 12.6114C7.32564 12.6093 6.6744 12.4775 6.06722 12.2237C5.46004 11.9698 4.90881 11.5989 4.445 11.132C4.35151 11.0378 4.29925 10.9104 4.29972 10.7777C4.30019 10.645 4.35335 10.518 4.4475 10.4245C4.54165 10.331 4.66909 10.2788 4.80177 10.2792C4.93445 10.2797 5.06151 10.3328 5.155 10.427V10.427ZM10.5 5.5C10.7652 5.5 11.0196 5.60536 11.2071 5.79289C11.3946 5.98043 11.5 6.23478 11.5 6.5C11.5 6.76522 11.3946 7.01957 11.2071 7.20711C11.0196 7.39464 10.7652 7.5 10.5 7.5C10.2348 7.5 9.98043 7.39464 9.79289 7.20711C9.60536 7.01957 9.5 6.76522 9.5 6.5C9.5 6.23478 9.60536 5.98043 9.79289 5.79289C9.98043 5.60536 10.2348 5.5 10.5 5.5V5.5ZM5.5 5.5C5.76522 5.5 6.01957 5.60536 6.20711 5.79289C6.39464 5.98043 6.5 6.23478 6.5 6.5C6.5 6.76522 6.39464 7.01957 6.20711 7.20711C6.01957 7.39464 5.76522 7.5 5.5 7.5C5.23478 7.5 4.98043 7.39464 4.79289 7.20711C4.60536 7.01957 4.5 6.76522 4.5 6.5C4.5 6.23478 4.60536 5.98043 4.79289 5.79289C4.98043 5.60536 5.23478 5.5 5.5 5.5V5.5Z" fill="#0FB579"/>
</svg>
