<svg width="28" height="26" viewBox="0 0 28 26" fill="none" xmlns="http://www.w3.org/2000/svg">
<path d="M25.7959 10.0494C25.7624 9.99126 25.7139 9.94294 25.6553 9.90934C25.5968 9.87573 25.5303 9.85804 25.4626 9.85804H20.2386V8.85758C20.2387 8.8038 20.2271 8.75063 20.2048 8.70159C20.1824 8.65256 20.1498 8.60878 20.1091 8.57317L14.384 3.56221V2.12368H16.0189C16.1207 2.12368 16.2184 2.08368 16.2904 2.01246C16.3624 1.94125 16.4028 1.84467 16.4028 1.74396V0.379719C16.4028 0.279011 16.3624 0.182428 16.2904 0.111217C16.2184 0.0400057 16.1207 0 16.0189 0H14C13.8982 0 13.8005 0.0400057 13.7285 0.111217C13.6565 0.182428 13.616 0.279011 13.616 0.379719C13.6182 0.39561 13.6214 0.41134 13.6256 0.426804C13.6214 0.442268 13.6182 0.457999 13.616 0.473889V3.56219L7.89092 8.57316C7.85017 8.60878 7.81755 8.65255 7.79521 8.70159C7.77288 8.75062 7.76134 8.80379 7.76137 8.85757V9.85804H2.5374C2.46971 9.85803 2.40322 9.87573 2.34468 9.90933C2.28614 9.94294 2.23762 9.99126 2.20405 10.0494L0.0505761 13.7761C0.0172151 13.8339 -0.000224678 13.8993 2.18538e-06 13.9658C0.000229049 14.0323 0.0181145 14.0976 0.0518687 14.1551C0.085623 14.2126 0.134062 14.2603 0.192338 14.2935C0.250614 14.3267 0.316684 14.3442 0.383934 14.3442H1.25612V23.8455C1.25612 23.9462 1.29658 24.0428 1.36859 24.114C1.4406 24.1852 1.53826 24.2253 1.6401 24.2253H7.76137V25.6203C7.76137 25.721 7.80182 25.8176 7.87383 25.8888C7.94584 25.96 8.0435 26 8.14534 26H12.34C12.4418 26 12.5395 25.96 12.6115 25.8888C12.6835 25.8176 12.724 25.721 12.724 25.6203V20.0548H15.276V25.6203C15.276 25.721 15.3165 25.8176 15.3885 25.8888C15.4605 25.96 15.5582 26 15.66 26H19.8547C19.9565 26 20.0542 25.96 20.1262 25.8888C20.1982 25.8176 20.2386 25.721 20.2386 25.6203V24.2253H26.3599C26.4617 24.2253 26.5594 24.1852 26.6314 24.114C26.7034 24.0428 26.7439 23.9462 26.7439 23.8455V14.3442H27.6161C27.6833 14.3442 27.7494 14.3267 27.8077 14.2935C27.8659 14.2603 27.9144 14.2126 27.9481 14.1551C27.9819 14.0975 27.9998 14.0323 28 13.9658C28.0002 13.8993 27.9828 13.8339 27.9494 13.7761L25.7959 10.0494ZM15.6349 1.36424H14.384V0.759438H15.6349V1.36424ZM8.52931 9.02852L14 4.24032L19.4707 9.02852V13.2639L14.2544 8.69831C14.1842 8.63685 14.0937 8.60292 14 8.60292C13.9063 8.60292 13.8158 8.63685 13.7456 8.69831L8.52931 13.2639V9.02852ZM2.76015 10.6175H7.76137V13.5848H1.04558L2.76015 10.6175ZM2.02407 23.4658V14.3442H7.76137V23.4658H2.02407ZM19.4707 25.2406H16.044V19.6751C16.044 19.5744 16.0035 19.4778 15.9315 19.4066C15.8595 19.3354 15.7618 19.2954 15.66 19.2954H12.34C12.2382 19.2954 12.1405 19.3354 12.0685 19.4066C11.9965 19.4778 11.956 19.5744 11.956 19.6751V25.2406H8.52931V14.278L14 9.48982L19.4707 14.278L19.4707 25.2406ZM25.9759 23.4658H20.2386V14.3442H25.9759V23.4658ZM26.3599 13.5848H20.2386V10.6175H25.2399L26.9544 13.5848H26.3599Z" fill="#334D6E"/>
</svg>
