<svg width="111" height="111" viewBox="0 0 111 111" fill="none" xmlns="http://www.w3.org/2000/svg">
<g filter="url(#filter0_d)">
<path d="M83.157 83.157C98.4658 67.8482 98.4658 43.0278 83.157 27.719C67.8482 12.4102 43.0278 12.4102 27.719 27.719C12.4102 43.0278 12.4102 67.8482 27.719 83.157C43.0278 98.4658 67.8482 98.4658 83.157 83.157Z" fill="#B9C4E1"/>
</g>
<g filter="url(#filter1_d)">
<path d="M55.4391 68.7347C63.8604 68.7347 70.6873 59.9078 70.6873 49.0192C70.6873 38.1306 63.8604 29.3037 55.4391 29.3037C47.0178 29.3037 40.1909 38.1306 40.1909 49.0192C40.1909 59.9078 47.0178 68.7347 55.4391 68.7347Z" fill="white"/>
<path d="M55.4393 70.1938C42.6851 70.1938 31.4563 74.0922 24.8945 80.0001C32.0798 88.9227 43.0907 94.6369 55.4393 94.6369C67.788 94.6369 78.7989 88.9227 85.9841 80.0001C79.4284 74.0922 68.1996 70.1938 55.4393 70.1938Z" fill="white"/>
<path d="M57.1463 80.3329H53.7383C50.5361 80.3329 47.915 77.7119 47.915 74.5097V61.2651C47.915 58.063 50.5361 55.4419 53.7383 55.4419H57.1463C60.3484 55.4419 62.9695 58.063 62.9695 61.2651V74.5097C62.9695 77.7119 60.3484 80.3329 57.1463 80.3329Z" fill="white"/>
<path d="M42.2977 49.9336C43.1875 52.4881 42.8304 54.9336 41.5108 55.3936C40.1911 55.8537 38.3994 54.1527 37.5095 51.5982C36.6197 49.0437 36.9769 46.5982 38.2965 46.1382C39.6161 45.6721 41.4078 47.373 42.2977 49.9336Z" fill="white"/>
<path d="M73.375 51.5936C74.2632 49.0354 73.9104 46.5891 72.5871 46.1297C71.2638 45.6702 69.471 47.3716 68.5828 49.9298C67.6946 52.488 68.0474 54.9342 69.3707 55.3937C70.694 55.8531 72.4868 54.1518 73.375 51.5936Z" fill="white"/>
<path d="M42.0916 49.8487C40.1122 46.247 38.0722 42.4214 38.1751 38.3051C38.278 34.195 41.4076 29.8548 45.5177 30.0001C46.232 30.0243 46.9524 30.1817 47.6666 30.0848C49.0892 29.885 50.1424 28.7228 51.2926 27.8633C53.8955 25.9323 57.5153 25.4783 60.5177 26.695C62.37 27.4516 63.9378 28.7712 65.7478 29.6308C69.1134 31.2289 73.2659 31.0654 76.4923 29.195C75.8204 30.4601 74.6824 31.471 73.3446 31.9916C74.5795 32.385 75.9415 32.3487 77.1521 31.8887C76.4257 33.2083 75.2151 34.2616 73.8107 34.8003C74.8519 34.8729 75.8991 34.9456 76.9402 35.0182C76.0504 36.2773 74.7792 37.264 73.3325 37.8148C74.1497 37.839 74.9669 37.8693 75.7841 37.8935C75.1727 39.6974 73.5928 41.1441 71.7405 41.586C72.2671 41.5921 72.7938 41.5981 73.3204 41.6102C71.5952 44.1042 69.864 46.5981 68.1388 49.0921C67.6424 49.8063 67.134 50.5327 66.4015 51.0049C65.7962 51.3923 65.0819 51.5739 64.3797 51.7313C59.2586 52.8814 53.962 53.2264 48.7381 52.7482C46.9524 52.5848 45.0819 52.2942 43.6594 51.1925C42.2369 50.0969 41.4802 47.948 42.4548 46.4468" fill="white"/>
<path d="M45.6088 73.9225C45.7238 71.8523 45.9781 69.7942 46.3776 67.7603C47.4006 68.9285 49.1379 69.0738 50.6875 69.1404C53.0362 69.2372 55.3848 69.3341 57.7396 69.4249C58.012 71.029 58.2057 72.9116 57.0434 74.0556C56.5047 74.5823 55.7662 74.8486 55.0398 75.0484C53.4538 75.4903 51.8134 75.7203 50.173 75.7263C48.2238 75.7385 45.8994 75.1513 45.2759 73.305C45.4877 73.1295 45.6996 72.96 45.9115 72.7845" fill="white"/>
<path d="M65.2698 73.9225C65.1548 71.8523 64.9005 69.7942 64.501 67.7603C63.478 68.9285 61.7407 69.0738 60.1911 69.1404C57.8424 69.2372 55.4938 69.3341 53.139 69.4249C52.8666 71.029 52.6729 72.9116 53.8352 74.0556C54.3739 74.5823 55.1124 74.8486 55.8388 75.0484C57.4247 75.4903 59.0652 75.7203 60.7056 75.7263C62.6548 75.7385 64.9792 75.1513 65.6027 73.305C65.3908 73.1295 65.179 72.96 64.9671 72.7845" fill="white"/>
</g>
<defs>
<filter id="filter0_d" x="12.2373" y="16.2373" width="86.4012" height="86.4012" filterUnits="userSpaceOnUse" color-interpolation-filters="sRGB">
<feFlood flood-opacity="0" result="BackgroundImageFix"/>
<feColorMatrix in="SourceAlpha" type="matrix" values="0 0 0 0 0 0 0 0 0 0 0 0 0 0 0 0 0 0 127 0"/>
<feOffset dy="4"/>
<feGaussianBlur stdDeviation="2"/>
<feColorMatrix type="matrix" values="0 0 0 0 0 0 0 0 0 0 0 0 0 0 0 0 0 0 0.1 0"/>
<feBlend mode="normal" in2="BackgroundImageFix" result="effect1_dropShadow"/>
<feBlend mode="normal" in="SourceGraphic" in2="effect1_dropShadow" result="shape"/>
</filter>
<filter id="filter1_d" x="20.8945" y="26.0208" width="69.0896" height="76.6162" filterUnits="userSpaceOnUse" color-interpolation-filters="sRGB">
<feFlood flood-opacity="0" result="BackgroundImageFix"/>
<feColorMatrix in="SourceAlpha" type="matrix" values="0 0 0 0 0 0 0 0 0 0 0 0 0 0 0 0 0 0 127 0"/>
<feOffset dy="4"/>
<feGaussianBlur stdDeviation="2"/>
<feColorMatrix type="matrix" values="0 0 0 0 0 0 0 0 0 0 0 0 0 0 0 0 0 0 0.1 0"/>
<feBlend mode="normal" in2="BackgroundImageFix" result="effect1_dropShadow"/>
<feBlend mode="normal" in="SourceGraphic" in2="effect1_dropShadow" result="shape"/>
</filter>
</defs>
</svg>
