<svg width="19" height="19" viewBox="0 0 19 19" fill="none" xmlns="http://www.w3.org/2000/svg">
<path fill-rule="evenodd" clip-rule="evenodd" d="M10.4472 0.838495C10.4472 0.312504 10.8705 -0.0569763 11.3869 0.0268707C11.3869 0.0268707 11.0838 -0.0344753 11.3942 0.028347C15.7334 0.906338 19 4.74143 19 9.33948C19 14.5862 14.7467 18.8395 9.5 18.8395C4.25329 18.8395 0 14.5862 0 9.33948C0 4.74654 3.25937 0.914867 7.59128 0.0312862C7.90631 -0.0329704 7.61396 0.0267429 7.61396 0.0267429C8.13233 -0.0509148 8.55256 0.312927 8.55256 0.838522V9.81884C8.55256 10.169 8.35189 10.2508 8.10447 10.0017L6.38429 8.27432C5.49099 7.37877 4.1515 8.72241 5.04449 9.61796L8.85271 13.4927C9.21962 13.8673 9.81248 13.8666 10.1799 13.4882L13.9555 9.61796C14.8485 8.72241 13.5087 7.37877 12.6157 8.27432L10.8954 10.0017C10.6478 10.2509 10.4472 10.1675 10.4472 9.81884V0.838495Z" fill="white"/>
</svg>
