<svg width="629" height="156" viewBox="0 0 629 156" fill="none" xmlns="http://www.w3.org/2000/svg">
<g clip-path="url(#clip0)">
<path d="M541.785 90.039L537.559 88.7982L528.366 82.7934V81.4175C531.028 79.4098 532.855 76.341 533.195 72.8232C534.53 72.6083 535.553 71.4483 535.553 70.0539V66.2704C535.553 66.2558 535.551 66.2414 535.551 66.2268V61.434C536.082 61.0532 536.42 60.4329 536.42 59.7371V55.351L542.764 54.2703C543.807 54.0927 544.557 53.2645 544.631 52.2094C544.704 51.1543 544.077 50.2301 543.069 49.9096L521.68 43.1065C521.234 42.9645 520.762 42.9646 520.316 43.1063L498.927 49.9096C497.919 50.2301 497.292 51.1543 497.365 52.2093C497.412 52.8796 497.732 53.4576 498.227 53.8362V59.5718H498.174C496.97 59.5718 495.99 60.5517 495.99 61.7562V64.6033L494.58 72.8793C494.336 74.3108 495.439 75.621 496.894 75.621H501.668C503.121 75.621 504.227 74.3138 503.983 72.8792L502.573 64.6033V61.7562C502.573 60.5517 501.593 59.5718 500.388 59.5718H500.336V54.4583L505.581 55.3516V59.7371C505.581 60.4299 505.917 61.0493 506.446 61.4306L506.448 66.2708V70.0539C506.448 71.4485 507.471 72.6083 508.806 72.8232C509.145 76.339 510.971 79.4064 513.63 81.4143V82.7966L504.439 88.8003L500.216 90.0397C495.698 91.3658 492.508 95.5138 492.508 100.336V103.479C492.508 104.061 492.98 104.533 493.563 104.533C494.145 104.533 494.617 104.061 494.617 103.479V100.336C494.617 96.5353 497.164 93.1337 500.811 92.0635L504.745 90.9087L520.462 100.248C520.781 100.438 521.203 100.448 521.539 100.248L537.257 90.9082L541.191 92.063C544.837 93.1334 547.384 96.5348 547.384 100.335V110.521C547.384 111.828 546.321 112.891 545.014 112.891H540.365V108.345C540.365 107.762 539.893 107.29 539.311 107.29C538.728 107.29 538.256 107.762 538.256 108.345V112.891H503.74V108.345C503.74 107.762 503.268 107.29 502.685 107.29C502.103 107.29 501.631 107.762 501.631 108.345V112.891H496.987C495.68 112.891 494.617 111.828 494.617 110.521V108.409C494.617 107.826 494.145 107.354 493.562 107.354C492.98 107.354 492.508 107.826 492.508 108.409V110.521C492.508 112.991 494.517 115 496.987 115H545.014C547.483 115 549.493 112.991 549.493 110.521V100.335C549.493 95.6266 546.411 91.3973 541.785 90.039ZM501.668 73.5116H496.894C496.747 73.5116 496.634 73.3798 496.659 73.2334L497.935 65.7471H500.628L501.903 73.2333C501.928 73.3794 501.816 73.5116 501.668 73.5116ZM500.463 61.7562V63.6379H498.099V61.7562C498.099 61.7147 498.133 61.6811 498.174 61.6811H500.388C500.43 61.6809 500.463 61.7147 500.463 61.7562ZM517.228 95.4772L517.648 96.1224L506.881 89.7244L513.715 85.2602C514.025 88.8968 515.224 92.3963 517.228 95.4772ZM517.221 90.9245C519.703 91.2772 522.296 91.2774 524.78 90.9245C524.3 92.1054 523.708 93.2451 523.004 94.327L521 97.4073L518.996 94.327C518.292 93.2451 517.701 92.1054 517.221 90.9245ZM524.772 95.4772C526.777 92.3963 527.976 88.8968 528.285 85.2602L535.12 89.7242L524.352 96.1224L524.772 95.4772ZM530.942 61.8268H533.441V65.2156H532.201C531.506 65.2156 530.941 64.6508 530.941 63.9565V61.8268H530.942ZM499.567 51.9197L520.956 45.1163C520.983 45.1076 521.013 45.1074 521.041 45.1164L542.43 51.9197C542.474 51.9338 542.534 51.9529 542.527 52.0628C542.519 52.1724 542.456 52.183 542.411 52.1909L535.339 53.3953L532.684 53.067C532.106 52.9954 531.579 53.4063 531.508 53.9843C531.436 54.5624 531.847 55.0889 532.425 55.1603L534.311 55.3936V59.7175L507.69 59.7166V55.3935L518.603 54.043C520.193 53.8466 521.804 53.8466 523.393 54.043L527.524 54.5539C528.102 54.6255 528.628 54.2147 528.7 53.6368C528.771 53.0587 528.361 52.5322 527.783 52.4606L523.652 51.9497C521.892 51.7319 520.106 51.7319 518.344 51.9497L506.659 53.3956L499.585 52.1909C499.54 52.183 499.477 52.1724 499.469 52.0628C499.462 51.9529 499.522 51.9337 499.567 51.9197ZM508.556 65.2156L508.555 61.8268H511.059V63.9567C511.059 64.6508 510.494 65.2157 509.8 65.2157H508.556V65.2156ZM510.878 72.2811C510.823 71.4223 510.11 70.7496 509.253 70.7496C508.869 70.7496 508.557 70.4374 508.557 70.0538V67.3249H509.8C511.657 67.3249 513.168 65.8139 513.168 63.9567V61.8268H528.832V63.9567C528.832 65.8139 530.343 67.3249 532.201 67.3249H533.443V70.0538C533.443 70.4374 533.131 70.7496 532.747 70.7496C531.891 70.7496 531.177 71.4223 531.123 72.2813C530.787 77.6066 526.34 81.7782 521 81.7782C515.66 81.7782 511.214 77.6066 510.878 72.2811ZM521 83.8875C522.876 83.8875 524.659 83.4586 526.257 82.6959V83.3643C526.257 85.1676 526.013 86.9463 525.545 88.662C522.679 89.2084 519.438 89.2305 516.456 88.662C515.987 86.9465 515.744 85.1677 515.744 83.3643C515.744 83.342 515.741 83.3202 515.739 83.2981C515.739 83.2937 515.74 83.2894 515.739 83.285V82.6938C517.338 83.4577 519.123 83.8875 521 83.8875Z" fill="#EFEFEF"/>
</g>
<g clip-path="url(#clip1)">
<path d="M115.811 119.598L109.649 117.789L96.2418 109.032V107.025C100.123 104.098 102.789 99.6221 103.285 94.4921C105.231 94.1787 106.723 92.487 106.723 90.4535V84.9358C106.723 84.9145 106.721 84.8936 106.72 84.8723V77.8828C107.495 77.3274 107.987 76.4228 107.987 75.4081V69.0117L117.24 67.4357C118.761 67.1767 119.854 65.969 119.962 64.4303C120.069 62.8916 119.153 61.5438 117.683 61.0764L86.4917 51.1552C85.8408 50.948 85.1534 50.9482 84.5029 51.155L53.3107 61.0764C51.8409 61.5438 50.9254 62.8916 51.0327 64.4301C51.1008 65.4077 51.5679 66.2506 52.289 66.8026V75.1672H52.2127C50.4562 75.1672 49.0272 76.5961 49.0272 78.3526V82.5046L46.9709 94.5739C46.6155 96.6614 48.2233 98.5721 50.3459 98.5721H57.3081C59.4259 98.5721 61.0393 96.6659 60.6831 94.5737L58.6267 82.5046V78.3526C58.6267 76.5961 57.1978 75.1672 55.4413 75.1672H55.3652V67.7099L63.0134 69.0126V75.4081C63.0134 76.4185 63.5033 77.3217 64.2752 77.8779L64.2781 84.9365V90.4535C64.2781 92.4872 65.7696 94.1787 67.7164 94.4921C68.2117 99.6192 70.8744 104.093 74.7524 107.021V109.037L61.3481 117.792L55.1907 119.599C48.6017 121.533 43.9493 127.582 43.9493 134.614V139.198C43.9493 140.048 44.6377 140.736 45.4874 140.736C46.337 140.736 47.0255 140.048 47.0255 139.198V134.614C47.0255 129.072 50.7392 124.112 56.0571 122.551L61.7944 120.867L84.7151 134.487C85.1805 134.763 85.7961 134.778 86.2864 134.487L109.209 120.866L114.945 122.55C120.262 124.111 123.976 129.072 123.976 134.613V149.469C123.976 151.374 122.426 152.924 120.521 152.924H113.741V146.294C113.741 145.445 113.053 144.756 112.203 144.756C111.354 144.756 110.665 145.445 110.665 146.294V152.924H60.3291V146.294C60.3291 145.445 59.6406 144.756 58.791 144.756C57.9414 144.756 57.2529 145.445 57.2529 146.294V152.924H50.4806C48.5752 152.924 47.0251 151.374 47.0251 149.469V146.388C47.0251 145.538 46.3366 144.85 45.487 144.85C44.6373 144.85 43.9489 145.538 43.9489 146.388V149.468C43.9489 153.07 46.8788 156 50.4804 156H120.52C124.122 156 127.052 153.07 127.052 149.468V134.613C127.052 127.747 122.558 121.579 115.811 119.598ZM57.3079 95.4959H50.3459C50.1308 95.4959 49.9667 95.3038 50.0032 95.0903L51.8633 84.1727H55.7905L57.6506 95.0901C57.6869 95.3032 57.524 95.4959 57.3079 95.4959ZM55.5506 78.3526V81.0968H52.103V78.3526C52.103 78.2921 52.152 78.2431 52.2125 78.2431H55.4408C55.5015 78.2429 55.5506 78.2921 55.5506 78.3526ZM79.9996 127.529L80.6117 128.47L64.9091 119.14L74.8761 112.629C75.3281 117.933 77.0762 123.036 79.9996 127.529ZM79.9889 120.89C83.6091 121.404 87.3896 121.404 91.0119 120.89C90.3119 122.612 89.4494 124.274 88.4229 125.852L85.5004 130.344L82.5778 125.852C81.5514 124.274 80.6888 122.612 79.9889 120.89ZM91.0012 127.529C93.9246 123.036 95.6727 117.933 96.1245 112.629L106.091 119.139L90.389 128.47L91.0012 127.529ZM99.9982 78.4556H103.644V83.3976H101.834C100.822 83.3976 99.998 82.574 99.998 81.5615V78.4556H99.9982ZM54.243 64.0078L85.4356 54.0861C85.4756 54.0734 85.5186 54.0732 85.5592 54.0864L116.752 64.0078C116.816 64.0283 116.904 64.0562 116.893 64.2164C116.882 64.3764 116.791 64.3917 116.724 64.4032L106.411 66.1597L102.539 65.6809C101.696 65.5765 100.928 66.1757 100.824 67.0186C100.72 67.8617 101.319 68.6295 102.162 68.7336L104.912 69.0739V75.3796L66.0893 75.3782V69.0737L82.0048 67.1043C84.323 66.8178 86.6732 66.8178 88.9898 67.1043L95.0135 67.8494C95.8564 67.9537 96.6244 67.3547 96.7288 66.5118C96.8332 65.6688 96.2342 64.9009 95.3913 64.7966L89.3675 64.0515C86.8006 63.7338 84.1961 63.7338 81.6273 64.0515L64.5865 66.1601L54.2705 64.4032C54.2036 64.3917 54.1123 64.3764 54.1011 64.2164C54.09 64.0562 54.1784 64.0281 54.243 64.0078ZM67.3532 83.3976L67.3512 78.4556H71.0026V81.5617C71.0026 82.574 70.179 83.3978 69.1663 83.3978H67.3532V83.3976ZM70.7384 93.7015C70.6593 92.4491 69.6183 91.468 68.3688 91.468C67.8091 91.468 67.3538 91.0127 67.3538 90.4533V86.4737H69.1663C71.8748 86.4737 74.0786 84.2702 74.0786 81.5617V78.4556H96.922V81.5617C96.922 84.2702 99.1258 86.4737 101.834 86.4737H103.647V90.4533C103.647 91.0127 103.191 91.468 102.632 91.468C101.382 91.468 100.341 92.4491 100.262 93.7017C99.7722 101.468 93.288 107.551 85.5002 107.551C77.7123 107.551 71.2284 101.468 70.7384 93.7015ZM85.5004 110.627C88.2359 110.627 90.8359 110.002 93.1658 108.89V109.865C93.1658 112.494 92.811 115.088 92.1279 117.59C87.948 118.387 83.2224 118.419 78.8729 117.59C78.1898 115.088 77.835 112.494 77.835 109.865C77.835 109.832 77.8305 109.8 77.8284 109.768C77.828 109.762 77.8286 109.755 77.8282 109.749V108.887C80.1597 110.001 82.7622 110.627 85.5004 110.627Z" fill="#EFEFEF"/>
</g>
<g clip-path="url(#clip2)">
<path d="M620.336 100.786L617.929 100.08L612.694 96.6601V95.8766C614.21 94.7334 615.251 92.9858 615.444 90.9827C616.204 90.8603 616.787 90.1997 616.787 89.4057V87.2512C616.787 87.2429 616.786 87.2347 616.785 87.2264V84.4971C617.088 84.2803 617.281 83.9271 617.281 83.5308V81.0332L620.893 80.4178C621.487 80.3167 621.914 79.8451 621.956 79.2443C621.998 78.6434 621.641 78.1172 621.067 77.9347L608.887 74.0606C608.633 73.9798 608.364 73.9798 608.11 74.0606L595.931 77.9347C595.357 78.1172 594.999 78.6434 595.041 79.2442C595.068 79.6259 595.25 79.955 595.532 80.1706V83.4367H595.502C594.816 83.4367 594.258 83.9947 594.258 84.6806V86.3019L593.455 91.0146C593.316 91.8297 593.944 92.5758 594.773 92.5758H597.491C598.318 92.5758 598.948 91.8315 598.809 91.0145L598.006 86.3019V84.6806C598.006 83.9947 597.448 83.4367 596.762 83.4367H596.733V80.5249L599.719 81.0335V83.5308C599.719 83.9254 599.911 84.278 600.212 84.4952L600.213 87.2514V89.4057C600.213 90.1998 600.795 90.8603 601.556 90.9827C601.749 92.9847 602.789 94.7314 604.303 95.8748V96.662L599.069 100.081L596.665 100.786C594.092 101.542 592.275 103.904 592.275 106.649V108.439C592.275 108.771 592.544 109.04 592.876 109.04C593.208 109.04 593.476 108.771 593.476 108.439V106.649C593.476 104.485 594.926 102.548 597.003 101.939L599.243 101.281L608.193 106.6C608.375 106.708 608.615 106.713 608.807 106.6L617.757 101.281L619.997 101.939C622.074 102.548 623.524 104.485 623.524 106.649V112.45C623.524 113.194 622.918 113.799 622.174 113.799H619.527V111.21C619.527 110.879 619.258 110.61 618.927 110.61C618.595 110.61 618.326 110.878 618.326 111.21V113.799H598.671V111.21C598.671 110.879 598.402 110.61 598.07 110.61C597.739 110.61 597.47 110.878 597.47 111.21V113.799H594.825C594.081 113.799 593.476 113.194 593.476 112.45V111.247C593.476 110.915 593.207 110.646 592.876 110.646C592.544 110.646 592.275 110.915 592.275 111.247V112.45C592.275 113.856 593.419 115 594.825 115H622.174C623.581 115 624.725 113.856 624.725 112.45V106.649C624.725 103.968 622.97 101.56 620.336 100.786ZM597.491 91.3747H594.773C594.689 91.3747 594.625 91.2996 594.639 91.2163L595.365 86.9532H596.899L597.625 91.2162C597.639 91.2994 597.576 91.3747 597.491 91.3747ZM596.805 84.6806V85.7521H595.459V84.6806C595.459 84.657 595.478 84.6378 595.502 84.6378H596.762C596.786 84.6378 596.805 84.657 596.805 84.6806ZM606.352 103.883L606.591 104.25L600.459 100.607L604.351 98.0649C604.528 100.136 605.21 102.128 606.352 103.883ZM606.348 101.29C607.761 101.491 609.238 101.491 610.652 101.29C610.379 101.963 610.042 102.612 609.641 103.228L608.5 104.982L607.359 103.228C606.958 102.612 606.621 101.963 606.348 101.29ZM610.648 103.883C611.789 102.128 612.472 100.136 612.648 98.0649L616.54 100.607L610.409 104.25L610.648 103.883ZM614.161 84.7208H615.584V86.6505H614.878C614.483 86.6505 614.161 86.3289 614.161 85.9336V84.7208H614.161ZM596.295 79.0793L608.475 75.2051C608.49 75.2002 608.507 75.2001 608.523 75.2052L620.703 79.0793C620.728 79.0873 620.762 79.0982 620.758 79.1607C620.754 79.2232 620.718 79.2292 620.692 79.2337L616.665 79.9196L615.153 79.7326C614.824 79.6918 614.524 79.9258 614.483 80.2549C614.443 80.5841 614.677 80.8839 615.006 80.9246L616.08 81.0575V83.5197L600.92 83.5191V81.0574L607.135 80.2884C608.04 80.1765 608.958 80.1765 609.862 80.2884L612.215 80.5793C612.544 80.6201 612.844 80.3862 612.884 80.0571C612.925 79.7278 612.691 79.428 612.362 79.3873L610.01 79.0964C609.008 78.9723 607.991 78.9723 606.988 79.0964L600.333 79.9197L596.305 79.2337C596.279 79.2292 596.244 79.2232 596.239 79.1607C596.235 79.0982 596.269 79.0872 596.295 79.0793ZM601.414 86.6505L601.413 84.7208H602.839V85.9337C602.839 86.3289 602.517 86.6506 602.122 86.6506H601.414V86.6505ZM602.736 90.674C602.705 90.1849 602.298 89.8018 601.81 89.8018C601.592 89.8018 601.414 89.6241 601.414 89.4056V87.8517H602.122C603.179 87.8517 604.04 86.9913 604.04 85.9337V84.7208H612.96V85.9337C612.96 86.9913 613.82 87.8517 614.878 87.8517H615.586V89.4056C615.586 89.6241 615.408 89.8018 615.189 89.8018C614.701 89.8018 614.295 90.1849 614.264 90.674C614.073 93.7065 611.541 96.082 608.5 96.082C605.459 96.082 602.927 93.7065 602.736 90.674ZM608.5 97.2831C609.568 97.2831 610.583 97.0389 611.493 96.6046V96.9852C611.493 98.0121 611.354 99.025 611.088 100.002C609.456 100.313 607.61 100.326 605.912 100.002C605.645 99.0251 605.507 98.0122 605.507 96.9852C605.507 96.9725 605.505 96.9601 605.504 96.9475C605.504 96.945 605.504 96.9426 605.504 96.9401V96.6034C606.414 97.0384 607.431 97.2831 608.5 97.2831Z" fill="#EFEFEF"/>
</g>
<g clip-path="url(#clip3)">
<path d="M32.3356 39.7861L29.9293 39.0795L24.6941 35.6601V34.8766C26.2098 33.7334 27.2507 31.9858 27.4442 29.9827C28.2043 29.8603 28.7867 29.1997 28.7867 28.4057V26.2512C28.7867 26.2429 28.7859 26.2347 28.7855 26.2264V23.4971C29.0883 23.2803 29.2805 22.9271 29.2805 22.5308V20.0332L32.8934 19.4178C33.4872 19.3167 33.9142 18.8451 33.9561 18.2443C33.9979 17.6434 33.6405 17.1172 33.0666 16.9347L20.887 13.0606C20.6328 12.9798 20.3644 12.9798 20.1104 13.0606L7.93056 16.9347C7.35664 17.1172 6.99917 17.6434 7.04105 18.2442C7.06764 18.6259 7.25006 18.955 7.53161 19.1706V22.4367H7.50182C6.81595 22.4367 6.25797 22.9947 6.25797 23.6806V25.3019L5.45503 30.0146C5.31625 30.8297 5.94406 31.5758 6.77287 31.5758H9.49144C10.3184 31.5758 10.9484 30.8315 10.8093 30.0145L10.0063 25.3019V23.6806C10.0063 22.9947 9.44836 22.4367 8.76249 22.4367H8.73278V19.5249L11.7192 20.0335V22.5308C11.7192 22.9254 11.9105 23.278 12.2119 23.4952L12.2131 26.2514V28.4057C12.2131 29.1998 12.7955 29.8603 13.5556 29.9827C13.749 31.9847 14.7888 33.7314 16.3031 34.8748V35.662L11.069 39.0807L8.66464 39.7865C6.09181 40.5416 4.27515 42.9037 4.27515 45.6494V47.4393C4.27515 47.771 4.54398 48.0399 4.87574 48.0399C5.2075 48.0399 5.47633 47.7711 5.47633 47.4393V45.6494C5.47633 43.4854 6.92646 41.5484 9.00297 40.939L11.2432 40.2814L20.1932 45.5996C20.3749 45.7075 20.6153 45.7133 20.8068 45.5996L29.7574 40.281L31.9974 40.9386C34.0736 41.5482 35.5237 43.4851 35.5237 45.649V51.4497C35.5237 52.1937 34.9184 52.799 34.1744 52.799H31.5273V50.2102C31.5273 49.8786 31.2584 49.6097 30.9267 49.6097C30.595 49.6097 30.3261 49.8785 30.3261 50.2102V52.799H10.6711V50.2102C10.6711 49.8786 10.4023 49.6097 10.0705 49.6097C9.73873 49.6097 9.4699 49.8785 9.4699 50.2102V52.799H6.82548C6.08148 52.799 5.47617 52.1937 5.47617 51.4497V50.2468C5.47617 49.9151 5.20734 49.6462 4.87558 49.6462C4.54382 49.6462 4.27499 49.915 4.27499 50.2468V51.4496C4.27499 52.8559 5.41907 54 6.8254 54H34.1742C35.5806 54 36.7247 52.8559 36.7247 51.4496V45.6489C36.7247 42.9679 34.97 40.5595 32.3356 39.7861ZM9.49136 30.3747H6.77287C6.68887 30.3747 6.62481 30.2996 6.63906 30.2163L7.36537 25.9532H8.89887L9.62517 30.2162C9.63935 30.2994 9.57577 30.3747 9.49136 30.3747ZM8.80517 23.6806V24.7521H7.45898V23.6806C7.45898 23.657 7.47812 23.6378 7.50174 23.6378H8.76233C8.78604 23.6378 8.80517 23.657 8.80517 23.6806ZM18.3519 42.8829L18.591 43.2503L12.4595 39.6069L16.3513 37.0649C16.5278 39.1357 17.2104 41.1284 18.3519 42.8829ZM18.3478 40.2903C19.7614 40.4912 21.2375 40.4913 22.652 40.2903C22.3787 40.9628 22.0419 41.6118 21.6411 42.2279L20.4999 43.9819L19.3587 42.2279C18.9579 41.6118 18.6211 40.9628 18.3478 40.2903ZM22.6478 42.8829C23.7893 41.1284 24.4719 39.1357 24.6483 37.0649L28.5402 39.6069L22.4088 43.2503L22.6478 42.8829ZM26.1609 23.7208H27.5844V25.6505H26.8778C26.4825 25.6505 26.1608 25.3289 26.1608 24.9336V23.7208H26.1609ZM8.2946 18.0793L20.4746 14.2051C20.4902 14.2002 20.507 14.2001 20.5228 14.2052L32.7027 18.0793C32.7279 18.0873 32.7624 18.0982 32.758 18.1607C32.7536 18.2232 32.7179 18.2292 32.6918 18.2337L28.6649 18.9196L27.153 18.7326C26.824 18.6918 26.5241 18.9258 26.4833 19.2549C26.4426 19.5841 26.6765 19.8839 27.0057 19.9246L28.0795 20.0575V22.5197L12.9203 22.5191V20.0574L19.1349 19.2884C20.0401 19.1765 20.9578 19.1765 21.8624 19.2884L24.2145 19.5793C24.5437 19.6201 24.8435 19.3862 24.8843 19.0571C24.9251 18.7278 24.6912 18.428 24.362 18.3873L22.0099 18.0964C21.0076 17.9723 19.9906 17.9723 18.9875 18.0964L12.3335 18.9197L8.30533 18.2337C8.27922 18.2292 8.24359 18.2232 8.23918 18.1607C8.23486 18.0982 8.26937 18.0872 8.2946 18.0793ZM13.4138 25.6505L13.413 23.7208H14.8388V24.9337C14.8388 25.3289 14.5172 25.6506 14.1218 25.6506H13.4138V25.6505ZM14.7357 29.674C14.7048 29.1849 14.2983 28.8018 13.8104 28.8018C13.5918 28.8018 13.4141 28.6241 13.4141 28.4056V26.8517H14.1218C15.1794 26.8517 16.0399 25.9913 16.0399 24.9337V23.7208H24.9597V24.9337C24.9597 25.9913 25.8203 26.8517 26.8778 26.8517H27.5856V28.4056C27.5856 28.6241 27.4078 28.8018 27.1893 28.8018C26.7014 28.8018 26.2949 29.1849 26.264 29.674C26.0727 32.7065 23.5408 35.082 20.4998 35.082C17.4588 35.082 14.927 32.7065 14.7357 29.674ZM20.4999 36.2831C21.568 36.2831 22.5833 36.0389 23.493 35.6046V35.9852C23.493 37.0121 23.3545 38.025 23.0877 39.0019C21.4556 39.3131 19.6104 39.3257 17.912 39.0019C17.6452 38.0251 17.5067 37.0122 17.5067 35.9852C17.5067 35.9725 17.5049 35.9601 17.5041 35.9475C17.504 35.945 17.5042 35.9426 17.5041 35.9401V35.6034C18.4145 36.0384 19.4307 36.2831 20.4999 36.2831Z" fill="#EFEFEF"/>
</g>
<g clip-path="url(#clip4)">
<path d="M153.589 35.2792L150.419 34.3487L143.524 29.845V28.8131C145.52 27.3074 146.891 25.0057 147.146 22.3674C148.147 22.2063 148.914 21.3362 148.914 20.2904V17.4528C148.914 17.4418 148.913 17.4311 148.913 17.4201V13.8255C149.312 13.5399 149.565 13.0747 149.565 12.5528V9.26324L154.323 8.45271C155.105 8.31951 155.668 7.6984 155.723 6.90707C155.778 6.11574 155.307 5.4226 154.551 5.18223L138.51 0.0798662C138.175 -0.0266572 137.822 -0.0265518 137.487 0.0797607L121.445 5.18223C120.689 5.4226 120.219 6.11574 120.274 6.90696C120.309 7.40973 120.549 7.84321 120.92 8.12713V12.4289H120.881C119.977 12.4289 119.242 13.1638 119.242 14.0671V16.2025L118.185 22.4095C118.002 23.4831 118.829 24.4657 119.921 24.4657H123.501C124.59 24.4657 125.42 23.4854 125.237 22.4094L124.179 16.2025V14.0671C124.179 13.1638 123.444 12.4289 122.541 12.4289H122.502V8.59373L126.435 9.26366V12.5528C126.435 13.0725 126.687 13.5369 127.084 13.823L127.086 17.4531V20.2904C127.086 21.3364 127.853 22.2063 128.854 22.3674C129.109 25.0042 130.478 27.3048 132.473 28.8107V29.8475L125.579 34.3503L122.412 35.2797C119.024 36.2743 116.631 39.3853 116.631 43.0016V45.3591C116.631 45.7959 116.985 46.1501 117.422 46.1501C117.859 46.1501 118.213 45.796 118.213 45.3591V43.0016C118.213 40.1515 120.123 37.6003 122.858 36.7976L125.808 35.9315L137.596 42.936C137.835 43.0782 138.152 43.0858 138.404 42.936L150.193 35.9311L153.143 36.7972C155.878 37.6001 157.788 40.1511 157.788 43.0011V50.6411C157.788 51.621 156.99 52.4182 156.01 52.4182H152.524V49.0086C152.524 48.5718 152.17 48.2176 151.733 48.2176C151.296 48.2176 150.942 48.5717 150.942 49.0086V52.4182H125.055V49.0086C125.055 48.5718 124.701 48.2176 124.264 48.2176C123.827 48.2176 123.473 48.5717 123.473 49.0086V52.4182H119.99C119.01 52.4182 118.213 51.621 118.213 50.6411V49.0567C118.213 48.6199 117.859 48.2657 117.422 48.2657C116.985 48.2657 116.631 48.6197 116.631 49.0567V50.641C116.631 52.4932 118.138 54 119.99 54H156.01C157.862 54 159.369 52.4932 159.369 50.641V43.001C159.369 39.4699 157.058 36.2979 153.589 35.2792ZM123.501 22.8837H119.921C119.81 22.8837 119.726 22.7849 119.744 22.6751L120.701 17.0603H122.721L123.677 22.675C123.696 22.7845 123.612 22.8837 123.501 22.8837ZM122.597 14.0671V15.4784H120.824V14.0671C120.824 14.036 120.849 14.0108 120.881 14.0108H122.541C122.572 14.0107 122.597 14.036 122.597 14.0671ZM135.171 39.3579L135.486 39.8418L127.41 35.0433L132.536 31.6952C132.769 34.4226 133.668 37.0472 135.171 39.3579ZM135.166 35.9434C137.027 36.2079 138.972 36.2081 140.834 35.9434C140.475 36.8291 140.031 37.6838 139.503 38.4953L138 40.8055L136.497 38.4953C135.969 37.6838 135.526 36.8291 135.166 35.9434ZM140.829 39.3579C142.332 37.0472 143.231 34.4226 143.464 31.6952L148.59 35.0432L140.514 39.8418L140.829 39.3579ZM145.456 14.1201H147.331V16.6617H146.4C145.88 16.6617 145.456 16.2381 145.456 15.7174V14.1201H145.456ZM121.925 6.6898L137.967 1.58723C137.987 1.58069 138.009 1.58058 138.03 1.58733L154.072 6.6898C154.105 6.70035 154.151 6.71469 154.145 6.79707C154.139 6.87933 154.092 6.88724 154.058 6.89315L148.754 7.79649L146.763 7.55022C146.329 7.49653 145.934 7.80471 145.881 8.23819C145.827 8.67177 146.135 9.06665 146.569 9.12023L147.983 9.2952V12.5382L128.017 12.5374V9.29509L136.202 8.28228C137.395 8.13494 138.603 8.13494 139.795 8.28228L142.893 8.66545C143.326 8.71913 143.721 8.41105 143.775 7.97758C143.828 7.544 143.52 7.14912 143.087 7.09544L139.989 6.71227C138.669 6.5489 137.329 6.5489 136.008 6.71227L127.244 7.7967L121.939 6.89315C121.905 6.88724 121.858 6.87933 121.852 6.79707C121.846 6.71469 121.892 6.70025 121.925 6.6898ZM128.667 16.6617L128.666 14.1201H130.544V15.7175C130.544 16.2381 130.12 16.6618 129.6 16.6618H128.667V16.6617ZM130.408 21.9608C130.367 21.3167 129.832 20.8122 129.189 20.8122C128.902 20.8122 128.668 20.578 128.668 20.2903V18.2437H129.6C130.993 18.2437 132.126 17.1104 132.126 15.7175V14.1201H143.874V15.7175C143.874 17.1104 145.007 18.2437 146.4 18.2437H147.332V20.2903C147.332 20.578 147.098 20.8122 146.81 20.8122C146.168 20.8122 145.632 21.3167 145.592 21.9609C145.34 25.9549 142.005 29.0837 138 29.0837C133.995 29.0837 130.66 25.9549 130.408 21.9608ZM138 30.6656C139.407 30.6656 140.744 30.3439 141.942 29.772V30.2732C141.942 31.6257 141.76 32.9597 141.408 34.2465C139.259 34.6563 136.828 34.6729 134.592 34.2465C134.24 32.9599 134.058 31.6258 134.058 30.2732C134.058 30.2565 134.055 30.2401 134.054 30.2236C134.054 30.2203 134.055 30.217 134.054 30.2138V29.7704C135.253 30.3433 136.592 30.6656 138 30.6656Z" fill="#EFEFEF"/>
</g>
<g clip-path="url(#clip5)">
<path d="M606.589 45.2792L603.419 44.3487L596.524 39.845V38.8131C598.52 37.3074 599.891 35.0057 600.146 32.3674C601.147 32.2063 601.914 31.3362 601.914 30.2904V27.4528C601.914 27.4418 601.913 27.4311 601.913 27.4201V23.8255C602.312 23.5399 602.565 23.0747 602.565 22.5528V19.2632L607.323 18.4527C608.105 18.3195 608.668 17.6984 608.723 16.9071C608.778 16.1157 608.307 15.4226 607.551 15.1822L591.51 10.0799C591.175 9.97334 590.822 9.97345 590.487 10.0798L574.445 15.1822C573.689 15.4226 573.219 16.1157 573.274 16.907C573.309 17.4097 573.549 17.8432 573.92 18.1271V22.4289H573.881C572.977 22.4289 572.242 23.1638 572.242 24.0671V26.2025L571.185 32.4095C571.002 33.4831 571.829 34.4657 572.921 34.4657H576.501C577.59 34.4657 578.42 33.4854 578.237 32.4094L577.179 26.2025V24.0671C577.179 23.1638 576.444 22.4289 575.541 22.4289H575.502V18.5937L579.435 19.2637V22.5528C579.435 23.0725 579.687 23.5369 580.084 23.823L580.086 27.4531V30.2904C580.086 31.3364 580.853 32.2063 581.854 32.3674C582.109 35.0042 583.478 37.3048 585.473 38.8107V39.8475L578.579 44.3503L575.412 45.2797C572.024 46.2743 569.631 49.3853 569.631 53.0016V55.3591C569.631 55.7959 569.985 56.1501 570.422 56.1501C570.859 56.1501 571.213 55.796 571.213 55.3591V53.0016C571.213 50.1515 573.123 47.6003 575.858 46.7976L578.808 45.9315L590.596 52.936C590.836 53.0782 591.152 53.0858 591.404 52.936L603.193 45.9311L606.143 46.7972C608.878 47.6001 610.788 50.1511 610.788 53.0011V60.6411C610.788 61.621 609.99 62.4182 609.01 62.4182H605.524V59.0086C605.524 58.5718 605.17 58.2176 604.733 58.2176C604.296 58.2176 603.942 58.5717 603.942 59.0086V62.4182H578.055V59.0086C578.055 58.5718 577.701 58.2176 577.264 58.2176C576.827 58.2176 576.473 58.5717 576.473 59.0086V62.4182H572.99C572.01 62.4182 571.213 61.621 571.213 60.6411V59.0567C571.213 58.6199 570.859 58.2657 570.422 58.2657C569.985 58.2657 569.631 58.6197 569.631 59.0567V60.641C569.631 62.4932 571.138 64 572.99 64H609.01C610.862 64 612.369 62.4932 612.369 60.641V53.001C612.369 49.4699 610.058 46.2979 606.589 45.2792ZM576.501 32.8837H572.921C572.81 32.8837 572.726 32.7849 572.744 32.6751L573.701 27.0603H575.721L576.677 32.675C576.696 32.7845 576.612 32.8837 576.501 32.8837ZM575.597 24.0671V25.4784H573.824V24.0671C573.824 24.036 573.849 24.0108 573.881 24.0108H575.541C575.572 24.0107 575.597 24.036 575.597 24.0671ZM588.171 49.3579L588.486 49.8418L580.41 45.0433L585.536 41.6952C585.769 44.4226 586.668 47.0472 588.171 49.3579ZM588.166 45.9434C590.027 46.2079 591.972 46.2081 593.835 45.9434C593.475 46.8291 593.031 47.6838 592.503 48.4953L591 50.8055L589.497 48.4953C588.969 47.6838 588.526 46.8291 588.166 45.9434ZM593.829 49.3579C595.332 47.0472 596.231 44.4226 596.464 41.6952L601.59 45.0432L593.514 49.8418L593.829 49.3579ZM598.456 24.1201H600.331V26.6617H599.4C598.88 26.6617 598.456 26.2381 598.456 25.7174V24.1201H598.456ZM574.925 16.6898L590.967 11.5872C590.987 11.5807 591.009 11.5806 591.03 11.5873L607.072 16.6898C607.105 16.7004 607.151 16.7147 607.145 16.7971C607.139 16.8793 607.092 16.8872 607.058 16.8931L601.754 17.7965L599.763 17.5502C599.329 17.4965 598.934 17.8047 598.881 18.2382C598.827 18.6718 599.135 19.0666 599.569 19.1202L600.983 19.2952V22.5382L581.017 22.5374V19.2951L589.202 18.2823C590.395 18.1349 591.603 18.1349 592.795 18.2823L595.893 18.6654C596.326 18.7191 596.721 18.4111 596.775 17.9776C596.828 17.544 596.52 17.1491 596.087 17.0954L592.989 16.7123C591.669 16.5489 590.329 16.5489 589.008 16.7123L580.244 17.7967L574.939 16.8931C574.905 16.8872 574.858 16.8793 574.852 16.7971C574.846 16.7147 574.892 16.7002 574.925 16.6898ZM581.667 26.6617L581.666 24.1201H583.544V25.7175C583.544 26.2381 583.12 26.6618 582.6 26.6618H581.667V26.6617ZM583.408 31.9608C583.367 31.3167 582.832 30.8122 582.189 30.8122C581.902 30.8122 581.668 30.578 581.668 30.2903V28.2437H582.6C583.993 28.2437 585.126 27.1104 585.126 25.7175V24.1201H596.874V25.7175C596.874 27.1104 598.007 28.2437 599.4 28.2437H600.332V30.2903C600.332 30.578 600.098 30.8122 599.81 30.8122C599.168 30.8122 598.632 31.3167 598.592 31.9609C598.34 35.9549 595.005 39.0837 591 39.0837C586.995 39.0837 583.66 35.9549 583.408 31.9608ZM591 40.6656C592.407 40.6656 593.744 40.3439 594.942 39.772V40.2732C594.942 41.6257 594.76 42.9597 594.408 44.2465C592.259 44.6563 589.828 44.6729 587.592 44.2465C587.24 42.9599 587.058 41.6258 587.058 40.2732C587.058 40.2565 587.056 40.2401 587.054 40.2236C587.054 40.2203 587.055 40.217 587.054 40.2138V39.7704C588.253 40.3433 589.592 40.6656 591 40.6656Z" fill="#EFEFEF"/>
</g>
<defs>
<clipPath id="clip0">
<rect width="72" height="72" fill="white" transform="translate(485 43)"/>
</clipPath>
<clipPath id="clip1">
<rect width="105" height="105" fill="white" transform="translate(33 51)"/>
</clipPath>
<clipPath id="clip2">
<rect width="41" height="41" fill="white" transform="translate(588 74)"/>
</clipPath>
<clipPath id="clip3">
<rect width="41" height="41" fill="white" transform="translate(0 13)"/>
</clipPath>
<clipPath id="clip4">
<rect width="54" height="54" fill="white" transform="translate(111)"/>
</clipPath>
<clipPath id="clip5">
<rect width="54" height="54" fill="white" transform="translate(564 10)"/>
</clipPath>
</defs>
</svg>
