<svg width="24" height="22" viewBox="0 0 24 22" fill="none" xmlns="http://www.w3.org/2000/svg">
<path d="M14.8099 17.6956V20.5652C14.8099 21.0913 14.3503 21.5217 13.7886 21.5217H1.53211C0.970359 21.5217 0.510742 21.0913 0.510742 20.5652V5.26084C0.510742 4.73476 0.970359 4.30432 1.53211 4.30432H8.68171V10.0435H14.8099V17.6956Z" fill="#CCE4FF"/>
<path d="M18.7641 0.158304C18.6676 0.0573913 18.5297 0 18.3847 0H9.70302C8.85835 0 8.17097 0.643739 8.17097 1.43478V3.82609H1.53206C0.687382 3.82609 0 4.46983 0 5.26087V20.5652C0 21.3563 0.687382 22 1.53206 22H13.7885C14.6332 22 15.3206 21.3563 15.3206 20.5652V18.1739H21.9595C22.8041 18.1739 23.4915 17.5302 23.4915 16.7391V6.21739V5.26087C23.4915 5.14274 23.4451 5.02891 23.3603 4.94091L18.7641 0.158304ZM17.874 0.956522H18.1574L22.4702 5.44452V5.73913H17.874V0.956522ZM14.2992 9.56522H9.19234V4.78261H9.4916L14.2992 9.28496V9.56522ZM14.2992 20.5652C14.2992 20.8287 14.0699 21.0435 13.7885 21.0435H1.53206C1.25067 21.0435 1.02137 20.8287 1.02137 20.5652V5.26087C1.02137 4.99735 1.25067 4.78261 1.53206 4.78261H8.17097V10.0435C8.17097 10.3075 8.39975 10.5217 8.68165 10.5217H14.2992V20.5652ZM21.9595 17.2174H15.3206V9.08696C15.3206 8.96022 15.2669 8.83826 15.1709 8.74883L10.0641 3.96622C9.96858 3.8763 9.83835 3.82609 9.70302 3.82609H9.19234V1.43478C9.19234 1.17126 9.42163 0.956522 9.70302 0.956522H16.8526V6.21739C16.8526 6.48139 17.0814 6.69565 17.3633 6.69565H22.4702V16.7391C22.4702 17.0027 22.2409 17.2174 21.9595 17.2174Z" fill="#007AFF"/>
</svg>
