<?xml version="1.0" encoding="utf-8"?>
<!-- Generator: Adobe Illustrator 16.0.0, SVG Export Plug-In . SVG Version: 6.00 Build 0)  -->
<!DOCTYPE svg PUBLIC "-//W3C//DTD SVG 1.1 Tiny//EN" "http://www.w3.org/Graphics/SVG/1.1/DTD/svg11-tiny.dtd">
<svg version="1.1" baseProfile="tiny" id="Layer_1" xmlns="http://www.w3.org/2000/svg" xmlns:xlink="http://www.w3.org/1999/xlink"
	 x="0px" y="0px" width="28px" height="24px" viewBox="0 0 28 24" xml:space="preserve">
<path fill="#0096E6" d="M14.958,0.475L1.553,11.118c0,0-0.313,0.438-0.196,0.913c0,0,0.219,0.746,1.103,0.637l2.475-1.935
	l0.109,0.019l0.113,12.151l6.531-0.01c0,0,0.723,0.027,1.118,0c0.396-0.029,0.701-0.466,0.735-0.585
	c0.034-0.118-0.023-5.382-0.023-5.382l1.824,0.049c0,0,0.051,5.085,0.057,5.259c0.007,0.174,0.106,0.535,0.791,0.677l8.199-0.018
	l-0.088-11.836c0,0,1.469,1.35,1.953,1.548l0.629,0.012c0,0,0.586-0.194,0.523-1.061l-0.181-0.381L14.958,0.475z"/>
<polygon fill="#FFFFFF" points="14.91,2.922 6.881,9.26 6.974,21.066 11.743,21.05 11.667,15.123 17.145,15.109 17.207,21.062 
	22.495,21.067 22.458,9.487 "/>
<path fill="#0096E6" d="M14.4,6.524c0,0-2.516,0.329-3.037,2.869l-0.02,1.039c0,0,0.404,2.368,2.849,2.887l1.251,0.024
	c0,0,2.367-0.333,2.79-2.721l0.024-1.286c0,0-0.452-2.275-2.791-2.792L14.4,6.524z"/>
<path fill="#FFFFFF" d="M14.593,8.416l0.566,0.011c0,0,1.037,0.066,1.296,1.382l-0.01,0.531c0,0-0.02,0.944-1.369,1.202l-0.542-0.01
	c0,0-0.847-0.146-1.299-1.193l0.015-0.814C13.25,9.523,13.578,8.432,14.593,8.416z"/>
</svg>
