<svg width="16" height="16" viewBox="0 0 16 16" fill="none" xmlns="http://www.w3.org/2000/svg">
<path d="M0.311595 15.0883C0.508408 14.9758 1.71763 14.226 2.35503 12.8856C0.855221 11.4795 0.00225163 9.52669 0.00225163 7.53013C0.00228288 3.39641 3.60484 0 8.00106 0C12.3973 0 15.9999 3.39641 15.9999 7.53013C15.9999 11.6638 12.3973 15.0603 8.0011 15.0603C7.41056 15.0603 6.81063 15.004 5.93891 14.8259C3.64238 16.0445 1.54897 16.007 0.761564 15.9976C0.414752 15.9882 0.161657 16.0538 0.0304699 15.6976C-0.0633426 15.4539 0.0678762 15.1727 0.311595 15.0883Z" fill="#17ACE8"/>
<path d="M0.0304732 15.6976C0.161661 16.0538 0.414754 15.9882 0.761567 15.9976C1.54897 16.007 3.64235 16.0445 5.93891 14.8259C6.81066 15.004 7.41057 15.0603 8.0011 15.0603V0C3.60488 0 0.00228548 3.39641 0.00228548 7.53013C0.00228548 9.52669 0.855254 11.4795 2.35507 12.8856C1.71766 14.226 0.508441 14.9758 0.311629 15.0883C0.0679101 15.1727 -0.063308 15.4539 0.0304732 15.6976Z" fill="#1689FC"/>
<path d="M7.06367 7.53015V11.3108C7.06367 11.8264 7.48548 12.2482 8.00101 12.2482C8.51654 12.2482 8.93835 11.8264 8.93835 11.3108V7.53015C8.93835 7.01459 8.51654 6.5928 8.00101 6.5928C7.48548 6.5928 7.06367 7.01459 7.06367 7.53015Z" fill="#CAE8F9"/>
<path d="M7.06367 4.24937C7.06367 4.76493 7.48548 5.18671 8.00101 5.18671C8.51654 5.18671 8.93835 4.7649 8.93835 4.24937C8.93835 3.73384 8.51654 3.31203 8.00101 3.31203C7.48548 3.31203 7.06367 3.73381 7.06367 4.24937Z" fill="#CAE8F9"/>
<path d="M8.0011 5.18672V3.312C7.48554 3.312 7.06375 3.73381 7.06375 4.24934C7.06375 4.76487 7.48557 5.18672 8.0011 5.18672Z" fill="#B7E0F6"/>
<path d="M7.06375 7.53012V11.3108C7.06375 11.8264 7.48557 12.2482 8.0011 12.2482V6.59274C7.48557 6.59274 7.06375 7.01456 7.06375 7.53012Z" fill="#B7E0F6"/>
</svg>
