<svg width="44" height="54" viewBox="0 0 44 54" fill="none" xmlns="http://www.w3.org/2000/svg">
<path d="M43.5387 11.1403C43.5387 11.0748 43.5387 11.0093 43.4883 10.8782V10.8127C43.4379 10.6817 43.4379 10.6162 43.3876 10.5506L39.0562 2.68857C38.4014 1.44375 37.3437 0.788574 36.2861 0.788574H26.1627H17.6006H7.4772C6.36916 0.788574 5.36186 1.44375 4.70711 2.62306L0.375705 10.4851C0.32534 10.5506 0.274975 10.6817 0.274975 10.7472V10.8127C0.274975 10.8782 0.224609 10.9437 0.224609 11.0748V11.1403V11.2058V49.73C0.224609 51.9575 1.63483 53.792 3.34725 53.792H40.3657C42.0781 53.792 43.4883 51.9575 43.4883 49.73V11.2713V11.2058C43.5387 11.2058 43.5387 11.1403 43.5387 11.1403ZM36.2861 3.40926C36.7394 3.40926 37.1423 3.67133 37.3941 4.12995L40.5671 9.96099H31.1992H28.1773L26.7167 3.40926H36.2861ZM17.3488 11.4679L19.1116 3.40926H24.6517L26.4145 11.4679V22.2127L21.8816 19.0024L17.3488 22.2127V11.4679ZM6.36916 4.12995C6.62099 3.67133 7.02391 3.40926 7.4772 3.40926H16.9962L15.5356 9.96099H13.4203H3.19615L6.36916 4.12995ZM41.5241 49.7955C41.5241 50.5817 41.0204 51.2368 40.416 51.2368H3.34725C2.74287 51.2368 2.23922 50.5817 2.23922 49.7955V12.5817H13.4707H15.3342V23.13C15.3342 23.8506 15.6364 24.5058 16.0896 24.8989C16.3415 25.0955 16.5933 25.161 16.8955 25.161C17.1473 25.161 17.3991 25.0955 17.651 24.8989L21.8816 21.8851L26.1123 24.8989C26.616 25.2265 27.17 25.2265 27.6736 24.8334C28.1773 24.4403 28.4291 23.7851 28.4291 23.0644V12.5817H31.1992H41.5241V49.7955Z" fill="#334D6E"/>
<path d="M25.4073 11.2712C25.4073 10.5505 24.954 9.96082 24.4 9.96082H19.3635C18.8095 9.96082 18.3562 10.5505 18.3562 11.2712C18.3562 11.9918 18.8095 12.5815 19.3635 12.5815H24.4C24.954 12.5815 25.4073 11.9918 25.4073 11.2712Z" fill="#334D6E"/>
</svg>
