<svg width="35" height="53" viewBox="0 0 35 53" fill="none" xmlns="http://www.w3.org/2000/svg">
<path d="M0.909464 52.5717H33.7302C34.0632 52.5717 34.3188 52.2527 34.3188 51.8786V1.71948C34.3188 1.3454 34.0632 1.02642 33.7302 1.02642H0.909464C0.576467 1.02642 0.32085 1.3454 0.32085 1.71948V51.8786C0.32085 52.2527 0.576467 52.5717 0.909464 52.5717ZM1.49808 2.41255H33.1416V51.1856H1.49808V2.41255Z" fill="#109CF1" stroke="#109CF1" stroke-width="0.1"/>
<path d="M27.5403 36.5059H5.55876C5.37967 36.5059 5.22463 36.6197 5.11684 36.7888C5.00868 36.9585 4.94341 37.1899 4.94341 37.4429C4.94341 37.6959 5.00868 37.9273 5.11684 38.097C5.22463 38.2661 5.37967 38.3799 5.55876 38.3799H27.5403C27.7194 38.3799 27.8744 38.2661 27.9822 38.097C28.0904 37.9273 28.1557 37.6959 28.1557 37.4429C28.1557 37.1899 28.0904 36.9585 27.9822 36.7888C27.8744 36.6197 27.7194 36.5059 27.5403 36.5059Z" fill="#109CF1" stroke="#109CF1" stroke-width="0.1"/>
<path d="M16.5495 31.2839C22.106 31.2839 26.6148 26.082 26.6148 19.7031C26.6148 13.3242 22.106 8.12224 16.5495 8.12224C10.993 8.12224 6.48418 13.3242 6.48418 19.7031C6.48418 26.082 10.993 31.2839 16.5495 31.2839ZM17.1565 19.0118V9.54116C21.5492 9.88715 25.0722 13.938 25.3697 19.0118H17.1565ZM13.715 29.3539L16.956 20.3943H25.3697C25.0585 25.7013 21.2215 29.9014 16.5495 29.9014C15.5575 29.9014 14.6066 29.7031 13.715 29.3539ZM15.9425 19.5659L12.5972 28.814C9.69959 27.1382 7.69814 23.6906 7.69814 19.7031C7.69814 14.3101 11.3509 9.9028 15.9425 9.54116V19.5659Z" fill="#109CF1" stroke="#109CF1" stroke-width="0.1"/>
</svg>
