<svg xmlns="http://www.w3.org/2000/svg" viewBox="1171 2 24 24">
  <defs>
    <style>
      .cls-1, .cls-2 {
        fill: none;
      }

      .cls-1 {
        stroke: #fff;
        stroke-miterlimit: 10;
        stroke-width: 1.3px;
      }
    </style>
  </defs>
  <g id="Group_1198" data-name="Group 1198" transform="translate(-46 -16)">
    <g id="Group_1194" data-name="Group 1194" transform="translate(-0.143 0.5)">
      <path id="Path_12" data-name="Path 12" class="cls-1" d="M4.177,9.377A13.717,13.717,0,0,1,4.8,7.748L3.493,6.119A1.18,1.18,0,0,1,3.55,4.548l.969-.989A1.121,1.121,0,0,1,6.058,3.5L7.71,4.839a5.412,5.412,0,0,1,1.6-.64l.228-2.152A1.175,1.175,0,0,1,10.673,1h1.368a1.175,1.175,0,0,1,1.14,1.047L13.409,4.2a13.111,13.111,0,0,1,1.6.64l1.653-1.4A1.185,1.185,0,0,1,18.2,3.5l.969.989a1.18,1.18,0,0,1,.057,1.571L17.91,7.748a5.661,5.661,0,0,1,.627,1.629l2.108.233a1.181,1.181,0,0,1,1.026,1.163v1.4a1.181,1.181,0,0,1-1.026,1.163l-2.108.233a13.718,13.718,0,0,1-.627,1.629l1.368,1.687a1.248,1.248,0,0,1-.057,1.571l-.969.989a1.121,1.121,0,0,1-1.539.058l-1.653-1.338a5.412,5.412,0,0,1-1.6.64l-.228,2.152A1.175,1.175,0,0,1,12.1,22H10.73a1.175,1.175,0,0,1-1.14-1.047L9.363,18.8a13.11,13.11,0,0,1-1.6-.64l-1.653,1.4A1.185,1.185,0,0,1,4.576,19.5l-.969-.989a1.18,1.18,0,0,1-.057-1.571l1.311-1.687a5.661,5.661,0,0,1-.627-1.629l-2.108-.233A1.181,1.181,0,0,1,1.1,12.227v-1.4A1.181,1.181,0,0,1,2.126,9.668Z" transform="translate(1218.043 18.5)"/>
      <circle id="Ellipse_1" data-name="Ellipse 1" class="cls-1" cx="3.419" cy="3.419" r="3.419" transform="translate(1225.924 26.838)"/>
    </g>
    <rect id="Rectangle_681" data-name="Rectangle 681" class="cls-2" width="24" height="24" transform="translate(1217 18)"/>
  </g>
</svg>
