<svg width="24" height="21" viewBox="0 0 24 21" fill="none" xmlns="http://www.w3.org/2000/svg">
<g clip-path="url(#clip0)">
<path d="M22.7368 17.0527C22.7368 17.2202 22.6703 17.3808 22.5519 17.4993C22.4334 17.6177 22.2728 17.6842 22.1053 17.6842H12.6316V18.9474H22.1053C22.6078 18.9474 23.0897 18.7478 23.445 18.3924C23.8004 18.0371 24 17.5552 24 17.0527V4.42108H22.7368V17.0527Z" fill="white"/>
<path d="M0.63158 20.2105C0.77387 20.2087 0.911561 20.1599 1.02316 20.0716L7.09895 15.2968C7.20848 15.2049 7.34753 15.1555 7.49053 15.1579H18.3158C18.8183 15.1579 19.3002 14.9583 19.6556 14.6029C20.0109 14.2476 20.2105 13.7657 20.2105 13.2632V1.89474C20.2105 1.39222 20.0109 0.910287 19.6556 0.554955C19.3002 0.199623 18.8183 0 18.3158 0H1.89474C1.39222 0 0.910289 0.199623 0.554957 0.554955C0.199625 0.910287 1.2652e-06 1.39222 1.2652e-06 1.89474V19.5789C-0.000235624 19.6973 0.0327972 19.8134 0.0953327 19.9139C0.157868 20.0144 0.247389 20.0953 0.353685 20.1474C0.441392 20.1861 0.535748 20.2075 0.63158 20.2105V20.2105ZM1.26316 11.6337V1.89474C1.26316 1.72723 1.3297 1.56659 1.44814 1.44814C1.56659 1.3297 1.72723 1.26316 1.89474 1.26316H18.3158C18.4833 1.26316 18.6439 1.3297 18.7624 1.44814C18.8808 1.56659 18.9474 1.72723 18.9474 1.89474V13.2632C18.9474 13.4307 18.8808 13.5913 18.7624 13.7098C18.6439 13.8282 18.4833 13.8947 18.3158 13.8947H7.49053C7.06432 13.8916 6.64984 14.0342 6.31579 14.2989L1.26316 18.2779V11.6337Z" fill="white"/>
<path d="M5.05263 8.84211C5.75026 8.84211 6.31579 8.27658 6.31579 7.57895C6.31579 6.88133 5.75026 6.3158 5.05263 6.3158C4.35501 6.3158 3.78947 6.88133 3.78947 7.57895C3.78947 8.27658 4.35501 8.84211 5.05263 8.84211Z" fill="white"/>
<path d="M10.1053 8.84211C10.8029 8.84211 11.3684 8.27658 11.3684 7.57895C11.3684 6.88133 10.8029 6.3158 10.1053 6.3158C9.40764 6.3158 8.84211 6.88133 8.84211 7.57895C8.84211 8.27658 9.40764 8.84211 10.1053 8.84211Z" fill="white"/>
<path d="M15.1579 8.84211C15.8555 8.84211 16.4211 8.27658 16.4211 7.57895C16.4211 6.88133 15.8555 6.3158 15.1579 6.3158C14.4603 6.3158 13.8947 6.88133 13.8947 7.57895C13.8947 8.27658 14.4603 8.84211 15.1579 8.84211Z" fill="white"/>
</g>
<defs>
<clipPath id="clip0">
<rect width="24" height="20.2105" fill="white"/>
</clipPath>
</defs>
</svg>
