<svg xmlns="http://www.w3.org/2000/svg" xmlns:xlink="http://www.w3.org/1999/xlink" width="78" height="78" viewBox="0 0 78 78"><defs><filter id="a" x="0" y="0" width="78" height="78" filterUnits="userSpaceOnUse"><feOffset dy="3" input="SourceAlpha"/><feGaussianBlur stdDeviation="5" result="b"/><feFlood flood-opacity="0.259"/><feComposite operator="in" in2="b"/><feComposite in="SourceGraphic"/></filter></defs><g transform="translate(2235 -7293)"><g transform="translate(-2401 3573)"><g transform="matrix(1, 0, 0, 1, 166, 3720)" filter="url(#a)"><circle cx="24" cy="24" r="24" transform="translate(15 12)" fill="#fff"/></g></g><g transform="translate(-3788 -6466)"><rect width="28" height="28" transform="translate(1578 13781)" fill="none"/><path d="M9.617,6.643V2.4a.962.962,0,0,0-.962-.962H.962a.481.481,0,1,1,0-.962H8.655a.24.24,0,1,0,0-.481H.962A.962.962,0,0,0,0,.962v9.617a.962.962,0,0,0,.962.962H8.655s.978-.067.962-.962S9.617,6.643,9.617,6.643ZM7.694,4.328H2.4V3.366H7.694Z" transform="translate(1587.311 13783.062)" fill="#9b9b9b"/><g transform="translate(1579.243 13797.376)"><path d="M1003.522,5365.461,1000,5365l.7,9.263h2.821Z" transform="translate(-1000 -5365)" fill="#9b9b9b"/><path d="M2316.5,5507.4a8.128,8.128,0,0,0-5.5.875v6.26c3.321.271,8.715.694,11.753-.439,1.85-.687,7.263-4.553,8.508-5.527,2.385-1.866.363-2.624-3.063-.439-1.162.739-7.9,2.477-9.918,2.662-.475.044-1.615.149-2.452.271a.327.327,0,0,1-.093-.646c1.844-.264,5.935-.344,7.091-1.968.662-.936-.531-1.732-1.92-1.309A8.8,8.8,0,0,1,2316.5,5507.4Z" transform="translate(-2306.825 -5506.35)" fill="#9b9b9b"/></g></g></g></svg>