<svg xmlns="http://www.w3.org/2000/svg" xmlns:xlink="http://www.w3.org/1999/xlink" width="78" height="78" viewBox="0 0 78 78">
  <defs>
    <filter id="Ellipse_26" x="0" y="0" width="78" height="78" filterUnits="userSpaceOnUse">
      <feOffset dy="3" input="SourceAlpha"/>
      <feGaussianBlur stdDeviation="5" result="blur"/>
      <feFlood flood-opacity="0.259"/>
      <feComposite operator="in" in2="blur"/>
      <feComposite in="SourceGraphic"/>
    </filter>
  </defs>
  <g id="Library_Setup_Grey" data-name="Library Setup Grey" transform="translate(15.192 11.709)">
    <g id="Group_4354" data-name="Group 4354" transform="translate(-0.494 -0.011)">
      <g id="Group_4351" data-name="Group 4351" transform="translate(0 0)">
        <g transform="matrix(1, 0, 0, 1, -14.7, -11.7)" filter="url(#Ellipse_26)">
          <circle id="Ellipse_26-2" data-name="Ellipse 26" cx="24" cy="24" r="24" transform="translate(15 12)" fill="#fff"/>
        </g>
      </g>
      <g id="Group_4353" data-name="Group 4353" transform="translate(9.721 8.749)">
        <rect id="Rectangle_2093" data-name="Rectangle 2093" width="31" height="32" transform="translate(-0.419 -0.447)" fill="none"/>
        <g id="Group_4352" data-name="Group 4352" transform="translate(2.047 1.241)">
          <path id="Path_1983" data-name="Path 1983" d="M23.378,16.151V5.845A2.337,2.337,0,0,0,21.04,3.507H2.338a1.169,1.169,0,0,1,0-2.338h18.7a.585.585,0,1,0,0-1.169H2.338A2.337,2.337,0,0,0,0,2.338V25.719a2.337,2.337,0,0,0,2.338,2.338H15.059a7.594,7.594,0,0,1,8.319-11.906ZM18.7,10.521H5.843V8.183H18.7Z" transform="translate(0 0.001)" fill="#9b9b9b"/>
          <g id="Group_4356" data-name="Group 4356" transform="translate(15.614 17.668)">
            <path id="Path_1981" data-name="Path 1981" d="M298.966,347.043h-1.723a3.562,3.562,0,0,0-.158-.376l1.219-1.22a.293.293,0,0,0,0-.413l-1.3-1.3a.293.293,0,0,0-.413,0l-1.23,1.224a3.676,3.676,0,0,0-.376-.158l-.009-1.731a.293.293,0,0,0-.291-.291H292.85a.293.293,0,0,0-.291.291V344.8a3.637,3.637,0,0,0-.376.158l-1.219-1.22a.293.293,0,0,0-.413,0l-1.3,1.3a.293.293,0,0,0,0,.413l1.219,1.22a3.685,3.685,0,0,0-.158.376h-1.722a.293.293,0,0,0-.291.291v1.845a.293.293,0,0,0,.291.291h1.717a3.7,3.7,0,0,0,.158.376l-1.219,1.22a.293.293,0,0,0,0,.413l1.3,1.3a.293.293,0,0,0,.413,0l1.232-1.22a3.664,3.664,0,0,0,.376.158v1.725a.293.293,0,0,0,.291.291H294.7a.293.293,0,0,0,.291-.291v-1.72a3.7,3.7,0,0,0,.376-.158l1.221,1.2a.293.293,0,0,0,.413,0l1.3-1.3a.293.293,0,0,0,0-.413l-1.219-1.22a3.619,3.619,0,0,0,.158-.376h1.728a.293.293,0,0,0,.291-.291v-1.838A.293.293,0,0,0,298.966,347.043Zm-7.271,1.211a2.067,2.067,0,1,1,2.067,2.068,2.068,2.068,0,0,1-2.067-2.068Z" transform="translate(-288.3 -342.78)" fill="#9b9b9b"/>
            <path id="Path_1982" data-name="Path 1982" d="M415.322,467.94a2.285,2.285,0,1,0,1.615.675A2.285,2.285,0,0,0,415.322,467.94Zm1.306,3.591a1.848,1.848,0,1,1,.542-1.306A1.848,1.848,0,0,1,416.629,471.53Z" transform="translate(-409.811 -464.773)" fill="#c6c6c6"/>
          </g>
          <path id="Path_1984" data-name="Path 1984" d="M224,24h2.967v3.41l-1.483-1.7L224,27.41Z" transform="translate(-205.846 -20.572)" fill="#c6c6c6"/>
        </g>
      </g>
    </g>
  </g>
</svg>
