<svg xmlns="http://www.w3.org/2000/svg" xmlns:xlink="http://www.w3.org/1999/xlink" width="78" height="78" viewBox="0 0 78 78"><defs><filter id="a" x="0" y="0" width="78" height="78" filterUnits="userSpaceOnUse"><feOffset dy="3" input="SourceAlpha"/><feGaussianBlur stdDeviation="5" result="b"/><feFlood flood-opacity="0.259"/><feComposite operator="in" in2="b"/><feComposite in="SourceGraphic"/></filter></defs><g transform="translate(1582 -7293)"><g transform="translate(-1748 3573)"><g transform="matrix(1, 0, 0, 1, 166, 3720)" filter="url(#a)"><circle cx="24" cy="24" r="24" transform="translate(15 12)" fill="#fff"/></g></g><g transform="translate(-1555.544 7317.32)"><path d="M11.957,11.927l11.2,4.769c2.316-6.211-.257-13.509-6.39-15.8A12.44,12.44,0,0,0,.982,7.29,12.051,12.051,0,0,0,16.509,23.228Z" transform="translate(0)" fill="#9b9b9b"/><path d="M40.288,45.657a11.31,11.31,0,0,0,5.372-5.127.051.051,0,0,0-.025-.07l-9.056-3.844L40.22,45.63A.051.051,0,0,0,40.288,45.657Z" transform="translate(-21.724 -21.624)" fill="#9b9b9b"/></g></g></svg>