<svg width="27" height="34" viewBox="0 0 27 34" fill="none" xmlns="http://www.w3.org/2000/svg">
<path d="M25.6259 5.85146H3.99198C2.64295 5.85146 1.54528 4.88566 1.54528 3.69837C1.54528 2.51108 2.64295 1.54528 3.99198 1.54528H25.6259C26.0524 1.54528 26.3986 1.19965 26.3986 0.772641C26.3986 0.345628 26.0524 0 25.6259 0H3.99198C1.79098 0 0 1.65912 0 3.69837C0 3.83384 0.00927214 3.96725 0.0242099 4.09912C0.00978724 4.15835 0 4.21913 0 4.283V29.9115C0 30.03 0.0273006 30.1469 0.0793251 30.253C0.248276 30.5966 1.79665 33.6099 3.99198 33.6099H25.6259C26.0524 33.6099 26.3986 33.2637 26.3986 32.8372V6.6241C26.3986 6.19709 26.0524 5.85146 25.6259 5.85146ZM1.54528 29.724V6.61432C2.2216 7.10263 3.06944 7.39675 3.99198 7.39675H5.15094V32.0651H3.99198C3.07563 32.0651 2.00526 30.578 1.54528 29.724ZM6.69622 32.0651V7.39675H24.8533V32.0651H6.69622Z" fill="#CCD4DD"/>
<path d="M20.5142 10.5894H11.1137C10.6867 10.5894 10.3411 10.935 10.3411 11.362V17.3948C10.3411 17.8213 10.6867 18.1674 11.1137 18.1674H20.5142C20.9407 18.1674 21.2868 17.8213 21.2868 17.3948V11.362C21.2868 10.935 20.9407 10.5894 20.5142 10.5894ZM19.7415 16.6221H11.8863V12.1346H19.7415V16.6221Z" fill="#CCD4DD"/>
<path d="M11.5252 2.92578C11.0982 2.92578 10.7526 3.27141 10.7526 3.69842C10.7526 4.12543 11.0982 4.47106 11.5252 4.47106H24.7245C25.151 4.47106 25.4971 4.12543 25.4971 3.69842C25.4971 3.27141 25.151 2.92578 24.7245 2.92578H11.5252Z" fill="#CCD4DD"/>
</svg>
