<svg width="28" height="28" viewBox="0 0 28 28" fill="none" xmlns="http://www.w3.org/2000/svg">
<path d="M7.8326 20.0166C6.2169 18.4009 5.3092 16.2096 5.3092 13.9246C5.3092 11.6397 6.2169 9.4483 7.8326 7.8326C9.4483 6.21689 11.6397 5.3092 13.9246 5.3092C16.2096 5.3092 18.4009 6.21689 20.0166 7.8326C21.6323 9.4483 22.54 11.6397 22.54 13.9246C22.54 16.2096 21.6323 18.4009 20.0166 20.0166C18.4009 21.6323 16.2096 22.54 13.9246 22.54C11.6397 22.54 9.4483 21.6323 7.8326 20.0166ZM6.96231 20.8869C8.80883 22.7335 11.3132 23.7708 13.9246 23.7708C16.536 23.7708 19.0404 22.7335 20.8869 20.8869C22.7335 19.0404 23.7708 16.536 23.7708 13.9246C23.7708 11.3132 22.7335 8.80883 20.8869 6.96231C19.0404 5.11579 16.536 4.07843 13.9246 4.07843C11.3132 4.07843 8.80883 5.11579 6.96231 6.96231C5.11579 8.80883 4.07843 11.3132 4.07843 13.9246C4.07843 16.536 5.11579 19.0404 6.96231 20.8869Z" fill="#FF0707"/>
<path d="M17.4058 10.4433C17.5212 10.5587 17.586 10.7152 17.586 10.8785C17.586 11.0417 17.5212 11.1982 17.4058 11.3136L14.7949 13.9245L17.4058 16.5353C17.5212 16.6507 17.586 16.8073 17.586 16.9705C17.586 17.1337 17.5212 17.2902 17.4058 17.4056C17.2904 17.521 17.1338 17.5859 16.9706 17.5859C16.8074 17.5859 16.6509 17.521 16.5355 17.4056L13.9246 14.7948L11.3138 17.4056C11.1983 17.521 11.0418 17.5859 10.8786 17.5859C10.7154 17.5859 10.5589 17.521 10.4435 17.4056C10.3281 17.2902 10.2632 17.1337 10.2632 16.9705C10.2632 16.8073 10.3281 16.6507 10.4435 16.5353L13.0543 13.9245L10.4435 11.3136C10.3281 11.1982 10.2632 11.0417 10.2632 10.8785C10.2632 10.7152 10.3281 10.5587 10.4435 10.4433C10.5589 10.3279 10.7154 10.2631 10.8786 10.2631C11.0418 10.2631 11.1983 10.3279 11.3138 10.4433L13.9246 13.0542L16.5355 10.4433C16.6509 10.3279 16.8074 10.2631 16.9706 10.2631C17.1338 10.2631 17.2904 10.3279 17.4058 10.4433Z" fill="#FF0707"/>
</svg>
