<svg width="21" height="15" viewBox="0 0 21 15" fill="none" xmlns="http://www.w3.org/2000/svg">
<path d="M17.26 6.43984C17.3897 6.0995 17.4625 5.72734 17.4625 5.33929C17.4625 3.65346 16.102 2.28571 14.425 2.28571C13.8017 2.28571 13.2195 2.47656 12.7386 2.801C11.8621 1.27422 10.2263 0.25 8.35001 0.25C5.55298 0.25 3.28751 2.52746 3.28751 5.33929C3.28751 5.42517 3.29068 5.51105 3.29384 5.59693C1.52196 6.22355 0.250011 7.9221 0.250011 9.91964C0.250011 12.4484 2.29083 14.5 4.80626 14.5H16.45C18.687 14.5 20.5 12.6774 20.5 10.4286C20.5 8.45965 19.1078 6.81518 17.26 6.43984ZM13.055 9.26122L9.72005 12.6138C9.52388 12.811 9.20115 12.811 9.00497 12.6138L5.67005 9.26122C5.35048 8.93996 5.57829 8.39286 6.02759 8.39286H8.09689V4.83036C8.09689 4.55045 8.3247 4.32143 8.60314 4.32143H10.1219C10.4003 4.32143 10.6281 4.55045 10.6281 4.83036V8.39286H12.6974C13.1467 8.39286 13.3745 8.93996 13.055 9.26122Z" fill="#17AD53"/>
</svg>
