<svg width="36" height="34" viewBox="0 0 36 34" fill="none" xmlns="http://www.w3.org/2000/svg">
<path fill-rule="evenodd" clip-rule="evenodd" d="M28.3201 32.6244C25.545 32.6244 23.2537 30.5124 22.9638 27.8093C22.9622 27.7944 22.9604 27.7795 22.9589 27.7646C22.9516 27.6906 22.9462 27.616 22.9418 27.5412C22.9405 27.5178 22.9394 27.4945 22.9383 27.4712C22.9348 27.3909 22.9322 27.3104 22.9322 27.2293C22.9322 27.1363 22.9346 27.0439 22.9392 26.9521C23.0838 24.1055 25.4421 21.8342 28.3201 21.8342C28.3212 21.8342 28.3223 21.8342 28.3234 21.8342C28.4037 21.8343 28.4833 21.8367 28.5627 21.8403C28.5818 21.8411 28.6009 21.8418 28.6199 21.8429C28.693 21.847 28.7656 21.8526 28.8379 21.8596C28.8647 21.8622 28.8914 21.8651 28.9181 21.8682C28.9741 21.8744 29.0299 21.8816 29.0854 21.8895C29.1247 21.8951 29.164 21.9013 29.2032 21.9078C29.2506 21.9157 29.2978 21.9242 29.3448 21.9332C29.3776 21.9396 29.4103 21.9459 29.443 21.9528C29.5059 21.9663 29.5685 21.9807 29.6306 21.9964C29.6589 22.0034 29.6869 22.011 29.7152 22.0186C29.7733 22.0342 29.8313 22.0505 29.8887 22.068C29.9019 22.072 29.9152 22.0757 29.9284 22.0797C30.0048 22.1037 30.0803 22.1295 30.1552 22.1568C30.164 22.16 30.173 22.1632 30.1818 22.1665C32.2379 22.927 33.7078 24.9094 33.7078 27.2293C33.7078 30.2041 31.2909 32.6244 28.3201 32.6244ZM21.5597 27.361H3.45556L1.45422 9.31905H31.8503L30.5718 20.8446C30.5653 20.8423 30.5587 20.8404 30.5522 20.8381C30.0268 20.6536 29.4721 20.5323 28.897 20.4834C28.8955 20.4833 28.8939 20.4832 28.8925 20.4831C28.8023 20.4754 28.7118 20.4696 28.6207 20.4656C28.6096 20.4651 28.5984 20.4647 28.5872 20.4643C28.4985 20.4608 28.4096 20.4585 28.3201 20.4585C25.2907 20.4585 22.7204 22.4637 21.8629 25.2181C21.8464 25.271 21.8305 25.3243 21.8154 25.3778C21.7545 25.5919 21.704 25.8103 21.6642 26.0323C21.6543 26.0878 21.645 26.1436 21.6364 26.1995C21.6193 26.3115 21.605 26.4243 21.5934 26.538C21.5703 26.7653 21.5585 26.9959 21.5585 27.2293C21.5585 27.2731 21.5588 27.317 21.5597 27.361ZM4.22651 1.37561H14.353V4.23219C14.353 4.61207 14.6606 4.92 15.0399 4.92H29.078V7.94338H4.22651V1.37561ZM31.8838 21.4778L33.3003 8.70718C33.3219 8.51267 33.2598 8.3183 33.1295 8.17249C32.9991 8.02674 32.813 7.94345 32.6176 7.94345H30.4517V4.23219C30.4517 3.85232 30.1442 3.54439 29.7648 3.54439H15.7268V0.687804C15.7268 0.30793 15.4193 0 15.0399 0H3.53963C3.16034 0 2.85276 0.30793 2.85276 0.687804V7.94345H0.68684C0.491493 7.94345 0.305418 8.02674 0.17505 8.17249C0.0447498 8.3183 -0.0174124 8.51267 0.00422418 8.70718L2.15806 28.1247C2.19673 28.4731 2.49071 28.7366 2.84074 28.7366H21.7275C22.4137 31.7469 25.1089 34 28.3201 34C32.0483 34 35.0816 30.9627 35.0816 27.2293C35.0816 24.8046 33.802 22.674 31.8838 21.4778ZM30.6821 25.6751L29.8354 26.523C29.9964 26.2583 29.9632 25.9086 29.7347 25.6797C29.506 25.4507 29.1567 25.4176 28.8921 25.579L29.7391 24.7308C29.8691 24.6007 30.0398 24.5356 30.2107 24.5356C30.3814 24.5356 30.5521 24.6007 30.6821 24.7308C30.9421 24.9912 30.9421 25.4148 30.6821 25.6751ZM27.8344 28.5268L26.9009 29.4614C26.6409 29.7218 26.2179 29.7218 25.9579 29.4614C25.698 29.2012 25.698 28.7775 25.9579 28.5172L26.8914 27.5825C26.9299 27.544 26.9726 27.5114 27.0179 27.4838C26.8963 27.7394 26.9403 28.0544 27.1517 28.266C27.2859 28.4003 27.4616 28.4675 27.6374 28.4675C27.7386 28.4675 27.8395 28.4445 27.9328 28.4C27.9055 28.445 27.8732 28.4879 27.8344 28.5268ZM31.6536 23.7581C30.8579 22.9615 29.5634 22.9615 28.7677 23.7581L27.8344 24.6928C27.4674 25.0604 27.27 25.5342 27.2416 26.0163C26.7602 26.0448 26.287 26.2423 25.92 26.6098L24.9865 27.5444C24.1909 28.3412 24.1909 29.6374 24.9865 30.4342C25.3843 30.8326 25.9068 31.0317 26.4294 31.0317C26.9519 31.0317 27.4746 30.8324 27.8723 30.4342L28.8058 29.4995C29.1727 29.132 29.3701 28.6581 29.3985 28.1761C29.8798 28.1476 30.3531 27.95 30.7201 27.5825L31.6536 26.6479C32.4492 25.8511 32.4492 24.5548 31.6536 23.7581Z" fill="#CCD4DD"/>
</svg>
