<svg width="24" height="24" viewBox="0 0 24 24" fill="none" xmlns="http://www.w3.org/2000/svg">
<path d="M11.2069 23.9649H11.2312C11.3084 23.9644 11.3835 23.94 11.4463 23.8952C11.5091 23.8504 11.5566 23.7874 11.5822 23.7146C11.6078 23.6418 11.6104 23.5629 11.5895 23.4886C11.5686 23.4144 11.5253 23.3483 11.4655 23.2996C11.4551 23.2293 11.4248 23.1635 11.3784 23.1097C11.3319 23.056 11.2711 23.0165 11.2031 22.996C9.3571 22.4468 7.89339 20.822 6.96381 18.4774C8.47861 18.0711 10.0379 17.8539 11.6061 17.8308V18.3668C11.6061 18.4662 11.6456 18.5616 11.7159 18.6319C11.7862 18.7022 11.8815 18.7417 11.9809 18.7417C12.0803 18.7417 12.1757 18.7022 12.246 18.6319C12.3162 18.5616 12.3557 18.4662 12.3557 18.3668V17.8289C12.5694 17.8289 12.783 17.8383 12.9948 17.8496C13.044 17.852 13.0933 17.8448 13.1397 17.8282C13.1861 17.8116 13.2288 17.7861 13.2654 17.753C13.3019 17.72 13.3316 17.68 13.3527 17.6355C13.3738 17.591 13.3859 17.5427 13.3884 17.4935C13.3909 17.4442 13.3836 17.395 13.367 17.3486C13.3505 17.3022 13.3249 17.2595 13.2919 17.2229C13.2588 17.1864 13.2189 17.1567 13.1743 17.1356C13.1298 17.1145 13.0815 17.1024 13.0323 17.0999C12.8093 17.0887 12.5825 17.083 12.3576 17.0793V12.3695H18.4786C18.578 12.3695 18.6733 12.3301 18.7436 12.2598C18.8139 12.1895 18.8534 12.0941 18.8534 11.9947C18.8641 9.95161 18.5477 7.91995 17.9163 5.97682C18.8523 5.67941 19.7529 5.28033 20.602 4.78674C22.1489 6.62809 23.0605 8.9193 23.2014 11.32C23.2074 11.4194 23.2526 11.5124 23.3271 11.5785C23.4016 11.6446 23.4993 11.6783 23.5988 11.6724C23.6982 11.6664 23.7911 11.6212 23.8572 11.5467C23.9233 11.4722 23.9571 11.3745 23.9511 11.275C23.7976 8.60312 22.75 6.06045 20.9768 4.05582L20.9562 4.03333C19.8337 2.76697 18.4557 1.7528 16.9129 1.0576C15.37 0.362399 13.6974 0.00195566 12.0052 7.93607e-06C10.313 -0.00193979 8.63956 0.354652 7.09514 1.0463C5.55072 1.73794 4.17035 2.74894 3.04496 4.01271C3.01341 4.03815 2.9862 4.06853 2.96437 4.10267V4.11392C1.49205 5.79702 0.519974 7.85846 0.158035 10.0652C-0.203903 12.2719 0.0587372 14.5358 0.916262 16.6011C1.77379 18.6663 3.19199 20.4504 5.01053 21.7518C6.82907 23.0531 8.97541 23.8197 11.2069 23.9649ZM9.3571 22.9304C7.24673 22.4247 5.32825 21.318 3.83398 19.7443C4.59907 19.3114 5.40671 18.9585 6.24413 18.6911C6.9863 20.5633 8.04519 22.027 9.3571 22.9304ZM0.736009 12.3695H5.11402C5.12299 14.2775 5.4206 16.1731 5.99675 17.992C5.06911 18.2894 4.17673 18.6872 3.33545 19.1783C1.73461 17.2617 0.819731 14.8654 0.736009 12.3695ZM3.35982 4.78861C4.2072 5.28116 5.10588 5.67959 6.03985 5.97682C5.44849 7.80041 5.13635 9.70294 5.11402 11.6199H0.74538C0.827059 9.11423 1.74774 6.70857 3.35982 4.78861ZM12.3557 0.772309C14.2561 0.984088 15.9166 2.79452 16.9661 5.4783C15.4613 5.87934 13.9129 6.09398 12.3557 6.11738V0.772309ZM11.6061 6.11738C10.049 6.09457 8.50058 5.88056 6.99567 5.48017C8.04519 2.79452 9.70569 0.984088 11.6061 0.772309V6.11738ZM11.6061 6.86704V11.6199H5.86368C5.88172 9.77505 6.17482 7.94322 6.73329 6.18485C8.32275 6.61454 9.95972 6.84371 11.6061 6.86704ZM11.6061 17.0812C9.95052 17.1052 8.30457 17.3375 6.70705 17.7727C6.15604 16.0243 5.87173 14.2027 5.86368 12.3695H11.6061V17.0812ZM18.0981 11.6199H12.3557V6.86704C14.0021 6.84371 15.6391 6.61454 17.2285 6.18485C17.787 7.94322 18.0801 9.77505 18.0981 11.6199ZM20.0997 4.21887C19.3261 4.65297 18.5096 5.00594 17.6633 5.27214C16.9774 3.49357 16.0197 2.06172 14.8952 1.13589C16.8787 1.66968 18.6785 2.7358 20.0997 4.21887ZM9.06848 1.13402C7.94399 2.0561 6.9863 3.49357 6.29474 5.27027C5.45251 5.0045 4.63985 4.65281 3.86959 4.22074C5.28825 2.7365 7.08621 1.669 9.06848 1.13402Z" fill="black"/>
<path d="M14.9796 20.6159C15.0144 20.6508 15.0558 20.6784 15.1013 20.6973C15.1468 20.7161 15.1955 20.7258 15.2448 20.7258C15.2941 20.7258 15.3428 20.7161 15.3883 20.6973C15.4338 20.6784 15.4752 20.6508 15.51 20.6159L20.6021 15.522C20.6635 15.4503 20.6955 15.358 20.6919 15.2637C20.6883 15.1693 20.6492 15.0799 20.5824 15.0131C20.5156 14.9464 20.4262 14.9072 20.3318 14.9036C20.2375 14.9 20.1452 14.932 20.0735 14.9935L14.9796 20.0874C14.9098 20.1576 14.8706 20.2526 14.8706 20.3516C14.8706 20.4507 14.9098 20.5457 14.9796 20.6159Z" fill="black"/>
<path d="M23.2258 12.3696C22.7391 11.8853 22.0804 11.6135 21.3939 11.6135C20.7073 11.6135 20.0486 11.8853 19.5619 12.3696L17.7908 14.1444C17.5285 14.4075 17.3258 14.7238 17.1965 15.0721C17.0671 15.4203 17.0142 15.7923 17.0412 16.1628C17.0441 16.2121 17.0567 16.2602 17.0783 16.3046C17.0999 16.3489 17.1299 16.3886 17.1668 16.4213C17.2037 16.454 17.2467 16.4792 17.2933 16.4953C17.3399 16.5114 17.3893 16.5181 17.4385 16.5152C17.4877 16.5122 17.5359 16.4996 17.5802 16.4781C17.6245 16.4565 17.6642 16.4264 17.6969 16.3895C17.7296 16.3526 17.7548 16.3096 17.7709 16.263C17.787 16.2164 17.7938 16.1671 17.7908 16.1179C17.7693 15.8537 17.8051 15.5881 17.8957 15.339C17.9862 15.09 18.1295 14.8634 18.3156 14.6748L20.0848 12.9056C20.4321 12.569 20.8977 12.3826 21.3813 12.3864C21.8649 12.3902 22.3276 12.584 22.6695 12.9259C23.0115 13.2679 23.2052 13.7305 23.2091 14.2141C23.2129 14.6977 23.0264 15.1634 22.6898 15.5106L20.9206 17.2798C20.7278 17.4716 20.4948 17.6182 20.2384 17.7089C19.9821 17.7997 19.7087 17.8323 19.4382 17.8046C19.3388 17.7952 19.2397 17.8256 19.1627 17.8892C19.0857 17.9528 19.0372 18.0444 19.0278 18.1438C19.0183 18.2432 19.0487 18.3423 19.1124 18.4193C19.176 18.4963 19.2676 18.5448 19.367 18.5543C19.4519 18.563 19.5369 18.5674 19.6219 18.5674C19.9611 18.5689 20.2972 18.5034 20.6111 18.3748C20.925 18.2461 21.2104 18.0568 21.451 17.8177L23.2258 16.041C23.7124 15.554 23.9856 14.8937 23.9856 14.2053C23.9856 13.5169 23.7124 12.8566 23.2258 12.3696Z" fill="black"/>
<path d="M16.0572 17.0457C15.7018 17.0319 15.3474 17.0913 15.0159 17.2202C14.6845 17.3492 14.3831 17.545 14.1305 17.7953L12.3557 19.5683C11.8689 20.0551 11.5953 20.7155 11.5953 21.404C11.5953 22.0925 11.8689 22.7529 12.3557 23.2397C12.8426 23.7266 13.5029 24.0001 14.1915 24.0001C14.88 24.0001 15.5403 23.7266 16.0272 23.2397L17.7908 21.463C18.0467 21.2052 18.2457 20.8964 18.3749 20.5568C18.504 20.2172 18.5604 19.8542 18.5404 19.4914C18.5352 19.392 18.4907 19.2987 18.4167 19.2321C18.3427 19.1655 18.2453 19.1311 18.1459 19.1363C18.0465 19.1415 17.9532 19.186 17.8866 19.26C17.82 19.334 17.7855 19.4314 17.7908 19.5308C17.8049 19.7888 17.7647 20.047 17.6727 20.2885C17.5807 20.53 17.4389 20.7494 17.2566 20.9326L15.4874 22.7018C15.1401 23.0384 14.6745 23.2249 14.1909 23.2211C13.7073 23.2172 13.2446 23.0235 12.9027 22.6815C12.5607 22.3396 12.3669 21.8769 12.3631 21.3933C12.3593 20.9097 12.5458 20.4441 12.8824 20.0968L14.6609 18.3294C14.8405 18.1512 15.0547 18.0116 15.2903 17.9194C15.526 17.8272 15.7781 17.7843 16.0309 17.7934C16.1303 17.7969 16.2271 17.7608 16.2998 17.6929C16.3726 17.6251 16.4154 17.5311 16.4189 17.4317C16.4224 17.3323 16.3862 17.2356 16.3184 17.1628C16.2505 17.0901 16.1566 17.0473 16.0572 17.0438V17.0457Z" fill="black"/>
</svg>
