<svg width="21" height="24" viewBox="0 0 21 24" fill="none" xmlns="http://www.w3.org/2000/svg">
<path d="M20.0151 4.75903L15.3701 0.113979C15.2741 0.0350999 15.1523 -0.00531938 15.0282 0.000562415H4.25796C3.81202 0.00117983 3.37993 0.155515 3.0345 0.437557C2.68908 0.719599 2.45145 1.1121 2.36166 1.54891H1.93544C1.42231 1.54952 0.930379 1.75362 0.567544 2.11646C0.20471 2.47929 0.000604418 2.97123 0 3.48435V22.0646C0.000604418 22.5777 0.20471 23.0696 0.567544 23.4325C0.930379 23.7953 1.42231 23.9994 1.93544 24H15.8706C16.3837 23.9994 16.8757 23.7953 17.2385 23.4325C17.6013 23.0696 17.8054 22.5777 17.806 22.0646H18.1931C18.7062 22.064 19.1982 21.8599 19.561 21.497C19.9239 21.1342 20.128 20.6422 20.1286 20.1291V5.10319C20.1341 5.04113 20.1268 4.9786 20.1073 4.91942C20.0878 4.86025 20.0565 4.80567 20.0151 4.75903ZM15.4835 1.32212L18.807 4.64562H15.8706C15.768 4.64548 15.6696 4.60466 15.597 4.53209C15.5245 4.45953 15.4836 4.36115 15.4835 4.25853V1.32212ZM15.8706 23.2258H1.93544C1.62756 23.2255 1.33238 23.103 1.11467 22.8853C0.896969 22.6676 0.774514 22.3724 0.774175 22.0646V3.48435C0.774514 3.17647 0.896969 2.88129 1.11467 2.66359C1.33238 2.44588 1.62756 2.32343 1.93544 2.32309H2.32253V20.1291C2.32313 20.6422 2.52724 21.1342 2.89007 21.497C3.2529 21.8599 3.74484 22.064 4.25796 22.0646H17.0319C17.0315 22.3724 16.9091 22.6676 16.6914 22.8853C16.4737 23.103 16.1785 23.2255 15.8706 23.2258ZM19.3544 20.1291C19.354 20.437 19.2316 20.7322 19.0139 20.9499C18.7962 21.1676 18.501 21.29 18.1931 21.2904H4.25796C3.95008 21.29 3.65491 21.1676 3.4372 20.9499C3.2195 20.7322 3.09704 20.437 3.0967 20.1291V1.936C3.09704 1.62812 3.2195 1.33294 3.4372 1.11524C3.65491 0.897532 3.95008 0.775076 4.25796 0.774738H14.7093V4.25853C14.7097 4.56641 14.8321 4.86159 15.0498 5.07929C15.2675 5.297 15.5627 5.41945 15.8706 5.41979H19.3544V20.1291ZM15.8706 11.2261C15.9733 11.2261 16.0717 11.2669 16.1443 11.3395C16.2169 11.4121 16.2577 11.5105 16.2577 11.6132C16.2577 11.7159 16.2169 11.8143 16.1443 11.8869C16.0717 11.9595 15.9733 12.0003 15.8706 12.0003H6.58049C6.47783 12.0003 6.37937 11.9595 6.30678 11.8869C6.23419 11.8143 6.1934 11.7159 6.1934 11.6132C6.1934 11.5105 6.23419 11.4121 6.30678 11.3395C6.37937 11.2669 6.47783 11.2261 6.58049 11.2261H15.8706ZM13.9352 14.3228C13.9352 14.4255 13.8944 14.5239 13.8218 14.5965C13.7492 14.6691 13.6507 14.7099 13.5481 14.7099H6.58049C6.47783 14.7099 6.37937 14.6691 6.30678 14.5965C6.23419 14.5239 6.1934 14.4255 6.1934 14.3228C6.1934 14.2201 6.23419 14.1217 6.30678 14.0491C6.37937 13.9765 6.47783 13.9357 6.58049 13.9357H13.5481C13.6507 13.9357 13.7492 13.9765 13.8218 14.0491C13.8944 14.1217 13.9352 14.2201 13.9352 14.3228ZM6.1934 8.90358C6.1934 8.80092 6.23419 8.70246 6.30678 8.62987C6.37937 8.55727 6.47783 8.51649 6.58049 8.51649H10.4514C10.554 8.51649 10.6525 8.55727 10.7251 8.62987C10.7977 8.70246 10.8385 8.80092 10.8385 8.90358C10.8385 9.00624 10.7977 9.1047 10.7251 9.17729C10.6525 9.24989 10.554 9.29067 10.4514 9.29067H6.58049C6.47783 9.29067 6.37937 9.24989 6.30678 9.17729C6.23419 9.1047 6.1934 9.00624 6.1934 8.90358Z" fill="black"/>
</svg>
