<svg width="32" height="29" viewBox="0 0 32 29" fill="none" xmlns="http://www.w3.org/2000/svg">
<path d="M23.3671 25.3246V26.4015H7.60455V13.3476C8.94257 13.1844 10.1501 12.6297 11.1291 11.7811H20.1363C20.5932 11.7811 20.9848 11.3895 20.9848 10.9326C20.9848 10.4758 20.6258 10.0841 20.1363 10.0841H12.565C13.0219 9.30091 13.3156 8.4524 13.4462 7.50599H23.3671V16.7743L25.0315 14.9141V7.17965C25.0315 6.46168 24.4441 5.87426 23.7261 5.87426H13.4135C13.0219 2.57815 10.2153 0 6.78868 0C3.06832 0 0.065918 3.0024 0.065918 6.72276C0.065918 10.1494 2.64406 12.956 5.94018 13.3476V26.7605C5.94018 27.4785 6.5276 28.0659 7.24557 28.0659H23.6935C24.4115 28.0659 24.9989 27.4785 24.9989 26.7605V23.6928L23.9219 24.8677C23.7914 25.0961 23.5956 25.2267 23.3671 25.3246ZM1.73029 6.72276C1.73029 3.94881 3.98209 1.66437 6.78868 1.66437C9.59527 1.66437 11.8471 3.91617 11.8471 6.72276C11.8471 9.52935 9.59527 11.7811 6.78868 11.7811C3.98209 11.7811 1.73029 9.49671 1.73029 6.72276Z" fill="#0A9507"/>
<path d="M10.8353 15.7952H20.1362C20.5931 15.7952 20.9847 15.4363 20.9847 14.9467C20.9847 14.4572 20.6257 14.0982 20.1362 14.0982H10.8353C10.3784 14.0982 9.98682 14.4572 9.98682 14.9467C9.98682 15.4363 10.3784 15.7952 10.8353 15.7952Z" fill="#0A9507"/>
<path d="M20.9847 18.9934C20.9847 18.5365 20.6257 18.1449 20.1362 18.1449H10.8353C10.3784 18.1449 9.98682 18.5039 9.98682 18.9934C9.98682 19.4503 10.3458 19.8419 10.8353 19.8419H20.1362C20.5931 19.8093 20.9847 19.4503 20.9847 18.9934Z" fill="#0A9507"/>
<path d="M9.98682 23.0075C9.98682 23.4644 10.3458 23.856 10.8353 23.856H18.8635L19.1572 22.1916H10.8353C10.3784 22.159 9.98682 22.518 9.98682 23.0075Z" fill="#0A9507"/>
<path d="M26.8802 14.8847L21.915 20.4258L24.2724 22.5382L29.2376 16.9971L26.8802 14.8847Z" fill="#0A9507"/>
<path d="M20.7563 24.7046L22.7471 24.1498C22.845 24.1171 22.9102 24.0845 22.9755 24.0192L23.5629 23.3665L21.2132 21.2453L20.6258 21.898C20.5605 21.9632 20.5279 22.0611 20.4953 22.1264L20.1363 24.1824C20.1036 24.5087 20.3973 24.8025 20.7563 24.7046Z" fill="#0A9507"/>
<path d="M30.906 14.4245L29.2742 12.956C29.0784 12.7928 28.7847 12.7928 28.5889 12.9886L27.6099 14.0982L29.9596 16.2195L30.9386 15.1099C31.1344 14.9141 31.1018 14.5877 30.906 14.4245Z" fill="#0A9507"/>
<path d="M9.43215 5.87423C9.72586 5.51525 9.69323 4.99309 9.36688 4.69938C9.0079 4.40567 8.48574 4.4383 8.19203 4.76465L6.16867 7.08172L5.18963 6.10268C4.86328 5.77633 4.34113 5.77633 4.01478 6.10268C3.68843 6.42902 3.68843 6.95118 4.01478 7.27753L5.61388 8.87663C5.77706 9.03981 5.97287 9.10508 6.20131 9.10508H6.23394C6.46239 9.10508 6.69083 9.00717 6.82137 8.81136L9.43215 5.87423Z" fill="#0A9507"/>
</svg>
