<svg width="38" height="38" viewBox="0 0 38 38" fill="none" xmlns="http://www.w3.org/2000/svg">
<path d="M7.41172 5.67837e-06C7.03951 0.00131591 6.73894 0.301095 6.74045 0.669296V4.00006H0.676553C0.302262 3.99873 -0.00151062 4.29906 5.65172e-06 4.66928V31.3307C-0.00134226 31.7009 0.302323 32.0014 0.676553 32H16.1923C16.5645 32 16.8662 31.7015 16.8662 31.3333C16.8662 30.9651 16.5645 30.6666 16.1923 30.6666H1.34783V12.0013H29.6508L29.6522 15.6315C29.6522 15.8083 29.7232 15.9779 29.8496 16.1029C29.9759 16.2279 30.1473 16.2982 30.3261 16.2982C30.5048 16.2982 30.6762 16.2279 30.8026 16.1029C30.929 15.9779 31 15.8083 31 15.6315V4.66928C31.0013 4.29908 30.6977 3.9986 30.3235 4.00006H24.2596V0.669296C24.2609 0.301095 23.9605 0.00136631 23.5883 5.67837e-06H19.5448C19.1705 -0.00132975 18.8667 0.299054 18.8683 0.669296V4.00006H12.1318V0.669296C12.1331 0.299054 11.8295 -0.00150613 11.4552 5.67837e-06H7.41172ZM8.08827 1.33336H10.7839V6.66669H8.08827V1.33336ZM20.2161 1.33336H22.9117V6.66669H20.2161V1.33336ZM1.34783 5.33334H6.74045V7.3359C6.74179 7.70209 7.04156 7.99866 7.41172 8.00004H11.4552C11.8274 8.00135 12.1303 7.70413 12.1317 7.3359V5.33334H18.8682V7.3359C18.8696 7.70413 19.1726 8.00153 19.5448 8.00004H23.5882C23.9584 7.99871 24.2581 7.70209 24.2595 7.3359V5.33334H29.6508V10.6667H1.34783V5.33334Z" fill="#CCD4DD"/>
<path d="M28 18C22.4851 18 18 22.4851 18 28C18 33.515 22.4851 38 28 38C33.515 38 38 33.515 38 28C38 22.4851 33.515 18 28 18ZM28 19.3287C32.7944 19.3287 36.6664 23.2056 36.6664 28C36.6664 32.7944 32.7944 36.6663 28 36.6663C23.2056 36.6663 19.3337 32.7944 19.3337 28C19.3337 23.2056 23.2056 19.3287 28 19.3287Z" fill="#CCD4DD"/>
<path d="M27.7144 21.0001C27.5223 21.0032 27.3394 21.0725 27.2056 21.1929C27.0717 21.3133 26.9979 21.475 27 21.6429V27.3666C27.0007 27.5344 27.0773 27.6952 27.2132 27.8139C27.349 27.9325 27.533 27.9994 27.7251 28H34.2723C34.4653 28 34.6504 27.933 34.7868 27.8138C34.9233 27.6946 35 27.5329 35 27.3643C35 27.1957 34.9233 27.034 34.7868 26.9148C34.6504 26.7956 34.4653 26.7286 34.2723 26.7286H28.4556V21.6429C28.4567 21.5578 28.4382 21.4734 28.4013 21.3946C28.3644 21.3159 28.3097 21.2445 28.2406 21.1845C28.1715 21.1246 28.0893 21.0774 27.9989 21.0457C27.9085 21.014 27.8118 20.9985 27.7144 21.0001Z" fill="#CCD4DD"/>
</svg>
