<svg width="16" height="16" viewBox="0 0 16 16" fill="none" xmlns="http://www.w3.org/2000/svg">
<path d="M7.99983 0C3.58156 0 0 3.58156 0 7.99983C0 12.4181 3.58156 16 7.99983 16C12.4181 16 15.9997 12.4181 15.9997 7.99983C15.9997 3.58156 12.4181 0 7.99983 0Z" fill="#C9BBBB"/>
<path d="M1.49634 7.99999C1.49634 11.5861 4.4139 14.5036 7.99999 14.5036C11.5861 14.5036 14.5033 11.5861 14.5033 7.99999C14.5033 4.4139 11.5861 1.49634 7.99999 1.49634C4.4139 1.49634 1.49634 4.4139 1.49634 7.99999Z" fill="#F9F9F8"/>
<path d="M7.9998 8.49795H12.6507C12.8814 8.49795 13.0687 8.31067 13.0687 8.07962C13.0687 7.84891 12.8814 7.66162 12.6507 7.66162H7.9998C7.76875 7.66162 7.58142 7.84895 7.58142 8.07962C7.58142 8.31063 7.76875 8.49795 7.9998 8.49795Z" fill="#6B8DA1"/>
<path d="M7.9998 8.49813C8.23085 8.49813 8.41817 8.31085 8.41817 8.0798V3.52873C8.41817 3.29768 8.23085 3.11035 7.9998 3.11035C7.76875 3.11035 7.58142 3.29768 7.58142 3.52873V8.07976C7.58142 8.31081 7.76875 8.49813 7.9998 8.49813Z" fill="#6B8DA1"/>
</svg>
