<svg width="21" height="17" viewBox="0 0 21 17" fill="none" xmlns="http://www.w3.org/2000/svg">
<path d="M4.94266 8.31813L4.87197 8.245L4.80005 8.31692L3.86483 9.25214V4.87076C3.86483 3.33345 5.12506 2.07322 6.66238 2.07322H15.8195H15.9195V1.97322V1V0.9H15.8195H6.64026C4.46164 0.9 2.69161 2.67003 2.69161 4.84865V9.23002L1.75639 8.2948L1.68568 8.22409L1.61497 8.2948L0.929289 8.98048L0.858579 9.05119L0.929289 9.1219L2.85361 11.0462C2.96367 11.1563 3.12328 11.2082 3.2561 11.2082C3.38893 11.2082 3.54854 11.1563 3.65859 11.0462L5.58292 9.1219L5.65244 9.05238L5.5841 8.98169L4.94266 8.31813Z" fill="#1BDCC5" stroke="#1BDCC5" stroke-width="0.2"/>
<path d="M20.0696 8.45951L20.1426 8.38882L20.0707 8.31694L18.1464 6.39262C17.9083 6.1545 17.5574 6.1545 17.3193 6.39262L15.395 8.31694L15.3243 8.38765L15.395 8.45836L16.0807 9.14404L16.1514 9.21475L16.2221 9.14404L17.1573 8.20882V12.5902C17.1573 14.1275 15.8971 15.3877 14.3598 15.3877H5.20264H5.10264V15.4877V16.461V16.561H5.20264H14.3598C16.5384 16.561 18.3084 14.7909 18.3084 12.6123V8.1867L19.2436 9.12192L19.3132 9.19148L19.3839 9.12307L20.0696 8.45951Z" fill="#1BDCC5" stroke="#1BDCC5" stroke-width="0.2"/>
<path d="M8.47623 8.07801C8.3214 7.702 8.23292 7.28174 8.23292 6.81725C8.23292 5.79979 8.45411 4.47267 10.4005 4.47267C12.347 4.47267 12.5682 5.82191 12.5682 6.81725C12.5682 7.28174 12.4797 7.702 12.3249 8.07801M8.47623 8.07801L12.5682 8.76369C12.3249 8.63098 12.2364 8.32132 12.3249 8.07801M8.47623 8.07801C8.58682 8.34344 8.47623 8.63098 8.23292 8.76369L8.47623 8.07801ZM12.3249 8.07801L12.4173 8.11609C12.4176 8.1154 12.4179 8.11472 12.4182 8.11404M12.3249 8.07801L12.4189 8.11219C12.4186 8.1128 12.4184 8.11342 12.4182 8.11404M12.4182 8.11404C12.3453 8.31726 12.4227 8.57044 12.6161 8.6759L12.6178 8.67685L12.6178 8.67687L14.0113 9.47314L14.0147 9.4751L14.0147 9.47516C14.2163 9.60117 14.3492 9.80796 14.3492 10.0466V10.688C14.3492 11.1182 14.2098 11.5158 13.9857 11.8078C13.7619 12.0994 13.4475 12.2921 13.099 12.2921H7.70207C7.35364 12.2921 7.03924 12.0994 6.81542 11.8078C6.60874 11.5386 6.47415 11.1796 6.45442 10.788H6.42979V10.688V10.0687C6.42979 9.83718 6.55688 9.60202 6.76977 9.49407L8.18287 8.67712L8.18502 8.67587L8.18504 8.6759C8.38506 8.5668 8.47411 8.33293 8.38392 8.11647L8.38376 8.11609C8.22393 7.72794 8.13292 7.29474 8.13292 6.81725C8.13292 6.30529 8.18757 5.6937 8.503 5.20888C8.82417 4.71523 9.40181 4.37267 10.4005 4.37267C11.3999 4.37267 11.9774 4.72123 12.2982 5.2174C12.6134 5.70479 12.6682 6.31606 12.6682 6.81725C12.6682 7.2939 12.5775 7.72641 12.4182 8.11404ZM7.83527 10.2245L7.83533 10.2246L7.83971 10.2221L9.21106 9.44798L9.21152 9.44772C9.33445 9.37747 9.47887 9.3739 9.63454 9.43204C9.86415 9.52376 10.1419 9.59361 10.4227 9.59361C10.6997 9.59361 10.9572 9.5473 11.215 9.43029C11.3445 9.37514 11.5098 9.37684 11.6338 9.44772L11.6343 9.44798L13.0056 10.2221L13.0056 10.2222L13.0101 10.2245C13.1494 10.2941 13.2423 10.4561 13.2423 10.6217V10.688C13.2423 10.9152 13.027 11.1189 12.7894 11.1189H8.10021C7.85977 11.1189 7.64724 10.9347 7.64724 10.688V10.688V10.688V10.688V10.688V10.688V10.688V10.688V10.688V10.688V10.688V10.688V10.688V10.688V10.688V10.6879V10.6879V10.6879V10.6879V10.6879V10.6879V10.6879V10.6879V10.6879V10.6879V10.6879V10.6879V10.6879V10.6879V10.6879V10.6879V10.6879V10.6879V10.6879V10.6879V10.6879V10.6878V10.6878V10.6878V10.6878V10.6878V10.6878V10.6878V10.6878V10.6878V10.6878V10.6878V10.6878V10.6878V10.6878V10.6878V10.6878V10.6878V10.6877V10.6877V10.6877V10.6877V10.6877V10.6877V10.6877V10.6877V10.6877V10.6877V10.6877V10.6877V10.6877V10.6877V10.6876V10.6876V10.6876V10.6876V10.6876V10.6876V10.6876V10.6876V10.6876V10.6876V10.6876V10.6875V10.6875V10.6875V10.6875V10.6875V10.6875V10.6875V10.6875V10.6875V10.6874V10.6874V10.6874V10.6874V10.6874V10.6874V10.6874V10.6874V10.6874V10.6873V10.6873V10.6873V10.6873V10.6873V10.6873V10.6873V10.6872V10.6872V10.6872V10.6872V10.6872V10.6872V10.6872V10.6871V10.6871V10.6871V10.6871V10.6871V10.6871V10.6871V10.687V10.687V10.687V10.687V10.687V10.687V10.6869V10.6869V10.6869V10.6869V10.6869V10.6868V10.6868V10.6868V10.6868V10.6868V10.6868V10.6867V10.6867V10.6867V10.6867V10.6867V10.6866V10.6866V10.6866V10.6866V10.6866V10.6865V10.6865V10.6865V10.6865V10.6864V10.6864V10.6864V10.6864V10.6864V10.6863V10.6863V10.6863V10.6863V10.6862V10.6862V10.6862V10.6862V10.6861V10.6861V10.6861V10.6861V10.686V10.686V10.686V10.686V10.6859V10.6859V10.6859V10.6858V10.6858V10.6858V10.6858V10.6857V10.6857V10.6857V10.6856V10.6856V10.6856V10.6856V10.6855V10.6855V10.6855V10.6854V10.6854V10.6854V10.6853V10.6853V10.6853V10.6852V10.6852V10.6852V10.6851V10.6851V10.6851V10.685V10.685V10.685V10.6849V10.6849V10.6849V10.6848V10.6848V10.6848V10.6847V10.6847V10.6847V10.6846V10.6846V10.6845V10.6845V10.6845V10.6844V10.6844V10.6844V10.6843V10.6843V10.6842V10.6842V10.6842V10.6841V10.6841V10.684V10.684V10.684V10.6839V10.6839V10.6838V10.6838V10.6837V10.6837V10.6837V10.6836V10.6836V10.6835V10.6835V10.6834V10.6834V10.6833V10.6833V10.6832V10.6832V10.6832V10.6831V10.6831V10.683V10.683V10.6829V10.6829V10.6828V10.6828V10.6827V10.6827V10.6826V10.6826V10.6825V10.6825V10.6824V10.6824V10.6823V10.6823V10.6822V10.6821V10.6821V10.682V10.682V10.6819V10.6819V10.6818V10.6818V10.6817V10.6816V10.6816V10.6815V10.6815V10.6814V10.6814V10.6813V10.6812V10.6812V10.6811V10.6811V10.681V10.6809V10.6809V10.6808V10.6808V10.6807V10.6806V10.6806V10.6805V10.6805V10.6804V10.6803V10.6803V10.6802V10.6801V10.6801V10.68V10.6799V10.6799V10.6798V10.6797V10.6797V10.6796V10.6795V10.6795V10.6794V10.6793V10.6793V10.6792V10.6791V10.679V10.679V10.6789V10.6788V10.6788V10.6787V10.6786V10.6785V10.6785V10.6784V10.6783V10.6782V10.6782V10.6781V10.678V10.6779V10.6779V10.6778V10.6777V10.6776V10.6775V10.6775V10.6774V10.6773V10.6772V10.6771V10.6771V10.677V10.6769V10.6768V10.6767V10.6767V10.6766V10.6765V10.6764V10.6763V10.6762V10.6761V10.6761V10.676V10.6759V10.6758V10.6757V10.6756V10.6755V10.6755V10.6754V10.6753V10.6752V10.6751V10.675V10.6749V10.6748V10.6747V10.6746V10.6745V10.6744V10.6744V10.6743V10.6742V10.6741V10.674V10.6739V10.6738V10.6737V10.6736V10.6735V10.6734V10.6733V10.6732V10.6731V10.673V10.6729V10.6728V10.6727V10.6726V10.6725V10.6724V10.6723V10.6722V10.6721V10.672V10.6719V10.6718V10.6717V10.6715V10.6714V10.6713V10.6712V10.6711V10.671V10.6709V10.6708V10.6707V10.6706V10.6705V10.6704V10.6702V10.6701V10.67V10.6699V10.6698V10.6697V10.6696V10.6694V10.6693V10.6692V10.6691V10.669V10.6689V10.6687V10.6686V10.6685V10.6684V10.6683V10.6681V10.668V10.6679V10.6678V10.6677V10.6675V10.6674V10.6673V10.6672V10.667V10.6669V10.6668V10.6667V10.6665V10.6664V10.6663V10.6662V10.666V10.6659V10.5995V10.5886L7.64486 10.5778C7.61269 10.4331 7.68995 10.2971 7.83527 10.2245ZM10.4005 5.52377C10.8736 5.52377 11.1304 5.59726 11.2788 5.76851C11.4317 5.94486 11.495 6.25172 11.495 6.79513C11.495 7.20057 11.3933 7.60696 11.2034 7.90863C11.0147 8.20848 10.7446 8.39827 10.4005 8.39827C10.0576 8.39827 9.78716 8.20403 9.59788 7.90066C9.40768 7.59581 9.30614 7.18915 9.30614 6.79513C9.30614 6.25173 9.36942 5.94486 9.52225 5.76851C9.67067 5.59726 9.92752 5.52377 10.4005 5.52377Z" fill="#1BDCC5" stroke="#1BDCC5" stroke-width="0.2"/>
</svg>
