<svg xmlns="http://www.w3.org/2000/svg" xmlns:xlink="http://www.w3.org/1999/xlink" width="92" height="92" viewBox="0 0 92 92">
  <defs>
    <clipPath id="clip-path">
      <rect id="Rectangle_2121" data-name="Rectangle 2121" width="42.92" height="38.566" fill="none"/>
    </clipPath>
  </defs>
  <g id="Course_wise_fee_report_" data-name="Course wise fee report " transform="translate(0.738 0.739)">
    <rect id="BG" width="92" height="92" transform="translate(-0.738 -0.739)" fill="none"/>
    <g id="PTM" transform="translate(45.279 44.852)">
      <path id="Path_11" data-name="Path 11" d="M360.211,402.083h-6a.816.816,0,1,1,0-1.593h6a.816.816,0,1,1,0,1.593Z" transform="translate(-336.031 -374.508)" fill="#0a346c"/>
      <path id="Path_2167" data-name="Path 2167" d="M293.714,253.69H261.392a5.3,5.3,0,0,0-5.292,5.292V279.5a5.3,5.3,0,0,0,5.292,5.292h13.876l-.761,3.805a1.554,1.554,0,0,1-1.522,1.257H268.9a1.2,1.2,0,1,0,0,2.407h17.327a1.2,1.2,0,1,0,0-2.407h-4.035a1.648,1.648,0,0,1-1.611-1.31l-.743-3.735H293.71A5.3,5.3,0,0,0,299,279.513V259A5.3,5.3,0,0,0,293.714,253.69Zm-17.575,35.575.743-3.2h1.324l.655,3.2Zm20.46-9.77a2.885,2.885,0,0,1-2.885,2.885H261.392a2.885,2.885,0,0,1-2.885-2.885v-.956H296.6v.956Zm.018-3.38H258.511V258.982A2.885,2.885,0,0,1,261.4,256.1h32.336a2.885,2.885,0,0,1,2.885,2.885Z" transform="translate(-256.1 -253.69)" fill="#0a346c"/>
    </g>
    <g id="Group_4397" data-name="Group 4397" transform="translate(44.996 44.836)" clip-path="url(#clip-path)">
      <g id="Cash" transform="translate(7.96 10.514)">
        <path id="Path_160" data-name="Path 160" d="M320.068,324.45l-.142-1.54-13.646.513.319,7.557h.694l.071-6.655,12.708.142" transform="translate(-305.076 -321.157)" fill="#56a6db"/>
        <path id="Path_161" data-name="Path 161" d="M315.585,315.922l-.195-1.522-13.611.991.584,7.54.69-.018-.159-6.655,12.708-.3" transform="translate(-301.372 -314.153)" fill="#56a6db"/>
        <path id="Subtraction_3" data-name="Subtraction 3" d="M315.3,324.069l-13.646-.142a.219.219,0,0,1-.23-.212v-.673l-.442.018a.177.177,0,0,1-.159-.071.193.193,0,0,1-.071-.159l-.018-.69-.407.035h-.018a.2.2,0,0,1-.142-.053.211.211,0,0,1-.089-.159l-.6-7.593a.251.251,0,0,1,.212-.266l13.611-1.1a.225.225,0,0,1,.106.018c.018,0,.035.018.071.018a.21.21,0,0,1,.089.159l.106,1.292.708-.018a.177.177,0,0,1,.159.071.193.193,0,0,1,.071.159l.035,1.274h.779a.246.246,0,0,1,.177.088.177.177,0,0,1,.035.159l-.088,7.611a.219.219,0,0,1-.212.23Zm-13.31-7.734-.071,7.15,13.168.142.071-7.15Zm12.142-1.363-13.15.478.248,7.133h.23l.071-6.5a.219.219,0,0,1,.212-.23h.018l12.407.142Zm-1.009-1.469-13.133,1.062.549,7.133.195-.018-.212-6.442a.234.234,0,0,1,.23-.23l12.46-.46Zm.9,9.026h-.5v-.23h.266v-.212h.23Zm-1.31-.018h-.708v-.23h.708Zm-1.522-.018h-.708v-.23h.708Zm-4.655-.053h-.708v-.232h.708v.23Zm-1.522-.018h-.708v-.23h.708Zm-1.522,0H303v-.442h.23v.212h.265Zm10.549-1.239h-.23v-.708h.23Zm-10.779-.124h-.23v-.708h.23Zm10.8-1.451h-.23V318.9h.23Zm-10.779-.124h-.23v-.708h.234Zm10.8-1.487h-.23v-.214h-.265v-.23h.5V318Zm-10.779-.124h-.23v-.444h.5v.23H303.3v.212Zm9.469-.106h-.708v-.23h.708Zm-1.522-.018h-.708v-.23h.708Zm-4.655-.053h-.708v-.23h.708Zm-1.522-.018h-.708v-.23h.708Z" transform="translate(-299.477 -313.006)" fill="#0a346c"/>
        <path id="Path_147" data-name="Path 147" d="M343.215,341.883l1.434.035a1.143,1.143,0,0,0-.071-.23.693.693,0,0,0-.142-.177,1.08,1.08,0,0,0-.248-.124,1.11,1.11,0,0,0-.336-.053l-.6-.018.018-.407,2.655.071-.018.407-.973-.035a1.13,1.13,0,0,1,.142.248,1.854,1.854,0,0,1,.071.3l.761.018-.018.407-.761-.018a1.175,1.175,0,0,1-.9.92v.018a1.555,1.555,0,0,1,.177.106c.053.053.106.089.159.142a.785.785,0,0,1,.142.195c.053.071.106.159.159.248l.708,1.221L345,345.14l-.637-1.15a1.974,1.974,0,0,0-.177-.283,1.872,1.872,0,0,0-.177-.212.663.663,0,0,0-.212-.124.735.735,0,0,0-.283-.053h-.336l.018-.407.6.018a1.374,1.374,0,0,0,.283-.035,1.081,1.081,0,0,0,.248-.124.753.753,0,0,0,.195-.212.834.834,0,0,0,.106-.265l-1.416-.035Z" transform="translate(-335.445 -335.971)" fill="#56a6db"/>
      </g>
      <path id="Path_2168" data-name="Path 2168" d="M361.5,278.619l9.345-.619,5.876,6.761-2.372.885-1.327,3.664-6.973.3-4.46-5.027,1.628-3.734Z" transform="translate(-342.562 -273.681)" fill="#57a7dc"/>
      <path id="Path_2169" data-name="Path 2169" d="M372.8,289.058l-.336-1.7,1.734-4.195c0-.018,0-.018.018-.035a.494.494,0,0,0-.089-.513l-.053-.053-6.584-7.186a.577.577,0,0,0-.407-.177l-9.752.478a.442.442,0,0,0-.319.142.531.531,0,0,0-.035.743l1.717,1.876-1.469,3.575a.531.531,0,0,0,.089.531l4.584,5.257a.786.786,0,0,0,.195.142h0a.532.532,0,0,0,.23.035l6.956-.513a.531.531,0,0,0,.442-.319l1.469-3.575,1.752-.089L371.5,286.97l-1.434.956a.488.488,0,0,0-.195.23.515.515,0,0,0,.283.673.5.5,0,0,0,.5-.053l.92-.619.212,1.08a.49.49,0,0,0,.319.372h0a.568.568,0,0,0,.3.035.474.474,0,0,0,.389-.584Zm-3.965-2.513-6.354.389-4.195-4.832,1.08-2.619,3.876,4.248-.177.442a.474.474,0,0,0,.319.584.48.48,0,0,0,.637-.195l.177-.443,5.734-.283Zm-2.655-7.239.195-.478a.517.517,0,1,0-.956-.389l-.8,1.929a.517.517,0,1,0,.956.389l.195-.478,5.487,2.265-7.009.336c-.035-.018-.053-.035-.089-.053s-.071-.018-.089-.035l-5.611-6.124,8.407-.407,4.9,5.363Z" transform="translate(-338.725 -271.377)" fill="#0a346c"/>
    </g>
    <g id="Group_4232" data-name="Group 4232" transform="translate(2.607 2.612)">
      <g id="Group_4231" data-name="Group 4231" transform="translate(8.907 9.127)">
        <path id="Path_1717" data-name="Path 1717" d="M155.143,92.112l-.053,1.469.053-17.681s16.372,1.894,16.759,17.61H155.143" transform="translate(-139.202 -74.254)" fill="#57a7dc"/>
        <path id="Path_1713" data-name="Path 1713" d="M80.663,66.6A1.662,1.662,0,0,0,79,68.264v2.991a15.327,15.327,0,1,0,16.885,16.92h2.991a1.662,1.662,0,0,0,1.662-1.664A19.887,19.887,0,0,0,80.663,66.6Zm0,31.876A11.988,11.988,0,0,1,79,74.618V86.494a1.662,1.662,0,0,0,1.662,1.664H92.539A12,12,0,0,1,80.663,98.476ZM82.329,84.83h0V70.016A16.586,16.586,0,0,1,97.141,84.83Z" transform="translate(-65.322 -66.6)" fill="#0a346c"/>
      </g>
      <g id="Group_4230" data-name="Group 4230">
        <path id="Path_2170" data-name="Path 2170" d="M299.37,33.83,313.1,47.547H299.37V33.83" transform="translate(-249.039 -30.503)" fill="#57a7dc"/>
        <path id="Path_1711" data-name="Path 1711" d="M98.6,96.994H19.986a1.662,1.662,0,0,1-1.664-1.664V20.039a1.662,1.662,0,0,1,1.664-1.664H62.964V29.361a4.986,4.986,0,0,0,4.991,4.991H78.946v20.5a1.664,1.664,0,1,0,3.327,0h0V32.694a1.676,1.676,0,0,0-.5-1.186L65.814,15.526a1.676,1.676,0,0,0-1.186-.5H19.986A5.023,5.023,0,0,0,15,20.039V95.33a4.986,4.986,0,0,0,4.991,4.991H98.61a1.664,1.664,0,1,0-.005-3.327ZM66.286,20.729l10.3,10.3H67.95a1.662,1.662,0,0,1-1.664-1.664Z" transform="translate(-15 -15.03)" fill="#0a346c"/>
      </g>
      <g id="Group_4229" data-name="Group 4229" transform="translate(8.986 49.752)">
        <path id="Path_1714" data-name="Path 1714" d="M96.253,296.13H67.292c-.832,0-1.522,1.186-1.522,2.673s.673,2.673,1.522,2.673H96.253c.832,0,1.522-1.186,1.522-2.673S97.079,296.13,96.253,296.13Z" transform="translate(-65.77 -296.13)" fill="#57a7dc"/>
        <path id="Path_1714-2" data-name="Path 1714" d="M88.956,388H66.92c-.637,0-1.15,1.186-1.15,2.673s.513,2.673,1.15,2.673H88.956c.637,0,1.15-1.186,1.15-2.673S89.593,388,88.956,388Z" transform="translate(-65.77 -371.74)" fill="#57a7dc"/>
        <path id="Path_1715" data-name="Path 1715" d="M79.858,341.73H67.681c-1.044,0-1.911,1.186-1.911,2.673s.85,2.673,1.911,2.673H79.858c1.044,0,1.911-1.186,1.911-2.673S80.92,341.73,79.858,341.73Z" transform="translate(-65.77 -333.659)" fill="#57a7dc"/>
        <path id="Path_1716" data-name="Path 1716" d="M177.652,342.476a2.671,2.671,0,1,0,.779,1.894A2.671,2.671,0,0,0,177.652,342.476Z" transform="translate(-154.094 -333.627)" fill="#0a346c"/>
      </g>
    </g>
  </g>
</svg>
