<svg xmlns="http://www.w3.org/2000/svg" width="92" height="92" viewBox="0 0 92 92">
  <g id="GST_Report" data-name="GST Report" transform="translate(-16479 -972)">
    <rect id="Rectangle_2116" data-name="Rectangle 2116" width="92" height="92" transform="translate(16479 972)" fill="none"/>
    <g id="GST" transform="translate(16480 973)">
      <path id="Path_2099" data-name="Path 2099" d="M432,448h8.478v2.826H432Zm0,0" transform="translate(-355.98 -369.305)" fill="#0a346c"/>
      <path id="Path_2100" data-name="Path 2100" d="M294.131,203.3v-9.892A1.413,1.413,0,0,0,292.718,192h-11.3A1.413,1.413,0,0,0,280,193.413V203.3h2.826v-8.478H291.3V203.3Zm0,0" transform="translate(-230.728 -158.273)" fill="#57a7dc"/>
      <path id="Path_2101" data-name="Path 2101" d="M383.065,245.675V248.5h5.652a1.413,1.413,0,0,0,1.413-1.413V217.413A1.413,1.413,0,0,0,388.718,216h-11.3A1.413,1.413,0,0,0,376,217.413v5.652h2.826v-4.239H387.3v26.848Zm0,0" transform="translate(-309.871 -178.135)" fill="#57a7dc"/>
      <path id="Path_2102" data-name="Path 2102" d="M198.131,223.065v-5.652A1.413,1.413,0,0,0,196.718,216h-11.3A1.413,1.413,0,0,0,184,217.413v5.652h2.826v-4.239H195.3v4.239Zm0,0" transform="translate(-151.621 -178.047)" fill="#57a7dc"/>
      <path id="Path_2103" data-name="Path 2103" d="M176,152h50.871v2.826H176Zm0,0" transform="translate(-145.198 -125.285)" fill="#0a346c"/>
      <path id="Path_2107" data-name="Path 2107" d="M69.241,272H1.413A1.413,1.413,0,0,0,0,273.413v2.826H2.826v-1.413h65v1.413h2.826v-2.826A1.413,1.413,0,0,0,69.241,272Zm0,0" transform="translate(0 -224.199)" fill="#0a346c"/>
      <path id="Path_2108" data-name="Path 2108" d="M193.5,0H128.814a1.407,1.407,0,0,0-1.407,1.406V45h2.814V2.812h61.867V87.187H178.168V90H193.5a1.407,1.407,0,0,0,1.407-1.406V1.406A1.408,1.408,0,0,0,193.5,0Zm0,0" transform="translate(-104.836)" fill="#0a346c"/>
      <path id="Path_2109" data-name="Path 2109" d="M144,361.892A9.892,9.892,0,1,0,153.892,352,9.9,9.9,0,0,0,144,361.892Zm9.892-7.065a7.065,7.065,0,1,1-7.065,7.065A7.074,7.074,0,0,1,153.892,354.826Zm0,0" transform="translate(-118.668 -290.261)"/>
      <path id="Path_2110" data-name="Path 2110" d="M34.826,357.782v2.241a1.413,1.413,0,0,0,1.413,1.413H56.022V358.61H37.652V357.2a1.409,1.409,0,0,0-.414-1l-2.412-2.412V343.651l2.412-2.412a1.409,1.409,0,0,0,.414-1v-1.413h18.37V336H36.239a1.413,1.413,0,0,0-1.413,1.413v2.241l-2.412,2.412a1.409,1.409,0,0,0-.414,1v11.3a1.409,1.409,0,0,0,.414,1Zm0,0" transform="translate(-26.348 -277.088)" fill="#57a7dc"/>
      <path id="Path_2111" data-name="Path 2111" d="M240,336h11.3v2.826H240Zm0,0" transform="translate(-197.761 -276.947)" fill="#57a7dc"/>
      <path id="Path_2112" data-name="Path 2112" d="M256.957,340.239a1.409,1.409,0,0,0,.414,1l2.412,2.412v10.134l-2.412,2.412a1.409,1.409,0,0,0-.414,1v1.413H240v2.826h18.37a1.413,1.413,0,0,0,1.413-1.413v-2.241l2.412-2.412a1.409,1.409,0,0,0,.414-1v-11.3a1.409,1.409,0,0,0-.414-1l-2.412-2.412v-2.241A1.413,1.413,0,0,0,258.37,336h-4.239v2.826h2.826Zm0,0" transform="translate(-197.787 -277.088)" fill="#57a7dc"/>
      <path id="Path_2113" data-name="Path 2113" d="M69.241,304H1.413A1.413,1.413,0,0,0,0,305.413v33.914a1.413,1.413,0,0,0,1.413,1.413H69.241a1.413,1.413,0,0,0,1.413-1.413V305.413A1.413,1.413,0,0,0,69.241,304Zm-1.413,33.914h-65V306.826h65Zm0,0" transform="translate(0 -250.74)" fill="#0a346c"/>
      <path id="Path_2114" data-name="Path 2114" d="M15.237-21.158A10.939,10.939,0,0,1,9.7-19.876a8,8,0,0,1-5.782-2.03A7.385,7.385,0,0,1,1.807-27.5a7.806,7.806,0,0,1,2.311-5.841A8.419,8.419,0,0,1,10.266-35.6a12.488,12.488,0,0,1,4.261.668v3.212a8.469,8.469,0,0,0-4.3-1.018A4.62,4.62,0,0,0,6.752-31.35a5.082,5.082,0,0,0-1.341,3.694,5.1,5.1,0,0,0,1.2,3.625,4.241,4.241,0,0,0,3.249,1.283,4.522,4.522,0,0,0,1.95-.35v-2.968H8.771V-28.8h6.466Zm2.692.435v-3.392a6.518,6.518,0,0,0,2,1.161,6.44,6.44,0,0,0,2.184.387,4.842,4.842,0,0,0,1.129-.117,2.644,2.644,0,0,0,.806-.323,1.41,1.41,0,0,0,.482-.488,1.217,1.217,0,0,0,.159-.61,1.318,1.318,0,0,0-.254-.8,2.738,2.738,0,0,0-.694-.647,7.255,7.255,0,0,0-1.044-.572q-.6-.276-1.3-.562a6.654,6.654,0,0,1-2.655-1.813,3.957,3.957,0,0,1-.875-2.586,4.119,4.119,0,0,1,.477-2.041,4.051,4.051,0,0,1,1.3-1.4,5.822,5.822,0,0,1,1.9-.811,9.777,9.777,0,0,1,2.29-.26,13.771,13.771,0,0,1,2.1.143,8.275,8.275,0,0,1,1.691.44v3.169a5.112,5.112,0,0,0-.832-.466,6.593,6.593,0,0,0-.928-.334,7.075,7.075,0,0,0-.949-.2,6.714,6.714,0,0,0-.9-.064,4.671,4.671,0,0,0-1.06.111,2.719,2.719,0,0,0-.806.313A1.556,1.556,0,0,0,21.65-32a1.143,1.143,0,0,0-.18.631,1.2,1.2,0,0,0,.2.684,2.31,2.31,0,0,0,.572.572,6.075,6.075,0,0,0,.9.53q.53.26,1.2.535a13.348,13.348,0,0,1,1.638.811,5.822,5.822,0,0,1,1.246.97,3.778,3.778,0,0,1,.8,1.235,4.364,4.364,0,0,1,.276,1.617,4.33,4.33,0,0,1-.482,2.136,3.916,3.916,0,0,1-1.309,1.4,5.677,5.677,0,0,1-1.924.769,11.119,11.119,0,0,1-2.316.233,12.879,12.879,0,0,1-2.38-.212A7.184,7.184,0,0,1,17.929-20.724Zm23.977-11.83H37.571v12.413H34.136V-32.553H29.822v-2.788H41.906Z" transform="translate(33.975 42.461)" fill="#57a7dc"/>
    </g>
  </g>
</svg>
