<svg xmlns="http://www.w3.org/2000/svg" width="92" height="92" viewBox="0 0 92 92">
  <g id="Custom_form_field" data-name="Custom form field" transform="translate(-16498 -2786)">
    <rect id="bg" width="92" height="92" transform="translate(16498 2786)" fill="none"/>
    <g id="noun_Custom_Form_1076432" data-name="noun_Custom Form_1076432" transform="translate(16470.143 2965.41)">
      <g id="Layer_1" data-name="Layer 1" transform="translate(18.857 -192.41)">
        <path id="Path_2195" data-name="Path 2195" d="M81.17,14H28.83A3.791,3.791,0,0,0,25,17.75v82.5A3.791,3.791,0,0,0,28.83,104H81.17A3.791,3.791,0,0,0,85,100.25V17.75A3.791,3.791,0,0,0,81.17,14ZM28.83,16.5H81.17a1.264,1.264,0,0,1,1.277,1.25v22.5H27.553V17.75A1.264,1.264,0,0,1,28.83,16.5Zm52.34,85H28.83a1.264,1.264,0,0,1-1.277-1.25V42.75H82.447v57.5A1.264,1.264,0,0,1,81.17,101.5Z" transform="translate(0 0)" fill="#3b3b3b"/>
        <path id="Path_2196" data-name="Path 2196" d="M42.261,31.523h16.4a1.261,1.261,0,1,0,0-2.523h-16.4a1.261,1.261,0,0,0,0,2.523Z" transform="translate(4.54 3.745)" fill="#7b7b7b"/>
        <path id="Path_2197" data-name="Path 2197" d="M34.261,45.523H54.444a1.261,1.261,0,1,0,0-2.523H34.261a1.261,1.261,0,1,0,0,2.523Z" transform="translate(2.288 7.241)" fill="#7b7b7b"/>
        <path id="Path_2198" data-name="Path 2198" d="M34.261,56.523H54.444a1.261,1.261,0,1,0,0-2.523H34.261a1.261,1.261,0,1,0,0,2.523Z" transform="translate(2.288 9.987)" fill="#7b7b7b"/>
        <path id="Path_2199" data-name="Path 2199" d="M54.444,65H34.261a1.261,1.261,0,1,0,0,2.523H54.444a1.261,1.261,0,1,0,0-2.523Z" transform="translate(2.288 12.733)" fill="#7b7b7b"/>
        <path id="Path_2200" data-name="Path 2200" d="M49.4,78H34.261a1.261,1.261,0,1,0,0,2.523H49.4A1.261,1.261,0,1,0,49.4,78Z" transform="translate(2.264 15.909)" fill="#7b7b7b"/>
        <path id="Path_2201" data-name="Path 2201" d="M67.4,78H52.261a1.261,1.261,0,0,0,0,2.523H67.4A1.261,1.261,0,0,0,67.4,78Z" transform="translate(7.511 15.909)" fill="#7b7b7b"/>
        <path id="Path_2202" data-name="Path 2202" d="M58.261,48.83h6.307a1.261,1.261,0,0,0,1.261-1.261V41.261A1.261,1.261,0,0,0,64.568,40H58.261A1.261,1.261,0,0,0,57,41.261v6.307A1.261,1.261,0,0,0,58.261,48.83Zm1.261-6.307h3.784v3.784H59.523Z" transform="translate(8.936 6.468)" fill="#7b7b7b"/>
        <path id="Path_2203" data-name="Path 2203" d="M58.261,59.83h6.307a1.261,1.261,0,0,0,1.261-1.261V52.261A1.261,1.261,0,0,0,64.568,51H58.261A1.261,1.261,0,0,0,57,52.261v6.307A1.261,1.261,0,0,0,58.261,59.83Zm1.261-6.307h3.784v3.784H59.523Z" transform="translate(8.936 9.205)" fill="#7b7b7b"/>
        <path id="Path_2204" data-name="Path 2204" d="M58.261,70.83h6.307a1.261,1.261,0,0,0,1.261-1.261V63.261A1.261,1.261,0,0,0,64.568,62H58.261A1.261,1.261,0,0,0,57,63.261v6.307A1.261,1.261,0,0,0,58.261,70.83Zm1.261-6.307h3.784v3.784H59.523Z" transform="translate(8.936 11.941)" fill="#7b7b7b"/>
        <path id="Path_2205" data-name="Path 2205" d="M50.046,29.091A5.046,5.046,0,1,0,45,24.046,5.046,5.046,0,0,0,50.046,29.091Zm0-7.568a2.523,2.523,0,1,1-2.523,2.523A2.523,2.523,0,0,1,50.046,21.523Z" transform="translate(5.594 1.307)" fill="#7b7b7b"/>
      </g>
    </g>
  </g>
</svg>
