<svg xmlns="http://www.w3.org/2000/svg" width="24" height="24" viewBox="0 0 24 24">
  <g id="eStore" transform="translate(0 0.25)">
    <rect id="Rectangle_27" width="24" height="24" transform="translate(0 -0.25)" fill="none"/>
    <g id="Group_67" transform="translate(0.535 2.14)">
      <g id="Group_109" data-name="Group 109" transform="translate(0 3.204)">
        <path id="Path_179" data-name="Path 179" d="M-131,101.233a.328.328,0,0,0-.354-.3h-.429v-.02h-19.763V100.9h-.2a.351.351,0,0,0-.354.354,2.8,2.8,0,0,0,.231,1.129,2.955,2.955,0,0,0,1.551,1.551,2.941,2.941,0,0,0,1.129.231h15.273a2.967,2.967,0,0,0,1.136-.225,2.955,2.955,0,0,0,1.551-1.551,2.941,2.941,0,0,0,.231-1.129A.041.041,0,0,0-131,101.233Zm-9.164,1.694h-2.769a.351.351,0,0,1-.354-.354.351.351,0,0,1,.354-.354h2.81a.345.345,0,0,1,.32.354A.371.371,0,0,1-140.168,102.927Z" transform="translate(152.1 -88.362)" fill="#29c24b" opacity="0.94"/>
        <path id="Path_180" data-name="Path 180" d="M-140.329-71.046h19.171V-71.6h-.136a3.915,3.915,0,0,1-2.708-.9,2.543,2.543,0,0,1-.68-.9c-.041,0-4.789.034-6.973.034a2.077,2.077,0,0,1-1.973-1.157,3.243,3.243,0,0,1-.333-1.15v-7.007h.007a2.082,2.082,0,0,1,.143-.708h-6.572a.345.345,0,0,0-.32.354v12Z" transform="translate(141.479 83.4)" fill="#29c24b" opacity="0.94"/>
      </g>
      <path id="Path_98" d="M5.136-124.527a1.179,1.179,0,0,0,1.17-1.17,1.115,1.115,0,0,0-.857-1.1v-2.381a.6.6,0,0,1,.592-.605h3.17a.6.6,0,0,1,.605.592v2.388a1.169,1.169,0,0,0-.762,1.469,1.169,1.169,0,0,0,1.469.762,1.169,1.169,0,0,0,.762-1.469,1.182,1.182,0,0,0-.762-.762v-2.381A1.312,1.312,0,0,0,9.218-130.5H6.061a1.312,1.312,0,0,0-1.313,1.306v2.422A1.225,1.225,0,0,0,4-125.663,1.165,1.165,0,0,0,5.136-124.527Z" transform="translate(6.619 130.5)" fill="#29c24b"/>
      <path id="Path_102" d="M-29.616-86.862h6.538a.869.869,0,0,1-.068-.32,3.466,3.466,0,0,1,2.735-4.075,3.421,3.421,0,0,1,1.02-.048V-95.25a1.842,1.842,0,0,0-1.823-1.85h-.633v1.027a1.876,1.876,0,0,1,.463,2.612,1.863,1.863,0,0,1-2.606.469,1.857,1.857,0,0,1-.8-1.544,1.81,1.81,0,0,1,.816-1.531v-1.027h-2.952v.993a1.858,1.858,0,0,1,.85,1.565,1.884,1.884,0,0,1-1.884,1.884,1.883,1.883,0,0,1-1.878-1.884,1.822,1.822,0,0,1,.748-1.49v-1.068h-.565a1.861,1.861,0,0,0-1.85,1.85v6.538A1.885,1.885,0,0,0-29.616-86.862Z" transform="translate(39.704 99.372)" fill="#29c24b"/>
      <g id="Component_22_1" transform="translate(17.177 8.765)">
        <path id="Subtraction_6" d="M81.882-6.942A2.786,2.786,0,0,1,79.1-9.724,2.776,2.776,0,0,1,81.882-12.5a2.789,2.789,0,0,1,2.782,2.776A2.781,2.781,0,0,1,81.882-6.942Zm-.456-2.422a.567.567,0,0,1,.15.02.289.289,0,0,1,.116.068.773.773,0,0,1,.1.109,1.325,1.325,0,0,1,.1.156l.361.605h.3l-.4-.646a1.456,1.456,0,0,0-.088-.129l-.082-.1a.814.814,0,0,0-.082-.075.68.68,0,0,0-.1-.054v-.007a.672.672,0,0,0,.313-.184.643.643,0,0,0,.156-.32h.415v-.231h-.4a.718.718,0,0,0-.041-.163.493.493,0,0,0-.075-.129h.517v-.218H81.263v.218h.32a.844.844,0,0,1,.184.02.379.379,0,0,1,.129.061.277.277,0,0,1,.082.1.432.432,0,0,1,.041.122h-.762v.218h.762a.446.446,0,0,1-.054.143.5.5,0,0,1-.1.109.492.492,0,0,1-.129.075.388.388,0,0,1-.15.027h-.32v.218Z" transform="translate(-79.1 12.5)" fill="#29c24b"/>
      </g>
    </g>
  </g>
</svg>
