<svg xmlns="http://www.w3.org/2000/svg" width="24" height="24" viewBox="0 0 24 24">
  <g id="Lead" transform="translate(-0.211 0.344)">
    <rect id="Rectangle_57" data-name="Rectangle 57" width="24" height="24" transform="translate(0.211 -0.344)" fill="none"/>
    <g id="Enquiry" transform="translate(0.555 0.645)">
      <path id="Path_188" data-name="Path 188" d="M45.46,4H37.843a.379.379,0,0,0-.4.4V8.089a1.092,1.092,0,0,1-.361.842l-.682.682h9.06a.379.379,0,0,0,.4-.4V4.4A.379.379,0,0,0,45.46,4Zm-2,4.811H38.244v-.8h5.212Zm1.6-1.6H38.244v-.8h6.815Zm0-1.6H38.244V4.8h6.815Z" transform="translate(-23.411 -4)" fill="#fbe160"/>
      <path id="Path_189" data-name="Path 189" d="M14.868,9.318a1.788,1.788,0,0,0,1.563.12l1.443-.6A3.561,3.561,0,0,0,11.3,9.879v.04l1-.561A2.462,2.462,0,0,1,14.868,9.318Z" transform="translate(-8.374 -5.83)" fill="#fbe160"/>
      <path id="Path_190" data-name="Path 190" d="M8,34.345h.8v4.811h2.405V32.742l-1.243.922L8.2,31.9l-.842.281A2.026,2.026,0,0,0,6,34.065v5.091H8Z" transform="translate(-5.198 -20.715)" fill="#fbe160"/>
      <path id="Path_191" data-name="Path 191" d="M11.131,18.848h1.243a.5.5,0,0,0-.16-.321l-.481-.321a1.254,1.254,0,0,1-.521-1V15.4l-.882.521L9.968,17.4a1.254,1.254,0,0,0,.922,1.443Z" transform="translate(-7.563 -10.83)" fill="#fbe160"/>
      <path id="Path_192" data-name="Path 192" d="M25.2,15.946a1.254,1.254,0,0,1-.521,1l-.481.321a.409.409,0,0,0-.2.321h1.243a1.181,1.181,0,0,0,1.2-1.2.508.508,0,0,0-.04-.241l-.521-2.566c-.04-.08-.04-.2-.08-.281l-.6.241Z" transform="translate(-15.982 -9.572)" fill="#fbe160"/>
      <path id="Path_193" data-name="Path 193" d="M17.746,17.981a1.254,1.254,0,0,1,.521-1l.481-.321a.365.365,0,0,0,.16-.321V14.293h-.04a2.428,2.428,0,0,1-2.285-.16,1.683,1.683,0,0,0-1.684-.04v2.245a.5.5,0,0,0,.16.321l.481.321a1.254,1.254,0,0,1,.521,1v1.563h1.6V17.981Z" transform="translate(-10.53 -9.923)" fill="#fbe160"/>
      <path id="Path_194" data-name="Path 194" d="M13.6,30.481l1,1,1.163-.882V30h-.722Z" transform="translate(-9.751 -19.577)" fill="#fbe160"/>
      <path id="Path_195" data-name="Path 195" d="M23.165,30.481,21.722,30H21v.6l1.163.882Z" transform="translate(-14.185 -19.577)" fill="#fbe160"/>
      <path id="Path_196" data-name="Path 196" d="M26.212,36.791V34.065a1.95,1.95,0,0,0-1.363-1.884l-.842-.281-1.764,1.764L21,32.742v6.414h2.405V35.949h.8v3.207h.8v-.04A2.815,2.815,0,0,1,26.212,36.791Zm-2-1.644H21.8v-.8h2.405Z" transform="translate(-14.185 -20.715)" fill="#fbe160"/>
      <path id="Path_197" data-name="Path 197" d="M43.929,30.374a2.607,2.607,0,0,0,1.283-2.245V24H41.2A1.181,1.181,0,0,0,40,25.2v2.926a2.6,2.6,0,0,0,2.606,2.606,2.523,2.523,0,0,0,1.323-.361Z" transform="translate(-25.568 -15.982)" fill="#fbe160"/>
      <path id="Path_198" data-name="Path 198" d="M42.781,43.383,39.935,42.1a3.24,3.24,0,0,1-2.726,0l-2.846,1.283A1.99,1.99,0,0,0,33.2,45.227v4.049H44.024V45.227A2.208,2.208,0,0,0,42.781,43.383Z" transform="translate(-21.494 -26.826)" fill="#fbe160"/>
      <path id="Path_199" data-name="Path 199" d="M4,55.207H14.824V52H4Zm4.41-2h4.009V54H8.41Z" transform="translate(-4 -32.757)" fill="#fbe160"/>
    </g>
  </g>
</svg>
