<svg xmlns="http://www.w3.org/2000/svg" width="24" height="24" viewBox="0 0 24 24">
  <g id="Live_Class" data-name="Live Class" transform="translate(-0.211 0.297)">
    <rect id="Rectangle_39" data-name="Rectangle 39" width="24" height="24" transform="translate(0.211 -0.297)" fill="none"/>
    <path id="Path_115" data-name="Path 115" d="M19.372,20.789a1.226,1.226,0,0,0,.835-1.129V11.3a1.282,1.282,0,0,0-1.334-1.22H3.127A1.283,1.283,0,0,0,1.793,11.3V19.66a1.227,1.227,0,0,0,.835,1.129H0c0,1.027.437,1.294.975,1.294H21.025c.537,0,.975-.267.975-1.294Zm-6.339.72H8.969v-.63h4.065ZM15.312,19.1h-3.7l-.51-.932.346-.314-.14-.316h-.62l-.14.316.346.314-.51.932h-3.7v-.4a1.883,1.883,0,0,1,.4-.25c.248-.12.493-.245.745-.355s.5-.2.75-.3.474-.176.709-.269a.206.206,0,0,0,.1-.093c.052-.12.1-.244.138-.367.031-.093.052-.187.183-.212a.133.133,0,0,0,.08-.093c.026-.179.046-.36.061-.544a.17.17,0,0,0-.047-.117,1.125,1.125,0,0,1-.31-.619,2.661,2.661,0,0,0-.129-.343c-.049-.156-.091-.313-.129-.472-.015-.057-.007-.119-.018-.177-.015-.085-.011-.151.1-.184.031-.009.056-.077.058-.118.005-.253,0-.506,0-.759,0-.156,0-.311.011-.466a.968.968,0,0,1,.453-.686,2.991,2.991,0,0,1,1.2-.479c.225-.048.455-.077.683-.111a1.174,1.174,0,0,1,.188,0l.031.043a1.2,1.2,0,0,0-.143.095c-.094.085-.084.145.015.222.208.16.414.321.616.486a.677.677,0,0,1,.246.55q0,.552,0,1.1c0,.076-.007.15.1.184a.087.087,0,0,1,.043.072c-.017.189-.04.376-.062.564a.034.034,0,0,1-.007.022,4.761,4.761,0,0,0-.341.816.183.183,0,0,1-.015.03c-.247.264-.169.583-.174.886a.113.113,0,0,0,.051.09.275.275,0,0,1,.154.2,2.954,2.954,0,0,0,.148.387.272.272,0,0,0,.146.105,23.761,23.761,0,0,1,2.226.884,1.415,1.415,0,0,1,.374.25V19.1h0Z" transform="translate(1.211 -4.38)" fill="#40c7f1"/>
  </g>
</svg>
