<svg width="22" height="22" viewBox="0 0 22 22" fill="none" xmlns="http://www.w3.org/2000/svg">
<path d="M11 0C4.93263 0 0 4.93263 0 11C0 17.0674 4.93263 22 11 22C17.0674 22 22 17.0674 22 11C22 4.93263 17.0674 0 11 0ZM16.0253 12.0189H12.0189V16.0253C12.0189 16.5811 11.5558 17.0442 11 17.0442C10.7221 17.0442 10.4674 16.9284 10.2821 16.7432C10.0968 16.5579 9.98105 16.3032 9.98105 16.0253V12.0189H5.97474C5.69684 12.0189 5.44211 11.9032 5.25684 11.7179C5.07158 11.5326 4.95579 11.2779 4.95579 11C4.95579 10.4442 5.41895 9.98105 5.97474 9.98105H9.98105V5.97474C9.98105 5.41895 10.4442 4.95579 11 4.95579C11.5558 4.95579 12.0189 5.41895 12.0189 5.97474V9.98105H16.0253C16.5811 9.98105 17.0442 10.4442 17.0442 11C17.0442 11.5558 16.6042 12.0189 16.0253 12.0189Z" fill="url(#paint0_linear)"/>
<defs>
<linearGradient id="paint0_linear" x1="11" y1="0" x2="11" y2="22" gradientUnits="userSpaceOnUse">
<stop stop-color="#0097F9"/>
<stop offset="1" stop-color="#6E62FF" stop-opacity="0.74"/>
</linearGradient>
</defs>
</svg>
