<svg xmlns="http://www.w3.org/2000/svg" width="32" height="32" viewBox="0 0 32 32">
  <g id="Online_Exam" data-name="Online Exam" transform="translate(2.869 2.871)">
    <rect id="Rectangle_2013" data-name="Rectangle 2013" width="32" height="32" transform="translate(-2.869 -2.871)" fill="none"/>
    <g id="Group_4243" data-name="Group 4243" transform="translate(-2.055 -2.056)">
      <path id="Path_1756" data-name="Path 1756" d="M27.7,0H2.669A2.672,2.672,0,0,0,0,2.67V20.586a2.672,2.672,0,0,0,2.669,2.67h8.008v1.78h8.957v-1.78H27.7a2.672,2.672,0,0,0,2.669-2.67V2.67A2.672,2.672,0,0,0,27.7,0ZM10.416,15.816,6.857,19.376a.889.889,0,0,1-1.258,0L3.82,17.6a.89.89,0,0,1,1.258-1.258l1.15,1.151,2.93-2.93a.89.89,0,1,1,1.258,1.258Zm0-5.339L6.857,14.037a.889.889,0,0,1-1.258,0l-1.78-1.78A.89.89,0,0,1,5.078,11l1.15,1.151,2.93-2.93a.89.89,0,0,1,1.258,1.258Zm0-5.339L6.857,8.7A.889.889,0,0,1,5.6,8.7L3.82,6.918A.89.89,0,0,1,5.078,5.659L6.228,6.81l2.93-2.93a.89.89,0,1,1,1.258,1.258ZM25.922,17.857H13.346a.89.89,0,0,1,0-1.78H25.922a.89.89,0,0,1,0,1.78Zm0-5.339H13.346a.89.89,0,0,1,0-1.78H25.922a.89.89,0,0,1,0,1.78Zm0-5.339H13.346a.89.89,0,0,1,0-1.78H25.922a.89.89,0,0,1,0,1.78Z" fill="#40c7f1"/>
      <path id="Path_1757" data-name="Path 1757" d="M106.971,452H94.549A3.556,3.556,0,0,0,91,455.557h19.52A3.556,3.556,0,0,0,106.971,452Z" transform="translate(-85.575 -425.186)" fill="#40c7f1"/>
    </g>
  </g>
</svg>
