<svg width="28" height="32" viewBox="0 0 28 32" fill="none" xmlns="http://www.w3.org/2000/svg">
<path d="M21.5699 10.0735L20.1793 11.9662C18.139 9.88742 15.3076 8.57218 12.1569 8.57218C9.00627 8.57218 6.17486 9.88742 4.13456 11.9662L2.74399 10.0735L2.74402 10.0735L2.74234 10.0713C2.42731 9.6663 1.87836 9.5708 1.46602 9.89151C1.0613 10.2063 0.965643 10.7546 1.28546 11.1669L2.90761 13.3568L2.91202 13.3627L2.91725 13.368L2.93885 13.3895C1.65861 15.2184 0.9 17.4438 0.9 19.8291C0.9 26.0511 5.93497 31.0861 12.1569 31.0861C18.3789 31.0861 23.4139 26.0511 23.4139 19.8291C23.4139 17.4036 22.6552 15.2173 21.375 13.3895L21.3966 13.368L21.4019 13.3627L21.4063 13.3568L23.0277 11.1678C23.0279 11.1675 23.0282 11.1672 23.0284 11.1669C23.3482 10.7546 23.2526 10.2063 22.8479 9.89151C22.4355 9.5708 21.8866 9.6663 21.5716 10.0713L21.5699 10.0735ZM12.1569 29.2632C6.93798 29.2632 2.72283 25.0481 2.72283 19.8291C2.72283 14.6102 6.93798 10.395 12.1569 10.395C17.3759 10.395 21.5911 14.6102 21.5911 19.8291C21.5911 25.0478 17.3356 29.2632 12.1569 29.2632Z" fill="#334D6E" stroke="#334D6E" stroke-width="0.2"/>
<path d="M9.39808 7.10446H15.078C15.5795 7.10446 15.9894 6.69456 15.9894 6.19305V4.65136C15.9894 2.5676 14.3218 0.9 12.238 0.9C10.1543 0.9 8.48667 2.5676 8.48667 4.65136V6.19305C8.48667 6.69456 8.89658 7.10446 9.39808 7.10446ZM10.3095 4.69193C10.3095 3.61118 11.1573 2.7634 12.238 2.7634C13.3188 2.7634 14.1666 3.61118 14.1666 4.69193V5.28164H10.3095V4.69193Z" fill="#334D6E" stroke="#334D6E" stroke-width="0.2"/>
<path d="M10.5385 21.5725L10.5385 21.5725L10.542 21.5751C10.7262 21.7133 10.9408 21.828 11.2194 21.828C11.5282 21.828 11.8059 21.7202 12.0209 21.453L16.4804 16.1828C16.8557 15.7519 16.7999 15.0681 16.3743 14.6957C15.9435 14.3188 15.2584 14.3742 14.8855 14.8003L14.8855 14.8003L14.8828 14.8035L10.4263 20.0703C10.0001 20.5056 10.0619 21.2018 10.5385 21.5725Z" fill="#334D6E" stroke="#334D6E" stroke-width="0.5"/>
<circle cx="21.5694" cy="23.7645" r="5.6799" fill="white"/>
<path d="M21.64 20.4369C21.1938 20.4369 20.8322 20.7986 20.8322 21.2448V23.6446H18.4323C17.9862 23.6446 17.6245 24.0063 17.6245 24.4525C17.6245 24.8987 17.9862 25.2603 18.4323 25.2603H20.8322V27.6602C20.8322 28.1063 21.1938 28.4681 21.64 28.4681C22.0862 28.4681 22.4479 28.1063 22.4479 27.6602V25.2603H24.8477C25.2939 25.2603 25.6556 24.8987 25.6556 24.4525C25.6556 24.0063 25.2939 23.6446 24.8477 23.6446H22.4479V21.2448C22.4479 20.7986 22.0862 20.4369 21.64 20.4369Z" fill="#334D6E" stroke="#334D6E" stroke-width="0.5"/>
</svg>
