<svg width="18" height="18" viewBox="0 0 18 18" fill="none" xmlns="http://www.w3.org/2000/svg">
<path d="M8.24999 16.5C6.6183 16.5 5.02325 16.0161 3.66654 15.1096C2.30984 14.2031 1.25242 12.9146 0.627997 11.4071C0.00357462 9.89963 -0.159803 8.24084 0.158525 6.6405C0.476852 5.04016 1.26259 3.57015 2.41637 2.41637C3.57015 1.26259 5.04016 0.476852 6.6405 0.158525C8.24084 -0.159803 9.89963 0.00357462 11.4071 0.627997C12.9146 1.25242 14.2031 2.30984 15.1096 3.66654C16.0161 5.02325 16.5 6.6183 16.5 8.24999C16.4975 10.4373 15.6275 12.5342 14.0809 14.0809C12.5342 15.6275 10.4373 16.4975 8.24999 16.5ZM8.24999 1.5C6.91497 1.5 5.60993 1.89588 4.4999 2.63758C3.38987 3.37928 2.5247 4.43348 2.01381 5.66688C1.50292 6.90028 1.36925 8.25748 1.6297 9.56685C1.89015 10.8762 2.53302 12.0789 3.47703 13.023C4.42103 13.967 5.62376 14.6098 6.93313 14.8703C8.2425 15.1307 9.5997 14.9971 10.8331 14.4862C12.0665 13.9753 13.1207 13.1101 13.8624 12.0001C14.6041 10.8901 15 9.58501 15 8.24999C14.998 6.46039 14.2862 4.74466 13.0208 3.47922C11.7553 2.21378 10.0396 1.50199 8.24999 1.5Z" fill="#0097F9"/>
<path d="M17.2496 18.0001C17.1511 18.0002 17.0535 17.9808 16.9625 17.9431C16.8715 17.9054 16.7889 17.8501 16.7193 17.7803L14.4693 15.5303C14.3327 15.3889 14.2571 15.1994 14.2588 15.0028C14.2605 14.8061 14.3394 14.618 14.4785 14.4789C14.6175 14.3399 14.8056 14.261 15.0023 14.2593C15.1989 14.2576 15.3884 14.3332 15.5298 14.4698L17.7798 16.7198C17.8847 16.8247 17.9561 16.9583 17.985 17.1038C18.0139 17.2492 17.9991 17.4 17.9423 17.537C17.8856 17.6741 17.7895 17.7912 17.6662 17.8736C17.5429 17.956 17.3979 18 17.2496 18.0001Z" fill="#0097F9"/>
<path d="M12.0007 6.51189C11.8769 6.51214 11.7549 6.48166 11.6458 6.42318C11.5366 6.36469 11.4436 6.28003 11.3752 6.17679C11.0334 5.66083 10.569 5.23763 10.0237 4.94501C9.4783 4.65239 8.86891 4.49948 8.25 4.49994C8.05109 4.49994 7.86032 4.42092 7.71967 4.28027C7.57902 4.13962 7.5 3.94885 7.5 3.74994C7.5 3.55103 7.57902 3.36026 7.71967 3.21961C7.86032 3.07896 8.05109 2.99994 8.25 2.99994C9.11637 2.99911 9.96944 3.21305 10.7329 3.62264C11.4963 4.03222 12.1463 4.62468 12.6247 5.34699C12.6997 5.45992 12.7427 5.59107 12.7491 5.72649C12.7555 5.86191 12.7251 5.99653 12.6611 6.11603C12.5971 6.23553 12.5019 6.33545 12.3856 6.40515C12.2693 6.47486 12.1363 6.51174 12.0007 6.51189Z" fill="#0097F9"/>
</svg>
