<svg xmlns="http://www.w3.org/2000/svg" width="24" height="24" viewBox="0 0 24 24">
  <g id="settings" transform="translate(-0.296 0.152)">
    <g id="Group_101" data-name="Group 101" transform="translate(0.296 -0.153)">
      <g id="Group_100" data-name="Group 100">
        <path id="Union_4" data-name="Union 4" d="M0,12A12,12,0,1,1,12,24,12,12,0,0,1,0,12Zm10.631,5.087.11,1.7h2.517l.11-1.7a4.763,4.763,0,0,0,.918-.379l1.283,1.127,1.78-1.779-1.127-1.283a4.772,4.772,0,0,0,.38-.919l1.7-.11V11.227l-1.7-.11a4.8,4.8,0,0,0-.38-.918l1.127-1.283-1.779-1.78L14.286,8.264a4.764,4.764,0,0,0-.919-.38l-.11-1.7H10.741l-.11,1.7a4.758,4.758,0,0,0-.919.38L8.43,7.136,6.651,8.916,7.778,10.2a4.8,4.8,0,0,0-.38.918l-1.7.11v2.517l1.7.11a4.783,4.783,0,0,0,.38.919L6.651,16.055l1.779,1.78,1.283-1.127A4.767,4.767,0,0,0,10.631,17.087Zm-.887-4.6A2.256,2.256,0,1,1,12,14.742,2.256,2.256,0,0,1,9.744,12.486Z" fill="#fff"/>
      </g>
    </g>
  </g>
</svg>
