<svg xmlns="http://www.w3.org/2000/svg" width="24" height="24" viewBox="0 0 24 24">
  <g id="Student" transform="translate(0 0.477)">
    <rect id="Rectangle_38" data-name="Rectangle 38" width="24" height="24" transform="translate(0 -0.477)" fill="none"/>
    <g id="Student-2" data-name="Student" transform="translate(3 0.523)">
      <g id="Group_79" data-name="Group 79" transform="translate(0 0)">
        <path id="Path_113" data-name="Path 113" d="M68.217,255.232a1.719,1.719,0,0,0-.991-.812l-2.7-1.193-1.3-1.05-2.082,1.989h0l.9,5.77a.074.074,0,0,1-.014.056l-.939,1.235a.081.081,0,0,1-.128,0l-.939-1.235a.074.074,0,0,1-.014-.056l.9-5.77h0l-2.082-1.989-1.3,1.05-2.7,1.193a1.735,1.735,0,0,0-.991.812s-2.931,6.705-1.341,6.705H69.559C71.149,261.937,68.217,255.232,68.217,255.232Z" transform="translate(-52.032 -239.937)" fill="#f05050"/>
        <path id="Path_114" data-name="Path 114" d="M92.43,6.412a.148.148,0,0,0,.1-.051.134.134,0,0,0,.031-.1q-.044-.356-.087-.712l-.061-.5a.144.144,0,0,0-.157-.121h-.113l0-1.668.059-.02.2-.068a.394.394,0,0,0,0-.753L85.44.024a.44.44,0,0,0-.286,0l-6.96,2.395a.394.394,0,0,0,0,.753l2.573.885a5.724,5.724,0,0,0-.257,1.867c.045,3.969,2.465,6.336,4.7,6.336,2.213,0,4.659-2.367,4.7-6.336a5.778,5.778,0,0,0-.241-1.816l1.871-.644,0,1.464h-.113a.144.144,0,0,0-.157.122L91.137,6.26a.134.134,0,0,0,.031.1.145.145,0,0,0,.1.05M85.216,11.3c-1.954,0-3.3-2.179-3.574-4.358-.251-2.015,2.808-2.108,2.986-.86.055.384-.408.8-.356.954.259.783,4.546-2.554,4.517-.095C88.769,8.675,87.077,11.3,85.216,11.3Z" transform="translate(-76.298 0)" fill="#f05050"/>
      </g>
    </g>
  </g>
</svg>
