<svg xmlns="http://www.w3.org/2000/svg" width="24" height="24" viewBox="0 0 24 24">
  <g id="Task" transform="translate(-0.211 0.203)">
    <rect id="Rectangle_46" data-name="Rectangle 46" width="24" height="24" transform="translate(0.211 -0.203)" fill="none"/>
    <g id="Task-2" data-name="Task" transform="translate(1.211 0.797)">
      <path id="Path_184" data-name="Path 184" d="M81.831,85.985A.179.179,0,0,0,82,85.8v-.433A26.632,26.632,0,0,0,83.4,83.1H80.26a26.642,26.642,0,0,0,1.4,2.269V85.8a.179.179,0,0,0,.173.185Z" transform="translate(-61.401 -63.985)" fill="#528ff0"/>
      <path id="Path_185" data-name="Path 185" d="M83.4,20.615a.792.792,0,0,0-.758-.822H81.016a.792.792,0,0,0-.758.822V34.543H83.4ZM81.494,32.675a.283.283,0,1,1-.566,0V21.661a.283.283,0,1,1,.566,0Z" transform="translate(-61.4 -16.23)" fill="#528ff0"/>
      <path id="Path_186" data-name="Path 186" d="M7.26,19.8a.5.5,0,0,0-.5.5v17.23a.5.5,0,0,0,.5.507H21.632a.507.507,0,0,0,.507-.507V20.3a.506.506,0,0,0-.507-.5H19.782v2.581a1.532,1.532,0,0,1-1.526,1.533H10.636a1.531,1.531,0,0,1-1.523-1.533V19.8Zm4.656,14.516c-.248.277-.486.563-.718.854s-.459.589-.673.885l-.24.286-.264-.264-.987-.987.483-.483.747.747c.184-.181.369-.359.558-.534.279-.258.564-.509.857-.751a10.709,10.709,0,0,1,.913-.684,4.59,4.59,0,0,1,.494-.286,1.545,1.545,0,0,1,.541-.17,1.5,1.5,0,0,0-.5.243,4.456,4.456,0,0,0-.433.348,10.438,10.438,0,0,0-.78.8ZM9.034,30.7l.483-.483.747.747c.184-.181.369-.359.558-.534.279-.258.564-.509.857-.751A10.708,10.708,0,0,1,12.592,29a4.59,4.59,0,0,1,.494-.286,1.545,1.545,0,0,1,.541-.17,1.5,1.5,0,0,0-.5.243,4.455,4.455,0,0,0-.433.348,10.44,10.44,0,0,0-.78.8c-.248.277-.486.563-.718.854s-.459.589-.673.885l-.24.286-.264-.264Zm10.824,5.013a.176.176,0,0,1-.193.152H13.289a.176.176,0,0,1-.193-.152v-.558a.176.176,0,0,1,.193-.152h6.377a.176.176,0,0,1,.193.152Zm0-4.385a.176.176,0,0,1-.193.152H13.289a.176.176,0,0,1-.193-.152v-.558a.176.176,0,0,1,.193-.152h6.377a.176.176,0,0,1,.193.152Zm-.193-5.1a.176.176,0,0,1,.193.152v.558a.176.176,0,0,1-.193.152H13.289a.176.176,0,0,1-.193-.152v-.558a.176.176,0,0,1,.193-.152Zm-10.148-.4.747.747c.184-.181.369-.359.558-.534.279-.258.564-.509.857-.751a10.712,10.712,0,0,1,.913-.684,4.588,4.588,0,0,1,.494-.286,1.545,1.545,0,0,1,.541-.17,1.5,1.5,0,0,0-.5.243,4.456,4.456,0,0,0-.433.348,10.439,10.439,0,0,0-.78.8c-.248.277-.486.563-.718.854s-.459.589-.673.885l-.24.286-.264-.264-.987-.987Z" transform="translate(-6.755 -16.04)" fill="#528ff0"/>
      <path id="Path_187" data-name="Path 187" d="M22.067,7.908H21.026a.554.554,0,0,0-.554.554V11.25a.558.558,0,0,0,.554.564h7.62a.558.558,0,0,0,.554-.564V8.47a.563.563,0,0,0-.561-.561H27.6a.67.67,0,0,1-.66-.69,2.109,2.109,0,1,0-4.218-.007.672.672,0,0,1-.66.7Zm2.769-1.815a1.118,1.118,0,1,1-1.1,1.118,1.118,1.118,0,0,1,1.1-1.118Z" transform="translate(-17.08 -5.106)" fill="#528ff0"/>
    </g>
  </g>
</svg>
