<svg width="23" height="22" viewBox="0 0 23 22" fill="none" xmlns="http://www.w3.org/2000/svg">
<path d="M20.885 10.4935L19.8498 10.3106C19.6938 10.2659 19.5533 10.1788 19.4438 10.059C19.3344 9.93914 19.2604 9.79129 19.2299 9.63189C19.1818 9.33371 19.1155 9.03873 19.0316 8.74859C18.9898 8.59304 18.9927 8.42889 19.0398 8.27488C19.087 8.12088 19.1765 7.98324 19.2981 7.87769L20.1628 7.25784C20.4528 7.05249 20.65 6.74095 20.7115 6.39098C20.7731 6.04101 20.6939 5.6809 20.4913 5.38896L19.5058 3.97879C19.4052 3.833 19.2762 3.709 19.1265 3.61421C18.9769 3.51942 18.8097 3.45579 18.6349 3.42711C18.461 3.39627 18.2828 3.40011 18.1105 3.4384C17.9382 3.4767 17.7751 3.5487 17.6307 3.65026L16.766 4.27012C16.5969 4.37235 16.3953 4.40668 16.2019 4.3662C16.0755 4.3453 15.9557 4.29545 15.8517 4.22053C15.6047 4.0385 15.3482 3.86986 15.0831 3.71535C14.9422 3.63419 14.8271 3.51496 14.7509 3.37133C14.6747 3.2277 14.6405 3.0655 14.6523 2.90334L14.8196 1.87747C14.8773 1.52679 14.7945 1.16753 14.5891 0.87748C14.3838 0.587433 14.0724 0.389959 13.7225 0.327826L12.0272 0.0178973C11.6765 -0.0397425 11.3172 0.0430835 11.0272 0.248436C10.7372 0.453789 10.5397 0.765137 10.4775 1.11505L10.3009 2.1657C10.2562 2.3217 10.169 2.46223 10.0492 2.57167C9.92939 2.6811 9.78154 2.75515 9.62214 2.78556C9.32395 2.83368 9.02898 2.89993 8.73884 2.98392C8.61533 3.01125 8.48734 3.01125 8.36383 2.98392C8.16801 2.95621 7.9904 2.85409 7.86794 2.69878L7.24809 1.83408C7.14747 1.68829 7.01849 1.56429 6.86885 1.4695C6.71921 1.37471 6.55199 1.31108 6.37718 1.28241C6.20336 1.25156 6.02515 1.2554 5.85282 1.2937C5.68048 1.33199 5.51742 1.40399 5.37302 1.50556L3.97214 2.47563C3.82635 2.57625 3.70235 2.70523 3.60756 2.85487C3.51277 3.00451 3.44914 3.17173 3.42047 3.34653C3.38962 3.52036 3.39346 3.69857 3.43175 3.8709C3.47005 4.04324 3.54205 4.2063 3.64361 4.3507L4.26347 5.2154C4.34566 5.35839 4.38524 5.52189 4.37756 5.68663C4.36987 5.85138 4.31523 6.01048 4.22008 6.14519C4.04032 6.38487 3.87503 6.64004 3.7242 6.91072C3.64304 7.0516 3.5238 7.16675 3.38017 7.24295C3.23655 7.31915 3.07434 7.35331 2.91218 7.34152L1.87702 7.15866C1.52634 7.10102 1.16707 7.18384 0.877028 7.3892C0.586982 7.59455 0.389507 7.9059 0.327375 8.25581L0.017446 9.95112C-0.0393634 10.3017 0.0437936 10.6605 0.249006 10.9504C0.454218 11.2402 0.765066 11.4379 1.11459 11.5008L2.14976 11.6836C2.30575 11.7283 2.44629 11.8155 2.55572 11.9353C2.66515 12.0551 2.7392 12.203 2.76961 12.3624C2.81778 12.6605 2.88402 12.9555 2.96797 13.2457C3.0097 13.4012 3.00684 13.5654 2.95971 13.7194C2.91258 13.8734 2.82307 14.011 2.70143 14.1166L1.83673 14.7364C1.69018 14.837 1.56496 14.9656 1.46829 15.1147C1.37161 15.2639 1.30538 15.4307 1.2734 15.6055C1.24143 15.7803 1.24435 15.9598 1.28198 16.1335C1.31962 16.3072 1.39124 16.4718 1.49271 16.6177L2.48448 18.0279C2.58596 18.178 2.71734 18.3056 2.87039 18.4027C3.02345 18.4997 3.19488 18.5642 3.37398 18.5919C3.5478 18.6228 3.72601 18.6189 3.89835 18.5806C4.07068 18.5423 4.23374 18.4703 4.37815 18.3688L5.24285 17.7489C5.41195 17.6467 5.61351 17.6124 5.80692 17.6528C5.9321 17.6744 6.05139 17.7219 6.15714 17.7923C6.40508 17.9679 6.65922 18.1312 6.91956 18.282C7.05945 18.3627 7.17395 18.4809 7.25009 18.6234C7.32623 18.7658 7.36097 18.9267 7.35036 19.0878L7.1675 20.123C7.11069 20.4735 7.19385 20.8324 7.39906 21.1222C7.60428 21.4121 7.91512 21.6097 8.26465 21.6726L9.95996 21.9826C10.3105 22.0394 10.6694 21.9562 10.9592 21.751C11.2491 21.5458 11.4467 21.2349 11.5096 20.8854L11.6925 19.8502C11.7372 19.6942 11.8243 19.5537 11.9441 19.4443C12.064 19.3348 12.2118 19.2608 12.3712 19.2304C12.6746 19.1829 12.9748 19.1166 13.27 19.032C13.3935 19.0047 13.5215 19.0047 13.645 19.032C13.8408 19.0597 14.0184 19.1619 14.1409 19.3172L14.7608 20.1819C14.8614 20.3277 14.9904 20.4517 15.14 20.5464C15.2896 20.6412 15.4569 20.7049 15.6317 20.7335C15.8055 20.7644 15.9837 20.7605 16.156 20.7223C16.3284 20.684 16.4914 20.612 16.6358 20.5104L18.046 19.5186C18.3381 19.3127 18.5365 18.9991 18.5976 18.6469C18.6586 18.2947 18.5772 17.9327 18.3714 17.6405L17.7516 16.7757C17.6694 16.6328 17.6298 16.4693 17.6375 16.3045C17.6452 16.1398 17.6998 15.9807 17.795 15.846C17.9706 15.598 18.1338 15.3439 18.2847 15.0835C18.3662 14.9432 18.4856 14.8287 18.6292 14.7531C18.7728 14.6774 18.9348 14.6437 19.0967 14.6558L20.1318 14.8387C20.4825 14.8963 20.8418 14.8135 21.1318 14.6082C21.4219 14.4028 21.6193 14.0915 21.6815 13.7415L21.9914 12.0462C22.044 11.6945 21.958 11.3361 21.7516 11.0465C21.5453 10.7569 21.2346 10.5586 20.885 10.4935ZM14.8785 11.6867C14.7454 12.4566 14.387 13.1696 13.8485 13.7356C13.31 14.3017 12.6157 14.6952 11.8535 14.8665C11.0912 15.0378 10.2953 14.9791 9.5664 14.6979C8.83752 14.4166 8.20845 13.9255 7.75881 13.2866C7.30916 12.6477 7.05914 11.8898 7.0404 11.1088C7.02166 10.3278 7.23503 9.55874 7.65352 8.89903C8.072 8.23931 8.67679 7.71857 9.39134 7.4027C10.1059 7.08683 10.8981 6.99004 11.6677 7.12457C12.6972 7.30619 13.6129 7.88808 14.2146 8.743C14.8163 9.59791 15.055 10.6563 14.8785 11.6867Z" fill="url(#paint0_linear)"/>
<defs>
<linearGradient id="paint0_linear" x1="11.0032" y1="0" x2="11.0032" y2="22" gradientUnits="userSpaceOnUse">
<stop stop-color="#0097F9"/>
<stop offset="1" stop-color="#6E62FF" stop-opacity="0.74"/>
</linearGradient>
</defs>
</svg>
