<svg width="36" height="30" viewBox="0 0 36 30" fill="none" xmlns="http://www.w3.org/2000/svg">
<path d="M31.4299 26.6549L3.79985 26.6558C3.01297 26.6558 2.37513 26.0179 2.37506 25.231L2.37451 6.60286C2.37451 5.81598 3.01235 5.17814 3.79917 5.17807L31.4293 5.17725C32.2161 5.17725 32.854 5.81509 32.854 6.60197L32.8546 25.2301C32.8547 26.017 32.2168 26.6549 31.4299 26.6549Z" fill="#4380A0"/>
<path d="M32.8547 25.2234C32.8547 26.0138 32.2203 26.6553 31.437 26.6553H29.3105C30.0938 26.6553 30.7283 26.0138 30.7283 25.2234L30.7276 6.60937C30.7276 5.81967 30.0953 5.17962 29.3134 5.17749H31.4364C32.2196 5.17749 32.8541 5.81829 32.8541 6.60937L32.8547 25.2234Z" fill="#3B7191"/>
<path d="M30.7282 24.0501C30.7282 24.2021 30.605 24.3254 30.453 24.3254H28.6017L4.77714 24.3261C4.62514 24.3261 4.50191 24.2028 4.50191 24.0508L4.50122 7.58099C4.50122 7.42892 4.62445 7.30562 4.77645 7.30562L28.601 7.30493H30.4523C30.6043 7.30493 30.7276 7.42823 30.7276 7.5803L30.7282 24.0501Z" fill="#BBF7FF"/>
<path d="M30.453 24.3255H28.6018L28.6011 7.30493H30.4524C30.6044 7.30493 30.7276 7.42824 30.7276 7.5803L30.7283 24.0501C30.7283 24.2022 30.6051 24.3255 30.453 24.3255Z" fill="#8BF0FF"/>
<path d="M34.2367 29.9999H0.992613C0.444426 29.9999 0 29.5555 0 29.0073V27.4465C0 26.8983 0.444426 26.4539 0.992613 26.4539H34.2366C34.7848 26.4539 35.2292 26.8983 35.2292 27.4465V29.0073C35.2293 29.5555 34.7849 29.9999 34.2367 29.9999Z" fill="#A9DBF5"/>
<path d="M34.2368 26.4539H32.1104C32.6584 26.4539 33.1028 26.8984 33.1028 27.4467V29.007C33.1028 29.5554 32.6585 29.9999 32.1104 29.9999H34.2368C34.7849 29.9999 35.2292 29.5553 35.2292 29.007V27.4467C35.2292 26.8984 34.785 26.4539 34.2368 26.4539Z" fill="#88C3E0"/>
<path d="M17.6145 16.7376H7.5918C7.37245 16.7376 7.19458 16.5597 7.19458 16.3404V3.99561C7.19458 3.77626 7.37245 3.59839 7.5918 3.59839H17.6145V16.7376Z" fill="#F75632"/>
<path d="M27.6375 16.7376H17.6147V3.59839H27.6375C27.8568 3.59839 28.0347 3.77626 28.0347 3.99561V16.3404C28.0347 16.5597 27.8568 16.7376 27.6375 16.7376Z" fill="#E33629"/>
<path d="M17.6146 16.7376L9.27049 13.8506C9.11051 13.7952 9.00317 13.6445 9.00317 13.4752V0.397619C9.00317 0.124592 9.27221 -0.0671051 9.53017 0.0221379L17.6146 2.81943V16.7376Z" fill="#F3F3F3"/>
<path d="M17.6147 16.7376L25.9589 13.8506C26.1188 13.7952 26.2262 13.6445 26.2262 13.4752V0.397619C26.2262 0.124592 25.9571 -0.0671051 25.6992 0.0221379L17.6147 2.81943V16.7376Z" fill="#E4E4E4"/>
<path d="M19.8664 28.156H15.363C14.9232 28.156 14.5667 27.7995 14.5667 27.3597V26.4539H20.6627V27.3597C20.6627 27.7995 20.3061 28.156 19.8664 28.156Z" fill="#88C3E0"/>
<path d="M24.5974 18.802H10.6318C10.3468 18.802 10.1157 19.0331 10.1157 19.3183C10.1157 19.6035 10.3468 19.8347 10.6318 19.8347H24.5975C24.8826 19.8347 25.1136 19.6035 25.1136 19.3183C25.1136 19.0331 24.8825 18.802 24.5974 18.802Z" fill="#4380A0"/>
<path d="M19.6889 21.0583H10.6318C10.3468 21.0583 10.1157 21.2895 10.1157 21.5747C10.1157 21.8599 10.3468 22.091 10.6318 22.091H19.6889C19.9739 22.091 20.2049 21.8599 20.2049 21.5747C20.2049 21.2895 19.9739 21.0583 19.6889 21.0583Z" fill="#4380A0"/>
</svg>
