<svg width="17" height="17" viewBox="0 0 17 17" fill="none" xmlns="http://www.w3.org/2000/svg">
<path d="M8.25 16.5C12.8063 16.5 16.5 12.8063 16.5 8.25C16.5 3.69365 12.8063 0 8.25 0C3.69365 0 0 3.69365 0 8.25C0 12.8063 3.69365 16.5 8.25 16.5Z" fill="#EA3843"/>
<path d="M4.59575 11.9041C4.66385 11.9722 4.74469 12.0263 4.83367 12.0631C4.92264 12.1 5.01801 12.1189 5.11431 12.1189C5.21062 12.1189 5.30598 12.1 5.39495 12.0631C5.48393 12.0263 5.56477 11.9722 5.63287 11.9041L8.24977 9.28725L10.8667 11.9041C11.0042 12.0417 11.1908 12.1189 11.3853 12.1189C11.5798 12.1189 11.7663 12.0416 11.9039 11.9041C12.0414 11.7665 12.1187 11.5799 12.1186 11.3854C12.1186 11.1909 12.0413 11.0044 11.9038 10.8668L9.28689 8.25013L11.9038 5.63341C12.0413 5.49588 12.1186 5.30934 12.1186 5.11483C12.1187 4.92031 12.0414 4.73376 11.9039 4.59621C11.7663 4.45865 11.5798 4.38136 11.3853 4.38135C11.1908 4.38133 11.0042 4.45858 10.8667 4.59611L8.24977 7.21301L5.63287 4.59611C5.56476 4.52802 5.4839 4.474 5.39492 4.43715C5.30593 4.4003 5.21056 4.38134 5.11425 4.38135C5.01793 4.38136 4.92256 4.40033 4.83358 4.4372C4.74461 4.47407 4.66376 4.5281 4.59566 4.59621C4.52756 4.66432 4.47355 4.74517 4.4367 4.83416C4.39985 4.92314 4.38089 5.01852 4.38089 5.11483C4.3809 5.21114 4.39988 5.30651 4.43675 5.39549C4.47361 5.48447 4.52764 5.56532 4.59575 5.63341L7.21265 8.25013L4.59575 10.8668C4.52763 10.9349 4.47358 11.0158 4.43671 11.1048C4.39984 11.1938 4.38086 11.2892 4.38086 11.3855C4.38086 11.4818 4.39984 11.5772 4.43671 11.6662C4.47358 11.7552 4.52763 11.836 4.59575 11.9041Z" fill="#FFFCEE"/>
</svg>
