<svg width="14" height="12" viewBox="0 0 14 12" fill="none" xmlns="http://www.w3.org/2000/svg">
<path d="M12.4663 0.823859C13.6266 1.92208 13.6266 3.70285 12.4663 4.80133L10.0182 7.11909C9.68858 7.43109 9.30104 7.65422 8.88817 7.78898C8.26019 7.9939 7.57429 7.9939 6.94631 7.78898C6.53342 7.65422 6.1459 7.43109 5.81631 7.11909C5.487 6.80709 5.25103 6.44021 5.10867 6.04937L5.16076 6.00005C5.10867 6.04937 6.07898 5.11296 6.07898 5.11296L6.99843 6.00005C7.50494 6.4798 8.32932 6.4798 8.8361 6.00005L8.88819 5.95074L11.2845 3.6823C11.791 3.20281 11.791 2.4224 11.2845 1.94266C10.7777 1.46317 9.9533 1.46317 9.44679 1.94266L7.05052 4.2111L6.07957 4.58489L5.10864 4.21108C5.251 3.82049 5.4867 3.45336 5.81629 3.14136L8.26465 0.823859C9.42503 -0.27462 11.3062 -0.27462 12.4663 0.823859Z" fill="#109CF1"/>
<path d="M7.05048 4.21105C7.46308 4.34581 7.85062 4.5692 8.1802 4.8812C8.50979 5.19295 8.74576 5.56007 8.88812 5.95066L8.83603 5.99998C8.32925 6.47972 7.50487 6.47972 6.99836 5.99998C6.49158 5.52049 5.6672 5.52049 5.16069 5.99998L5.1086 6.04929L2.71233 8.31773C2.20555 8.79748 2.20555 9.57788 2.71233 10.0574C3.21884 10.5371 4.04322 10.5371 4.55 10.0574L6.94627 7.78893C7.57424 7.99384 8.26015 7.99384 8.88812 7.78893C8.74576 8.1798 8.50979 8.54665 8.1802 8.85865L5.73211 11.1764C4.57174 12.2746 2.69061 12.2746 1.53024 11.1764C0.37013 10.0779 0.37013 8.29715 1.53024 7.19867L3.9786 4.88118C4.30818 4.56917 4.69573 4.34579 5.1086 4.21102C5.7366 4.00615 6.4225 4.00615 7.05048 4.21105Z" fill="#B6BCBF"/>
</svg>
