<svg width="31" height="30" viewBox="0 0 31 30" fill="none" xmlns="http://www.w3.org/2000/svg">
<path d="M26.7004 1.13104L30.1369 23.6068C30.2481 24.3338 29.7483 25.014 29.0214 25.1252L6.54555 28.5617C5.81859 28.6729 5.1384 28.1731 5.02721 27.4462L1.59066 4.97036C1.47953 4.2434 1.97928 3.5632 2.70624 3.45202L25.182 0.0154637C25.909 -0.0956644 26.5892 0.404088 26.7004 1.13104Z" fill="url(#paint0_linear)"/>
<path d="M26.9403 2.92467L28.6635 25.5963C28.7192 26.3296 28.1693 26.9699 27.4361 27.0257L4.76444 28.7489C4.03112 28.8047 3.3908 28.2548 3.33503 27.5215L1.6118 4.84989C1.55603 4.11657 2.10596 3.47625 2.83922 3.42048L25.5108 1.69725C26.2442 1.64148 26.8845 2.19135 26.9403 2.92467Z" fill="url(#paint1_linear)"/>
<path d="M27.0433 4.73117V27.4682C27.0433 28.2036 26.4465 28.8004 25.7111 28.8004H2.97409C2.23865 28.8004 1.64185 28.2035 1.64185 27.4682V4.73117C1.64185 3.99573 2.23871 3.39893 2.97409 3.39893H25.7111C26.4465 3.39887 27.0433 3.99579 27.0433 4.73117Z" fill="url(#paint2_linear)"/>
<path d="M18.5462 29.995L1.23235 28.6924C0.498621 28.6371 -0.0513667 27.9976 0.00381463 27.2639L1.70955 4.59099C1.76479 3.85726 2.40429 3.30728 3.13802 3.36246L25.811 5.06819C26.5447 5.12343 27.0947 5.76293 27.0396 6.49666L25.7108 24.1583C25.6955 24.3616 25.6009 24.5507 25.4473 24.6848L19.8694 29.5546C19.505 29.8726 19.0284 30.0312 18.5462 29.995Z" fill="url(#paint3_linear)"/>
<path d="M4.38201 12.5341L24.0278 14.0237L24.1396 12.55L4.49374 11.0605L4.38201 12.5341Z" fill="#FFF2EB"/>
<path d="M4.09759 16.2856L23.7434 17.7751L23.8551 16.3015L4.20932 14.8119L4.09759 16.2856Z" fill="#FFF2EB"/>
<path d="M3.81239 20.0364L18.3533 21.1389L18.465 19.6653L3.92412 18.5628L3.81239 20.0364Z" fill="#FFF2EB"/>
<path d="M19.8691 29.5546L21.8358 27.8376L0.0837299 26.2012L0.00381422 27.264C-0.0496592 27.9744 0.465229 28.5972 1.16415 28.6855C1.18665 28.6883 1.20944 28.6906 1.23241 28.6923L18.5462 29.9949C19.0283 30.0312 19.5049 29.8726 19.8691 29.5546Z" fill="url(#paint4_linear)"/>
<path d="M25.619 24.4704C25.619 24.4704 25.5714 24.5786 25.4052 24.7216C25.3435 24.7747 19.9022 29.5259 19.9022 29.5259C19.5169 29.8623 19.0129 30.03 18.5029 29.9916C18.9431 30.0247 19.3269 29.6947 19.36 29.2545L19.6531 25.3576C19.7084 24.6239 20.3479 24.0739 21.0816 24.1291L25.619 24.4704Z" fill="url(#paint5_linear)"/>
<defs>
<linearGradient id="paint0_linear" x1="20.0377" y1="17.3563" x2="39.1876" y2="31.4283" gradientUnits="userSpaceOnUse">
<stop stop-color="#B8DE6F"/>
<stop offset="1" stop-color="#8AA753"/>
</linearGradient>
<linearGradient id="paint1_linear" x1="19.0675" y1="18.5982" x2="37.0965" y2="34.0797" gradientUnits="userSpaceOnUse">
<stop stop-color="#FE7695"/>
<stop offset="1" stop-color="#FE547B"/>
</linearGradient>
<linearGradient id="paint2_linear" x1="18.0059" y1="19.7636" x2="34.8099" y2="36.5676" gradientUnits="userSpaceOnUse">
<stop stop-color="#67DCDC"/>
<stop offset="1" stop-color="#019394"/>
</linearGradient>
<linearGradient id="paint3_linear" x1="13.5214" y1="13.5224" x2="13.5214" y2="42.3735" gradientUnits="userSpaceOnUse">
<stop stop-color="#FCC344"/>
<stop offset="1" stop-color="#F7AE3D"/>
</linearGradient>
<linearGradient id="paint4_linear" x1="10.9177" y1="27.1261" x2="10.9177" y2="29.9078" gradientUnits="userSpaceOnUse">
<stop stop-color="#FCC344" stop-opacity="0"/>
<stop offset="1" stop-color="#D48000"/>
</linearGradient>
<linearGradient id="paint5_linear" x1="21.1082" y1="26.1239" x2="25.0947" y2="30.7589" gradientUnits="userSpaceOnUse">
<stop stop-color="#FCC344"/>
<stop offset="1" stop-color="#D48000"/>
</linearGradient>
</defs>
</svg>
