<svg width="34" height="30" viewBox="0 0 34 30" fill="none" xmlns="http://www.w3.org/2000/svg">
<path d="M28.0264 29.1496L2.62907 26.3348C1.40797 26.1995 0.527843 25.0999 0.663141 23.8788L2.99748 2.81658C3.13285 1.59548 4.23243 0.715289 5.45347 0.850653L30.8508 3.66547C32.0719 3.80083 32.9521 4.90042 32.8167 6.12145L30.4824 27.1837C30.3471 28.4048 29.2475 29.285 28.0264 29.1496Z" fill="url(#paint0_linear)"/>
<path d="M32.8166 6.12149L31.8963 14.4281L29.8506 3.55469L30.8511 3.6655C32.0718 3.8006 32.9518 4.90006 32.8166 6.12149Z" fill="url(#paint1_linear)"/>
<path d="M31.6664 25.237L6.55402 29.9613C5.34664 30.1884 4.1837 29.3937 3.95656 28.1864L0.0387494 7.36043C-0.188389 6.15305 0.606268 4.99011 1.81365 4.76297L26.926 0.0387494C28.1334 -0.188389 29.2963 0.606268 29.5235 1.81365L33.4413 22.6396C33.6684 23.847 32.8737 25.01 31.6664 25.237Z" fill="url(#paint2_linear)"/>
<path d="M30.0596 4.66357V25.5393L31.6663 25.237C32.8737 25.0098 33.6684 23.8469 33.4412 22.6395L30.0596 4.66357Z" fill="url(#paint3_linear)"/>
<path d="M3.83716 27.5508L3.9567 28.1862C4.18384 29.3936 5.34678 30.1883 6.55416 29.9611L19.3668 27.5508H3.83716Z" fill="url(#paint4_linear)"/>
<path d="M27.8351 27.6808H2.28238C1.05379 27.6808 0.0578613 26.6849 0.0578613 25.4563V4.26504C0.0578613 3.03646 1.05379 2.04053 2.28238 2.04053H27.8351C29.0637 2.04053 30.0597 3.03646 30.0597 4.26504V25.4563C30.0597 26.6849 29.0637 27.6808 27.8351 27.6808Z" fill="url(#paint5_linear)"/>
<path d="M25.7521 25.5907H4.36548C3.33725 25.5907 2.50366 24.7571 2.50366 23.7289V5.99267C2.50366 4.96445 3.33725 4.13086 4.36548 4.13086H25.7521C26.7803 4.13086 27.6139 4.96445 27.6139 5.99267V23.7289C27.6139 24.7571 26.7803 25.5907 25.7521 25.5907Z" fill="url(#paint6_linear)"/>
<path d="M16.5477 25.5905H4.36582C3.3374 25.5905 2.50342 24.7572 2.50342 23.7288V20.8213L5.59421 17.0645C6.61423 15.8236 8.51288 15.8236 9.53362 17.0645L11.4581 19.4041L16.5477 25.5905Z" fill="url(#paint7_linear)"/>
<path d="M27.6143 19.0538V23.7289C27.6143 24.7574 26.7803 25.5906 25.7519 25.5906H6.36841L11.4582 19.4043L17.7108 11.8034C18.7308 10.5632 20.6302 10.5632 21.6502 11.8034L27.6143 19.0538Z" fill="url(#paint8_linear)"/>
<path d="M9.00867 11.2673C10.4668 11.2673 11.6489 10.0852 11.6489 8.62707C11.6489 7.1689 10.4668 5.98682 9.00867 5.98682C7.55049 5.98682 6.36841 7.1689 6.36841 8.62707C6.36841 10.0852 7.55049 11.2673 9.00867 11.2673Z" fill="url(#paint9_linear)"/>
<defs>
<linearGradient id="paint0_linear" x1="8.55462" y1="4.7705" x2="27.4364" y2="28.3513" gradientUnits="userSpaceOnUse">
<stop stop-color="#FFA936"/>
<stop offset="0.4112" stop-color="#FF8548"/>
<stop offset="0.7781" stop-color="#FF6C54"/>
<stop offset="1" stop-color="#FF6359"/>
</linearGradient>
<linearGradient id="paint1_linear" x1="32.1989" y1="8.69898" x2="30.6196" y2="9.04737" gradientUnits="userSpaceOnUse">
<stop stop-color="#F82814" stop-opacity="0"/>
<stop offset="1" stop-color="#C0272D"/>
</linearGradient>
<linearGradient id="paint2_linear" x1="5.92365" y1="7.60968" x2="30.8715" y2="24.6545" gradientUnits="userSpaceOnUse">
<stop stop-color="#CDEC7A"/>
<stop offset="0.2157" stop-color="#B0E995"/>
<stop offset="0.5613" stop-color="#87E4BB"/>
<stop offset="0.8347" stop-color="#6EE1D2"/>
<stop offset="1" stop-color="#65E0DB"/>
</linearGradient>
<linearGradient id="paint3_linear" x1="32.2775" y1="15.1015" x2="29.583" y2="15.1015" gradientUnits="userSpaceOnUse">
<stop stop-color="#CDEC7A" stop-opacity="0"/>
<stop offset="0.2354" stop-color="#9AD57D" stop-opacity="0.235"/>
<stop offset="0.6035" stop-color="#51B482" stop-opacity="0.604"/>
<stop offset="0.8679" stop-color="#239F85" stop-opacity="0.868"/>
<stop offset="1" stop-color="#119786"/>
</linearGradient>
<linearGradient id="paint4_linear" x1="11.602" y1="28.9116" x2="11.602" y2="27.3154" gradientUnits="userSpaceOnUse">
<stop stop-color="#CDEC7A" stop-opacity="0"/>
<stop offset="0.2354" stop-color="#9AD57D" stop-opacity="0.235"/>
<stop offset="0.6035" stop-color="#51B482" stop-opacity="0.604"/>
<stop offset="0.8679" stop-color="#239F85" stop-opacity="0.868"/>
<stop offset="1" stop-color="#119786"/>
</linearGradient>
<linearGradient id="paint5_linear" x1="5.79443" y1="5.5963" x2="27.1539" y2="26.9557" gradientUnits="userSpaceOnUse">
<stop stop-color="#F8F6FB"/>
<stop offset="1" stop-color="#EFDCFB"/>
</linearGradient>
<linearGradient id="paint6_linear" x1="7.40303" y1="4.90064" x2="28.2357" y2="32.0041" gradientUnits="userSpaceOnUse">
<stop stop-color="#18CEFB"/>
<stop offset="0.2969" stop-color="#2BB9F9"/>
<stop offset="0.7345" stop-color="#42A0F7"/>
<stop offset="1" stop-color="#4A97F6"/>
</linearGradient>
<linearGradient id="paint7_linear" x1="4.96229" y1="19.0392" x2="14.0891" y2="30.9132" gradientUnits="userSpaceOnUse">
<stop stop-color="#CDEC7A"/>
<stop offset="0.2154" stop-color="#B0E995" stop-opacity="0.784"/>
<stop offset="0.5604" stop-color="#87E4BB" stop-opacity="0.439"/>
<stop offset="0.8334" stop-color="#6EE1D2" stop-opacity="0.165"/>
<stop offset="0.9985" stop-color="#65E0DB" stop-opacity="0"/>
</linearGradient>
<linearGradient id="paint8_linear" x1="13.0524" y1="17.1975" x2="24.0599" y2="31.5183" gradientUnits="userSpaceOnUse">
<stop stop-color="#CDEC7A"/>
<stop offset="0.2157" stop-color="#B0E995"/>
<stop offset="0.5613" stop-color="#87E4BB"/>
<stop offset="0.8347" stop-color="#6EE1D2"/>
<stop offset="1" stop-color="#65E0DB"/>
</linearGradient>
<linearGradient id="paint9_linear" x1="7.69684" y1="6.92045" x2="11.2665" y2="11.5646" gradientUnits="userSpaceOnUse">
<stop stop-color="#FFD945"/>
<stop offset="0.3043" stop-color="#FFCD3E"/>
<stop offset="0.8558" stop-color="#FFAD2B"/>
<stop offset="1" stop-color="#FFA325"/>
</linearGradient>
</defs>
</svg>
