<svg width="23" height="24" viewBox="0 0 23 24" fill="none" xmlns="http://www.w3.org/2000/svg">
<path d="M11.3702 8.73239C10.5682 8.73239 9.81716 9.04354 9.2485 9.6122C8.68253 10.1809 8.36869 10.9319 8.36869 11.7339C8.36869 12.536 8.68253 13.287 9.2485 13.8557C9.81716 14.4217 10.5682 14.7355 11.3702 14.7355C12.1723 14.7355 12.9233 14.4217 13.492 13.8557C14.058 13.287 14.3718 12.536 14.3718 11.7339C14.3718 10.9319 14.058 10.1809 13.492 9.6122C13.2142 9.33232 12.8836 9.11041 12.5194 8.95937C12.1552 8.80834 11.7645 8.73118 11.3702 8.73239ZM22.4296 15.0493L20.6753 13.5499C20.7585 13.0402 20.8014 12.5199 20.8014 12.0022C20.8014 11.4845 20.7585 10.9614 20.6753 10.4545L22.4296 8.95502C22.5621 8.84158 22.6569 8.69048 22.7015 8.52182C22.7461 8.35316 22.7382 8.17494 22.679 8.01084L22.6549 7.9411C22.1721 6.59104 21.4487 5.33963 20.5197 4.2475L20.4715 4.19117C20.3587 4.05853 20.2083 3.96319 20.0402 3.9177C19.8722 3.87221 19.6943 3.87871 19.5299 3.93635L17.3519 4.71155C16.5472 4.05169 15.6513 3.53131 14.6803 3.1692L14.2591 0.891881C14.2274 0.720324 14.1441 0.562495 14.0205 0.439363C13.8969 0.316231 13.7388 0.233624 13.5671 0.202517L13.4947 0.189106C12.0998 -0.0630352 10.6299 -0.0630352 9.23509 0.189106L9.16267 0.202517C8.99099 0.233624 8.83284 0.316231 8.70923 0.439363C8.58562 0.562495 8.50239 0.720324 8.47062 0.891881L8.04681 3.17993C7.085 3.54493 6.189 4.06404 5.39397 4.71691L3.1998 3.93635C3.03555 3.87825 2.85751 3.87152 2.68934 3.91703C2.52117 3.96255 2.37083 4.05817 2.2583 4.19117L2.21002 4.2475C1.28271 5.3408 0.559491 6.5919 0.0748673 7.9411L0.0507261 8.01084C-0.0699796 8.34613 0.0292674 8.72166 0.300185 8.95502L2.0759 10.4706C1.99275 10.9748 1.95251 11.4898 1.95251 11.9995C1.95251 12.5145 1.99275 13.0295 2.0759 13.5284L0.305549 15.044C0.17303 15.1574 0.0781838 15.3085 0.0336234 15.4772C-0.0109371 15.6458 -0.00310069 15.824 0.0560908 15.9881L0.0802319 16.0579C0.565737 17.4071 1.28192 18.6544 2.21538 19.7515L2.26366 19.8078C2.37647 19.9404 2.52681 20.0358 2.69488 20.0813C2.86296 20.1268 3.04087 20.1203 3.20517 20.0626L5.39933 19.2821C6.19867 19.9392 7.08921 20.4596 8.05217 20.8191L8.47599 23.1071C8.50776 23.2787 8.59098 23.4365 8.71459 23.5596C8.8382 23.6828 8.99635 23.7654 9.16803 23.7965L9.24046 23.8099C10.649 24.0634 12.0915 24.0634 13.5 23.8099L13.5725 23.7965C13.7441 23.7654 13.9023 23.6828 14.0259 23.5596C14.1495 23.4365 14.2327 23.2787 14.2645 23.1071L14.6856 20.8298C15.6566 20.465 16.5525 19.9473 17.3572 19.2874L19.5353 20.0626C19.6996 20.1207 19.8776 20.1275 20.0458 20.0819C20.2139 20.0364 20.3643 19.9408 20.4768 19.8078L20.5251 19.7515C21.4586 18.649 22.1747 17.4071 22.6603 16.0579L22.6844 15.9881C22.7997 15.6555 22.7005 15.2827 22.4296 15.0493ZM11.3702 16.4495C8.76568 16.4495 6.65467 14.3385 6.65467 11.7339C6.65467 9.12938 8.76568 7.01837 11.3702 7.01837C13.9748 7.01837 16.0858 9.12938 16.0858 11.7339C16.0858 14.3385 13.9748 16.4495 11.3702 16.4495Z" fill="#B8B6B6"/>
</svg>
