<svg width="56" height="20" viewBox="0 0 56 20" fill="none" xmlns="http://www.w3.org/2000/svg">
<path d="M53.7699 20H24.4909C23.3732 19.9965 22.4674 19.0907 22.4639 17.973V2.02703C22.4674 0.909328 23.3732 0.00348736 24.4909 0H53.7708C54.8885 0.00348736 55.7943 0.909328 55.7978 2.02703V17.9738C55.7934 19.0915 54.8876 19.9965 53.7699 20Z" fill="#E21B1B"/>
<path d="M28.577 7.77334H26.2117V6.5083H32.4889V7.77334H30.0957V14.8126H28.577V7.77334Z" fill="white"/>
<path d="M38.1558 13.0105C38.1558 13.7245 38.1811 14.3183 38.2046 14.8109H36.8725L36.7984 13.8963H36.7766C36.3694 14.565 35.6353 14.9643 34.8524 14.9425C33.7548 14.9425 32.76 14.2878 32.76 12.327V8.80737H34.2718V12.0742C34.2718 13.0715 34.5952 13.7193 35.3947 13.7193C36.0896 13.6993 36.6414 13.1282 36.638 12.4325V8.80912H38.155L38.1558 13.0105Z" fill="white"/>
<path d="M39.7451 14.8117C39.7704 14.4028 39.7974 13.7411 39.7974 13.1229V6.06104H41.3109V9.63558H41.3362C41.7634 9.00175 42.4914 8.63819 43.2543 8.67655C44.7233 8.67655 45.7687 9.89713 45.7582 11.7201C45.7582 13.8779 44.3885 14.946 43.0354 14.946C42.2586 14.9852 41.5254 14.5859 41.1383 13.9111H41.113L41.0389 14.8108L39.7451 14.8117ZM41.3144 12.3339C41.3127 12.4542 41.3258 12.5737 41.3519 12.6905C41.5054 13.3095 42.0572 13.7463 42.6945 13.7541C43.6431 13.7541 44.2238 12.9878 44.2238 11.7829C44.2238 10.7193 43.7181 9.85528 42.7068 9.85528C42.059 9.87708 41.508 10.3322 41.3641 10.9643C41.3345 11.0933 41.3188 11.2258 41.3153 11.3583L41.3144 12.3339Z" fill="white"/>
<path d="M48.0783 12.237C48.1115 13.1368 48.8682 13.8395 49.7679 13.8063C49.8211 13.8046 49.8743 13.8002 49.9266 13.7924C50.4933 13.8055 51.0574 13.7122 51.5892 13.5169L51.8124 14.5631C51.1428 14.8186 50.4305 14.945 49.7139 14.9354C48.1516 15.0775 46.7688 13.9258 46.6267 12.3635C46.6128 12.2091 46.611 12.054 46.6224 11.8996C46.4837 10.2623 47.6982 8.82291 49.3355 8.68429C49.4088 8.67819 49.4811 8.6747 49.5543 8.67383C51.5038 8.67383 52.1437 10.2806 52.1437 11.598C52.1455 11.8125 52.1289 12.0269 52.0949 12.2388H48.0783V12.237ZM50.7156 11.1734C50.8115 10.4663 50.3163 9.81507 49.6093 9.71916C49.5631 9.71306 49.5169 9.7087 49.4698 9.70783C48.6921 9.75404 48.0818 10.394 48.0748 11.1734H50.7156Z" fill="white"/>
<path d="M2.62598 14.8117V11.3522L0 6.5083H1.72624L2.72363 8.63559C3.00959 9.25285 3.21883 9.72277 3.44202 10.2877H3.46382C3.67568 9.75852 3.90671 9.24152 4.19268 8.63559L5.19006 6.5083H6.90061L4.13949 11.3139V14.8108L2.62598 14.8117Z" fill="black"/>
<path d="M12.3138 11.754C12.4376 13.3896 11.2118 14.8151 9.57621 14.9389C9.462 14.9476 9.34779 14.9493 9.23445 14.945C7.6355 15.0086 6.28763 13.7627 6.22399 12.1638C6.21963 12.0618 6.22137 11.9589 6.22835 11.8569C6.10455 10.2248 7.32861 8.8011 8.96069 8.6773C9.08537 8.66771 9.21004 8.66597 9.33471 8.67294C10.9223 8.61279 12.2589 9.8508 12.319 11.4384C12.3234 11.5439 12.3216 11.6494 12.3138 11.754ZM7.7933 11.8212C7.7933 12.9746 8.35825 13.8525 9.28153 13.8525C10.1455 13.8525 10.7506 13.0042 10.7506 11.7915C10.7506 10.8543 10.3295 9.78628 9.29635 9.78628C8.22486 9.78192 7.7933 10.8159 7.7933 11.8212Z" fill="black"/>
<path d="M18.9321 13.0105C18.9321 13.7245 18.9574 14.3183 18.9809 14.8109H17.6487L17.5746 13.8963H17.552C17.1448 14.565 16.4107 14.9643 15.6278 14.9425C14.5302 14.9425 13.5354 14.2878 13.5354 12.327V8.80737H15.0489V12.0742C15.0489 13.0715 15.3724 13.7193 16.1718 13.7193C16.8667 13.6993 17.4186 13.1282 17.4151 12.4325V8.80912H18.9321V13.0105Z" fill="black"/>
<path opacity="0.2" d="M22.4639 2.5667V16.2337C22.4674 16.4882 22.5092 16.7402 22.5885 16.9817L42.7655 0H22.4761" fill="white"/>
</svg>
