<?xml version="1.0" encoding="utf-8"?>
<!-- Generator: Adobe Illustrator 23.0.2, SVG Export Plug-In . SVG Version: 6.00 Build 0)  -->
<svg version="1.1" id="Layer_1" xmlns="http://www.w3.org/2000/svg" xmlns:xlink="http://www.w3.org/1999/xlink" x="0px" y="0px"
	 viewBox="0 0 346.2 440.2" style="enable-background:new 0 0 346.2 440.2;" xml:space="preserve">
<style type="text/css">
	.st0{enable-background:new    ;}
	.st1{fill:#828181;}
	.st2{opacity:0.27;}
	.st3{fill:#B9CFC7;}
	.st4{opacity:0.25;}
	.st5{opacity:0.59;}
	.st6{fill:#4D6277;}
	.st7{fill:#A3BFB4;}
	.st8{fill:#8DB2A5;}
	.st9{fill:#616E7D;}
	.st10{fill:#F9F9F9;}
</style>
<g>
	<g class="st0">
		<path class="st1" d="M128.4,390.5c-0.1,0.6-0.2,1.3-0.2,2c-0.1,0.7-0.1,1.5-0.2,2.2c-0.1,0.8-0.1,1.5-0.2,2.2
			c-0.1,0.7-0.1,1.3-0.1,1.9c0.6-0.1,1.2-0.2,2-0.4c0.7-0.1,1.5-0.3,2.2-0.4c0.7-0.1,1.5-0.3,2.2-0.4c0.7-0.1,1.4-0.2,2-0.2
			c0.1,0,0.1,0,0.2,0.1c0.1,0.1,0.2,0.2,0.2,0.3c0,0.2,0,0.4-0.1,0.5c-0.1,0.1-0.2,0.2-0.3,0.3c-0.1,0.1-0.2,0.1-0.4,0.2
			c-0.1,0.1-0.2,0.1-0.4,0.2c-0.5,0.1-1.1,0.3-1.8,0.4c-0.6,0.2-1.3,0.3-2,0.5c-0.7,0.2-1.4,0.3-2,0.5c-0.7,0.2-1.3,0.3-1.9,0.5
			c-0.5,0.1-0.9,0-1.2-0.3c-0.3-0.3-0.4-0.9-0.3-1.6c0.1-1.4,0.2-2.8,0.3-4.2c0.1-1.4,0.3-2.8,0.4-4.2c0-0.3,0.1-0.5,0.3-0.7
			c0.2-0.2,0.4-0.3,0.6-0.3c0.4-0.1,0.6,0,0.7,0.3C128.4,390,128.4,390.2,128.4,390.5z"/>
		<path class="st1" d="M143.3,391.9c0.5,0.2,1,0.5,1.3,0.9c0.4,0.4,0.6,0.8,0.8,1.3c0.2,0.5,0.3,1,0.3,1.5s0,1-0.2,1.4
			c-0.2,0.5-0.4,1-0.7,1.4c-0.3,0.5-0.6,0.9-1,1.2s-0.8,0.7-1.3,0.9c-0.5,0.2-1,0.3-1.6,0.3c-0.7,0-1.3-0.2-1.8-0.5
			c-0.5-0.3-0.9-0.8-1.1-1.3c-0.3-0.5-0.5-1.1-0.5-1.8c-0.1-0.7-0.1-1.3,0-2c0.1-0.5,0.2-1,0.4-1.4c0.2-0.5,0.4-0.9,0.6-1.2
			c0.3-0.4,0.6-0.6,0.9-0.9c0.3-0.2,0.7-0.3,1.2-0.3c0.2,0,0.5,0,0.9,0.1c0.4,0.1,0.7,0.2,1,0.4
			C142.7,391.8,142.9,391.8,143.3,391.9z M142.3,393.8c-0.2-0.1-0.4-0.3-0.7-0.5c-0.3-0.2-0.5-0.3-0.7-0.3c-0.2,0-0.4,0.1-0.6,0.3
			c-0.2,0.2-0.4,0.4-0.5,0.7c-0.1,0.3-0.3,0.5-0.4,0.8s-0.2,0.5-0.2,0.6c-0.1,0.3-0.1,0.6-0.1,0.9c0,0.4,0,0.7,0.1,1.1
			c0.1,0.4,0.2,0.7,0.4,1c0.2,0.3,0.5,0.5,0.9,0.6c0.2,0.1,0.5,0.1,0.9,0c0.3-0.1,0.7-0.2,1-0.4c0.3-0.2,0.6-0.5,0.9-0.8
			c0.3-0.3,0.5-0.7,0.7-1.2c0.2-0.5,0.2-1,0-1.6c-0.2-0.5-0.5-0.9-1-1.2c-0.1,0.1-0.2,0.1-0.4,0.1
			C142.4,393.9,142.4,393.8,142.3,393.8z"/>
		<path class="st1" d="M153.8,391.9c0.5,0.2,1,0.5,1.3,0.9c0.4,0.4,0.6,0.8,0.8,1.3c0.2,0.5,0.3,1,0.3,1.5s0,1-0.2,1.4
			c-0.2,0.5-0.4,1-0.7,1.4c-0.3,0.5-0.6,0.9-1,1.2s-0.8,0.7-1.3,0.9c-0.5,0.2-1,0.3-1.6,0.3c-0.7,0-1.3-0.2-1.8-0.5
			c-0.5-0.3-0.9-0.8-1.1-1.3c-0.3-0.5-0.5-1.1-0.5-1.8c-0.1-0.7-0.1-1.3,0-2c0.1-0.5,0.2-1,0.4-1.4c0.2-0.5,0.4-0.9,0.6-1.2
			c0.3-0.4,0.6-0.6,0.9-0.9c0.3-0.2,0.7-0.3,1.2-0.3c0.2,0,0.5,0,0.9,0.1c0.4,0.1,0.7,0.2,1,0.4
			C153.2,391.8,153.4,391.8,153.8,391.9z M152.8,393.8c-0.2-0.1-0.4-0.3-0.7-0.5c-0.3-0.2-0.5-0.3-0.7-0.3c-0.2,0-0.4,0.1-0.6,0.3
			c-0.2,0.2-0.4,0.4-0.5,0.7c-0.1,0.3-0.3,0.5-0.4,0.8s-0.2,0.5-0.2,0.6c-0.1,0.3-0.1,0.6-0.1,0.9c0,0.4,0,0.7,0.1,1.1
			c0.1,0.4,0.2,0.7,0.4,1c0.2,0.3,0.5,0.5,0.9,0.6c0.2,0.1,0.5,0.1,0.9,0c0.3-0.1,0.7-0.2,1-0.4c0.3-0.2,0.6-0.5,0.9-0.8
			c0.3-0.3,0.5-0.7,0.7-1.2c0.2-0.5,0.2-1,0-1.6c-0.2-0.5-0.5-0.9-1-1.2c-0.1,0.1-0.2,0.1-0.4,0.1
			C153,393.9,152.9,393.8,152.8,393.8z"/>
		<path class="st1" d="M165.4,392.5c0.1,0,0.2,0,0.3,0s0.3,0,0.4,0c0.1,0,0.2,0.1,0.3,0.1c0.1,0.1,0.2,0.1,0.2,0.2
			c0,0.2,0,0.4-0.1,0.6c-0.1,0.2-0.3,0.3-0.5,0.4c-0.7,0.3-1.3,0.7-2.1,1.1c-0.7,0.4-1.3,0.7-1.8,1.1c0.3,0.2,0.7,0.4,1.1,0.7
			s0.8,0.5,1.3,0.8c0.4,0.3,0.9,0.6,1.3,0.9c0.4,0.3,0.8,0.6,1.2,0.9c0.3,0.3,0.4,0.6,0.2,0.8c-0.1,0.1-0.3,0.2-0.5,0.3
			s-0.5,0-0.7-0.1c-0.4-0.2-0.8-0.4-1.2-0.7s-0.9-0.5-1.4-0.8c-0.5-0.3-0.9-0.6-1.4-0.9s-0.8-0.5-1.2-0.8c0.1,0.6,0.1,1.2,0.2,1.8
			c0.1,0.6,0.1,1.2,0.2,1.8c0.1,0.3,0.1,0.6,0,0.8c-0.1,0.2-0.3,0.3-0.6,0.3c-0.3-0.1-0.5-0.2-0.6-0.4c-0.1-0.2-0.2-0.4-0.3-0.7
			c-0.1-0.7-0.2-1.6-0.4-2.5c-0.1-1-0.3-2-0.4-3c-0.1-1-0.3-2.1-0.4-3c-0.1-1-0.2-1.9-0.4-2.6c0-0.2-0.1-0.5-0.1-0.8
			c0-0.3,0.1-0.5,0.3-0.6c0.3-0.1,0.5,0,0.8,0.2s0.5,0.5,0.6,1c0.1,0.8,0.3,1.7,0.4,2.6c0.1,0.9,0.3,1.9,0.4,3
			c0.3-0.2,0.7-0.4,1.2-0.7c0.5-0.3,0.9-0.5,1.4-0.7c0.5-0.2,0.9-0.4,1.3-0.6C164.9,392.7,165.2,392.5,165.4,392.5z"/>
		<path class="st1" d="M173.2,390.4c0,0.2-0.2,0.3-0.4,0.3c-0.2,0-0.4,0-0.5,0c-0.4,0-0.9,0.1-1.3,0.1c-0.5,0.1-0.9,0.2-1.4,0.3
			c-0.2,0.1-0.4,0-0.7-0.1s-0.4-0.4-0.4-0.7c0-0.1,0.1-0.3,0.2-0.3s0.2-0.2,0.4-0.2c0.2-0.1,0.5-0.2,0.8-0.3s0.6-0.1,0.9-0.2
			s0.6,0,0.9,0c0.3,0,0.5,0,0.7,0.1c0.3,0.1,0.5,0.2,0.7,0.4C173.2,389.9,173.3,390.1,173.2,390.4z M172.6,399
			c0.1,0.3,0.2,0.6,0.2,0.9s-0.1,0.5-0.3,0.7c-0.2,0.2-0.5,0.1-0.8,0c-0.3-0.2-0.5-0.4-0.6-0.7c-0.2-0.4-0.3-0.8-0.4-1.3
			c-0.1-0.5-0.2-1.1-0.2-1.6c-0.1-0.5-0.1-1-0.1-1.5c0-0.5,0-0.8,0-1c0-0.2,0.1-0.5,0.2-0.7c0.1-0.2,0.3-0.3,0.5-0.4
			c0.3,0,0.6,0.2,0.8,0.4c0.2,0.3,0.3,0.6,0.3,1c0,0.3,0,0.7,0,1c0,0.4,0.1,0.8,0.1,1.1c0.1,0.4,0.1,0.8,0.2,1.1
			C172.4,398.5,172.5,398.8,172.6,399z"/>
		<path class="st1" d="M176.8,392.4c0.1,0.3,0.1,0.6,0.2,0.9c0.1,0.3,0.1,0.7,0.2,1s0.1,0.7,0.2,1c0.1,0.3,0.1,0.7,0.1,1
			c0.2-0.5,0.4-0.9,0.7-1.4c0.2-0.5,0.5-1,0.8-1.4c0.3-0.4,0.6-0.8,0.9-1.1c0.3-0.3,0.7-0.4,1.1-0.4c0.6,0,1.1,0.2,1.4,0.6
			c0.4,0.4,0.7,0.9,1,1.5s0.5,1.3,0.6,1.9c0.2,0.7,0.3,1.3,0.4,1.8c0.1,0.5-0.1,0.8-0.6,1c-0.2,0.1-0.4,0.1-0.5,0.1
			c-0.1-0.1-0.2-0.2-0.2-0.3c-0.1-0.2-0.2-0.6-0.3-1.1c-0.1-0.5-0.3-1-0.4-1.6c-0.2-0.5-0.4-1-0.6-1.4s-0.4-0.6-0.7-0.5
			c-0.3,0-0.6,0.3-0.8,0.7c-0.2,0.4-0.4,0.8-0.6,1.2c-0.2,0.4-0.4,0.9-0.6,1.4s-0.4,0.9-0.6,1.4c-0.2,0.5-0.4,0.9-0.6,1.3
			c-0.1,0.1-0.3,0.2-0.5,0.2c-0.2,0-0.4,0-0.6,0c-0.2-0.1-0.3-0.1-0.4-0.3c-0.1-0.1-0.2-0.2-0.2-0.4c-0.2-1.4-0.3-2.6-0.5-3.7
			c-0.2-1.1-0.4-2.2-0.6-3.4c-0.1-0.4-0.1-0.7-0.1-0.9c0.1-0.2,0.3-0.3,0.8-0.3C176.3,391.4,176.7,391.7,176.8,392.4z"/>
		<path class="st1" d="M190.9,393.8c0.1,0.2,0.3,0.4,0.4,0.7s0.2,0.6,0.3,0.9c0.1,0.5,0.2,1,0.4,1.5s0.3,1.1,0.4,1.7
			c0.1,0.6,0.3,1.2,0.4,1.8c0.1,0.6,0.2,1.2,0.3,1.7c0.1,0.8,0,1.5-0.2,2.2s-0.6,1.3-1.1,1.9s-1.1,1-1.9,1.3
			c-0.7,0.3-1.6,0.5-2.5,0.5c-0.2,0-0.4-0.1-0.7-0.3c-0.2-0.2-0.3-0.4-0.3-0.6c0-0.2,0.1-0.3,0.3-0.5c0.2-0.1,0.4-0.2,0.6-0.2
			c0.4,0,0.7-0.1,1.1-0.2c0.4-0.1,0.8-0.3,1.1-0.5c0.3-0.2,0.7-0.5,0.9-0.8c0.3-0.3,0.5-0.6,0.7-1c0.1-0.3,0.2-0.7,0.2-1.2
			c0-0.5,0-0.9-0.1-1.4c-0.1-0.5-0.1-0.9-0.2-1.3c-0.1-0.4-0.2-0.7-0.2-0.9c-0.1,0.1-0.3,0.3-0.5,0.4s-0.4,0.3-0.6,0.4
			c-0.2,0.1-0.5,0.2-0.7,0.3c-0.3,0.1-0.5,0.1-0.8,0.1c-0.3,0-0.6-0.1-0.8-0.3s-0.5-0.4-0.7-0.7c-0.2-0.3-0.3-0.7-0.5-1.1
			c-0.1-0.4-0.2-0.8-0.2-1.2c0-1,0.3-2,0.8-2.8c0.5-0.8,1.3-1.4,2.4-1.9c0.1,0,0.2,0,0.4-0.1s0.3,0,0.5,0c0.2,0,0.3,0,0.5,0.1
			c0.1,0,0.3,0.1,0.4,0.2c0.2,0.1,0.3,0.3,0.3,0.6S191,393.7,190.9,393.8z M187.6,397.4c0,0.2,0,0.4,0.1,0.6c0,0.2,0.1,0.4,0.3,0.5
			c0.2,0.1,0.5,0.1,0.8,0.1c0.3-0.1,0.6-0.2,0.8-0.4c0.2-0.2,0.4-0.4,0.5-0.6s0.1-0.5,0-0.9c-0.1-0.4-0.2-0.8-0.3-1.2
			c-0.1-0.4-0.2-0.8-0.2-1.2c-0.2,0.1-0.4,0.3-0.7,0.4c-0.2,0.2-0.4,0.4-0.6,0.7c-0.2,0.3-0.4,0.6-0.5,0.9
			C187.7,396.6,187.6,396.9,187.6,397.4z"/>
		<path class="st1" d="M203.2,396.2c-0.2,0-0.5,0-0.8-0.1c-0.3-0.1-0.5-0.3-0.7-0.7c-0.1-0.2-0.1-0.3,0-0.5c0-0.2,0.2-0.3,0.5-0.4
			c0.3-0.1,0.6-0.1,1-0.2s0.7-0.1,1.1-0.2l-1-2.9c-0.3-1.1-0.3-2.1-0.1-2.9c0.2-0.8,0.9-1.4,1.9-1.7c0.4-0.1,0.9-0.2,1.3-0.2
			c0.4,0,0.8,0.1,1.2,0.3c0.4,0.2,0.7,0.4,1,0.8c0.3,0.3,0.6,0.7,0.8,1.1c0.1,0.2,0.1,0.4,0.1,0.5s0,0.3-0.2,0.4
			c-0.2,0.2-0.4,0.2-0.6,0.2c-0.2,0-0.3-0.1-0.4-0.2c-0.2-0.2-0.3-0.4-0.5-0.6c-0.2-0.2-0.4-0.4-0.6-0.5c-0.2-0.1-0.4-0.3-0.6-0.3
			s-0.5-0.1-0.7-0.1c-0.1,0-0.3,0.1-0.4,0.2c-0.2,0.1-0.3,0.3-0.4,0.5c-0.1,0.2-0.2,0.5-0.2,0.8s0,0.8,0.2,1.3
			c0.1,0.4,0.3,0.9,0.4,1.4s0.3,1,0.5,1.6c0.8-0.1,1.6-0.1,2.3-0.1c0.4,0,0.7,0.1,1.1,0.2c0.3,0.1,0.6,0.3,0.8,0.5
			c0.1,0.2,0,0.3,0,0.4c-0.1,0.1-0.2,0.2-0.3,0.3c-0.1,0.1-0.3,0.1-0.4,0.2c-0.2,0-0.3,0.1-0.5,0.1c-0.3,0-0.7,0.1-1.1,0.1
			c-0.4,0-0.8,0.1-1.2,0.1c0.3,0.8,0.5,1.5,0.8,2.2c0.2,0.7,0.4,1.3,0.6,1.8c0.1,0.3,0.1,0.5,0,0.8c-0.1,0.3-0.1,0.6-0.2,0.9
			c-0.1,0.4-0.3,0.7-0.5,1s-0.4,0.3-0.7,0.2c-0.2-0.1-0.3-0.2-0.4-0.3c-0.1-0.1-0.1-0.3,0-0.6c0-0.3,0.1-0.6,0.1-0.8s0-0.5,0-0.8
			c0-0.2-0.1-0.4-0.1-0.6c0-0.2-0.1-0.3-0.1-0.4l-1.1-3.2c-0.3,0-0.6,0.1-0.8,0.1C203.8,396.2,203.5,396.2,203.2,396.2z"/>
		<path class="st1" d="M217.9,391.9c0.5,0.2,1,0.5,1.3,0.9c0.4,0.4,0.6,0.8,0.8,1.3c0.2,0.5,0.3,1,0.3,1.5c0,0.5,0,1-0.2,1.4
			c-0.2,0.5-0.4,1-0.7,1.4c-0.3,0.5-0.6,0.9-1,1.2c-0.4,0.4-0.8,0.7-1.3,0.9c-0.5,0.2-1,0.3-1.6,0.3c-0.7,0-1.3-0.2-1.8-0.5
			c-0.5-0.3-0.9-0.8-1.1-1.3c-0.3-0.5-0.5-1.1-0.5-1.8c-0.1-0.7-0.1-1.3,0-2c0.1-0.5,0.2-1,0.4-1.4c0.2-0.5,0.4-0.9,0.6-1.2
			s0.6-0.6,0.9-0.9c0.3-0.2,0.7-0.3,1.2-0.3c0.2,0,0.5,0,0.9,0.1c0.4,0.1,0.7,0.2,1,0.4C217.3,391.8,217.6,391.8,217.9,391.9z
			 M216.9,393.8c-0.2-0.1-0.4-0.3-0.7-0.5c-0.3-0.2-0.5-0.3-0.7-0.3c-0.2,0-0.4,0.1-0.6,0.3s-0.4,0.4-0.5,0.7
			c-0.1,0.3-0.3,0.5-0.4,0.8c-0.1,0.3-0.2,0.5-0.2,0.6c-0.1,0.3-0.1,0.6-0.1,0.9c0,0.4,0,0.7,0.1,1.1s0.2,0.7,0.4,1
			c0.2,0.3,0.5,0.5,0.9,0.6c0.2,0.1,0.5,0.1,0.9,0c0.3-0.1,0.7-0.2,1-0.4s0.6-0.5,0.9-0.8s0.5-0.7,0.7-1.2c0.2-0.5,0.2-1,0-1.6
			s-0.5-0.9-1-1.2c-0.1,0.1-0.2,0.1-0.4,0.1C217.1,393.9,217,393.8,216.9,393.8z"/>
		<path class="st1" d="M230.2,392c-0.3,0.2-0.6,0.4-1,0.5s-0.7,0.4-1,0.7s-0.7,0.5-1,0.9c-0.3,0.3-0.6,0.7-0.8,1.2
			c-0.3,0.7-0.6,1.3-0.7,2c-0.1,0.7-0.2,1.4-0.2,2c0,0.3-0.1,0.6-0.2,0.9c-0.1,0.3-0.4,0.5-0.6,0.5c-0.3,0-0.6-0.2-0.8-0.5
			s-0.3-0.7-0.4-1c-0.3-1.2-0.5-2.4-0.7-3.7s-0.4-2.4-0.5-3.6c0-0.2,0.1-0.4,0.2-0.5c0.1-0.1,0.3-0.1,0.5-0.1c0.2,0,0.4,0.1,0.6,0.2
			s0.3,0.2,0.3,0.4c0.1,0.6,0.2,1.3,0.3,2c0.1,0.7,0.2,1.3,0.3,1.8c0.1-0.6,0.3-1.2,0.6-1.7c0.3-0.6,0.7-1.1,1.2-1.5
			c0.5-0.5,1-0.8,1.6-1.1c0.6-0.3,1.2-0.5,1.8-0.6c0.3,0,0.5,0,0.6,0c0.2,0,0.3,0.1,0.4,0.2c0.1,0.1,0.1,0.2,0,0.4
			C230.5,391.7,230.4,391.9,230.2,392z"/>
		<path class="st1" d="M243.9,393.2c0-0.2-0.1-0.4-0.1-0.5c0-0.2-0.1-0.3-0.3-0.3c-0.3-0.1-0.6-0.1-0.9,0c-0.3,0.1-0.6,0.2-0.9,0.3
			c-0.3,0.1-0.5,0.3-0.7,0.5c-0.2,0.2-0.3,0.3-0.3,0.5c-0.1,0.3,0,0.5,0.2,0.8c0.2,0.2,0.5,0.5,0.8,0.7c0.6,0.4,1.2,0.7,1.9,1.1
			c0.7,0.4,1.2,0.8,1.7,1.2c0.5,0.4,0.8,0.8,0.9,1.3s0.1,1-0.1,1.6c-0.2,0.5-0.5,0.8-1.1,1.1c-0.5,0.3-1.1,0.5-1.7,0.7
			s-1.2,0.3-1.9,0.3s-1.2,0.1-1.6,0.1c-0.1,0-0.2,0-0.4-0.1c-0.1-0.1-0.3-0.2-0.4-0.3c-0.1-0.1-0.2-0.2-0.3-0.3
			c-0.1-0.1-0.1-0.2-0.1-0.3c0-0.3,0.1-0.5,0.4-0.7c0.3-0.1,0.6-0.2,0.9-0.2c0.4,0,0.9,0,1.3-0.1c0.5,0,0.9-0.1,1.4-0.2
			c0.4-0.1,0.8-0.2,1.2-0.4c0.3-0.2,0.6-0.4,0.7-0.6c0.1-0.2,0-0.5-0.2-0.7c-0.3-0.3-0.6-0.6-1.1-0.9c-0.4-0.3-0.9-0.6-1.4-0.9
			c-0.5-0.3-0.9-0.6-1.3-0.8c-0.4-0.2-0.7-0.5-0.9-0.9c-0.3-0.3-0.4-0.8-0.5-1.3c0-0.5,0.1-0.9,0.3-1.3s0.5-0.8,0.8-1.1
			c0.3-0.3,0.7-0.6,1.2-0.8c0.4-0.2,0.9-0.3,1.3-0.3c0.7,0,1.4,0.2,1.8,0.6s0.8,0.9,0.9,1.7c0,0.2,0,0.4-0.1,0.6s-0.2,0.3-0.4,0.3
			c-0.2,0-0.4,0-0.6-0.1C244,393.5,243.9,393.4,243.9,393.2z"/>
		<path class="st1" d="M253.8,391.9c0.5,0.2,1,0.5,1.3,0.9c0.4,0.4,0.6,0.8,0.8,1.3c0.2,0.5,0.3,1,0.3,1.5c0,0.5,0,1-0.2,1.4
			c-0.2,0.5-0.4,1-0.7,1.4c-0.3,0.5-0.6,0.9-1,1.2c-0.4,0.4-0.8,0.7-1.3,0.9c-0.5,0.2-1,0.3-1.6,0.3c-0.7,0-1.3-0.2-1.8-0.5
			c-0.5-0.3-0.9-0.8-1.1-1.3c-0.3-0.5-0.5-1.1-0.5-1.8c-0.1-0.7-0.1-1.3,0-2c0.1-0.5,0.2-1,0.4-1.4c0.2-0.5,0.4-0.9,0.6-1.2
			s0.6-0.6,0.9-0.9c0.3-0.2,0.7-0.3,1.2-0.3c0.2,0,0.5,0,0.9,0.1c0.4,0.1,0.7,0.2,1,0.4C253.2,391.8,253.5,391.8,253.8,391.9z
			 M252.8,393.8c-0.2-0.1-0.4-0.3-0.7-0.5c-0.3-0.2-0.5-0.3-0.7-0.3c-0.2,0-0.4,0.1-0.6,0.3s-0.4,0.4-0.5,0.7
			c-0.1,0.3-0.3,0.5-0.4,0.8c-0.1,0.3-0.2,0.5-0.2,0.6c-0.1,0.3-0.1,0.6-0.1,0.9c0,0.4,0,0.7,0.1,1.1s0.2,0.7,0.4,1
			c0.2,0.3,0.5,0.5,0.9,0.6c0.2,0.1,0.5,0.1,0.9,0c0.3-0.1,0.7-0.2,1-0.4s0.6-0.5,0.9-0.8s0.5-0.7,0.7-1.2c0.2-0.5,0.2-1,0-1.6
			s-0.5-0.9-1-1.2c-0.1,0.1-0.2,0.1-0.4,0.1C253,393.9,252.9,393.8,252.8,393.8z"/>
		<path class="st1" d="M259.9,392.6c0,0.3,0,0.6,0.1,1c0,0.4,0.1,0.8,0.1,1.3c0.1,0.4,0.1,0.9,0.2,1.3c0.1,0.4,0.1,0.8,0.2,1.2
			c0.2-0.4,0.4-0.8,0.7-1.4s0.6-1.1,0.9-1.6c0.3-0.5,0.6-0.9,0.9-1.3c0.3-0.4,0.6-0.5,0.9-0.5c0.3,0,0.5,0.1,0.8,0.4
			c0.2,0.3,0.4,0.6,0.6,1c0.2,0.4,0.3,0.8,0.5,1.2c0.1,0.4,0.2,0.8,0.3,1.1c0.1-0.2,0.2-0.5,0.3-0.8c0.1-0.3,0.2-0.6,0.4-0.9
			c0.1-0.3,0.3-0.6,0.4-0.9s0.3-0.6,0.5-0.8c0.2-0.2,0.5-0.4,0.7-0.5c0.3-0.1,0.5-0.2,0.6-0.2c0.2,0,0.3,0,0.6,0.1
			c0.2,0.1,0.4,0.2,0.7,0.4c0.2,0.2,0.4,0.3,0.6,0.6s0.4,0.4,0.5,0.7c0.2,0.5,0.4,1,0.6,1.5c0.1,0.6,0.3,1.1,0.3,1.6
			s0.1,0.9,0.1,1.3c0,0.4,0,0.7,0.1,0.8c0,0.2,0,0.4-0.1,0.5c-0.1,0.1-0.1,0.2-0.3,0.3c-0.2,0.1-0.4,0.1-0.5,0.1
			c-0.1,0-0.3-0.1-0.3-0.2c-0.1-0.1-0.2-0.2-0.2-0.3c-0.1-0.1-0.1-0.2-0.1-0.3c-0.1-0.4-0.1-0.8-0.2-1.2s-0.1-0.8-0.2-1.2
			c-0.1-0.4-0.2-0.8-0.2-1.1c-0.1-0.3-0.2-0.6-0.3-0.9c0-0.1-0.1-0.2-0.2-0.3c-0.1-0.1-0.2-0.2-0.3-0.3c-0.1-0.1-0.2-0.2-0.3-0.3
			c-0.1-0.1-0.1-0.1-0.2-0.1c-0.2,0-0.4,0.2-0.5,0.5c-0.2,0.3-0.4,0.7-0.5,1.2c-0.2,0.5-0.3,0.9-0.5,1.4c-0.1,0.5-0.3,0.9-0.3,1.3
			c0,0.5-0.1,0.8-0.3,1s-0.4,0.3-0.5,0.3s-0.4-0.1-0.6-0.2c-0.2-0.1-0.4-0.3-0.4-0.5c-0.1-0.3-0.2-0.6-0.3-0.9s-0.2-0.7-0.4-1.1
			s-0.3-0.7-0.4-1.1c-0.1-0.3-0.3-0.7-0.4-0.9c-0.2,0.3-0.5,0.7-0.7,1.1c-0.2,0.4-0.5,0.8-0.7,1.2s-0.4,0.8-0.6,1.2
			s-0.4,0.8-0.6,1.1c-0.1,0.2-0.3,0.4-0.4,0.5c-0.1,0.1-0.3,0.2-0.5,0.2c-0.1,0-0.3-0.1-0.4-0.2s-0.3-0.3-0.4-0.5
			c-0.1-0.2-0.3-0.4-0.4-0.6c-0.1-0.2-0.2-0.5-0.2-0.7c-0.1-0.7-0.3-1.6-0.4-2.5c-0.1-0.9-0.2-1.8-0.3-2.6c0-0.3,0-0.6,0.1-0.8
			c0.1-0.3,0.3-0.4,0.6-0.5c0.3-0.1,0.5,0,0.7,0.1S259.9,392.3,259.9,392.6z"/>
		<path class="st1" d="M280.8,394.9c-0.7,0.4-1.4,0.7-2.2,0.9c-0.8,0.2-1.6,0.3-2.5,0.3c0,0.6,0.2,1.1,0.5,1.4
			c0.3,0.4,0.7,0.6,1.2,0.6c0.3,0,0.6,0,0.8,0c0.3-0.1,0.6-0.1,0.8-0.2c0.3-0.1,0.5-0.2,0.7-0.4s0.4-0.3,0.5-0.4
			c0.2-0.1,0.3-0.2,0.5-0.3c0.2,0,0.3,0,0.4,0c0.2,0.1,0.3,0.3,0.3,0.8c-0.3,0.6-0.7,1-1.2,1.4c-0.5,0.4-1.1,0.6-1.7,0.7
			c-0.6,0.1-1.1,0.1-1.7-0.1c-0.6-0.2-1.1-0.5-1.6-0.9c-0.4-0.4-0.7-0.9-0.9-1.4s-0.3-1.1-0.4-1.7c-0.1-0.5,0-1,0.1-1.5
			c0.1-0.5,0.4-0.9,0.7-1.3c0.3-0.4,0.7-0.7,1.2-0.9c0.5-0.2,1-0.4,1.6-0.4c0.7-0.1,1.4,0.1,2,0.4s1,0.8,1.3,1.4
			c0.1,0.3,0.2,0.6,0.1,0.9C281.3,394.5,281.1,394.7,280.8,394.9z M277.8,393.1c-0.2,0-0.4,0.1-0.6,0.2c-0.2,0.1-0.4,0.2-0.5,0.3
			c-0.2,0.1-0.3,0.3-0.4,0.4s-0.2,0.4-0.2,0.6c0.3,0,0.6,0,1-0.1s0.7-0.1,1-0.2c0.3-0.1,0.7-0.2,0.9-0.3c0.3-0.1,0.5-0.2,0.7-0.3
			c-0.1-0.3-0.4-0.5-0.8-0.6S278.2,393,277.8,393.1z"/>
		<path class="st1" d="M289.5,394c0.3,0,0.7,0.1,1,0.2c0.3,0.2,0.5,0.4,0.5,0.8c0,0.3-0.2,0.5-0.5,0.6c-0.3,0.1-0.5,0.1-0.7,0.1
			c-0.3,0-0.7,0-1.1,0c-0.4,0-0.8,0-1.2,0.1c0,0.6-0.1,1.1-0.1,1.6c0,0.5,0,0.9-0.1,1.3c0,0.4,0,0.7,0,0.9c0,0.2,0,0.4,0,0.4
			c0.4-0.1,0.8-0.2,1.2-0.4c0.4-0.2,0.9-0.3,1.3-0.5c0.4-0.2,0.9-0.4,1.3-0.6c0.4-0.2,0.8-0.4,1.2-0.6c0.2-0.1,0.3-0.1,0.5-0.1
			c0.1,0,0.2,0.1,0.3,0.2c0,0.2,0,0.4-0.1,0.7s-0.2,0.5-0.5,0.8c-0.3,0.2-0.6,0.4-1,0.7s-0.9,0.5-1.4,0.8c-0.5,0.2-1,0.5-1.5,0.6
			c-0.5,0.2-0.9,0.3-1.3,0.3c-0.6,0.1-1-0.1-1.3-0.5c-0.3-0.4-0.5-0.8-0.5-1.4c0-0.6,0-1.2,0-1.9c0-0.7,0.1-1.5,0.1-2.3
			c-0.3,0-0.6,0.1-0.9,0.1c-0.3,0-0.6,0.1-0.9,0.1c-0.2,0-0.5-0.1-0.7-0.2c-0.3-0.1-0.4-0.3-0.4-0.6c0-0.1,0-0.2,0.1-0.4
			s0.3-0.3,0.6-0.4c0.7-0.1,1.5-0.2,2.4-0.3c0.1-0.8,0.1-1.6,0.2-2.4s0.1-1.5,0.2-2.1c0-0.2,0.1-0.4,0.2-0.5
			c0.1-0.2,0.2-0.2,0.3-0.2c0.3,0,0.6,0.1,0.8,0.2s0.4,0.4,0.4,0.6c-0.1,0.6-0.1,1.3-0.2,2c-0.1,0.7-0.1,1.5-0.2,2.3
			c0.3,0,0.7-0.1,1-0.1C288.9,394,289.2,394,289.5,394z"/>
		<path class="st1" d="M296,389.5c0,0.4,0,0.9,0,1.4c0,0.5,0,1.1,0,1.6s0,1.1,0,1.7c0,0.6,0,1.2,0,1.7c0.2-0.3,0.4-0.7,0.6-1
			c0.2-0.3,0.5-0.6,0.8-0.9c0.3-0.3,0.6-0.5,1-0.6c0.3-0.2,0.7-0.2,1.1-0.2c0.4,0,0.8,0.1,1.2,0.4s0.6,0.6,0.9,1.1
			c0.3,0.5,0.5,1,0.6,1.5c0.2,0.6,0.3,1.1,0.4,1.7c0.1,0.6,0.2,1.1,0.2,1.7c0.1,0.5,0.1,1,0.1,1.4c0,0.3-0.1,0.5-0.2,0.7
			c-0.1,0.2-0.3,0.3-0.5,0.3c-0.1,0-0.3-0.1-0.5-0.3c-0.2-0.2-0.3-0.4-0.4-0.7c-0.1-0.2-0.1-0.5-0.2-0.9c-0.1-0.4-0.1-0.8-0.2-1.3
			c-0.1-0.5-0.2-0.9-0.3-1.4c-0.1-0.5-0.2-0.9-0.4-1.3c-0.1-0.4-0.3-0.7-0.5-0.9s-0.5-0.3-0.7-0.2c-0.4,0.1-0.8,0.4-1.1,0.9
			c-0.3,0.5-0.6,1.1-0.8,1.8c-0.2,0.7-0.4,1.3-0.6,2c-0.1,0.7-0.3,1.2-0.3,1.6c-0.1,0.3-0.2,0.5-0.3,0.6c-0.1,0.1-0.2,0.2-0.4,0.2
			s-0.3-0.1-0.4-0.2c-0.1-0.1-0.2-0.3-0.3-0.5c-0.1-0.2-0.2-0.4-0.2-0.6s-0.1-0.4-0.1-0.6c-0.1-0.9-0.2-1.8-0.2-2.7
			s-0.1-1.7-0.1-2.6c0-0.9,0-1.8,0-2.7s0-1.9,0.1-2.9c0-0.9,0.3-1.3,0.9-1.2c0.2,0,0.4,0.2,0.5,0.5S296,389.1,296,389.5z"/>
		<path class="st1" d="M309.3,390.4c0,0.2-0.2,0.3-0.4,0.3c-0.2,0-0.4,0-0.5,0c-0.4,0-0.9,0.1-1.3,0.1c-0.5,0.1-0.9,0.2-1.4,0.3
			c-0.2,0.1-0.4,0-0.7-0.1c-0.2-0.1-0.4-0.4-0.4-0.7c0-0.1,0.1-0.3,0.2-0.3c0.1-0.1,0.2-0.2,0.4-0.2c0.2-0.1,0.5-0.2,0.8-0.3
			c0.3-0.1,0.6-0.1,0.9-0.2c0.3,0,0.6,0,0.9,0s0.5,0,0.7,0.1c0.3,0.1,0.5,0.2,0.7,0.4C309.3,389.9,309.4,390.1,309.3,390.4z
			 M308.7,399c0.1,0.3,0.2,0.6,0.2,0.9s-0.1,0.5-0.3,0.7c-0.2,0.2-0.5,0.1-0.8,0c-0.3-0.2-0.5-0.4-0.6-0.7c-0.2-0.4-0.3-0.8-0.4-1.3
			c-0.1-0.5-0.2-1.1-0.2-1.6c-0.1-0.5-0.1-1-0.1-1.5c0-0.5,0-0.8,0-1c0-0.2,0.1-0.5,0.2-0.7c0.1-0.2,0.3-0.3,0.5-0.4
			c0.3,0,0.6,0.2,0.8,0.4c0.2,0.3,0.3,0.6,0.3,1c0,0.3,0,0.7,0,1c0,0.4,0.1,0.8,0.1,1.1s0.1,0.8,0.2,1.1
			C308.5,398.5,308.6,398.8,308.7,399z"/>
		<path class="st1" d="M312.9,392.4c0.1,0.3,0.1,0.6,0.2,0.9c0.1,0.3,0.1,0.7,0.2,1s0.1,0.7,0.2,1c0.1,0.3,0.1,0.7,0.1,1
			c0.2-0.5,0.4-0.9,0.7-1.4c0.2-0.5,0.5-1,0.8-1.4c0.3-0.4,0.6-0.8,0.9-1.1c0.3-0.3,0.7-0.4,1.1-0.4c0.6,0,1.1,0.2,1.4,0.6
			c0.4,0.4,0.7,0.9,1,1.5s0.5,1.3,0.6,1.9c0.2,0.7,0.3,1.3,0.4,1.8c0.1,0.5-0.1,0.8-0.6,1c-0.2,0.1-0.4,0.1-0.5,0.1
			c-0.1-0.1-0.2-0.2-0.2-0.3c-0.1-0.2-0.2-0.6-0.3-1.1c-0.1-0.5-0.3-1-0.4-1.6c-0.2-0.5-0.4-1-0.6-1.4s-0.4-0.6-0.7-0.5
			c-0.3,0-0.6,0.3-0.8,0.7c-0.2,0.4-0.4,0.8-0.6,1.2c-0.2,0.4-0.4,0.9-0.6,1.4s-0.4,0.9-0.6,1.4c-0.2,0.5-0.4,0.9-0.6,1.3
			c-0.1,0.1-0.3,0.2-0.5,0.2c-0.2,0-0.4,0-0.6,0c-0.2-0.1-0.3-0.1-0.4-0.3c-0.1-0.1-0.2-0.2-0.2-0.4c-0.2-1.4-0.3-2.6-0.5-3.7
			c-0.2-1.1-0.4-2.2-0.6-3.4c-0.1-0.4-0.1-0.7-0.1-0.9c0.1-0.2,0.3-0.3,0.8-0.3C312.4,391.4,312.8,391.7,312.9,392.4z"/>
		<path class="st1" d="M327,393.8c0.1,0.2,0.3,0.4,0.4,0.7s0.2,0.6,0.3,0.9c0.1,0.5,0.2,1,0.4,1.5s0.3,1.1,0.4,1.7
			c0.1,0.6,0.3,1.2,0.4,1.8c0.1,0.6,0.2,1.2,0.3,1.7c0.1,0.8,0,1.5-0.2,2.2s-0.6,1.3-1.1,1.9s-1.1,1-1.9,1.3
			c-0.7,0.3-1.6,0.5-2.5,0.5c-0.2,0-0.4-0.1-0.7-0.3c-0.2-0.2-0.3-0.4-0.3-0.6c0-0.2,0.1-0.3,0.3-0.5c0.2-0.1,0.4-0.2,0.6-0.2
			c0.4,0,0.7-0.1,1.1-0.2c0.4-0.1,0.8-0.3,1.1-0.5c0.3-0.2,0.7-0.5,0.9-0.8c0.3-0.3,0.5-0.6,0.7-1c0.1-0.3,0.2-0.7,0.2-1.2
			c0-0.5,0-0.9-0.1-1.4c-0.1-0.5-0.1-0.9-0.2-1.3c-0.1-0.4-0.2-0.7-0.2-0.9c-0.1,0.1-0.3,0.3-0.5,0.4s-0.4,0.3-0.6,0.4
			c-0.2,0.1-0.5,0.2-0.7,0.3c-0.3,0.1-0.5,0.1-0.8,0.1c-0.3,0-0.6-0.1-0.8-0.3s-0.5-0.4-0.7-0.7c-0.2-0.3-0.3-0.7-0.5-1.1
			c-0.1-0.4-0.2-0.8-0.2-1.2c0-1,0.3-2,0.8-2.8c0.5-0.8,1.3-1.4,2.4-1.9c0.1,0,0.2,0,0.4-0.1s0.3,0,0.5,0c0.2,0,0.3,0,0.5,0.1
			c0.1,0,0.3,0.1,0.4,0.2c0.2,0.1,0.3,0.3,0.3,0.6S327.1,393.7,327,393.8z M323.7,397.4c0,0.2,0,0.4,0.1,0.6c0,0.2,0.1,0.4,0.3,0.5
			c0.2,0.1,0.5,0.1,0.8,0.1c0.3-0.1,0.6-0.2,0.8-0.4c0.2-0.2,0.4-0.4,0.5-0.6s0.1-0.5,0-0.9c-0.1-0.4-0.2-0.8-0.3-1.2
			c-0.1-0.4-0.2-0.8-0.2-1.2c-0.2,0.1-0.4,0.3-0.7,0.4c-0.2,0.2-0.4,0.4-0.6,0.7c-0.2,0.3-0.4,0.6-0.5,0.9
			C323.8,396.6,323.7,396.9,323.7,397.4z"/>
		<path class="st1" d="M333.1,400.6c0.1,0.6-0.2,1-0.8,1.1c-0.3,0-0.6-0.1-0.8-0.3s-0.3-0.5-0.4-0.8c-0.1-0.3,0-0.6,0.1-0.9
			c0.1-0.3,0.3-0.5,0.6-0.5c0.3-0.1,0.6,0.1,0.9,0.4C332.9,399.9,333.1,400.2,333.1,400.6z"/>
		<path class="st1" d="M338.3,400.6c0.1,0.6-0.2,1-0.8,1.1c-0.3,0-0.6-0.1-0.8-0.3s-0.3-0.5-0.4-0.8c-0.1-0.3,0-0.6,0.1-0.9
			c0.1-0.3,0.3-0.5,0.6-0.5c0.3-0.1,0.6,0.1,0.9,0.4C338.1,399.9,338.3,400.2,338.3,400.6z"/>
		<path class="st1" d="M343.5,400.6c0.1,0.6-0.2,1-0.8,1.1c-0.3,0-0.6-0.1-0.8-0.3s-0.3-0.5-0.4-0.8c-0.1-0.3,0-0.6,0.1-0.9
			c0.1-0.3,0.3-0.5,0.6-0.5c0.3-0.1,0.6,0.1,0.9,0.4C343.3,399.9,343.4,400.2,343.5,400.6z"/>
	</g>
	<g class="st0">
		<path class="st1" d="M158.2,431c0,0.2-0.1,0.4-0.2,0.5c-0.1,0.2-0.2,0.2-0.4,0.2c-0.3,0-0.6-0.1-0.8-0.3c-0.2-0.2-0.3-0.4-0.3-0.5
			c0-1.5,0-3-0.1-4.6c-0.1-1.6-0.3-3.1-0.5-4.7c0-0.1,0-0.1,0.1-0.2c0-0.1,0.1-0.2,0.1-0.2c0.1-0.1,0.1-0.2,0.3-0.3
			c0.1-0.1,0.3,0,0.4,0c0.1,0.1,0.3,0.2,0.4,0.3c0.1,0.1,0.3,0.3,0.4,0.5c0.1,0.2,0.2,0.3,0.2,0.5c0.1,0.3,0.1,0.7,0.2,1.1
			c0.1,0.4,0.1,0.8,0.1,1.3c0.4-0.2,0.8-0.5,1.2-0.8c0.4-0.3,0.7-0.6,1-0.9c0.3-0.3,0.5-0.7,0.7-1c0.2-0.4,0.2-0.7,0.2-1.1
			c0-0.3-0.2-0.6-0.4-0.8c-0.2-0.2-0.6-0.4-1-0.5c-1.1-0.2-2-0.3-2.9,0c-0.8,0.2-1.7,0.6-2.4,1.1c-0.2,0.2-0.4,0.3-0.6,0.3
			c-0.2,0-0.4,0-0.5,0c-0.1-0.1-0.2-0.1-0.3-0.2c-0.1-0.1-0.1-0.2-0.1-0.3c0-0.4,0.2-0.8,0.6-1.1c0.4-0.3,0.7-0.6,1.1-0.8
			c0.5-0.3,1.2-0.5,1.9-0.7c0.8-0.2,1.5-0.2,2.3-0.2c0.8,0,1.5,0.2,2.2,0.6c0.7,0.3,1.2,0.9,1.6,1.6c0.3,0.9,0.4,1.6,0.2,2.3
			c-0.2,0.7-0.5,1.3-1,1.9c-0.5,0.6-1,1.1-1.7,1.6c-0.6,0.5-1.2,0.9-1.8,1.3c0,0.8,0.1,1.5,0.1,2.2
			C158.3,429.7,158.3,430.4,158.2,431z"/>
		<path class="st1" d="M166.7,418.8c0.1,1.9,0.2,3.8,0.4,5.9s0.4,3.9,0.7,5.8c0.1,0.8-0.2,1.2-0.6,1.2c-0.1,0-0.2,0-0.3-0.1
			s-0.2-0.2-0.3-0.3c-0.1-0.1-0.2-0.3-0.2-0.4c-0.1-0.1-0.1-0.3-0.1-0.4c-0.1-0.9-0.3-1.8-0.4-2.8c-0.1-1-0.2-2-0.3-3
			c-0.1-1-0.2-2-0.2-2.9c-0.1-1-0.1-1.8-0.1-2.6c0-0.4,0.1-0.8,0.2-1.1c0.1-0.3,0.3-0.4,0.5-0.4c0.3,0,0.5,0.1,0.6,0.4
			C166.6,418.2,166.7,418.5,166.7,418.8z"/>
		<path class="st1" d="M176.2,424.9c-0.7,0.4-1.4,0.7-2.2,0.9c-0.8,0.2-1.6,0.3-2.5,0.3c0,0.6,0.2,1.1,0.5,1.4s0.7,0.6,1.2,0.6
			c0.3,0,0.6,0,0.8,0c0.3-0.1,0.6-0.1,0.8-0.2c0.3-0.1,0.5-0.2,0.7-0.4s0.4-0.3,0.5-0.4s0.3-0.2,0.5-0.3c0.2,0,0.3,0,0.4,0
			c0.2,0.1,0.3,0.3,0.3,0.8c-0.3,0.6-0.7,1-1.2,1.4c-0.5,0.4-1.1,0.6-1.7,0.7c-0.6,0.1-1.1,0.1-1.7-0.1c-0.6-0.2-1.1-0.5-1.6-0.9
			c-0.4-0.4-0.7-0.9-0.9-1.4s-0.3-1.1-0.4-1.7c-0.1-0.5,0-1,0.1-1.5c0.1-0.5,0.4-0.9,0.7-1.3c0.3-0.4,0.7-0.7,1.2-0.9
			c0.5-0.2,1-0.4,1.6-0.4c0.7-0.1,1.4,0.1,2,0.4c0.6,0.3,1,0.8,1.3,1.4c0.1,0.3,0.2,0.6,0.1,0.9S176.5,424.7,176.2,424.9z
			 M173.2,423.1c-0.2,0-0.4,0.1-0.6,0.2c-0.2,0.1-0.4,0.2-0.5,0.3c-0.2,0.1-0.3,0.3-0.4,0.4c-0.1,0.2-0.2,0.4-0.2,0.6
			c0.3,0,0.6,0,1-0.1c0.4-0.1,0.7-0.1,1-0.2c0.3-0.1,0.6-0.2,0.9-0.3c0.3-0.1,0.5-0.2,0.7-0.3c-0.1-0.3-0.4-0.5-0.8-0.6
			C174,423,173.6,423,173.2,423.1z"/>
		<path class="st1" d="M185.6,421.4c0.1,0.5,0.1,1,0.2,1.5s0.1,1.1,0.1,1.7s0,1.1,0,1.6c0,0.5,0,1,0,1.4c0.6,0.4,0.9,0.7,1,1
			s0.1,0.6,0,0.8c-0.1,0.3-0.3,0.5-0.6,0.5c-0.3,0-0.6-0.1-0.9-0.3c-0.2,0.2-0.5,0.4-0.8,0.6c-0.3,0.2-0.6,0.4-1,0.6
			c-0.3,0.2-0.7,0.3-1,0.5s-0.7,0.2-1,0.3c-0.6,0.1-1.1,0-1.5-0.3c-0.4-0.3-0.7-0.7-0.9-1.3c-0.1-0.4-0.1-0.8-0.1-1.2
			c0.1-0.4,0.2-0.8,0.4-1.2c0.2-0.4,0.5-0.7,0.8-1.1c0.4-0.3,0.8-0.6,1.3-0.7c0.1-0.1,0.3-0.1,0.5-0.1c0.2,0,0.4,0,0.7,0
			c0.2,0,0.5,0.1,0.7,0.1c0.2,0.1,0.5,0.2,0.7,0.4c0-0.3,0-0.6,0-1c0-0.4,0-0.7,0-1.1c0-0.4,0-0.7-0.1-1c0-0.3-0.1-0.6-0.1-0.8
			c0-0.3-0.1-0.4-0.3-0.5s-0.4,0-0.6,0c-0.4,0.1-0.9,0.4-1.5,0.8s-1.1,0.8-1.6,1.3c-0.2,0.2-0.3,0.2-0.5,0.2c-0.2,0-0.4-0.1-0.5-0.2
			s-0.2-0.3-0.2-0.5c0-0.2,0.1-0.4,0.2-0.6c0.3-0.3,0.6-0.6,1-1c0.4-0.3,0.7-0.6,1.1-0.9c0.4-0.3,0.8-0.5,1.2-0.7s0.8-0.3,1.2-0.3
			c0.6,0,1.1,0.1,1.4,0.4C185.3,420.5,185.5,420.9,185.6,421.4z M182.6,426.9c-0.2,0.1-0.5,0.2-0.7,0.3c-0.3,0.2-0.5,0.4-0.7,0.6
			c-0.2,0.2-0.3,0.5-0.4,0.8c-0.1,0.3-0.1,0.6,0,0.8c0,0.1,0.1,0.2,0.2,0.2c0.1,0.1,0.2,0.1,0.4,0c0.4-0.1,0.9-0.3,1.4-0.5
			c0.5-0.3,0.9-0.5,1.3-0.8c0-0.1-0.1-0.2-0.2-0.4c-0.1-0.2-0.2-0.3-0.4-0.5c-0.1-0.2-0.3-0.3-0.5-0.4
			C182.8,427,182.7,426.9,182.6,426.9z"/>
		<path class="st1" d="M193.3,423.2c0-0.2-0.1-0.4-0.1-0.5c0-0.2-0.1-0.3-0.3-0.3c-0.3-0.1-0.6-0.1-0.9,0c-0.3,0.1-0.6,0.2-0.9,0.3
			c-0.3,0.1-0.5,0.3-0.7,0.5c-0.2,0.2-0.3,0.3-0.3,0.5c-0.1,0.3,0,0.5,0.2,0.8c0.2,0.2,0.5,0.5,0.8,0.7c0.6,0.4,1.2,0.7,1.9,1.1
			c0.7,0.4,1.2,0.8,1.7,1.2c0.5,0.4,0.8,0.8,0.9,1.3s0.1,1-0.1,1.6c-0.2,0.5-0.5,0.8-1.1,1.1c-0.5,0.3-1.1,0.5-1.7,0.7
			s-1.2,0.3-1.9,0.3s-1.2,0.1-1.6,0.1c-0.1,0-0.2,0-0.4-0.1c-0.1-0.1-0.3-0.2-0.4-0.3c-0.1-0.1-0.2-0.2-0.3-0.3
			c-0.1-0.1-0.1-0.2-0.1-0.3c0-0.3,0.1-0.5,0.4-0.7c0.3-0.1,0.6-0.2,0.9-0.2c0.4,0,0.9,0,1.3-0.1c0.5,0,0.9-0.1,1.4-0.2
			c0.4-0.1,0.8-0.2,1.2-0.4c0.3-0.2,0.6-0.4,0.7-0.6c0.1-0.2,0-0.5-0.2-0.7c-0.3-0.3-0.6-0.6-1.1-0.9c-0.4-0.3-0.9-0.6-1.4-0.9
			c-0.5-0.3-0.9-0.6-1.3-0.8c-0.4-0.2-0.7-0.5-0.9-0.9c-0.3-0.3-0.4-0.8-0.5-1.3c0-0.5,0.1-0.9,0.3-1.3s0.5-0.8,0.8-1.1
			c0.3-0.3,0.7-0.6,1.2-0.8c0.4-0.2,0.9-0.3,1.3-0.3c0.7,0,1.4,0.2,1.8,0.6s0.8,0.9,0.9,1.7c0,0.2,0,0.4-0.1,0.6s-0.2,0.3-0.4,0.3
			c-0.2,0-0.4,0-0.6-0.1C193.4,423.5,193.3,423.4,193.3,423.2z"/>
		<path class="st1" d="M203.5,424.9c-0.7,0.4-1.4,0.7-2.2,0.9s-1.6,0.3-2.5,0.3c0,0.6,0.2,1.1,0.5,1.4c0.3,0.4,0.7,0.6,1.2,0.6
			c0.3,0,0.6,0,0.8,0c0.3-0.1,0.6-0.1,0.8-0.2c0.3-0.1,0.5-0.2,0.7-0.4s0.4-0.3,0.5-0.4s0.3-0.2,0.5-0.3c0.2,0,0.3,0,0.4,0
			c0.2,0.1,0.3,0.3,0.3,0.8c-0.3,0.6-0.7,1-1.2,1.4c-0.5,0.4-1.1,0.6-1.7,0.7c-0.6,0.1-1.1,0.1-1.7-0.1c-0.6-0.2-1.1-0.5-1.6-0.9
			c-0.4-0.4-0.7-0.9-0.9-1.4s-0.3-1.1-0.4-1.7c-0.1-0.5,0-1,0.1-1.5s0.4-0.9,0.7-1.3c0.3-0.4,0.7-0.7,1.2-0.9c0.5-0.2,1-0.4,1.6-0.4
			c0.7-0.1,1.4,0.1,2,0.4c0.6,0.3,1,0.8,1.3,1.4c0.1,0.3,0.2,0.6,0.1,0.9S203.8,424.7,203.5,424.9z M200.5,423.1
			c-0.2,0-0.4,0.1-0.6,0.2c-0.2,0.1-0.4,0.2-0.5,0.3s-0.3,0.3-0.4,0.4c-0.1,0.2-0.2,0.4-0.2,0.6c0.3,0,0.6,0,1-0.1
			c0.4-0.1,0.7-0.1,1-0.2c0.3-0.1,0.6-0.2,0.9-0.3c0.3-0.1,0.5-0.2,0.7-0.3c-0.1-0.3-0.4-0.5-0.8-0.6
			C201.3,423,200.9,423,200.5,423.1z"/>
		<path class="st1" d="M220.4,419.9c-0.1,0.1-0.2,0.2-0.4,0.2c-0.2,0-0.4,0-0.6-0.1c-0.1-0.1-0.3-0.2-0.5-0.3
			c-0.2-0.1-0.4-0.2-0.6-0.3c-0.2-0.1-0.5-0.2-0.7-0.3c-0.2-0.1-0.4-0.1-0.7-0.1c-0.3,0-0.5,0.1-0.8,0.2c-0.3,0.1-0.5,0.3-0.7,0.5
			c-0.4,0.4-0.5,0.9-0.4,1.3c0.1,0.4,0.4,0.8,0.9,1.1c0.3,0.2,0.7,0.5,1,0.7c0.4,0.2,0.7,0.5,1.1,0.7c0.4,0.2,0.7,0.4,1,0.7
			c0.3,0.2,0.6,0.4,0.8,0.5c0.3,0.2,0.6,0.4,0.9,0.7c0.3,0.2,0.5,0.5,0.7,0.8c0.2,0.3,0.4,0.6,0.5,1c0.1,0.4,0.2,0.8,0.2,1.3
			c-0.1,1-0.5,1.7-1.1,2.3c-0.6,0.6-1.4,0.9-2.2,1.1c-0.7,0.1-1.4,0.1-2.1-0.1c-0.7-0.2-1.3-0.6-1.8-1.1c-0.1-0.1-0.2-0.3-0.3-0.6
			c-0.1-0.2-0.1-0.4,0-0.5c0.1-0.2,0.3-0.3,0.5-0.3c0.3-0.1,0.5,0,0.6,0c0.4,0.4,0.9,0.6,1.4,0.8c0.5,0.2,1.1,0.2,1.7,0
			c0.5-0.1,0.8-0.3,1.1-0.6s0.5-0.6,0.5-1c0.1-0.4,0-0.8-0.1-1.2c-0.2-0.4-0.5-0.8-1-1.1c-0.7-0.5-1.5-1-2.3-1.5
			c-0.8-0.5-1.6-1-2.5-1.6c-0.4-0.3-0.7-0.7-0.9-1.1c-0.2-0.4-0.3-0.8-0.3-1.2c0-0.4,0.1-0.8,0.3-1.2c0.2-0.4,0.4-0.7,0.7-1
			c0.3-0.3,0.7-0.5,1.1-0.7s0.9-0.3,1.4-0.3c0.7,0,1.4,0.1,2,0.4s1.2,0.7,1.6,1.2c0.1,0.1,0.1,0.2,0.1,0.4
			C220.6,419.6,220.5,419.8,220.4,419.9z"/>
		<path class="st1" d="M230.3,424.9c-0.7,0.4-1.4,0.7-2.2,0.9c-0.8,0.2-1.6,0.3-2.5,0.3c0,0.6,0.2,1.1,0.5,1.4
			c0.3,0.4,0.7,0.6,1.2,0.6c0.3,0,0.6,0,0.8,0c0.3-0.1,0.6-0.1,0.8-0.2c0.3-0.1,0.5-0.2,0.7-0.4s0.4-0.3,0.5-0.4
			c0.2-0.1,0.3-0.2,0.5-0.3c0.2,0,0.3,0,0.4,0c0.2,0.1,0.3,0.3,0.3,0.8c-0.3,0.6-0.7,1-1.2,1.4c-0.5,0.4-1.1,0.6-1.7,0.7
			c-0.6,0.1-1.1,0.1-1.7-0.1c-0.6-0.2-1.1-0.5-1.6-0.9c-0.4-0.4-0.7-0.9-0.9-1.4s-0.3-1.1-0.4-1.7c-0.1-0.5,0-1,0.1-1.5
			c0.1-0.5,0.4-0.9,0.7-1.3c0.3-0.4,0.7-0.7,1.2-0.9c0.5-0.2,1-0.4,1.6-0.4c0.7-0.1,1.4,0.1,2,0.4s1,0.8,1.3,1.4
			c0.1,0.3,0.2,0.6,0.1,0.9C230.8,424.5,230.6,424.7,230.3,424.9z M227.3,423.1c-0.2,0-0.4,0.1-0.6,0.2c-0.2,0.1-0.4,0.2-0.5,0.3
			c-0.2,0.1-0.3,0.3-0.4,0.4s-0.2,0.4-0.2,0.6c0.3,0,0.6,0,1-0.1s0.7-0.1,1-0.2c0.3-0.1,0.7-0.2,0.9-0.3c0.3-0.1,0.5-0.2,0.7-0.3
			c-0.1-0.3-0.4-0.5-0.8-0.6S227.7,423,227.3,423.1z"/>
		<path class="st1" d="M239.6,421.4c0.1,0.5,0.1,1,0.2,1.5c0,0.5,0.1,1.1,0.1,1.7c0,0.6,0,1.1,0,1.6c0,0.5,0,1,0,1.4
			c0.6,0.4,0.9,0.7,1,1c0.1,0.3,0.1,0.6,0,0.8c-0.1,0.3-0.3,0.5-0.6,0.5s-0.6-0.1-0.9-0.3c-0.2,0.2-0.5,0.4-0.8,0.6
			c-0.3,0.2-0.6,0.4-1,0.6c-0.3,0.2-0.7,0.3-1,0.5s-0.7,0.2-1,0.3c-0.6,0.1-1.1,0-1.5-0.3c-0.4-0.3-0.7-0.7-0.9-1.3
			c-0.1-0.4-0.1-0.8-0.1-1.2s0.2-0.8,0.4-1.2c0.2-0.4,0.5-0.7,0.8-1.1c0.4-0.3,0.8-0.6,1.3-0.7c0.1-0.1,0.3-0.1,0.5-0.1
			c0.2,0,0.4,0,0.7,0c0.2,0,0.5,0.1,0.7,0.1c0.2,0.1,0.5,0.2,0.7,0.4c0-0.3,0-0.6,0-1c0-0.4,0-0.7,0-1.1c0-0.4,0-0.7-0.1-1
			c0-0.3-0.1-0.6-0.1-0.8c0-0.3-0.1-0.4-0.3-0.5c-0.2-0.1-0.4,0-0.6,0c-0.4,0.1-0.9,0.4-1.5,0.8s-1.1,0.8-1.6,1.3
			c-0.2,0.2-0.3,0.2-0.5,0.2c-0.2,0-0.4-0.1-0.5-0.2s-0.2-0.3-0.2-0.5c0-0.2,0.1-0.4,0.2-0.6c0.3-0.3,0.6-0.6,1-1
			c0.4-0.3,0.7-0.6,1.1-0.9c0.4-0.3,0.8-0.5,1.2-0.7s0.8-0.3,1.2-0.3c0.6,0,1.1,0.1,1.4,0.4C239.4,420.5,239.6,420.9,239.6,421.4z
			 M236.6,426.9c-0.2,0.1-0.5,0.2-0.7,0.3c-0.3,0.2-0.5,0.4-0.7,0.6c-0.2,0.2-0.3,0.5-0.4,0.8c-0.1,0.3-0.1,0.6,0,0.8
			c0,0.1,0.1,0.2,0.2,0.2c0.1,0.1,0.2,0.1,0.4,0c0.4-0.1,0.9-0.3,1.4-0.5c0.5-0.3,0.9-0.5,1.3-0.8c0-0.1-0.1-0.2-0.2-0.4
			c-0.1-0.2-0.2-0.3-0.4-0.5c-0.1-0.2-0.3-0.3-0.5-0.4S236.7,426.9,236.6,426.9z"/>
		<path class="st1" d="M250.2,422c-0.3,0.2-0.6,0.4-1,0.5c-0.3,0.2-0.7,0.4-1,0.7s-0.7,0.5-1,0.9c-0.3,0.3-0.6,0.7-0.8,1.2
			c-0.3,0.7-0.6,1.3-0.7,2c-0.1,0.7-0.2,1.4-0.2,2c0,0.3-0.1,0.6-0.2,0.9c-0.1,0.3-0.4,0.5-0.6,0.5c-0.3,0-0.6-0.2-0.8-0.5
			s-0.3-0.7-0.4-1c-0.3-1.2-0.5-2.4-0.7-3.7c-0.2-1.2-0.4-2.4-0.5-3.6c0-0.2,0.1-0.4,0.2-0.5s0.3-0.1,0.5-0.1c0.2,0,0.4,0.1,0.6,0.2
			c0.2,0.1,0.3,0.2,0.3,0.4c0.1,0.6,0.2,1.3,0.3,2c0.1,0.7,0.2,1.3,0.3,1.8c0.1-0.6,0.3-1.2,0.6-1.7c0.3-0.6,0.7-1.1,1.2-1.5
			c0.5-0.5,1-0.8,1.6-1.1c0.6-0.3,1.2-0.5,1.8-0.6c0.3,0,0.5,0,0.7,0c0.2,0,0.3,0.1,0.4,0.2c0.1,0.1,0.1,0.2,0,0.4
			C250.6,421.7,250.5,421.9,250.2,422z"/>
		<path class="st1" d="M257.8,424.3c-0.1,0.1-0.3,0.1-0.4,0.1c-0.2,0-0.3-0.1-0.4-0.3c-0.3-0.4-0.6-0.5-1-0.5c-0.4,0-0.7,0.1-1,0.2
			c-0.3,0.2-0.5,0.4-0.8,0.7s-0.4,0.6-0.5,0.9c-0.1,0.3-0.2,0.7-0.3,1c-0.1,0.6,0,1.1,0.3,1.5c0.3,0.4,0.8,0.6,1.4,0.6
			c0.5,0,1.1-0.1,1.7-0.3c0.6-0.2,1.2-0.5,1.8-0.8c0.2-0.1,0.5-0.2,0.7-0.2c0.2,0,0.4,0.1,0.5,0.3c0.2,0.3,0.1,0.6-0.1,0.8
			s-0.6,0.5-1,0.8c-0.4,0.2-0.9,0.5-1.4,0.6c-0.5,0.2-1,0.3-1.4,0.4c-0.5,0.1-1,0.1-1.4,0s-0.9-0.2-1.3-0.5
			c-0.7-0.5-1.1-1.1-1.2-1.9s-0.1-1.7,0.2-2.6c0.1-0.3,0.3-0.7,0.4-1s0.4-0.6,0.7-0.9c0.3-0.3,0.6-0.5,0.9-0.7s0.7-0.3,1.1-0.4
			c0.6-0.1,1.3,0,1.8,0.2c0.6,0.2,1,0.7,1.2,1.3c0,0.1,0,0.3,0,0.4C258,424.1,257.9,424.2,257.8,424.3z"/>
		<path class="st1" d="M263,419.5c0,0.4,0,0.9,0,1.4c0,0.5,0,1.1,0,1.6c0,0.6,0,1.1,0,1.7c0,0.6,0,1.2,0,1.7c0.2-0.3,0.4-0.7,0.6-1
			s0.5-0.6,0.8-0.9c0.3-0.3,0.6-0.5,1-0.6c0.3-0.2,0.7-0.2,1.1-0.2c0.4,0,0.8,0.1,1.2,0.4s0.6,0.6,0.9,1.1c0.3,0.5,0.5,1,0.6,1.5
			c0.2,0.6,0.3,1.1,0.4,1.7c0.1,0.6,0.2,1.1,0.2,1.7c0.1,0.5,0.1,1,0.1,1.4c0,0.3-0.1,0.5-0.2,0.7c-0.1,0.2-0.3,0.3-0.5,0.3
			c-0.1,0-0.3-0.1-0.5-0.3s-0.3-0.4-0.4-0.7c-0.1-0.2-0.1-0.5-0.2-0.9c-0.1-0.4-0.1-0.8-0.2-1.3c-0.1-0.5-0.2-0.9-0.3-1.4
			c-0.1-0.5-0.2-0.9-0.4-1.3s-0.3-0.7-0.5-0.9s-0.5-0.3-0.7-0.2c-0.4,0.1-0.8,0.4-1.1,0.9c-0.3,0.5-0.6,1.1-0.8,1.8
			c-0.2,0.7-0.4,1.3-0.6,2c-0.1,0.7-0.3,1.2-0.3,1.6c-0.1,0.3-0.2,0.5-0.3,0.6c-0.1,0.1-0.2,0.2-0.4,0.2s-0.3-0.1-0.4-0.2
			c-0.1-0.1-0.2-0.3-0.3-0.5c-0.1-0.2-0.2-0.4-0.2-0.6s-0.1-0.4-0.1-0.6c-0.1-0.9-0.2-1.8-0.2-2.7c-0.1-0.9-0.1-1.7-0.1-2.6
			c0-0.9,0-1.8,0-2.7s0-1.9,0.1-2.9c0-0.9,0.3-1.3,0.9-1.2c0.2,0,0.4,0.2,0.5,0.5C262.9,418.9,263,419.1,263,419.5z"/>
		<path class="st1" d="M288.2,420.6c0.2,1.4,0.4,2.8,0.5,4.2c0.1,1.4,0.2,2.8,0.3,4.2c0,0.2,0,0.3-0.1,0.4c-0.1,0.1-0.1,0.2-0.2,0.3
			c-0.1,0.1-0.2,0.2-0.2,0.2c-0.1,0.1-0.1,0.1-0.2,0.1c-0.2,0-0.4-0.1-0.6-0.3c-0.2-0.2-0.3-0.4-0.3-0.7c-0.1-0.7-0.1-1.3-0.2-2
			c-0.1-0.7-0.1-1.3-0.2-2c-1.8,0.5-3.7,0.9-5.8,1.3c0.1,0.4,0.1,0.8,0.2,1.1c0.1,0.4,0.1,0.8,0.2,1.1c0,0.1,0,0.2,0,0.3
			c0,0.2,0,0.3,0,0.5c0,0.2-0.1,0.3-0.2,0.5s-0.2,0.3-0.4,0.3c-0.1,0-0.3,0-0.4-0.1c-0.2-0.1-0.3-0.2-0.3-0.3
			c-0.2-0.5-0.4-1.2-0.6-1.9c-0.2-0.7-0.3-1.5-0.5-2.4c-0.1-0.8-0.2-1.7-0.3-2.5c-0.1-0.8-0.1-1.7,0-2.4c0-0.3,0.1-0.4,0.3-0.6
			c0.2-0.1,0.3-0.2,0.5-0.2c0.2,0,0.3,0.1,0.4,0.2c0.1,0.1,0.2,0.2,0.3,0.4c0.1,0.2,0.1,0.3,0.2,0.5c0,0.2,0.1,0.3,0.1,0.4
			c0,0.6,0,1.1,0.1,1.6c0,0.5,0.1,1.1,0.2,1.6c0.9-0.1,1.8-0.3,2.9-0.5s2-0.5,2.9-0.7c0-0.4-0.1-0.8-0.1-1.2
			c-0.1-0.4-0.1-0.8-0.2-1.2c0-0.3,0.1-0.6,0.3-0.8c0.2-0.2,0.4-0.3,0.6-0.3c0.1,0,0.3,0.1,0.4,0.2S288.2,420.3,288.2,420.6z"/>
		<path class="st1" d="M297.3,424.9c-0.7,0.4-1.4,0.7-2.2,0.9s-1.6,0.3-2.5,0.3c0,0.6,0.2,1.1,0.5,1.4c0.3,0.4,0.7,0.6,1.2,0.6
			c0.3,0,0.6,0,0.8,0c0.3-0.1,0.6-0.1,0.8-0.2c0.3-0.1,0.5-0.2,0.7-0.4s0.4-0.3,0.5-0.4s0.3-0.2,0.5-0.3c0.2,0,0.3,0,0.4,0
			c0.2,0.1,0.3,0.3,0.3,0.8c-0.3,0.6-0.7,1-1.2,1.4c-0.5,0.4-1.1,0.6-1.7,0.7c-0.6,0.1-1.1,0.1-1.7-0.1c-0.6-0.2-1.1-0.5-1.6-0.9
			c-0.4-0.4-0.7-0.9-0.9-1.4s-0.3-1.1-0.4-1.7c-0.1-0.5,0-1,0.1-1.5s0.4-0.9,0.7-1.3c0.3-0.4,0.7-0.7,1.2-0.9c0.5-0.2,1-0.4,1.6-0.4
			c0.7-0.1,1.4,0.1,2,0.4c0.6,0.3,1,0.8,1.3,1.4c0.1,0.3,0.2,0.6,0.1,0.9S297.6,424.7,297.3,424.9z M294.3,423.1
			c-0.2,0-0.4,0.1-0.6,0.2c-0.2,0.1-0.4,0.2-0.5,0.3s-0.3,0.3-0.4,0.4c-0.1,0.2-0.2,0.4-0.2,0.6c0.3,0,0.6,0,1-0.1
			c0.4-0.1,0.7-0.1,1-0.2c0.3-0.1,0.6-0.2,0.9-0.3c0.3-0.1,0.5-0.2,0.7-0.3c-0.1-0.3-0.4-0.5-0.8-0.6C295,423,294.7,423,294.3,423.1
			z"/>
		<path class="st1" d="M307.9,422c-0.3,0.2-0.6,0.4-1,0.5c-0.3,0.2-0.7,0.4-1,0.7s-0.7,0.5-1,0.9c-0.3,0.3-0.6,0.7-0.8,1.2
			c-0.3,0.7-0.6,1.3-0.7,2c-0.1,0.7-0.2,1.4-0.2,2c0,0.3-0.1,0.6-0.2,0.9c-0.1,0.3-0.4,0.5-0.6,0.5c-0.3,0-0.6-0.2-0.8-0.5
			s-0.3-0.7-0.4-1c-0.3-1.2-0.5-2.4-0.7-3.7c-0.2-1.2-0.4-2.4-0.5-3.6c0-0.2,0.1-0.4,0.2-0.5s0.3-0.1,0.5-0.1c0.2,0,0.4,0.1,0.6,0.2
			c0.2,0.1,0.3,0.2,0.3,0.4c0.1,0.6,0.2,1.3,0.3,2c0.1,0.7,0.2,1.3,0.3,1.8c0.1-0.6,0.3-1.2,0.6-1.7c0.3-0.6,0.7-1.1,1.2-1.5
			c0.5-0.5,1-0.8,1.6-1.1c0.6-0.3,1.2-0.5,1.8-0.6c0.3,0,0.5,0,0.7,0c0.2,0,0.3,0.1,0.4,0.2c0.1,0.1,0.1,0.2,0,0.4
			C308.2,421.7,308.1,421.9,307.9,422z"/>
		<path class="st1" d="M315.7,424.9c-0.7,0.4-1.4,0.7-2.2,0.9s-1.6,0.3-2.5,0.3c0,0.6,0.2,1.1,0.5,1.4c0.3,0.4,0.7,0.6,1.2,0.6
			c0.3,0,0.6,0,0.8,0c0.3-0.1,0.6-0.1,0.8-0.2c0.3-0.1,0.5-0.2,0.7-0.4s0.4-0.3,0.5-0.4s0.3-0.2,0.5-0.3c0.2,0,0.3,0,0.4,0
			c0.2,0.1,0.3,0.3,0.3,0.8c-0.3,0.6-0.7,1-1.2,1.4c-0.5,0.4-1.1,0.6-1.7,0.7c-0.6,0.1-1.1,0.1-1.7-0.1c-0.6-0.2-1.1-0.5-1.6-0.9
			c-0.4-0.4-0.7-0.9-0.9-1.4s-0.3-1.1-0.4-1.7c-0.1-0.5,0-1,0.1-1.5s0.4-0.9,0.7-1.3c0.3-0.4,0.7-0.7,1.2-0.9c0.5-0.2,1-0.4,1.6-0.4
			c0.7-0.1,1.4,0.1,2,0.4c0.6,0.3,1,0.8,1.3,1.4c0.1,0.3,0.2,0.6,0.1,0.9S316,424.7,315.7,424.9z M312.7,423.1
			c-0.2,0-0.4,0.1-0.6,0.2c-0.2,0.1-0.4,0.2-0.5,0.3s-0.3,0.3-0.4,0.4c-0.1,0.2-0.2,0.4-0.2,0.6c0.3,0,0.6,0,1-0.1
			c0.4-0.1,0.7-0.1,1-0.2c0.3-0.1,0.6-0.2,0.9-0.3c0.3-0.1,0.5-0.2,0.7-0.3c-0.1-0.3-0.4-0.5-0.8-0.6
			C313.5,423,313.1,423,312.7,423.1z"/>
	</g>
	<g transform="translate(0 -12)">
		<g transform="translate(117)">
			<g transform="matrix(-0.788, 0.616, -0.616, -0.788, 702.39, 541.841)" class="st2">
				<g>
					<path class="st3" d="M361.5,491c10.6,12.4,24,20.5,28.2,34.1c4.2,13.5-0.9,32.5-8.9,45.9c-8,13.4-18.8,21.2-29.4,24.3
						c-10.6,3.1-20.9,1.6-31-2.9c-11.5-5-21.1-13.5-27.6-24.3c-7.6-12.5-13-30-11.5-46.3c1.6-16.3,10.1-31.3,20.2-43.8
						c10.1-12.5,21.8-22.5,31.5-19.2C343,462,350.9,478.6,361.5,491z"/>
				</g>
			</g>
			<g transform="matrix(-0.999, -0.035, 0.035, -0.999, 683.981, 573.133)" class="st4">
				<g>
					<path class="st3" d="M628.4,173.7c14.8,6.1,27.6,20.7,25.1,34c-2.6,13.3-20.6,25.2-30.5,41c-10,15.8-11.9,35.5-21.9,43.6
						c-10,8.2-27.9,4.8-41.6-3.2c-13.7-8-23.1-20.8-32.6-34.7c-9.5-13.9-19.1-29-15.8-40.8c3.3-11.8,19.5-20.3,33.2-26.5
						c12.4-5.8,25.5-10.3,38.8-13.5C596.9,170.3,613.6,167.7,628.4,173.7z"/>
				</g>
			</g>
		</g>
		<g transform="translate(581 271)" class="st5">
			<g transform="translate(43.31 56.743)">
				<g transform="translate(-108.95 -108.129)">
					<g>
						<path class="st6" d="M-319,94.3l-1.9-2.3c0.4-0.3,0.7-0.6,1.1-0.9l1.9,2.3C-318.3,93.7-318.6,94-319,94.3z"/>
					</g>
					<g>
						<path class="st6" d="M-283.9,85.3l-1.3-1.5c1.3-1.1,2.6-2.2,3.8-3.2l1.3,1.5C-281.3,83.2-282.6,84.3-283.9,85.3z M-276.3,78.8
							l-1.3-1.5c1.3-1.1,2.5-2.2,3.7-3.3l1.3,1.5C-273.7,76.6-275,77.7-276.3,78.8z M-268.9,72.1l-1.4-1.5c1.2-1.2,2.4-2.3,3.6-3.5
							l1.4,1.4C-266.4,69.8-267.6,70.9-268.9,72.1z M-261.7,65.1l-1.4-1.4c1.2-1.2,2.3-2.4,3.4-3.6l1.5,1.3
							C-259.4,62.6-260.5,63.8-261.7,65.1z M-254.9,57.6l-1.5-1.3c1.1-1.3,2.2-2.6,3.1-3.8l1.6,1.2C-252.7,55-253.8,56.3-254.9,57.6
							z M-248.7,49.7l-1.6-1.2c1-1.4,1.9-2.8,2.7-4.1l1.7,1.1C-246.7,46.9-247.7,48.3-248.7,49.7z M-243.4,41.1l-1.8-0.9
							c0.8-1.5,1.5-3,2.1-4.4l1.9,0.7C-241.8,38-242.5,39.5-243.4,41.1z M-239.6,31.6l-1.9-0.5c0.4-1.6,0.7-3.2,0.8-4.8l2,0.2
							C-238.8,28.2-239.1,29.9-239.6,31.6z M-240.7,21.6c-0.2-1.6-0.5-3.1-1-4.7l1.9-0.6c0.6,1.7,0.9,3.4,1.1,5.1L-240.7,21.6z
							 M-243.7,12.5c-0.8-1.6-1.8-3-2.5-4.2l1.7-1.1c0.8,1.3,1.8,2.7,2.6,4.4L-243.7,12.5z M-248.9,3.9l-0.1-0.1
							c-0.7-1.3-1.5-2.5-2.7-3.5l1.4-1.5c1.3,1.2,2.3,2.6,3.1,4.1l0.1,0.1L-248.9,3.9z M-255.5-2.3c-1.3-0.7-2.8-1.2-4.5-1.7
							l0.6-1.9c1.8,0.5,3.4,1.2,4.8,1.9L-255.5-2.3z M-264.8-5.2c-1.5-0.3-3.1-0.5-4.9-0.8l0.3-2c1.8,0.2,3.5,0.5,5,0.8L-264.8-5.2z
							 M-274.6-6.5c-1.6-0.1-3.3-0.3-5-0.4l0.1-2c1.7,0.1,3.4,0.2,5,0.4L-274.6-6.5z M-284.6-7.2l-5-0.3l0.1-2l5,0.3L-284.6-7.2z
							 M-294.6-7.8c-1.7-0.1-3.4-0.2-5-0.4l0.2-2c1.7,0.1,3.3,0.3,5,0.4L-294.6-7.8z M-304.6-8.6c-1.8-0.2-3.4-0.4-5-0.7l0.3-2
							c1.5,0.2,3.2,0.5,4.9,0.7L-304.6-8.6z M-314.6-10.3c-1.7-0.4-3.4-0.8-4.9-1.3l0.6-1.9c1.5,0.5,3.1,0.9,4.8,1.3L-314.6-10.3z
							 M-324.3-13.4c-1.6-0.7-3.2-1.5-4.5-2.4l1.1-1.7c1.3,0.8,2.7,1.6,4.3,2.3L-324.3-13.4z M-332.9-18.9c-1.3-1.2-2.4-2.5-3.4-3.9
							l1.6-1.2c0.9,1.3,2,2.5,3.1,3.6L-332.9-18.9z M-338.9-27.3c-0.7-1.6-1.2-3.3-1.5-5l2-0.4c0.3,1.6,0.7,3.1,1.4,4.6L-338.9-27.3
							z M-338.8-37.5l-2,0c0-1.6,0.2-3.4,0.4-5.1l2,0.3C-338.6-40.6-338.8-39-338.8-37.5z M-337.4-47.1l-1.9-0.5
							c0.4-1.5,0.9-3.2,1.5-4.8l1.9,0.7C-336.5-50.2-337-48.6-337.4-47.1z M-334.1-56.4l-1.8-0.8c0.6-1.5,1.3-3,2-4.6l1.8,0.8
							C-332.8-59.3-333.5-57.9-334.1-56.4z M-329.9-65.4l-1.8-0.9c0.7-1.5,1.5-3,2.3-4.5l1.8,0.9C-328.5-68.4-329.2-66.9-329.9-65.4
							z M-325.4-74.3l-1.8-0.9c0.8-1.5,1.5-3,2.3-4.4l1.8,0.9C-323.9-77.3-324.6-75.8-325.4-74.3z M-320.9-83.3l-1.8-0.9
							c0.8-1.6,1.5-3.1,2.1-4.5l1.8,0.8C-319.4-86.4-320.1-84.9-320.9-83.3z M-316.7-92.5l-1.9-0.8c0.7-1.6,1.2-3.2,1.7-4.6l1.9,0.6
							C-315.5-95.7-316.1-94.1-316.7-92.5z M-313.5-102.1l-1.9-0.5c0.4-1.7,0.7-3.3,0.9-4.8l2,0.3
							C-312.7-105.5-313.1-103.8-313.5-102.1z M-314.2-112.2c0-1.7-0.2-3.3-0.6-4.8l2-0.4c0.4,1.6,0.6,3.4,0.6,5.2L-314.2-112.2z
							 M-316.3-121.5c-0.2-0.3-0.3-0.7-0.5-1c-0.6-1.1-1.2-2-2-2.9l1.5-1.3c0.8,1,1.6,2.1,2.2,3.3c0.2,0.4,0.4,0.8,0.6,1.1
							L-316.3-121.5z M-322.4-128.5c-1.3-0.8-2.7-1.5-4.3-2l0.7-1.9c1.8,0.6,3.3,1.4,4.7,2.2L-322.4-128.5z M-331.4-131.7
							c-1.5-0.3-3.1-0.5-4.9-0.7l0.2-2c1.8,0.2,3.5,0.4,5,0.8L-331.4-131.7z M-341.1-132.9c-1.5-0.1-3.1-0.2-5-0.2l0.1-2
							c1.9,0.1,3.5,0.1,5,0.2L-341.1-132.9z M-351.1-133.2c-1.6,0-3.3,0-5,0l0-2c1.7,0,3.4,0,5,0L-351.1-133.2z M-361.1-133.3
							c-1.6,0-3.3,0-5-0.1l0-2c1.7,0,3.4,0.1,5,0.1L-361.1-133.3z M-371.1-133.5c-1.6-0.1-3.3-0.1-5-0.2l0.1-2
							c1.7,0.1,3.3,0.1,5,0.2L-371.1-133.5z M-381.1-134c-1.6-0.1-3.3-0.2-5-0.4l0.2-2c1.7,0.1,3.3,0.3,5,0.4L-381.1-134z
							 M-391.1-134.9c-1.6-0.2-3.3-0.4-5-0.6l0.3-2c1.7,0.2,3.3,0.4,4.9,0.6L-391.1-134.9z M-401.1-136.2c-1.7-0.3-3.3-0.6-4.9-0.9
							l0.4-2c1.6,0.3,3.3,0.6,4.9,0.9L-401.1-136.2z M-411-138.1c-1.6-0.4-3.3-0.7-4.9-1.1l0.5-1.9c1.6,0.4,3.2,0.8,4.8,1.1
							L-411-138.1z M-420.7-140.5c-1.6-0.4-3.2-0.9-4.8-1.4l0.6-1.9c1.6,0.5,3.2,0.9,4.8,1.4L-420.7-140.5z M-430.3-143.4
							c-1.6-0.5-3.2-1.1-4.7-1.6l0.7-1.9c1.5,0.6,3.1,1.1,4.7,1.6L-430.3-143.4z M-439.8-146.8c-1.6-0.6-3.1-1.2-4.7-1.9l0.8-1.8
							c1.5,0.6,3.1,1.3,4.6,1.9L-439.8-146.8z M-449.1-150.7c-1.5-0.7-3.1-1.4-4.6-2.1l0.9-1.8c1.5,0.7,3,1.4,4.5,2.1L-449.1-150.7z
							 M-458.1-155.1c-1.5-0.8-3-1.6-4.4-2.3l1-1.8c1.4,0.8,2.9,1.6,4.4,2.3L-458.1-155.1z M-467-159.9c-1.5-0.8-2.9-1.7-4.3-2.6
							l1-1.7c1.4,0.9,2.8,1.7,4.3,2.5L-467-159.9z M-475.5-165.1c-1.4-0.9-2.8-1.8-4.2-2.8l1.1-1.7c1.4,0.9,2.7,1.8,4.2,2.7
							L-475.5-165.1z M-483.9-170.7c-1.4-1-2.7-2-4.1-2.9l1.2-1.6c1.3,1,2.7,1.9,4,2.9L-483.9-170.7z M-492-176.6
							c-1.3-1-2.7-2.1-3.9-3.1l1.3-1.6c1.3,1,2.6,2.1,3.9,3.1L-492-176.6z M-499.8-182.9c-0.9-0.7-1.7-1.5-2.6-2.2l1.3-1.5
							c0.8,0.7,1.7,1.5,2.6,2.2L-499.8-182.9z"/>
					</g>
					<g>
						<path class="st6" d="M-503.8-185.7c-0.4-0.3-0.7-0.6-1-1l2-2.2c0.3,0.3,0.7,0.6,1,0.9L-503.8-185.7z"/>
					</g>
				</g>
				<g transform="translate(54.849 160.256)">
					<g>
						<path class="st6" d="M-438.8-180.6h-2.2c0-4-4-7.2-9-7.2s-9,3.2-9,7.2h-2.2c-9.9-9.7-25.8-9.5-35.4,0.4s-9.5,25.8,0.4,35.4
							c9.8,9.6,25.5,9.5,35.3-0.2h22.1c9.8,9.8,25.7,9.8,35.5,0c9.8-9.8,9.8-25.7,0-35.5C-413.2-190.1-429-190.2-438.8-180.6
							L-438.8-180.6z M-478.7-140.9c-12,0-21.7-9.7-21.7-21.7c0-12,9.7-21.7,21.7-21.7c12,0,21.7,9.7,21.7,21.7
							C-457-150.7-466.7-140.9-478.7-140.9C-478.7-140.9-478.7-140.9-478.7-140.9L-478.7-140.9z M-399.5-162.7
							c0,12-9.7,21.7-21.7,21.7s-21.7-9.7-21.7-21.7c0-12,9.7-21.7,21.7-21.7C-409.2-184.4-399.5-174.7-399.5-162.7
							C-399.5-162.7-399.5-162.7-399.5-162.7L-399.5-162.7z"/>
					</g>
					<g>
						<path class="st7" d="M-500.5-162.7c0,12,9.7,21.7,21.7,21.7s21.7-9.7,21.7-21.7c0-12-9.7-21.7-21.7-21.7
							C-490.7-184.4-500.5-174.7-500.5-162.7C-500.5-162.7-500.5-162.7-500.5-162.7z M-458.8-162.7c0,11-8.9,20-20,20
							c-11,0-20-8.9-20-20c0-11,8.9-20,20-20C-467.7-182.6-458.8-173.7-458.8-162.7C-458.8-162.7-458.8-162.7-458.8-162.7z"/>
					</g>
					<g>
						<path class="st8" d="M-498.7-162.7c0,11,8.9,20,20,20c11,0,20-8.9,20-20c0-11-8.9-20-20-20
							C-489.8-182.6-498.7-173.7-498.7-162.7C-498.7-162.7-498.7-162.7-498.7-162.7z M-466.2-162.7c0,6.9-5.6,12.5-12.5,12.5
							s-12.5-5.6-12.5-12.5s5.6-12.5,12.5-12.5c0,0,0,0,0,0C-471.8-175.2-466.2-169.6-466.2-162.7z"/>
					</g>
					<g>
						<path class="st6" d="M-491.3-162.7c0,6.9,5.6,12.5,12.5,12.5s12.5-5.6,12.5-12.5s-5.6-12.5-12.5-12.5c0,0,0,0,0,0
							C-485.7-175.2-491.3-169.6-491.3-162.7z M-474.2-162.7c0,2.5-2,4.5-4.5,4.5s-4.5-2-4.5-4.5c0-2.5,2-4.5,4.5-4.5c0,0,0,0,0,0
							C-476.2-167.2-474.2-165.2-474.2-162.7C-474.2-162.7-474.2-162.7-474.2-162.7z M-476.9-172.9c0.1,0.1,0.1,0.3,0.1,0.5
							l-0.6,1.8c-0.1,0.2-0.2,0.3-0.4,0.3c-3.2,0.2-6.1,1.7-8,4.2c-0.1,0.2-0.4,0.2-0.5,0.2l-1.8-0.6c-0.3-0.1-0.4-0.4-0.3-0.6
							l0.1-0.1c2.6-3.6,6.7-5.7,11.2-5.8C-477.2-173.1-477-173-476.9-172.9L-476.9-172.9z"/>
					</g>
					<g>
						<path class="st8" d="M-488.5-167.3l-0.1,0.1c-0.1,0.3,0.1,0.6,0.3,0.6l1.8,0.6c0.2,0.1,0.4,0,0.5-0.2c2-2.5,4.9-4,8-4.2
							c0.2,0,0.4-0.1,0.4-0.3l0.6-1.8c0.1-0.3-0.1-0.6-0.3-0.6c-0.1,0-0.1,0-0.2,0C-481.8-173-485.9-170.9-488.5-167.3z"/>
					</g>
					<g>
						<path class="st7" d="M-483.3-162.7c0,2.5,2,4.5,4.5,4.5c2.5,0,4.5-2,4.5-4.5c0-2.5-2-4.5-4.5-4.5
							C-481.2-167.2-483.3-165.2-483.3-162.7C-483.3-162.7-483.3-162.7-483.3-162.7z"/>
					</g>
					<g>
						<path class="st7" d="M-443-162.7c0,12,9.7,21.7,21.7,21.7s21.7-9.7,21.7-21.7s-9.7-21.7-21.7-21.7
							C-433.2-184.4-443-174.7-443-162.7C-443-162.7-443-162.7-443-162.7z M-401.3-162.7c0,11-8.9,20-20,20c-11,0-20-8.9-20-20
							c0-11,8.9-20,20-20c0,0,0,0,0,0C-410.2-182.6-401.3-173.7-401.3-162.7C-401.3-162.7-401.3-162.7-401.3-162.7z"/>
					</g>
					<g>
						<path class="st8" d="M-441.2-162.7c0,11,8.9,20,20,20c11,0,20-8.9,20-20c0-11-8.9-20-20-20
							C-432.3-182.6-441.2-173.7-441.2-162.7C-441.2-162.7-441.2-162.7-441.2-162.7z M-408.7-162.7c0,6.9-5.6,12.5-12.5,12.5
							s-12.5-5.6-12.5-12.5s5.6-12.5,12.5-12.5c0,0,0,0,0,0C-414.3-175.2-408.7-169.6-408.7-162.7L-408.7-162.7z"/>
					</g>
					<g>
						<path class="st6" d="M-433.7-162.7c0,6.9,5.6,12.5,12.5,12.5s12.5-5.6,12.5-12.5c0-6.9-5.6-12.5-12.5-12.5
							C-428.1-175.2-433.7-169.6-433.7-162.7z M-416.7-162.7c0,2.5-2,4.6-4.5,4.6s-4.6-2-4.6-4.5s2-4.6,4.5-4.6c0,0,0,0,0,0
							C-418.7-167.2-416.7-165.2-416.7-162.7L-416.7-162.7z M-419.4-172.9c0.1,0.1,0.1,0.3,0.1,0.5l-0.6,1.8
							c-0.1,0.2-0.2,0.3-0.4,0.3c-3.2,0.2-6.1,1.7-8,4.2c-0.1,0.2-0.3,0.2-0.5,0.2l-1.8-0.6c-0.3-0.1-0.4-0.4-0.3-0.6l0.1-0.1
							c2.6-3.6,6.7-5.7,11.2-5.8C-419.7-173.1-419.5-173-419.4-172.9z"/>
					</g>
					<g>
						<path class="st8" d="M-431-167.3l-0.1,0.1c-0.1,0.3,0.1,0.6,0.3,0.6l1.8,0.6c0.2,0.1,0.4,0,0.5-0.2c2-2.5,4.9-4,8-4.2
							c0.2,0,0.4-0.1,0.4-0.3l0.6-1.8c0.1-0.3-0.1-0.6-0.3-0.7c-0.1,0-0.1,0-0.2,0C-424.3-173-428.4-170.9-431-167.3z"/>
					</g>
					<g>
						<path class="st7" d="M-425.8-162.7c0,2.5,2,4.6,4.5,4.6s4.6-2,4.6-4.5s-2-4.6-4.5-4.6c0,0,0,0,0,0
							C-423.7-167.2-425.8-165.2-425.8-162.7z"/>
					</g>
				</g>
				<g transform="translate(-120.503 -125.135) rotate(-7)">
					<g>
						<path class="st9" d="M-475-247.8l-2.2,26.5l10.9-6.9l12.4-3.5L-475-247.8z"/>
					</g>
					<g>
						<polygon class="st10" points="-467.2,-227.5 -475.9,-247.4 -474.1,-248.2 -465.4,-228.4 						"/>
					</g>
				</g>
			</g>
		</g>
	</g>
</g>
</svg>
