<svg xmlns="http://www.w3.org/2000/svg" width="24.063" height="13.636" viewBox="0 0 24.063 13.636">
  <g id="Voucher_Grey_" data-name="Voucher (Grey)" transform="translate(-260 -364)">
    <path id="Path_2038" data-name="Path 2038" d="M282.86,364H261.2a1.2,1.2,0,0,0-1.2,1.2v4.011a.4.4,0,0,0,.4.4,1.2,1.2,0,0,1,0,2.406.4.4,0,0,0-.4.4v4.01a1.2,1.2,0,0,0,1.2,1.2H282.86a1.2,1.2,0,0,0,1.2-1.2v-4.01a.4.4,0,0,0-.4-.4,1.2,1.2,0,0,1,0-2.406.4.4,0,0,0,.4-.4V365.2A1.2,1.2,0,0,0,282.86,364Zm.4,4.853a2.005,2.005,0,0,0,0,3.93v3.65a.4.4,0,0,1-.4.4H261.2a.4.4,0,0,1-.4-.4v-3.65a2.005,2.005,0,0,0,0-3.93V365.2a.4.4,0,0,1,.4-.4H282.86a.4.4,0,0,1,.4.4Zm0,0" fill="#b0b0b0"/>
    <path id="Path_2039" data-name="Path 2039" d="M379.62,421.6h-.89l-.325-1.3a.4.4,0,0,0-.469-.3l-1.925.385-1.925-.385a.4.4,0,0,0-.468.3l-.327,1.3h-.89a.4.4,0,0,0-.4.4v5.615a.4.4,0,0,0,.4.4h7.219a.4.4,0,0,0,.4-.4V422A.4.4,0,0,0,379.62,421.6Zm-4.813,5.615H372.8v-1.2h2.005Zm0-2.005H372.8v-.8h2.005Zm0-1.6H372.8v-1.2h2.005Zm-.689-2.005.183-.735,1.308.262v.473Zm2.294,2.406v3.208h-.8V422.4h.8Zm0-2.406v-.473l1.308-.262.184.735Zm2.807,5.615h-2.005v-1.2h2.005Zm0-2.005h-2.005v-.8h2.005Zm0-1.6h-2.005v-1.2h2.005Zm0,0" transform="translate(-106.385 -53.19)" fill="#b0b0b0"/>
    <path id="Union_6" data-name="Union 6" d="M0,11V10H1v1ZM0,9.5v-1H1v1ZM0,8V7H1V8ZM0,6.5v-1H1v1ZM0,5V4H1V5ZM0,3.5v-1H1v1ZM0,2V1H1V2Z" transform="translate(276.031 364.818)" fill="#b0b0b0"/>
  </g>
</svg>
