<svg width="24" height="21" viewBox="0 0 24 21" fill="none" xmlns="http://www.w3.org/2000/svg">
<path d="M0.8 3.66667C0.8 5.24988 2.08345 6.53333 3.66667 6.53333C5.24988 6.53333 6.53333 5.24988 6.53333 3.66667C6.53333 2.08345 5.24988 0.8 3.66667 0.8C2.08345 0.8 0.8 2.08345 0.8 3.66667ZM5.46667 3.66667C5.46667 4.66078 4.66078 5.46667 3.66667 5.46667C2.67255 5.46667 1.86667 4.66078 1.86667 3.66667C1.86667 2.67255 2.67255 1.86667 3.66667 1.86667C4.66078 1.86667 5.46667 2.67255 5.46667 3.66667ZM7.86667 19.3333V12.5333H13.6667C14.8817 12.5333 15.8667 11.5484 15.8667 10.3333C15.8667 9.11831 14.8817 8.13333 13.6667 8.13333H3.33333C1.93421 8.13333 0.8 9.26754 0.8 10.6667V19.3333C0.8 19.6279 1.03878 19.8667 1.33333 19.8667C1.62789 19.8667 1.86667 19.6279 1.86667 19.3333V10.6667C1.86667 9.85665 2.52332 9.2 3.33333 9.2H13.6667C14.2926 9.2 14.8 9.70741 14.8 10.3333C14.8 10.9593 14.2926 11.4667 13.6667 11.4667H7.33333C7.03878 11.4667 6.8 11.7054 6.8 12V19.3333C6.8 19.6279 7.03878 19.8667 7.33333 19.8667C7.62789 19.8667 7.86667 19.6279 7.86667 19.3333ZM8.13333 2C8.13333 2.29455 8.37212 2.53333 8.66667 2.53333H21.3333C21.7752 2.53333 22.1333 2.89151 22.1333 3.33333V13.3333C22.1333 13.7752 21.7752 14.1333 21.3333 14.1333H14.6667C14.3721 14.1333 14.1333 14.3721 14.1333 14.6667C14.1333 14.9612 14.3721 15.2 14.6667 15.2H21.3333C22.3643 15.2 23.2 14.3643 23.2 13.3333V3.33333C23.2 2.3024 22.3643 1.46667 21.3333 1.46667H8.66667C8.37212 1.46667 8.13333 1.70545 8.13333 2Z" fill="white" stroke="white" stroke-width="0.4"/>
</svg>
