<svg width="22" height="22" viewBox="0 0 22 22" fill="none" xmlns="http://www.w3.org/2000/svg">
<path d="M13.0625 4.125H4.8125C4.433 4.125 4.125 4.433 4.125 4.8125C4.125 5.192 4.433 5.5 4.8125 5.5H13.0625C13.442 5.5 13.75 5.192 13.75 4.8125C13.75 4.433 13.442 4.125 13.0625 4.125Z" fill="white"/>
<path d="M10.3125 6.875H4.8125C4.433 6.875 4.125 7.183 4.125 7.5625C4.125 7.942 4.433 8.25 4.8125 8.25H10.3125C10.692 8.25 11 7.942 11 7.5625C11 7.183 10.692 6.875 10.3125 6.875Z" fill="white"/>
<path d="M15.125 0H2.75C1.23337 0 0 1.23337 0 2.75V16.5C0 16.7668 0.154 17.0101 0.396 17.1229C0.488125 17.1655 0.5885 17.1875 0.6875 17.1875C0.845625 17.1875 1.00238 17.1325 1.1275 17.028L5.06138 13.75H15.125C16.6416 13.75 17.875 12.5166 17.875 11V2.75C17.875 1.23337 16.6416 0 15.125 0ZM16.5 11C16.5 11.7576 15.884 12.375 15.125 12.375H4.8125C4.65163 12.375 4.49625 12.4314 4.3725 12.5345L1.375 15.0329V2.75C1.375 1.99238 1.991 1.375 2.75 1.375H15.125C15.884 1.375 16.5 1.99238 16.5 2.75V11Z" fill="white"/>
<path d="M19.25 5.5C18.8705 5.5 18.5625 5.808 18.5625 6.1875C18.5625 6.567 18.8705 6.875 19.25 6.875C20.009 6.875 20.625 7.49238 20.625 8.25V19.8811L18.304 18.0249C18.183 17.9286 18.0304 17.875 17.875 17.875H8.25C7.491 17.875 6.875 17.2576 6.875 16.5V15.8125C6.875 15.433 6.567 15.125 6.1875 15.125C5.808 15.125 5.5 15.433 5.5 15.8125V16.5C5.5 18.0166 6.73337 19.25 8.25 19.25H17.633L20.8821 21.8501C21.0073 21.9491 21.1599 22 21.3125 22C21.4129 22 21.5146 21.978 21.6109 21.9326C21.8487 21.8171 22 21.5765 22 21.3125V8.25C22 6.73337 20.7666 5.5 19.25 5.5Z" fill="white"/>
</svg>
