<svg width="22" height="23" viewBox="0 0 22 23" fill="none" xmlns="http://www.w3.org/2000/svg">
<path d="M1.258 19.2629V4.73848C1.64941 4.91428 2.07468 5.00188 2.5037 4.99509H17.4521V14.9029H18.6978V3.49154L18.5153 3.30904C18.3326 3.08035 18.2332 2.79637 18.2332 2.5037C18.2332 2.21103 18.3326 1.92705 18.5153 1.69836L18.6978 1.51586V0.0123037H2.5037C2.1679 -0.0228186 1.82849 0.0174837 1.51025 0.130269C1.19201 0.243055 0.902966 0.425477 0.664221 0.664221C0.425477 0.902965 0.243055 1.19201 0.130269 1.51025C0.0174838 1.82849 -0.0228186 2.1679 0.0123037 2.5037V19.2629C-0.0228186 19.5987 0.0174838 19.9381 0.130269 20.2563C0.243055 20.5746 0.425477 20.8636 0.664221 21.1024C0.902966 21.3411 1.19201 21.5235 1.51025 21.6363C1.82849 21.7491 2.1679 21.7894 2.5037 21.7543H13.0921V20.5086H2.5037C1.60742 20.5086 1.258 20.1592 1.258 19.2629ZM2.5037 1.258H17.3007C17.0932 1.64041 16.9845 2.06861 16.9845 2.5037C16.9845 2.93879 17.0932 3.36699 17.3007 3.7494H2.5037C1.60742 3.7494 1.258 3.39998 1.258 2.5037C1.258 1.60742 1.60742 1.258 2.5037 1.258ZM14.9607 9.35504H3.7494V8.10934H14.9607V9.35504ZM3.7494 10.6007H11.8464V11.8464H3.7494V10.6007ZM14.6299 16.1486L14.2133 14.2801H11.8464V15.5258H13.2167L14.2456 20.156C14.3057 20.4329 14.4589 20.6809 14.6797 20.8584C14.9006 21.0359 15.1756 21.1323 15.459 21.1314H19.4327C19.7206 21.1314 19.9996 21.0317 20.2223 20.8492C20.445 20.6667 20.5976 20.4128 20.6541 20.1305L21.1767 17.5145L21.1892 16.1486H14.6299ZM19.4327 19.8857H15.459L14.9059 17.3943H19.931L19.4327 19.8857ZM15.4029 21.9349C15.5187 22.053 15.5836 22.2117 15.5836 22.3771C15.5836 22.5425 15.5187 22.7013 15.4029 22.8193C15.2841 22.9341 15.1258 22.9987 14.9607 23C14.8793 22.999 14.7989 22.9821 14.724 22.9501C14.6485 22.9185 14.579 22.8743 14.5185 22.8193C14.4012 22.7021 14.3353 22.543 14.3353 22.3771C14.3353 22.2113 14.4012 22.0522 14.5185 21.9349C14.6357 21.8176 14.7948 21.7517 14.9607 21.7517C15.1265 21.7517 15.2856 21.8176 15.4029 21.9349ZM19.7628 21.9349C19.8786 22.053 19.9435 22.2117 19.9435 22.3771C19.9435 22.5425 19.8786 22.7013 19.7628 22.8193C19.6441 22.9341 19.4857 22.9987 19.3206 23C19.2386 23.0008 19.1572 22.9853 19.0813 22.9543C19.0053 22.9232 18.9363 22.8774 18.8783 22.8194C18.8203 22.7614 18.7745 22.6924 18.7435 22.6165C18.7125 22.5405 18.6969 22.4591 18.6978 22.3771C18.6988 22.2957 18.7157 22.2153 18.7476 22.1404C18.7762 22.0635 18.8208 21.9934 18.8784 21.9349C18.9988 21.8238 19.1567 21.762 19.3206 21.762C19.4845 21.762 19.6424 21.8238 19.7628 21.9349Z" fill="white"/>
</svg>
