<svg width="21" height="21" viewBox="0 0 21 21" fill="none" xmlns="http://www.w3.org/2000/svg">
<path d="M10.5 0C4.7103 0 0 4.7103 0 10.5C0 16.2897 4.7103 21 10.5 21C11.9598 21 13.3714 20.7011 14.7014 20.1187C15.3675 20.6689 16.2207 21 17.15 21C19.2727 21 21 19.2727 21 17.15C21 16.2207 20.6689 15.3675 20.1187 14.7014C20.7011 13.3717 21 11.9602 21 10.5C21 4.7103 16.2897 0 10.5 0ZM19.4348 6.482L12.342 9.3716L18.136 4.36765C18.6539 5.01095 19.0911 5.72075 19.4348 6.482ZM17.6785 3.83775L10.85 9.73525V0.70875C13.5429 0.80395 15.9617 1.9894 17.6785 3.83775ZM10.15 0.70875V10.15H0.70875C0.89005 5.02425 5.02425 0.89005 10.15 0.70875ZM0.70875 10.85H10.5C10.543 10.85 10.5857 10.8409 10.6263 10.8255C10.6263 10.8255 10.6302 10.8251 10.6323 10.8244L19.7025 7.12915C20.0889 8.18055 20.3 9.31595 20.3 10.5C20.3 11.7716 20.0602 13.0046 19.5863 14.1719C19.341 13.9706 19.0683 13.8022 18.7778 13.6661C18.7642 13.6598 18.7505 13.6525 18.7369 13.6465C18.6557 13.6094 18.5728 13.5765 18.4884 13.545C18.4622 13.5352 18.4362 13.5254 18.41 13.5163C18.3337 13.4897 18.2563 13.4655 18.1779 13.4438C18.1388 13.433 18.0995 13.4232 18.06 13.4134C17.991 13.3966 17.9218 13.3805 17.8514 13.3672C17.7926 13.356 17.7331 13.3483 17.6736 13.3399C17.6186 13.3325 17.5644 13.3234 17.5091 13.3182C17.3901 13.307 17.2704 13.3 17.15 13.3C15.0272 13.3 13.3 15.0272 13.3 17.15C13.3 17.2704 13.307 17.3901 13.3182 17.5091C13.3234 17.5648 13.3325 17.619 13.3399 17.6736C13.3483 17.7331 13.356 17.7926 13.3672 17.8514C13.3801 17.9218 13.3966 17.991 13.4134 18.06C13.4232 18.0995 13.433 18.1388 13.4438 18.1779C13.4655 18.2567 13.4897 18.3341 13.5166 18.4104C13.5257 18.4363 13.5356 18.4621 13.545 18.4877C13.5765 18.5724 13.6097 18.6557 13.6469 18.7372C13.6528 18.7502 13.6594 18.7631 13.6654 18.7761C13.8019 19.0673 13.9703 19.3403 14.1719 19.5863C13.0043 20.0602 11.7716 20.3 10.5 20.3C5.2136 20.3 0.89425 16.0919 0.70875 10.85ZM17.15 20.3C16.3163 20.3 15.5592 19.972 14.9954 19.4415C14.9275 19.3774 14.8635 19.3109 14.8019 19.2423C14.7899 19.229 14.7777 19.2164 14.7661 19.2028C14.7133 19.1418 14.665 19.0785 14.6174 19.0148C14.5992 18.9903 14.58 18.9665 14.5628 18.9417C14.5275 18.8912 14.4963 18.8387 14.4641 18.7866C14.4396 18.7463 14.4134 18.7068 14.3903 18.6655C14.3707 18.6301 14.3542 18.5931 14.336 18.557C14.3066 18.4986 14.2761 18.4404 14.2506 18.3799C14.2429 18.3617 14.2369 18.3424 14.2296 18.3242C14.1981 18.2458 14.1676 18.1671 14.1421 18.0859L14.1417 18.0841C14.0805 17.8874 14.0381 17.683 14.0168 17.472C14.0056 17.3659 14 17.2585 14 17.15C14 15.4133 15.4133 14 17.15 14C17.2585 14 17.3659 14.0056 17.472 14.0164C17.683 14.0378 17.8878 14.0805 18.0845 14.1417L18.0859 14.1421C18.1674 14.1676 18.2469 14.1981 18.3256 14.2299C18.3435 14.2373 18.362 14.2429 18.3795 14.2502C18.4408 14.2765 18.4996 14.307 18.5588 14.3367C18.5941 14.3546 18.6305 14.3706 18.6651 14.3899C18.7075 14.4133 18.7477 14.4399 18.7887 14.4651C18.8398 14.4966 18.8913 14.5274 18.941 14.5621C18.9669 14.5803 18.9917 14.6003 19.0169 14.6192C19.0799 14.666 19.1422 14.7136 19.202 14.7654C19.2164 14.7777 19.2301 14.791 19.2441 14.804C19.3113 14.8645 19.377 14.9275 19.4401 14.9943C19.9717 15.5582 20.3 16.3156 20.3 17.15C20.3 18.8867 18.8867 20.3 17.15 20.3Z" fill="white"/>
<path d="M17.1818 16.3636C17.0065 16.3636 16.8636 16.4861 16.8636 16.6364H16.2273C16.2273 16.2813 16.4942 15.9813 16.8636 15.8684V15.2727H17.5V15.8684C17.8694 15.9813 18.1364 16.2813 18.1364 16.6364C18.1364 17.0875 17.7081 17.4545 17.1818 17.4545C17.0065 17.4545 16.8636 17.577 16.8636 17.7273C16.8636 17.8775 17.0065 18 17.1818 18C17.3571 18 17.5 17.8775 17.5 17.7273H18.1364C18.1364 18.0824 17.8694 18.3824 17.5 18.4953V19.0909H16.8636V18.4953C16.4942 18.3824 16.2273 18.0824 16.2273 17.7273C16.2273 17.2762 16.6556 16.9091 17.1818 16.9091C17.3571 16.9091 17.5 16.7866 17.5 16.6364C17.5 16.4861 17.3571 16.3636 17.1818 16.3636Z" fill="white"/>
</svg>
