<svg width="23" height="22" viewBox="0 0 23 22" fill="none" xmlns="http://www.w3.org/2000/svg">
<mask id="path-1-outside-1" maskUnits="userSpaceOnUse" x="0" y="0" width="23" height="22" fill="black">
<rect fill="white" width="23" height="22"/>
<path d="M1.00147 4.59329C1.00098 4.60309 1.00049 4.61288 1.00049 4.6232L1 20.2059C1 20.6437 1.32867 21 1.73256 21H21.2674C21.6713 21 22 20.6437 22 20.2059V4.62903C22 4.19121 21.6713 3.83492 21.2674 3.83492H17.0987L16.6882 1.63605C16.6108 1.22206 16.2387 0.935122 15.8377 1.01268L1.65906 3.83678L1.59581 3.84922C1.57042 3.85451 1.54624 3.86219 1.49326 3.88019L1.44906 3.89686C1.42952 3.90613 1.41145 3.91645 1.378 3.93657C1.35773 3.94742 1.3382 3.95933 1.33087 3.96542C1.31451 3.9768 1.29888 3.98977 1.26567 4.01968C1.24785 4.03477 1.23051 4.05012 1.21806 4.06415C1.20438 4.07871 1.19217 4.09406 1.16458 4.13086C1.15335 4.14489 1.14236 4.15865 1.13235 4.17374V4.17427C1.13064 4.17692 1.12869 4.17956 1.12698 4.18248C1.11501 4.20153 1.10476 4.22165 1.09499 4.24256L1.08522 4.26162C1.07619 4.27856 1.06764 4.29577 1.06031 4.3143C1.05958 4.31641 1.05885 4.318 1.05812 4.31986L1.03907 4.35956L1.04395 4.36274C1.04151 4.37094 1.03858 4.38074 1.03541 4.39212L1.00147 4.59329ZM15.9261 1.53308C16.0587 1.50529 16.1837 1.60296 16.2094 1.7414L16.6006 3.83466H4.36904L15.9261 1.53308ZM1.62658 4.39371L1.68299 4.37094L21.2674 4.36432C21.402 4.36432 21.5116 4.48265 21.5116 4.62903V20.2062C21.5116 20.352 21.402 20.4709 21.2674 20.4709H1.73256C1.59801 20.4709 1.48837 20.352 1.48837 20.2062L1.49179 4.60176L1.49472 4.57423L1.50278 4.55862"/>
</mask>
<path d="M1.00147 4.59329C1.00098 4.60309 1.00049 4.61288 1.00049 4.6232L1 20.2059C1 20.6437 1.32867 21 1.73256 21H21.2674C21.6713 21 22 20.6437 22 20.2059V4.62903C22 4.19121 21.6713 3.83492 21.2674 3.83492H17.0987L16.6882 1.63605C16.6108 1.22206 16.2387 0.935122 15.8377 1.01268L1.65906 3.83678L1.59581 3.84922C1.57042 3.85451 1.54624 3.86219 1.49326 3.88019L1.44906 3.89686C1.42952 3.90613 1.41145 3.91645 1.378 3.93657C1.35773 3.94742 1.3382 3.95933 1.33087 3.96542C1.31451 3.9768 1.29888 3.98977 1.26567 4.01968C1.24785 4.03477 1.23051 4.05012 1.21806 4.06415C1.20438 4.07871 1.19217 4.09406 1.16458 4.13086C1.15335 4.14489 1.14236 4.15865 1.13235 4.17374V4.17427C1.13064 4.17692 1.12869 4.17956 1.12698 4.18248C1.11501 4.20153 1.10476 4.22165 1.09499 4.24256L1.08522 4.26162C1.07619 4.27856 1.06764 4.29577 1.06031 4.3143C1.05958 4.31641 1.05885 4.318 1.05812 4.31986L1.03907 4.35956L1.04395 4.36274C1.04151 4.37094 1.03858 4.38074 1.03541 4.39212L1.00147 4.59329ZM15.9261 1.53308C16.0587 1.50529 16.1837 1.60296 16.2094 1.7414L16.6006 3.83466H4.36904L15.9261 1.53308ZM1.62658 4.39371L1.68299 4.37094L21.2674 4.36432C21.402 4.36432 21.5116 4.48265 21.5116 4.62903V20.2062C21.5116 20.352 21.402 20.4709 21.2674 20.4709H1.73256C1.59801 20.4709 1.48837 20.352 1.48837 20.2062L1.49179 4.60176L1.49472 4.57423L1.50278 4.55862" fill="white"/>
<path d="M1.00147 4.59329L0.60704 4.52674L0.603131 4.54991L0.601961 4.57337L1.00147 4.59329ZM1.00049 4.6232L1.40049 4.62322V4.6232H1.00049ZM1 20.2059L0.6 20.2059V20.2059H1ZM17.0987 3.83492L16.7055 3.90832L16.7665 4.23492H17.0987V3.83492ZM16.6882 1.63605L17.0814 1.56265L17.0814 1.56253L16.6882 1.63605ZM15.8377 1.01268L15.7618 0.619953L15.7596 0.620385L15.8377 1.01268ZM1.65906 3.83678L1.73627 4.22925L1.73719 4.22907L1.65906 3.83678ZM1.59581 3.84922L1.5186 3.45671L1.51418 3.45763L1.59581 3.84922ZM1.49326 3.88019L1.36453 3.50123L1.35205 3.50594L1.49326 3.88019ZM1.44906 3.89686L1.30785 3.52262L1.29249 3.52841L1.27765 3.53545L1.44906 3.89686ZM1.378 3.93657L1.56682 4.28919L1.5756 4.28449L1.58414 4.27936L1.378 3.93657ZM1.33087 3.96542L1.55931 4.29377L1.57337 4.28399L1.58654 4.27305L1.33087 3.96542ZM1.26567 4.01968L1.52422 4.32514L1.53337 4.3169L1.26567 4.01968ZM1.21806 4.06415L1.50973 4.33811L1.5172 4.3297L1.21806 4.06415ZM1.16458 4.13086L1.47699 4.38099L1.48459 4.37085L1.16458 4.13086ZM1.13235 4.17374L0.79905 3.95258L0.732349 4.0531V4.17374H1.13235ZM1.13235 4.17427L1.46838 4.39126L1.53235 4.29219V4.17427H1.13235ZM1.12698 4.18248L1.4659 4.39525L1.47193 4.38498L1.12698 4.18248ZM1.09499 4.24256L1.45096 4.425L1.4543 4.41848L1.4574 4.41184L1.09499 4.24256ZM1.08522 4.26162L1.43821 4.44988L1.4412 4.44406L1.08522 4.26162ZM1.06031 4.3143L0.688331 4.16723L0.685135 4.17531L0.682294 4.18353L1.06031 4.3143ZM1.05812 4.31986L1.41877 4.49286L1.42489 4.48009L1.4301 4.46692L1.05812 4.31986ZM1.03907 4.35956L0.678418 4.18656L0.526472 4.50331L0.820965 4.69487L1.03907 4.35956ZM1.04395 4.36274L1.42734 4.47682L1.51258 4.19038L1.26206 4.02743L1.04395 4.36274ZM1.03541 4.39212L0.650111 4.28466L0.644473 4.30488L0.640981 4.32557L1.03541 4.39212ZM15.9261 1.53308L16.0042 1.9254L16.0082 1.92457L15.9261 1.53308ZM16.2094 1.7414L15.8161 1.81424L15.8162 1.81488L16.2094 1.7414ZM16.6006 3.83466V4.23466H17.0822L16.9938 3.76118L16.6006 3.83466ZM4.36904 3.83466L4.29091 3.44236L4.36904 4.23466V3.83466ZM1.68299 4.37094L1.68285 3.97094L1.60525 3.97097L1.53329 4.00001L1.68299 4.37094ZM21.2674 4.36432V3.96432H21.2673L21.2674 4.36432ZM1.48837 20.2062L1.08837 20.2061V20.2062H1.48837ZM1.49179 4.60176L1.09404 4.55942L1.0918 4.58049L1.09179 4.60167L1.49179 4.60176ZM1.49472 4.57423L1.13925 4.39082L1.1049 4.4574L1.09697 4.5319L1.49472 4.57423ZM0.601961 4.57337C0.601537 4.58189 0.600488 4.60138 0.600488 4.6232H1.40049C1.40049 4.62431 1.40046 4.62441 1.40052 4.6228C1.40059 4.62085 1.4007 4.61852 1.40097 4.61321L0.601961 4.57337ZM0.600488 4.62319L0.6 20.2059L1.4 20.2059L1.40049 4.62322L0.600488 4.62319ZM0.6 20.2059C0.6 20.8336 1.07799 21.4 1.73256 21.4V20.6C1.57936 20.6 1.4 20.4538 1.4 20.2059H0.6ZM1.73256 21.4H21.2674V20.6H1.73256V21.4ZM21.2674 21.4C21.922 21.4 22.4 20.8336 22.4 20.2059H21.6C21.6 20.4538 21.4206 20.6 21.2674 20.6V21.4ZM22.4 20.2059V4.62903H21.6V20.2059H22.4ZM22.4 4.62903C22.4 4.00129 21.922 3.43492 21.2674 3.43492V4.23492C21.4206 4.23492 21.6 4.38113 21.6 4.62903H22.4ZM21.2674 3.43492H17.0987V4.23492H21.2674V3.43492ZM17.4919 3.76152L17.0814 1.56265L16.295 1.70945L16.7055 3.90832L17.4919 3.76152ZM17.0814 1.56253C16.9693 0.962744 16.4115 0.494278 15.7618 0.619959L15.9137 1.4054C16.0659 1.37597 16.2524 1.48137 16.295 1.70957L17.0814 1.56253ZM15.7596 0.620385L1.58092 3.44448L1.73719 4.22907L15.9159 1.40497L15.7596 0.620385ZM1.58185 3.4443L1.51861 3.45674L1.67302 4.24169L1.73627 4.22925L1.58185 3.4443ZM1.51418 3.45763C1.46117 3.46869 1.41446 3.4845 1.3646 3.50144L1.62191 4.25893C1.6485 4.2499 1.6624 4.24533 1.67156 4.24254C1.67875 4.24035 1.67919 4.24044 1.67744 4.2408L1.51418 3.45763ZM1.35205 3.50594L1.30785 3.52262L1.59026 4.27111L1.63446 4.25443L1.35205 3.50594ZM1.27765 3.53545C1.23874 3.55391 1.20598 3.57325 1.17186 3.59378L1.58414 4.27936C1.61692 4.25965 1.62031 4.25835 1.62046 4.25828L1.27765 3.53545ZM1.18918 3.58394C1.17027 3.59407 1.11736 3.62276 1.07521 3.65779L1.58654 4.27305C1.57907 4.27926 1.57307 4.28372 1.56984 4.28608C1.5663 4.28866 1.56359 4.29051 1.56206 4.29155C1.5591 4.29354 1.55767 4.29439 1.55826 4.29404C1.55943 4.29332 1.5627 4.2914 1.56682 4.28919L1.18918 3.58394ZM1.10243 3.63707C1.06402 3.66379 1.03262 3.69126 0.997975 3.72247L1.53337 4.3169C1.54883 4.30297 1.55642 4.29643 1.56039 4.29312C1.56299 4.29096 1.56185 4.29201 1.55931 4.29377L1.10243 3.63707ZM1.00725 3.71437C0.989345 3.72952 0.952246 3.76106 0.918916 3.79861L1.5172 4.3297C1.51392 4.3334 1.51162 4.33572 1.51081 4.33653C1.50995 4.33739 1.50987 4.33743 1.51084 4.33654C1.51304 4.33451 1.51704 4.33097 1.5241 4.325L1.00725 3.71437ZM0.926501 3.7903C0.895907 3.82288 0.871782 3.85459 0.844573 3.89087L1.48459 4.37085C1.49803 4.35293 1.5048 4.34416 1.50881 4.33914C1.51164 4.3356 1.51121 4.33631 1.50962 4.338L0.926501 3.7903ZM0.852334 3.88086C0.842446 3.8932 0.82043 3.92036 0.79905 3.95258L1.46565 4.3949C1.46442 4.39675 1.46419 4.39693 1.46601 4.39454C1.46816 4.39172 1.4709 4.38827 1.47683 4.38086L0.852334 3.88086ZM0.732349 4.17374V4.17427H1.53235V4.17374H0.732349ZM0.79632 3.95728C0.798128 3.95448 0.799487 3.95247 0.799659 3.95222C0.799746 3.95209 0.799809 3.952 0.799489 3.95247C0.799272 3.95279 0.798731 3.95358 0.798121 3.95449C0.795944 3.95771 0.789383 3.96744 0.782024 3.97997L1.47193 4.38498C1.46628 4.3946 1.46155 4.40155 1.4612 4.40206C1.46105 4.40228 1.46097 4.40241 1.46121 4.40206C1.46134 4.40185 1.46186 4.40109 1.4624 4.4003C1.46347 4.39871 1.46571 4.39538 1.46838 4.39126L0.79632 3.95728ZM0.788206 3.96979C0.763943 4.00844 0.745794 4.04498 0.732574 4.07328L1.4574 4.41184C1.46372 4.39832 1.46608 4.39463 1.46575 4.39516L0.788206 3.96979ZM0.739014 4.06013L0.729247 4.07919L1.4412 4.44406L1.45096 4.425L0.739014 4.06013ZM0.732278 4.07339C0.719844 4.0967 0.703519 4.12881 0.688331 4.16723L1.4323 4.46136C1.43176 4.46272 1.43253 4.46042 1.43816 4.44985L0.732278 4.07339ZM0.682294 4.18353C0.685371 4.17463 0.68811 4.16788 0.689117 4.16543C0.689338 4.16489 0.689492 4.16452 0.689468 4.16458C0.689441 4.16464 0.689453 4.16461 0.689362 4.16483C0.6893 4.16498 0.689192 4.16524 0.689066 4.16554C0.688594 4.16669 0.687472 4.1694 0.686133 4.17279L1.4301 4.46692C1.42913 4.46938 1.42837 4.4712 1.42827 4.47146C1.42823 4.47154 1.42821 4.47158 1.42824 4.47151C1.42824 4.47151 1.42835 4.47126 1.42841 4.47111C1.42857 4.47072 1.42891 4.46991 1.42931 4.46892C1.43105 4.46468 1.43452 4.45608 1.43833 4.44507L0.682294 4.18353ZM0.697465 4.14685L0.678418 4.18656L1.39972 4.53256L1.41877 4.49286L0.697465 4.14685ZM0.820965 4.69487L0.825848 4.69804L1.26206 4.02743L1.25717 4.02425L0.820965 4.69487ZM0.660568 4.24865C0.658304 4.25626 0.654371 4.26939 0.650111 4.28466L1.4207 4.49958C1.42279 4.49209 1.42472 4.48563 1.42734 4.47682L0.660568 4.24865ZM0.640981 4.32557L0.60704 4.52674L1.39589 4.65984L1.42983 4.45867L0.640981 4.32557ZM16.0082 1.92457C15.9517 1.93641 15.9003 1.91924 15.868 1.89499C15.8375 1.87217 15.8213 1.8424 15.8161 1.81424L16.6027 1.66856C16.5436 1.34979 16.2348 1.05969 15.8441 1.14159L16.0082 1.92457ZM15.8162 1.81488L16.2074 3.90814L16.9938 3.76118L16.6026 1.66792L15.8162 1.81488ZM16.6006 3.43466H4.36904V4.23466H16.6006V3.43466ZM4.44716 4.22695L16.0042 1.92538L15.848 1.14078L4.29091 3.44236L4.44716 4.22695ZM1.77628 4.76464L1.83268 4.74188L1.53329 4.00001L1.47689 4.02277L1.77628 4.76464ZM1.68312 4.77094L21.2676 4.76432L21.2673 3.96432L1.68285 3.97094L1.68312 4.77094ZM21.2674 4.76432C21.1518 4.76432 21.1116 4.67311 21.1116 4.62903H21.9116C21.9116 4.29219 21.6522 3.96432 21.2674 3.96432V4.76432ZM21.1116 4.62903V20.2062H21.9116V4.62903H21.1116ZM21.1116 20.2062C21.1116 20.1784 21.1222 20.1478 21.146 20.122C21.1702 20.0957 21.2128 20.0709 21.2674 20.0709V20.8709C21.6527 20.8709 21.9116 20.5419 21.9116 20.2062H21.1116ZM21.2674 20.0709H1.73256V20.8709H21.2674V20.0709ZM1.73256 20.0709C1.78723 20.0709 1.82977 20.0957 1.85402 20.122C1.87782 20.1478 1.88837 20.1784 1.88837 20.2062H1.08837C1.08837 20.5419 1.34733 20.8709 1.73256 20.8709V20.0709ZM1.88837 20.2062L1.89179 4.60185L1.09179 4.60167L1.08837 20.2061L1.88837 20.2062ZM1.88954 4.6441L1.89247 4.61657L1.09697 4.5319L1.09404 4.55942L1.88954 4.6441ZM1.85019 4.75765L1.85825 4.74203L1.14731 4.3752L1.13925 4.39082L1.85019 4.75765Z" fill="white" mask="url(#path-1-outside-1)"/>
<path d="M14.9187 14.1763H19.314V10.4704H14.9187V14.1763ZM15.5391 11.1271H18.6937V13.5196H15.5391V11.1271Z" fill="white"/>
<path d="M14.9187 14.1763H19.314V10.4704H14.9187V14.1763ZM15.5391 11.1271H18.6937V13.5196H15.5391V11.1271Z" stroke="black"/>
<path d="M17.5234 11.5293H16.628C16.2241 11.5293 15.8954 11.8855 15.8954 12.3234C15.8954 12.7612 16.2241 13.1175 16.628 13.1175H17.5234C17.9273 13.1175 18.256 12.7612 18.256 12.3234C18.256 11.8855 17.9273 11.5293 17.5234 11.5293ZM17.5234 12.5881H16.628C16.4935 12.5881 16.3838 12.4695 16.3838 12.3234C16.3838 12.1772 16.4935 12.0587 16.628 12.0587H17.5234C17.658 12.0587 17.7676 12.1772 17.7676 12.3234C17.7676 12.4695 17.658 12.5881 17.5234 12.5881Z" fill="white"/>
<path d="M17.5234 11.5293H16.628C16.2241 11.5293 15.8954 11.8855 15.8954 12.3234C15.8954 12.7612 16.2241 13.1175 16.628 13.1175H17.5234C17.9273 13.1175 18.256 12.7612 18.256 12.3234C18.256 11.8855 17.9273 11.5293 17.5234 11.5293ZM17.5234 12.5881H16.628C16.4935 12.5881 16.3838 12.4695 16.3838 12.3234C16.3838 12.1772 16.4935 12.0587 16.628 12.0587H17.5234C17.658 12.0587 17.7676 12.1772 17.7676 12.3234C17.7676 12.4695 17.658 12.5881 17.5234 12.5881Z" stroke="white"/>
</svg>
