<svg width="22" height="20" viewBox="0 0 22 20" fill="none" xmlns="http://www.w3.org/2000/svg">
<path d="M16.649 17.95L17.0423 15.5907L17.0429 15.5908L17.043 15.5828L17.05 14.5003L17.0503 14.45H17H5H4.95V14.5V15.5H4.94933L4.95066 15.5081L5.35211 17.95H2.05V5.05H19.95V17.95H16.649ZM10.9952 7.54977L10.9952 7.55069L11.0048 7.54977C11.1319 7.53763 11.2602 7.55375 11.3805 7.59697C11.5007 7.64019 11.6099 7.70945 11.7002 7.79979C11.7906 7.89013 11.8598 7.99932 11.903 8.11954C11.9463 8.23977 11.9624 8.36807 11.9502 8.49525L11.9493 8.49516L11.9502 8.50475C11.9624 8.63193 11.9463 8.76023 11.903 8.88046C11.8598 9.00068 11.7906 9.10987 11.7002 9.20021C11.6099 9.29055 11.5007 9.35981 11.3805 9.40303C11.2602 9.44625 11.1319 9.46237 11.0048 9.45023L11.0048 9.44931L10.9952 9.45023C10.8681 9.46237 10.7398 9.44625 10.6195 9.40303C10.4993 9.35981 10.3901 9.29055 10.2998 9.20021C10.2094 9.10987 10.1402 9.00068 10.097 8.88046C10.0537 8.76023 10.0376 8.63193 10.0498 8.50475L10.0507 8.50484L10.0498 8.49525C10.0376 8.36807 10.0537 8.23977 10.097 8.11954C10.1402 7.99932 10.2094 7.89013 10.2998 7.79979C10.3901 7.70945 10.4993 7.64019 10.6195 7.59697C10.7398 7.55375 10.8681 7.53763 10.9952 7.54977ZM14.5 14.05H14.55V14C14.55 13.0484 14.2181 12.2836 13.6044 11.7576C12.9916 11.2324 12.1038 10.95 11 10.95C9.89625 10.95 9.00837 11.2324 8.39565 11.7576C7.78192 12.2836 7.45 13.0484 7.45 14V14.05H7.5H8.5H8.55V14C8.55 13.1901 8.88146 12.7067 9.34829 12.4228C9.81914 12.1365 10.4332 12.05 11 12.05C11.5668 12.05 12.1809 12.1365 12.6517 12.4228C13.1185 12.7067 13.45 13.1901 13.45 14V14.05H13.5H14.5ZM20 0.95H2C1.72152 0.95 1.45445 1.06062 1.25754 1.25754C1.06062 1.45445 0.95 1.72152 0.95 2V18C0.95 18.2785 1.06062 18.5455 1.25754 18.7425C1.45445 18.9394 1.72152 19.05 2 19.05H20C20.2785 19.05 20.5455 18.9394 20.7425 18.7425C20.9394 18.5455 21.05 18.2785 21.05 18V2C21.05 1.72152 20.9394 1.45445 20.7425 1.25754C20.5455 1.06062 20.2785 0.95 20 0.95ZM19.95 3.95H2.05V2.05H19.95V3.95ZM6.46586 17.95L6.06602 15.55H15.934L15.5341 17.95H6.46586ZM3.04269 2.69444C2.98226 2.78488 2.95 2.89122 2.95 3C2.95 3.14587 3.00795 3.28576 3.11109 3.38891C3.21424 3.49205 3.35413 3.55 3.5 3.55C3.60878 3.55 3.71512 3.51774 3.80556 3.45731C3.89601 3.39687 3.96651 3.31098 4.00813 3.21048C4.04976 3.10998 4.06065 2.99939 4.03943 2.8927C4.01821 2.78601 3.96583 2.68801 3.88891 2.61109C3.81199 2.53417 3.71399 2.48179 3.6073 2.46057C3.50061 2.43935 3.39002 2.45024 3.28952 2.49187C3.18902 2.53349 3.10313 2.60399 3.04269 2.69444ZM5.04269 2.69444C4.98226 2.78488 4.95 2.89122 4.95 3C4.95 3.14587 5.00795 3.28576 5.11109 3.38891C5.21424 3.49205 5.35413 3.55 5.5 3.55C5.60878 3.55 5.71512 3.51774 5.80556 3.45731C5.89601 3.39687 5.96651 3.31098 6.00813 3.21048C6.04976 3.10998 6.06065 2.99939 6.03943 2.8927C6.01821 2.78601 5.96583 2.68801 5.88891 2.61109C5.81199 2.53417 5.71399 2.48179 5.6073 2.46057C5.50061 2.43935 5.39002 2.45024 5.28952 2.49187C5.18902 2.53349 5.10313 2.60399 5.04269 2.69444ZM10.1988 10.4262C10.4542 10.5234 10.7272 10.5656 11 10.5501C11.2728 10.5656 11.5458 10.5234 11.8012 10.4262C12.0575 10.3287 12.2902 10.178 12.4841 9.98412C12.678 9.79022 12.8287 9.55747 12.9262 9.30117C13.0234 9.04579 13.0656 8.77279 13.0501 8.5C13.0656 8.22721 13.0234 7.95421 12.9262 7.69883C12.8287 7.44253 12.678 7.20978 12.4841 7.01588C12.2902 6.82198 12.0575 6.67132 11.8012 6.5738C11.5458 6.47663 11.2728 6.43442 11 6.44992C10.7272 6.43442 10.4542 6.47663 10.1988 6.5738C9.94253 6.67132 9.70978 6.82198 9.51588 7.01588C9.32198 7.20978 9.17132 7.44253 9.0738 7.69883C8.97663 7.95421 8.93442 8.22721 8.94992 8.5C8.93442 8.77279 8.97663 9.04579 9.0738 9.30117C9.17132 9.55747 9.32198 9.79022 9.51588 9.98412C9.70978 10.178 9.94253 10.3287 10.1988 10.4262Z" fill="white" stroke="white" stroke-width="0.1"/>
</svg>
