<svg width="24" height="20" viewBox="0 0 24 20" fill="none" xmlns="http://www.w3.org/2000/svg">
<path d="M11.903 6.00058C11.6065 6.00058 11.3273 6.11631 11.1176 6.32577C10.908 6.5351 10.7921 6.81462 10.7921 7.11115C10.7921 7.40762 10.9078 7.68715 11.1176 7.89672C11.3273 8.10618 11.6065 8.22191 11.903 8.22191C12.1995 8.22191 12.4788 8.10619 12.6882 7.8966C12.8977 7.68712 13.0136 7.40766 13.0136 7.11115C13.0136 6.81462 12.8977 6.5351 12.6881 6.32577L12.5821 6.43189L12.6883 6.32594C12.4788 6.11606 12.1994 6.00058 11.903 6.00058ZM12.2043 7.41287C12.0453 7.572 11.7606 7.5719 11.6013 7.41283C11.5205 7.332 11.4764 7.22546 11.4764 7.11115C11.4764 6.99698 11.5206 6.89031 11.6013 6.80975C11.6821 6.72904 11.7887 6.68488 11.903 6.68488C12.0172 6.68488 12.1237 6.72903 12.2043 6.80966C12.285 6.89034 12.3293 6.99709 12.3293 7.11115C12.3293 7.22536 12.2852 7.33177 12.2043 7.41287Z" fill="white" stroke="white" stroke-width="0.3"/>
<path d="M9.75902 4.9669L9.759 4.96692C9.62529 5.10063 9.62529 5.31704 9.759 5.45075C9.89271 5.58446 10.1091 5.58446 10.2428 5.45075C10.6869 5.00671 11.2759 4.7624 11.903 4.7624C12.5299 4.7624 13.1192 5.00671 13.5634 5.45077C13.6301 5.51742 13.7179 5.55099 13.8053 5.55099C13.8928 5.55099 13.9806 5.51742 14.0472 5.45075C14.181 5.31704 14.181 5.10063 14.0472 4.96692L14.0472 4.9669C13.4742 4.39407 12.7122 4.07829 11.903 4.07829C11.0936 4.07829 10.3318 4.39428 9.75902 4.9669Z" fill="white" stroke="white" stroke-width="0.3"/>
<path d="M11.903 2.1562C10.5808 2.1562 9.33613 2.67201 8.40011 3.60822L8.4001 3.60823C8.2664 3.74194 8.26641 3.95835 8.40011 4.09205C8.53382 4.22576 8.75024 4.22576 8.88395 4.09205C9.69133 3.28467 10.7631 2.8405 11.903 2.8405C13.043 2.8405 14.1145 3.28466 14.9219 4.09205C14.9886 4.15872 15.0764 4.19229 15.1638 4.19229C15.2513 4.19229 15.3391 4.15872 15.4058 4.09205C15.5395 3.95835 15.5395 3.74194 15.4058 3.60823C14.4698 2.67202 13.2253 2.1562 11.903 2.1562Z" fill="white" stroke="white" stroke-width="0.3"/>
<path d="M7.52524 2.73318C9.15137 1.10723 11.5265 0.516158 13.7244 1.19158L13.7251 1.1918C13.9071 1.24669 14.0969 1.14546 14.1521 0.964548L14.0086 0.920797M7.52524 2.73318L7.41918 2.6271M7.52524 2.73318L7.41918 2.6271M7.52524 2.73318C7.45857 2.79984 7.37077 2.8334 7.28333 2.8334C7.19588 2.8334 7.10807 2.79983 7.04141 2.73317C6.9077 2.59946 6.9077 2.38304 7.04141 2.24933C8.84694 0.443806 11.4847 -0.211944 13.9254 0.537211L13.9257 0.537305C14.1058 0.592992 14.2075 0.784027 14.152 0.964795L14.0086 0.920797M7.41918 2.6271C7.38171 2.66457 7.33252 2.6834 7.28333 2.6834C7.23413 2.6834 7.18494 2.66457 7.14747 2.6271C7.07234 2.55197 7.07234 2.43053 7.14747 2.3554C8.91373 0.589144 11.4938 -0.0522582 13.8814 0.680608C13.9827 0.711929 14.0398 0.819341 14.0086 0.920797M7.41918 2.6271L13.7684 1.04819C13.8716 1.07932 13.9777 1.02225 14.0086 0.920797" fill="white" stroke="white" stroke-width="0.3"/>
<path d="M16.3451 0C15.6035 0 15 0.603356 15 1.34506C15 2.08677 15.6035 2.69012 16.3451 2.69012C17.0866 2.69012 17.6901 2.08677 17.6901 1.34506C17.6901 0.603356 17.0866 0 16.3451 0ZM16.3451 2.30582C15.8153 2.30582 15.3843 1.87482 15.3843 1.34506C15.3843 0.815299 15.8153 0.384303 16.3451 0.384303C16.8748 0.384303 17.3058 0.815299 17.3058 1.34506C17.3058 1.87482 16.8748 2.30582 16.3451 2.30582Z" fill="white"/>
<path d="M16.3451 0C15.6035 0 15 0.603356 15 1.34506C15 2.08677 15.6035 2.69012 16.3451 2.69012C17.0866 2.69012 17.6901 2.08677 17.6901 1.34506C17.6901 0.603356 17.0866 0 16.3451 0ZM16.3451 2.30582C15.8153 2.30582 15.3843 1.87482 15.3843 1.34506C15.3843 0.815299 15.8153 0.384303 16.3451 0.384303C16.8748 0.384303 17.3058 0.815299 17.3058 1.34506C17.3058 1.87482 16.8748 2.30582 16.3451 2.30582Z" stroke="white"/>
<path d="M16.8652 0.824903C16.7901 0.749772 16.6686 0.749772 16.5935 0.824903L16.3451 1.07336L16.0966 0.824903C16.0215 0.749772 15.9 0.749772 15.8249 0.824903C15.7498 0.900034 15.7498 1.02147 15.8249 1.09661L16.0734 1.34506L15.8249 1.59351C15.7498 1.66864 15.7498 1.79008 15.8249 1.86521C15.8624 1.90268 15.9116 1.92151 15.9608 1.92151C16.0099 1.92151 16.0591 1.90268 16.0966 1.86521L16.3451 1.61676L16.5935 1.86521C16.631 1.90268 16.6802 1.92151 16.7294 1.92151C16.7786 1.92151 16.8277 1.90268 16.8652 1.86521C16.9403 1.79008 16.9403 1.66864 16.8652 1.59351L16.6168 1.34506L16.8652 1.09661C16.9403 1.02147 16.9403 0.900034 16.8652 0.824903Z" fill="white"/>
<path d="M16.8652 0.824903C16.7901 0.749772 16.6686 0.749772 16.5935 0.824903L16.3451 1.07336L16.0966 0.824903C16.0215 0.749772 15.9 0.749772 15.8249 0.824903C15.7498 0.900034 15.7498 1.02147 15.8249 1.09661L16.0734 1.34506L15.8249 1.59351C15.7498 1.66864 15.7498 1.79008 15.8249 1.86521C15.8624 1.90268 15.9116 1.92151 15.9608 1.92151C16.0099 1.92151 16.0591 1.90268 16.0966 1.86521L16.3451 1.61676L16.5935 1.86521C16.631 1.90268 16.6802 1.92151 16.7294 1.92151C16.7786 1.92151 16.8277 1.90268 16.8652 1.86521C16.9403 1.79008 16.9403 1.66864 16.8652 1.59351L16.6168 1.34506L16.8652 1.09661C16.9403 1.02147 16.9403 0.900034 16.8652 0.824903Z" stroke="white"/>
<path d="M3.14479 13.9457H20.8383C20.9899 13.9457 21.1352 13.8855 21.2423 13.7784C21.3494 13.6712 21.4096 13.5259 21.4096 13.3744V3.26383C21.4096 2.88886 21.2607 2.52924 20.9955 2.2641C20.7304 1.99896 20.3708 1.85 19.9958 1.85H19.1532C19.0017 1.85 18.8564 1.91019 18.7493 2.01732C18.6422 2.12446 18.582 2.26976 18.582 2.42128C18.582 2.57279 18.6422 2.71809 18.7493 2.82523C18.8564 2.93236 19.0017 2.99255 19.1532 2.99255H19.9958C20.0677 2.99255 20.1367 3.02113 20.1876 3.072C20.2385 3.12288 20.2671 3.19188 20.2671 3.26383V12.8032H3.71606V3.26383C3.71606 3.19188 3.74464 3.12288 3.79552 3.072C3.84639 3.02113 3.91539 2.99255 3.98734 2.99255H4.82989C4.9814 2.99255 5.1267 2.93236 5.23384 2.82523C5.34097 2.71809 5.40116 2.57279 5.40116 2.42128C5.40116 2.26976 5.34097 2.12446 5.23384 2.01732C5.1267 1.91019 4.9814 1.85 4.82989 1.85H3.98734C3.61237 1.85 3.25275 1.99896 2.98761 2.2641C2.72247 2.52924 2.57351 2.88886 2.57351 3.26383V13.3744C2.57351 13.5259 2.6337 13.6712 2.74083 13.7784C2.84797 13.8855 2.99327 13.9457 3.14479 13.9457Z" fill="white" stroke="white" stroke-width="0.3"/>
<path d="M0.944946 17.4991L0.944794 17.4995C0.862128 17.7137 0.832887 17.9449 0.859599 18.1729C0.886312 18.401 0.968174 18.6191 1.09811 18.8085C1.22804 18.9978 1.40214 19.1526 1.60534 19.2596C1.80852 19.3665 2.0347 19.4224 2.26431 19.4223C2.26433 19.4223 2.26435 19.4223 2.26436 19.4223H21.7178C21.9487 19.4253 22.1767 19.3717 22.3821 19.2662C22.5878 19.1606 22.7645 19.0061 22.8966 18.8163C23.0287 18.6265 23.1122 18.4072 23.1399 18.1776C23.1675 17.9481 23.1384 17.7152 23.0552 17.4995L23.055 17.4991L21.3701 13.1688C21.3286 13.0614 21.2557 12.9691 21.1609 12.9038C21.0661 12.8386 20.9539 12.8035 20.8388 12.8032H20.8383H3.14477V12.803L3.13828 12.8033C3.02713 12.8081 2.91982 12.8453 2.8295 12.9102C2.73926 12.9751 2.66992 13.0649 2.62996 13.1686C2.62992 13.1687 2.62988 13.1688 2.62984 13.1689L0.944946 17.4991ZM2.02088 17.9108L2.02103 17.9104L3.53865 13.9457H20.4445L21.9621 17.9104L21.9622 17.9108C21.9779 17.9514 21.9836 17.9952 21.9788 18.0385C21.974 18.0818 21.9588 18.1232 21.9346 18.1594C21.9104 18.1956 21.8779 18.2254 21.8397 18.2464C21.802 18.2671 21.7599 18.2785 21.7169 18.2797H2.26621C2.22322 18.2785 2.18112 18.2671 2.14341 18.2464C2.10525 18.2254 2.07269 18.1956 2.04847 18.1594C2.02427 18.1232 2.00912 18.0818 2.00432 18.0385C1.99951 17.9952 2.00519 17.9514 2.02088 17.9108Z" fill="white" stroke="white" stroke-width="0.3"/>
<path d="M8.14737 19.1708L8.14742 19.1709L8.93285 16.5331L8.93281 16.5331C8.93279 16.5332 8.93278 16.5332 8.93276 16.5333L8.0903 18.6394L8.09024 18.6396C8.05574 18.7261 8.0429 18.8197 8.05286 18.9123C8.06282 19.0049 8.09526 19.0937 8.14737 19.1708ZM14.5191 16.1734L9.46397 16.1734H14.5192L14.5191 16.1734ZM15.8928 18.6394L15.0503 16.5333L8.62135 19.2723V19.4223H8.6214C8.62146 19.4223 8.62152 19.4223 8.62158 19.4223H15.3615L15.3618 19.2723V19.4223H15.3617C15.4552 19.4224 15.5473 19.3995 15.63 19.3557C15.7126 19.3119 15.7833 19.2485 15.8357 19.1709L15.8357 19.1708C15.8878 19.0937 15.9203 19.0049 15.9302 18.9123C15.9402 18.8197 15.9274 18.7261 15.8929 18.6396L15.8928 18.6394ZM14.4999 18.2797H9.46639L9.85193 17.3159H14.1143L14.4999 18.2797Z" fill="white" stroke="white" stroke-width="0.3"/>
</svg>
