<svg width="20" height="26" viewBox="0 0 20 26" fill="none" xmlns="http://www.w3.org/2000/svg">
<path d="M9.61224 15.9285C9.25607 15.9285 8.9079 16.0341 8.61176 16.232C8.31562 16.4298 8.0848 16.7111 7.94851 17.0401C7.81221 17.3692 7.77654 17.7313 7.84603 18.0806C7.91551 18.4299 8.08702 18.7508 8.33887 19.0026C8.59072 19.2545 8.9116 19.426 9.26092 19.4955C9.61024 19.565 9.97233 19.5293 10.3014 19.393C10.6304 19.2567 10.9117 19.0259 11.1096 18.7298C11.3074 18.4336 11.4131 18.0854 11.4131 17.7293C11.4123 17.2519 11.2223 16.7943 10.8848 16.4567C10.5472 16.1192 10.0896 15.9292 9.61224 15.9285ZM9.61224 18.6727C9.42622 18.6727 9.24437 18.6175 9.0897 18.5142C8.93502 18.4108 8.81447 18.2639 8.74328 18.0921C8.6721 17.9202 8.65347 17.7311 8.68976 17.5486C8.72605 17.3662 8.81563 17.1986 8.94717 17.0671C9.07871 16.9355 9.2463 16.846 9.42875 16.8097C9.6112 16.7734 9.80031 16.792 9.97218 16.8632C10.144 16.9344 10.2909 17.0549 10.3943 17.2096C10.4976 17.3643 10.5528 17.5461 10.5528 17.7321C10.552 17.9814 10.4527 18.2202 10.2765 18.3964C10.1003 18.5726 9.86146 18.6719 9.61224 18.6727Z" fill="white"/>
<path d="M18.0485 25.0021V22.67L19.2242 12.7942C19.2315 12.7338 19.2259 12.6725 19.2078 12.6144C19.1896 12.5563 19.1594 12.5028 19.119 12.4572C19.0786 12.4117 19.029 12.3752 18.9735 12.3503C18.918 12.3253 18.8578 12.3125 18.797 12.3125H17.1022C17.0637 11.3549 16.7065 10.4376 16.0873 9.70615C15.468 8.9747 14.6223 8.47101 13.6841 8.275C14.2701 7.51456 14.6313 6.60521 14.7268 5.64999C14.8223 4.69478 14.6484 3.7319 14.2246 2.87049C13.8009 2.00909 13.1444 1.2836 12.3294 0.776255C11.5144 0.268911 10.5736 0 9.61367 0C8.65369 0 7.7129 0.268911 6.89794 0.776255C6.08297 1.2836 5.42642 2.00909 5.00269 2.87049C4.57897 3.7319 4.40501 4.69478 4.50054 5.64999C4.59607 6.60521 4.95727 7.51456 5.54319 8.275C4.60548 8.4702 3.75974 8.9728 3.14004 9.70314C2.52034 10.4335 2.16214 11.3498 2.12222 12.3068H0.430372C0.369509 12.3067 0.309332 12.3196 0.253817 12.3446C0.198303 12.3695 0.148715 12.4059 0.10833 12.4515C0.0679457 12.497 0.037684 12.5506 0.0195455 12.6087C0.00140696 12.6668 -0.00419524 12.7281 0.0031083 12.7885L1.17593 22.67V25.005C1.17593 25.2689 1.28077 25.522 1.46737 25.7086C1.65398 25.8952 1.90707 26 2.17097 26H17.0535C17.1844 26 17.314 25.9742 17.4349 25.924C17.5559 25.8738 17.6657 25.8002 17.7581 25.7075C17.8505 25.6148 17.9238 25.5048 17.9736 25.3838C18.0235 25.2627 18.0489 25.133 18.0485 25.0021ZM5.34533 5.14938C5.34534 4.30271 5.59655 3.47508 6.06717 2.77126C6.5378 2.06743 7.20666 1.51907 7.9891 1.19559C8.77154 0.872114 9.63237 0.788061 10.4626 0.954074C11.2928 1.12009 12.0551 1.5287 12.653 2.12819C13.2509 2.72768 13.6575 3.49109 13.8213 4.32176C13.985 5.15244 13.8987 6.01304 13.5731 6.7946C13.2475 7.57617 12.6974 8.24356 11.9923 8.71229C11.2872 9.18103 10.4589 9.43002 9.61223 9.42775C8.48 9.4232 7.3956 8.97062 6.59605 8.16893C5.79651 7.36723 5.34684 6.28162 5.34533 5.14938ZM6.29162 9.05497C7.2192 9.85121 8.40125 10.289 9.6237 10.289C10.8462 10.289 12.0282 9.85121 12.9558 9.05497C13.8095 9.09217 14.6189 9.44572 15.2263 10.0468C15.8337 10.6479 16.1958 11.4535 16.242 12.3068H2.98248C3.02889 11.4516 3.39256 10.6444 4.00239 10.0431C4.61222 9.44171 5.42439 9.08939 6.28015 9.05497H6.29162ZM0.914985 13.167H18.3124L17.237 22.2112H1.99031L0.914985 13.167ZM2.03906 25.0021V23.0715H17.1883V25.0021C17.1883 25.0378 17.1741 25.0721 17.1488 25.0974C17.1235 25.1227 17.0892 25.1369 17.0535 25.1369H2.17384C2.1559 25.1373 2.13806 25.134 2.12138 25.1274C2.10469 25.1208 2.0895 25.111 2.07668 25.0984C2.06386 25.0859 2.05367 25.0709 2.04672 25.0543C2.03977 25.0378 2.03619 25.02 2.03619 25.0021H2.03906Z" fill="white"/>
</svg>
