<svg width="16" height="20" viewBox="0 0 16 20" fill="none" xmlns="http://www.w3.org/2000/svg">
<g clip-path="url(#clip0)">
<path fill-rule="evenodd" clip-rule="evenodd" d="M5.89548 7.48138C7.96142 7.48138 9.6362 5.80664 9.6362 3.74072C9.6362 1.67474 7.96142 0 5.89548 0C3.82956 0 2.15478 1.67474 2.15478 3.74072C2.15478 5.80664 3.82956 7.48138 5.89548 7.48138ZM12.1947 12.7025C10.1794 12.7025 8.54541 14.3365 8.54541 16.3518C8.54541 18.3672 10.1788 19.9999 12.1947 19.9999C14.2089 19.9999 15.8429 18.3672 15.8429 16.3518C15.8429 14.3365 14.2089 12.7025 12.1947 12.7025ZM12.9774 17.926C12.8362 18.1059 12.6271 18.2119 12.3529 18.2453V18.6765H12.0465V18.2394C11.8549 18.2143 11.6944 18.1545 11.5655 18.0596C11.4366 17.9659 11.3136 17.8469 11.1982 17.704L11.593 17.3413L11.6534 17.4089C11.6784 17.437 11.703 17.4645 11.7272 17.4913C11.7706 17.5394 11.8168 17.5804 11.8655 17.6172C11.9141 17.653 11.9686 17.6812 12.0272 17.701C12.0863 17.7216 12.1537 17.7321 12.2287 17.7321C12.3599 17.7321 12.4584 17.6888 12.5246 17.6014C12.5908 17.5159 12.6241 17.4093 12.6241 17.2845C12.6241 17.1527 12.5896 17.0408 12.5216 16.9459C12.4839 16.8932 12.441 16.8425 12.3929 16.7941C12.3805 16.7815 12.3676 16.769 12.3544 16.7567C12.3269 16.731 12.2979 16.706 12.2674 16.6816C12.166 16.6008 12.0559 16.5206 11.9375 16.4415C11.8186 16.3624 11.7079 16.2733 11.6059 16.1737C11.504 16.0742 11.419 15.9587 11.3499 15.8281C11.282 15.6974 11.248 15.5399 11.248 15.3553C11.248 15.2305 11.2656 15.1127 11.3019 15.0038C11.3382 14.8948 11.3892 14.7975 11.4583 14.7097C11.4992 14.6575 11.546 14.6102 11.5987 14.5684C11.6337 14.5406 11.6712 14.5152 11.7114 14.4923C11.7586 14.4647 11.8085 14.4415 11.8609 14.4228C11.9069 14.4064 11.9549 14.3934 12.0049 14.384C12.0188 14.3813 12.0329 14.379 12.0471 14.3769V14.0266H12.3529V14.3769C12.5187 14.3997 12.6605 14.4443 12.7776 14.5128C12.8942 14.5802 13.0079 14.674 13.1163 14.794L12.7261 15.1725C12.6581 15.0858 12.5837 15.0155 12.5029 14.9633C12.4214 14.9106 12.3248 14.8854 12.2123 14.8854C12.0793 14.8854 11.978 14.9241 11.9059 15.0032C11.8338 15.0823 11.7981 15.1871 11.7981 15.3154C11.7981 15.4608 11.8467 15.5902 11.9445 15.6998C12.009 15.7672 12.0817 15.8281 12.1625 15.8808C12.2439 15.9335 12.3218 15.9863 12.3974 16.0396C12.4669 16.0879 12.5336 16.1365 12.5972 16.185C12.6377 16.2158 12.6769 16.2466 12.715 16.2774C12.7639 16.317 12.8094 16.3588 12.8513 16.4025C12.8932 16.446 12.9315 16.4913 12.9663 16.5381C13.0366 16.6318 13.0905 16.7361 13.1303 16.8516C13.146 16.8972 13.1587 16.9457 13.1682 16.9973C13.1827 17.075 13.1901 17.1595 13.1901 17.2511C13.1901 17.5212 13.1192 17.7468 12.9774 17.926ZM9.33392 9.29755C10.1412 9.74164 11.2573 10.5999 11.6463 12.0804C9.5249 12.3505 7.88449 14.1572 7.88449 16.3525C7.88449 16.5622 7.905 16.7655 7.93371 16.967H0.0550832C-0.00476178 15.8844 -0.00155744 14.7665 0.00121966 13.7848C0.0017995 13.5845 0.00234881 13.3898 0.00234881 13.2023C0.00234881 11.0159 1.46289 9.84418 2.45477 9.29816C2.45535 9.29761 2.45605 9.2973 2.45676 9.297C2.45752 9.29669 2.45828 9.29639 2.45886 9.29578C2.59421 9.22137 2.72308 9.15521 2.83499 9.10364C2.85196 9.09546 2.86954 9.08899 2.88653 9.08197C3.16656 8.95599 3.35287 8.89978 3.35287 8.89978L3.35345 8.9021C3.37829 8.89337 3.40335 8.88611 3.4285 8.87878C3.44543 8.87384 3.46243 8.8689 3.47943 8.86346L4.70563 12.7061C4.83978 12.0125 5.01379 11.2368 5.21533 10.6198C4.75131 10.5601 4.39218 10.1675 4.39218 9.68835C4.39218 9.16693 4.81402 8.74451 5.33542 8.74451H6.45325C6.97467 8.74451 7.39706 9.16632 7.39706 9.68835C7.39706 10.1424 7.07483 10.5226 6.64657 10.6116C6.83523 11.1858 6.99927 11.9011 7.12991 12.559L8.30981 8.86285C8.33328 8.87048 8.35715 8.87714 8.38086 8.88416C8.39914 8.88953 8.41736 8.89508 8.43521 8.90149L8.43637 8.89917C8.43637 8.89917 8.62268 8.95544 8.90271 9.08136L8.91623 9.08685C8.92889 9.09192 8.94159 9.09698 8.95367 9.10303C9.01987 9.13324 9.09146 9.16846 9.16647 9.20734C9.21963 9.23492 9.2745 9.26434 9.33038 9.29523C9.33099 9.29578 9.33157 9.29608 9.33215 9.29639C9.33273 9.29669 9.33331 9.297 9.33392 9.29755Z" fill="white"/>
</g>
<defs>
<clipPath id="clip0">
<rect width="15.8429" height="19.9999" fill="white"/>
</clipPath>
</defs>
</svg>
