<svg width="19" height="21" viewBox="0 0 19 21" fill="none" xmlns="http://www.w3.org/2000/svg">
<path d="M16.2059 2.93754H2.33029C2.03644 2.94352 1.75037 2.85447 1.52669 2.6874C1.30301 2.52033 1.1574 2.28695 1.11765 2.0318C1.10663 1.8912 1.13039 1.75018 1.18729 1.61837C1.24419 1.48656 1.3329 1.36706 1.44735 1.26804C1.65599 1.08415 1.93935 0.980273 2.23529 0.97918H17.3235C17.4717 0.97918 17.6139 0.927598 17.7187 0.835783C17.8235 0.743967 17.8824 0.619438 17.8824 0.48959C17.8824 0.359743 17.8235 0.235214 17.7187 0.143398C17.6139 0.0515822 17.4717 6.05523e-07 17.3235 6.05523e-07H2.23529C1.94166 -0.000201683 1.65087 0.0502824 1.37951 0.148569C1.10816 0.246855 0.861566 0.391018 0.653824 0.572821C0.237808 0.942191 0.00315654 1.43945 0 1.95836V18.1148C0 18.7641 0.294379 19.3867 0.818378 19.8458C1.34238 20.3049 2.05307 20.5628 2.79412 20.5628H16.2059C16.5728 20.5628 16.9361 20.4995 17.2751 20.3764C17.6141 20.2534 17.9222 20.0731 18.1816 19.8458C18.4411 19.6185 18.6469 19.3486 18.7873 19.0516C18.9277 18.7546 19 18.4363 19 18.1148V5.38549C19 5.06402 18.9277 4.7457 18.7873 4.4487C18.6469 4.1517 18.4411 3.88184 18.1816 3.65453C17.9222 3.42721 17.6141 3.2469 17.2751 3.12388C16.9361 3.00086 16.5728 2.93754 16.2059 2.93754ZM17.8824 18.1148C17.8824 18.5044 17.7057 18.878 17.3913 19.1534C17.0769 19.4288 16.6505 19.5836 16.2059 19.5836H2.79412C2.34949 19.5836 1.92307 19.4288 1.60867 19.1534C1.29427 18.878 1.11765 18.5044 1.11765 18.1148V3.62786C1.48438 3.81893 1.90362 3.91879 2.33029 3.91672H16.2059C16.6505 3.91672 17.0769 4.07146 17.3913 4.34691C17.7057 4.62236 17.8824 4.99595 17.8824 5.38549V18.1148Z" fill="white"/>
<path d="M10.9951 7.2381C10.8524 7.2381 10.7098 7.2381 10.5671 7.2381C9.57378 7.2381 8.5778 7.2381 7.58181 7.2381C7.43915 7.2381 7.31763 7.35383 7.31763 7.4897C7.31763 7.67086 7.31763 7.85453 7.31763 8.03569C7.31763 8.82825 7.31763 9.62333 7.31763 10.4159C7.31763 10.9116 7.31763 11.4097 7.31763 11.9079C7.40481 11.8249 7.49463 11.7393 7.58181 11.6563C6.94776 11.6563 6.31636 11.6563 5.68495 11.6563C5.4419 11.6563 5.35472 11.9255 5.49738 12.0866C5.64796 12.2551 5.79591 12.4237 5.9465 12.5923C6.59111 13.3144 7.23309 14.0365 7.8777 14.7586C8.28455 15.214 8.69404 15.6719 9.10089 16.1299C9.18543 16.228 9.38621 16.228 9.47339 16.1299C9.62398 15.9613 9.77192 15.7927 9.92251 15.6241C10.5671 14.902 11.2091 14.1799 11.8537 13.4578C12.2606 13.0024 12.67 12.5445 13.0769 12.0866C13.2196 11.9255 13.1324 11.6563 12.8893 11.6563C12.2553 11.6563 11.6239 11.6563 10.9925 11.6563C11.0796 11.7393 11.1695 11.8249 11.2567 11.9079C11.2567 11.7268 11.2567 11.5431 11.2567 11.3619C11.2567 10.5694 11.2567 9.77429 11.2567 8.98173C11.2567 8.48606 11.2567 7.98788 11.2567 7.4897C11.2567 7.16513 10.7283 7.16513 10.7283 7.4897C10.7283 7.67086 10.7283 7.85453 10.7283 8.03569C10.7283 8.82825 10.7283 9.62333 10.7283 10.4159C10.7283 10.9116 10.7283 11.4097 10.7283 11.9079C10.7283 12.0438 10.8498 12.1595 10.9925 12.1595C11.6265 12.1595 12.2579 12.1595 12.8893 12.1595C12.8259 12.0161 12.7652 11.8727 12.7018 11.7293C12.5512 11.8978 12.4032 12.0664 12.2526 12.235C11.608 12.9571 10.966 13.6792 10.3214 14.4013C9.91458 14.8567 9.50509 15.3147 9.09824 15.7726C9.22241 15.7726 9.34658 15.7726 9.47075 15.7726C9.32016 15.604 9.17222 15.4354 9.02163 15.2669C8.37701 14.5447 7.73504 13.8226 7.09042 13.1005C6.68358 12.6451 6.27409 12.1872 5.86724 11.7293C5.80383 11.8727 5.74307 12.0161 5.67967 12.1595C6.31371 12.1595 6.94512 12.1595 7.57653 12.1595C7.71919 12.1595 7.84071 12.0438 7.84071 11.9079C7.84071 11.7268 7.84071 11.5431 7.84071 11.3619C7.84071 10.5694 7.84071 9.77429 7.84071 8.98173C7.84071 8.48606 7.84071 7.98788 7.84071 7.4897C7.75353 7.57273 7.66371 7.65828 7.57653 7.74131C7.71919 7.74131 7.86185 7.74131 8.00451 7.74131C8.99785 7.74131 9.99384 7.74131 10.9898 7.74131C11.3306 7.74131 11.3306 7.2381 10.9951 7.2381Z" fill="white"/>
</svg>
