<svg width="31" height="48" viewBox="0 0 31 48" fill="none" xmlns="http://www.w3.org/2000/svg">
<path d="M15.4256 0.340332C11.8008 0.340332 8.17722 1.56236 4.92995 4.00119C4.8472 4.05264 4.77352 4.12576 4.71354 4.21602C4.65356 4.30627 4.60857 4.41173 4.58139 4.52568C4.55422 4.63963 4.54545 4.7596 4.55563 4.87817C4.56581 4.99674 4.59472 5.11134 4.64055 5.21469C4.68639 5.31803 4.74815 5.40791 4.82196 5.47873C4.89577 5.54954 4.98004 5.59974 5.06948 5.62617C5.15891 5.65261 5.25158 5.65473 5.34167 5.63236C5.43176 5.60999 5.51732 5.56363 5.59299 5.4962C11.6777 0.926361 19.1734 0.926361 25.2581 5.4962C25.3338 5.56363 25.4193 5.60999 25.5094 5.63236C25.5995 5.65473 25.6922 5.65261 25.7816 5.62617C25.8711 5.59974 25.9553 5.54954 26.0291 5.47873C26.103 5.40791 26.1647 5.31803 26.2106 5.21469C26.2564 5.11134 26.2853 4.99674 26.2955 4.87817C26.3057 4.7596 26.2969 4.63963 26.2697 4.52568C26.2425 4.41173 26.1975 4.30627 26.1376 4.21602C26.0776 4.12576 26.0039 4.05264 25.9212 4.00119C22.6739 1.56236 19.0503 0.340332 15.4256 0.340332Z" fill="#109CF1"/>
<path d="M15.4267 6.21835C10.0526 6.21835 4.67613 8.88839 0.579645 14.2173C0.514791 14.2969 0.462894 14.3926 0.427036 14.4988C0.391178 14.605 0.372091 14.7195 0.370908 14.8354C0.369726 14.9514 0.386471 15.0665 0.420151 15.1739C0.453831 15.2813 0.503758 15.3787 0.566967 15.4605C0.630175 15.5423 0.705377 15.6068 0.788103 15.65C0.87083 15.6933 0.959395 15.7144 1.04854 15.7123C1.13768 15.7102 1.22558 15.6847 1.30703 15.6375C1.38847 15.5903 1.46179 15.5224 1.52263 15.4376C9.2071 5.44126 21.6463 5.44126 29.3308 15.4376C29.3904 15.5284 29.4638 15.6023 29.5464 15.6544C29.629 15.7066 29.719 15.7359 29.8107 15.7407C29.9024 15.7454 29.9939 15.7253 30.0794 15.6818C30.1649 15.6382 30.2426 15.5722 30.3075 15.4878C30.3724 15.4033 30.4232 15.3023 30.4566 15.1911C30.4901 15.0799 30.5055 14.9608 30.5018 14.8415C30.4982 14.7222 30.4757 14.6051 30.4356 14.4977C30.3955 14.3903 30.3387 14.2948 30.2689 14.2173C26.1724 8.88839 20.8009 6.21835 15.4267 6.21835V6.21835Z" fill="#109CF1"/>
<path d="M17.337 11.7576C15.5468 11.4324 13.6805 11.5583 11.8265 12.2048C4.4103 14.7898 -0.00306831 24.727 1.98409 34.3744C2.00667 34.4843 2.04566 34.5873 2.09885 34.6776C2.15204 34.7679 2.21838 34.8437 2.29409 34.9007C2.3698 34.9576 2.45338 34.9946 2.54008 35.0096C2.62678 35.0245 2.71489 35.0171 2.79938 34.9877C2.88387 34.9583 2.96309 34.9077 3.03251 34.8385C3.10193 34.7693 3.1602 34.6829 3.20398 34.5844C3.24776 34.4859 3.2762 34.3772 3.28768 34.2645C3.29916 34.1517 3.29345 34.037 3.27087 33.9271C1.46984 25.1834 5.44873 16.2216 12.1703 13.8787C18.8918 11.5358 25.7811 16.7117 27.5822 25.4554C27.6047 25.5653 27.6437 25.6684 27.6969 25.7587C27.7501 25.849 27.8164 25.9248 27.8921 25.9818C27.9679 26.0388 28.0515 26.0758 28.1382 26.0907C28.2249 26.1057 28.313 26.0982 28.3975 26.0689C28.482 26.0395 28.5612 25.9888 28.6306 25.9196C28.7001 25.8504 28.7583 25.7641 28.8021 25.6656C28.8459 25.5671 28.8743 25.4583 28.8858 25.3455C28.8973 25.2327 28.8915 25.1181 28.8689 25.0082C27.3786 17.7727 22.7078 12.7331 17.337 11.7576V11.7576Z" fill="#109CF1"/>
<path d="M15.0385 23.6788C12.4568 24.1451 10.0727 27.0767 10.0682 32.3038C10.0681 32.3058 10.0682 32.3071 10.0682 32.3104C10.0682 32.3129 10.0682 32.3136 10.0682 32.3169C10.0285 35.2012 10.5681 38.3702 12.2734 41.14C13.981 43.9137 16.8272 46.2379 21.2661 47.5673C21.3515 47.5938 21.4401 47.5981 21.5267 47.5798C21.6134 47.5616 21.6964 47.5213 21.7711 47.4612C21.8457 47.401 21.9104 47.3223 21.9616 47.2295C22.0127 47.1366 22.0492 47.0316 22.0689 46.9203C22.0887 46.809 22.0913 46.6937 22.0767 46.5811C22.0621 46.4685 22.0305 46.3608 21.9837 46.2641C21.9369 46.1675 21.8759 46.0839 21.8042 46.0181C21.7324 45.9522 21.6514 45.9055 21.5657 45.8806C17.3346 44.6131 14.7993 42.4716 13.3146 40.06C11.8299 37.6484 11.3621 34.9247 11.3992 32.3358V32.3227V32.3161C11.3992 27.726 13.2431 25.7486 15.2251 25.3905C17.2071 25.0325 19.3139 26.4178 19.8958 29.243L19.9009 29.2562V29.2758C21.1118 34.3988 24.1041 36.8668 26.5852 36.0672C27.8258 35.6674 28.8653 34.3919 29.316 32.483C29.7666 30.5741 29.6778 28.0628 28.8543 24.9505C28.8288 24.8384 28.7862 24.7342 28.7289 24.6442C28.6717 24.5541 28.601 24.4801 28.5212 24.4266C28.4414 24.373 28.354 24.341 28.2644 24.3325C28.1748 24.3241 28.0848 24.3393 27.9999 24.3773C27.9149 24.4152 27.8368 24.4752 27.7701 24.5536C27.7035 24.6319 27.6497 24.727 27.6121 24.8331C27.5744 24.9392 27.5537 25.0541 27.5511 25.1709C27.5485 25.2877 27.5641 25.4039 27.597 25.5127C28.3577 28.3876 28.3816 30.5481 28.0439 31.9783C27.7063 33.4084 27.0585 34.1315 26.266 34.3869C24.681 34.8977 22.2404 33.281 21.1729 28.7647L21.1827 28.7974C20.4201 25.0943 17.6227 23.212 15.0385 23.6788Z" fill="#109CF1"/>
<path d="M14.8469 18.0186C13.4044 18.3101 11.9932 18.9926 10.7263 20.012C8.19254 22.0507 6.21716 25.4682 5.78546 29.8062C5.35375 34.1443 6.47189 39.3308 9.91592 44.8777C9.97075 44.9662 10.0384 45.0398 10.1151 45.0943C10.1918 45.1488 10.276 45.1831 10.3629 45.1952C10.4498 45.2074 10.5376 45.1972 10.6215 45.1652C10.7053 45.1332 10.7835 45.08 10.8516 45.0087C10.9196 44.9373 10.9762 44.8493 11.0181 44.7495C11.0599 44.6497 11.0863 44.5403 11.0957 44.4273C11.105 44.3142 11.0972 44.1999 11.0725 44.0908C11.0479 43.9818 11.007 43.8801 10.9522 43.7916C7.67304 38.5103 6.72953 33.819 7.10662 30.0298C7.4837 26.2406 9.19065 23.2782 11.4237 21.4814C13.6568 19.6847 16.4002 19.0972 18.7662 20.0375C21.1322 20.9778 23.1683 23.3858 24.1 27.9087C24.1171 28.0256 24.1526 28.1367 24.2042 28.235C24.2558 28.3333 24.3225 28.4166 24.4 28.4799C24.4775 28.5432 24.5643 28.585 24.6548 28.6027C24.7453 28.6204 24.8376 28.6136 24.926 28.5827C25.0144 28.5519 25.0969 28.4976 25.1685 28.4234C25.24 28.3492 25.299 28.2566 25.3418 28.1514C25.3846 28.0461 25.4102 27.9306 25.4171 27.8119C25.424 27.6932 25.412 27.5739 25.3818 27.4615C24.3524 22.464 21.9391 19.4895 19.1542 18.3828C17.7617 17.8294 16.2895 17.7271 14.8469 18.0186V18.0186Z" fill="#109CF1"/>
<path d="M15.4266 30.2664C15.3281 30.2663 15.2308 30.2946 15.1418 30.3493C15.0527 30.404 14.9741 30.4838 14.9116 30.5828C14.8491 30.6818 14.8043 30.7976 14.7804 30.9219C14.7565 31.0462 14.7541 31.1758 14.7734 31.3014C15.4723 36.3023 17.6374 39.3969 20.2103 41.0126C22.7831 42.6283 25.7277 42.8386 28.1618 42.3862C28.2513 42.3751 28.3381 42.3404 28.4171 42.2844C28.496 42.2284 28.5654 42.1521 28.621 42.0602C28.6767 41.9683 28.7174 41.8628 28.7408 41.7498C28.7642 41.6369 28.7697 41.5189 28.7571 41.4031C28.7445 41.2873 28.714 41.176 28.6674 41.076C28.6207 40.976 28.559 40.8892 28.4859 40.821C28.4129 40.7529 28.3299 40.7048 28.2421 40.6795C28.1543 40.6542 28.0635 40.6523 27.9751 40.674C25.7519 41.0872 23.0406 40.8673 20.7898 39.4537C18.539 38.0402 16.7115 35.5142 16.0798 30.9948C16.0548 30.7924 15.9755 30.6081 15.8559 30.4748C15.7362 30.3414 15.5841 30.2676 15.4266 30.2664H15.4266Z" fill="#109CF1"/>
</svg>
