<svg width="18" height="18" viewBox="0 0 18 18" fill="none" xmlns="http://www.w3.org/2000/svg">
<path d="M16.2851 7.85995L14.6101 7.35995C14.4943 6.95561 14.335 6.565 14.1351 6.19495L14.9551 4.65995C14.9859 4.60201 14.9971 4.5357 14.9872 4.47084C14.9773 4.40599 14.9468 4.34607 14.9001 4.29995L13.7051 3.09995C13.659 3.05329 13.5991 3.02273 13.5342 3.01283C13.4694 3.00292 13.403 3.01419 13.3451 3.04495L11.8201 3.85995C11.4464 3.65028 11.0507 3.4826 10.6401 3.35995L10.1401 1.70495C10.119 1.64396 10.079 1.59125 10.026 1.55442C9.97298 1.51758 9.90965 1.49851 9.84511 1.49995H8.15511C8.09018 1.50026 8.02704 1.52127 7.97488 1.55994C7.92272 1.59861 7.88427 1.65292 7.86511 1.71495L7.36511 3.36495C6.95111 3.48694 6.55199 3.65464 6.17511 3.86495L4.67511 3.05495C4.61717 3.02419 4.55085 3.01292 4.486 3.02283C4.42115 3.03273 4.36122 3.06329 4.31511 3.10995L3.10011 4.29495C3.05344 4.34107 3.02289 4.40099 3.01298 4.46584C3.00307 4.5307 3.01434 4.59701 3.04511 4.65495L3.85511 6.15495C3.64514 6.53025 3.47744 6.92768 3.35511 7.33995L1.70011 7.83995C1.63807 7.85911 1.58376 7.89757 1.54509 7.94973C1.50642 8.00189 1.48541 8.06503 1.48511 8.12995V9.81995C1.48541 9.88488 1.50642 9.94802 1.54509 10.0002C1.58376 10.0523 1.63807 10.0908 1.70011 10.11L3.36511 10.61C3.48878 11.0154 3.65645 11.406 3.86511 11.775L3.04511 13.345C3.01434 13.4029 3.00307 13.4692 3.01298 13.5341C3.02289 13.5989 3.05344 13.6588 3.10011 13.705L4.29511 14.9C4.34122 14.9466 4.40115 14.9772 4.466 14.9871C4.53085 14.997 4.59717 14.9857 4.65511 14.955L6.20011 14.13C6.56559 14.3272 6.95112 14.4847 7.35011 14.6L7.85011 16.285C7.86927 16.347 7.90772 16.4013 7.95988 16.44C8.01204 16.4786 8.07518 16.4997 8.14011 16.5H9.83011C9.89504 16.4997 9.95817 16.4786 10.0103 16.44C10.0625 16.4013 10.1009 16.347 10.1201 16.285L10.6201 14.595C11.0157 14.4791 11.3978 14.3216 11.7601 14.125L13.3151 14.955C13.373 14.9857 13.4394 14.997 13.5042 14.9871C13.5691 14.9772 13.629 14.9466 13.6751 14.9L14.8701 13.705C14.9168 13.6588 14.9473 13.5989 14.9572 13.5341C14.9671 13.4692 14.9559 13.4029 14.9251 13.345L14.0951 11.795C14.2938 11.4313 14.453 11.0475 14.5701 10.65L16.2551 10.15C16.3171 10.1308 16.3715 10.0923 16.4101 10.0402C16.4488 9.98802 16.4698 9.92488 16.4701 9.85995V8.15495C16.4731 8.09278 16.4569 8.03119 16.4238 7.97846C16.3908 7.92573 16.3424 7.88437 16.2851 7.85995ZM9.00011 11.75C8.45621 11.75 7.92452 11.5887 7.47229 11.2865C7.02005 10.9843 6.66758 10.5548 6.45944 10.0523C6.2513 9.54984 6.19684 8.9969 6.30295 8.46346C6.40906 7.93001 6.67097 7.44001 7.05556 7.05541C7.44016 6.67082 7.93016 6.4089 8.46361 6.3028C8.99706 6.19669 9.54999 6.25115 10.0525 6.45929C10.555 6.66743 10.9845 7.0199 11.2866 7.47214C11.5888 7.92437 11.7501 8.45606 11.7501 8.99995C11.7501 9.7293 11.4604 10.4288 10.9447 10.9445C10.4289 11.4602 9.72945 11.75 9.00011 11.75Z" fill="#323C47"/>
</svg>
