<svg width="20" height="20" viewBox="0 0 20 20" fill="none" xmlns="http://www.w3.org/2000/svg">
<path d="M9.99988 13.9998C9.20878 13.9998 8.43545 13.7652 7.77767 13.3257C7.11989 12.8862 6.60722 12.2615 6.30447 11.5306C6.00173 10.7997 5.92252 9.99545 6.07686 9.21955C6.23119 8.44364 6.61215 7.73093 7.17154 7.17154C7.73093 6.61215 8.44364 6.23119 9.21955 6.07686C9.99545 5.92252 10.7997 6.00173 11.5306 6.30447C12.2615 6.60722 12.8862 7.11989 13.3257 7.77767C13.7652 8.43545 13.9998 9.20878 13.9998 9.99988C14.0055 10.5267 13.9059 11.0494 13.7069 11.5373C13.5079 12.0252 13.2135 12.4684 12.841 12.841C12.4684 13.2135 12.0252 13.5079 11.5373 13.7069C11.0494 13.9059 10.5267 14.0055 9.99988 13.9998V13.9998ZM9.99988 7.3333C9.64751 7.32528 9.29716 7.38877 8.97001 7.51994C8.64286 7.65111 8.3457 7.84723 8.09646 8.09646C7.84723 8.3457 7.65111 8.64286 7.51994 8.97001C7.38877 9.29716 7.32528 9.64751 7.3333 9.99988C7.32528 10.3523 7.38877 10.7026 7.51994 11.0298C7.65111 11.3569 7.84723 11.6541 8.09646 11.9033C8.3457 12.1525 8.64286 12.3487 8.97001 12.4798C9.29716 12.611 9.64751 12.6745 9.99988 12.6665C10.3523 12.6745 10.7026 12.611 11.0298 12.4798C11.3569 12.3487 11.6541 12.1525 11.9033 11.9033C12.1525 11.6541 12.3487 11.3569 12.4798 11.0298C12.611 10.7026 12.6745 10.3523 12.6665 9.99988C12.6745 9.64751 12.611 9.29716 12.4798 8.97001C12.3487 8.64286 12.1525 8.3457 11.9033 8.09646C11.6541 7.84723 11.3569 7.65111 11.0298 7.51994C10.7026 7.38877 10.3523 7.32528 9.99988 7.3333V7.3333Z" fill="white"/>
<path d="M19.803 6.46L18.0641 3.54C17.8939 3.2537 17.6265 3.03354 17.3075 2.91708C16.9885 2.80062 16.6377 2.79509 16.315 2.90143L14.5217 3.48929C14.2126 3.28756 13.8896 3.10666 13.555 2.94786L13.1844 1.14857C13.1176 0.824602 12.937 0.533091 12.6735 0.323671C12.4099 0.114251 12.0796 -0.000130747 11.7388 1.12157e-07H8.26118C7.9204 -0.000130747 7.5901 0.114251 7.32653 0.323671C7.06295 0.533091 6.8824 0.824602 6.8156 1.14857L6.445 2.94786C6.10661 3.10492 5.77991 3.28464 5.46728 3.48571L3.68426 2.90143C3.36172 2.79546 3.01126 2.80119 2.69259 2.91763C2.37392 3.03406 2.10675 3.25401 1.9366 3.54L0.197776 6.46C0.0274391 6.74592 -0.0354758 7.08022 0.0197318 7.40604C0.0749394 7.73186 0.244861 8.02907 0.500596 8.24714L1.92333 9.45929C1.91081 9.63929 1.89534 9.81786 1.89534 10C1.89534 10.1843 1.9027 10.3664 1.91597 10.5471L0.501333 11.7529C0.245359 11.9707 0.0751549 12.2679 0.0196771 12.5937C-0.0358007 12.9195 0.0268742 13.2539 0.197039 13.54L1.93586 16.46C2.10596 16.7464 2.37333 16.9667 2.69233 17.0833C3.01133 17.1999 3.36218 17.2056 3.68499 17.0993L5.47833 16.5107C5.78728 16.7128 6.11027 16.894 6.445 17.0529L6.8156 18.8514C6.8824 19.1754 7.06295 19.4669 7.32653 19.6763C7.5901 19.8857 7.9204 20.0001 8.26118 20H11.4736V18.5714H8.26118L7.73806 16.0357C7.01441 15.7751 6.34264 15.3952 5.75242 14.9129L3.21271 15.7457L1.47389 12.8257L3.48164 11.115C3.34428 10.3763 3.34253 9.61996 3.47648 8.88071L1.47389 7.17429L3.21271 4.25429L5.73768 5.08286C6.33212 4.59981 7.00911 4.22125 7.73806 3.96429L8.26118 1.42857H11.7388L12.2619 3.96429C12.9856 4.22494 13.6573 4.60481 14.2476 5.08714L16.7873 4.25429L18.5261 7.17429L16.4646 8.92571L17.4357 10L19.4987 8.24714C19.7546 8.02926 19.9248 7.73213 19.9803 7.4063C20.0358 7.08048 19.9731 6.74608 19.803 6.46V6.46Z" fill="white"/>
<path d="M14.9091 16.9881L13.0255 15.1403L12 16.1463L14.9091 19L20 14.0059L18.9745 13L14.9091 16.9881Z" fill="white"/>
</svg>
