<svg xmlns="http://www.w3.org/2000/svg" viewBox="-29 180 28 24">
  <defs>
    <style>
      .cls-1, .cls-2 {
        fill: none;
      }

      .cls-1 {
        stroke: #0084f6;
        stroke-miterlimit: 10;
      }
    </style>
  </defs>
  <g id="Group_1186" data-name="Group 1186" transform="translate(-46 -16)">
    <g id="Group_1175" data-name="Group 1175" transform="translate(0 0)">
      <path id="Path_256" data-name="Path 256" class="cls-1" d="M39.848,28.515a4.663,4.663,0,0,0,2.106-2.376C40.01,25,37.9,25.653,36.5,28.083" transform="translate(1.672 185.687)"/>
      <path id="Path_257" data-name="Path 257" class="cls-1" d="M31.4,34.314c1.35,1.3,3.4,2.214,5.941-.486C35.666,32.208,33.344,32.262,31.4,34.314Z" transform="translate(4.018 182.426)"/>
      <path id="Path_258" data-name="Path 258" class="cls-1" d="M41.846,19.909c.864-.594,1.458-1.674,1.62-3.618-2.322-.162-4.05,1.4-4.266,4.212" transform="translate(0.43 189.973)"/>
      <path id="Path_259" data-name="Path 259" class="cls-1" d="M40.934,11.142c.594-.864.756-2.106.162-3.942-2.214.7-3.24,2.808-2.43,5.455" transform="translate(0.803 194.148)"/>
      <path id="Path_260" data-name="Path 260" class="cls-1" d="M3.706,28.515A4.663,4.663,0,0,1,1.6,26.139C3.544,25,5.65,25.653,7.055,28.083" transform="translate(17.724 185.687)"/>
      <path id="Path_261" data-name="Path 261" class="cls-1" d="M11.641,34.314c-1.35,1.3-3.4,2.214-5.941-.486C7.374,32.208,9.75,32.262,11.641,34.314Z" transform="translate(15.838 182.426)"/>
      <path id="Path_262" data-name="Path 262" class="cls-1" d="M2.62,19.914C1.756,19.32,1.162,18.24,1,16.3c2.376-.108,4.1,1.458,4.32,4.212" transform="translate(18 189.967)"/>
      <path id="Path_263" data-name="Path 263" class="cls-1" d="M4.559,11.142A4.521,4.521,0,0,1,4.4,7.2c2.214.7,3.24,2.808,2.43,5.455" transform="translate(16.602 194.148)"/>
      <path id="Path_264" data-name="Path 264" class="cls-1" d="M22.1,25v4.32l1.08-.54,1.08.54V25" transform="translate(8.295 185.961)"/>
      <path id="Path_265" data-name="Path 265" class="cls-1" d="M22.155,14.5h2.7V1H14V14.5h2.754" transform="translate(12.021 197)"/>
      <ellipse id="Ellipse_23" data-name="Ellipse 23" class="cls-1" cx="1.62" cy="1.62" rx="1.62" ry="1.62" transform="translate(29.855 208.261)"/>
      <line id="Line_175" data-name="Line 175" class="cls-1" x2="5.401" transform="translate(28.775 202.32)"/>
      <line id="Line_176" data-name="Line 176" class="cls-1" x2="3.24" transform="translate(29.855 204.481)"/>
    </g>
    <rect id="Rectangle_670" data-name="Rectangle 670" class="cls-2" width="28" height="24" transform="translate(17 196)"/>
  </g>
</svg>
