<svg width="43" height="55" viewBox="0 0 43 55" fill="none" xmlns="http://www.w3.org/2000/svg">
<path d="M42.2308 20.5379L21.9059 1.1009C21.7448 0.946428 21.561 0.946428 21.4 1.1009L13.1597 8.98108C12.8474 9.27977 12.7074 10.0631 12.8471 10.7315C12.9868 11.4 13.3533 11.6994 13.6659 11.4007L21.6528 3.76249L28.9646 10.7548V20.5167C25.0842 17.4819 21.817 17.2515 21.67 17.2427C21.6585 17.242 21.647 17.242 21.6355 17.2427C21.4779 17.2515 17.7304 17.5161 13.4869 21.2227C11.7941 22.7005 10.2476 24.5405 8.89058 26.6908C8.78895 26.8521 8.71481 27.0736 8.67454 27.3224L2.84587 21.7477L11.0171 13.9331C11.3297 13.6344 11.4697 12.8511 11.3297 12.1826C11.19 11.5142 10.8235 11.2148 10.5112 11.5135L1.0747 20.5379C0.851626 20.7511 0.70813 21.2255 0.70813 21.7477C0.70813 22.2705 0.851626 22.7442 1.0747 22.9575L8.63971 30.1931V36.5395C8.63971 37.2715 8.91743 37.8648 9.25939 37.8648C9.60167 37.8648 9.87907 37.2715 9.87907 36.5395V29.362C9.87907 29.3613 9.87907 29.3599 9.87907 29.3592V28.4303C11.0922 26.578 12.462 24.98 13.9554 23.6765C17.8391 20.2843 21.3766 19.9172 21.6531 19.8933C21.9238 19.9159 25.2277 20.2535 28.9646 23.3484V36.5183C28.0586 37.0911 27.3951 38.8873 27.3951 41.009C27.3951 42.9583 27.9551 44.6329 28.7492 45.3363L28.3159 47.7757C25.4882 48.8167 23.2491 50.2493 21.6528 52.0442C17.9759 47.9131 11.8187 46.7457 9.87939 46.4716V42.754C9.87939 42.0219 9.60167 41.4286 9.25971 41.4286C8.91743 41.4286 8.64002 42.0219 8.64002 42.754V47.7238C8.64002 48.4326 8.90113 49.0163 9.23254 49.0477C9.3134 49.0552 17.3671 49.8597 21.3463 54.7065C21.4412 54.822 21.547 54.8801 21.6531 54.8801C21.7589 54.8801 21.8646 54.822 21.9599 54.7058C23.2977 53.0749 25.3037 51.6915 27.802 50.6676L27.4357 52.7305C27.3632 53.1378 27.3891 53.5951 27.5048 53.9539C27.6205 54.3121 27.8112 54.5267 28.0148 54.5267H31.1545C31.3584 54.5267 31.5488 54.3121 31.6645 53.9539C31.7802 53.5951 31.8061 53.1378 31.7339 52.7305L31.1737 49.5774C32.8598 49.1646 34.0595 49.0484 34.0733 49.047C34.4047 49.0163 34.6661 48.4326 34.6661 47.7231V42.7533C34.6661 42.0219 34.3884 41.4279 34.0464 41.4279C33.7042 41.4279 33.4268 42.0219 33.4268 42.7533V46.4729C32.8483 46.5563 31.887 46.721 30.7195 47.0225L30.4201 45.3363C31.2139 44.6329 31.7742 42.9583 31.7742 41.009C31.7742 38.8867 31.1107 37.0911 30.2043 36.5183V24.4715C31.3683 25.6136 32.4491 26.9376 33.4268 28.4303V29.3592V29.362V36.5395C33.4268 37.2715 33.7042 37.8648 34.0464 37.8648C34.3887 37.8648 34.6661 37.2715 34.6661 36.5395V30.1931L42.2311 22.9575C42.4542 22.7442 42.5977 22.2705 42.5977 21.7477C42.5977 21.2255 42.4539 20.7511 42.2308 20.5379ZM28.9129 51.8761L29.5843 48.097L30.2558 51.8761H28.9129ZM30.5345 41.009C30.5345 42.1292 30.1085 43.0403 29.5843 43.0403C29.0605 43.0403 28.6345 42.1292 28.6345 41.009C28.6345 39.888 29.0605 38.9769 29.5843 38.9769C30.1085 38.9769 30.5345 39.888 30.5345 41.009ZM34.631 27.3224C34.5907 27.0736 34.5166 26.8521 34.4149 26.6908C33.1621 24.7052 31.746 22.9882 30.204 21.5727V11.94L40.4596 21.7477L34.631 27.3224Z" fill="#109CF1"/>
</svg>
