<svg width="17" height="17" viewBox="0 0 17 17" fill="none" xmlns="http://www.w3.org/2000/svg">
<path d="M16.8423 12.061L12.2188 16.6929L9.98584 14.4517L10.7329 13.7046L12.2188 15.1821L16.0952 11.314L16.8423 12.061ZM8.5 3.1875V7.4375H11.6875V8.5H7.4375V3.1875H8.5ZM7.96875 14.875C8.05729 14.875 8.14583 14.8722 8.23438 14.8667C8.32292 14.8612 8.41146 14.8556 8.5 14.8501L9.44629 15.7964C9.19727 15.8407 8.95101 15.8739 8.70752 15.896C8.46403 15.9181 8.21777 15.932 7.96875 15.9375C7.23828 15.9375 6.53548 15.8434 5.86035 15.6553C5.18522 15.4671 4.54883 15.1987 3.95117 14.8501C3.35352 14.5015 2.81673 14.0864 2.34082 13.605C1.86491 13.1235 1.44987 12.584 1.0957 11.9863C0.741536 11.3887 0.473145 10.755 0.290527 10.0854C0.10791 9.41585 0.0110677 8.71029 0 7.96875C0 7.23828 0.0940755 6.53548 0.282227 5.86035C0.470378 5.18522 0.73877 4.54883 1.0874 3.95117C1.43604 3.35352 1.85107 2.81673 2.33252 2.34082C2.81396 1.86491 3.35352 1.44987 3.95117 1.0957C4.54883 0.741536 5.18245 0.473145 5.85205 0.290527C6.52165 0.10791 7.22721 0.0110677 7.96875 0C8.69922 0 9.40202 0.0940755 10.0771 0.282227C10.7523 0.470378 11.3887 0.73877 11.9863 1.0874C12.584 1.43604 13.1208 1.85107 13.5967 2.33252C14.0726 2.81396 14.4876 3.35352 14.8418 3.95117C15.196 4.54883 15.4644 5.18245 15.647 5.85205C15.8296 6.52165 15.9264 7.22721 15.9375 7.96875C15.9375 8.24544 15.9209 8.5249 15.8877 8.80713L14.4932 10.21C14.7477 9.47396 14.875 8.72689 14.875 7.96875C14.875 7.33236 14.792 6.72087 14.626 6.13428C14.46 5.54769 14.2275 4.99984 13.9287 4.49072C13.6299 3.98161 13.2702 3.514 12.8496 3.08789C12.429 2.66178 11.9642 2.30208 11.4551 2.00879C10.946 1.71549 10.3953 1.48307 9.80322 1.31152C9.2111 1.13997 8.59961 1.05697 7.96875 1.0625C7.33236 1.0625 6.72087 1.14551 6.13428 1.31152C5.54769 1.47754 4.99984 1.70996 4.49072 2.00879C3.98161 2.30762 3.514 2.66732 3.08789 3.08789C2.66178 3.50846 2.30208 3.97331 2.00879 4.48242C1.71549 4.99154 1.48307 5.54215 1.31152 6.13428C1.13997 6.7264 1.05697 7.33789 1.0625 7.96875C1.0625 8.60514 1.14551 9.21663 1.31152 9.80322C1.47754 10.3898 1.70996 10.9377 2.00879 11.4468C2.30762 11.9559 2.66732 12.4235 3.08789 12.8496C3.50846 13.2757 3.97331 13.6354 4.48242 13.9287C4.99154 14.222 5.54215 14.4544 6.13428 14.626C6.7264 14.7975 7.33789 14.8805 7.96875 14.875Z" fill="#767272"/>
</svg>
