<svg xmlns="http://www.w3.org/2000/svg" viewBox="0 0 16.93 17.644">
                <defs>
                  <style>
                    .cls-1 {
                        fill: #00a2ff;
                      }
                    </style>
                </defs>
                <g id="_001-discount" data-name="001-discount" transform="translate(-778.391 -172)">
                  <g id="Group_431" data-name="Group 431" transform="translate(778.391 172)">
                    <g id="Group_430" data-name="Group 430" transform="translate(0 0)">
                      <path id="Path_82" data-name="Path 82" class="cls-1" d="M26.473,9.049a.517.517,0,0,1,0-.457l.658-1.346a1.532,1.532,0,0,0-.661-2.034l-1.324-.7a.517.517,0,0,1-.269-.37l-.259-1.476a1.532,1.532,0,0,0-1.73-1.257l-1.484.21a.517.517,0,0,1-.435-.141L19.893.433a1.532,1.532,0,0,0-2.139,0L16.678,1.475a.517.517,0,0,1-.435.141l-1.484-.21a1.532,1.532,0,0,0-1.73,1.257L12.77,4.139a.517.517,0,0,1-.269.37l-1.324.7a1.532,1.532,0,0,0-.661,2.034l.658,1.346a.517.517,0,0,1,0,.457l-.658,1.346a1.532,1.532,0,0,0,.661,2.034l1.324.7a.517.517,0,0,1,.269.37l.259,1.476a1.531,1.531,0,0,0,1.51,1.273,1.574,1.574,0,0,0,.22-.016l1.484-.21a.517.517,0,0,1,.435.141l1.077,1.042a1.532,1.532,0,0,0,2.139,0l1.077-1.042a.518.518,0,0,1,.435-.141l1.484.21a1.532,1.532,0,0,0,1.73-1.257l.259-1.476a.517.517,0,0,1,.269-.37l1.324-.7a1.532,1.532,0,0,0,.661-2.034Zm-.48,2.481-1.324.7a1.528,1.528,0,0,0-.794,1.093L23.616,14.8a.518.518,0,0,1-.585.425l-1.484-.21a1.528,1.528,0,0,0-1.285.417l-1.077,1.042a.518.518,0,0,1-.724,0l-1.077-1.042A1.527,1.527,0,0,0,16.319,15a1.562,1.562,0,0,0-.219.015l-1.484.21a.518.518,0,0,1-.585-.425l-.259-1.476a1.528,1.528,0,0,0-.794-1.093l-1.324-.7a.518.518,0,0,1-.224-.688L12.089,9.5a1.528,1.528,0,0,0,0-1.351L11.431,6.8a.518.518,0,0,1,.224-.688l1.324-.7a1.528,1.528,0,0,0,.794-1.093l.259-1.476a.518.518,0,0,1,.585-.425l1.484.21a1.528,1.528,0,0,0,1.285-.417l1.077-1.042a.518.518,0,0,1,.724,0l1.077,1.042a1.528,1.528,0,0,0,1.285.417l1.484-.21a.518.518,0,0,1,.585.425l.259,1.476a1.528,1.528,0,0,0,.794,1.093l1.324.7a.518.518,0,0,1,.224.688l-.658,1.346a1.528,1.528,0,0,0,0,1.351l.658,1.346A.518.518,0,0,1,25.993,11.53Z"
                        transform="translate(-10.359 0.002)" />
                    </g>
                  </g>
                  <g id="Group_433" data-name="Group 433" transform="translate(782.99 176.955)">
                    <g id="Group_432" data-name="Group 432">
                      <path id="Path_83" data-name="Path 83" class="cls-1" d="M151.376,143.941a.509.509,0,0,0-.72,0l-6.716,6.716a.509.509,0,1,0,.72.72l6.716-6.716A.509.509,0,0,0,151.376,143.941Z"
                        transform="translate(-143.791 -143.791)" />
                    </g>
                  </g>
                  <g id="Group_435" data-name="Group 435" transform="translate(782.955 176.243)">
                    <g id="Group_434" data-name="Group 434">
                      <path id="Path_84" data-name="Path 84" class="cls-1" d="M144.668,123.116a1.866,1.866,0,1,0,1.866,1.866A1.868,1.868,0,0,0,144.668,123.116Zm0,2.714a.848.848,0,1,1,.848-.848A.849.849,0,0,1,144.668,125.83Z"
                        transform="translate(-142.802 -123.116)" />
                    </g>
                  </g>
                  <g id="Group_437" data-name="Group 437" transform="translate(787.026 181.67)">
                    <g id="Group_436" data-name="Group 436">
                      <path id="Path_85" data-name="Path 85" class="cls-1" d="M262.788,280.61a1.866,1.866,0,1,0,1.866,1.866A1.868,1.868,0,0,0,262.788,280.61Zm0,2.714a.848.848,0,1,1,.848-.848A.849.849,0,0,1,262.788,283.324Z"
                        transform="translate(-260.922 -280.61)" />
                    </g>
                  </g>
                </g>
              </svg>