<svg width="109" height="109" viewBox="0 0 109 109" fill="none" xmlns="http://www.w3.org/2000/svg">
<path d="M54.5 0C84.5996 0 109 24.4004 109 54.5C109.017 71.3877 101.188 87.3252 87.8125 97.6348V91.4277C87.8125 73.0293 72.8985 58.1152 54.5 58.1152C36.1016 58.1152 21.1875 73.0293 21.1875 91.4277V97.6348C7.81155 87.3252 -0.0165752 71.3877 2.63527e-05 54.5C2.63527e-05 24.4004 24.4004 0 54.5 0ZM71.4405 33.6152C71.4229 25.6084 65.7549 18.7275 57.8994 17.1787C50.0449 15.6289 42.1885 19.8418 39.1319 27.2422C36.0762 34.6426 38.6709 43.1709 45.3301 47.6152C51.9893 52.0605 60.8614 51.1836 66.5225 45.5225C69.6817 42.3662 71.4522 38.0811 71.4405 33.6152Z" fill="#E0E0E0"/>
<path d="M87.8125 91.4275V97.6345C68.1895 112.788 40.8105 112.788 21.1875 97.6345V91.4275C21.1875 73.0291 36.1016 58.115 54.5 58.115C72.8984 58.115 87.8125 73.0291 87.8125 91.4275Z" fill="white"/>
<path d="M66.5226 21.7051C72.2316 27.3887 73.1281 36.3145 68.6632 43.0196C64.1994 49.7257 55.6183 52.3419 48.172 49.2667C40.7267 46.1925 36.4913 38.2852 38.0578 30.3829C39.6242 22.4815 46.5568 16.7882 54.6124 16.7872C59.0792 16.7745 63.3663 18.545 66.5226 21.7051Z" fill="white"/>
</svg>
