<svg width="30" height="40" viewBox="0 0 30 40" fill="none" xmlns="http://www.w3.org/2000/svg">
<path d="M10.0696 1.09618H3.98276C3.02523 1.09792 2.10731 1.5935 1.43023 2.47427C0.753156 3.35504 0.372187 4.54912 0.37085 5.79471V13.7136C0.371997 14.9593 0.752904 16.1535 1.43002 17.0343C2.10714 17.9152 3.02517 18.4107 3.98276 18.4121H10.0696C11.0271 18.4107 11.9452 17.9152 12.6223 17.0343C13.2994 16.1535 13.6803 14.9593 13.6815 13.7136V5.79471C13.6803 4.54904 13.2994 3.35482 12.6223 2.474C11.9452 1.59317 11.0271 1.09767 10.0696 1.09618V1.09618ZM12.2367 13.7117C12.2367 14.4594 12.0084 15.1765 11.602 15.7052C11.1955 16.2338 10.6443 16.5309 10.0696 16.5309H3.98276C3.408 16.5309 2.85677 16.2338 2.45036 15.7052C2.04394 15.1765 1.81561 14.4594 1.81561 13.7117V5.79471C1.81561 5.04704 2.04394 4.32998 2.45036 3.8013C2.85677 3.27261 3.408 2.97559 3.98276 2.97559H10.0696C10.6443 2.97559 11.1955 3.27261 11.602 3.8013C12.0084 4.32998 12.2367 5.04704 12.2367 5.79471V13.7117ZM10.0696 21.8656H3.98276C3.02517 21.8671 2.10714 22.3626 1.43002 23.2434C0.752904 24.1242 0.371997 25.3184 0.37085 26.5641V34.4811C0.371997 35.7268 0.752904 36.921 1.43002 37.8018C2.10714 38.6827 3.02517 39.1782 3.98276 39.1797H10.0696C11.0271 39.1782 11.9452 38.6827 12.6223 37.8018C13.2994 36.921 13.6803 35.7268 13.6815 34.4811V26.5641C13.6803 25.3184 13.2994 24.1242 12.6223 23.2434C11.9452 22.3626 11.0271 21.8671 10.0696 21.8656V21.8656ZM12.2367 34.4811C12.2367 35.2288 12.0084 35.9459 11.602 36.4745C11.1955 37.0032 10.6443 37.3002 10.0696 37.3002H3.98276C3.408 37.3002 2.85677 37.0032 2.45036 36.4745C2.04394 35.9459 1.81561 35.2288 1.81561 34.4811V26.5641C1.81561 25.8164 2.04394 25.0994 2.45036 24.5707C2.85677 24.042 3.408 23.745 3.98276 23.745H10.0696C10.6443 23.745 11.1955 24.042 11.602 24.5707C12.0084 25.0994 12.2367 25.8164 12.2367 26.5641V34.4811ZM26.0342 21.8656H19.9488C18.9913 21.8671 18.0732 22.3626 17.3961 23.2434C16.719 24.1242 16.3381 25.3184 16.3369 26.5641V34.4811C16.3381 35.7268 16.719 36.921 17.3961 37.8018C18.0732 38.6827 18.9913 39.1782 19.9488 39.1797H26.0349C26.9925 39.1782 27.9105 38.6827 28.5877 37.8018C29.2648 36.921 29.6457 35.7268 29.6468 34.4811V26.5641C29.6457 25.3184 29.2648 24.1242 28.5877 23.2434C27.9105 22.3626 26.9925 21.8671 26.0349 21.8656H26.0342ZM28.2013 34.4811C28.2013 35.2288 27.973 35.9459 27.5666 36.4745C27.1602 37.0032 26.609 37.3002 26.0342 37.3002H19.9488C19.3741 37.3002 18.8229 37.0032 18.4164 36.4745C18.01 35.9459 17.7817 35.2288 17.7817 34.4811V26.5641C17.7817 25.8164 18.01 25.0994 18.4164 24.5707C18.8229 24.042 19.3741 23.745 19.9488 23.745H26.0349C26.6097 23.745 27.1609 24.042 27.5673 24.5707C27.9737 25.0994 28.2021 25.8164 28.2021 26.5641L28.2013 34.4811ZM29.6938 12.1706C29.5031 11.4354 29.183 10.7684 28.759 10.2226L28.7366 8.93803C29.1415 8.36783 29.4384 7.68241 29.6035 6.93646C29.6322 6.81149 29.6406 6.68011 29.6282 6.55068C29.6157 6.42126 29.5827 6.29661 29.5312 6.18469L28.4332 3.8467C28.3808 3.73477 28.3111 3.63832 28.2283 3.56355C28.1456 3.48878 28.0518 3.43735 27.9528 3.41256C27.3684 3.26291 26.7654 3.28992 26.1902 3.49149L25.3234 2.87505C25.1455 2.13485 24.837 1.45905 24.4226 0.901662C24.3519 0.809154 24.2678 0.735783 24.1752 0.685783C24.0825 0.635783 23.9832 0.610146 23.8829 0.610353L21.7779 0.673313C21.6776 0.676464 21.5789 0.706751 21.4882 0.762244C21.3974 0.817738 21.3165 0.897222 21.2506 0.995633C20.8559 1.57856 20.5712 2.27325 20.4191 3.02446L19.5761 3.69165C18.994 3.52195 18.3895 3.53129 17.8106 3.7189C17.713 3.74971 17.6214 3.80666 17.5417 3.8861C17.462 3.96555 17.3958 4.06574 17.3475 4.1803L16.3362 6.58313C16.2878 6.69808 16.2585 6.82494 16.25 6.95554C16.2415 7.08614 16.2542 7.2176 16.2871 7.34147C16.4778 8.07666 16.7979 8.74373 17.2219 9.28948L17.2442 10.5741C16.8393 11.1443 16.5425 11.8297 16.3774 12.5756C16.3487 12.7006 16.3402 12.832 16.3527 12.9614C16.3651 13.0908 16.3981 13.2155 16.4496 13.3274L17.5448 15.6673C17.597 15.779 17.6665 15.8753 17.749 15.9501C17.8315 16.0248 17.925 16.0764 18.0237 16.1014C18.6087 16.2541 19.213 16.2271 19.7885 16.0225L20.6553 16.6399C20.8337 17.3797 21.1421 18.0554 21.5561 18.6132C21.6236 18.7053 21.7048 18.7786 21.7947 18.8287C21.8846 18.8788 21.9814 18.9046 22.0792 18.9046H22.0958L24.2015 18.8407C24.3017 18.8376 24.4004 18.8075 24.4912 18.7522C24.582 18.6968 24.6629 18.6175 24.7288 18.5193C25.1239 17.9364 25.4084 17.2413 25.5596 16.4895L26.4019 15.8223C26.9846 15.9935 27.5901 15.9841 28.1696 15.7951C28.2669 15.764 28.3582 15.707 28.4377 15.6275C28.5171 15.5481 28.583 15.448 28.6312 15.3337L29.6425 12.9299C29.6913 12.815 29.7211 12.6881 29.73 12.5573C29.7388 12.4266 29.7265 12.2948 29.6938 12.1706ZM27.5317 14.0369C27.3034 14.0842 27.0708 14.0842 26.8425 14.0369C26.7272 13.9071 26.5833 13.8281 26.4313 13.8112C26.2794 13.7943 26.1272 13.8404 25.9966 13.9429L24.4688 15.1523C24.3383 15.2554 24.2363 15.4096 24.1774 15.5927C24.1185 15.7759 24.1057 15.9787 24.1408 16.1719C24.0686 16.4576 23.9623 16.7269 23.8259 16.9697L22.4086 17.012C22.264 16.7777 22.1485 16.5155 22.0661 16.2348C22.0947 16.0401 22.0751 15.8386 22.0102 15.6591C21.9453 15.4797 21.8385 15.3316 21.705 15.2359L20.1352 14.1196C20.0015 14.0245 19.8481 13.9868 19.697 14.0119C19.5458 14.0371 19.4046 14.1238 19.2936 14.2596C19.0673 14.3203 18.8351 14.3352 18.6052 14.3038L17.8684 12.7288C17.9518 12.4479 18.0688 12.186 18.2151 11.9526C18.3589 11.8868 18.483 11.7636 18.5696 11.6006C18.6563 11.4375 18.7011 11.243 18.6977 11.0449L18.6565 8.72002C18.6532 8.52153 18.6016 8.3295 18.5092 8.17149C18.4168 8.01347 18.2883 7.89759 18.1422 7.84045C17.9878 7.61709 17.8615 7.36337 17.768 7.08869L18.4485 5.47239C18.6766 5.42605 18.9088 5.42605 19.1369 5.47239C19.2523 5.60242 19.3964 5.68155 19.5485 5.69843C19.7006 5.71531 19.8529 5.66908 19.9835 5.56636L21.5114 4.35696C21.6418 4.25388 21.7438 4.0997 21.8028 3.91652C21.8617 3.73335 21.8745 3.53061 21.8393 3.33738C21.911 3.05161 22.0173 2.78259 22.1543 2.54051L23.5716 2.49822C23.7162 2.73209 23.8317 2.994 23.914 3.27442C23.8857 3.46906 23.9053 3.67037 23.9702 3.8496C24.0351 4.02882 24.1418 4.1768 24.2752 4.27239L25.8449 5.3897C25.9787 5.48469 26.1321 5.52221 26.2833 5.4969C26.4345 5.47158 26.5756 5.38472 26.6865 5.24874C26.9128 5.18733 27.1452 5.17306 27.3749 5.20646L28.1118 6.78047C28.0282 7.06108 27.9115 7.32298 27.7657 7.55666C27.622 7.62221 27.4978 7.74522 27.411 7.90808C27.3242 8.07095 27.2792 8.26535 27.2825 8.46348L27.3236 10.7902C27.327 10.9888 27.3787 11.1809 27.4712 11.3389C27.5637 11.497 27.6924 11.6128 27.8387 11.6698C27.9924 11.8935 28.1182 12.1471 28.2115 12.4215L27.5317 14.0369ZM24.2355 6.78892C23.7845 6.47111 23.2713 6.33389 22.7605 6.39452C22.2497 6.45514 21.7641 6.71091 21.3647 7.12965C20.9654 7.54839 20.6702 8.11139 20.5162 8.74784C20.3622 9.3843 20.3563 10.0658 20.4993 10.7066C20.6448 11.3467 20.9327 11.9165 21.3267 12.3443C21.7206 12.7721 22.2031 13.0386 22.7133 13.1105C23.2235 13.1823 23.7386 13.0562 24.1938 12.748C24.649 12.4398 25.0239 11.9633 25.2714 11.3784C25.6019 10.5916 25.6788 9.66614 25.4851 8.80554C25.2914 7.94495 24.843 7.21961 24.2383 6.78892H24.2355ZM24.0007 10.4726C23.8912 10.7319 23.7252 10.9432 23.5235 11.0798C23.3218 11.2164 23.0935 11.2723 22.8674 11.2402C22.6413 11.2082 22.4276 11.0898 22.2533 10.8999C22.0789 10.7099 21.9517 10.4571 21.8877 10.1732C21.8237 9.88934 21.8258 9.58717 21.8938 9.30485C21.9617 9.02254 22.0924 8.77274 22.2694 8.587C22.4464 8.40125 22.6618 8.28789 22.8883 8.26123C23.1147 8.23456 23.3422 8.29578 23.542 8.43717C23.6751 8.53121 23.7928 8.65851 23.8881 8.81177C23.9834 8.96503 24.0545 9.14123 24.0974 9.3303C24.1402 9.51937 24.154 9.71758 24.1379 9.91359C24.1218 10.1096 24.0762 10.2995 24.0036 10.4726H24.0007Z" fill="#109CF1"/>
</svg>
