<svg xmlns="http://www.w3.org/2000/svg" width="10.68" height="14.053" viewBox="0 0 10.68 14.053">
  <defs>
    <style>
      .cls-1 {
        fill: #969696;
      }
    </style>
  </defs>
  <path id="exam-a-plus" class="cls-1" d="M32.384,10.839h1.734l-1.875,2V10.98A.141.141,0,0,1,32.384,10.839ZM30.291,3.076l.535-.069-.334-.479ZM35.162.344V10.15H32.384a.831.831,0,0,0-.83.83v3.073H24.826a.344.344,0,0,1-.344-.344V.344A.344.344,0,0,1,24.826,0h9.991A.344.344,0,0,1,35.162.344ZM29.391,4.53a.344.344,0,0,0,.442-.2l.19-.52,1.246-.161.317.454a.344.344,0,0,0,.565-.394L30.678,1.591l0,0a.335.335,0,0,0-.032-.038l-.012-.014a.35.35,0,0,0-.03-.023c-.008-.006-.015-.013-.024-.018l-.021-.01a.337.337,0,0,0-.041-.02h0l-.024-.006a.346.346,0,0,0-.038-.01.317.317,0,0,0-.034,0l-.032,0-.034,0-.032,0a.343.343,0,0,0-.033.011l-.03.011a.35.35,0,0,0-.038.021l-.019.01,0,0a.346.346,0,0,0-.039.033l-.013.012a.34.34,0,0,0-.022.029c-.006.008-.014.016-.019.025s-.006.012-.009.018a.345.345,0,0,0-.021.043v0l-.886,2.418A.344.344,0,0,0,29.391,4.53Zm.906,5.964a.344.344,0,0,0-.344-.344H26.464a.344.344,0,0,0,0,.689h3.489A.344.344,0,0,0,30.3,10.494Zm1.464-2.1a.344.344,0,0,0-.344-.344H26.464a.344.344,0,0,0,0,.689h4.954A.344.344,0,0,0,31.762,8.393Zm1.074-2.1a.344.344,0,0,0-.344-.344H26.464a.344.344,0,0,0,0,.689h6.028A.344.344,0,0,0,32.836,6.292Zm1.312-4.086a.344.344,0,0,0-.386-.3l-.46.06-.06-.46a.344.344,0,0,0-.683.088l.06.46-.46.06A.344.344,0,0,0,32.2,2.8l.045,0,.46-.06.06.46a.345.345,0,0,0,.341.3l.045,0a.344.344,0,0,0,.3-.386l-.06-.46.46-.06A.344.344,0,0,0,34.148,2.206Z" transform="translate(-24.482)"/>
</svg>
