<svg width="36" height="20" viewBox="0 0 36 20" fill="none" xmlns="http://www.w3.org/2000/svg">
<g clip-path="url(#clip0)">
<path d="M32.1569 0H7.84314C6.11765 0 4.70588 1.38462 4.70588 3.07692V4.23077C4.70588 4.65385 5.05882 5 5.4902 5C5.92157 5 6.27451 4.65385 6.27451 4.23077V3.07692C6.27451 2.92308 6.31373 2.76923 6.35294 2.61538L15.1373 10L6.35294 17.3846C6.31373 17.2308 6.27451 17.0769 6.27451 16.9231V15.7692C6.27451 15.3462 5.92157 15 5.4902 15C5.05882 15 4.70588 15.3462 4.70588 15.7692V16.9231C4.70588 18.6154 6.11765 20 7.84314 20H32.1569C33.8824 20 35.2941 18.6154 35.2941 16.9231V3.07692C35.2941 1.38462 33.8824 0 32.1569 0ZM7.52941 1.57692C7.60784 1.53846 7.72549 1.53846 7.84314 1.53846H32.1569C32.2745 1.53846 32.3922 1.53846 32.4706 1.57692L20.5098 11.6154C20.1961 11.8462 19.8039 11.8462 19.4902 11.6154L7.52941 1.57692ZM32.1569 18.4615H7.84314C7.72549 18.4615 7.60784 18.4615 7.52941 18.4231L16.3529 11L18.4706 12.8077C18.902 13.1923 19.451 13.3846 20 13.3846C20.549 13.3846 21.098 13.1923 21.5294 12.8077L23.6471 11L32.4706 18.4231C32.3922 18.4615 32.2745 18.4615 32.1569 18.4615ZM33.7255 16.9231C33.7255 17.0769 33.6863 17.2308 33.6471 17.3846L24.8627 10L33.6471 2.61538C33.6863 2.76923 33.7255 2.92308 33.7255 3.07692V16.9231V16.9231ZM2.35294 8.07692C2.35294 7.65385 2.70588 7.30769 3.13725 7.30769H7.84314C8.27451 7.30769 8.62745 7.65385 8.62745 8.07692C8.62745 8.5 8.27451 8.84615 7.84314 8.84615H3.13725C2.70588 8.84615 2.35294 8.5 2.35294 8.07692ZM7.84314 12.6923H0.784314C0.352941 12.6923 0 12.3462 0 11.9231C0 11.5 0.352941 11.1538 0.784314 11.1538H7.84314C8.27451 11.1538 8.62745 11.5 8.62745 11.9231C8.62745 12.3462 8.27451 12.6923 7.84314 12.6923Z" fill="#109CF1"/>
</g>
<defs>
<clipPath id="clip0">
<rect width="35.2941" height="20" fill="white"/>
</clipPath>
</defs>
</svg>
