<svg width="77" height="77" viewBox="0 0 77 77" fill="none" xmlns="http://www.w3.org/2000/svg">
<circle cx="38.5" cy="38.5" r="37" stroke="#CBD3DA" stroke-width="3"/>
<path d="M45.0705 38.5876L38.9593 28.9155C38.9047 28.8292 38.8328 28.7589 38.7495 28.7104C38.6661 28.6618 38.5738 28.6365 38.4801 28.6364H38.4787C38.3846 28.6366 38.292 28.6622 38.2084 28.7111C38.1249 28.76 38.0529 28.8308 37.9983 28.9176L31.9265 38.5898C31.8637 38.6898 31.8265 38.8074 31.8189 38.9298C31.8113 39.0522 31.8337 39.1746 31.8836 39.2835C31.9331 39.3926 32.0083 39.484 32.1009 39.5478C32.1934 39.6116 32.2997 39.6452 32.408 39.6449H35.2656L35.2653 48.332C35.2653 48.4198 35.2805 48.5067 35.3102 48.5878C35.3398 48.6688 35.3833 48.7425 35.4381 48.8045C35.4929 48.8666 35.558 48.9158 35.6296 48.9493C35.7012 48.9828 35.778 49.0001 35.8555 49L41.1425 48.9997C41.22 48.9998 41.2968 48.9825 41.3684 48.9489C41.44 48.9153 41.5051 48.8661 41.5599 48.804C41.6147 48.7419 41.6582 48.6682 41.6878 48.5871C41.7175 48.506 41.7327 48.419 41.7326 48.3312V39.6452H44.5911C44.8116 39.6452 45.014 39.5044 45.1158 39.2822C45.1655 39.1729 45.1875 39.0502 45.1795 38.9277C45.1715 38.8051 45.1338 38.6875 45.0705 38.5876Z" fill="#0097F9"/>
</svg>
