<svg width="33" height="42" viewBox="0 0 33 42" fill="none" xmlns="http://www.w3.org/2000/svg">
<path d="M10.0205 10.094C9.86588 9.76862 9.64188 9.51795 9.34854 9.34195C9.05521 9.16062 8.71388 9.06995 8.32454 9.06995C7.93521 9.06995 7.58321 9.16062 7.26854 9.34195C6.95921 9.51795 6.71388 9.77395 6.53254 10.11C6.35654 10.4406 6.26854 10.8246 6.26854 11.262C6.26854 11.6993 6.35654 12.0833 6.53254 12.414C6.71388 12.7446 6.95921 13.0006 7.26854 13.182C7.58321 13.358 7.93521 13.446 8.32454 13.446C8.86854 13.446 9.31654 13.2833 9.66854 12.958C10.0205 12.6326 10.2259 12.1926 10.2845 11.638H8.06054V11.046H11.0605V11.606C11.0179 12.0646 10.8739 12.486 10.6285 12.87C10.3832 13.2486 10.0605 13.55 9.66054 13.774C9.26054 13.9926 8.81521 14.102 8.32454 14.102C7.80721 14.102 7.33521 13.982 6.90854 13.742C6.48188 13.4966 6.14321 13.158 5.89254 12.726C5.64721 12.294 5.52454 11.806 5.52454 11.262C5.52454 10.718 5.64721 10.23 5.89254 9.79796C6.14321 9.36062 6.48188 9.02195 6.90854 8.78195C7.33521 8.53662 7.80721 8.41395 8.32454 8.41395C8.91654 8.41395 9.43921 8.56062 9.89254 8.85395C10.3512 9.14729 10.6845 9.56062 10.8925 10.094H10.0205ZM13.8711 14.11C13.5031 14.11 13.1724 14.046 12.8791 13.918C12.5911 13.7846 12.3644 13.6033 12.1991 13.374C12.0338 13.1393 11.9484 12.87 11.9431 12.566H12.7191C12.7458 12.8273 12.8524 13.0486 13.0391 13.23C13.2311 13.406 13.5084 13.494 13.8711 13.494C14.2178 13.494 14.4898 13.4086 14.6871 13.238C14.8898 13.062 14.9911 12.838 14.9911 12.566C14.9911 12.3526 14.9324 12.1793 14.8151 12.046C14.6978 11.9126 14.5511 11.8113 14.3751 11.742C14.1991 11.6726 13.9618 11.598 13.6631 11.518C13.2951 11.422 12.9991 11.326 12.7751 11.23C12.5564 11.134 12.3671 10.9846 12.2071 10.782C12.0524 10.574 11.9751 10.2966 11.9751 9.94995C11.9751 9.64595 12.0524 9.37662 12.2071 9.14195C12.3618 8.90729 12.5778 8.72595 12.8551 8.59795C13.1378 8.46995 13.4604 8.40595 13.8231 8.40595C14.3458 8.40595 14.7724 8.53662 15.1031 8.79796C15.4391 9.05929 15.6284 9.40595 15.6711 9.83795H14.8711C14.8444 9.62462 14.7324 9.43795 14.5351 9.27796C14.3378 9.11262 14.0764 9.02995 13.7511 9.02995C13.4471 9.02995 13.1991 9.10995 13.0071 9.26995C12.8151 9.42462 12.7191 9.64329 12.7191 9.92595C12.7191 10.1286 12.7751 10.294 12.8871 10.422C13.0044 10.55 13.1458 10.6486 13.3111 10.718C13.4818 10.782 13.7191 10.8566 14.0231 10.942C14.3911 11.0433 14.6871 11.1446 14.9111 11.246C15.1351 11.342 15.3271 11.494 15.4871 11.702C15.6471 11.9046 15.7271 12.182 15.7271 12.534C15.7271 12.806 15.6551 13.062 15.5111 13.302C15.3671 13.542 15.1538 13.7366 14.8711 13.886C14.5884 14.0353 14.2551 14.11 13.8711 14.11ZM20.3104 8.47795V9.06995H18.7904V14.054H18.0624V9.06995H16.5344V8.47795H20.3104Z" fill="#1FA2F2"/>
<rect x="0.992383" y="0.454419" width="30.8172" height="41.0462" rx="3.7" stroke="#109CF1" stroke-width="0.6"/>
</svg>
