<svg width="26" height="25" viewBox="0 0 26 25" fill="none" xmlns="http://www.w3.org/2000/svg">
<path d="M10.2661 15.8608C10.4936 15.8609 10.712 15.7713 10.8738 15.6114L10.8745 15.6107L12.9554 13.5298L15.036 15.6104C15.0361 15.6105 15.0362 15.6106 15.0363 15.6107C15.1161 15.6908 15.2109 15.7545 15.3153 15.7979C15.4199 15.8414 15.532 15.8638 15.6452 15.8638C15.7584 15.8638 15.8705 15.8414 15.9751 15.7979C16.0795 15.7545 16.1744 15.6908 16.2542 15.6105C16.4155 15.449 16.506 15.2301 16.506 15.0019C16.506 14.7736 16.4154 14.5547 16.2541 14.3931L16.254 14.3931L14.1731 12.3121L16.254 10.2312L16.254 10.2312L16.2551 10.2301C16.4138 10.068 16.5022 9.84989 16.501 9.62308C16.4999 9.39627 16.4093 9.17907 16.249 9.01861L16.2489 9.0185C16.0874 8.85716 15.8685 8.76653 15.6402 8.76653C15.4119 8.76653 15.1929 8.85716 15.0314 9.0185L15.0313 9.01855L12.9554 11.0945L10.8745 9.01353C10.713 8.85206 10.494 8.76134 10.2656 8.76134C10.0373 8.76134 9.81828 8.85206 9.65681 9.01353C9.49534 9.175 9.40463 9.394 9.40463 9.62235C9.40463 9.85071 9.49534 10.0697 9.65681 10.2312L11.7378 12.3121L9.65681 14.3931L9.65675 14.3931C9.49541 14.5547 9.40479 14.7736 9.40479 15.0019C9.40479 15.2302 9.49541 15.4492 9.65675 15.6107L9.65681 15.6107C9.73683 15.6907 9.83196 15.7541 9.93666 15.797C10.0412 15.8398 10.1531 15.8615 10.2661 15.8608ZM10.2661 15.8608C10.2659 15.8608 10.2657 15.8608 10.2654 15.8608L10.2656 15.7108L10.2667 15.8608C10.2665 15.8608 10.2663 15.8608 10.2661 15.8608Z" fill="#DEE5EA" stroke="white" stroke-width="0.3"/>
<path d="M12.9559 0.6H12.9554C10.639 0.6 8.37459 1.2869 6.44854 2.57385C4.52249 3.8608 3.02131 5.68998 2.13485 7.83009C1.24839 9.97021 1.01645 12.3251 1.46836 14.5971C1.92028 16.869 3.03575 18.9559 4.67372 20.5939C6.31169 22.2318 8.39859 23.3473 10.6705 23.7992C12.9425 24.2511 15.2974 24.0192 17.4375 23.1327C19.5776 22.2463 21.4068 20.7451 22.6937 18.819C23.9807 16.893 24.6676 14.6286 24.6676 12.3121V12.3117C24.6641 9.20661 23.4291 6.2297 21.2335 4.03408C19.0379 1.83846 16.061 0.603445 12.9559 0.6ZM12.955 21.8115C11.0764 21.8114 9.23993 21.2543 7.67788 20.2106C6.11572 19.1668 4.89816 17.6832 4.17917 15.9474C3.46019 14.2116 3.27207 12.3016 3.6386 10.4589C4.00514 8.6162 4.90987 6.92357 6.23838 5.59506C7.56689 4.26655 9.25951 3.36182 11.1022 2.99529C12.9449 2.62875 14.8549 2.81687 16.5907 3.53586C18.3265 4.25484 19.8101 5.4724 20.8539 7.03456C21.8976 8.59662 22.4547 10.4331 22.4548 12.3117C22.4523 14.8304 21.4506 17.2453 19.6696 19.0263C17.8886 20.8073 15.4738 21.8089 12.955 21.8115Z" fill="#DEE5EA" stroke="white" stroke-width="0.8"/>
</svg>
