<svg width="44" height="53" viewBox="0 0 44 53" fill="none" xmlns="http://www.w3.org/2000/svg">
<path d="M21.8982 25.0317C16.7261 25.0317 12.5039 19.5393 12.5039 12.8111C12.5039 6.08296 16.7261 0.590576 21.8982 0.590576C27.0704 0.590576 31.2925 6.08296 31.2925 12.8111C31.2925 19.5393 27.0704 25.0317 21.8982 25.0317ZM21.8982 2.87907C17.6761 2.87907 14.2631 7.31874 14.2631 12.8111C14.2631 18.3035 17.6761 22.7432 21.8982 22.7432C26.1204 22.7432 29.5333 18.3035 29.5333 12.8111C29.5333 7.31874 26.1204 2.87907 21.8982 2.87907Z" fill="#334D6E"/>
<path d="M33.7554 52.0359C28.5833 52.0359 24.3611 46.5436 24.3611 39.8154C24.3611 33.0872 28.5833 27.5948 33.7554 27.5948C38.9276 27.5948 43.1497 33.0872 43.1497 39.8154C43.1497 46.5436 38.9276 52.0359 33.7554 52.0359ZM33.7554 29.8833C29.5332 29.8833 26.1203 34.323 26.1203 39.8154C26.1203 45.3078 29.5332 49.7474 33.7554 49.7474C37.9776 49.7474 41.3905 45.3078 41.3905 39.8154C41.3905 34.323 37.9776 29.8833 33.7554 29.8833Z" fill="#334D6E"/>
<path d="M9.61893 52.0359C4.44677 52.0359 0.224609 46.5436 0.224609 39.8154C0.224609 33.0872 4.44677 27.5948 9.61893 27.5948C14.7911 27.5948 19.0132 33.0872 19.0132 39.8154C19.0132 46.5436 14.7911 52.0359 9.61893 52.0359ZM9.61893 29.8833C5.39676 29.8833 1.98385 34.323 1.98385 39.8154C1.98385 45.3078 5.39676 49.7474 9.61893 49.7474C13.8411 49.7474 17.254 45.3078 17.254 39.8154C17.254 34.323 13.8411 29.8833 9.61893 29.8833Z" fill="#334D6E"/>
</svg>
