<svg width="40" height="52" viewBox="0 0 40 52" fill="none" xmlns="http://www.w3.org/2000/svg">
<path d="M18.8305 51.0505L18.2898 51.3418C17.0388 52.0156 15.341 51.5758 14.3839 50.3311L13.97 49.7928C13.438 49.1009 12.2937 48.4845 11.5418 48.4844L10.9566 48.4843C9.60262 48.4842 8.1633 47.2326 7.64525 45.6062L7.42121 44.9028C7.13327 43.9988 6.25739 42.8597 5.56277 42.4853L5.02207 42.1939C3.77123 41.5197 2.8097 39.6469 2.80956 37.8864L2.80951 37.125C2.80943 36.1465 2.33531 34.658 1.8037 33.9664L1.38991 33.428C0.432615 32.1824 0.095164 29.9735 0.612955 28.3469L0.836877 27.6435C1.12468 26.7394 1.12454 25.1283 0.836877 24.2246L0.612955 23.5212C0.0949466 21.8939 0.433016 19.6852 1.38991 18.4402L1.8037 17.9018C2.33557 17.2097 2.80943 15.7212 2.80951 14.7431L2.80956 13.9817C2.8097 12.2205 3.77176 10.3482 5.02207 9.67427L5.56277 9.38286C6.25773 9.00828 7.13341 7.86889 7.42121 6.96529L7.64525 6.26195C8.16351 4.6348 9.60319 3.38396 10.9566 3.38378L11.5418 3.38371C12.2941 3.38361 13.4383 2.76688 13.97 2.07534L14.3839 1.53705C15.3414 0.29176 17.0394 -0.147194 18.2898 0.526371L18.8305 0.817641C19.5256 1.19203 20.7641 1.19185 21.4588 0.817641L21.9996 0.526371C23.2505 -0.147477 24.9484 0.292281 25.9054 1.53705L26.3193 2.07534C26.8513 2.76722 27.9957 3.38361 28.7476 3.38371L29.3328 3.38378C30.6867 3.38396 32.1261 4.63548 32.6441 6.26195L32.8681 6.96529C33.1561 7.86933 34.032 9.00846 34.7266 9.38286L35.2673 9.67427C36.5181 10.3485 37.4797 12.2212 37.4798 13.9817L37.4799 14.7431C37.4799 15.7217 37.9541 17.2101 38.4857 17.9018L38.8995 18.4402C39.8567 19.6857 40.1942 21.8946 39.6764 23.5212L39.4525 24.2246C39.1647 25.1287 39.1648 26.7399 39.4525 27.6435L39.6764 28.3469C40.1944 29.9742 39.8563 32.1829 38.8995 33.428L38.4857 33.9664C37.9538 34.6584 37.4799 36.1469 37.4799 37.125L37.4798 37.8864C37.4797 39.6477 36.5176 41.52 35.2673 42.1939L34.7266 42.4853C34.0316 42.8598 33.156 43.9992 32.8681 44.9028L32.6441 45.6062C32.1258 47.2333 30.6862 48.4842 29.3328 48.4843L28.7476 48.4844C27.9953 48.4845 26.8511 49.1012 26.3193 49.7928L25.9054 50.3311C24.948 51.5764 23.25 52.0153 21.9996 51.3418L21.4588 51.0505C20.7638 50.6761 19.5252 50.6763 18.8305 51.0505ZM22.6871 49.1819C23.2662 49.4938 24.1914 49.2547 24.6349 48.6779L25.0488 48.1396C25.9174 47.0099 27.5185 46.1469 28.7473 46.1467L29.3326 46.1466C29.9594 46.1465 30.7438 45.465 30.9839 44.7114L31.2079 44.008C31.6781 42.5319 32.9035 40.9375 34.0387 40.3256L34.5794 40.0342C35.1585 39.7221 35.6827 38.7019 35.6827 37.8861L35.6828 37.1248C35.6829 35.527 36.346 33.4439 37.2148 32.3135L37.6286 31.7751C38.0718 31.1985 38.256 29.9951 38.016 29.2413L37.7921 28.5379C37.3222 27.0616 37.322 24.8071 37.7921 23.3302L38.016 22.6268C38.2559 21.8735 38.072 20.6699 37.6286 20.093L37.2148 19.5546C36.3463 18.4247 35.6829 16.3418 35.6828 14.7433L35.6827 13.982C35.6827 13.1666 35.1587 12.1462 34.5794 11.834L34.0387 11.5425C32.9039 10.9309 31.6783 9.33688 31.2079 7.86012L30.9839 7.15677C30.7439 6.40349 29.9597 5.72159 29.3326 5.7215L28.7473 5.72143C27.519 5.72126 25.9177 4.85871 25.0488 3.72852L24.6349 3.19023C24.1916 2.61373 23.2665 2.37413 22.6871 2.68624L22.1463 2.97751C21.0115 3.58882 19.2784 3.58907 18.143 2.97751L17.6023 2.68624C17.0232 2.37428 16.098 2.61345 15.6545 3.19023L15.2406 3.72852C14.372 4.85824 12.7708 5.72126 11.542 5.72143L10.9567 5.7215C10.3299 5.72159 9.54554 6.40312 9.30549 7.15677L9.08146 7.86012C8.61129 9.33627 7.38589 10.9307 6.25066 11.5425L5.70996 11.834C5.1309 12.1461 4.60671 13.1662 4.60664 13.982L4.60659 14.7433C4.60646 16.3411 3.94338 18.4242 3.07456 19.5546L2.66077 20.093C2.2176 20.6696 2.03339 21.8731 2.27331 22.6268L2.49723 23.3302C2.96717 24.8065 2.96736 27.061 2.49723 28.5379L2.27331 29.2413C2.0335 29.9947 2.21738 31.1982 2.66077 31.7751L3.07456 32.3135C3.94301 33.4435 4.60646 35.5263 4.60659 37.1248L4.60664 37.8861C4.60671 38.7015 5.13061 39.7219 5.70996 40.0342L6.25066 40.3256C7.38541 40.9372 8.6111 42.5312 9.08146 44.008L9.30549 44.7114C9.54542 45.4646 10.3296 46.1465 10.9567 46.1466L11.542 46.1467C12.7703 46.1469 14.3716 47.0094 15.2406 48.1396L15.6545 48.6779C16.0978 49.2544 17.0229 49.494 17.6023 49.1819L18.143 48.8906C19.2779 48.2793 21.011 48.2791 22.1463 48.8906L22.6871 49.1819ZM11.7947 38.4491L10.5239 36.7962L28.4929 13.419L29.7637 15.0719L11.7947 38.4491ZM14.7534 23.5963C12.7684 23.5963 11.1593 21.5031 11.1593 18.9209C11.1593 16.3387 12.7684 14.2455 14.7534 14.2455C16.7384 14.2455 18.3476 16.3387 18.3476 18.9209C18.3476 21.5031 16.7384 23.5963 14.7534 23.5963ZM14.7534 21.2586C15.7459 21.2586 16.5505 20.212 16.5505 18.9209C16.5505 17.6298 15.7459 16.5832 14.7534 16.5832C13.7609 16.5832 12.9564 17.6298 12.9564 18.9209C12.9564 20.212 13.7609 21.2586 14.7534 21.2586ZM25.5359 37.6227C23.5509 37.6227 21.9418 35.5294 21.9418 32.9472C21.9418 30.3651 23.5509 28.2718 25.5359 28.2718C27.5209 28.2718 29.1301 30.3651 29.1301 32.9472C29.1301 35.5294 27.5209 37.6227 25.5359 37.6227ZM25.5359 35.2849C26.5284 35.2849 27.333 34.2383 27.333 32.9472C27.333 31.6561 26.5284 30.6095 25.5359 30.6095C24.5434 30.6095 23.7388 31.6561 23.7388 32.9472C23.7388 34.2383 24.5434 35.2849 25.5359 35.2849Z" fill="#109CF1"/>
</svg>
