<svg width="24" height="56" viewBox="0 0 24 56" fill="none" xmlns="http://www.w3.org/2000/svg">
<path d="M20.6861 55.9593H3.12367C2.47699 55.958 1.85701 55.5368 1.39974 54.788C0.94246 54.0393 0.685223 53.024 0.684448 51.9651V4.03473C0.685223 2.97579 0.94246 1.96058 1.39974 1.2118C1.85701 0.463019 2.47699 0.0417958 3.12367 0.0405273H20.6861C21.3328 0.0417958 21.9527 0.463019 22.41 1.2118C22.8673 1.96058 23.1245 2.97579 23.1253 4.03473V51.9651C23.1245 53.024 22.8673 54.0393 22.41 54.788C21.9527 55.5368 21.3328 55.958 20.6861 55.9593ZM3.12367 1.63821C2.73552 1.63821 2.36326 1.8907 2.0888 2.34013C1.81433 2.78957 1.66014 3.39913 1.66014 4.03473V51.9651C1.66014 52.6007 1.81433 53.2103 2.0888 53.6597C2.36326 54.1091 2.73552 54.3616 3.12367 54.3616H20.6861C21.0742 54.3616 21.4465 54.1091 21.7209 53.6597C21.9954 53.2103 22.1496 52.6007 22.1496 51.9651V4.03473C22.1496 3.39913 21.9954 2.78957 21.7209 2.34013C21.4465 1.8907 21.0742 1.63821 20.6861 1.63821H3.12367Z" fill="#109CF1"/>
<path d="M11.9049 52.7638C11.6155 52.7638 11.3325 52.6233 11.0918 52.3599C10.8512 52.0966 10.6636 51.7223 10.5528 51.2844C10.442 50.8465 10.4131 50.3647 10.4695 49.8998C10.526 49.4349 10.6654 49.0079 10.8701 48.6727C11.0747 48.3376 11.3355 48.1093 11.6194 48.0168C11.9033 47.9244 12.1976 47.9718 12.465 48.1532C12.7324 48.3346 12.961 48.6418 13.1218 49.0359C13.2826 49.43 13.3685 49.8933 13.3685 50.3673C13.3685 51.0029 13.2143 51.6125 12.9398 52.0619C12.6653 52.5113 12.2931 52.7638 11.9049 52.7638ZM11.9049 49.5685C11.8085 49.5685 11.7141 49.6153 11.6339 49.7031C11.5537 49.7909 11.4912 49.9156 11.4542 50.0616C11.4173 50.2076 11.4076 50.3682 11.4265 50.5232C11.4453 50.6781 11.4918 50.8205 11.56 50.9322C11.6282 51.0439 11.7151 51.12 11.8098 51.1508C11.9044 51.1816 12.0025 51.1658 12.0916 51.1053C12.1808 51.0449 12.257 50.9425 12.3106 50.8111C12.3642 50.6798 12.3928 50.5253 12.3928 50.3673C12.3928 50.1554 12.3414 49.9523 12.2499 49.8024C12.1584 49.6526 12.0343 49.5685 11.9049 49.5685Z" fill="#109CF1"/>
<path d="M1.17236 44.7755H22.6375V46.3712H1.17236V44.7755Z" fill="#109CF1"/>
<path d="M1.17236 6.43103H22.6375V8.02675H1.17236V6.43103Z" fill="#109CF1"/>
<path d="M9.4657 3.23581H14.3441V4.83153H9.4657V3.23581Z" fill="#109CF1"/>
<path d="M5.5628 33.5919C5.43341 33.5919 5.30933 33.5077 5.21784 33.3579C5.12635 33.2081 5.07495 33.0049 5.07495 32.793V23.207C5.07495 22.9951 5.12635 22.7919 5.21784 22.6421C5.30933 22.4923 5.43341 22.4081 5.5628 22.4081H6.78241C7.36464 22.4081 7.92302 22.7868 8.33472 23.461C8.74642 24.1351 8.97771 25.0495 8.97771 26.0029C8.97771 26.9563 8.74642 27.8706 8.33472 28.5448C7.92302 29.2189 7.36464 29.5977 6.78241 29.5977H6.05064V32.793C6.05064 33.0049 5.99924 33.2081 5.90775 33.3579C5.81627 33.5077 5.69218 33.5919 5.5628 33.5919ZM6.05064 28H6.78241C7.10587 28 7.41608 27.7896 7.6448 27.4151C7.87352 27.0405 8.00202 26.5326 8.00202 26.0029C8.00202 25.4732 7.87352 24.9653 7.6448 24.5907C7.41608 24.2162 7.10587 24.0058 6.78241 24.0058H6.05064V28Z" fill="#109CF1"/>
<path d="M13.3685 33.5917C13.2662 33.5916 13.1665 33.5388 13.0835 33.4407C13.0005 33.3427 12.9384 33.2043 12.9061 33.0453L11.4172 25.7328L9.92827 33.0453C9.90799 33.145 9.87592 33.2371 9.8339 33.3165C9.79188 33.3959 9.74072 33.4609 9.68335 33.5079C9.62597 33.5549 9.56351 33.5829 9.49952 33.5904C9.43553 33.5979 9.37127 33.5846 9.31041 33.5514C9.1875 33.4843 9.08588 33.3401 9.02792 33.1503C8.99923 33.0564 8.98211 32.9541 8.97755 32.8493C8.973 32.7446 8.98109 32.6393 9.00136 32.5397L10.9527 22.9536C10.9848 22.7938 11.0469 22.6546 11.1301 22.556C11.2133 22.4573 11.3135 22.4042 11.4162 22.4042C11.5189 22.4042 11.619 22.4573 11.7023 22.556C11.7855 22.6546 11.8476 22.7938 11.8796 22.9536L13.831 32.5397C13.8555 32.6597 13.8623 32.7876 13.8507 32.9128C13.8391 33.038 13.8094 33.1568 13.7643 33.2596C13.7191 33.3623 13.6597 33.446 13.5909 33.5038C13.5221 33.5615 13.4459 33.5917 13.3685 33.5917Z" fill="#109CF1"/>
<path d="M12.8806 31.1932H9.95354C9.82416 31.1932 9.70007 31.1091 9.60858 30.9595C9.5171 30.8099 9.4657 30.6069 9.4657 30.3953C9.4657 30.1837 9.5171 29.9808 9.60858 29.8311C9.70007 29.6815 9.82416 29.5975 9.95354 29.5975H12.8806C13.01 29.5975 13.1341 29.6815 13.2256 29.8311C13.3171 29.9808 13.3685 30.1837 13.3685 30.3953C13.3685 30.6069 13.3171 30.8099 13.2256 30.9595C13.1341 31.1091 13.01 31.1932 12.8806 31.1932Z" fill="#109CF1"/>
<path d="M16.2955 33.5918C16.1661 33.5918 16.042 33.5076 15.9505 33.3578C15.859 33.208 15.8076 33.0048 15.8076 32.7929V27.4814L13.9631 23.7061C13.8823 23.5406 13.845 23.3292 13.8593 23.1186C13.8737 22.9079 13.9386 22.7153 14.0397 22.583C14.1408 22.4506 14.2699 22.3895 14.3985 22.4131C14.5271 22.4366 14.6448 22.5428 14.7256 22.7084L16.677 26.7026C16.7459 26.8442 16.7834 27.02 16.7833 27.2011V32.7929C16.7833 33.0048 16.7319 33.208 16.6404 33.3578C16.549 33.5076 16.4249 33.5918 16.2955 33.5918Z" fill="#109CF1"/>
<path d="M16.2955 27.9998C16.2036 27.9997 16.1136 27.9572 16.0359 27.877C15.9581 27.7968 15.8958 27.6823 15.856 27.5467C15.8163 27.411 15.8007 27.2598 15.8111 27.1103C15.8216 26.9608 15.8576 26.8192 15.915 26.7017L17.8664 22.7075C17.9472 22.5419 18.0648 22.4357 18.1935 22.4122C18.3221 22.3887 18.4512 22.4498 18.5523 22.5821C18.6534 22.7144 18.7183 22.9071 18.7326 23.1177C18.747 23.3283 18.7097 23.5397 18.6289 23.7053L16.6775 27.6995C16.6317 27.7933 16.5736 27.8691 16.5075 27.9211C16.4413 27.9731 16.3689 28 16.2955 27.9998Z" fill="#109CF1"/>
</svg>
