<svg xmlns="http://www.w3.org/2000/svg" viewBox="-29 605 28 24">
  <defs>
    <style>
      .cls-1, .cls-2 {
        fill: none;
      }

      .cls-1 {
        stroke: #0084f6;
        stroke-miterlimit: 10;
      }
    </style>
  </defs>
  <g id="Group_1179" data-name="Group 1179" transform="translate(-46 -16)">
    <g id="Group_1167" data-name="Group 1167" transform="translate(1 -1)">
      <line id="Line_52" data-name="Line 52" class="cls-1" x2="2.174" transform="translate(29.13 641.956)"/>
      <path id="Path_94" data-name="Path 94" class="cls-1" d="M21.391,15.783V22.3H4V11.87A.872.872,0,0,1,4.87,11H8.783" transform="translate(17.304 618.348)"/>
      <path id="Path_95" data-name="Path 95" class="cls-1" d="M21,37H1v.87a1.744,1.744,0,0,0,1.739,1.739H19.261A1.744,1.744,0,0,0,21,37.87Z" transform="translate(19 603.652)"/>
      <path id="Path_96" data-name="Path 96" class="cls-1" d="M17,6.652V2.3A1.281,1.281,0,0,1,18.3,1H28.739a1.281,1.281,0,0,1,1.3,1.3V7.957a1.281,1.281,0,0,1-1.3,1.3H25.261l-3.174,3.174a.435.435,0,0,1-.739-.3V9.261H19.609" transform="translate(9.957 624)"/>
      <path id="Path_97" data-name="Path 97" class="cls-1" d="M15.957,31.043v-1.13C15.957,28.7,13.435,28,12.478,28S9,28.7,9,29.913v1.13" transform="translate(14.478 608.739)"/>
      <path id="Path_98" data-name="Path 98" class="cls-1" d="M14.739,16A1.744,1.744,0,0,0,13,17.739v.435a1.739,1.739,0,1,0,3.478,0v-.435A1.744,1.744,0,0,0,14.739,16Z" transform="translate(12.217 615.522)"/>
      <line id="Line_53" data-name="Line 53" class="cls-1" x2="0.87" transform="translate(31.304 629.348)"/>
      <line id="Line_54" data-name="Line 54" class="cls-1" x2="0.87" transform="translate(33.043 629.348)"/>
      <line id="Line_55" data-name="Line 55" class="cls-1" x2="0.87" transform="translate(34.783 629.348)"/>
    </g>
    <rect id="Rectangle_677" data-name="Rectangle 677" class="cls-2" width="28" height="24" transform="translate(17 621)"/>
  </g>
</svg>
