<svg width="24" height="24" viewBox="0 0 24 24" fill="none" xmlns="http://www.w3.org/2000/svg">
<mask id="path-1-outside-1" maskUnits="userSpaceOnUse" x="3.82617" y="3.82617" width="16" height="16" fill="black">
<rect fill="white" x="3.82617" y="3.82617" width="16" height="16"/>
<path d="M17.7717 10.087H17.7105C17.6208 10.0862 17.5334 10.0584 17.4597 10.0073C17.386 9.95608 17.3294 9.88389 17.2973 9.80008C17.2635 9.71916 17.2546 9.63002 17.2716 9.544C17.2886 9.45799 17.3309 9.37898 17.393 9.31704L17.4365 9.27352C17.6988 9.01016 17.8461 8.65358 17.8461 8.28185C17.8461 7.91011 17.6988 7.55353 17.4365 7.29017L16.7138 6.568C16.4507 6.30544 16.0941 6.15799 15.7224 6.15799C15.3507 6.15799 14.9941 6.30544 14.731 6.568L14.6874 6.61152C14.6233 6.67327 14.5426 6.71496 14.4551 6.73147C14.3676 6.74798 14.2772 6.7386 14.195 6.70447C14.1128 6.67035 14.0423 6.61296 13.9922 6.53936C13.9422 6.46575 13.9147 6.37914 13.9131 6.29013V6.22843C13.9127 5.85665 13.7649 5.5002 13.502 5.2373C13.2391 4.97441 12.8827 4.82655 12.5109 4.82617H11.4893C11.1175 4.82655 10.7611 4.97441 10.4982 5.2373C10.2353 5.5002 10.0874 5.85665 10.087 6.22843V6.29013C10.0847 6.3785 10.0568 6.46429 10.0067 6.53713C9.95664 6.60997 9.88651 6.66673 9.80483 6.70054C9.72315 6.73434 9.63342 6.74374 9.54651 6.72761C9.4596 6.71147 9.37923 6.67048 9.31513 6.60961L9.27161 6.56608C9.00845 6.30353 8.6519 6.15608 8.28017 6.15608C7.90844 6.15608 7.55189 6.30353 7.28874 6.56608L6.56608 7.28826C6.30373 7.55162 6.15643 7.9082 6.15643 8.27993C6.15643 8.65166 6.30373 9.00825 6.56608 9.27161L6.60961 9.31513C6.67228 9.37925 6.71424 9.46074 6.73001 9.54901C6.74579 9.63728 6.73467 9.72826 6.69808 9.81013C6.66527 9.89167 6.60887 9.96158 6.53612 10.0109C6.46336 10.0602 6.37755 10.0867 6.28965 10.087H6.22843C5.85665 10.0874 5.5002 10.2353 5.2373 10.4982C4.97441 10.7611 4.82655 11.1175 4.82617 11.4893V12.5109C4.82655 12.8827 4.97441 13.2391 5.2373 13.502C5.5002 13.7649 5.85665 13.9127 6.22843 13.9131H6.28965C6.37938 13.9139 6.46679 13.9417 6.5405 13.9929C6.6142 14.0441 6.67078 14.1163 6.70287 14.2001C6.73665 14.281 6.74559 14.3701 6.72856 14.4562C6.71152 14.5422 6.66929 14.6212 6.60722 14.6831L6.56369 14.7266C6.30134 14.99 6.15404 15.3466 6.15404 15.7183C6.15404 16.0901 6.30134 16.4466 6.56369 16.71L7.28587 17.4317C7.54898 17.6945 7.90565 17.8421 8.27754 17.8421C8.64943 17.8421 9.00611 17.6945 9.26922 17.4317L9.31274 17.3882C9.3769 17.3255 9.45838 17.2836 9.54664 17.2679C9.6349 17.2521 9.72586 17.2632 9.80774 17.2997C9.88928 17.3324 9.9592 17.3887 10.0085 17.4614C10.0579 17.534 10.0844 17.6198 10.0847 17.7076V17.7693C10.0845 17.9538 10.1208 18.1366 10.1913 18.307C10.2619 18.4775 10.3653 18.6324 10.4958 18.7629C10.6262 18.8933 10.7811 18.9968 10.9516 19.0673C11.1221 19.1379 11.3048 19.1741 11.4893 19.174H12.5109C12.8827 19.1736 13.2391 19.0258 13.502 18.7629C13.7649 18.5 13.9127 18.1435 13.9131 17.7717V17.71C13.9155 17.6217 13.9434 17.5359 13.9934 17.463C14.0435 17.3902 14.1137 17.3334 14.1953 17.2996C14.277 17.2658 14.3667 17.2564 14.4537 17.2726C14.5406 17.2887 14.6209 17.3297 14.685 17.3906L14.7286 17.4341C14.9917 17.6966 15.3483 17.8441 15.72 17.8441C16.0917 17.8441 16.4483 17.6966 16.7114 17.4341L17.4341 16.7124C17.6964 16.449 17.8437 16.0924 17.8437 15.7207C17.8437 15.349 17.6964 14.9924 17.4341 14.729L17.3906 14.6855C17.3279 14.6214 17.2859 14.5399 17.2702 14.4516C17.2544 14.3634 17.2655 14.2724 17.3021 14.1905C17.3348 14.1089 17.3912 14.0389 17.4639 13.9895C17.5367 13.94 17.6226 13.9135 17.7105 13.9131H17.7717C18.1435 13.9127 18.5 13.7649 18.7629 13.502C19.0258 13.2391 19.1736 12.8827 19.174 12.5109V11.4893C19.1736 11.1175 19.0258 10.7611 18.7629 10.4982C18.5 10.2353 18.1435 10.0874 17.7717 10.087ZM18.2175 12.5109C18.2173 12.629 18.1703 12.7423 18.0868 12.8259C18.0032 12.9095 17.8899 12.9565 17.7717 12.9566H17.7105C17.433 12.959 17.1623 13.043 16.9322 13.1981C16.702 13.3533 16.5227 13.5728 16.4165 13.8292C16.3102 14.0856 16.2818 14.3676 16.3348 14.6401C16.3878 14.9125 16.5197 15.1634 16.7143 15.3613L16.7573 15.4048C16.8408 15.4886 16.8877 15.602 16.8877 15.7202C16.8877 15.8385 16.8408 15.9519 16.7573 16.0356L16.0347 16.7573C15.9511 16.8409 15.8377 16.8879 15.7195 16.8879C15.6013 16.8879 15.4879 16.8409 15.4043 16.7573L15.3613 16.7138C15.1633 16.5195 14.9125 16.3877 14.6401 16.3349C14.3677 16.282 14.0858 16.3105 13.8295 16.4167C13.5732 16.5229 13.3537 16.7021 13.1985 16.9321C13.0433 17.1621 12.9592 17.4326 12.9566 17.71V17.7717C12.9565 17.8899 12.9095 18.0032 12.8259 18.0868C12.7423 18.1703 12.629 18.2173 12.5109 18.2175H11.4893C11.3711 18.2173 11.2578 18.1703 11.1743 18.0868C11.0907 18.0032 11.0437 17.8899 11.0436 17.7717V17.71C11.0422 17.432 10.9588 17.1606 10.8038 16.9299C10.6488 16.6991 10.429 16.5192 10.1722 16.4129C9.91533 16.3065 9.63279 16.2784 9.36 16.332C9.08722 16.3856 8.83635 16.5186 8.63887 16.7143L8.59535 16.7578C8.51163 16.8412 8.39831 16.888 8.28017 16.888C8.16204 16.888 8.04871 16.8412 7.965 16.7578L7.24282 16.0361C7.15933 15.9524 7.11244 15.839 7.11244 15.7207C7.11244 15.6025 7.15933 15.489 7.24282 15.4053L7.28635 15.3618C7.48109 15.1638 7.61323 14.9129 7.66627 14.6403C7.71931 14.3678 7.69091 14.0856 7.5846 13.8291C7.4783 13.5726 7.2988 13.353 7.0685 13.1978C6.83821 13.0427 6.56733 12.9588 6.28965 12.9566H6.22843C6.11025 12.9565 5.99695 12.9095 5.91339 12.8259C5.82982 12.7423 5.78282 12.629 5.78269 12.5109V11.4893C5.78282 11.3711 5.82982 11.2578 5.91339 11.1743C5.99695 11.0907 6.11025 11.0437 6.22843 11.0436H6.28965C6.56719 11.0412 6.83789 10.9572 7.06801 10.802C7.29813 10.6469 7.47749 10.4274 7.58371 10.171C7.68994 9.91455 7.71834 9.63254 7.66538 9.36009C7.61241 9.08764 7.48042 8.83681 7.28587 8.63887L7.24282 8.59535C7.15936 8.51169 7.11248 8.39834 7.11248 8.28017C7.11248 8.162 7.15936 8.04865 7.24282 7.965L7.96548 7.24235C8.04907 7.15876 8.16244 7.1118 8.28065 7.1118C8.39886 7.1118 8.51223 7.15876 8.59582 7.24235L8.63887 7.28587C8.83686 7.48017 9.08764 7.61195 9.35996 7.66481C9.63229 7.71766 9.91415 7.68925 10.1705 7.58312C10.4268 7.47699 10.6462 7.29782 10.8014 7.06792C10.9567 6.83801 11.0409 6.56753 11.0436 6.29013V6.22843C11.0437 6.11025 11.0907 5.99695 11.1743 5.91339C11.2578 5.82982 11.3711 5.78282 11.4893 5.78269H12.5109C12.629 5.78282 12.7423 5.82982 12.8259 5.91339C12.9095 5.99695 12.9565 6.11025 12.9566 6.22843V6.29013C12.9591 6.56763 13.0431 6.83826 13.1983 7.06831C13.3535 7.29836 13.573 7.47764 13.8294 7.58381C14.0858 7.68998 14.3678 7.71834 14.6402 7.66536C14.9126 7.61238 15.1634 7.4804 15.3613 7.28587L15.4048 7.24235C15.4884 7.15876 15.6018 7.1118 15.72 7.1118C15.8382 7.1118 15.9516 7.15876 16.0352 7.24235L16.7573 7.965C16.8408 8.04865 16.8877 8.162 16.8877 8.28017C16.8877 8.39834 16.8408 8.51169 16.7573 8.59535L16.7138 8.63887C16.5192 8.83684 16.3872 9.08771 16.3343 9.3602C16.2813 9.6327 16.3098 9.91475 16.4161 10.1712C16.5224 10.4276 16.7018 10.6471 16.932 10.8022C17.1622 10.9574 17.4329 11.0413 17.7105 11.0436H17.7717C17.8899 11.0437 18.0032 11.0907 18.0868 11.1743C18.1703 11.2578 18.2173 11.3711 18.2175 11.4893V12.5109Z"/>
</mask>
<path d="M17.7717 10.087H17.7105C17.6208 10.0862 17.5334 10.0584 17.4597 10.0073C17.386 9.95608 17.3294 9.88389 17.2973 9.80008C17.2635 9.71916 17.2546 9.63002 17.2716 9.544C17.2886 9.45799 17.3309 9.37898 17.393 9.31704L17.4365 9.27352C17.6988 9.01016 17.8461 8.65358 17.8461 8.28185C17.8461 7.91011 17.6988 7.55353 17.4365 7.29017L16.7138 6.568C16.4507 6.30544 16.0941 6.15799 15.7224 6.15799C15.3507 6.15799 14.9941 6.30544 14.731 6.568L14.6874 6.61152C14.6233 6.67327 14.5426 6.71496 14.4551 6.73147C14.3676 6.74798 14.2772 6.7386 14.195 6.70447C14.1128 6.67035 14.0423 6.61296 13.9922 6.53936C13.9422 6.46575 13.9147 6.37914 13.9131 6.29013V6.22843C13.9127 5.85665 13.7649 5.5002 13.502 5.2373C13.2391 4.97441 12.8827 4.82655 12.5109 4.82617H11.4893C11.1175 4.82655 10.7611 4.97441 10.4982 5.2373C10.2353 5.5002 10.0874 5.85665 10.087 6.22843V6.29013C10.0847 6.3785 10.0568 6.46429 10.0067 6.53713C9.95664 6.60997 9.88651 6.66673 9.80483 6.70054C9.72315 6.73434 9.63342 6.74374 9.54651 6.72761C9.4596 6.71147 9.37923 6.67048 9.31513 6.60961L9.27161 6.56608C9.00845 6.30353 8.6519 6.15608 8.28017 6.15608C7.90844 6.15608 7.55189 6.30353 7.28874 6.56608L6.56608 7.28826C6.30373 7.55162 6.15643 7.9082 6.15643 8.27993C6.15643 8.65166 6.30373 9.00825 6.56608 9.27161L6.60961 9.31513C6.67228 9.37925 6.71424 9.46074 6.73001 9.54901C6.74579 9.63728 6.73467 9.72826 6.69808 9.81013C6.66527 9.89167 6.60887 9.96158 6.53612 10.0109C6.46336 10.0602 6.37755 10.0867 6.28965 10.087H6.22843C5.85665 10.0874 5.5002 10.2353 5.2373 10.4982C4.97441 10.7611 4.82655 11.1175 4.82617 11.4893V12.5109C4.82655 12.8827 4.97441 13.2391 5.2373 13.502C5.5002 13.7649 5.85665 13.9127 6.22843 13.9131H6.28965C6.37938 13.9139 6.46679 13.9417 6.5405 13.9929C6.6142 14.0441 6.67078 14.1163 6.70287 14.2001C6.73665 14.281 6.74559 14.3701 6.72856 14.4562C6.71152 14.5422 6.66929 14.6212 6.60722 14.6831L6.56369 14.7266C6.30134 14.99 6.15404 15.3466 6.15404 15.7183C6.15404 16.0901 6.30134 16.4466 6.56369 16.71L7.28587 17.4317C7.54898 17.6945 7.90565 17.8421 8.27754 17.8421C8.64943 17.8421 9.00611 17.6945 9.26922 17.4317L9.31274 17.3882C9.3769 17.3255 9.45838 17.2836 9.54664 17.2679C9.6349 17.2521 9.72586 17.2632 9.80774 17.2997C9.88928 17.3324 9.9592 17.3887 10.0085 17.4614C10.0579 17.534 10.0844 17.6198 10.0847 17.7076V17.7693C10.0845 17.9538 10.1208 18.1366 10.1913 18.307C10.2619 18.4775 10.3653 18.6324 10.4958 18.7629C10.6262 18.8933 10.7811 18.9968 10.9516 19.0673C11.1221 19.1379 11.3048 19.1741 11.4893 19.174H12.5109C12.8827 19.1736 13.2391 19.0258 13.502 18.7629C13.7649 18.5 13.9127 18.1435 13.9131 17.7717V17.71C13.9155 17.6217 13.9434 17.5359 13.9934 17.463C14.0435 17.3902 14.1137 17.3334 14.1953 17.2996C14.277 17.2658 14.3667 17.2564 14.4537 17.2726C14.5406 17.2887 14.6209 17.3297 14.685 17.3906L14.7286 17.4341C14.9917 17.6966 15.3483 17.8441 15.72 17.8441C16.0917 17.8441 16.4483 17.6966 16.7114 17.4341L17.4341 16.7124C17.6964 16.449 17.8437 16.0924 17.8437 15.7207C17.8437 15.349 17.6964 14.9924 17.4341 14.729L17.3906 14.6855C17.3279 14.6214 17.2859 14.5399 17.2702 14.4516C17.2544 14.3634 17.2655 14.2724 17.3021 14.1905C17.3348 14.1089 17.3912 14.0389 17.4639 13.9895C17.5367 13.94 17.6226 13.9135 17.7105 13.9131H17.7717C18.1435 13.9127 18.5 13.7649 18.7629 13.502C19.0258 13.2391 19.1736 12.8827 19.174 12.5109V11.4893C19.1736 11.1175 19.0258 10.7611 18.7629 10.4982C18.5 10.2353 18.1435 10.0874 17.7717 10.087ZM18.2175 12.5109C18.2173 12.629 18.1703 12.7423 18.0868 12.8259C18.0032 12.9095 17.8899 12.9565 17.7717 12.9566H17.7105C17.433 12.959 17.1623 13.043 16.9322 13.1981C16.702 13.3533 16.5227 13.5728 16.4165 13.8292C16.3102 14.0856 16.2818 14.3676 16.3348 14.6401C16.3878 14.9125 16.5197 15.1634 16.7143 15.3613L16.7573 15.4048C16.8408 15.4886 16.8877 15.602 16.8877 15.7202C16.8877 15.8385 16.8408 15.9519 16.7573 16.0356L16.0347 16.7573C15.9511 16.8409 15.8377 16.8879 15.7195 16.8879C15.6013 16.8879 15.4879 16.8409 15.4043 16.7573L15.3613 16.7138C15.1633 16.5195 14.9125 16.3877 14.6401 16.3349C14.3677 16.282 14.0858 16.3105 13.8295 16.4167C13.5732 16.5229 13.3537 16.7021 13.1985 16.9321C13.0433 17.1621 12.9592 17.4326 12.9566 17.71V17.7717C12.9565 17.8899 12.9095 18.0032 12.8259 18.0868C12.7423 18.1703 12.629 18.2173 12.5109 18.2175H11.4893C11.3711 18.2173 11.2578 18.1703 11.1743 18.0868C11.0907 18.0032 11.0437 17.8899 11.0436 17.7717V17.71C11.0422 17.432 10.9588 17.1606 10.8038 16.9299C10.6488 16.6991 10.429 16.5192 10.1722 16.4129C9.91533 16.3065 9.63279 16.2784 9.36 16.332C9.08722 16.3856 8.83635 16.5186 8.63887 16.7143L8.59535 16.7578C8.51163 16.8412 8.39831 16.888 8.28017 16.888C8.16204 16.888 8.04871 16.8412 7.965 16.7578L7.24282 16.0361C7.15933 15.9524 7.11244 15.839 7.11244 15.7207C7.11244 15.6025 7.15933 15.489 7.24282 15.4053L7.28635 15.3618C7.48109 15.1638 7.61323 14.9129 7.66627 14.6403C7.71931 14.3678 7.69091 14.0856 7.5846 13.8291C7.4783 13.5726 7.2988 13.353 7.0685 13.1978C6.83821 13.0427 6.56733 12.9588 6.28965 12.9566H6.22843C6.11025 12.9565 5.99695 12.9095 5.91339 12.8259C5.82982 12.7423 5.78282 12.629 5.78269 12.5109V11.4893C5.78282 11.3711 5.82982 11.2578 5.91339 11.1743C5.99695 11.0907 6.11025 11.0437 6.22843 11.0436H6.28965C6.56719 11.0412 6.83789 10.9572 7.06801 10.802C7.29813 10.6469 7.47749 10.4274 7.58371 10.171C7.68994 9.91455 7.71834 9.63254 7.66538 9.36009C7.61241 9.08764 7.48042 8.83681 7.28587 8.63887L7.24282 8.59535C7.15936 8.51169 7.11248 8.39834 7.11248 8.28017C7.11248 8.162 7.15936 8.04865 7.24282 7.965L7.96548 7.24235C8.04907 7.15876 8.16244 7.1118 8.28065 7.1118C8.39886 7.1118 8.51223 7.15876 8.59582 7.24235L8.63887 7.28587C8.83686 7.48017 9.08764 7.61195 9.35996 7.66481C9.63229 7.71766 9.91415 7.68925 10.1705 7.58312C10.4268 7.47699 10.6462 7.29782 10.8014 7.06792C10.9567 6.83801 11.0409 6.56753 11.0436 6.29013V6.22843C11.0437 6.11025 11.0907 5.99695 11.1743 5.91339C11.2578 5.82982 11.3711 5.78282 11.4893 5.78269H12.5109C12.629 5.78282 12.7423 5.82982 12.8259 5.91339C12.9095 5.99695 12.9565 6.11025 12.9566 6.22843V6.29013C12.9591 6.56763 13.0431 6.83826 13.1983 7.06831C13.3535 7.29836 13.573 7.47764 13.8294 7.58381C14.0858 7.68998 14.3678 7.71834 14.6402 7.66536C14.9126 7.61238 15.1634 7.4804 15.3613 7.28587L15.4048 7.24235C15.4884 7.15876 15.6018 7.1118 15.72 7.1118C15.8382 7.1118 15.9516 7.15876 16.0352 7.24235L16.7573 7.965C16.8408 8.04865 16.8877 8.162 16.8877 8.28017C16.8877 8.39834 16.8408 8.51169 16.7573 8.59535L16.7138 8.63887C16.5192 8.83684 16.3872 9.08771 16.3343 9.3602C16.2813 9.6327 16.3098 9.91475 16.4161 10.1712C16.5224 10.4276 16.7018 10.6471 16.932 10.8022C17.1622 10.9574 17.4329 11.0413 17.7105 11.0436H17.7717C17.8899 11.0437 18.0032 11.0907 18.0868 11.1743C18.1703 11.2578 18.2173 11.3711 18.2175 11.4893V12.5109Z" fill="black"/>
<path d="M17.7717 10.087H17.7105C17.6208 10.0862 17.5334 10.0584 17.4597 10.0073C17.386 9.95608 17.3294 9.88389 17.2973 9.80008C17.2635 9.71916 17.2546 9.63002 17.2716 9.544C17.2886 9.45799 17.3309 9.37898 17.393 9.31704L17.4365 9.27352C17.6988 9.01016 17.8461 8.65358 17.8461 8.28185C17.8461 7.91011 17.6988 7.55353 17.4365 7.29017L16.7138 6.568C16.4507 6.30544 16.0941 6.15799 15.7224 6.15799C15.3507 6.15799 14.9941 6.30544 14.731 6.568L14.6874 6.61152C14.6233 6.67327 14.5426 6.71496 14.4551 6.73147C14.3676 6.74798 14.2772 6.7386 14.195 6.70447C14.1128 6.67035 14.0423 6.61296 13.9922 6.53936C13.9422 6.46575 13.9147 6.37914 13.9131 6.29013V6.22843C13.9127 5.85665 13.7649 5.5002 13.502 5.2373C13.2391 4.97441 12.8827 4.82655 12.5109 4.82617H11.4893C11.1175 4.82655 10.7611 4.97441 10.4982 5.2373C10.2353 5.5002 10.0874 5.85665 10.087 6.22843V6.29013C10.0847 6.3785 10.0568 6.46429 10.0067 6.53713C9.95664 6.60997 9.88651 6.66673 9.80483 6.70054C9.72315 6.73434 9.63342 6.74374 9.54651 6.72761C9.4596 6.71147 9.37923 6.67048 9.31513 6.60961L9.27161 6.56608C9.00845 6.30353 8.6519 6.15608 8.28017 6.15608C7.90844 6.15608 7.55189 6.30353 7.28874 6.56608L6.56608 7.28826C6.30373 7.55162 6.15643 7.9082 6.15643 8.27993C6.15643 8.65166 6.30373 9.00825 6.56608 9.27161L6.60961 9.31513C6.67228 9.37925 6.71424 9.46074 6.73001 9.54901C6.74579 9.63728 6.73467 9.72826 6.69808 9.81013C6.66527 9.89167 6.60887 9.96158 6.53612 10.0109C6.46336 10.0602 6.37755 10.0867 6.28965 10.087H6.22843C5.85665 10.0874 5.5002 10.2353 5.2373 10.4982C4.97441 10.7611 4.82655 11.1175 4.82617 11.4893V12.5109C4.82655 12.8827 4.97441 13.2391 5.2373 13.502C5.5002 13.7649 5.85665 13.9127 6.22843 13.9131H6.28965C6.37938 13.9139 6.46679 13.9417 6.5405 13.9929C6.6142 14.0441 6.67078 14.1163 6.70287 14.2001C6.73665 14.281 6.74559 14.3701 6.72856 14.4562C6.71152 14.5422 6.66929 14.6212 6.60722 14.6831L6.56369 14.7266C6.30134 14.99 6.15404 15.3466 6.15404 15.7183C6.15404 16.0901 6.30134 16.4466 6.56369 16.71L7.28587 17.4317C7.54898 17.6945 7.90565 17.8421 8.27754 17.8421C8.64943 17.8421 9.00611 17.6945 9.26922 17.4317L9.31274 17.3882C9.3769 17.3255 9.45838 17.2836 9.54664 17.2679C9.6349 17.2521 9.72586 17.2632 9.80774 17.2997C9.88928 17.3324 9.9592 17.3887 10.0085 17.4614C10.0579 17.534 10.0844 17.6198 10.0847 17.7076V17.7693C10.0845 17.9538 10.1208 18.1366 10.1913 18.307C10.2619 18.4775 10.3653 18.6324 10.4958 18.7629C10.6262 18.8933 10.7811 18.9968 10.9516 19.0673C11.1221 19.1379 11.3048 19.1741 11.4893 19.174H12.5109C12.8827 19.1736 13.2391 19.0258 13.502 18.7629C13.7649 18.5 13.9127 18.1435 13.9131 17.7717V17.71C13.9155 17.6217 13.9434 17.5359 13.9934 17.463C14.0435 17.3902 14.1137 17.3334 14.1953 17.2996C14.277 17.2658 14.3667 17.2564 14.4537 17.2726C14.5406 17.2887 14.6209 17.3297 14.685 17.3906L14.7286 17.4341C14.9917 17.6966 15.3483 17.8441 15.72 17.8441C16.0917 17.8441 16.4483 17.6966 16.7114 17.4341L17.4341 16.7124C17.6964 16.449 17.8437 16.0924 17.8437 15.7207C17.8437 15.349 17.6964 14.9924 17.4341 14.729L17.3906 14.6855C17.3279 14.6214 17.2859 14.5399 17.2702 14.4516C17.2544 14.3634 17.2655 14.2724 17.3021 14.1905C17.3348 14.1089 17.3912 14.0389 17.4639 13.9895C17.5367 13.94 17.6226 13.9135 17.7105 13.9131H17.7717C18.1435 13.9127 18.5 13.7649 18.7629 13.502C19.0258 13.2391 19.1736 12.8827 19.174 12.5109V11.4893C19.1736 11.1175 19.0258 10.7611 18.7629 10.4982C18.5 10.2353 18.1435 10.0874 17.7717 10.087ZM18.2175 12.5109C18.2173 12.629 18.1703 12.7423 18.0868 12.8259C18.0032 12.9095 17.8899 12.9565 17.7717 12.9566H17.7105C17.433 12.959 17.1623 13.043 16.9322 13.1981C16.702 13.3533 16.5227 13.5728 16.4165 13.8292C16.3102 14.0856 16.2818 14.3676 16.3348 14.6401C16.3878 14.9125 16.5197 15.1634 16.7143 15.3613L16.7573 15.4048C16.8408 15.4886 16.8877 15.602 16.8877 15.7202C16.8877 15.8385 16.8408 15.9519 16.7573 16.0356L16.0347 16.7573C15.9511 16.8409 15.8377 16.8879 15.7195 16.8879C15.6013 16.8879 15.4879 16.8409 15.4043 16.7573L15.3613 16.7138C15.1633 16.5195 14.9125 16.3877 14.6401 16.3349C14.3677 16.282 14.0858 16.3105 13.8295 16.4167C13.5732 16.5229 13.3537 16.7021 13.1985 16.9321C13.0433 17.1621 12.9592 17.4326 12.9566 17.71V17.7717C12.9565 17.8899 12.9095 18.0032 12.8259 18.0868C12.7423 18.1703 12.629 18.2173 12.5109 18.2175H11.4893C11.3711 18.2173 11.2578 18.1703 11.1743 18.0868C11.0907 18.0032 11.0437 17.8899 11.0436 17.7717V17.71C11.0422 17.432 10.9588 17.1606 10.8038 16.9299C10.6488 16.6991 10.429 16.5192 10.1722 16.4129C9.91533 16.3065 9.63279 16.2784 9.36 16.332C9.08722 16.3856 8.83635 16.5186 8.63887 16.7143L8.59535 16.7578C8.51163 16.8412 8.39831 16.888 8.28017 16.888C8.16204 16.888 8.04871 16.8412 7.965 16.7578L7.24282 16.0361C7.15933 15.9524 7.11244 15.839 7.11244 15.7207C7.11244 15.6025 7.15933 15.489 7.24282 15.4053L7.28635 15.3618C7.48109 15.1638 7.61323 14.9129 7.66627 14.6403C7.71931 14.3678 7.69091 14.0856 7.5846 13.8291C7.4783 13.5726 7.2988 13.353 7.0685 13.1978C6.83821 13.0427 6.56733 12.9588 6.28965 12.9566H6.22843C6.11025 12.9565 5.99695 12.9095 5.91339 12.8259C5.82982 12.7423 5.78282 12.629 5.78269 12.5109V11.4893C5.78282 11.3711 5.82982 11.2578 5.91339 11.1743C5.99695 11.0907 6.11025 11.0437 6.22843 11.0436H6.28965C6.56719 11.0412 6.83789 10.9572 7.06801 10.802C7.29813 10.6469 7.47749 10.4274 7.58371 10.171C7.68994 9.91455 7.71834 9.63254 7.66538 9.36009C7.61241 9.08764 7.48042 8.83681 7.28587 8.63887L7.24282 8.59535C7.15936 8.51169 7.11248 8.39834 7.11248 8.28017C7.11248 8.162 7.15936 8.04865 7.24282 7.965L7.96548 7.24235C8.04907 7.15876 8.16244 7.1118 8.28065 7.1118C8.39886 7.1118 8.51223 7.15876 8.59582 7.24235L8.63887 7.28587C8.83686 7.48017 9.08764 7.61195 9.35996 7.66481C9.63229 7.71766 9.91415 7.68925 10.1705 7.58312C10.4268 7.47699 10.6462 7.29782 10.8014 7.06792C10.9567 6.83801 11.0409 6.56753 11.0436 6.29013V6.22843C11.0437 6.11025 11.0907 5.99695 11.1743 5.91339C11.2578 5.82982 11.3711 5.78282 11.4893 5.78269H12.5109C12.629 5.78282 12.7423 5.82982 12.8259 5.91339C12.9095 5.99695 12.9565 6.11025 12.9566 6.22843V6.29013C12.9591 6.56763 13.0431 6.83826 13.1983 7.06831C13.3535 7.29836 13.573 7.47764 13.8294 7.58381C14.0858 7.68998 14.3678 7.71834 14.6402 7.66536C14.9126 7.61238 15.1634 7.4804 15.3613 7.28587L15.4048 7.24235C15.4884 7.15876 15.6018 7.1118 15.72 7.1118C15.8382 7.1118 15.9516 7.15876 16.0352 7.24235L16.7573 7.965C16.8408 8.04865 16.8877 8.162 16.8877 8.28017C16.8877 8.39834 16.8408 8.51169 16.7573 8.59535L16.7138 8.63887C16.5192 8.83684 16.3872 9.08771 16.3343 9.3602C16.2813 9.6327 16.3098 9.91475 16.4161 10.1712C16.5224 10.4276 16.7018 10.6471 16.932 10.8022C17.1622 10.9574 17.4329 11.0413 17.7105 11.0436H17.7717C17.8899 11.0437 18.0032 11.0907 18.0868 11.1743C18.1703 11.2578 18.2173 11.3711 18.2175 11.4893V12.5109Z" stroke="black" stroke-width="0.2" mask="url(#path-1-outside-1)"/>
<path d="M12 8.60234H11.9999C11.3279 8.60234 10.671 8.80162 10.1122 9.17498C9.55343 9.54834 9.11792 10.079 8.86075 10.6999C8.60357 11.3207 8.53628 12.0039 8.66739 12.6631C8.7985 13.3222 9.12211 13.9276 9.5973 14.4028C10.0725 14.878 10.6779 15.2016 11.337 15.3327C11.9962 15.4638 12.6793 15.3965 13.3002 15.1393C13.9211 14.8822 14.4518 14.4467 14.8251 13.8879C15.1985 13.3291 15.3978 12.6722 15.3978 12.0002V12.0001C15.3967 11.0993 15.0384 10.2356 14.4014 9.59866C13.7645 8.96168 12.9008 8.60337 12 8.60234ZM11.9999 14.3415C11.5368 14.3415 11.0842 14.2041 10.6992 13.9469C10.3141 13.6896 10.0141 13.324 9.83684 12.8961C9.65964 12.4683 9.61327 11.9976 9.70361 11.5434C9.79395 11.0892 10.0169 10.6721 10.3444 10.3446C10.6718 10.0172 11.089 9.79419 11.5432 9.70385C11.9973 9.61351 12.4681 9.65988 12.8959 9.83709C13.3237 10.0143 13.6894 10.3144 13.9467 10.6994C14.2039 11.0844 14.3412 11.5371 14.3412 12.0001C14.3405 12.6208 14.0936 13.216 13.6546 13.6549C13.2157 14.0938 12.6206 14.3407 11.9999 14.3415Z" fill="black" stroke="black" stroke-width="0.1"/>
<path d="M12.0001 0.95H12C9.81452 0.95 7.67812 1.59807 5.86095 2.81226C4.04379 4.02645 2.62748 5.75222 1.79114 7.77135C0.954788 9.79047 0.735961 12.0123 1.16233 14.1557C1.58869 16.2992 2.6411 18.2682 4.18647 19.8135C5.73184 21.3589 7.70077 22.4113 9.84426 22.8377C11.9877 23.264 14.2095 23.0452 16.2287 22.2089C18.2478 21.3725 19.9736 19.9562 21.1877 18.139C22.4019 16.3219 23.05 14.1855 23.05 12V11.9999C23.0467 9.07033 21.8814 6.26165 19.8099 4.1901C17.7383 2.11855 14.9297 0.953306 12.0001 0.95ZM11.9999 21.9935C10.0234 21.9935 8.09133 21.4074 6.44793 20.3093C4.80451 19.2112 3.52362 17.6504 2.76723 15.8243C2.01085 13.9983 1.81295 11.9889 2.19855 10.0504C2.58415 8.11182 3.53593 6.33116 4.93355 4.93354C6.33116 3.53593 8.11183 2.58414 10.0504 2.19854C11.9889 1.81294 13.9983 2.01085 15.8243 2.76723C17.6504 3.52361 19.2112 4.8045 20.3093 6.44792C21.4074 8.09132 21.9935 10.0234 21.9935 11.9999C21.9905 14.6495 20.9366 17.1896 19.0631 19.0631C17.1896 20.9366 14.6495 21.9905 11.9999 21.9935Z" fill="black" stroke="black" stroke-width="0.1"/>
</svg>
