<svg width="42" height="53" viewBox="0 0 42 53" fill="none" xmlns="http://www.w3.org/2000/svg">
<path d="M27.6949 52.9008C27.822 52.9008 27.9491 52.9008 28.0762 52.7355C28.4575 52.5702 28.7116 52.0742 28.7116 51.5783V40.8323H36.7182C39.5142 40.8323 41.8018 37.8565 41.8018 34.2194V6.94126C41.8018 3.30417 39.5142 0.328369 36.7182 0.328369H5.45446C2.65851 0.328369 0.370917 3.30417 0.370917 6.94126V34.0541C0.370917 37.6912 2.65851 40.667 5.45446 40.667H17.0195L27.0595 52.4049C27.1866 52.7355 27.4408 52.9008 27.6949 52.9008ZM36.7182 2.97353C38.3704 2.97353 39.7683 4.79207 39.7683 6.94126V34.0541C39.7683 36.2033 38.3704 38.0218 36.7182 38.0218H27.6949C27.1866 38.0218 26.6782 38.6831 26.6782 39.3444V48.4371L18.0362 38.3525C17.9091 38.1872 17.6549 38.0218 17.4008 38.0218H5.45446C3.80231 38.0218 2.40433 36.2033 2.40433 34.0541V6.94126C2.40433 4.79207 3.80231 2.97353 5.45446 2.97353H36.7182V2.97353Z" fill="#109CF1"/>
<path d="M11.1734 12.7274H30.745C31.2534 12.7274 31.7617 12.0661 31.7617 11.4049C31.7617 10.7436 31.2534 10.0823 30.745 10.0823H11.3005C10.7921 10.0823 10.2838 10.7436 10.2838 11.4049C10.2838 12.0661 10.665 12.7274 11.1734 12.7274Z" fill="#109CF1"/>
<path d="M11.1734 21.8201H30.745C31.2534 21.8201 31.7617 21.1588 31.7617 20.4975C31.7617 19.8362 31.2534 19.1749 30.745 19.1749H11.3005C10.7921 19.1749 10.2838 19.8362 10.2838 20.4975C10.2838 21.1588 10.665 21.8201 11.1734 21.8201Z" fill="#109CF1"/>
<path d="M17.2736 31.0783H30.745C31.2534 31.0783 31.7617 30.417 31.7617 29.7557C31.7617 29.0944 31.2534 28.4331 30.745 28.4331H17.2736C16.7653 28.4331 16.2569 29.0944 16.2569 29.7557C16.2569 30.417 16.7653 31.0783 17.2736 31.0783Z" fill="#109CF1"/>
</svg>
