<svg xmlns="http://www.w3.org/2000/svg" viewBox="-29 119 28 24">
  <defs>
    <style>
      .cls-1, .cls-2 {
        fill: none;
      }

      .cls-1 {
        stroke: #0084f6;
        stroke-miterlimit: 10;
      }
    </style>
  </defs>
  <g id="Group_1187" data-name="Group 1187" transform="translate(-46 -16)">
    <g id="Group_1176" data-name="Group 1176" transform="translate(1)">
      <path id="Path_252" data-name="Path 252" class="cls-1" d="M14.084,14.529c-1.647,0-3.588-1.824-4.353-4.412-.647,0-1.176-.765-1.235-1.647a1.765,1.765,0,0,1,.882-1.824C9.555,3.118,10.555,1,14.084,1s4.529,2.118,4.706,5.647c.588.118.941.882.882,1.824s-.588,1.647-1.235,1.647C17.673,12.706,15.731,14.529,14.084,14.529Z" transform="translate(15.916 136)"/>
      <path id="Path_253" data-name="Path 253" class="cls-1" d="M14.529,20.5C18.294,21.382,21,23.324,21,27.265a25.487,25.487,0,0,1-10,1.765A25.487,25.487,0,0,1,1,27.265c0-3.941,2.706-5.882,6.471-6.765" transform="translate(19 127.971)"/>
    </g>
    <rect id="Rectangle_669" data-name="Rectangle 669" class="cls-2" width="28" height="24" transform="translate(17 135)"/>
  </g>
</svg>
