<svg width="19" height="21" viewBox="0 0 19 21" fill="none" xmlns="http://www.w3.org/2000/svg">
<path d="M16.361 1.62769H14.778V0H13.722V1.62769H5.278V0H4.222V1.62769H2.639C1.18354 1.62769 0 2.84465 0 4.34119V17.3658C0 18.8623 1.18354 20.0793 2.639 20.0793H16.361C17.8165 20.0793 19 18.8623 19 17.3658V7.05469V5.9699V4.34119C19 2.84567 17.8165 1.62769 16.361 1.62769ZM17.945 17.3658C17.945 18.2635 17.2351 18.9935 16.362 18.9935H2.639C1.76592 18.9935 1.056 18.2635 1.056 17.3658V7.05469H17.945V17.3658ZM17.945 5.9699H1.05501V4.34119C1.05501 3.44347 1.76494 2.7135 2.63801 2.7135H4.22101V3.79931H5.278V2.7135H13.723V3.79931H14.779V2.7135H16.362C17.2351 2.7135 17.945 3.44347 17.945 4.34119V5.9699Z" fill="#109CF1"/>
<path d="M8.36941 12.3215H10.6308C11.2546 12.3215 11.762 11.8609 11.762 11.2945V9.24138C11.762 8.67498 11.2546 8.21436 10.6308 8.21436H8.36941C7.74554 8.21436 7.23819 8.67498 7.23819 9.24138V11.2945C7.23925 11.8609 7.7466 12.3215 8.36941 12.3215ZM8.36941 9.24138H10.6308L10.6318 11.2945H8.36941V9.24138Z" fill="#109CF1"/>
<path d="M13.6847 12.3215H15.7199C16.2814 12.3215 16.7381 11.8609 16.7381 11.2945V9.24138C16.7381 8.67498 16.2814 8.21436 15.7199 8.21436H13.6847C13.1232 8.21436 12.6666 8.67498 12.6666 9.24138V11.2945C12.6675 11.8609 13.1242 12.3215 13.6847 12.3215ZM13.6847 9.24138H15.7199L15.7209 11.2945H13.6847V9.24138Z" fill="#109CF1"/>
<path d="M3.28015 17.3413H5.31538C5.87685 17.3413 6.33347 16.8806 6.33347 16.3142V14.2612C6.33347 13.6948 5.87685 13.2341 5.31538 13.2341H3.28015C2.71867 13.2341 2.26205 13.6948 2.26205 14.2612V16.3142C2.26205 16.8806 2.71867 17.3413 3.28015 17.3413ZM3.28015 14.2612H5.31538L5.31633 16.3142H3.28015V14.2612Z" fill="#109CF1"/>
<path d="M8.36941 17.3413H10.6308C11.2546 17.3413 11.762 16.8806 11.762 16.3142V14.2612C11.762 13.6948 11.2546 13.2341 10.6308 13.2341H8.36941C7.74554 13.2341 7.23819 13.6948 7.23819 14.2612V16.3142C7.23925 16.8806 7.7466 17.3413 8.36941 17.3413ZM8.36941 14.2612H10.6308L10.6318 16.3142H8.36941V14.2612Z" fill="#109CF1"/>
<path d="M13.6847 17.3413H15.7199C16.2814 17.3413 16.7381 16.8806 16.7381 16.3142V14.2612C16.7381 13.6948 16.2814 13.2341 15.7199 13.2341H13.6847C13.1232 13.2341 12.6666 13.6948 12.6666 14.2612V16.3142C12.6675 16.8806 13.1242 17.3413 13.6847 17.3413ZM13.6847 14.2612H15.7199L15.7209 16.3142H13.6847V14.2612Z" fill="#109CF1"/>
</svg>
