<svg width="20" height="22" viewBox="0 0 20 22" fill="none" xmlns="http://www.w3.org/2000/svg">
<path d="M2.04724 17.4134L2.04734 17.4133L7.73924 15.8547L7.73925 15.8548L7.74157 15.8541C7.84153 15.8241 7.93406 15.7732 8.01174 15.6955L17.1868 6.52043C18.0052 5.70208 18.0052 4.36863 17.1868 3.55028L15.1547 1.51384L15.1546 1.51376C14.3363 0.695412 13.0028 0.695412 12.1845 1.51376L3.00938 10.6888C2.9317 10.7665 2.88082 10.8591 2.85083 10.959L2.8508 10.959L2.85016 10.9614L1.29156 16.6576L1.29155 16.6576L1.29128 16.6586C1.23529 16.8724 1.29117 17.0988 1.45077 17.2584C1.56548 17.3731 1.72494 17.4341 1.88315 17.4341C1.93732 17.4341 1.98951 17.4291 2.04724 17.4134ZM7.58367 14.3812L4.32372 11.1212L10.7999 4.64505L14.0598 7.90499L7.58367 14.3812ZM13.0578 2.38713C13.3977 2.04729 13.9457 2.04729 14.2856 2.38713L16.3178 4.41934C16.6576 4.75917 16.6576 5.30724 16.3178 5.64707L14.9332 7.03163L11.6733 3.77168L13.0578 2.38713ZM2.76231 15.9383L3.75961 12.3038L6.39675 14.941L2.76231 15.9383Z" fill="#9E9B9B" stroke="#9E9B9B" stroke-width="0.2"/>
<path d="M18.4029 20.1748H1.51666C1.17727 20.1748 0.9 20.4521 0.9 20.7914C0.9 21.1308 1.17727 21.4081 1.51666 21.4081H18.4029C18.7423 21.4081 19.0196 21.1308 19.0196 20.7914C19.0196 20.4521 18.7423 20.1748 18.4029 20.1748Z" fill="#9E9B9B" stroke="#9E9B9B" stroke-width="0.2"/>
</svg>
