<svg width="21" height="16" viewBox="0 0 21 16" fill="none" xmlns="http://www.w3.org/2000/svg">
<path d="M11.3886 9.84117L11.3886 9.84117L18.6125 4.90835V13.6H2.3875V4.90835L9.61138 9.84117L9.61139 9.84117C10.1481 10.2076 10.8519 10.2076 11.3886 9.84117ZM2.38542 0.8C1.96426 0.8 1.56078 0.969085 1.26362 1.26937C0.966531 1.56959 0.8 1.97633 0.8 2.4V13.6C0.8 14.4813 1.50824 15.2 2.38542 15.2H18.6146C19.0357 15.2 19.4392 15.0309 19.7364 14.7306C20.0335 14.4304 20.2 14.0237 20.2 13.6V2.4C20.2 1.97633 20.0335 1.56959 19.7364 1.26937C19.4392 0.969086 19.0357 0.8 18.6146 0.8H2.38542ZM2.3875 2.4H18.6125V2.97599L10.5 8.5151L2.3875 2.97598V2.4ZM10.498 8.51645C10.498 8.51644 10.4981 8.51643 10.4981 8.51642L10.4981 8.51643L10.498 8.51645Z" fill="white" stroke="white" stroke-width="0.4"/>
</svg>
