<svg width="76" height="76" viewBox="0 0 76 76" fill="none" xmlns="http://www.w3.org/2000/svg">
<g filter="url(#filter0_d)">
<path d="M43.9531 62H32.3594V58.7188H43.9531C50.285 58.7188 55.4375 53.5662 55.4375 47.2344V43.7344H58.7188V47.2344C58.7188 55.3766 52.0953 62 43.9531 62Z" fill="#E6F3FF"/>
<path d="M55.4375 47.2344C55.4375 53.5662 50.285 58.7188 43.9531 58.7188H34V62H43.9531C52.0953 62 58.7188 55.3766 58.7188 47.2344V43.7344H55.4375V47.2344Z" fill="white"/>
<path d="M58.7188 30.6094H55.4375C55.4375 18.8494 45.76 9.28125 34 9.28125C22.24 9.28125 12.5625 18.8494 12.5625 30.6094H9.28125C9.28125 17.039 20.4296 6 34 6C47.5704 6 58.7188 17.039 58.7188 30.6094Z" fill="white"/>
<path d="M55.4375 30.6094H58.7188C58.7188 17.039 47.5704 6 34 6V9.28125C45.76 9.28125 55.4375 18.8494 55.4375 30.6094Z" fill="white"/>
<path d="M19.2344 45.375H10.9219C8.20784 45.375 6 43.1672 6 40.4531V33.8906C6 31.1766 8.20784 28.9688 10.9219 28.9688H19.2344V45.375Z" fill="white"/>
<path d="M57.0781 45.375H48.7656V28.9688H57.0781C59.7922 28.9688 62 31.1766 62 33.8906V40.4531C62 43.1672 59.7922 45.375 57.0781 45.375Z" fill="white"/>
<path d="M34 55.2188C24.0505 55.2188 15.9531 47.1229 15.9531 37.1719C15.9531 27.2208 24.0505 19.125 34 19.125C43.9495 19.125 52.0469 27.2208 52.0469 37.1719C52.0469 47.1229 43.9495 55.2188 34 55.2188Z" fill="#2782FF"/>
<path d="M51.0469 37.1719C51.0469 27.2208 42.9495 19.125 33 19.125V55.2188C42.9495 55.2188 51.0469 47.1229 51.0469 37.1719Z" fill="#4E98FF"/>
<path d="M38.9219 32.25C38.9219 33.9892 37.9704 35.6298 36.4609 36.5156C35.9686 36.811 35.6406 37.3359 35.6406 37.9265V40.4531H32.3594V37.9264C32.3594 36.5484 32.9828 35.2031 34 34.2843C34.6632 33.621 35.6406 33.4271 35.6406 32.2499C35.6406 31.331 34.9189 30.6093 34 30.6093C33.0811 30.6093 32.3594 31.331 32.3594 32.2499H29.0781C29.0781 29.5263 31.2765 27.328 34 27.328C36.7235 27.328 38.9219 29.5264 38.9219 32.25Z" fill="white"/>
<path d="M32.3594 43.7344H35.6406V47.0156H32.3594V43.7344Z" fill="white"/>
<path d="M34 43.7344H35.6406V47.0156H34V43.7344Z" fill="white"/>
<path d="M38.9219 32.25C38.9219 33.9892 37.9704 35.6298 36.4609 36.5156C35.9686 36.811 35.6406 37.3359 35.6406 37.9266V40.4531H34V34.2844C34.6633 33.6211 35.6406 33.4272 35.6406 32.25C35.6406 31.3311 34.9189 30.6094 34 30.6094V27.3281C36.7235 27.3281 38.9219 29.5265 38.9219 32.25Z" fill="white"/>
</g>
<defs>
<filter id="filter0_d" x="0" y="0" width="76" height="76" filterUnits="userSpaceOnUse" color-interpolation-filters="sRGB">
<feFlood flood-opacity="0" result="BackgroundImageFix"/>
<feColorMatrix in="SourceAlpha" type="matrix" values="0 0 0 0 0 0 0 0 0 0 0 0 0 0 0 0 0 0 127 0"/>
<feOffset dx="4" dy="4"/>
<feGaussianBlur stdDeviation="5"/>
<feColorMatrix type="matrix" values="0 0 0 0 0 0 0 0 0 0 0 0 0 0 0 0 0 0 0.1 0"/>
<feBlend mode="normal" in2="BackgroundImageFix" result="effect1_dropShadow"/>
<feBlend mode="normal" in="SourceGraphic" in2="effect1_dropShadow" result="shape"/>
</filter>
</defs>
</svg>
