<svg width="20" height="20" viewBox="0 0 20 20" fill="none" xmlns="http://www.w3.org/2000/svg">
<path d="M14.5669 20H14.5949C15.123 20 15.622 19.792 16 19.414L18.7122 16.7018C18.8051 16.609 18.8788 16.4988 18.9292 16.3775C18.9795 16.2562 19.0054 16.1261 19.0054 15.9948C19.0054 15.8635 18.9795 15.7334 18.9292 15.6121C18.8788 15.4908 18.8051 15.3806 18.7122 15.2878L14.712 11.2876C14.6192 11.1946 14.509 11.1209 14.3876 11.0706C14.2663 11.0202 14.1363 10.9943 14.0049 10.9943C13.8736 10.9943 13.7435 11.0202 13.6222 11.0706C13.5009 11.1209 13.3907 11.1946 13.2979 11.2876L11.7038 12.8816C10.9648 12.6616 9.5857 12.1616 8.71165 11.2876C7.83761 10.4135 7.33758 9.03445 7.11757 8.29541L8.71165 6.70133C8.8046 6.60854 8.87834 6.49833 8.92866 6.37701C8.97897 6.25569 9.00487 6.12564 9.00487 5.9943C9.00487 5.86296 8.97897 5.73291 8.92866 5.61159C8.87834 5.49027 8.8046 5.38006 8.71165 5.28726L4.71145 1.28706C4.52027 1.10661 4.26732 1.00608 4.00442 1.00608C3.74152 1.00608 3.48857 1.10661 3.29738 1.28706L0.586246 3.9992C0.206227 4.37922 -0.00778384 4.90124 0.000216556 5.43427C0.0232177 6.85834 0.400236 11.8046 4.29843 15.7028C8.19663 19.601 13.1429 19.977 14.5669 20ZM4.00542 3.40817L6.59155 5.9943L5.29848 7.28736C5.18081 7.40471 5.09437 7.54963 5.04703 7.70893C4.9997 7.86823 4.99297 8.03685 5.02747 8.19941C5.05147 8.31442 5.6385 11.0416 7.29858 12.7016C8.95866 14.3617 11.6858 14.9487 11.8008 14.9727C11.9634 15.0074 12.132 15.0008 12.2914 14.9534C12.4507 14.9061 12.5956 14.8196 12.7129 14.7017L14.0059 13.4087L16.592 15.9948L14.5859 17.9999C13.3379 17.9789 9.06767 17.6439 5.7125 14.2877C2.34633 10.9215 2.02032 6.63633 2.00032 5.41327L4.00542 3.40817ZM18.0001 8.99945H20.0002C20.0002 3.86919 16.127 0 10.9898 0V2.0001C15.052 2.0001 18.0001 4.94325 18.0001 8.99945Z" fill="white"/>
<path d="M10.9996 6.00028C13.1027 6.00028 13.9997 6.89733 13.9997 9.00043H15.9998C15.9998 5.77527 14.2247 4.00018 10.9996 4.00018V6.00028Z" fill="white"/>
</svg>
