<svg width="21" height="22" viewBox="0 0 21 22" fill="none" xmlns="http://www.w3.org/2000/svg">
<path d="M10.3392 0.494106C11.587 0.494106 12.6118 0.871618 13.2246 1.55681C13.7208 2.11128 13.9225 2.83992 13.8239 3.7227C13.743 4.44916 13.2542 4.92546 12.7604 5.35058C12.5733 5.51186 12.3706 5.65113 12.1563 5.79812C11.756 6.07268 11.3422 6.35656 11.0157 6.80231C10.7431 7.17486 10.6564 7.65791 10.6159 8.20682H9.35308C9.39831 7.45557 9.50285 6.92015 9.7907 6.51823C9.99642 6.23118 10.3285 5.98123 10.6802 5.71659C10.9778 5.49262 11.2855 5.26112 11.5356 4.98854C12.226 4.23769 12.4589 3.5265 12.2091 2.93157C11.957 2.33128 11.2789 1.9869 10.3489 1.9869C10.2136 1.9869 10.0738 1.99424 9.93373 2.00931C9.05353 2.10255 8.44709 2.67269 8.28402 3.52829H6.73747C6.94656 1.61752 8.00233 0.627614 9.95456 0.506207C10.0833 0.498272 10.2128 0.494106 10.3392 0.494106ZM10.3392 0.0973511C10.2039 0.0973511 10.0676 0.101517 9.92976 0.110246C7.62124 0.253871 6.41491 1.56118 6.30957 3.92524H8.63832C8.66748 3.10634 9.12455 2.49415 9.97559 2.40389C10.0996 2.39063 10.2242 2.38387 10.3489 2.38365C11.0375 2.38365 11.6396 2.60028 11.8435 3.08511C12.1028 3.70207 11.5207 4.419 11.244 4.71994C10.7318 5.27798 9.89981 5.68505 9.46853 6.28712C9.04579 6.8771 8.97061 7.65335 8.93807 8.60338H10.9905C11.0192 7.99595 11.0597 7.41411 11.3361 7.03659C11.7856 6.42321 12.4569 6.13576 13.0195 5.65132C13.5569 5.18831 14.1223 4.63028 14.2181 3.76654C14.4903 1.3261 12.6243 0.0973511 10.3392 0.0973511Z" fill="white" fill-opacity="0.2"/>
<path d="M9.98269 9.84445C10.4786 9.84445 10.8819 10.239 10.8819 10.7241C10.8819 11.2091 10.4786 11.6033 9.98269 11.6033C9.48695 11.6033 9.08364 11.2089 9.08364 10.7239C9.08364 10.2388 9.48695 9.84445 9.98269 9.84445ZM9.98269 9.44769C9.26695 9.44769 8.68689 10.0192 8.68689 10.7241C8.68689 11.4289 9.26695 12 9.98269 12C10.6986 12 11.2787 11.4287 11.2787 10.7239C11.2787 10.019 10.6986 9.44769 9.98269 9.44769Z" fill="white" fill-opacity="0.2"/>
<path fill-rule="evenodd" clip-rule="evenodd" d="M17.0828 10.8258C14.9871 10.9562 13.892 12.143 13.7964 14.2891H15.9104C15.9369 13.5457 16.3518 12.99 17.1244 12.908C17.8828 12.8275 18.6022 13.0081 18.8201 13.5266C19.0555 14.0867 18.5271 14.7375 18.2759 15.0107C17.8109 15.5173 17.0556 15.8868 16.6641 16.4334C16.2803 16.969 16.2121 17.6737 16.1825 18.5361H18.0457C18.0718 17.9847 18.1086 17.4565 18.3594 17.1138C18.7675 16.557 19.3769 16.296 19.8877 15.8562C20.3755 15.4359 20.8888 14.9293 20.9759 14.1452C21.2376 11.7985 19.322 10.6861 17.0828 10.8258Z" fill="white" fill-opacity="0.2"/>
<path d="M17.1307 21.6194C17.7803 21.6194 18.307 21.1007 18.307 20.4609C18.307 19.821 17.7803 19.3024 17.1307 19.3024C16.481 19.3024 15.9543 19.821 15.9543 20.4609C15.9543 21.1007 16.481 21.6194 17.1307 21.6194Z" fill="white" fill-opacity="0.2"/>
<path fill-rule="evenodd" clip-rule="evenodd" d="M3.65751 10.8258C1.56183 10.9562 0.46672 12.143 0.371094 14.2891H2.48514C2.51161 13.5457 2.92654 12.99 3.69911 12.908C4.45746 12.8275 5.17691 13.0081 5.39482 13.5266C5.63019 14.0867 5.10181 14.7375 4.85059 15.0107C4.38561 15.5173 3.63032 15.8868 3.23881 16.4334C2.85504 16.969 2.78679 17.6737 2.75725 18.5361H4.62044C4.64655 17.9847 4.68329 17.4565 4.93415 17.1138C5.34223 16.557 5.95165 16.296 6.46238 15.8562C6.95023 15.4359 7.46348 14.9293 7.55064 14.1452C7.81231 11.7985 5.89672 10.6861 3.65751 10.8258Z" fill="white" fill-opacity="0.2"/>
<path d="M3.70538 21.6194C4.35505 21.6194 4.88172 21.1007 4.88172 20.4609C4.88172 19.821 4.35505 19.3024 3.70538 19.3024C3.05571 19.3024 2.52905 19.821 2.52905 20.4609C2.52905 21.1007 3.05571 21.6194 3.70538 21.6194Z" fill="white" fill-opacity="0.2"/>
</svg>
