<svg width="23" height="32" viewBox="0 0 23 32" fill="none" xmlns="http://www.w3.org/2000/svg">
<path d="M0.000976562 27.1805V4.18164C0.000976562 1.87223 1.87315 6.12541e-05 4.18255 6.12541e-05L21.9543 0C22.5317 0 22.9998 0.468043 22.9998 1.04542V21.9535V22.8567L0.000976562 27.1805Z" fill="#3DAEF2"/>
<path d="M15.7465 5.74974H11.4342C10.8929 5.74974 10.4541 5.31097 10.4541 4.76967V3.59359C10.4541 3.05229 10.8929 2.61353 11.4342 2.61353H15.7465C16.2878 2.61353 16.7265 3.05229 16.7265 3.59359V4.76967C16.7265 5.31091 16.2878 5.74974 15.7465 5.74974Z" fill="#EFEFF9"/>
<path d="M14.7169 2.61328H13.2655C13.8231 2.61328 14.2752 3.06534 14.2752 3.62293V4.73984C14.2752 5.29744 13.8231 5.74949 13.2655 5.74949H14.7169C15.2745 5.74949 15.7265 5.29744 15.7265 4.73984V3.62293C15.7265 3.06534 15.2745 2.61328 14.7169 2.61328Z" fill="#DFDEF5"/>
<path d="M21.5476 1.04542V23.1296L22.999 22.8567V1.04549C22.999 0.468043 22.5309 0 21.9535 0H20.5022C21.0796 6.12542e-05 21.5476 0.468104 21.5476 1.04542Z" fill="#109CF1"/>
<path d="M4.18156 23.4724C4.443 23.4724 4.65481 23.2605 4.65481 22.9992V0.000244141H4.1815C4.02138 0.000244141 3.86365 0.0101061 3.70825 0.0276247V22.9991C3.70831 23.2605 3.92019 23.4724 4.18156 23.4724Z" fill="#109CF1"/>
<path d="M22.0334 27.2643L22.8121 24.8445L22.9989 24.269V21.9536C22.9989 22.531 22.5309 22.9991 21.9534 22.9991H4.18164C1.87217 22.9991 0 24.8712 0 27.1807C0 29.4901 1.87217 31.3622 4.18164 31.3622H21.9534C22.5308 31.3622 22.9989 30.8942 22.9989 30.3168V28.2259L22.0334 27.2643Z" fill="#109CF1"/>
<path d="M22.0334 27.2643L22.8121 24.8445L22.9989 24.269V21.9536C22.9989 22.531 22.5309 22.9991 21.9535 22.9991H21.5413V30.3168C21.5413 30.8942 21.0732 31.3623 20.4958 31.3623H21.9535C22.5308 31.3623 22.9989 30.8943 22.9989 30.3168V28.226L22.0334 27.2643Z" fill="#109CF1"/>
<path d="M9.40873 29.2712H21.9535C22.5309 29.2712 22.999 28.8032 22.999 28.2258V24.0442C22.999 24.6216 22.531 25.0897 21.9535 25.0897L4.18173 25.0896C3.02703 25.0896 2.09094 26.0257 2.09094 27.1804C2.09094 28.3351 3.02703 29.2712 4.18173 29.2712H5.22715" fill="#F2F2FC"/>
<path d="M9.40869 29.2712V27.1804H5.22705V30.8383C5.22705 31.3039 5.7901 31.5372 6.11934 31.2079L6.94823 30.379C7.15239 30.1749 7.48329 30.1749 7.68745 30.379L7.95727 30.6488L9.40869 29.2712Z" fill="#73BCFF"/>
<path d="M7.9574 27.1804V30.6488L8.51646 31.2079C8.84577 31.5372 9.40875 31.304 9.40875 30.8383V27.1804H7.9574Z" fill="#737EE6"/>
<path d="M21.9536 25.0897H21.5476V28.2258C21.5476 28.8031 21.0796 29.2712 20.5022 29.2712H21.9535C22.5309 29.2712 22.999 28.8031 22.999 28.2258V24.0442C22.999 24.6216 22.5309 25.0897 21.9536 25.0897Z" fill="#DFDEF5"/>
<path d="M2.09082 27.1803C2.09082 27.3432 2.11005 27.5014 2.14528 27.6536H22.9989V26.707H2.14528C2.11005 26.8592 2.09082 27.0174 2.09082 27.1803Z" fill="#DFDEF5"/>
</svg>
