<svg width="21" height="21" viewBox="0 0 21 21" fill="none" xmlns="http://www.w3.org/2000/svg">
<path d="M18.0832 1.62769H16.3336V0H15.1664V1.62769H5.83358V0H4.66642V1.62769H2.91679C1.30813 1.62769 0 2.84465 0 4.34119V17.3658C0 18.8623 1.30813 20.0793 2.91679 20.0793H18.0832C19.6919 20.0793 21 18.8623 21 17.3658V7.05469V5.9699V4.34119C21 2.84567 19.6919 1.62769 18.0832 1.62769ZM19.8339 17.3658C19.8339 18.2635 19.0493 18.9935 18.0843 18.9935H2.91679C1.95181 18.9935 1.16715 18.2635 1.16715 17.3658V7.05469H19.8339V17.3658ZM19.8339 5.9699H1.16606V4.34119C1.16606 3.44347 1.95072 2.7135 2.9157 2.7135H4.66533V3.79931H5.83358V2.7135H15.1675V3.79931H16.3347V2.7135H18.0843C19.0493 2.7135 19.8339 3.44347 19.8339 4.34119V5.9699Z" fill="#109CF1"/>
<path d="M9.25077 12.3215H11.7502C12.4397 12.3215 13.0005 11.8609 13.0005 11.2945V9.24138C13.0005 8.67498 12.4397 8.21436 11.7502 8.21436H9.25077C8.56124 8.21436 8.00048 8.67498 8.00048 9.24138V11.2945C8.00165 11.8609 8.56241 12.3215 9.25077 12.3215ZM9.25077 9.24138H11.7502L11.7514 11.2945H9.25077V9.24138Z" fill="#109CF1"/>
<path d="M15.1257 12.3215H17.3752C17.9958 12.3215 18.5005 11.8609 18.5005 11.2945V9.24138C18.5005 8.67498 17.9958 8.21436 17.3752 8.21436H15.1257C14.5051 8.21436 14.0004 8.67498 14.0004 9.24138V11.2945C14.0015 11.8609 14.5062 12.3215 15.1257 12.3215ZM15.1257 9.24138H17.3752L17.3762 11.2945H15.1257V9.24138Z" fill="#109CF1"/>
<path d="M3.62503 17.3413H5.8745C6.49508 17.3413 6.99976 16.8806 6.99976 16.3142V14.2612C6.99976 13.6948 6.49508 13.2341 5.8745 13.2341H3.62503C3.00445 13.2341 2.49977 13.6948 2.49977 14.2612V16.3142C2.49977 16.8806 3.00445 17.3413 3.62503 17.3413ZM3.62503 14.2612H5.8745L5.87555 16.3142H3.62503V14.2612Z" fill="#109CF1"/>
<path d="M9.25077 17.3413H11.7502C12.4397 17.3413 13.0005 16.8806 13.0005 16.3142V14.2612C13.0005 13.6948 12.4397 13.2341 11.7502 13.2341H9.25077C8.56124 13.2341 8.00048 13.6948 8.00048 14.2612V16.3142C8.00165 16.8806 8.56241 17.3413 9.25077 17.3413ZM9.25077 14.2612H11.7502L11.7514 16.3142H9.25077V14.2612Z" fill="#109CF1"/>
<path d="M15.1257 17.3413H17.3752C17.9958 17.3413 18.5005 16.8806 18.5005 16.3142V14.2612C18.5005 13.6948 17.9958 13.2341 17.3752 13.2341H15.1257C14.5051 13.2341 14.0004 13.6948 14.0004 14.2612V16.3142C14.0015 16.8806 14.5062 17.3413 15.1257 17.3413ZM15.1257 14.2612H17.3752L17.3762 16.3142H15.1257V14.2612Z" fill="#109CF1"/>
</svg>
