<svg width="17" height="18" viewBox="0 0 17 18" fill="none" xmlns="http://www.w3.org/2000/svg">
<path d="M8.95392 6.82095H7.94727V13.6466H8.95392V6.82095Z" fill="#FF1717"/>
<path d="M9.78436 0H7.11682C6.64962 0 6.20155 0.171923 5.87119 0.477947C5.54082 0.783972 5.35523 1.19903 5.35523 1.63181V2.24724H0.503311C0.369825 2.24724 0.241806 2.29636 0.147416 2.3838C0.0530274 2.47123 0 2.58982 0 2.71347C0 2.83713 0.0530274 2.95571 0.147416 3.04315C0.241806 3.13059 0.369825 3.17971 0.503311 3.17971H1.8396V14.8029C1.8396 15.5448 2.15777 16.2563 2.7241 16.7809C3.29043 17.3056 4.05855 17.6003 4.85947 17.6003H12.0417C12.8426 17.6003 13.6107 17.3056 14.1771 16.7809C14.7434 16.2563 15.0616 15.5448 15.0616 14.8029V3.17971H16.3979C16.5314 3.17971 16.6594 3.13059 16.7538 3.04315C16.8482 2.95571 16.9012 2.83713 16.9012 2.71347C16.9012 2.58982 16.8482 2.47123 16.7538 2.3838C16.6594 2.29636 16.5314 2.24724 16.3979 2.24724H11.546V1.63181C11.546 1.19903 11.3604 0.783972 11.03 0.477947C10.6996 0.171923 10.2516 0 9.78436 0ZM6.35933 1.63181C6.35933 1.44634 6.43888 1.26845 6.58046 1.1373C6.72204 1.00615 6.91407 0.932465 7.1143 0.932465H9.78436C9.98459 0.932465 10.1766 1.00615 10.3182 1.1373C10.4598 1.26845 10.5393 1.44634 10.5393 1.63181V2.24724H6.36185L6.35933 1.63181ZM14.055 3.17971V14.8029C14.055 15.2975 13.8429 15.7718 13.4653 16.1216C13.0877 16.4713 12.5757 16.6678 12.0417 16.6678H4.85947C4.32552 16.6678 3.81345 16.4713 3.43589 16.1216C3.05833 15.7718 2.84622 15.2975 2.84622 14.8029V3.17971H14.055Z" fill="#FE0707"/>
<path d="M5.93384 6.82095H4.92725V13.6466H5.93384V6.82095Z" fill="#FF1717"/>
<path d="M11.9739 6.82095H10.9673V13.6466H11.9739V6.82095Z" fill="#FF1717"/>
</svg>
