<svg width="14" height="10" viewBox="0 0 14 10" fill="none" xmlns="http://www.w3.org/2000/svg">
<path d="M4.66667 8.89851C4.66667 8.71697 4.72812 8.54286 4.83752 8.41449C4.94692 8.28612 5.09529 8.21401 5.25 8.21401H8.75C8.90471 8.21401 9.05308 8.28612 9.16248 8.41449C9.27188 8.54286 9.33333 8.71697 9.33333 8.89851C9.33333 9.08005 9.27188 9.25415 9.16248 9.38252C9.05308 9.51089 8.90471 9.58301 8.75 9.58301H5.25C5.09529 9.58301 4.94692 9.51089 4.83752 9.38252C4.72812 9.25415 4.66667 9.08005 4.66667 8.89851ZM2.33333 4.7915C2.33333 4.60996 2.39479 4.43586 2.50419 4.30749C2.61358 4.17912 2.76196 4.107 2.91667 4.107H11.0833C11.238 4.107 11.3864 4.17912 11.4958 4.30749C11.6052 4.43586 11.6667 4.60996 11.6667 4.7915C11.6667 4.97304 11.6052 5.14715 11.4958 5.27552C11.3864 5.40389 11.238 5.476 11.0833 5.476H2.91667C2.76196 5.476 2.61358 5.40389 2.50419 5.27552C2.39479 5.14715 2.33333 4.97304 2.33333 4.7915ZM0 0.684501C0 0.50296 0.0614583 0.328854 0.170854 0.200486C0.280251 0.072117 0.428624 0 0.583333 0H13.4167C13.5714 0 13.7197 0.072117 13.8291 0.200486C13.9385 0.328854 14 0.50296 14 0.684501C14 0.866041 13.9385 1.04015 13.8291 1.16852C13.7197 1.29688 13.5714 1.369 13.4167 1.369H0.583333C0.428624 1.369 0.280251 1.29688 0.170854 1.16852C0.0614583 1.04015 0 0.866041 0 0.684501Z" fill="#FE0707"/>
</svg>
