<svg width="23" height="16" viewBox="0 0 23 16" fill="none" xmlns="http://www.w3.org/2000/svg">
<path d="M19.2 6.95C19.3464 6.56786 19.4286 6.15 19.4286 5.71429C19.4286 3.82143 17.8929 2.28571 16 2.28571C15.2964 2.28571 14.6393 2.5 14.0964 2.86429C13.1071 1.15 11.2607 0 9.14286 0C5.98571 0 3.42857 2.55714 3.42857 5.71429C3.42857 5.81071 3.43214 5.90714 3.43571 6.00357C1.43571 6.70714 0 8.61429 0 10.8571C0 13.6964 2.30357 16 5.14286 16H18.2857C20.8107 16 22.8571 13.9536 22.8571 11.4286C22.8571 9.21786 21.2857 7.37143 19.2 6.95ZM14.4536 10.1179L10.6893 13.8821C10.4679 14.1036 10.1036 14.1036 9.88214 13.8821L6.11786 10.1179C5.75714 9.75714 6.01429 9.14286 6.52143 9.14286H8.85714V5.14286C8.85714 4.82857 9.11429 4.57143 9.42857 4.57143H11.1429C11.4571 4.57143 11.7143 4.82857 11.7143 5.14286V9.14286H14.05C14.5571 9.14286 14.8143 9.75714 14.4536 10.1179Z" fill="#44C616"/>
</svg>
