<svg width="24" height="24" viewBox="0 0 24 24" fill="none" xmlns="http://www.w3.org/2000/svg">
<path d="M12 0C9.62663 0 7.30655 0.703788 5.33316 2.02236C3.35977 3.34094 1.8217 5.21508 0.913451 7.4078C0.00519953 9.60051 -0.232441 12.0133 0.230582 14.3411C0.693605 16.6689 1.83649 18.807 3.51472 20.4853C5.19295 22.1635 7.33115 23.3064 9.65892 23.7694C11.9867 24.2324 14.3995 23.9948 16.5922 23.0865C18.7849 22.1783 20.6591 20.6402 21.9776 18.6668C23.2962 16.6934 24 14.3734 24 12C24 8.8174 22.7357 5.76515 20.4853 3.51472C18.2348 1.26428 15.1826 0 12 0ZM18.792 12.8H12.8V18.792C12.8 19.0042 12.7157 19.2077 12.5657 19.3577C12.4157 19.5077 12.2122 19.592 12 19.592C11.7878 19.592 11.5843 19.5077 11.4343 19.3577C11.2843 19.2077 11.2 19.0042 11.2 18.792V12.8H5.208C4.99583 12.8 4.79235 12.7157 4.64232 12.5657C4.49229 12.4157 4.408 12.2122 4.408 12C4.408 11.7878 4.49229 11.5843 4.64232 11.4343C4.79235 11.2843 4.99583 11.2 5.208 11.2H11.2V5.208C11.2 4.99583 11.2843 4.79234 11.4343 4.64231C11.5843 4.49228 11.7878 4.408 12 4.408C12.2122 4.408 12.4157 4.49228 12.5657 4.64231C12.7157 4.79234 12.8 4.99583 12.8 5.208V11.2H18.792C19.0042 11.2 19.2077 11.2843 19.3577 11.4343C19.5077 11.5843 19.592 11.7878 19.592 12C19.592 12.2122 19.5077 12.4157 19.3577 12.5657C19.2077 12.7157 19.0042 12.8 18.792 12.8Z" fill="#109CF1"/>
</svg>
