<svg width="28" height="20" viewBox="0 0 28 20" fill="none" xmlns="http://www.w3.org/2000/svg">
<path d="M21.4771 20H17.0345H15.8382H15.5799V14.041H17.5288C18.023 14.041 18.3151 13.4794 18.023 13.075L14.232 7.82926C13.9905 7.49228 13.4906 7.49228 13.2491 7.82926L9.45802 13.075C9.16596 13.4794 9.4524 14.041 9.95226 14.041H11.9012V20H11.6428H10.4465H5.29627C2.34766 19.8371 0 17.0795 0 14.0915C0 12.0303 1.11766 10.2331 2.7745 9.26144C2.62286 8.85145 2.54423 8.41337 2.54423 7.95282C2.54423 5.84667 4.246 4.1449 6.35215 4.1449C6.80708 4.1449 7.24516 4.22353 7.65515 4.37518C8.87391 1.79163 11.5024 0 14.5577 0C18.5117 0.0056164 21.7692 3.03286 22.1398 6.89132C25.1783 7.41365 27.4867 10.2275 27.4867 13.412C27.4867 16.8155 24.8357 19.7641 21.4771 20Z" fill="#0498F9"/>
</svg>
