<svg xmlns="http://www.w3.org/2000/svg" width="79.999" height="80" viewBox="0 0 79.999 80">
  <g id="Archived_Reports" data-name="Archived Reports" transform="translate(-0.004)">
    <g id="Group_4245" data-name="Group 4245" transform="translate(0.004)">
      <g id="Group_4244" data-name="Group 4244" transform="translate(0)">
        <path id="Path_1775" data-name="Path 1775" d="M79.757,51.228a1.334,1.334,0,0,0-1.087-.561h-12V12a1.333,1.333,0,0,0-1.333-1.333h-4v-4A1.333,1.333,0,0,0,60,5.333H28a5.333,5.333,0,0,0-10.667,0h-4A1.333,1.333,0,0,0,12,6.667v44H1.337A1.333,1.333,0,0,0,.169,52.643L14.836,79.309A1.333,1.333,0,0,0,16,80H69.337a1.271,1.271,0,0,0,1.251-.9H70.6l9.333-26.667A1.333,1.333,0,0,0,79.757,51.228ZM61.337,61.333v-48H64V66.2l-2.679-4.871ZM22.67,2.667a2.667,2.667,0,0,1,2.667,2.667H20A2.667,2.667,0,0,1,22.67,2.667ZM14.67,8H25.337v4a1.333,1.333,0,1,1-2.667,0V10.667H20V12a4,4,0,1,0,8,0V8H58.67V56.507l-2.832-5.149a1.333,1.333,0,0,0-1.168-.691h-40V8Zm2.121,69.333-13.2-24H53.882l13.2,24ZM69.07,75.407l-2.4-4.355V53.333H76.79Z" transform="translate(-0.004)" fill="#0a346c"/>
      </g>
    </g>
    <g id="Group_4247" data-name="Group 4247" transform="translate(63.813 5.397)">
      <g id="Group_4246" data-name="Group 4246">
        <path id="Path_1776" data-name="Path 1776" d="M386.7,32H384v2.7h2.7a2.7,2.7,0,0,1,2.7,2.7V56.286h2.7V37.4A5.4,5.4,0,0,0,386.7,32Z" transform="translate(-384.003 -32)" fill="#0a346c"/>
      </g>
    </g>
    <g id="Group_4249" data-name="Group 4249" transform="translate(70.197 32.079)">
      <g id="Group_4248" data-name="Group 4248" transform="translate(0 0)">
        <rect id="Rectangle_2015" data-name="Rectangle 2015" width="1.333" height="2.667" fill="#0a346c"/>
      </g>
    </g>
    <g id="Group_4251" data-name="Group 4251" transform="translate(7.15 26.726)">
      <g id="Group_4250" data-name="Group 4250" transform="translate(0 0)">
        <rect id="Rectangle_2016" data-name="Rectangle 2016" width="2.667" height="18.667" fill="#0a346c"/>
      </g>
    </g>
    <g id="Group_4253" data-name="Group 4253" transform="translate(7.15 21.542)">
      <g id="Group_4252" data-name="Group 4252" transform="translate(0 0)">
        <rect id="Rectangle_2017" data-name="Rectangle 2017" width="2.667" height="2.667" fill="#0a346c"/>
      </g>
    </g>
    <g id="Group_4257" data-name="Group 4257" transform="translate(22.885 23.141)">
      <g id="Group_4256" data-name="Group 4256" transform="translate(0 0)">
        <rect id="Rectangle_2018" data-name="Rectangle 2018" width="2.667" height="2.667" fill="#0a346c"/>
      </g>
    </g>
    <g id="Group_4259" data-name="Group 4259" transform="translate(26.662 23.141)">
      <g id="Group_4258" data-name="Group 4258" transform="translate(0 0)">
        <rect id="Rectangle_2019" data-name="Rectangle 2019" width="28" height="2.667" fill="#0a346c"/>
      </g>
    </g>
    <g id="Group_4261" data-name="Group 4261" transform="translate(18.744 28.475)">
      <g id="Group_4260" data-name="Group 4260" transform="translate(0 0)">
        <rect id="Rectangle_2020" data-name="Rectangle 2020" width="36" height="2.667" fill="#0a346c"/>
        <rect id="Rectangle_2024" data-name="Rectangle 2024" width="36" height="2.667" transform="translate(0 6.667)" fill="#0a346c"/>
        <rect id="Rectangle_2025" data-name="Rectangle 2025" width="36" height="2.667" transform="translate(0 12)" fill="#0a346c"/>
      </g>
    </g>
    <g id="Group_4263" data-name="Group 4263" transform="translate(18.787 45.808)">
      <g id="Group_4262" data-name="Group 4262" transform="translate(0 0)">
        <rect id="Rectangle_2021" data-name="Rectangle 2021" width="30.667" height="2.667" fill="#0a346c"/>
      </g>
    </g>
    <g id="Group_4265" data-name="Group 4265" transform="translate(53.087 12.143)">
      <g id="Group_4264" data-name="Group 4264">
        <rect id="Rectangle_2022" data-name="Rectangle 2022" width="2.775" height="2.698" fill="#0a346c"/>
      </g>
    </g>
    <g id="Group_4267" data-name="Group 4267" transform="translate(53.162 16.27)">
      <g id="Group_4266" data-name="Group 4266" transform="translate(0 0)">
        <rect id="Rectangle_2023" data-name="Rectangle 2023" width="2.667" height="4" fill="#0a346c"/>
      </g>
    </g>
  </g>
</svg>
