<svg xmlns="http://www.w3.org/2000/svg" width="80" height="80" viewBox="0 0 80 80">
  <g id="delete" transform="translate(9.136 2.003)">
    <rect id="Rectangle_49" data-name="Rectangle 49" width="80" height="80" transform="translate(-9.136 -2.003)" fill="none"/>
    <g id="Group_88" data-name="Group 88" transform="translate(-1.133 -1.001)">
      <rect id="Rectangle_48" data-name="Rectangle 48" width="60" height="10" rx="5" transform="translate(1.864 10.997)" fill="#3c92ca"/>
      <path id="Path_163" data-name="Path 163" d="M224.2,154.7a1.8,1.8,0,0,0-1.8,1.8v34.081a1.8,1.8,0,1,0,3.606,0V156.506A1.8,1.8,0,0,0,224.2,154.7Zm0,0" transform="translate(-181.301 -125.806)" fill="#3c92ca"/>
      <path id="Path_164" data-name="Path 164" d="M106.2,154.7a1.8,1.8,0,0,0-1.8,1.8v34.081a1.8,1.8,0,1,0,3.606,0V156.506A1.8,1.8,0,0,0,106.2,154.7Zm0,0" transform="translate(-85.108 -125.806)" fill="#3c92ca"/>
      <path id="Path_165" data-name="Path 165" d="M5.238,23.22V68.226a10.022,10.022,0,0,0,2.707,6.951A9.132,9.132,0,0,0,14.539,78H49.455a9.13,9.13,0,0,0,6.594-2.822,10.022,10.022,0,0,0,2.707-6.951V23.22A6.971,6.971,0,0,0,56.947,9.5H47.5V7.214a7.14,7.14,0,0,0-2.129-5.12A7.289,7.289,0,0,0,40.19,0H23.8a7.289,7.289,0,0,0-5.179,2.095A7.14,7.14,0,0,0,16.5,7.214V9.5H7.047A6.971,6.971,0,0,0,5.238,23.22ZM49.455,74.345H14.539a5.809,5.809,0,0,1-5.61-6.119V23.38H55.065V68.226a5.809,5.809,0,0,1-5.61,6.119ZM20.186,7.214a3.5,3.5,0,0,1,1.047-2.538A3.573,3.573,0,0,1,23.8,3.652H40.19a3.573,3.573,0,0,1,2.57,1.024,3.5,3.5,0,0,1,1.047,2.538V9.5H20.186ZM7.047,13.151h49.9a3.288,3.288,0,1,1,0,6.576H7.047a3.288,3.288,0,1,1,0-6.576Zm0,0" transform="translate(0 0)" fill="#0a346c"/>
      <path id="Path_166" data-name="Path 166" d="M165.2,154.7a1.8,1.8,0,0,0-1.8,1.8v34.081a1.8,1.8,0,1,0,3.606,0V156.506A1.8,1.8,0,0,0,165.2,154.7Zm0,0" transform="translate(-133.205 -125.806)" fill="#3c92ca"/>
    </g>
  </g>
</svg>
