<svg xmlns="http://www.w3.org/2000/svg" width="80" height="84" viewBox="0 0 80 84">
  <g id="Download_Report_Card" data-name="Download Report Card" transform="translate(2389 2265)">
    <rect id="Rectangle_2065" data-name="Rectangle 2065" width="80" height="80" transform="translate(-2389 -2265)" fill="none"/>
    <g id="exam" transform="translate(-2383 -2264)">
      <path id="Subtraction_9" data-name="Subtraction 9" d="M2428.832,2342h-44.3a1.534,1.534,0,0,1-1.533-1.533v-66.913a1.535,1.535,0,0,1,1.533-1.534h14.947v-6.487a1.535,1.535,0,0,1,1.533-1.534h38.332a1.54,1.54,0,0,1,1.084.45l10.123,10.127a1.522,1.522,0,0,1,.449,1.083v36.02a1.445,1.445,0,0,1-1.532,1.477,1.614,1.614,0,0,1-1.054-.37,1.407,1.407,0,0,1-.479-1.108V2276.3l-9.226-9.229h-36.164v4.954h20.319a1.52,1.52,0,0,1,1.084.45l10.124,10.126a1.547,1.547,0,0,1,.448,1.084v3.009h6.061a1.535,1.535,0,0,1,0,3.067h-6.061v7.435h6.061a1.534,1.534,0,0,1,0,3.065h-6.061v7.436h6.061a1.534,1.534,0,0,1,0,3.066h-6.061v17.863a9.963,9.963,0,0,0-3.064,1.816v-46.122l-9.227-9.229h-36.164v63.847h41.978a9.93,9.93,0,0,0,.788,3.064Zm20.636-8.021h-2.309a9.964,9.964,0,0,0-2.1-3.066h2.88V2324.1a1.534,1.534,0,0,1,3.065,0v8.348A1.534,1.534,0,0,1,2449.468,2333.979Z" transform="translate(-2383 -2264)" fill="#09346c"/>
      <path id="Path_1808" data-name="Path 1808" d="M72.176,188.068H74.87v2.786c0,1.394,2.694,1.417,2.694,0v-2.786h2.669c1.414,0,1.38-2.568,0-2.568H77.565v-2.76c0-1.429-2.694-1.4-2.694,0v2.76H72.176c-1.345,0-1.368,2.568,0,2.568Zm0,0" transform="translate(-60.323 -154.004)" fill="#58a5da"/>
      <path id="Path_1809" data-name="Path 1809" d="M157.384,150.63c.683.381,2.489.849,2.819-.236l.939-3.351h5.394l.957,3.349c.376,1.4,3.473.459,3.122-.957L165.755,133.6c-.417-1.46-3.738-1.583-4.2-.11l-4.865,15.837a1.152,1.152,0,0,0,.7,1.306h0Zm6.64-13.885,2.191,7.73H161.86Zm0,0" transform="translate(-132.804 -112.269)" fill="#58a5da"/>
      <path id="Path_1810" data-name="Path 1810" d="M66.983,355.646H94.23a1.535,1.535,0,0,0,0-3.068H66.983A1.535,1.535,0,0,0,66.983,355.646Zm0,0" transform="translate(-55.516 -298.867)" fill="#58a5da"/>
      <path id="Path_1811" data-name="Path 1811" d="M66.983,310.006h8a1.535,1.535,0,0,0,0-3.068h-8A1.535,1.535,0,0,0,66.983,310.006Zm0,0" transform="translate(-55.516 -260.18)" fill="#58a5da"/>
      <path id="Path_1812" data-name="Path 1812" d="M66.983,398.431H94.23a1.535,1.535,0,0,0,0-3.068H66.983A1.535,1.535,0,0,0,66.983,398.431Zm0,0" transform="translate(-55.516 -335.134)" fill="#58a5da"/>
      <path id="Path_1813" data-name="Path 1813" d="M66.983,441.217H94.23a1.536,1.536,0,0,0,0-3.069H66.983A1.536,1.536,0,0,0,66.983,441.217Zm0,0" transform="translate(-55.516 -371.408)" fill="#58a5da"/>
      <path id="Path_1814" data-name="Path 1814" d="M427.925,343.5a1.535,1.535,0,1,0,1.531,1.6A1.552,1.552,0,0,0,427.925,343.5Zm0,0" transform="translate(-361.459 -291.168)" fill="#58a5da"/>
      <path id="Path_1815" data-name="Path 1815" d="M158.568,307.429a1.535,1.535,0,1,0,2.216.05,1.551,1.551,0,0,0-2.216-.05Zm0,0" transform="translate(-134.045 -260.221)" fill="#58a5da"/>
      <g id="dwnld" transform="translate(2383 2264)">
        <g id="Ellipse_18" data-name="Ellipse 18" transform="translate(-2337 -2199)" fill="none" stroke="#58a5da" stroke-linecap="round" stroke-width="2">
          <circle cx="9" cy="9" r="9" stroke="none"/>
          <circle cx="9" cy="9" r="8" fill="none"/>
        </g>
        <path id="Icon_material-file-download" data-name="Icon material-file-download" d="M15.5,7.324H13.214V4.5H9.786V7.324H7.5l4,3.294Zm-8,4.235V12.5h8v-.941Z" transform="translate(-2339.5 -2198.5)" fill="#58a5da"/>
      </g>
    </g>
  </g>
</svg>
