<svg xmlns="http://www.w3.org/2000/svg" width="80" height="80" viewBox="0 0 80 80">
  <g id="Edit" transform="translate(928.92 1378.92)">
    <rect id="Rectangle_47" data-name="Rectangle 47" width="80" height="80" transform="translate(-928.92 -1378.92)" fill="none"/>
    <g id="Group_87" data-name="Group 87" transform="translate(-927.196 -1376.731)">
      <g id="pencil" transform="translate(58.061 0) rotate(45)">
        <path id="XMLID_506_" d="M22.58,0H2.252A2.243,2.243,0,0,0,0,2.252v11.9H24.852V2.252A2.272,2.272,0,0,0,22.58,0Z" transform="translate(0 0)" fill="#3c92ca"/>
        <path id="Path_162" data-name="Path 162" d="M0,47.426v.034c0,.067.017.152.017.219a.128.128,0,0,0,.017.067A1.485,1.485,0,0,0,.118,48c.017.017.017.034.034.067a1.483,1.483,0,0,0,.1.169c.017.017.034.051.051.067s.017.034.034.051l10.9,14.29a1.559,1.559,0,0,0,1.215.607,1.51,1.51,0,0,0,1.215-.607l10.9-14.29c.017-.017.017-.034.034-.051s.034-.051.051-.067c.034-.051.067-.118.1-.169.017-.017.017-.034.034-.067.034-.084.051-.169.084-.253a.128.128,0,0,1,.017-.067.962.962,0,0,0,.017-.219V1.535a1.535,1.535,0,1,0-3.071,0V45.891H14V1.62a1.535,1.535,0,0,0-3.071,0V45.891H3.1V1.62a1.535,1.535,0,0,0-3.071,0V47.426Zm20.229,1.535L12.418,59.186,4.606,48.945H20.229Z" transform="translate(0 18.859)" fill="#0a346c"/>
      </g>
      <rect id="Rectangle_46" data-name="Rectangle 46" width="68" height="4" rx="2" transform="translate(8.276 69.811)" fill="#56a6db"/>
    </g>
  </g>
</svg>
