<svg xmlns="http://www.w3.org/2000/svg" width="80" height="80" viewBox="0 0 80 80">
  <g id="Export" transform="translate(2.16 5.92)">
    <rect id="Rectangle_2014" data-name="Rectangle 2014" width="80" height="80" transform="translate(-2.16 -5.92)" fill="none"/>
    <g id="Group_4242" data-name="Group 4242" transform="translate(2.84 2.581)">
      <path id="Path_1759" data-name="Path 1759" d="M212.251.957a1.572,1.572,0,0,0-2.68,1.114v8.384c-8.486.338-12.736,3.856-13.385,4.441a23.82,23.82,0,0,0-8.267,13.846,24.392,24.392,0,0,0-.281,7.979v.009c0,.023.007.047.01.071l.334,1.919a1.571,1.571,0,0,0,2.9.539l1-1.668c3.074-5.111,6.9-8.5,11.386-10.069a16.5,16.5,0,0,1,6.305-.924V35.28a1.571,1.571,0,0,0,2.685,1.108l16.6-16.688a1.571,1.571,0,0,0-.006-2.222Zm.463,30.515V25.183a1.571,1.571,0,0,0-1.321-1.551,19.222,19.222,0,0,0-9.166.924,24.005,24.005,0,0,0-11.65,9.278A22.383,22.383,0,0,1,191,29.352,20.44,20.44,0,0,1,198.211,17.3c.034-.028.066-.056.1-.087.11-.1,4.1-3.7,12.823-3.64h.012A1.573,1.573,0,0,0,212.714,12V5.851L225.525,18.6Zm0,0" transform="translate(-159.318 0)" fill="#0a346c"/>
      <path id="Path_1760" data-name="Path 1760" d="M64.273,95.818a1.551,1.551,0,0,0-1.54,1.561v6.6a4.657,4.657,0,0,1-4.62,4.684H7.7a4.658,4.658,0,0,1-4.62-4.684V66.78A4.658,4.658,0,0,1,7.7,62.1H18.351a1.562,1.562,0,0,0,0-3.123H7.7A7.763,7.763,0,0,0,0,66.78v37.2a7.763,7.763,0,0,0,7.7,7.807H58.113a7.763,7.763,0,0,0,7.7-7.807v-6.6A1.551,1.551,0,0,0,64.273,95.818Zm0,0" transform="translate(0 -49.286)" fill="#0a346c"/>
    </g>
  </g>
</svg>
