<svg xmlns="http://www.w3.org/2000/svg" width="80" height="80" viewBox="0 0 80 80">
  <g id="inventory" transform="translate(88 75)">
    <rect id="Rectangle_45" data-name="Rectangle 45" width="80" height="80" transform="translate(-88 -75)" fill="none"/>
    <g id="Group_85" data-name="Group 85" transform="translate(0 0)">
      <rect id="Rectangle_3" data-name="Rectangle 3" width="4" height="71" transform="translate(-84 -70)" fill="#58a5da"/>
      <rect id="Rectangle_4" data-name="Rectangle 4" width="4" height="71" transform="translate(-16 -70)" fill="#58a5da"/>
      <rect id="Rectangle_5" data-name="Rectangle 5" width="3" height="7" transform="translate(-59.72 -33.155)" fill="#58a5da"/>
      <rect id="Rectangle_6" data-name="Rectangle 6" width="4" height="7" transform="translate(-33.459 -33.155)" fill="#58a5da"/>
      <rect id="Rectangle_7" data-name="Rectangle 7" width="3" height="7" transform="translate(-59.72 -67)" fill="#58a5da"/>
      <rect id="Rectangle_8" data-name="Rectangle 8" width="4" height="7" transform="translate(-33.459 -67)" fill="#58a5da"/>
      <path id="Path_24" data-name="Path 24" d="M72.2,0a3.732,3.732,0,0,0-3.8,3.8V30.4H64.346a4.5,4.5,0,0,0,.254-1.267V8.867a3.732,3.732,0,0,0-3.8-3.8H15.2a3.732,3.732,0,0,0-3.8,3.8V29.133a4.5,4.5,0,0,0,.254,1.267H7.6V3.8A3.732,3.732,0,0,0,3.8,0,3.732,3.732,0,0,0,0,3.8V72.2A3.732,3.732,0,0,0,3.8,76a3.732,3.732,0,0,0,3.8-3.8V65.867H68.4V72.2a3.8,3.8,0,0,0,7.6,0V3.8A3.732,3.732,0,0,0,72.2,0ZM62.067,8.867V29.133A1.2,1.2,0,0,1,60.8,30.4H39.267V7.6h11.4v7.6h7.6V7.6H60.8A1.2,1.2,0,0,1,62.067,8.867ZM53.2,7.6h2.533v5.067H53.2Zm-26.6,0h2.533v5.067H26.6ZM13.933,29.133V8.867A1.2,1.2,0,0,1,15.2,7.6h8.867v7.6h7.6V7.6h5.067V30.4H15.2A1.2,1.2,0,0,1,13.933,29.133ZM5.067,72.2A1.2,1.2,0,0,1,3.8,73.467,1.2,1.2,0,0,1,2.533,72.2V3.8A1.2,1.2,0,0,1,3.8,2.533,1.2,1.2,0,0,1,5.067,3.8Zm8.867-10.133V41.8A1.2,1.2,0,0,1,15.2,40.533h8.867v7.6h7.6v-7.6h5.067v22.8H15.2A1.2,1.2,0,0,1,13.933,62.067ZM26.6,40.533h2.533V45.6H26.6Zm12.667,22.8v-22.8h11.4v7.6h7.6v-7.6H60.8A1.2,1.2,0,0,1,62.067,41.8V62.067A1.2,1.2,0,0,1,60.8,63.333ZM53.2,40.533h2.533V45.6H53.2Zm11.146,22.8a4.5,4.5,0,0,0,.254-1.267V41.8A3.732,3.732,0,0,0,60.8,38H15.2a3.732,3.732,0,0,0-3.8,3.8V62.067a4.5,4.5,0,0,0,.254,1.267H7.6v-30.4H68.4v30.4Zm9.12,8.867a1.267,1.267,0,1,1-2.533,0V3.8a1.267,1.267,0,1,1,2.533,0Zm0,0" transform="translate(-86 -73)" fill="#0a346c" stroke="#0a346c" stroke-width="1"/>
    </g>
  </g>
</svg>
