<svg xmlns="http://www.w3.org/2000/svg" width="80" height="80" viewBox="0 0 80 80">
  <g id="Student_Upload" data-name="Student Upload" transform="translate(722.319 457.319)">
    <rect id="Rectangle_2013" data-name="Rectangle 2013" width="80" height="80" transform="translate(-722.319 -457.319)" fill="none"/>
    <g id="Upload" transform="translate(-720.11 -455.11)">
      <path id="Subtraction_5" data-name="Subtraction 5" d="M28.922,75.582H28.88a1.033,1.033,0,0,1-.49-.134,39.182,39.182,0,0,0-17.874-5.023A1.045,1.045,0,0,1,9.5,69.385V62.03H1.04A1.041,1.041,0,0,1,0,60.99,27.991,27.991,0,0,1,8.434,40.566a28.649,28.649,0,0,1,8.383-5.9A15.616,15.616,0,0,1,13.359,24.63a15.952,15.952,0,0,1,1.517-6.953L5.963,13.324a1.033,1.033,0,0,1-.584-.933,1.043,1.043,0,0,1,.583-.933L29.188.105a1.041,1.041,0,0,1,.913,0l23.221,11.35.005,0,.016.01a1.041,1.041,0,0,1,.49.536,1.165,1.165,0,0,1,.043.131,1,1,0,0,1,.031.279V23.888a1.039,1.039,0,1,1-2.078,0V14.057L44.34,17.72a16.142,16.142,0,0,1,1.484,6.911,15.57,15.57,0,0,1-3.888,10.541A30.331,30.331,0,0,1,55.19,48.95a12.369,12.369,0,0,0-1.684,1.335A28.057,28.057,0,0,0,40.424,36.742a15.635,15.635,0,0,1-10.812,4.1,15.71,15.71,0,0,1-11.306-4.562,26.322,26.322,0,0,0-8.4,5.752A25.917,25.917,0,0,0,2.1,59.953H9.5V47.16a1.046,1.046,0,0,1,.892-1.03,28.54,28.54,0,0,1,4.013-.289,26.564,26.564,0,0,1,14.517,4.35c4.983-2.994,9.8-4.512,14.31-4.512a19.53,19.53,0,0,1,4.262.467,1.033,1.033,0,0,1,.811,1.013V59.953h1.381a12.307,12.307,0,0,0,.3,2.078H48.3v7.356a1.043,1.043,0,0,1-.309.741,1.014,1.014,0,0,1-.711.3h-.034l-.3,0c-4.886,0-10.8,1.7-17.567,5.042A1.025,1.025,0,0,1,28.922,75.582ZM43.236,47.76c-4.15,0-8.623,1.428-13.295,4.245V72.889c6.123-2.865,11.6-4.389,16.285-4.532V48.014A17.561,17.561,0,0,0,43.236,47.76Zm-28.847.162h0a25.974,25.974,0,0,0-2.813.155v20.3A40.982,40.982,0,0,1,27.86,72.833V51.982a24.56,24.56,0,0,0-13.471-4.06Zm2.358-29.335a13.927,13.927,0,0,0-1.307,6.044,13.423,13.423,0,0,0,3.843,9.7c.107.1.207.2.3.3a13.542,13.542,0,0,0,10.026,4.14,13.463,13.463,0,0,0,9.806-3.928,1.929,1.929,0,0,1,.184-.214,13.428,13.428,0,0,0,4.146-9.993,14.088,14.088,0,0,0-1.275-6L30.1,24.639a1.041,1.041,0,0,1-.908,0ZM29.645,2.2,8.787,12.391l7.96,3.886,12.9,6.27,12.831-6.23L50.5,12.391,29.644,2.2ZM52.87,33.09a1.041,1.041,0,0,1-1.039-1.04v-3.71a1.039,1.039,0,1,1,2.079,0v3.71A1.041,1.041,0,0,1,52.87,33.09Z" transform="translate(0 0)" fill="#0a346c"/>
      <g id="Group_4241" data-name="Group 4241" transform="translate(49.129 45.984)">
        <g id="Ellipse_10" data-name="Ellipse 10" fill="none" stroke="#0a346c" stroke-width="2">
          <circle cx="13.227" cy="13.227" r="13.227" stroke="none"/>
          <circle cx="13.227" cy="13.227" r="12.227" fill="none"/>
        </g>
        <path id="Icon_awesome-arrow-up" data-name="Icon awesome-arrow-up" d="M1.762,11.758l-.472-.567c-.339-.339-.114-.643.224-.978l6.22-6.361c.339-.339.121-.332.456.006l6.079,6.516c.339.339.571.425.232.76l-.549.7c-.342.342-.545.032-.88-.318L8.94,7.177V17.532a.863.863,0,0,1-.865.865l-.387-.006a.863.863,0,0,1-.865-.865V7.17L2.687,11.512c-.335.353-.583.592-.925.246Z" transform="translate(5.029 2.908)" fill="#0a346c"/>
      </g>
    </g>
  </g>
</svg>
