<svg xmlns="http://www.w3.org/2000/svg" width="80" height="80" viewBox="0 0 80 80">
  <g id="Manage_SMS" data-name="Manage SMS" transform="translate(7.059 16.461)">
    <rect id="Rectangle_2076" data-name="Rectangle 2076" width="80" height="80" transform="translate(-7.059 -16.461)" fill="none"/>
    <g id="Manage" transform="translate(-5.059 -9.461)">
      <path id="Path_1850" data-name="Path 1850" d="M53.511,38.4a4.752,4.752,0,0,0-4.718,4.774v5.809a1.223,1.223,0,1,0,2.447,0V43.178a2.288,2.288,0,0,1,2.271-2.3H79.058v8.108a1.223,1.223,0,1,0,2.446,0V40.879h25.547a2.288,2.288,0,0,1,2.271,2.3v5.809a1.223,1.223,0,1,0,2.447,0V43.178a4.753,4.753,0,0,0-4.718-4.774H81.5V32H95.8a6.512,6.512,0,0,0,6.465-6.543V4.538A6.511,6.511,0,0,0,95.8-2H64.344a6.513,6.513,0,0,0-6.465,6.543V25.456A6.513,6.513,0,0,0,64.344,32H79.058v6.4ZM64.344.471H95.8A4.028,4.028,0,0,1,99.57,3.135L82,18.217a2.934,2.934,0,0,1-3.841,0L60.568,3.147A4.027,4.027,0,0,1,64.344.471Zm-2.1,28.453,9.336-9.663a1.248,1.248,0,0,0-.02-1.751,1.213,1.213,0,0,0-1.73.02l-9.192,9.513a4.1,4.1,0,0,1-.319-1.587V6.183l16.25,13.926a5.353,5.353,0,0,0,7,0L99.816,6.17V25.456a4.083,4.083,0,0,1-.323,1.6l-9.249-9.524a1.214,1.214,0,0,0-1.182-.335,1.228,1.228,0,0,0-.874.869,1.248,1.248,0,0,0,.311,1.2l9.388,9.665a3.967,3.967,0,0,1-2.089.594H64.344a3.96,3.96,0,0,1-2.1-.6Zm0,0" transform="translate(-41.89 2.005)" fill="#09346c"/>
      <g id="Group_4336" data-name="Group 4336" transform="translate(0 53.275)">
        <path id="Path_1851" data-name="Path 1851" d="M238.744,380.841a1.238,1.238,0,0,0-1.751,0l-4.234,4.233-4.234-4.234a1.238,1.238,0,1,0-1.75,1.751l4.233,4.234-4.233,4.233a1.238,1.238,0,0,0,1.75,1.75l4.234-4.233,4.234,4.234a1.238,1.238,0,1,0,1.751-1.751l-4.234-4.233,4.234-4.234A1.237,1.237,0,0,0,238.744,380.841Zm0,0" transform="translate(-194.758 -380.448)" fill="#58a5da"/>
        <path id="Path_1852" data-name="Path 1852" d="M14.556,380.59l-8.348,7.647-4.053-4.395a1.238,1.238,0,1,0-1.82,1.678l4.888,5.3a1.238,1.238,0,0,0,1.746.074l9.258-8.48a1.238,1.238,0,1,0-1.672-1.826Zm0,0" transform="translate(0 -380.265)" fill="#58a5da"/>
        <path id="Path_1853" data-name="Path 1853" d="M439.515,380.59l-8.348,7.647-4.053-4.395a1.238,1.238,0,1,0-1.82,1.678l4.889,5.3a1.238,1.238,0,0,0,1.746.074l9.258-8.48a1.238,1.238,0,0,0-1.672-1.826Zm0,0" transform="translate(-365.592 -380.265)" fill="#58a5da"/>
      </g>
    </g>
  </g>
</svg>
