<svg xmlns="http://www.w3.org/2000/svg" width="80" height="80" viewBox="0 0 80 80">
  <g id="Report" transform="translate(0.002 4.196)">
    <rect id="Rectangle_2075" data-name="Rectangle 2075" width="80" height="80" transform="translate(-0.002 -4.196)" fill="none"/>
    <g id="Report-2" data-name="Report" transform="translate(1.631 -0.166)">
      <g id="Component_26_1" data-name="Component 26 – 1" transform="translate(0.368 -0.03)">
        <path id="Path_1845" data-name="Path 1845" d="M76.705,12.311a1.238,1.238,0,0,0-.368-.877L64.411-.368a1.243,1.243,0,0,0-.754-.352l-.248-.024a1.153,1.153,0,0,0-.124-.006L46.8-.671A5.947,5.947,0,0,0,40.886,5.3L40.964,21.6H8.32A8.335,8.335,0,0,0,0,29.926V63.147a8.3,8.3,0,0,0,1.92,5.317,1.247,1.247,0,0,0,.231.313,1.221,1.221,0,0,0,.18.145A8.29,8.29,0,0,0,8.32,71.478H57.894a8.291,8.291,0,0,0,5.983-2.55,1.232,1.232,0,0,0,.415-.461,8.3,8.3,0,0,0,1.923-5.32V45.781l4.713-.023a5.949,5.949,0,0,0,5.91-5.974l-.131-27.275Zm-4.216-1.2-4.225.02h-.018a3.461,3.461,0,0,1-3.459-3.447l-.02-4.214ZM8.32,24.077H40.976l.077,15.88a5.95,5.95,0,0,0,3.2,5.246l-7.82,6.648a5.113,5.113,0,0,1-6.639,0L2.59,28.789a5.853,5.853,0,0,1,5.73-4.713ZM63.736,63.147a5.822,5.822,0,0,1-.715,2.8l-14.9-15.173a1.24,1.24,0,0,0-1.768,1.739L61.391,67.83A5.812,5.812,0,0,1,57.894,69H8.32a5.807,5.807,0,0,1-3.506-1.173L19.766,52.514a1.24,1.24,0,1,0-1.772-1.735L3.188,65.939a5.822,5.822,0,0,1-.71-2.792v-31.2L28.2,53.747a7.582,7.582,0,0,0,9.843,0L47.3,45.871l16.439-.079Zm7.18-19.871-23.909.115h-.018a3.466,3.466,0,0,1-3.459-3.447L43.364,5.291a3.464,3.464,0,0,1,3.443-3.48l15.474-.075L62.31,7.7a5.942,5.942,0,0,0,5.937,5.916h.03l5.958-.029.125,26.21a3.466,3.466,0,0,1-3.443,3.48Zm0,0" transform="translate(0.001 0.751)" fill="#09346c"/>
        <path id="Subtraction_13" data-name="Subtraction 13" d="M6.4,46.628h0a10.59,10.59,0,0,1-3.036-.673,5.942,5.942,0,0,1-3.2-5.248L.09,24.827H.031V22.346H.078L0,6.053A5.948,5.948,0,0,1,5.91.08L22.4,0h.013c.04,0,.081,0,.112.006l.247.024a1.253,1.253,0,0,1,.754.353l11.926,11.8a1.225,1.225,0,0,1,.368.877l0,.2.13,27.275a5.949,5.949,0,0,1-5.909,5.974l-4.713.023v.023l0-.009H22.85l-16.44.077-.006.005ZM21.395,2.487,5.921,2.562a3.469,3.469,0,0,0-3.443,3.48L2.644,40.7A3.474,3.474,0,0,0,6.1,44.142h.018l23.909-.116a3.47,3.47,0,0,0,3.442-3.479l-.124-26.21-5.958.029h-.03a5.941,5.941,0,0,1-5.936-5.916l-.029-5.964Zm2.487,1.739h0L23.9,8.439a3.468,3.468,0,0,0,3.459,3.447h.018l4.225-.02-7.721-7.64Z" transform="translate(40.887 0)" fill="#58a5da"/>
      </g>
      <g id="Group_4335" data-name="Group 4335" transform="translate(47.885 17.489)">
        <path id="Path_1846" data-name="Path 1846" d="M405.458,162.738h-2.314a1.222,1.222,0,0,0,0,2.443h2.314a1.222,1.222,0,0,0,0-2.443Zm0,0" transform="translate(-392.876 -157.177)" fill="#09346c"/>
        <path id="Path_1847" data-name="Path 1847" d="M358.438,123.539h-19.22a1.222,1.222,0,1,0,0,2.443h19.22a1.222,1.222,0,0,0,0-2.443Zm0,0" transform="translate(-337.644 -123.539)" fill="#09346c"/>
        <path id="Path_1848" data-name="Path 1848" d="M345.209,162.738h-5.992a1.222,1.222,0,1,0,0,2.443h5.992a1.222,1.222,0,0,0,0-2.443Zm0,0" transform="translate(-337.973 -157.177)" fill="#09346c"/>
        <path id="Path_1849" data-name="Path 1849" d="M343.147,201.938h-3.929a1.222,1.222,0,0,0,0,2.443h3.929a1.222,1.222,0,0,0,0-2.443Zm0,0" transform="translate(-337.996 -190.815)" fill="#09346c"/>
      </g>
    </g>
  </g>
</svg>
