<svg xmlns="http://www.w3.org/2000/svg" width="80" height="80" viewBox="0 0 80 80">
  <g id="Send_SMS" data-name="Send SMS" transform="translate(2416 1397)">
    <rect id="Rectangle_2077" data-name="Rectangle 2077" width="80" height="80" transform="translate(-2416 -1397)" fill="none"/>
    <g id="Send" transform="translate(-2412 -1378)">
      <path id="Send_sms_Email" data-name="Send sms /Email" d="M59.662-.087a1.036,1.036,0,0,0-1.135-.225,1.05,1.05,0,0,0-.642.969V7.3c-.782.025-1.52.087-2.218.174V-1.243c0-.139-.005-.278-.013-.415a1.054,1.054,0,0,0-.05-.517,7.022,7.022,0,0,0-6.932-6.114H7A7.022,7.022,0,0,0,.059-2.146a1.066,1.066,0,0,0-.047.5C0-1.514,0-1.38,0-1.245V26.847a7.038,7.038,0,0,0,1.614,4.5,1.023,1.023,0,0,0,.195.264,1.036,1.036,0,0,0,.152.123A6.951,6.951,0,0,0,7,33.892H48.673A6.952,6.952,0,0,0,53.7,31.736a1.035,1.035,0,0,0,.348-.389,7.04,7.04,0,0,0,1.617-4.5v-7.33a13.076,13.076,0,0,1,2.218-.041v6.874a1.049,1.049,0,0,0,.644.969,1.037,1.037,0,0,0,1.136-.229L72.424,14.18a1.056,1.056,0,0,0,0-1.484ZM7-6.191H48.672a4.93,4.93,0,0,1,4.816,3.968L30.633,17.3a4.28,4.28,0,0,1-5.582,0L2.177-2.206A4.929,4.929,0,0,1,7-6.191Zm0,37.984A4.865,4.865,0,0,1,4.047,30.8L16.618,17.856a1.054,1.054,0,0,0-.017-1.484,1.037,1.037,0,0,0-1.474.016L2.679,29.208a4.936,4.936,0,0,1-.6-2.361V.464L23.7,18.9a6.346,6.346,0,0,0,8.276,0L53.585.447V7.839A16,16,0,0,0,47.112,10.7l0,0a18.339,18.339,0,0,0-5.254,7.123l-1.395-1.428a1.036,1.036,0,0,0-1.473-.013,1.054,1.054,0,0,0-.013,1.484l2.127,2.18c-.114.423-.217.851-.3,1.286a18.82,18.82,0,0,0-.215,6.116v.009c0,.016,0,.032.007.049l.256,1.485a1.04,1.04,0,0,0,1.921.36l.768-1.291a21.936,21.936,0,0,1,2.286-3.177l5.79,5.931a4.862,4.862,0,0,1-2.941.986Zm46.589-4.945a4.947,4.947,0,0,1-.6,2.369l-5.7-5.84a14.847,14.847,0,0,1,6.3-3.483Zm6.385-3.04v-5.27a1.047,1.047,0,0,0-.876-1.036,14.737,14.737,0,0,0-4.611.062c-.027,0-.054.008-.081.014-3.443.584-8.067,2.519-11.877,8.174a17.5,17.5,0,0,1,.318-4.022,16,16,0,0,1,5.6-9.421c.015-.012.027-.024.041-.036.14-.115,3.615-2.886,10.256-2.886h.193A1.046,1.046,0,0,0,59.97,8.339V3.18L70.212,13.443Zm0,0" transform="translate(0 8.289)" fill="#09346c"/>
      <path id="Subtraction_12" data-name="Subtraction 12" d="M1.448,30.245a1.036,1.036,0,0,1-.191-.018,1.05,1.05,0,0,1-.837-.852L.163,27.892l0-.025,0-.025v-.009A18.8,18.8,0,0,1,.37,21.717c.078-.4.177-.819.3-1.286L.65,20.409l0-.009a11.231,11.231,0,0,1,.791-2.2l.009-.054A18.41,18.41,0,0,1,6.68,11.086h0l0,0a15.993,15.993,0,0,1,6.472-2.857V8.219a20.753,20.753,0,0,1,2.214-.359l0-.005c.691-.082,1.392-.135,2.085-.158V1.049A1.046,1.046,0,0,1,18.1.081a1.036,1.036,0,0,1,1.135.225L31.991,13.088a1.058,1.058,0,0,1,0,1.485L19.235,27.484a1.036,1.036,0,0,1-1.136.229,1.046,1.046,0,0,1-.644-.969V19.87c-.284-.019-.576-.029-.867-.029a13.126,13.126,0,0,0-1.351.07v.023a.141.141,0,0,0-.058-.008,20,20,0,0,0-2.026.395v-.033a14.9,14.9,0,0,0-6.277,3.461A4.713,4.713,0,0,0,5.39,25.274a21.97,21.97,0,0,0-2.281,3.172l-.768,1.29A1.045,1.045,0,0,1,1.448,30.245ZM18.306,9.781a20.057,20.057,0,0,0-7.566,1.4,11.311,11.311,0,0,0-2.69,1.486l-.041.036a16,16,0,0,0-5.6,9.422,17.556,17.556,0,0,0-.318,4.022,20.006,20.006,0,0,1,6.076-5.989,16.277,16.277,0,0,1,5.8-2.186l.081-.014a14.746,14.746,0,0,1,4.611-.062,1.044,1.044,0,0,1,.876,1.036V24.2L29.783,13.836,19.541,3.573V8.732A1.047,1.047,0,0,1,18.5,9.781Z" transform="translate(40.429 7.896)" fill="#58a5da"/>
    </g>
  </g>
</svg>
