<svg width="20" height="22" viewBox="0 0 20 22" fill="none" xmlns="http://www.w3.org/2000/svg">
<path d="M18.3333 2.14006H16.6667V1.42671C16.6667 1.04832 16.5262 0.685433 16.2761 0.417873C16.0261 0.150313 15.687 0 15.3333 0C14.9797 0 14.6406 0.150313 14.3905 0.417873C14.1405 0.685433 14 1.04832 14 1.42671V2.14006H11.3333V1.42671C11.3333 1.04832 11.1929 0.685433 10.9428 0.417873C10.6928 0.150313 10.3536 0 10 0C9.64638 0 9.30724 0.150313 9.05719 0.417873C8.80714 0.685433 8.66667 1.04832 8.66667 1.42671V2.14006H6V1.42671C6 1.04832 5.85952 0.685433 5.60948 0.417873C5.35943 0.150313 5.02029 0 4.66667 0C4.31304 0 3.97391 0.150313 3.72386 0.417873C3.47381 0.685433 3.33333 1.04832 3.33333 1.42671V2.14006H1.66667C1.22464 2.14006 0.800716 2.32795 0.488155 2.6624C0.175595 2.99685 0 3.45046 0 3.92345V18.1905C0 18.6635 0.175595 19.1171 0.488155 19.4516C0.800716 19.786 1.22464 19.9739 1.66667 19.9739H11C11.0884 19.9739 11.1732 19.9363 11.2357 19.8694C11.2982 19.8025 11.3333 19.7118 11.3333 19.6172C11.3333 19.5226 11.2982 19.4319 11.2357 19.365C11.1732 19.2981 11.0884 19.2606 11 19.2606H1.66667C1.40169 19.2597 1.1478 19.1467 0.960434 18.9462C0.773069 18.7457 0.667458 18.4741 0.666667 18.1905V7.13354H19.3333V13.197C19.3333 13.2916 19.3685 13.3824 19.431 13.4493C19.4935 13.5161 19.5783 13.5537 19.6667 13.5537C19.7551 13.5537 19.8399 13.5161 19.9024 13.4493C19.9649 13.3824 20 13.2916 20 13.197V3.92345C20 3.45046 19.8244 2.99685 19.5118 2.6624C19.1993 2.32795 18.7754 2.14006 18.3333 2.14006ZM14.6667 1.42671C14.6667 1.23751 14.7369 1.05607 14.8619 0.92229C14.987 0.78851 15.1565 0.713354 15.3333 0.713354C15.5101 0.713354 15.6797 0.78851 15.8047 0.92229C15.9298 1.05607 16 1.23751 16 1.42671V3.56677C16 3.75596 15.9298 3.93741 15.8047 4.07119C15.6797 4.20497 15.5101 4.28012 15.3333 4.28012C15.1565 4.28012 14.987 4.20497 14.8619 4.07119C14.7369 3.93741 14.6667 3.75596 14.6667 3.56677V1.42671ZM9.33333 1.42671C9.33333 1.23751 9.40357 1.05607 9.5286 0.92229C9.65362 0.78851 9.82319 0.713354 10 0.713354C10.1768 0.713354 10.3464 0.78851 10.4714 0.92229C10.5964 1.05607 10.6667 1.23751 10.6667 1.42671V3.56677C10.6667 3.75596 10.5964 3.93741 10.4714 4.07119C10.3464 4.20497 10.1768 4.28012 10 4.28012C9.82319 4.28012 9.65362 4.20497 9.5286 4.07119C9.40357 3.93741 9.33333 3.75596 9.33333 3.56677V1.42671ZM4 1.42671C4 1.23751 4.07024 1.05607 4.19526 0.92229C4.32029 0.78851 4.48986 0.713354 4.66667 0.713354C4.84348 0.713354 5.01305 0.78851 5.13807 0.92229C5.2631 1.05607 5.33333 1.23751 5.33333 1.42671V3.56677C5.33333 3.75596 5.2631 3.93741 5.13807 4.07119C5.01305 4.20497 4.84348 4.28012 4.66667 4.28012C4.48986 4.28012 4.32029 4.20497 4.19526 4.07119C4.07024 3.93741 4 3.75596 4 3.56677V1.42671ZM19.3333 6.42018H0.666667V3.92345C0.667458 3.63992 0.773069 3.36824 0.960434 3.16776C1.1478 2.96727 1.40169 2.85426 1.66667 2.85342H3.33333V3.56677C3.33333 3.94516 3.47381 4.30804 3.72386 4.5756C3.97391 4.84316 4.31304 4.99348 4.66667 4.99348C5.02029 4.99348 5.35943 4.84316 5.60948 4.5756C5.85952 4.30804 6 3.94516 6 3.56677V2.85342H8.66667V3.56677C8.66667 3.94516 8.80714 4.30804 9.05719 4.5756C9.30724 4.84316 9.64638 4.99348 10 4.99348C10.3536 4.99348 10.6928 4.84316 10.9428 4.5756C11.1929 4.30804 11.3333 3.94516 11.3333 3.56677V2.85342H14V3.56677C14 3.94516 14.1405 4.30804 14.3905 4.5756C14.6406 4.84316 14.9797 4.99348 15.3333 4.99348C15.687 4.99348 16.0261 4.84316 16.2761 4.5756C16.5262 4.30804 16.6667 3.94516 16.6667 3.56677V2.85342H18.3333C18.5983 2.85426 18.8522 2.96727 19.0396 3.16776C19.2269 3.36824 19.3325 3.63992 19.3333 3.92345V6.42018Z" fill="#109CF1"/>
<path d="M9.33344 9.63011C9.33344 9.44091 9.2632 9.25947 9.13817 9.12569C9.01315 8.99191 8.84358 8.91675 8.66676 8.91675H7.33342C7.15661 8.91675 6.98704 8.99191 6.86201 9.12569C6.73699 9.25947 6.66675 9.44091 6.66675 9.63011V10.7002C6.66675 10.8893 6.73699 11.0708 6.86201 11.2046C6.98704 11.3384 7.15661 11.4135 7.33342 11.4135H8.66676C8.84358 11.4135 9.01315 11.3384 9.13817 11.2046C9.2632 11.0708 9.33344 10.8893 9.33344 10.7002V9.63011ZM7.33342 10.7002V9.63011H8.66676V10.7002H7.33342Z" fill="#109CF1"/>
<path d="M5.33313 9.63011C5.33313 9.44091 5.26289 9.25947 5.13787 9.12569C5.01284 8.99191 4.84327 8.91675 4.66646 8.91675H3.33311C3.1563 8.91675 2.98673 8.99191 2.86171 9.12569C2.73668 9.25947 2.66644 9.44091 2.66644 9.63011V10.7002C2.66644 10.8893 2.73668 11.0708 2.86171 11.2046C2.98673 11.3384 3.1563 11.4135 3.33311 11.4135H4.66646C4.84327 11.4135 5.01284 11.3384 5.13787 11.2046C5.26289 11.0708 5.33313 10.8893 5.33313 10.7002V9.63011ZM3.33311 10.7002V9.63011H4.66646V10.7002H3.33311Z" fill="#109CF1"/>
<path d="M16.6665 11.4135C16.8433 11.4135 17.0129 11.3384 17.1379 11.2046C17.263 11.0708 17.3332 10.8893 17.3332 10.7002V9.63011C17.3332 9.44091 17.263 9.25947 17.1379 9.12569C17.0129 8.99191 16.8433 8.91675 16.6665 8.91675H15.3332C15.1564 8.91675 14.9868 8.99191 14.8618 9.12569C14.7368 9.25947 14.6666 9.44091 14.6666 9.63011V10.7002C14.6666 10.8893 14.7368 11.0708 14.8618 11.2046C14.9868 11.3384 15.1564 11.4135 15.3332 11.4135H16.6665ZM15.3332 9.63011H16.6665V10.7002H15.3332V9.63011Z" fill="#109CF1"/>
<path d="M9.33344 12.8403C9.33344 12.6511 9.2632 12.4697 9.13817 12.3359C9.01315 12.2021 8.84358 12.127 8.66676 12.127H7.33342C7.15661 12.127 6.98704 12.2021 6.86201 12.3359C6.73699 12.4697 6.66675 12.6511 6.66675 12.8403V13.9103C6.66675 14.0995 6.73699 14.281 6.86201 14.4148C6.98704 14.5485 7.15661 14.6237 7.33342 14.6237H8.66676C8.84358 14.6237 9.01315 14.5485 9.13817 14.4148C9.2632 14.281 9.33344 14.0995 9.33344 13.9103V12.8403ZM7.33342 13.9103V12.8403H8.66676V13.9103H7.33342Z" fill="#109CF1"/>
<path d="M5.33313 12.8403C5.33313 12.6511 5.26289 12.4697 5.13787 12.3359C5.01284 12.2021 4.84327 12.127 4.66646 12.127H3.33311C3.1563 12.127 2.98673 12.2021 2.86171 12.3359C2.73668 12.4697 2.66644 12.6511 2.66644 12.8403V13.9103C2.66644 14.0995 2.73668 14.281 2.86171 14.4148C2.98673 14.5485 3.1563 14.6237 3.33311 14.6237H4.66646C4.84327 14.6237 5.01284 14.5485 5.13787 14.4148C5.26289 14.281 5.33313 14.0995 5.33313 13.9103V12.8403ZM3.33311 13.9103V12.8403H4.66646V13.9103H3.33311Z" fill="#109CF1"/>
<path d="M8.66676 15.3372H7.33342C7.15661 15.3372 6.98704 15.4123 6.86201 15.5461C6.73699 15.6799 6.66675 15.8613 6.66675 16.0505V17.1205C6.66675 17.3097 6.73699 17.4912 6.86201 17.625C6.98704 17.7587 7.15661 17.8339 7.33342 17.8339H8.66676C8.84358 17.8339 9.01315 17.7587 9.13817 17.625C9.2632 17.4912 9.33344 17.3097 9.33344 17.1205V16.0505C9.33344 15.8613 9.2632 15.6799 9.13817 15.5461C9.01315 15.4123 8.84358 15.3372 8.66676 15.3372ZM7.33342 17.1205V16.0505H8.66676V17.1205H7.33342Z" fill="#109CF1"/>
<path d="M11.3333 11.4135H12.6667C12.8435 11.4135 13.013 11.3384 13.1381 11.2046C13.2631 11.0708 13.3333 10.8893 13.3333 10.7002V9.63011C13.3333 9.44091 13.2631 9.25947 13.1381 9.12569C13.013 8.99191 12.8435 8.91675 12.6667 8.91675H11.3333C11.1565 8.91675 10.987 8.99191 10.8619 9.12569C10.7369 9.25947 10.6667 9.44091 10.6667 9.63011V10.7002C10.6667 10.8893 10.7369 11.0708 10.8619 11.2046C10.987 11.3384 11.1565 11.4135 11.3333 11.4135ZM11.3333 9.63011H12.6667V10.7002H11.3333V9.63011Z" fill="#109CF1"/>
<path d="M10.6667 13.9103C10.6667 14.0995 10.7369 14.281 10.8619 14.4148C10.987 14.5485 11.1565 14.6237 11.3333 14.6237C11.4218 14.6237 11.5065 14.5861 11.569 14.5192C11.6316 14.4523 11.6667 14.3616 11.6667 14.267C11.6667 14.1724 11.6316 14.0817 11.569 14.0148C11.5065 13.9479 11.4218 13.9103 11.3333 13.9103V12.8403H12.6667C12.7551 12.8403 12.8399 12.8027 12.9024 12.7358C12.9649 12.6689 13 12.5782 13 12.4836C13 12.389 12.9649 12.2983 12.9024 12.2314C12.8399 12.1645 12.7551 12.127 12.6667 12.127H11.3333C11.1565 12.127 10.987 12.2021 10.8619 12.3359C10.7369 12.4697 10.6667 12.6511 10.6667 12.8403V13.9103Z" fill="#109CF1"/>
<path d="M4.66646 15.3372H3.33311C3.1563 15.3372 2.98673 15.4123 2.86171 15.5461C2.73668 15.6799 2.66644 15.8613 2.66644 16.0505V17.1205C2.66644 17.3097 2.73668 17.4912 2.86171 17.625C2.98673 17.7587 3.1563 17.8339 3.33311 17.8339H4.66646C4.84327 17.8339 5.01284 17.7587 5.13787 17.625C5.26289 17.4912 5.33313 17.3097 5.33313 17.1205V16.0505C5.33313 15.8613 5.26289 15.6799 5.13787 15.5461C5.01284 15.4123 4.84327 15.3372 4.66646 15.3372V15.3372ZM3.33311 17.1205V16.0505H4.66646V17.1205H3.33311Z" fill="#109CF1"/>
<path d="M15.6667 12.127C14.8096 12.127 13.9718 12.3989 13.2592 12.9084C12.5466 13.4179 11.9912 14.1421 11.6632 14.9893C11.3353 15.8366 11.2494 16.7689 11.4166 17.6683C11.5838 18.5678 11.9965 19.394 12.6026 20.0425C13.2086 20.6909 13.9807 21.1325 14.8213 21.3114C15.6619 21.4904 16.5332 21.3985 17.325 21.0476C18.1168 20.6966 18.7936 20.1023 19.2697 19.3398C19.7459 18.5773 20 17.6808 20 16.7637C19.9987 15.5344 19.5417 14.3559 18.7293 13.4866C17.917 12.6173 16.8155 12.1284 15.6667 12.127V12.127ZM15.6667 20.6872C14.9415 20.6872 14.2326 20.4571 13.6296 20.026C13.0266 19.5949 12.5567 18.9821 12.2791 18.2652C12.0016 17.5483 11.929 16.7594 12.0705 15.9983C12.212 15.2372 12.5612 14.5382 13.074 13.9895C13.5868 13.4408 14.2401 13.0671 14.9514 12.9157C15.6626 12.7643 16.3999 12.842 17.0699 13.139C17.7398 13.4359 18.3125 13.9388 18.7154 14.584C19.1183 15.2292 19.3333 15.9878 19.3333 16.7637C19.3322 17.8039 18.9455 18.8012 18.2581 19.5367C17.5708 20.2722 16.6388 20.686 15.6667 20.6872Z" fill="#109CF1"/>
<path d="M17.5927 15.2686L15 18.0428L13.8217 16.7816C13.7588 16.7166 13.6746 16.6807 13.5872 16.6815C13.4998 16.6823 13.4162 16.7198 13.3544 16.7859C13.2926 16.8521 13.2575 16.9415 13.2568 17.035C13.256 17.1286 13.2896 17.2187 13.3503 17.2859L14.7643 18.7993C14.8269 18.8662 14.9116 18.9037 15 18.9037C15.0884 18.9037 15.1732 18.8662 15.2357 18.7993L18.064 15.7729C18.1247 15.7056 18.1583 15.6156 18.1576 15.522C18.1568 15.4285 18.1218 15.3391 18.06 15.2729C17.9982 15.2068 17.9146 15.1693 17.8272 15.1685C17.7398 15.1677 17.6556 15.2036 17.5927 15.2686Z" fill="#109CF1"/>
</svg>
