<svg width="20" height="20" viewBox="0 0 20 20" fill="none" xmlns="http://www.w3.org/2000/svg">
<path d="M4.44444 3.33333V2.22222H6.66667C6.66667 1.63285 6.90079 1.06762 7.31754 0.650874C7.73429 0.234126 8.29952 0 8.88889 0C9.47826 0 10.0435 0.234126 10.4602 0.650874C10.877 1.06762 11.1111 1.63285 11.1111 2.22222H13.3333V3.33333C13.3333 3.62802 13.2163 3.91063 13.0079 4.11901C12.7995 4.32738 12.5169 4.44444 12.2222 4.44444H5.55556C5.26087 4.44444 4.97825 4.32738 4.76988 4.11901C4.56151 3.91063 4.44444 3.62802 4.44444 3.33333ZM11.246 16.3412C11.1428 16.4444 11.0203 16.5262 10.8855 16.5821C10.7507 16.6379 10.6062 16.6667 10.4603 16.6667H8.88896C8.59427 16.6667 8.31166 16.5496 8.10328 16.3412C7.89491 16.1329 7.77784 15.8502 7.77784 15.5556V13.9842C7.77784 13.6895 7.89491 13.4069 8.10328 13.1985L16.4202 4.88159C16.7207 4.58108 17.1018 4.37392 17.5174 4.28508C17.3013 3.76522 16.9572 3.30854 16.517 2.95762C16.0768 2.6067 15.5549 2.37298 15 2.27824V3.33333C15 4.07005 14.7073 4.77658 14.1864 5.29752C13.6655 5.81845 12.9589 6.11111 12.2222 6.11111H5.55556C4.81884 6.11111 4.1123 5.81845 3.59137 5.29752C3.07044 4.77658 2.77778 4.07005 2.77778 3.33333V2.27824C2.00209 2.40805 1.29748 2.80846 0.788964 3.40842C0.280451 4.00838 0.000929142 4.76909 0 5.55556V16.6667C0 17.5507 0.35119 18.3986 0.976311 19.0237C1.60143 19.6488 2.44928 20 3.33333 20H14.4444C15.3285 20 16.1763 19.6488 16.8015 19.0237C17.4266 18.3986 17.7778 17.5507 17.7778 16.6667V9.80937L11.246 16.3412ZM16.6503 9.36551L15.079 7.79412L8.88896 13.9841V15.5556H10.4603L16.6503 9.36551ZM18.7773 5.66724C18.5687 5.45919 18.2862 5.34234 17.9916 5.34234C17.697 5.34234 17.4144 5.45919 17.2059 5.66724L16.2772 6.59593L17.8485 8.16732L18.7773 7.23857C18.9853 7.03003 19.1022 6.74748 19.1022 6.45291C19.1022 6.15833 18.9853 5.87578 18.7773 5.66724Z" fill="#0097F9"/>
</svg>
