<svg width="30" height="35" viewBox="0 0 30 35" fill="none" xmlns="http://www.w3.org/2000/svg">
<path d="M30 4.16667C30 3.0616 29.561 2.00179 28.7796 1.22039C27.9982 0.438987 26.9384 0 25.8333 0H4.16667C3.0616 0 2.00179 0.438987 1.22039 1.22039C0.438987 2.00179 0 3.0616 0 4.16667V30.1917C0 31.2967 0.438987 32.3565 1.22039 33.1379C2.00179 33.9193 3.0616 34.3583 4.16667 34.3583H25.8333C26.9384 34.3583 27.9982 33.9193 28.7796 33.1379C29.561 32.3565 30 31.2967 30 30.1917V4.16667ZM28.3333 30.1917C28.3333 30.8547 28.0699 31.4906 27.6011 31.9594C27.1323 32.4283 26.4964 32.6917 25.8333 32.6917H4.16667C3.50363 32.6917 2.86774 32.4283 2.3989 31.9594C1.93006 31.4906 1.66667 30.8547 1.66667 30.1917V4.16667C1.66667 3.50363 1.93006 2.86774 2.3989 2.3989C2.86774 1.93006 3.50363 1.66667 4.16667 1.66667H25.8333C26.4964 1.66667 27.1323 1.93006 27.6011 2.3989C28.0699 2.86774 28.3333 3.50363 28.3333 4.16667V30.1917Z" fill="#CCD4DD"/>
<path d="M7.22917 16.5542H5.58333C5.36232 16.5542 5.15036 16.642 4.99408 16.7983C4.8378 16.9546 4.75 17.1665 4.75 17.3875C4.75 17.6085 4.8378 17.8205 4.99408 17.9768C5.15036 18.1331 5.36232 18.2209 5.58333 18.2209H7.22917C7.45018 18.2209 7.66214 18.1331 7.81842 17.9768C7.9747 17.8205 8.0625 17.6085 8.0625 17.3875C8.0625 17.1665 7.9747 16.9546 7.81842 16.7983C7.66214 16.642 7.45018 16.5542 7.22917 16.5542Z" fill="#CCD4DD"/>
<path d="M24.4167 16.5542H10.9542C10.7332 16.5542 10.5212 16.642 10.3649 16.7983C10.2086 16.9546 10.1208 17.1665 10.1208 17.3875C10.1208 17.6085 10.2086 17.8205 10.3649 17.9768C10.5212 18.1331 10.7332 18.2209 10.9542 18.2209H24.4167C24.6377 18.2209 24.8497 18.1331 25.0059 17.9768C25.1622 17.8205 25.25 17.6085 25.25 17.3875C25.25 17.1665 25.1622 16.9546 25.0059 16.7983C24.8497 16.642 24.6377 16.5542 24.4167 16.5542Z" fill="#CCD4DD"/>
<path d="M7.22917 9.05408H5.58333C5.36232 9.05408 5.15036 9.14187 4.99408 9.29815C4.8378 9.45444 4.75 9.6664 4.75 9.88741C4.75 10.1084 4.8378 10.3204 4.99408 10.4767C5.15036 10.6329 5.36232 10.7207 5.58333 10.7207H7.22917C7.45018 10.7207 7.66214 10.6329 7.81842 10.4767C7.9747 10.3204 8.0625 10.1084 8.0625 9.88741C8.0625 9.6664 7.9747 9.45444 7.81842 9.29815C7.66214 9.14187 7.45018 9.05408 7.22917 9.05408Z" fill="#CCD4DD"/>
<path d="M24.4167 9.05408H10.9542C10.7332 9.05408 10.5212 9.14187 10.3649 9.29815C10.2086 9.45444 10.1208 9.6664 10.1208 9.88741C10.1208 10.1084 10.2086 10.3204 10.3649 10.4767C10.5212 10.6329 10.7332 10.7207 10.9542 10.7207H24.4167C24.6377 10.7207 24.8497 10.6329 25.0059 10.4767C25.1622 10.3204 25.25 10.1084 25.25 9.88741C25.25 9.6664 25.1622 9.45444 25.0059 9.29815C24.8497 9.14187 24.6377 9.05408 24.4167 9.05408Z" fill="#CCD4DD"/>
<path d="M7.22917 24.0542H5.58333C5.36232 24.0542 5.15036 24.142 4.99408 24.2983C4.8378 24.4546 4.75 24.6665 4.75 24.8875C4.75 25.1085 4.8378 25.3205 4.99408 25.4768C5.15036 25.6331 5.36232 25.7209 5.58333 25.7209H7.22917C7.45018 25.7209 7.66214 25.6331 7.81842 25.4768C7.9747 25.3205 8.0625 25.1085 8.0625 24.8875C8.0625 24.6665 7.9747 24.4546 7.81842 24.2983C7.66214 24.142 7.45018 24.0542 7.22917 24.0542Z" fill="#CCD4DD"/>
<path d="M24.4167 24.0542H10.9542C10.7332 24.0542 10.5212 24.142 10.3649 24.2983C10.2086 24.4546 10.1208 24.6665 10.1208 24.8875C10.1208 25.1085 10.2086 25.3205 10.3649 25.4768C10.5212 25.6331 10.7332 25.7209 10.9542 25.7209H24.4167C24.6377 25.7209 24.8497 25.6331 25.0059 25.4768C25.1622 25.3205 25.25 25.1085 25.25 24.8875C25.25 24.6665 25.1622 24.4546 25.0059 24.2983C24.8497 24.142 24.6377 24.0542 24.4167 24.0542Z" fill="#CCD4DD"/>
</svg>
