<svg width="21" height="29" viewBox="0 0 21 29" fill="none" xmlns="http://www.w3.org/2000/svg">
<path d="M15.5358 26.1704H15.5063V26.2204C15.5063 26.5765 15.2041 26.8787 14.848 26.8787H2.30543C1.91854 26.8787 1.61763 26.5751 1.61763 26.2204V9.48713C1.61763 9.13241 1.91854 8.82885 2.30543 8.82885H3.84908V22.7085C3.84908 23.7985 4.75682 24.7063 5.84687 24.7063H15.5358V26.1704ZM18.3895 3.97742H16.5737C16.2568 1.79034 14.3867 0.0818359 12.1034 0.0818359C9.81977 0.0818359 7.94999 1.79068 7.60418 3.97742H5.81735C4.72731 3.97742 3.81956 4.88516 3.81956 5.97521V7.51885H2.27592C1.15587 7.51885 0.278125 8.42709 0.278125 9.51665V26.2499C0.278125 27.34 1.18587 28.2477 2.27592 28.2477H14.8185C15.9086 28.2477 16.8163 27.34 16.8163 26.2499V24.7063H18.3599C19.45 24.7063 20.3577 23.7985 20.3577 22.7085V5.97521C20.3577 4.85615 19.48 3.97742 18.3895 3.97742ZM12.1034 1.42134C13.876 1.42134 15.3292 2.87455 15.3292 4.64717C15.3292 6.41979 13.876 7.873 12.1034 7.873C10.3308 7.873 8.87758 6.41979 8.87758 4.64717C8.87758 2.87455 10.3308 1.42134 12.1034 1.42134ZM19.0477 22.7085C19.0477 23.0645 18.7455 23.3668 18.3895 23.3668H5.81735C5.46131 23.3668 5.15907 23.0645 5.15907 22.7085V5.97521C5.15907 5.61651 5.46389 5.28741 5.81735 5.28741H7.60361C7.92097 7.47489 9.82051 9.18299 12.1034 9.18299C14.3863 9.18299 16.2858 7.47489 16.6032 5.28741H18.3895C18.7442 5.28741 19.0477 5.58832 19.0477 5.97521V22.7085Z" fill="#A01DB6" stroke="#A01DB6" stroke-width="0.1"/>
<path d="M16.1467 16.697H8.03089C7.6802 16.697 7.36113 16.9835 7.36113 17.3668C7.36113 17.7175 7.64759 18.0365 8.03089 18.0365H16.1467C16.4974 18.0365 16.8164 17.7501 16.8164 17.3668C16.8164 16.985 16.5284 16.697 16.1467 16.697Z" fill="#A01DB6" stroke="#A01DB6" stroke-width="0.1"/>
<path d="M16.1467 19.7073H8.03089C7.6802 19.7073 7.36113 19.9938 7.36113 20.377C7.36113 20.7277 7.64759 21.0468 8.03089 21.0468H16.1467C16.4974 21.0468 16.8164 20.7603 16.8164 20.377C16.8164 19.9953 16.5284 19.7073 16.1467 19.7073Z" fill="#A01DB6" stroke="#A01DB6" stroke-width="0.1"/>
<path d="M16.1467 13.6573H8.03089C7.6802 13.6573 7.36113 13.9438 7.36113 14.3271C7.36113 14.6777 7.64759 14.9968 8.03089 14.9968H16.1467C16.4974 14.9968 16.8164 14.7103 16.8164 14.3271C16.8164 13.9764 16.53 13.6573 16.1467 13.6573Z" fill="#A01DB6" stroke="#A01DB6" stroke-width="0.1"/>
<path d="M16.1467 10.6471H8.03089C7.6802 10.6471 7.36113 10.9336 7.36113 11.3169C7.36113 11.6676 7.64759 11.9866 8.03089 11.9866H16.1467C16.4974 11.9866 16.8164 11.7002 16.8164 11.3169C16.8164 10.9351 16.5284 10.6471 16.1467 10.6471Z" fill="#A01DB6" stroke="#A01DB6" stroke-width="0.1"/>
<path d="M11.152 6.15696L11.152 6.15698L11.1531 6.15812C11.2766 6.28162 11.4362 6.37935 11.6312 6.37935C11.8209 6.37935 11.9832 6.31524 12.1117 6.15552L13.792 4.35728C14.0484 4.10015 14.0162 3.65511 13.7607 3.43016C13.5033 3.17418 13.0582 3.20672 12.8336 3.46266L11.6311 4.75104L11.225 4.31785L11.225 4.31783L11.2239 4.31669C10.9715 4.06431 10.556 4.02846 10.2973 4.28718C10.0451 4.53936 10.0091 4.9544 10.2672 5.21315L11.152 6.15696Z" fill="#A01DB6" stroke="#A01DB6" stroke-width="0.1"/>
</svg>
