<svg width="18" height="18" viewBox="0 0 18 18" fill="none" xmlns="http://www.w3.org/2000/svg">
<path d="M13.913 0L13.3496 0.54L10 3.91304L11.1035 5.01652L13.1304 2.98174V17.6087H14.6957V2.98174L16.7226 5.01652L17.8261 3.91304L14.4765 0.54L13.913 0Z" fill="#109CF1"/>
<path d="M13.913 0L13.3496 0.54L10 3.91304L11.1035 5.01652L13.1304 2.98174V17.6087H14.6957V2.98174L16.7226 5.01652L17.8261 3.91304L14.4765 0.54L13.913 0Z" fill="#109CF1"/>
<path d="M3.91304 17.6087L3.34957 17.0687L0 13.6957L1.10348 12.5922L3.13044 14.627V0H4.69565V14.627L6.72261 12.5922L7.82609 13.6957L4.47652 17.0687L3.91304 17.6087Z" fill="#109CF1"/>
</svg>
