<svg width="26" height="30" viewBox="0 0 26 30" fill="none" xmlns="http://www.w3.org/2000/svg">
<path d="M20.0071 1.18368L20.0071 1.18367C19.8775 1.03522 19.6918 0.95 19.4962 0.95H6.153C5.77538 0.95 5.47038 1.2615 5.47038 1.64353V15.5792C2.83895 16.5439 0.95 19.102 0.95 22.1065C0.95 25.9343 4.01132 29.05 7.77662 29.05C9.99622 29.05 11.9652 27.9622 13.2126 26.2893H24.3674C24.745 26.2893 25.05 25.9778 25.05 25.5957V7.22776C25.05 7.05809 24.9887 6.89452 24.8783 6.76791L20.0071 1.18368ZM6.83531 15.2371V2.33674H18.8019V7.26348C18.8019 7.64551 19.1069 7.95701 19.4845 7.95701H23.6844V24.9019H14.0182C14.3908 24.0456 14.6032 23.1017 14.6032 22.1062C14.6032 21.9417 14.5924 21.7803 14.5805 21.6208H20.4265C20.8041 21.6208 21.1091 21.3093 21.1091 20.9272C21.1091 20.5452 20.8041 20.2337 20.4265 20.2337H14.3431C14.0886 19.3112 13.6555 18.4646 13.0777 17.7393H20.4262C20.8038 17.7393 21.1088 17.4278 21.1088 17.0458C21.1088 16.6637 20.8038 16.3523 20.4262 16.3523H11.5923C10.5022 15.6021 9.18923 15.1627 7.7763 15.1627C7.45582 15.1627 7.14291 15.1926 6.83531 15.2371ZM10.3049 21.4127H8.24573V18.5153C8.24573 18.1332 7.94073 17.8218 7.56311 17.8218C7.18549 17.8218 6.88049 18.1332 6.88049 18.5153V22.1062C6.88049 22.4882 7.18549 22.7997 7.56311 22.7997H10.3049C10.6825 22.7997 10.9875 22.4882 10.9875 22.1062C10.9875 21.7242 10.6828 21.4127 10.3049 21.4127ZM20.1674 6.56995V3.45877L22.8815 6.56995H20.1674ZM7.7763 27.6626C4.76593 27.6626 2.31492 25.1709 2.31492 22.1062C2.31492 19.0415 4.76562 16.5497 7.7763 16.5497C10.787 16.5497 13.2377 19.0418 13.2377 22.1062C13.2377 25.1706 10.787 27.6626 7.7763 27.6626ZM9.41128 13.1647C9.41128 13.5467 9.71628 13.8582 10.0939 13.8582H20.4265C20.8041 13.8582 21.1091 13.5467 21.1091 13.1647C21.1091 12.7826 20.8041 12.4711 20.4265 12.4711H10.0939C9.71597 12.4711 9.41128 12.7823 9.41128 13.1647Z" fill="#158BF2" stroke="#158BF2" stroke-width="0.1"/>
</svg>
