<svg width="25" height="16" viewBox="0 0 25 16" fill="none" xmlns="http://www.w3.org/2000/svg">
<path d="M24.538 7.16456C23.1962 5.49367 18.3608 0 12.4114 0C6.46203 0 1.62658 5.49367 0.28481 7.16456C-0.0949367 7.64557 -0.0949367 8.32911 0.28481 8.81013C1.62658 10.5063 6.46203 16 12.4114 16C18.3608 16 23.1962 10.5063 24.538 8.83544C24.8924 8.35443 24.8924 7.64557 24.538 7.16456ZM12.4114 14.3291C7.3481 14.3291 2.96835 9.44304 1.75316 8C2.91772 6.53165 7.3481 1.67089 12.4114 1.67089C17.4747 1.67089 21.8544 6.55696 23.0696 8C21.8797 9.46835 17.4747 14.3291 12.4114 14.3291Z" fill="#14B0F3"/>
<path d="M12.4114 3.08862C9.70253 3.08862 7.5 5.29115 7.5 8.00002C7.5 10.7089 9.70253 12.9114 12.4114 12.9114C15.1203 12.9114 17.3228 10.7089 17.3228 8.00002C17.3228 5.29115 15.1203 3.08862 12.4114 3.08862ZM12.4114 11.2405C10.6139 11.2405 9.17089 9.77217 9.17089 8.00002C9.17089 6.22786 10.6139 4.75951 12.4114 4.75951C14.2089 4.75951 15.6772 6.20255 15.6772 8.00002C15.6772 9.79748 14.2089 11.2405 12.4114 11.2405Z" fill="#14B0F3"/>
</svg>
