<svg width="19" height="22" viewBox="0 0 19 22" fill="none" xmlns="http://www.w3.org/2000/svg">
<path d="M2.02665 17.093L2.02675 17.0929L7.60689 15.565L7.6069 15.565L7.60922 15.5643C7.70749 15.5348 7.7985 15.4848 7.87491 15.4084L16.8698 6.41343C17.6729 5.61038 17.6729 4.30187 16.8698 3.49882L14.8776 1.50236L14.8775 1.50229C14.0745 0.699237 12.766 0.699237 11.9629 1.50229L2.96799 10.4972C2.89158 10.5736 2.84155 10.6646 2.81207 10.7629L2.81204 10.7629L2.81139 10.7653L1.2834 16.3496L1.28339 16.3496L1.28311 16.3507C1.22805 16.5609 1.283 16.7836 1.43999 16.9406C1.55283 17.0534 1.70968 17.1134 1.86526 17.1134C1.91851 17.1134 1.96985 17.1085 2.02665 17.093ZM7.45385 14.1157L4.26069 10.9225L10.6069 4.57625L13.8001 7.76941L7.45385 14.1157ZM12.8219 2.36128C13.1543 2.02888 13.6904 2.02888 14.0228 2.36128L16.0151 4.35359C16.3475 4.68598 16.3475 5.22204 16.0151 5.55444L14.6591 6.91042L11.4659 3.71726L12.8219 2.36128ZM2.72997 15.6422L3.70588 12.0857L6.28647 14.6662L2.72997 15.6422Z" fill="#9E9B9B" stroke="#9E9B9B" stroke-width="0.2"/>
<path d="M18.0612 19.7962H1.50652C1.17271 19.7962 0.9 20.0689 0.9 20.4028C0.9 20.7366 1.17271 21.0093 1.50652 21.0093H18.0612C18.3951 21.0093 18.6678 20.7366 18.6678 20.4028C18.6678 20.0689 18.3951 19.7962 18.0612 19.7962Z" fill="#9E9B9B" stroke="#9E9B9B" stroke-width="0.2"/>
</svg>
