<svg id="class" xmlns="http://www.w3.org/2000/svg" width="22.994" height="22.783" viewBox="0 0 22.994 22.783">
  <path id="Path_1361" data-name="Path 1361" d="M22.993,4.234A2.764,2.764,0,0,0,20.23,1.47H2.764A2.764,2.764,0,0,0,0,4.234V16.018a2.7,2.7,0,0,0,.068.578H.061c.005.023.014.042.02.065s.006.034.01.05H.1a2.759,2.759,0,0,0,2.667,2.071H8.317L4.025,23.074A.691.691,0,1,0,5,24.051l5.089-5.088a.686.686,0,0,0,.12-.181h.595v4.781a.691.691,0,1,0,1.382,0V18.781h.595a.684.684,0,0,0,.12.181l5.089,5.088a.691.691,0,1,0,.977-.977l-4.292-4.292H20.23A2.758,2.758,0,0,0,22.9,16.711H22.9c0-.016.006-.034.01-.05s.015-.042.02-.065h-.007a2.671,2.671,0,0,0,.069-.578V4.234Zm-22.072,0A1.844,1.844,0,0,1,2.764,2.391H20.23a1.844,1.844,0,0,1,1.842,1.842V15.789H.921Zm18.5,1.075.854,1.085-8.889,7L8.033,10.043,3.56,13.372l-.825-1.108L8.166,8.222l3.328,3.328Z" transform="translate(0 -1.47)" fill="#b0b0b0"/>
</svg>
