<svg id="Group_2579" data-name="Group 2579" xmlns="http://www.w3.org/2000/svg" xmlns:xlink="http://www.w3.org/1999/xlink" width="13.18" height="15.102" viewBox="0 0 13.18 15.102">
  <defs>
    <clipPath id="clip-path">
      <rect width="13.18" height="15.102" fill="none"/>
    </clipPath>
  </defs>
  <g id="Symbol_70_332" data-name="Symbol 70 – 332" clip-path="url(#clip-path)">
    <g id="Group_2459" data-name="Group 2459">
      <path id="Path_1449" data-name="Path 1449" d="M31.354,24.3a4.943,4.943,0,0,0-3.707,4.786v3.295a.55.55,0,0,1-.549.55,1.1,1.1,0,0,0-1.1,1.1v.825a.274.274,0,0,0,.275.274H38.9a.276.276,0,0,0,.275-.274v-.825a1.1,1.1,0,0,0-1.1-1.1.548.548,0,0,1-.549-.55V29.09A4.944,4.944,0,0,0,33.825,24.3v-.567a1.236,1.236,0,1,0-2.471,0ZM30.668,35.68h3.844a1.922,1.922,0,0,1-3.844,0Z" transform="translate(-26 -22.5)" fill="#1283f4" fill-rule="evenodd"/>
    </g>
  </g>
</svg>
