<svg xmlns="http://www.w3.org/2000/svg" xmlns:xlink="http://www.w3.org/1999/xlink" width="127" height="121" viewBox="0 0 127 121">
  <defs>
    <clipPath id="clip-path">
      <path id="Rectangle_1538" data-name="Rectangle 1538" d="M121,0h6a0,0,0,0,1,0,0V121a0,0,0,0,1,0,0H0a0,0,0,0,1,0,0v0A121,121,0,0,1,121,0Z" transform="translate(1243 390)" fill="#fff" stroke="#707070" stroke-width="1"/>
    </clipPath>
    <linearGradient id="linear-gradient" x1="1.034" y1="0.21" x2="0.241" y2="0.916" gradientUnits="objectBoundingBox">
      <stop offset="0" stop-color="#afc1ff"/>
      <stop offset="1" stop-color="#b5c4ff"/>
    </linearGradient>
    <linearGradient id="linear-gradient-2" x1="0.278" y1="0.877" x2="0.79" y2="0.461" gradientUnits="objectBoundingBox">
      <stop offset="0" stop-color="#8aa5ff"/>
      <stop offset="1" stop-color="#b5beff"/>
    </linearGradient>
  </defs>
  <g id="Mask_Group_1" data-name="Mask Group 1" transform="translate(-1243 -390)" clip-path="url(#clip-path)">
    <g id="Group_3599" data-name="Group 3599">
      <path id="Path_1855" data-name="Path 1855" d="M9951.323,9894s-12.788-25.7,2.962-41.008,52.344,6.238,60.038-20.212,4.809-56.747,35.587-57.709,63.964,150.887-15.867,135.017S9951.323,9894,9951.323,9894Z" transform="translate(-8695 -9382)" opacity="0.17" fill="url(#linear-gradient)"/>
      <path id="Path_1856" data-name="Path 1856" d="M9951.323,9894s43.89,6.453,33-39.077c-4.789-20.033,6.15-23.961,20.868-25.879,18.084-2.358,42.112-1.44,46.573-26.2,7.966-44.207,31.515-27.033,31.515-27.033s30.59,150.144-49.241,134.273S9951.323,9894,9951.323,9894Z" transform="translate(-8708 -9379)" opacity="0.14" fill="url(#linear-gradient-2)"/>
      <g id="OBJECTS" transform="translate(1313.538 425.231)">
        <g id="Group_3596" data-name="Group 3596" transform="translate(0 0)">
          <g id="Group_3584" data-name="Group 3584" transform="translate(2.579 -17.81)">
            <g id="Group_3582" data-name="Group 3582" transform="translate(9.347 9.439)">
              <path id="Path_1796" data-name="Path 1796" d="M220.879,166.034h-5.591a.859.859,0,0,0,0,1.718h.058v3.583a1.58,1.58,0,0,0,1.58,1.58h-.176a1.333,1.333,0,1,0,2.666,0h-.01a1.414,1.414,0,0,0,1.414-1.414v-3.749h.058a.859.859,0,1,0,0-1.718Z" transform="translate(-207.449 -144.474)" fill="#7f78ff"/>
              <path id="Path_1797" data-name="Path 1797" d="M220.437,128.465a9.632,9.632,0,1,0-14.364,8.464,3.862,3.862,0,0,1,1.979,3.346v.032h5.506v-.032a3.863,3.863,0,0,1,1.979-3.346A9.726,9.726,0,0,0,220.437,128.465Z" transform="translate(-200.237 -118.747)" fill="#ffd34f"/>
              <path id="Path_1798" data-name="Path 1798" d="M218.382,128.465a9.632,9.632,0,1,0-14.364,8.464A3.862,3.862,0,0,1,206,140.275v.032H211.5v-.032a3.863,3.863,0,0,1,1.979-3.346A9.726,9.726,0,0,0,218.382,128.465Z" transform="translate(-199.119 -118.747)" fill="none" stroke="#222221" stroke-miterlimit="10" stroke-width="0.845"/>
              <path id="Path_1799" data-name="Path 1799" d="M218.889,167.752H213.3a.859.859,0,0,1-.859-.859h0a.859.859,0,0,1,.859-.859h5.591a.859.859,0,0,1,.859.859h0A.859.859,0,0,1,218.889,167.752Z" transform="translate(-206.366 -144.474)" fill="none" stroke="#222221" stroke-miterlimit="10" stroke-width="0.845"/>
              <path id="Path_1800" data-name="Path 1800" d="M218.512,174.965h-2.48a1.58,1.58,0,0,1-1.58-1.58V169.8h5.475v3.749A1.415,1.415,0,0,1,218.512,174.965Z" transform="translate(-207.461 -146.524)" fill="none" stroke="#222221" stroke-miterlimit="10" stroke-width="0.845"/>
              <path id="Path_1801" data-name="Path 1801" d="M217.531,181.126a1.333,1.333,0,1,0,2.666,0Z" transform="translate(-209.136 -152.685)" fill="none" stroke="#222221" stroke-linecap="round" stroke-linejoin="round" stroke-miterlimit="10" stroke-width="0.845"/>
              <g id="Group_3580" data-name="Group 3580" transform="translate(5.798 7.285)">
                <path id="Path_1802" data-name="Path 1802" d="M212.892,135.633h0a4.061,4.061,0,0,1-.843,2.476h0a1.024,1.024,0,0,0,.369,1.548h0a4.16,4.16,0,0,1,2.36,3.751v6.086" transform="translate(-211.836 -135.219)" fill="none" stroke="#222221" stroke-linecap="round" stroke-linejoin="round" stroke-miterlimit="10" stroke-width="0.845"/>
                <path id="Path_1803" data-name="Path 1803" d="M213.242,135.138a.414.414,0,1,1,.414.414A.414.414,0,0,1,213.242,135.138Z" transform="translate(-212.601 -134.724)" fill="#222221"/>
              </g>
              <g id="Group_3581" data-name="Group 3581" transform="translate(10.67 7.285)">
                <path id="Path_1804" data-name="Path 1804" d="M224.407,135.633h0a4.061,4.061,0,0,0,.843,2.476h0a1.024,1.024,0,0,1-.369,1.548h0a4.16,4.16,0,0,0-2.36,3.751v6.086" transform="translate(-222.521 -135.219)" fill="none" stroke="#222221" stroke-linecap="round" stroke-linejoin="round" stroke-miterlimit="10" stroke-width="0.845"/>
                <path id="Path_1805" data-name="Path 1805" d="M226.578,135.138a.414.414,0,1,0-.414.414A.414.414,0,0,0,226.578,135.138Z" transform="translate(-224.277 -134.724)" fill="#222221"/>
              </g>
            </g>
            <g id="Group_3583" data-name="Group 3583">
              <line id="Line_243" data-name="Line 243" y1="6.261" transform="translate(18.85)" fill="none" stroke="#ffe854" stroke-linecap="round" stroke-linejoin="round" stroke-miterlimit="10" stroke-width="0.845"/>
              <line id="Line_244" data-name="Line 244" y1="5.961" x2="1.913" transform="translate(22.705 0.903)" fill="none" stroke="#ffe854" stroke-linecap="round" stroke-linejoin="round" stroke-miterlimit="10" stroke-width="0.845"/>
              <line id="Line_245" data-name="Line 245" y1="5.091" x2="3.643" transform="translate(26.191 3.525)" fill="none" stroke="#ffe854" stroke-linecap="round" stroke-linejoin="round" stroke-miterlimit="10" stroke-width="0.845"/>
              <line id="Line_246" data-name="Line 246" y1="3.735" x2="5.024" transform="translate(28.976 7.616)" fill="none" stroke="#ffe854" stroke-linecap="round" stroke-linejoin="round" stroke-miterlimit="10" stroke-width="0.845"/>
              <line id="Line_247" data-name="Line 247" y1="2.021" x2="5.925" transform="translate(30.792 12.783)" fill="none" stroke="#ffe854" stroke-linecap="round" stroke-linejoin="round" stroke-miterlimit="10" stroke-width="0.845"/>
              <line id="Line_248" data-name="Line 248" y1="0.114" x2="6.26" transform="translate(31.465 18.534)" fill="none" stroke="#ffe854" stroke-linecap="round" stroke-linejoin="round" stroke-miterlimit="10" stroke-width="0.845"/>
              <line id="Line_249" data-name="Line 249" x2="5.995" y2="1.804" transform="translate(30.932 22.514)" fill="none" stroke="#ffe854" stroke-linecap="round" stroke-linejoin="round" stroke-miterlimit="10" stroke-width="0.845"/>
              <line id="Line_250" data-name="Line 250" x2="5.157" y2="3.549" transform="translate(29.244 26.031)" fill="none" stroke="#ffe854" stroke-linecap="round" stroke-linejoin="round" stroke-miterlimit="10" stroke-width="0.845"/>
              <line id="Line_251" data-name="Line 251" x1="4.885" y2="3.916" transform="translate(4.12 26.77)" fill="none" stroke="#ffe854" stroke-linecap="round" stroke-linejoin="round" stroke-miterlimit="10" stroke-width="0.845"/>
              <line id="Line_252" data-name="Line 252" x1="5.847" y2="2.236" transform="translate(1.217 23.384)" fill="none" stroke="#ffe854" stroke-linecap="round" stroke-linejoin="round" stroke-miterlimit="10" stroke-width="0.845"/>
              <line id="Line_253" data-name="Line 253" x1="6.251" y2="0.342" transform="translate(0 19.568)" fill="none" stroke="#ffe854" stroke-linecap="round" stroke-linejoin="round" stroke-miterlimit="10" stroke-width="0.845"/>
              <line id="Line_254" data-name="Line 254" x1="6.057" y1="1.584" transform="translate(0.586 14.1)" fill="none" stroke="#ffe854" stroke-linecap="round" stroke-linejoin="round" stroke-miterlimit="10" stroke-width="0.845"/>
              <line id="Line_255" data-name="Line 255" x1="5.283" y1="3.359" transform="translate(2.919 8.749)" fill="none" stroke="#ffe854" stroke-linecap="round" stroke-linejoin="round" stroke-miterlimit="10" stroke-width="0.845"/>
              <line id="Line_256" data-name="Line 256" x1="4.004" y1="4.813" transform="translate(6.777 4.366)" fill="none" stroke="#ffe854" stroke-linecap="round" stroke-linejoin="round" stroke-miterlimit="10" stroke-width="0.845"/>
              <line id="Line_257" data-name="Line 257" x1="2.342" y1="5.806" transform="translate(12.27 1.371)" fill="none" stroke="#ffe854" stroke-linecap="round" stroke-linejoin="round" stroke-miterlimit="10" stroke-width="0.845"/>
            </g>
          </g>
          <g id="Group_3595" data-name="Group 3595" transform="translate(0 25.153)">
            <g id="Group_3592" data-name="Group 3592">
              <g id="Group_3585" data-name="Group 3585" transform="translate(0 30.969)">
                <path id="Path_1806" data-name="Path 1806" d="M190.89,307.534c-2.347-4.053-10.222-13.351-10.222-13.351l-5.7,2.225c.592,3.442,6.352,16.264,13.838,19.054,2.066.77,9.159-.211,5.43-10.3a52.271,52.271,0,0,0-5.711-10.57c-1.957-2.918-4.026-6.5-7.626-7.557a10.489,10.489,0,0,0-2.994-.322l-7.875-.063h-3.765a7.2,7.2,0,0,0-4.914,1.73,18.1,18.1,0,0,0-3.466,4.028,112.668,112.668,0,0,0-8.287,13.656c-1.106,2.245-2.437,4.6-1.089,7.064a6.564,6.564,0,0,0,3.632,2.614H167.5s-.113-4.172-.113-5.911l-.12-.044a28.974,28.974,0,0,0-13.72-2.341l3.522-.049c.357-.083.682-.582.876-.893l2.966-4.745-.211-1.94c.308,2.873,1.26,8.193,1.26,8.193a36.4,36.4,0,0,1,5.357,1.81l.183,5.92,22.161.007" transform="translate(-147.939 -286.634)" fill="#f4ba38"/>
              </g>
              <g id="Group_3586" data-name="Group 3586" transform="translate(11.42 7.815)">
                <path id="Path_1807" data-name="Path 1807" d="M194.1,231.985h4.775l2.792-.413a25.931,25.931,0,0,0,.418-3c-.114-.038-1.861-2.7-1.861-2.7l-.342-2.507a19.886,19.886,0,0,1,.418-3.419,14.534,14.534,0,0,0,1.1-3.533c-.114-.19-3.328-2.735-3.328-2.735s-1.611-.57-1.953-1.254-3.906-2.773-3.906-2.773l-3.466-.824a10.409,10.409,0,0,0-2.128,8.461l.173.745a3.061,3.061,0,0,1-.1,2.321c-.168.261-.429.517-.376.822s.368.452.645.564l1.1.443s1.018,5.931,5.857,5.2a25.056,25.056,0,0,1,.12,4.6" transform="translate(-186.315 -208.828)" fill="#546aea"/>
              </g>
              <g id="Group_3587" data-name="Group 3587" transform="translate(0.137 31.091)">
                <path id="Path_1808" data-name="Path 1808" d="M159.4,381.018h-3.6l.056.039a4.285,4.285,0,0,0,2.378.854h13.981a2.276,2.276,0,0,1,.671,0h0c0-.012,0-.024,0-.036a2.3,2.3,0,0,1-.068-.857H159.4Z" transform="translate(-153.598 -353.053)" fill="none"/>
                <path id="Path_1809" data-name="Path 1809" d="M264.117,366.618c.5.595,1.036,1.17,1.6,1.714h10.8a6.776,6.776,0,0,0,.251-1.714Z" transform="translate(-229.681 -342.938)" fill="none"/>
                <path id="Path_1810" data-name="Path 1810" d="M195.1,310.731h2.756l2.429-.948a.122.122,0,0,1,.122.032c.257.3.507.611.762.915h7.132l-.088-.133c-.34-.511-.684-1.044-1.037-1.581H177.047c-.381.569-.755,1.143-1.126,1.714H195.1Z" transform="translate(-167.731 -302.478)" fill="none"/>
                <path id="Path_1811" data-name="Path 1811" d="M154.949,373.817h-5.481a4.5,4.5,0,0,0,1.308,1.714H168.4c0-.018,0-.036,0-.054q-.025-.83-.051-1.661h-13.4Z" transform="translate(-149.15 -347.995)" fill="none"/>
                <path id="Path_1812" data-name="Path 1812" d="M191.2,317.222a.13.13,0,0,1,.088-.155l2.176-.849H172.345c-.087.133-.173.267-.261.4q-.432.655-.856,1.316h20.13C191.3,317.7,191.246,317.46,191.2,317.222Z" transform="translate(-164.435 -307.536)" fill="none"/>
                <path id="Path_1813" data-name="Path 1813" d="M154.2,366.618h-5.771a4.619,4.619,0,0,0,.083,1.517c.016.068.039.131.058.2h19.018q-.022-.7-.043-1.405c0-.1,0-.2,0-.309H154.2Z" transform="translate(-148.399 -342.938)" fill="none"/>
                <path id="Path_1814" data-name="Path 1814" d="M158.435,345.018h-3.1c-.311.567-.615,1.138-.907,1.714h8.42c.318-.51.632-1.023.95-1.532l.114-.183h-5.48Z" transform="translate(-152.637 -327.766)" fill="none"/>
                <path id="Path_1815" data-name="Path 1815" d="M254.584,313.13c-.164-.2-.33-.39-.493-.587l-.021-.022a1.115,1.115,0,0,0-.132.045,7.907,7.907,0,0,1-1.447.627h2.145Z" transform="translate(-221.514 -304.94)" fill="none"/>
                <path id="Path_1816" data-name="Path 1816" d="M198.441,303.531h11.792c-.387-.578-.788-1.157-1.213-1.714h-27.11c-.429.557-.84,1.13-1.238,1.714h17.77Z" transform="translate(-171.067 -297.421)" fill="none"/>
                <path id="Path_1817" data-name="Path 1817" d="M154.4,359.418h-5.193a8.436,8.436,0,0,0-.52,1.714h19.046c0-.035-.007-.071-.015-.1l0,0a3.1,3.1,0,0,0-.5-.21c-.988-.4-2-.753-3.015-1.066-.412-.119-.826-.231-1.243-.331H154.4Z" transform="translate(-148.601 -337.881)" fill="none"/>
                <path id="Path_1818" data-name="Path 1818" d="M156.059,352.218h-4.216q-.419.849-.794,1.714h11.417a28.667,28.667,0,0,0-3.433-.344,9.238,9.238,0,0,1-.965.016l-2.338.033c-.164,0-.16-.24,0-.251a30.049,30.049,0,0,1,3.237-.05c.481-.032.728-.339,1.008-.759.079-.118.151-.24.229-.359h-4.144Z" transform="translate(-150.26 -332.823)" fill="none"/>
                <path id="Path_1819" data-name="Path 1819" d="M275.076,332.332h5.771q-.44-.867-.921-1.714h-6.217Q274.391,331.471,275.076,332.332Z" transform="translate(-236.419 -317.651)" fill="none"/>
                <path id="Path_1820" data-name="Path 1820" d="M271.017,373.816c.369.337.747.665,1.143.97.327.252.675.5,1.037.744h6.85a4.4,4.4,0,0,0,1.172-1.714h-10.2Z" transform="translate(-234.528 -347.994)" fill="none"/>
                <path id="Path_1821" data-name="Path 1821" d="M269.286,325.132H275.6c-.334-.578-.679-1.149-1.031-1.714H267.9C268.363,323.988,268.827,324.558,269.286,325.132Z" transform="translate(-232.338 -312.594)" fill="none"/>
                <path id="Path_1822" data-name="Path 1822" d="M239.563,317.932h7.518q-.7-.861-1.416-1.714h-3.747c-.054.02-.109.039-.161.06l-1.647.643a5.15,5.15,0,0,0-.895.344.733.733,0,0,0,.044.186,3.49,3.49,0,0,1,.121.482h.184Z" transform="translate(-212.189 -307.536)" fill="none"/>
                <path id="Path_1823" data-name="Path 1823" d="M280.747,339.531h5.119q-.367-.866-.785-1.714h-5.648Q280.1,338.666,280.747,339.531Z" transform="translate(-240.439 -322.708)" fill="none"/>
                <path id="Path_1824" data-name="Path 1824" d="M202.155,296.332H212.4a14.388,14.388,0,0,0-1.6-1.714H187.526a12.947,12.947,0,0,0-.929.952c-.219.248-.431.5-.639.762h16.2Z" transform="translate(-174.781 -292.364)" fill="none"/>
                <path id="Path_1825" data-name="Path 1825" d="M207.02,289.132h8.132a7.788,7.788,0,0,0-3.1-1.525,8.744,8.744,0,0,0-1.4-.189H196.331a7.808,7.808,0,0,0-3.447,1.714H207.02Z" transform="translate(-179.646 -287.307)" fill="none"/>
                <path id="Path_1826" data-name="Path 1826" d="M286.109,346.731h4.413q-.284-.866-.628-1.714h-4.983Q285.53,345.863,286.109,346.731Z" transform="translate(-244.287 -327.765)" fill="none"/>
                <path id="Path_1827" data-name="Path 1827" d="M265.312,353.538a.126.126,0,0,1-.217.127c-.288-.493-.6-.973-.914-1.447H253.736q.537.873,1.122,1.714h14.356c-.045-.214-.093-.425-.145-.63-.093-.364-.2-.725-.309-1.084h-4.266C264.776,352.653,265.051,353.092,265.312,353.538Z" transform="translate(-222.389 -332.823)" fill="none"/>
                <path id="Path_1828" data-name="Path 1828" d="M258.5,359.418q.629.88,1.314,1.714h13.008a11.281,11.281,0,0,0-.18-1.714Z" transform="translate(-225.737 -337.881)" fill="none"/>
                <path id="Path_1829" data-name="Path 1829" d="M263.394,317.932h6.751q-.548-.868-1.108-1.714h-7.059C262.452,316.788,262.925,317.358,263.394,317.932Z" transform="translate(-228.179 -307.536)" fill="none"/>
                <path id="Path_1830" data-name="Path 1830" d="M260.182,345.608c-.143-.2-.292-.393-.437-.59h-10.15q.467.868.974,1.714h10.408Q260.586,346.165,260.182,345.608Z" transform="translate(-219.48 -327.766)" fill="none"/>
                <path id="Path_1831" data-name="Path 1831" d="M255.572,337.817h-9.621c.04.084.079.17.119.254.237.49.485.977.739,1.461h10.06Q256.228,338.668,255.572,337.817Z" transform="translate(-216.921 -322.708)" fill="none"/>
                <path id="Path_1832" data-name="Path 1832" d="M221.7,381.018H214q0,.175.01.35a1.564,1.564,0,0,1,.014.525c0,.005,0,.01,0,.016,1.2-.048,2.42,0,3.623,0l7.558,0,10.064,0a7.533,7.533,0,0,1-1.977-.9H221.7Z" transform="translate(-194.476 -353.053)" fill="none"/>
                <path id="Path_1833" data-name="Path 1833" d="M207.931,352.217H194.393q.108.625.216,1.249a1.529,1.529,0,0,0,.074.423.448.448,0,0,1,.021.042h18.168q-.227-.333-.447-.669c-.225-.345-.444-.694-.659-1.046h-3.835Z" transform="translate(-180.706 -332.823)" fill="none"/>
                <path id="Path_1834" data-name="Path 1834" d="M205.583,330.618H191.051a.127.127,0,0,1,.057.094c.053.487.213,1.091.22,1.62h15.585c-.088-.193-.176-.385-.261-.579-.164-.373-.329-.752-.487-1.135h-.58Z" transform="translate(-178.358 -317.651)" fill="none"/>
                <path id="Path_1835" data-name="Path 1835" d="M211.918,359.417H200.07c.037.01.076.018.112.029q.649.2,1.289.417c.741.255,1.479.528,2.2.834l.364.134a.13.13,0,0,1,.092.121c0,.06,0,.119,0,.179h14.312c-.448-.557-.874-1.13-1.284-1.714h-5.24Z" transform="translate(-184.693 -337.88)" fill="none"/>
                <path id="Path_1836" data-name="Path 1836" d="M161.133,339.531h5.748l.4-.638a8.46,8.46,0,0,0,.72-1.077h-8.755l-.037.063q-.47.819-.935,1.651Z" transform="translate(-155.335 -322.708)" fill="none"/>
                <path id="Path_1837" data-name="Path 1837" d="M206.324,337.817H192.106q.119.858.254,1.714H208.7q-.444-.848-.851-1.714h-1.526Z" transform="translate(-179.099 -322.708)" fill="none"/>
                <path id="Path_1838" data-name="Path 1838" d="M207.087,345.018h-13.9q.138.858.283,1.714h17.186q-.5-.846-.971-1.714h-2.6Z" transform="translate(-179.862 -327.766)" fill="none"/>
                <path id="Path_1839" data-name="Path 1839" d="M221.51,366.618h-7.785q.006.857.022,1.714h16.206c-.55-.545-1.07-1.12-1.567-1.714H221.51Z" transform="translate(-194.285 -342.938)" fill="none"/>
                <path id="Path_1840" data-name="Path 1840" d="M167.2,325.132h21.683c-.223-.563-.429-1.135-.6-1.714H167.77q-.545.853-1.075,1.714h.5Z" transform="translate(-161.25 -312.594)" fill="none"/>
                <path id="Path_1841" data-name="Path 1841" d="M280.688,381.018a7.007,7.007,0,0,0,1.665.7,5.159,5.159,0,0,0,3.935-.7Z" transform="translate(-241.321 -353.053)" fill="none"/>
                <path id="Path_1842" data-name="Path 1842" d="M183.3,338.715c-.106.155-.239.312-.317.437l-.468.749-.781,1.249a23.58,23.58,0,0,1-1.563,2.454,1.486,1.486,0,0,1-.294.279,28.956,28.956,0,0,1,3.27.38c.371.065.737.143,1.1.226C183.909,342.571,183.576,340.646,183.3,338.715Z" transform="translate(-170.513 -323.339)" fill="none"/>
                <path id="Path_1843" data-name="Path 1843" d="M221.579,373.817h-7.755q.018.857.04,1.714h18.662a20.237,20.237,0,0,1-1.79-1.464c-.09-.081-.176-.167-.265-.25h-8.892Z" transform="translate(-194.354 -347.995)" fill="none"/>
                <path id="Path_1844" data-name="Path 1844" d="M248.119,323.418h-7.926c.1.326.2.649.319.969.089.25.184.5.28.745h8.714Q248.816,324.272,248.119,323.418Z" transform="translate(-212.876 -312.594)" fill="none"/>
                <path id="Path_1845" data-name="Path 1845" d="M251.662,330.618h-8.885q.35.866.743,1.714h9.491Q252.342,331.471,251.662,330.618Z" transform="translate(-214.691 -317.651)" fill="none"/>
                <path id="Path_1846" data-name="Path 1846" d="M164.171,332.331h6.751c-.019-.141-.035-.283-.053-.424-.021-.109-.041-.212-.051-.3q-.049-.449-.1-.9a.1.1,0,0,1,.035-.094h-7.349q-.519.852-1.022,1.714h1.786Z" transform="translate(-158.223 -317.651)" fill="none"/>
                <path id="Path_1847" data-name="Path 1847" d="M215.158,287.156h3.626c-.694-.043-1.394-.032-2.088-.037l-3.464-.028c-1.551-.012-3.1-.028-4.652-.028-1.029,0-2.063-.028-3.091-.014a5.889,5.889,0,0,0-1.019.107h10.688Z" transform="translate(-187.784 -287.045)" fill="#ffd34f"/>
              </g>
              <path id="Path_1848" data-name="Path 1848" d="M198.245,191.881a6.168,6.168,0,0,0-3.233-3.347c-1.458-.644-3.151-.525-4.552-1.309a38.831,38.831,0,0,1-3.392-2.462c-2.26-1.608-5.583-3.306-8.11-1.245a5.257,5.257,0,0,0-1.749,4.79,4.937,4.937,0,0,0,2.715,3.634c1.206.572,2.3.08,3.57.094a12.391,12.391,0,0,1,2.792.31c2.262.55,2.789,2.484,3.014,4.549.015.138.173.285.314.18.934-.689,2.3-1.213,3.267-.434,2.434,1.956-.148,5.294-.591,5.972-.117,1.475,1.118,2.643,1.094,4.123,0,.276.385.259.417,0,.306-2.48,2.267-4.151,3.387-6.247C198.513,198,199.33,194.591,198.245,191.881Z" transform="translate(-168.452 -182.567)" fill="#0747a6"/>
              <g id="Group_3588" data-name="Group 3588" transform="translate(22.028 23.042)">
                <path id="Path_1849" data-name="Path 1849" d="M227.7,277.626c-.242-.52-.817-1.7-1.059-2.217a2.743,2.743,0,0,0-.712-1.057,5.6,5.6,0,0,0-1-.5,4.257,4.257,0,0,1-1.957-2.869,29.4,29.4,0,0,0-.827-3.481c-.087-.221-.438-.942.135-1.259.523-.289,1.194.719,1.351,1.079-.19-.415-.983-1.519-.7-2.04a.717.717,0,0,1,.77-.344,4.632,4.632,0,0,1,1.362,1.377c-.143-.343-1.249-1.567-.729-1.991,1.066-.87,2.439,1.895,2.439,1.895l-1.37-2.017a11.062,11.062,0,0,0-.918-1.226c-.631-.7-1.431-1.213-2.023-1.956-.2-.252-.8-1.052-.079-1.024a5.048,5.048,0,0,1,2.044.918,9.541,9.541,0,0,1,1.842,1.326,15.3,15.3,0,0,1,2.2,2.839,7.589,7.589,0,0,1,1.346,3.121c.435,1.761,1.538,6.042,1.973,7.8Z" transform="translate(-221.96 -259.998)" fill="#4360d6"/>
              </g>
              <g id="Group_3589" data-name="Group 3589" transform="translate(19.439 55.159)">
                <path id="Path_1850" data-name="Path 1850" d="M219.545,372.873a7.185,7.185,0,0,0-6.284-4.95l.095,4.916h6.189" transform="translate(-213.261 -367.923)" fill="#4360d6"/>
              </g>
              <g id="Group_3591" data-name="Group 3591" transform="translate(2.779 51.807)">
                <g id="Group_3590" data-name="Group 3590">
                  <path id="Path_1851" data-name="Path 1851" d="M157.341,364.5a4.379,4.379,0,0,0,2.349.55h14.369a.127.127,0,0,0,.126-.126c-.053-1.969-.11-3.941-.113-5.911a.129.129,0,0,0-.092-.121c-1.292-.476-2.541-1.01-3.871-1.383a30.259,30.259,0,0,0-4.206-.852c-.16-.021-.158.231,0,.251a29.429,29.429,0,0,1,6.361,1.564,5.236,5.236,0,0,1,1.5.6c.083.11.058.259.06.479.005.628.017,1.256.029,1.884q.019.968.042,1.935a5.1,5.1,0,0,0,.035,1.389c.087.223-.157.073.128.033a.29.29,0,0,1-.089,0,2.253,2.253,0,0,0-.482,0H159.539a3.768,3.768,0,0,1-2.071-.515c-.143-.073-.271.143-.127.218Z" transform="translate(-157.277 -356.657)" fill="#ffd34f"/>
                </g>
              </g>
            </g>
            <g id="Group_3594" data-name="Group 3594" transform="translate(26.902 38.391)">
              <g id="Group_3593" data-name="Group 3593">
                <path id="Path_1852" data-name="Path 1852" d="M244.3,325.752a43.2,43.2,0,0,1-4.422-7.975,24.417,24.417,0,0,1-1.113-3.093,2.841,2.841,0,0,0-.12-.48c-.052-.107-.026-.291-.122-.168.078-.1.415-.162.53-.207l4.45-1.737c.195-.076.389-.166.589-.23.159-.05-.055-.138.068.027.408.548.885,1.056,1.321,1.583,2.023,2.445,4.014,4.917,5.919,7.456.1.128.314,0,.217-.127-2.354-3.139-4.828-6.195-7.363-9.19a.122.122,0,0,0-.122-.032l-5.7,2.225a.13.13,0,0,0-.088.155,21.4,21.4,0,0,0,1.748,4.919,43.629,43.629,0,0,0,3.994,7c.092.132.31.006.217-.127Z" transform="translate(-238.341 -311.574)" fill="#ffd34f"/>
              </g>
            </g>
          </g>
        </g>
      </g>
    </g>
  </g>
</svg>
