<svg width="24" height="19" viewBox="0 0 24 19" fill="none" xmlns="http://www.w3.org/2000/svg">
<path d="M19.849 15.7093C19.9156 15.7083 19.9817 15.6956 20.0438 15.6717C20.1389 15.636 20.2226 15.5748 20.2827 15.4936C20.3433 15.4119 20.377 15.3141 20.3775 15.2125V15.2117V11.8921C21.1209 11.7855 21.8049 11.4482 22.3113 10.9326C22.8485 10.3857 23.1484 9.67577 23.15 8.93704V8.93672V3.84373V3.84353C23.1489 3.04504 22.7994 2.28278 22.1836 1.72293C21.5682 1.16352 20.7367 0.850959 19.8721 0.85H19.8719L8.7285 0.85L8.72834 0.85C7.86367 0.850959 7.03217 1.16352 6.41682 1.72293C5.80099 2.28278 5.45147 3.04504 5.4504 3.84353V3.84373L5.4504 8.93672L5.4504 8.93692C5.45148 9.73513 5.80115 10.4971 6.41712 11.0563C7.03262 11.6152 7.86416 11.927 8.7285 11.927H15.4695L19.4571 15.5693L19.4577 15.5698C19.5105 15.6175 19.5728 15.6541 19.6403 15.6778C19.7071 15.7013 19.7781 15.7119 19.849 15.7093ZM19.849 15.7093C19.8483 15.7093 19.8475 15.7093 19.8468 15.7093L19.8451 15.5593L19.8512 15.7092C19.8505 15.7092 19.8497 15.7093 19.849 15.7093ZM15.956 11.186C15.9206 11.1531 15.8784 11.127 15.8318 11.1091C15.7852 11.0912 15.7351 11.0819 15.6845 11.0817H8.7285C8.10238 11.0817 7.50185 10.8558 7.05876 10.4536C6.61567 10.0515 6.36623 9.50592 6.36522 8.93672M15.956 11.186L19.3127 14.2375V14.0348M15.956 11.186L16.058 11.076L19.3127 14.0348M15.956 11.186L16.0569 11.075L16.0575 11.0755C16.0077 11.0294 15.9491 10.9935 15.8856 10.9691C15.8217 10.9446 15.7536 10.9319 15.6851 10.9317H15.6845H8.7285C8.13776 10.9317 7.57369 10.7184 7.15957 10.3426C6.74596 9.96717 6.51619 9.46114 6.51522 8.93658M19.3127 14.0348L19.4627 14.1712V11.4293C19.4627 11.3371 19.503 11.2487 19.5747 11.1835C19.6464 11.1183 19.7437 11.0817 19.8451 11.0817C20.1571 11.084 20.4665 11.0303 20.7557 10.9236C21.0448 10.817 21.3079 10.6595 21.5299 10.4602C21.752 10.261 21.9286 10.0238 22.0496 9.76238C22.1706 9.50094 22.2337 9.22036 22.2352 8.93672M19.3127 14.0348V11.4293C19.3127 11.2925 19.3726 11.1645 19.4738 11.0725C19.5745 10.981 19.7083 10.9317 19.8451 10.9317H19.8462C20.1404 10.9338 20.4318 10.8832 20.7037 10.7829C20.9757 10.6826 21.2223 10.5348 21.4297 10.3486C21.6372 10.1624 21.8013 9.94166 21.9135 9.69936C22.0255 9.45723 22.0837 9.19796 22.0852 8.93628V8.93672H22.2352M22.2352 8.93672V3.84373C22.2352 3.27393 21.9862 2.72746 21.543 2.32455C21.0998 1.92164 20.4987 1.69529 19.8719 1.69529H8.7285C8.10172 1.69529 7.50061 1.92164 7.05741 2.32455C6.61421 2.72746 6.36522 3.27393 6.36522 3.84373V8.93672M22.2352 8.93672L22.0852 8.93592L22.0852 3.84373C22.0852 3.31857 21.8558 2.81167 21.4421 2.43554C21.0279 2.05898 20.4633 1.84529 19.8719 1.84529H8.7285C8.13714 1.84529 7.57253 2.05898 7.15831 2.43554C6.74457 2.81167 6.51522 3.31857 6.51522 3.84373V8.93658M6.36522 8.93672H6.51522V8.93658M6.36522 8.93672L6.51522 8.93645C6.51522 8.93649 6.51522 8.93654 6.51522 8.93658" fill="#334D6E" stroke="#334D6E" stroke-width="0.3"/>
<path d="M4.15515 18.7338C4.22298 18.7341 4.29046 18.7222 4.35389 18.6986L4.30168 18.558L4.35389 18.6986C4.41767 18.675 4.47655 18.6398 4.52683 18.5944L4.52733 18.594L8.52647 14.9549H15.2715H15.2715C15.8436 14.9548 16.4062 14.8176 16.9029 14.5564C17.3996 14.2952 17.8136 13.9186 18.1019 13.4633L18.1022 13.4627C18.162 13.3672 18.1866 13.2548 18.1703 13.1433C18.1539 13.032 18.0983 12.9312 18.0151 12.8552L18.0148 12.8549L16.058 11.076C16.0578 11.0758 16.0576 11.0756 16.0574 11.0754C16.0076 11.0294 15.9491 10.9935 15.8855 10.9691C15.8217 10.9445 15.7536 10.9319 15.6851 10.9317H15.6845H8.72848C8.13773 10.9317 7.57366 10.7184 7.15954 10.3426C6.74597 9.96719 6.5162 9.46121 6.51519 8.9367C6.51519 8.93661 6.51519 8.93652 6.51519 8.93644L6.51519 4.37213C6.51519 4.23529 6.45527 4.1073 6.35409 4.01532C6.25339 3.92377 6.11962 3.87449 5.98278 3.87449L4.1281 3.87449L4.12793 3.87449C3.26326 3.87545 2.43177 4.18801 1.81642 4.74742C1.20059 5.30727 0.851072 6.06953 0.85 6.86802V6.86822L0.849999 11.9612L0.850001 11.9617C0.852456 12.7002 1.15269 13.4096 1.68964 13.9563C2.1959 14.4718 2.87945 14.8092 3.62246 14.9164L3.62246 18.2362L3.62246 18.237C3.62302 18.3386 3.65672 18.4364 3.71725 18.5181L3.83775 18.4287L3.71725 18.5181C3.77713 18.5988 3.86026 18.6599 3.9548 18.6957C4.01826 18.7214 4.08654 18.7343 4.15515 18.7338ZM4.15515 18.7338C4.1548 18.7338 4.15444 18.7338 4.15408 18.7338L4.15487 18.5838L4.15623 18.7338C4.15587 18.7338 4.15551 18.7338 4.15515 18.7338ZM8.04396 14.2105C8.0797 14.1782 8.12207 14.1528 8.16867 14.1355C8.21526 14.1182 8.26515 14.1094 8.31547 14.1096M8.04396 14.2105L5.60037 8.94713C5.60139 9.70073 5.9314 10.4232 6.51792 10.9557C7.10445 11.4883 7.89951 11.7874 8.72848 11.7874H15.5277L17.1529 13.2683C16.9315 13.5305 16.6465 13.7428 16.3203 13.8887C15.994 14.0346 15.6351 14.1102 15.2715 14.1096H8.31547M8.04396 14.2105L4.68728 17.262L8.04396 14.2105ZM8.31547 14.1096V13.9596H8.31588H15.2715H15.2717C15.6145 13.9602 15.9524 13.8889 16.259 13.7518C16.5196 13.6353 16.7511 13.4742 16.9414 13.2785L15.4696 11.9374H8.72848C7.86413 11.9374 7.03259 11.6256 6.41709 11.0668C5.80112 10.5075 5.45145 9.74554 5.45037 8.94733V8.94713V4.86978M8.31547 14.1096L5.45037 4.86978M5.45037 4.86978H4.1281C3.53673 4.86978 2.97212 5.08347 2.55791 5.46003C2.14417 5.83616 1.91482 6.34306 1.91482 6.86822V11.961C1.91578 12.486 2.14547 12.9924 2.55902 13.3684C2.9729 13.7446 3.53671 13.9586 4.12756 13.9596C4.12781 13.9596 4.12807 13.9596 4.12832 13.9596L4.1281 14.1096L5.45037 4.86978Z" fill="#334D6E" stroke="#334D6E" stroke-width="0.3"/>
<path d="M8.60606 4.29619H20.1433C20.2802 4.29619 20.4139 4.2469 20.5146 4.15535C20.6158 4.06337 20.6757 3.93539 20.6757 3.79854C20.6757 3.66169 20.6158 3.53371 20.5146 3.44173C20.4139 3.35018 20.2802 3.3009 20.1433 3.3009H8.60606C8.46922 3.3009 8.33545 3.35018 8.23475 3.44173C8.13357 3.53371 8.07365 3.66169 8.07365 3.79854C8.07365 3.93539 8.13357 4.06337 8.23475 4.15535C8.33545 4.2469 8.46922 4.29619 8.60606 4.29619Z" fill="#334D6E" stroke="#334D6E" stroke-width="0.3"/>
<path d="M8.60606 6.54194H20.1433C20.2802 6.54194 20.4139 6.49266 20.5146 6.40111C20.6158 6.30913 20.6757 6.18115 20.6757 6.0443C20.6757 5.90745 20.6158 5.77947 20.5146 5.68749C20.4139 5.59594 20.2802 5.54666 20.1433 5.54666H8.60606C8.46922 5.54666 8.33545 5.59594 8.23475 5.68749C8.13357 5.77947 8.07365 5.90745 8.07365 6.0443C8.07365 6.18115 8.13357 6.30913 8.23475 6.40111C8.33545 6.49266 8.46922 6.54194 8.60606 6.54194Z" fill="#334D6E" stroke="#334D6E" stroke-width="0.3"/>
<path d="M20.1434 8.86075H13.5507C13.4138 8.86075 13.2801 8.81146 13.1794 8.71991C13.0782 8.62793 13.0183 8.49995 13.0183 8.3631C13.0183 8.22625 13.0782 8.09827 13.1794 8.00629C13.2801 7.91474 13.4138 7.86546 13.5507 7.86546H20.1434C20.2802 7.86546 20.414 7.91474 20.5147 8.00629L20.1434 8.86075ZM20.1434 8.86075C20.2802 8.86075 20.414 8.81146 20.5147 8.71991L20.1434 8.86075Z" fill="#334D6E" stroke="#334D6E" stroke-width="0.3"/>
</svg>
