<svg width="26" height="20" viewBox="0 0 26 20" fill="none" xmlns="http://www.w3.org/2000/svg">
<mask id="path-1-outside-1" maskUnits="userSpaceOnUse" x="0" y="0" width="26" height="20" fill="black">
<rect fill="white" width="26" height="20"/>
<path d="M24.5 14H24V1.5C24 1.36739 23.9473 1.24021 23.8536 1.14645C23.7598 1.05268 23.6326 1 23.5 1H2.5C2.36739 1 2.24021 1.05268 2.14645 1.14645C2.05268 1.24021 2 1.36739 2 1.5V14H1.5C1.36739 14 1.24021 14.0527 1.14645 14.1464C1.05268 14.2402 1 14.3674 1 14.5V17C1 17.5304 1.21071 18.0391 1.58579 18.4142C1.96086 18.7893 2.46957 19 3 19H23C23.5304 19 24.0391 18.7893 24.4142 18.4142C24.7893 18.0391 25 17.5304 25 17V14.5C25 14.3674 24.9473 14.2402 24.8536 14.1464C24.7598 14.0527 24.6326 14 24.5 14ZM3 2H23V14H3V2ZM10.5 15H15.5V16H10.5V15ZM24 17C24 17.2652 23.8946 17.5196 23.7071 17.7071C23.5196 17.8946 23.2652 18 23 18H3C2.73478 18 2.48043 17.8946 2.29289 17.7071C2.10536 17.5196 2 17.2652 2 17V15H9.5V16.5C9.5 16.6326 9.55268 16.7598 9.64645 16.8536C9.74021 16.9473 9.86739 17 10 17H16C16.1326 17 16.2598 16.9473 16.3536 16.8536C16.4473 16.7598 16.5 16.6326 16.5 16.5V15H24V17ZM15.135 12C15.6071 11.9996 16.0637 11.8322 16.4243 11.5275C16.7848 11.2228 17.0259 10.8004 17.105 10.335L17.745 6.585C17.7572 6.51241 17.7532 6.43802 17.7333 6.36715C17.7134 6.29627 17.6782 6.23066 17.63 6.175C17.5831 6.12012 17.5248 6.07606 17.4592 6.04585C17.3936 6.01564 17.3222 6 17.25 6H15.445L15.725 5.16C15.746 5.09762 15.7545 5.03172 15.7501 4.96605C15.7456 4.90038 15.7283 4.83623 15.699 4.77726C15.6698 4.7183 15.6292 4.66567 15.5796 4.62239C15.53 4.5791 15.4724 4.54601 15.41 4.525C15.3476 4.50399 15.2817 4.49547 15.216 4.49993C15.1504 4.50439 15.0862 4.52174 15.0273 4.55099C14.9683 4.58024 14.9157 4.62082 14.8724 4.6704C14.8291 4.71999 14.796 4.77762 14.775 4.84L14.39 6H11.61L11.225 4.84C11.204 4.77762 11.1709 4.71999 11.1276 4.6704C11.0843 4.62082 11.0317 4.58024 10.9727 4.55099C10.9138 4.52174 10.8496 4.50439 10.784 4.49993C10.7183 4.49547 10.6524 4.50399 10.59 4.525C10.5276 4.54601 10.47 4.5791 10.4204 4.62239C10.3708 4.66567 10.3302 4.7183 10.301 4.77726C10.2717 4.83623 10.2544 4.90038 10.2499 4.96605C10.2455 5.03172 10.254 5.09762 10.275 5.16L10.555 6H8.75C8.67778 6 8.60642 6.01564 8.54082 6.04585C8.47522 6.07606 8.41694 6.12012 8.37 6.175C8.32183 6.23066 8.28655 6.29627 8.26667 6.36715C8.24679 6.43802 8.24281 6.51241 8.255 6.585L8.895 10.335C8.97407 10.8004 9.2152 11.2228 9.57573 11.5275C9.93626 11.8322 10.3929 11.9996 10.865 12H15.135ZM9.88 10.165L9.34 7H10.89L11.275 8.16C11.3085 8.25931 11.3724 8.34557 11.4577 8.40658C11.5429 8.46759 11.6452 8.50027 11.75 8.5C11.8042 8.49864 11.858 8.49024 11.91 8.475C11.9725 8.45413 12.0302 8.42112 12.0799 8.37786C12.1296 8.33461 12.1702 8.28197 12.1995 8.22297C12.2287 8.16396 12.2461 8.09975 12.2504 8.03403C12.2548 7.96831 12.2462 7.90237 12.225 7.84L11.945 7H14.055L13.775 7.84C13.7499 7.90383 13.7382 7.97214 13.7406 8.0407C13.743 8.10925 13.7595 8.17657 13.789 8.23848C13.8186 8.30038 13.8605 8.35555 13.9123 8.40054C13.9641 8.44553 14.0246 8.47939 14.09 8.5C14.142 8.51524 14.1958 8.52364 14.25 8.525C14.3548 8.52527 14.4571 8.49259 14.5423 8.43158C14.6276 8.37057 14.6915 8.28431 14.725 8.185L15.11 7H16.66L16.12 10.165C16.0806 10.4007 15.9581 10.6145 15.7746 10.7677C15.5912 10.9209 15.359 11.0033 15.12 11H10.865C10.6286 10.9997 10.4 10.9157 10.2197 10.7628C10.0393 10.6099 9.919 10.3981 9.88 10.165Z"/>
</mask>
<path d="M24.5 14H24V1.5C24 1.36739 23.9473 1.24021 23.8536 1.14645C23.7598 1.05268 23.6326 1 23.5 1H2.5C2.36739 1 2.24021 1.05268 2.14645 1.14645C2.05268 1.24021 2 1.36739 2 1.5V14H1.5C1.36739 14 1.24021 14.0527 1.14645 14.1464C1.05268 14.2402 1 14.3674 1 14.5V17C1 17.5304 1.21071 18.0391 1.58579 18.4142C1.96086 18.7893 2.46957 19 3 19H23C23.5304 19 24.0391 18.7893 24.4142 18.4142C24.7893 18.0391 25 17.5304 25 17V14.5C25 14.3674 24.9473 14.2402 24.8536 14.1464C24.7598 14.0527 24.6326 14 24.5 14ZM3 2H23V14H3V2ZM10.5 15H15.5V16H10.5V15ZM24 17C24 17.2652 23.8946 17.5196 23.7071 17.7071C23.5196 17.8946 23.2652 18 23 18H3C2.73478 18 2.48043 17.8946 2.29289 17.7071C2.10536 17.5196 2 17.2652 2 17V15H9.5V16.5C9.5 16.6326 9.55268 16.7598 9.64645 16.8536C9.74021 16.9473 9.86739 17 10 17H16C16.1326 17 16.2598 16.9473 16.3536 16.8536C16.4473 16.7598 16.5 16.6326 16.5 16.5V15H24V17ZM15.135 12C15.6071 11.9996 16.0637 11.8322 16.4243 11.5275C16.7848 11.2228 17.0259 10.8004 17.105 10.335L17.745 6.585C17.7572 6.51241 17.7532 6.43802 17.7333 6.36715C17.7134 6.29627 17.6782 6.23066 17.63 6.175C17.5831 6.12012 17.5248 6.07606 17.4592 6.04585C17.3936 6.01564 17.3222 6 17.25 6H15.445L15.725 5.16C15.746 5.09762 15.7545 5.03172 15.7501 4.96605C15.7456 4.90038 15.7283 4.83623 15.699 4.77726C15.6698 4.7183 15.6292 4.66567 15.5796 4.62239C15.53 4.5791 15.4724 4.54601 15.41 4.525C15.3476 4.50399 15.2817 4.49547 15.216 4.49993C15.1504 4.50439 15.0862 4.52174 15.0273 4.55099C14.9683 4.58024 14.9157 4.62082 14.8724 4.6704C14.8291 4.71999 14.796 4.77762 14.775 4.84L14.39 6H11.61L11.225 4.84C11.204 4.77762 11.1709 4.71999 11.1276 4.6704C11.0843 4.62082 11.0317 4.58024 10.9727 4.55099C10.9138 4.52174 10.8496 4.50439 10.784 4.49993C10.7183 4.49547 10.6524 4.50399 10.59 4.525C10.5276 4.54601 10.47 4.5791 10.4204 4.62239C10.3708 4.66567 10.3302 4.7183 10.301 4.77726C10.2717 4.83623 10.2544 4.90038 10.2499 4.96605C10.2455 5.03172 10.254 5.09762 10.275 5.16L10.555 6H8.75C8.67778 6 8.60642 6.01564 8.54082 6.04585C8.47522 6.07606 8.41694 6.12012 8.37 6.175C8.32183 6.23066 8.28655 6.29627 8.26667 6.36715C8.24679 6.43802 8.24281 6.51241 8.255 6.585L8.895 10.335C8.97407 10.8004 9.2152 11.2228 9.57573 11.5275C9.93626 11.8322 10.3929 11.9996 10.865 12H15.135ZM9.88 10.165L9.34 7H10.89L11.275 8.16C11.3085 8.25931 11.3724 8.34557 11.4577 8.40658C11.5429 8.46759 11.6452 8.50027 11.75 8.5C11.8042 8.49864 11.858 8.49024 11.91 8.475C11.9725 8.45413 12.0302 8.42112 12.0799 8.37786C12.1296 8.33461 12.1702 8.28197 12.1995 8.22297C12.2287 8.16396 12.2461 8.09975 12.2504 8.03403C12.2548 7.96831 12.2462 7.90237 12.225 7.84L11.945 7H14.055L13.775 7.84C13.7499 7.90383 13.7382 7.97214 13.7406 8.0407C13.743 8.10925 13.7595 8.17657 13.789 8.23848C13.8186 8.30038 13.8605 8.35555 13.9123 8.40054C13.9641 8.44553 14.0246 8.47939 14.09 8.5C14.142 8.51524 14.1958 8.52364 14.25 8.525C14.3548 8.52527 14.4571 8.49259 14.5423 8.43158C14.6276 8.37057 14.6915 8.28431 14.725 8.185L15.11 7H16.66L16.12 10.165C16.0806 10.4007 15.9581 10.6145 15.7746 10.7677C15.5912 10.9209 15.359 11.0033 15.12 11H10.865C10.6286 10.9997 10.4 10.9157 10.2197 10.7628C10.0393 10.6099 9.919 10.3981 9.88 10.165Z" fill="#334D6E"/>
<path d="M24.5 14H24V1.5C24 1.36739 23.9473 1.24021 23.8536 1.14645C23.7598 1.05268 23.6326 1 23.5 1H2.5C2.36739 1 2.24021 1.05268 2.14645 1.14645C2.05268 1.24021 2 1.36739 2 1.5V14H1.5C1.36739 14 1.24021 14.0527 1.14645 14.1464C1.05268 14.2402 1 14.3674 1 14.5V17C1 17.5304 1.21071 18.0391 1.58579 18.4142C1.96086 18.7893 2.46957 19 3 19H23C23.5304 19 24.0391 18.7893 24.4142 18.4142C24.7893 18.0391 25 17.5304 25 17V14.5C25 14.3674 24.9473 14.2402 24.8536 14.1464C24.7598 14.0527 24.6326 14 24.5 14ZM3 2H23V14H3V2ZM10.5 15H15.5V16H10.5V15ZM24 17C24 17.2652 23.8946 17.5196 23.7071 17.7071C23.5196 17.8946 23.2652 18 23 18H3C2.73478 18 2.48043 17.8946 2.29289 17.7071C2.10536 17.5196 2 17.2652 2 17V15H9.5V16.5C9.5 16.6326 9.55268 16.7598 9.64645 16.8536C9.74021 16.9473 9.86739 17 10 17H16C16.1326 17 16.2598 16.9473 16.3536 16.8536C16.4473 16.7598 16.5 16.6326 16.5 16.5V15H24V17ZM15.135 12C15.6071 11.9996 16.0637 11.8322 16.4243 11.5275C16.7848 11.2228 17.0259 10.8004 17.105 10.335L17.745 6.585C17.7572 6.51241 17.7532 6.43802 17.7333 6.36715C17.7134 6.29627 17.6782 6.23066 17.63 6.175C17.5831 6.12012 17.5248 6.07606 17.4592 6.04585C17.3936 6.01564 17.3222 6 17.25 6H15.445L15.725 5.16C15.746 5.09762 15.7545 5.03172 15.7501 4.96605C15.7456 4.90038 15.7283 4.83623 15.699 4.77726C15.6698 4.7183 15.6292 4.66567 15.5796 4.62239C15.53 4.5791 15.4724 4.54601 15.41 4.525C15.3476 4.50399 15.2817 4.49547 15.216 4.49993C15.1504 4.50439 15.0862 4.52174 15.0273 4.55099C14.9683 4.58024 14.9157 4.62082 14.8724 4.6704C14.8291 4.71999 14.796 4.77762 14.775 4.84L14.39 6H11.61L11.225 4.84C11.204 4.77762 11.1709 4.71999 11.1276 4.6704C11.0843 4.62082 11.0317 4.58024 10.9727 4.55099C10.9138 4.52174 10.8496 4.50439 10.784 4.49993C10.7183 4.49547 10.6524 4.50399 10.59 4.525C10.5276 4.54601 10.47 4.5791 10.4204 4.62239C10.3708 4.66567 10.3302 4.7183 10.301 4.77726C10.2717 4.83623 10.2544 4.90038 10.2499 4.96605C10.2455 5.03172 10.254 5.09762 10.275 5.16L10.555 6H8.75C8.67778 6 8.60642 6.01564 8.54082 6.04585C8.47522 6.07606 8.41694 6.12012 8.37 6.175C8.32183 6.23066 8.28655 6.29627 8.26667 6.36715C8.24679 6.43802 8.24281 6.51241 8.255 6.585L8.895 10.335C8.97407 10.8004 9.2152 11.2228 9.57573 11.5275C9.93626 11.8322 10.3929 11.9996 10.865 12H15.135ZM9.88 10.165L9.34 7H10.89L11.275 8.16C11.3085 8.25931 11.3724 8.34557 11.4577 8.40658C11.5429 8.46759 11.6452 8.50027 11.75 8.5C11.8042 8.49864 11.858 8.49024 11.91 8.475C11.9725 8.45413 12.0302 8.42112 12.0799 8.37786C12.1296 8.33461 12.1702 8.28197 12.1995 8.22297C12.2287 8.16396 12.2461 8.09975 12.2504 8.03403C12.2548 7.96831 12.2462 7.90237 12.225 7.84L11.945 7H14.055L13.775 7.84C13.7499 7.90383 13.7382 7.97214 13.7406 8.0407C13.743 8.10925 13.7595 8.17657 13.789 8.23848C13.8186 8.30038 13.8605 8.35555 13.9123 8.40054C13.9641 8.44553 14.0246 8.47939 14.09 8.5C14.142 8.51524 14.1958 8.52364 14.25 8.525C14.3548 8.52527 14.4571 8.49259 14.5423 8.43158C14.6276 8.37057 14.6915 8.28431 14.725 8.185L15.11 7H16.66L16.12 10.165C16.0806 10.4007 15.9581 10.6145 15.7746 10.7677C15.5912 10.9209 15.359 11.0033 15.12 11H10.865C10.6286 10.9997 10.4 10.9157 10.2197 10.7628C10.0393 10.6099 9.919 10.3981 9.88 10.165Z" stroke="#334D6E" stroke-width="0.2" mask="url(#path-1-outside-1)"/>
</svg>
