<svg width="34" height="34" viewBox="0 0 34 34" fill="none" xmlns="http://www.w3.org/2000/svg">
<path d="M11.9 18.8434H15.3C15.7692 18.8434 16.15 18.4645 16.15 18.0014V14.6333C16.15 14.1685 15.7692 13.7913 15.3 13.7913H11.9C11.4308 13.7913 11.05 14.1685 11.05 14.6333V18.0014C11.05 18.4645 11.4308 18.8434 11.9 18.8434ZM12.75 15.4753H14.45V17.1594H12.75V15.4753ZM15.3 25.5797C15.7692 25.5797 16.15 25.2008 16.15 24.7377V21.3695C16.15 20.9064 15.7692 20.5275 15.3 20.5275H11.9C11.4308 20.5275 11.05 20.9064 11.05 21.3695V24.7377C11.05 25.2008 11.4308 25.5797 11.9 25.5797H15.3ZM12.75 22.2116H14.45V23.8956H12.75V22.2116ZM18.7 25.5797H22.1C22.5675 25.5797 22.95 25.2008 22.95 24.7377V21.3695C22.95 20.9064 22.5675 20.5275 22.1 20.5275H18.7C18.2325 20.5275 17.85 20.9064 17.85 21.3695V24.7377C17.85 25.2008 18.2325 25.5797 18.7 25.5797ZM19.55 22.2116H21.25V23.8956H19.55V22.2116ZM18.7 18.8434H22.1C22.5675 18.8434 22.95 18.4645 22.95 18.0014V14.6333C22.95 14.1685 22.5675 13.7913 22.1 13.7913H18.7C18.2325 13.7913 17.85 14.1685 17.85 14.6333V18.0014C17.85 18.4645 18.2325 18.8434 18.7 18.8434ZM19.55 15.4753H21.25V17.1594H19.55V15.4753ZM33.15 32.3159V17.1594C33.6175 17.1594 34 16.7822 34 16.3174C34 15.8526 33.6175 15.4753 33.15 15.4753H32.3H26.35V12.1072H28.9C29.3675 12.1072 29.75 11.73 29.75 11.2652V7.89704C29.75 7.43224 29.3675 7.05501 28.9 7.05501H17.85V5.10487C18.5657 4.89099 19.8339 5.3659 20.6363 5.66735L21.0936 5.83575C21.5543 5.99911 22.0184 6.08162 22.4995 6.08162C23.528 6.08162 24.6364 5.70608 25.9352 4.93646C26.1936 4.78321 26.35 4.50871 26.35 4.214V0.845877C26.35 0.542745 26.1834 0.263191 25.9199 0.11331C25.6547 -0.0365717 25.3266 -0.0315195 25.0648 0.123414C23.2373 1.20627 22.321 1.11364 21.6648 0.882926L21.1565 0.689259C19.8781 0.195829 17.952 -0.551895 16.609 0.638737C16.3676 0.852613 16.2894 1.1709 16.3608 1.46393C16.235 1.61044 16.15 1.794 16.15 2.00283V4.52555C16.1415 4.58618 16.1449 4.64344 16.15 4.70406V7.05501H5.1C4.6308 7.05501 4.25 7.43224 4.25 7.89704V11.2652C4.25 11.73 4.6308 12.1072 5.1 12.1072H7.65V15.4753H1.7H0.85C0.3808 15.4753 0 15.8526 0 16.3174C0 16.7822 0.3808 17.1594 0.85 17.1594V32.3159C0.3808 32.3159 0 32.6949 0 33.158C0 33.6211 0.3808 34 0.85 34H1.7H8.5H15.3H18.7H25.5H32.3H33.15C33.6175 34 34 33.6211 34 33.158C34 32.6949 33.6175 32.3159 33.15 32.3159ZM20.5377 2.2588C20.7349 2.33459 20.9253 2.407 21.0936 2.46763C22.1952 2.85833 23.3257 2.7876 24.6517 2.22681V3.72394C23.0945 4.55923 22.27 4.46156 21.6665 4.25105L21.2415 4.09443C20.2895 3.73741 19.0094 3.26924 17.8517 3.40228V2.00283C17.8517 1.94894 17.8296 1.9001 17.8194 1.84958C18.4161 1.44203 19.6826 1.92704 20.5377 2.2588ZM26.35 22.2116H31.45V25.5797H26.35V22.2116ZM31.45 17.1594V20.5275H26.35V17.1594H31.45ZM5.95 8.73907H28.05V10.4231H25.5H8.5H5.95V8.73907ZM2.55 22.2116H7.65V25.5797H2.55V22.2116ZM7.65 17.1594V20.5275H2.55V17.1594H7.65ZM2.55 27.2638H7.65V32.3159H2.55V27.2638ZM9.35 16.3174V12.1072H24.65V16.3174V32.3159H19.55V28.1058C19.55 27.6427 19.1675 27.2638 18.7 27.2638H15.3C14.8308 27.2638 14.45 27.6427 14.45 28.1058V32.3159H9.35V16.3174ZM16.15 32.3159V28.9478H17.85V32.3159H16.15ZM26.35 32.3159V27.2638H31.45V32.3159H26.35Z" fill="#949CA6"/>
</svg>
