<svg width="22" height="22" viewBox="0 0 22 22" fill="none" xmlns="http://www.w3.org/2000/svg">
<path d="M6.00026 8.45496C6.60608 8.45499 7.17612 8.59008 7.70978 8.8602C8.22234 9.11964 8.65595 9.47946 9.01032 9.93924C9.25475 9.47247 9.56234 9.05367 9.93302 8.68298C10.3037 8.31229 10.7225 8.0047 11.1893 7.76027C10.7295 7.4059 10.3697 6.97229 10.1102 6.45973C9.84008 5.926 9.705 5.35588 9.705 4.74996C9.705 4.22977 9.8038 3.73869 10.0016 3.27715C10.1991 2.81635 10.4692 2.41438 10.8119 2.07165C11.1546 1.72903 11.5563 1.45575 12.0169 1.25178C12.4788 1.04725 12.9734 0.948406 13.5003 0.954954M6.00026 8.45496C6.00036 8.45496 6.00046 8.45496 6.00056 8.45496L6 8.49996V8.45496C6.00009 8.45496 6.00017 8.45496 6.00026 8.45496ZM6.00026 8.45496C5.47337 8.44841 4.97875 8.54726 4.51693 8.75178C4.05635 8.95575 3.65455 9.22903 3.31193 9.57165C2.9692 9.91439 2.69909 10.3164 2.50161 10.7772C2.3038 11.2387 2.205 11.7298 2.205 12.25C2.205 12.8559 2.34008 13.426 2.61024 13.9597C2.86976 14.4724 3.22971 14.9061 3.68967 15.2606C3.28196 15.4771 2.91554 15.7353 2.59057 16.0353C2.24903 16.3505 1.9567 16.7053 1.71365 17.0994C1.47065 17.4934 1.28347 17.9138 1.15214 18.3603C1.02068 18.8073 0.955 19.2705 0.955 19.75V19.795H1H2.25H2.295V19.75C2.295 19.2481 2.39148 18.769 2.58442 18.3124C2.77751 17.8554 3.04439 17.46 3.38503 17.1258C3.7261 16.7912 4.11862 16.5273 4.56286 16.3342C5.00607 16.1415 5.48494 16.045 6 16.045L6.00058 16.045C6.50204 16.0385 6.98073 16.1349 7.43707 16.3342C7.89444 16.5339 8.29007 16.8009 8.62443 17.1353C8.95878 17.4696 9.22253 17.8619 9.41567 18.3126C9.60849 18.7625 9.705 19.2415 9.705 19.75V19.795H9.75H11H11.0456L11.045 19.7494C11.0384 19.2639 10.9728 18.7978 10.848 18.3511C10.7231 17.9042 10.5358 17.4835 10.2861 17.0892C10.0366 16.6952 9.74109 16.3407 9.39966 16.0255C9.07508 15.7259 8.71204 15.4708 8.31068 15.2603C8.77047 14.9059 9.13031 14.4723 9.38976 13.9597C9.65992 13.426 9.795 12.8559 9.795 12.25C9.795 11.7481 9.89148 11.269 10.0844 10.8124C10.2775 10.3554 10.5444 9.96005 10.885 9.62583C11.2261 9.29119 11.6186 9.02734 12.0629 8.83419C12.5061 8.6415 12.9849 8.54496 13.5 8.54496L13.5006 8.54495C14.002 8.53852 14.4807 8.63492 14.9371 8.83417C15.3944 9.03386 15.7901 9.30094 16.1244 9.63529C16.4588 9.96964 16.7225 10.3619 16.9157 10.8126C17.1085 11.2625 17.205 11.7415 17.205 12.25V12.295H17.25H18.5H18.5456L18.545 12.2493C18.5384 11.7639 18.4728 11.2978 18.348 10.8511C18.2231 10.4042 18.0358 9.98347 17.7861 9.58916C17.5366 9.19524 17.2411 8.84065 16.8997 8.52548C16.5751 8.22587 16.212 7.97082 15.8107 7.76031C16.2705 7.40593 16.6303 6.97231 16.8898 6.45973C17.1599 5.92608 17.295 5.35605 17.295 4.75023M17.295 4.75023C17.295 4.75033 17.295 4.75043 17.295 4.75053L17.25 4.74996H17.295C17.295 4.75005 17.295 4.75014 17.295 4.75023ZM17.295 4.75023C17.3015 4.23618 17.2026 3.74492 16.9983 3.27687C16.7943 2.80976 16.521 2.40461 16.1783 2.06188C15.8356 1.71915 15.4336 1.44905 14.9728 1.25156C14.5113 1.05379 14.0204 0.95499 13.5003 0.954954M13.5003 0.954954C13.5004 0.954955 13.5005 0.954957 13.5006 0.954958L13.5 0.999954V0.954954C13.5001 0.954954 13.5002 0.954954 13.5003 0.954954ZM13.5 14.705H13.455V14.75V16V16.045H13.5H21H21.045V16V14.75V14.705H21H13.5ZM13.455 18.5V18.545H13.5H21H21.045V18.5V17.25V17.205H21H13.5H13.455V17.25V18.5ZM13.455 21V21.045H13.5H21H21.045V21V19.75V19.705H21H13.5H13.455V19.75V21ZM11.2366 5.69881C11.109 5.40543 11.0451 5.08945 11.045 4.75038C11.0515 4.4041 11.1156 4.08432 11.2369 3.79057C11.3582 3.49682 11.5338 3.23827 11.7638 3.01464C11.9943 2.79056 12.2567 2.61458 12.5511 2.48654C12.8445 2.35898 13.1605 2.29501 13.4996 2.29495C13.8458 2.30141 14.1656 2.36553 14.4594 2.48686C14.7531 2.60819 15.0117 2.78373 15.2353 3.01375C15.4594 3.24423 15.6354 3.50661 15.7634 3.8011C15.891 4.09448 15.9549 4.41046 15.955 4.74953C15.9485 5.0958 15.8844 5.41559 15.7631 5.70934C15.6418 6.00309 15.4662 6.26164 15.2362 6.48527C15.0057 6.70935 14.7433 6.88534 14.4489 7.01338C14.1555 7.14093 13.8395 7.2049 13.5004 7.20496C13.1542 7.1985 12.8344 7.13438 12.5406 7.01305C12.2469 6.89172 11.9883 6.71618 11.7647 6.48617C11.5406 6.25568 11.3646 5.9933 11.2366 5.69881ZM3.73658 13.1988C3.60902 12.9054 3.54505 12.5894 3.545 12.2504C3.55146 11.9041 3.61557 11.5843 3.7369 11.2906C3.85824 10.9968 4.03378 10.7383 4.26379 10.5146C4.49427 10.2906 4.75665 10.1146 5.05115 9.98654C5.34452 9.85898 5.6605 9.79501 5.99958 9.79496C6.34585 9.80141 6.66564 9.86553 6.95938 9.98686C7.25314 10.1082 7.51169 10.2837 7.73531 10.5137C7.95939 10.7442 8.13538 11.0066 8.26342 11.3011C8.39098 11.5945 8.45495 11.9105 8.455 12.2495C8.44854 12.5958 8.38443 12.9156 8.2631 13.2093C8.14176 13.5031 7.96622 13.7616 7.73621 13.9853C7.50573 14.2094 7.24335 14.3853 6.94885 14.5134C6.65548 14.6409 6.3395 14.7049 6.00042 14.705C5.65415 14.6985 5.33436 14.6344 5.04062 14.5131C4.74686 14.3917 4.48831 14.2162 4.26469 13.9862C4.04061 13.7557 3.86462 13.4933 3.73658 13.1988Z" fill="#334D6E" stroke="#334D6E" stroke-width="0.09"/>
</svg>
