<svg width="22" height="21" viewBox="0 0 22 21" fill="none" xmlns="http://www.w3.org/2000/svg">
<path d="M21.05 15.8519V15.8019H21H14.813L16.7871 13.8472L16.823 13.8117L16.7871 13.7762L15.9082 12.9059L15.873 12.8711L15.8379 12.9059L12.2734 16.4352L12.2375 16.4707L12.2734 16.5063L15.8379 20.0355L15.873 20.0704L15.9082 20.0355L16.7871 19.1653L16.823 19.1298L16.7871 19.0942L14.813 17.1396H21H21.05V17.0896V15.8519ZM13.6533 11.6997L13.6889 11.6625L13.6507 11.628C13.284 11.2974 12.8943 11.0023 12.4817 10.7429C12.0963 10.5006 11.6908 10.2979 11.2655 10.1347C11.9745 9.65683 12.529 9.06977 12.9281 8.37347C13.3429 7.64984 13.55 6.84184 13.55 5.95064C13.55 5.26081 13.4185 4.60945 13.1553 3.99705C12.8924 3.38532 12.5307 2.85445 12.0701 2.40493C11.6098 1.95567 11.0739 1.60096 10.4629 1.34077C9.85099 1.08015 9.1965 0.95 8.5 0.95C7.80349 0.95 7.14583 1.08016 6.52746 1.34069C5.90975 1.60095 5.37365 1.95907 4.91964 2.41511C4.4659 2.87088 4.1076 3.40148 3.84476 4.00654C3.58149 4.6126 3.45 5.26081 3.44998 5.95064L3.45002 5.95212C3.46314 6.39373 3.5189 6.81622 3.61744 7.2195C3.71624 7.62383 3.87102 8.00856 4.08169 8.37359C4.29198 8.73796 4.54172 9.07308 4.83086 9.37888C5.09764 9.66104 5.39785 9.91264 5.73139 10.1337C5.03474 10.3854 4.40085 10.7411 3.82997 11.2007C3.23393 11.6807 2.71962 12.2288 2.2872 12.8451C1.85454 13.4617 1.5235 14.1335 1.29412 14.8603C1.06472 15.5871 0.95 16.3302 0.95 17.0896V17.1396H1H2.25H2.3V17.0896C2.3 16.5268 2.37427 15.9834 2.52272 15.4594C2.6713 14.9349 2.88118 14.4459 3.1523 13.9921C3.42364 13.5379 3.74666 13.1221 4.12142 12.7446C4.49587 12.3675 4.91221 12.0479 5.37052 11.7859C5.82902 11.5237 6.3232 11.319 6.85322 11.1718C7.38257 11.0248 7.93145 10.9513 8.5 10.9513C9.29473 10.9513 10.0535 11.092 10.7768 11.3733C11.5 11.6546 12.1488 12.0637 12.7237 12.6009L12.7598 12.6347L12.794 12.5989L13.6533 11.6997ZM12.2 5.95064L12.2 5.95127C12.2064 6.46003 12.1101 6.93628 11.9114 7.3806C11.712 7.82641 11.4453 8.21444 11.1113 8.54513C10.7774 8.8757 10.3857 9.1365 9.93555 9.32751C9.48624 9.51817 9.00788 9.61361 8.5 9.61361C7.98552 9.61361 7.50392 9.51814 7.05469 9.32751C6.60476 9.13659 6.2131 8.87269 5.87927 8.5358C5.54509 8.19856 5.28162 7.81047 5.08875 7.37125C4.89639 6.93318 4.8 6.45984 4.8 5.95064C4.8 5.45451 4.89632 4.98095 5.08896 4.52955C5.28176 4.07776 5.54822 3.68689 5.88836 3.35647C6.22897 3.02559 6.62097 2.76468 7.06469 2.57366C7.50727 2.38314 7.98552 2.28766 8.5 2.28766L8.50063 2.28765C9.00147 2.2813 9.47952 2.37662 9.93524 2.57363C10.3921 2.77113 10.7872 3.03524 11.1211 3.36581C11.4549 3.69637 11.7183 4.08422 11.9111 4.52978C12.1036 4.97452 12.2 5.44797 12.2 5.95064Z" fill="#334D6E" stroke="#334D6E" stroke-width="0.1"/>
</svg>
