<svg width="18" height="22" viewBox="0 0 18 22" fill="none" xmlns="http://www.w3.org/2000/svg">
<path d="M4.19399 13.6503C4.19399 16.3003 6.34975 18.456 8.99976 18.456C11.6498 18.456 13.8055 16.3003 13.8055 13.6503C13.8055 11.0003 11.6498 8.84472 8.99976 8.84472C6.34976 8.84472 4.19399 11.0003 4.19399 13.6503ZM8.99976 9.97425C11.0268 9.97425 12.676 11.6235 12.676 13.6503C12.676 15.6773 11.0268 17.3265 8.99976 17.3265C6.97273 17.3265 5.32352 15.6773 5.32352 13.6503C5.32352 11.6235 6.97273 9.97425 8.99976 9.97425Z" fill="#50C228" stroke="#3ABC0D" stroke-width="0.3"/>
<path d="M11.3354 12.4633L10.8076 11.8234L7.95509 14.1754L7.19949 12.9603L6.49512 13.3986L7.75136 15.4185L11.3354 12.4633Z" fill="#50C228"/>
<path fill-rule="evenodd" clip-rule="evenodd" d="M11.7578 12.5039L7.67774 15.8681L6.08203 13.3023L7.29586 12.5471L8.02886 13.7258L10.8483 11.4011L11.7578 12.5039ZM7.95516 14.1754L7.19956 12.9603L6.49519 13.3986L7.75143 15.4185L11.3354 12.4633L10.8077 11.8234L7.95516 14.1754Z" fill="#3ABC0D"/>
<path d="M2.70726 21.0587H15.2927C16.3169 21.0587 17.15 20.2256 17.15 19.2014V2.70726C17.15 1.68309 16.3169 0.85 15.2927 0.85H8.1166C7.6209 0.85 7.15423 1.04344 6.80351 1.39416L1.39399 6.80347C1.39398 6.80348 1.39397 6.8035 1.39396 6.80351C1.04805 7.14922 0.85 7.62746 0.85 8.1168V19.2014C0.85 20.2256 1.68309 21.0587 2.70726 21.0587ZM15.2927 1.97953C15.6939 1.97953 16.0205 2.30607 16.0205 2.70726V19.2014C16.0205 19.6026 15.6939 19.9291 15.2927 19.9291H2.70726C2.30607 19.9291 1.97953 19.6026 1.97953 19.2014V8.1463H6.1971C7.2719 8.1463 8.1461 7.2721 8.1461 6.19731V1.97953H15.2927ZM2.77816 7.01678L7.01657 2.77836V6.19731C7.01657 6.64912 6.64892 7.01678 6.1971 7.01678H2.77816Z" fill="#50C228" stroke="#3ABC0D" stroke-width="0.3"/>
</svg>
