<svg width="22" height="22" viewBox="0 0 22 22" fill="none" xmlns="http://www.w3.org/2000/svg">
<path d="M18.0588 4.47941H17.5206V3.94118C17.5206 3.14787 17.2054 2.38705 16.6445 1.8261C16.0835 1.26514 15.3227 0.95 14.5294 0.95H3.94118C3.14787 0.95 2.38705 1.26514 1.8261 1.8261C1.26514 2.38705 0.95 3.14787 0.95 3.94118V14.5294C0.95 15.3227 1.26514 16.0835 1.8261 16.6445C2.38705 17.2054 3.14787 17.5206 3.94118 17.5206H4.47941V18.0588C4.47941 18.4516 4.55678 18.8406 4.7071 19.2035C4.85742 19.5664 5.07775 19.8961 5.35551 20.1739C5.63326 20.4517 5.96301 20.672 6.32591 20.8223C6.68882 20.9726 7.07778 21.05 7.47059 21.05H18.0588C18.4516 21.05 18.8406 20.9726 19.2035 20.8223C19.5664 20.672 19.8961 20.4517 20.1739 20.1739C20.4517 19.8961 20.672 19.5664 20.8223 19.2035C20.9726 18.8406 21.05 18.4516 21.05 18.0588V7.47059C21.05 7.07778 20.9726 6.68882 20.8223 6.32591C20.672 5.96301 20.4517 5.63326 20.1739 5.35551C19.8961 5.07775 19.5664 4.85742 19.2035 4.7071C18.8406 4.55678 18.4516 4.47941 18.0588 4.47941ZM3.94118 16.2441C3.48641 16.2441 3.05027 16.0635 2.7287 15.7419C2.40713 15.4203 2.22647 14.9842 2.22647 14.5294V3.94118C2.22647 3.48641 2.40713 3.05027 2.7287 2.7287C3.05027 2.40713 3.48641 2.22647 3.94118 2.22647H14.5294C14.9842 2.22647 15.4203 2.40713 15.7419 2.7287C16.0635 3.05027 16.2441 3.48641 16.2441 3.94118V14.5294C16.2441 14.9842 16.0635 15.4203 15.7419 15.7419C15.4203 16.0635 14.9842 16.2441 14.5294 16.2441H3.94118ZM19.7735 18.0588C19.7735 18.5136 19.5929 18.9497 19.2713 19.2713C18.9497 19.5929 18.5136 19.7735 18.0588 19.7735H7.47059C7.01582 19.7735 6.57968 19.5929 6.25811 19.2713C5.93654 18.9497 5.75588 18.5136 5.75588 18.0588V17.5206H14.5294C15.3227 17.5206 16.0835 17.2054 16.6445 16.6445C17.2054 16.0835 17.5206 15.3227 17.5206 14.5294V5.75588H18.0588C18.5136 5.75588 18.9497 5.93654 19.2713 6.25811C19.5929 6.57968 19.7735 7.01582 19.7735 7.47059V18.0588Z" fill="#0BA677" stroke="#0BA677" stroke-width="0.1"/>
</svg>
