<svg width="20" height="21" viewBox="0 0 20 21" fill="none" xmlns="http://www.w3.org/2000/svg">
<path d="M10.8328 7.86768H9.67163V15.7412H10.8328V7.86768Z" fill="#FF1717"/>
<path d="M11.7908 0H8.71373C8.1748 0 7.65795 0.198315 7.27688 0.551318C6.8958 0.904321 6.68171 1.3831 6.68171 1.88232V2.59222H1.08497C0.930991 2.59222 0.78332 2.64888 0.674441 2.74974C0.565562 2.8506 0.504395 2.98739 0.504395 3.13002C0.504395 3.27266 0.565562 3.40945 0.674441 3.51031C0.78332 3.61117 0.930991 3.66783 1.08497 3.66783H2.6264V17.0753C2.6264 17.9311 2.9934 18.7519 3.64667 19.357C4.29995 19.9622 5.18598 20.3021 6.10985 20.3021H14.3947C15.3185 20.3021 16.2045 19.9622 16.8578 19.357C17.5111 18.7519 17.8781 17.9311 17.8781 17.0753V3.66783H19.4195C19.5735 3.66783 19.7212 3.61117 19.8301 3.51031C19.9389 3.40945 20.0001 3.27266 20.0001 3.13002C20.0001 2.98739 19.9389 2.8506 19.8301 2.74974C19.7212 2.64888 19.5735 2.59222 19.4195 2.59222H13.8228V1.88232C13.8228 1.3831 13.6087 0.904321 13.2276 0.551318C12.8465 0.198315 12.3297 0 11.7908 0ZM7.83996 1.88232C7.83996 1.66836 7.93171 1.46318 8.09503 1.31189C8.25835 1.1606 8.47985 1.07561 8.71082 1.07561H11.7908C12.0217 1.07561 12.2432 1.1606 12.4066 1.31189C12.5699 1.46318 12.6616 1.66836 12.6616 1.88232V2.59222H7.84286L7.83996 1.88232ZM16.717 3.66783V17.0753C16.717 17.6458 16.4723 18.193 16.0368 18.5964C15.6013 18.9999 15.0106 19.2265 14.3947 19.2265H6.10985C5.49393 19.2265 4.90325 18.9999 4.46773 18.5964C4.03222 18.193 3.78755 17.6458 3.78755 17.0753V3.66783H16.717Z" fill="#FE0707"/>
<path d="M7.3491 7.86768H6.18799V15.7412H7.3491V7.86768Z" fill="#FF1717"/>
<path d="M14.3164 7.86768H13.1553V15.7412H14.3164V7.86768Z" fill="#FF1717"/>
</svg>
