<svg width="22" height="22" viewBox="0 0 22 22" fill="none" xmlns="http://www.w3.org/2000/svg">
<path d="M12.661 0.102621C12.5523 0.014277 12.4091 -0.0194964 12.2724 0.0109684L0.355715 2.76097C0.145985 2.80918 -0.00199911 2.99678 2.0419e-05 3.21197V18.7953C0.000106356 19.0214 0.165149 19.2138 0.388672 19.2481L12.3053 21.0815C12.5555 21.1199 12.7895 20.9483 12.828 20.6982C12.8315 20.6752 12.8333 20.6519 12.8333 20.6287V0.461968C12.8337 0.322191 12.7703 0.18989 12.661 0.102621Z" fill="#4CAF50"/>
<path d="M21.5415 19.2536H12.3749C12.1217 19.2536 11.9165 19.0484 11.9165 18.7953C11.9165 18.5421 12.1217 18.3369 12.3749 18.3369H21.0832V2.75363H12.3749C12.1217 2.75363 11.9165 2.54841 11.9165 2.29528C11.9165 2.04215 12.1217 1.83698 12.3749 1.83698H21.5415C21.7946 1.83698 21.9998 2.04219 21.9998 2.29532V18.7953C21.9998 19.0484 21.7947 19.2536 21.5415 19.2536Z" fill="#4CAF50"/>
<path d="M8.70829 14.6703C8.55025 14.6703 8.40338 14.5889 8.31963 14.4549L3.73629 7.12157C3.5954 6.91129 3.65169 6.62658 3.86197 6.48568C4.07226 6.34479 4.35697 6.40108 4.49787 6.61136C4.50341 6.61961 4.50865 6.62804 4.51364 6.63663L9.09698 13.97C9.23061 14.1849 9.1647 14.4675 8.94973 14.6012C8.87724 14.6463 8.79362 14.6702 8.70829 14.6703Z" fill="#FAFAFA"/>
<path d="M4.12488 14.6703C3.87175 14.6698 3.66697 14.4642 3.66748 14.2111C3.66765 14.1255 3.6918 14.0417 3.73713 13.9691L8.32048 6.63575C8.44741 6.41674 8.72786 6.3421 8.94683 6.46903C9.16584 6.59596 9.24048 6.87642 9.11355 7.09538C9.10857 7.10398 9.10332 7.1124 9.09778 7.12065L4.51448 14.454C4.43078 14.5886 4.28344 14.6705 4.12488 14.6703Z" fill="#FAFAFA"/>
<path d="M16.0414 19.2536C15.7882 19.2536 15.583 19.0484 15.583 18.7952V2.29526C15.583 2.04213 15.7882 1.83691 16.0414 1.83691C16.2945 1.83691 16.4997 2.04213 16.4997 2.29526V18.7952C16.4997 19.0484 16.2945 19.2536 16.0414 19.2536Z" fill="#4CAF50"/>
<path d="M21.5415 16.5036H12.3749C12.1217 16.5036 11.9165 16.2984 11.9165 16.0453C11.9165 15.7921 12.1217 15.5869 12.3749 15.5869H21.5415C21.7946 15.5869 21.9998 15.7921 21.9998 16.0453C21.9998 16.2984 21.7947 16.5036 21.5415 16.5036Z" fill="#4CAF50"/>
<path d="M21.5415 13.7536H12.3749C12.1217 13.7536 11.9165 13.5484 11.9165 13.2953C11.9165 13.0421 12.1217 12.8369 12.3749 12.8369H21.5415C21.7946 12.8369 21.9998 13.0421 21.9998 13.2953C21.9998 13.5484 21.7947 13.7536 21.5415 13.7536Z" fill="#4CAF50"/>
<path d="M21.5415 11.0036H12.3749C12.1217 11.0036 11.9165 10.7984 11.9165 10.5453C11.9165 10.2921 12.1217 10.0869 12.3749 10.0869H21.5415C21.7946 10.0869 21.9998 10.2921 21.9998 10.5453C21.9998 10.7984 21.7947 11.0036 21.5415 11.0036Z" fill="#4CAF50"/>
<path d="M21.5415 8.25361H12.3749C12.1217 8.25361 11.9165 8.04839 11.9165 7.79526C11.9165 7.54213 12.1217 7.33691 12.3749 7.33691H21.5415C21.7946 7.33691 21.9998 7.54213 21.9998 7.79526C21.9998 8.04839 21.7947 8.25361 21.5415 8.25361Z" fill="#4CAF50"/>
<path d="M21.5415 5.50361H12.3749C12.1217 5.50361 11.9165 5.29839 11.9165 5.04526C11.9165 4.79213 12.1217 4.58691 12.3749 4.58691H21.5415C21.7946 4.58691 21.9998 4.79213 21.9998 5.04526C21.9998 5.29843 21.7947 5.50361 21.5415 5.50361Z" fill="#4CAF50"/>
</svg>
