<svg width="15" height="16" viewBox="0 0 15 16" fill="none" xmlns="http://www.w3.org/2000/svg">
<path d="M9.71988 15.1373L9.72016 15.1378L9.72844 15.1316C9.89987 15.003 10.0107 14.8069 10.0107 14.5857V7.37352C10.0107 7.20525 10.0613 7.04753 10.1678 6.94106L10.1682 6.9415L10.1752 6.9327L13.9211 2.23643L13.9211 2.23645L13.9229 2.23407C14.1111 1.98313 14.1552 1.64604 14.0269 1.36809L14.0269 1.36807L14.0255 1.36527C13.8778 1.0699 13.6006 0.9 13.2652 0.9H1.74813C1.42926 0.9 1.13584 1.09022 0.989183 1.36258L0.989143 1.36256L0.987788 1.36527C0.839114 1.66262 0.882599 1.98429 1.09287 2.23722L4.81848 6.91286C4.92125 7.05024 4.98397 7.197 4.98397 7.35488V13.0575C4.98397 13.3176 5.13547 13.5627 5.38304 13.6538L9.10528 15.1986C9.19993 15.2448 9.29291 15.2448 9.34783 15.2447L9.35162 15.2447C9.48489 15.2447 9.61429 15.2007 9.71988 15.1373ZM1.54676 1.86945L1.54678 1.86943L1.54541 1.86778C1.47609 1.7846 1.46363 1.69405 1.50459 1.59847C1.54215 1.51083 1.63203 1.45408 1.74813 1.45408H13.2652C13.3717 1.45408 13.4518 1.50325 13.5109 1.60366C13.5492 1.69739 13.5369 1.78926 13.4824 1.87298L9.74013 6.56475C9.73999 6.56492 9.73986 6.56508 9.73973 6.56525C9.55723 6.78853 9.45662 7.07176 9.45662 7.37352V14.6043C9.45662 14.619 9.44446 14.6467 9.41872 14.675C9.39799 14.6863 9.37774 14.6872 9.34905 14.6781L5.62904 13.1343C5.60548 13.1221 5.59315 13.1099 5.58649 13.0999C5.57999 13.0901 5.57533 13.0773 5.57533 13.0575V7.37352C5.57533 7.09121 5.47522 6.78916 5.29222 6.56524L1.54676 1.86945Z" fill="#555962" stroke="#BDADAD" stroke-width="0.2"/>
</svg>
