<svg width="493" height="533" viewBox="0 0 493 533" fill="none" xmlns="http://www.w3.org/2000/svg">
<path d="M17.4258 26V8.86719H18.6211V24.875H26.7891V26H17.4258ZM40.2361 19.6133C40.2361 21.6914 39.7322 23.3164 38.7244 24.4883C37.7166 25.6523 36.3259 26.2344 34.5525 26.2344C33.4353 26.2344 32.4509 25.9648 31.5994 25.4258C30.7478 24.8867 30.0955 24.1133 29.6423 23.1055C29.1892 22.0977 28.9627 20.9336 28.9627 19.6133C28.9627 17.5352 29.4666 15.918 30.4744 14.7617C31.4822 13.5977 32.865 13.0156 34.6228 13.0156C36.3728 13.0156 37.7439 13.6055 38.7361 14.7852C39.7361 15.957 40.2361 17.5664 40.2361 19.6133ZM30.1814 19.6133C30.1814 21.3633 30.5642 22.7305 31.3298 23.7148C32.1033 24.6914 33.1931 25.1797 34.5994 25.1797C36.0056 25.1797 37.0916 24.6914 37.8572 23.7148C38.6306 22.7305 39.0173 21.3633 39.0173 19.6133C39.0173 17.8555 38.6267 16.4922 37.8455 15.5234C37.072 14.5547 35.9822 14.0703 34.5759 14.0703C33.1697 14.0703 32.0837 14.5547 31.3181 15.5234C30.5603 16.4844 30.1814 17.8477 30.1814 19.6133ZM54.5386 19.6133C54.5386 21.6914 54.0347 23.3164 53.0269 24.4883C52.0191 25.6523 50.6284 26.2344 48.855 26.2344C47.7378 26.2344 46.7534 25.9648 45.9019 25.4258C45.0503 24.8867 44.398 24.1133 43.9448 23.1055C43.4917 22.0977 43.2652 20.9336 43.2652 19.6133C43.2652 17.5352 43.7691 15.918 44.7769 14.7617C45.7847 13.5977 47.1675 13.0156 48.9253 13.0156C50.6753 13.0156 52.0464 13.6055 53.0386 14.7852C54.0386 15.957 54.5386 17.5664 54.5386 19.6133ZM44.4839 19.6133C44.4839 21.3633 44.8667 22.7305 45.6323 23.7148C46.4058 24.6914 47.4956 25.1797 48.9019 25.1797C50.3081 25.1797 51.3941 24.6914 52.1597 23.7148C52.9331 22.7305 53.3198 21.3633 53.3198 19.6133C53.3198 17.8555 52.9292 16.4922 52.148 15.5234C51.3745 14.5547 50.2847 14.0703 48.8784 14.0703C47.4722 14.0703 46.3862 14.5547 45.6206 15.5234C44.8628 16.4844 44.4839 17.8477 44.4839 19.6133ZM59.4427 20.4102L65.9466 13.2617H67.3528L62.3372 18.6992L67.7864 26H66.3919L61.552 19.5664L59.4661 21.4648V26H58.3059V7.76562H59.4661V16.9062L59.3841 20.4102H59.4427ZM71.3311 26H70.1709V13.2617H71.3311V26ZM70.0069 9.72266C70.0069 8.97266 70.253 8.59766 70.7452 8.59766C70.9873 8.59766 71.1748 8.69531 71.3077 8.89062C71.4483 9.08594 71.5186 9.36328 71.5186 9.72266C71.5186 10.0742 71.4483 10.3516 71.3077 10.5547C71.1748 10.7578 70.9873 10.8594 70.7452 10.8594C70.253 10.8594 70.0069 10.4805 70.0069 9.72266ZM84.7313 26V17.7383C84.7313 16.457 84.4617 15.5273 83.9227 14.9492C83.3836 14.3633 82.5477 14.0703 81.4148 14.0703C79.8914 14.0703 78.7742 14.457 78.0633 15.2305C77.3602 15.9961 77.0086 17.2422 77.0086 18.9688V26H75.8484V13.2617H76.8328L77.0555 15.0078H77.1258C77.9539 13.6797 79.4266 13.0156 81.5438 13.0156C84.4344 13.0156 85.8797 14.5664 85.8797 17.668V26H84.7313ZM100.182 13.2617V14.0703L97.5455 14.2344C98.2486 15.1094 98.6002 16.0703 98.6002 17.1172C98.6002 18.3438 98.19 19.3398 97.3697 20.1055C96.5572 20.8633 95.4634 21.2422 94.0884 21.2422C93.5103 21.2422 93.1041 21.2188 92.8697 21.1719C92.4088 21.4141 92.0572 21.6992 91.815 22.0273C91.5728 22.3555 91.4517 22.7031 91.4517 23.0703C91.4517 23.4766 91.6041 23.7734 91.9088 23.9609C92.2213 24.1484 92.7408 24.2422 93.4673 24.2422H95.6939C97.0767 24.2422 98.1353 24.5234 98.8697 25.0859C99.6041 25.6406 99.9713 26.4648 99.9713 27.5586C99.9713 28.9023 99.4244 29.9375 98.3306 30.6641C97.2447 31.3984 95.6939 31.7656 93.6783 31.7656C92.0767 31.7656 90.8345 31.457 89.9517 30.8398C89.0767 30.2227 88.6392 29.3633 88.6392 28.2617C88.6392 27.3867 88.9088 26.6602 89.4478 26.082C89.9947 25.5039 90.733 25.1094 91.6627 24.8984C91.2798 24.7344 90.9713 24.5039 90.7369 24.207C90.5103 23.9023 90.397 23.5547 90.397 23.1641C90.397 22.3125 90.94 21.5625 92.0259 20.9141C91.2838 20.6094 90.7056 20.1328 90.2916 19.4844C89.8775 18.8281 89.6705 18.0781 89.6705 17.2344C89.6705 15.9609 90.0728 14.9414 90.8775 14.1758C91.69 13.4023 92.7838 13.0156 94.1588 13.0156C94.9947 13.0156 95.6431 13.0977 96.1041 13.2617H100.182ZM89.8697 28.1562C89.8697 29.9062 91.1705 30.7812 93.772 30.7812C97.1158 30.7812 98.7877 29.7148 98.7877 27.582C98.7877 26.8164 98.5259 26.2617 98.0025 25.918C97.4791 25.5742 96.6314 25.4023 95.4595 25.4023H93.3736C91.0377 25.4023 89.8697 26.3203 89.8697 28.1562ZM90.8423 17.2344C90.8423 18.2188 91.1392 18.9844 91.733 19.5312C92.3345 20.0703 93.1353 20.3398 94.1353 20.3398C95.1978 20.3398 96.0103 20.0703 96.5728 19.5312C97.1431 18.9922 97.4283 18.2109 97.4283 17.1875C97.4283 16.1016 97.1353 15.2891 96.5494 14.75C95.9713 14.2031 95.1588 13.9297 94.1119 13.9297C93.0963 13.9297 92.2955 14.2227 91.7095 14.8086C91.1314 15.3867 90.8423 16.1953 90.8423 17.2344ZM117.256 26L116.963 23.9844H116.869C116.229 24.8047 115.568 25.3867 114.889 25.7305C114.217 26.0664 113.42 26.2344 112.498 26.2344C111.248 26.2344 110.275 25.9141 109.58 25.2734C108.885 24.6328 108.537 23.7461 108.537 22.6133C108.537 21.3711 109.053 20.4062 110.084 19.7188C111.123 19.0312 112.623 18.668 114.584 18.6289L117.01 18.5586V17.7148C117.01 16.5039 116.764 15.5898 116.272 14.9727C115.779 14.3555 114.986 14.0469 113.893 14.0469C112.713 14.0469 111.49 14.375 110.225 15.0312L109.791 14.0234C111.19 13.3672 112.572 13.0391 113.94 13.0391C115.338 13.0391 116.381 13.4023 117.068 14.1289C117.764 14.8555 118.111 15.9883 118.111 17.5273V26H117.256ZM112.568 25.1797C113.928 25.1797 114.998 24.793 115.779 24.0195C116.568 23.2383 116.963 22.1562 116.963 20.7734V19.5195L114.736 19.6133C112.947 19.6992 111.67 19.9805 110.904 20.457C110.147 20.9258 109.768 21.6602 109.768 22.6602C109.768 23.457 110.01 24.0781 110.494 24.5234C110.986 24.9609 111.678 25.1797 112.568 25.1797ZM123.648 26H122.488V7.76562H123.648V26ZM129.326 26H128.166V7.76562H129.326V26ZM148.216 22.6836C148.216 23.8242 147.782 24.7031 146.915 25.3203C146.048 25.9297 144.817 26.2344 143.224 26.2344C141.521 26.2344 140.169 25.9727 139.169 25.4492V24.1953C140.45 24.8359 141.802 25.1562 143.224 25.1562C144.482 25.1562 145.435 24.9492 146.083 24.5352C146.739 24.1133 147.067 23.5547 147.067 22.8594C147.067 22.2188 146.806 21.6797 146.282 21.2422C145.767 20.8047 144.915 20.375 143.728 19.9531C142.454 19.4922 141.56 19.0977 141.044 18.7695C140.528 18.4336 140.138 18.0586 139.872 17.6445C139.614 17.2227 139.485 16.7109 139.485 16.1094C139.485 15.1562 139.884 14.4023 140.681 13.8477C141.485 13.293 142.607 13.0156 144.044 13.0156C145.419 13.0156 146.724 13.2734 147.958 13.7891L147.525 14.8438C146.275 14.3281 145.114 14.0703 144.044 14.0703C143.005 14.0703 142.181 14.2422 141.571 14.5859C140.962 14.9297 140.657 15.4062 140.657 16.0156C140.657 16.6797 140.892 17.2109 141.36 17.6094C141.837 18.0078 142.763 18.4531 144.138 18.9453C145.286 19.3594 146.122 19.7344 146.646 20.0703C147.169 20.3984 147.56 20.7734 147.817 21.1953C148.083 21.6172 148.216 22.1133 148.216 22.6836ZM155.1 25.2031C155.835 25.2031 156.475 25.1406 157.022 25.0156V25.9531C156.46 26.1406 155.811 26.2344 155.077 26.2344C153.952 26.2344 153.12 25.9336 152.581 25.332C152.05 24.7305 151.784 23.7852 151.784 22.4961V14.2695H149.897V13.5898L151.784 13.0625L152.37 10.1797H152.968V13.2617H156.706V14.2695H152.968V22.332C152.968 23.3086 153.14 24.0312 153.483 24.5C153.827 24.9688 154.366 25.2031 155.1 25.2031ZM161.024 13.2617V21.5117C161.024 22.793 161.294 23.7266 161.833 24.3125C162.372 24.8906 163.208 25.1797 164.34 25.1797C165.856 25.1797 166.969 24.7969 167.68 24.0312C168.399 23.2656 168.758 22.0195 168.758 20.293V13.2617H169.907V26H168.923L168.712 24.2422H168.641C167.813 25.5703 166.34 26.2344 164.223 26.2344C161.325 26.2344 159.876 24.6836 159.876 21.582V13.2617H161.024ZM179.077 13.0156C179.998 13.0156 180.795 13.1836 181.467 13.5195C182.139 13.8555 182.741 14.4297 183.272 15.2422H183.342C183.295 14.2578 183.272 13.293 183.272 12.3477V7.76562H184.42V26H183.659L183.366 24.0547H183.272C182.303 25.5078 180.913 26.2344 179.1 26.2344C177.342 26.2344 175.998 25.6875 175.069 24.5938C174.139 23.5 173.674 21.9062 173.674 19.8125C173.674 17.6094 174.135 15.9258 175.057 14.7617C175.979 13.5977 177.319 13.0156 179.077 13.0156ZM179.077 14.0703C177.686 14.0703 176.639 14.5586 175.936 15.5352C175.241 16.5117 174.893 17.9297 174.893 19.7891C174.893 23.3984 176.295 25.2031 179.1 25.2031C180.538 25.2031 181.592 24.7852 182.264 23.9492C182.936 23.1133 183.272 21.7344 183.272 19.8125V19.6133C183.272 17.6445 182.94 16.2305 182.276 15.3711C181.62 14.5039 180.553 14.0703 179.077 14.0703ZM194.094 26.2344C192.242 26.2344 190.797 25.6641 189.758 24.5234C188.727 23.3828 188.211 21.7852 188.211 19.7305C188.211 17.6992 188.711 16.0742 189.711 14.8555C190.711 13.6289 192.059 13.0156 193.754 13.0156C195.254 13.0156 196.438 13.5391 197.305 14.5859C198.172 15.6328 198.606 17.0547 198.606 18.8516V19.7891H189.43C189.445 21.5391 189.852 22.875 190.649 23.7969C191.453 24.7188 192.602 25.1797 194.094 25.1797C194.82 25.1797 195.457 25.1289 196.004 25.0273C196.559 24.9258 197.258 24.707 198.102 24.3711V25.4258C197.383 25.7383 196.719 25.9492 196.11 26.0586C195.5 26.1758 194.828 26.2344 194.094 26.2344ZM193.754 14.0469C192.527 14.0469 191.543 14.4531 190.801 15.2656C190.059 16.0703 189.625 17.2344 189.5 18.7578H197.375C197.375 17.2812 197.055 16.1289 196.414 15.3008C195.774 14.4648 194.887 14.0469 193.754 14.0469ZM211.244 26V17.7383C211.244 16.457 210.975 15.5273 210.435 14.9492C209.896 14.3633 209.06 14.0703 207.928 14.0703C206.404 14.0703 205.287 14.457 204.576 15.2305C203.873 15.9961 203.521 17.2422 203.521 18.9688V26H202.361V13.2617H203.346L203.568 15.0078H203.639C204.467 13.6797 205.939 13.0156 208.057 13.0156C210.947 13.0156 212.393 14.5664 212.393 17.668V26H211.244ZM220.121 25.2031C220.855 25.2031 221.496 25.1406 222.043 25.0156V25.9531C221.48 26.1406 220.832 26.2344 220.097 26.2344C218.972 26.2344 218.14 25.9336 217.601 25.332C217.07 24.7305 216.804 23.7852 216.804 22.4961V14.2695H214.918V13.5898L216.804 13.0625L217.39 10.1797H217.988V13.2617H221.726V14.2695H217.988V22.332C217.988 23.3086 218.16 24.0312 218.504 24.5C218.847 24.9688 219.386 25.2031 220.121 25.2031ZM244.812 17.2695C244.812 20.1445 244.058 22.3203 242.55 23.7969C241.042 25.2656 238.827 26 235.905 26H231.804V8.86719H236.433C239.167 8.86719 241.245 9.58203 242.667 11.0117C244.097 12.4414 244.812 14.5273 244.812 17.2695ZM243.511 17.3164C243.511 14.8633 242.886 13.0195 241.636 11.7852C240.394 10.543 238.566 9.92188 236.152 9.92188H232.999V24.9453H235.835C240.952 24.9453 243.511 22.4023 243.511 17.3164ZM253.841 26.2344C251.989 26.2344 250.544 25.6641 249.505 24.5234C248.474 23.3828 247.958 21.7852 247.958 19.7305C247.958 17.6992 248.458 16.0742 249.458 14.8555C250.458 13.6289 251.806 13.0156 253.501 13.0156C255.001 13.0156 256.185 13.5391 257.052 14.5859C257.919 15.6328 258.352 17.0547 258.352 18.8516V19.7891H249.177C249.192 21.5391 249.599 22.875 250.395 23.7969C251.2 24.7188 252.349 25.1797 253.841 25.1797C254.567 25.1797 255.204 25.1289 255.751 25.0273C256.306 24.9258 257.005 24.707 257.849 24.3711V25.4258C257.13 25.7383 256.466 25.9492 255.856 26.0586C255.247 26.1758 254.575 26.2344 253.841 26.2344ZM253.501 14.0469C252.274 14.0469 251.29 14.4531 250.548 15.2656C249.806 16.0703 249.372 17.2344 249.247 18.7578H257.122C257.122 17.2812 256.802 16.1289 256.161 15.3008C255.52 14.4648 254.634 14.0469 253.501 14.0469ZM265.471 25.2031C266.206 25.2031 266.846 25.1406 267.393 25.0156V25.9531C266.831 26.1406 266.182 26.2344 265.448 26.2344C264.323 26.2344 263.491 25.9336 262.952 25.332C262.421 24.7305 262.155 23.7852 262.155 22.4961V14.2695H260.268V13.5898L262.155 13.0625L262.741 10.1797H263.339V13.2617H267.077V14.2695H263.339V22.332C263.339 23.3086 263.51 24.0312 263.854 24.5C264.198 24.9688 264.737 25.2031 265.471 25.2031ZM278.122 26L277.829 23.9844H277.735C277.094 24.8047 276.434 25.3867 275.754 25.7305C275.083 26.0664 274.286 26.2344 273.364 26.2344C272.114 26.2344 271.141 25.9141 270.446 25.2734C269.75 24.6328 269.403 23.7461 269.403 22.6133C269.403 21.3711 269.918 20.4062 270.95 19.7188C271.989 19.0312 273.489 18.668 275.45 18.6289L277.875 18.5586V17.7148C277.875 16.5039 277.629 15.5898 277.137 14.9727C276.645 14.3555 275.852 14.0469 274.758 14.0469C273.579 14.0469 272.356 14.375 271.09 15.0312L270.657 14.0234C272.055 13.3672 273.438 13.0391 274.805 13.0391C276.204 13.0391 277.247 13.4023 277.934 14.1289C278.629 14.8555 278.977 15.9883 278.977 17.5273V26H278.122ZM273.434 25.1797C274.793 25.1797 275.864 24.793 276.645 24.0195C277.434 23.2383 277.829 22.1562 277.829 20.7734V19.5195L275.602 19.6133C273.813 19.6992 272.536 19.9805 271.77 20.457C271.012 20.9258 270.633 21.6602 270.633 22.6602C270.633 23.457 270.875 24.0781 271.36 24.5234C271.852 24.9609 272.543 25.1797 273.434 25.1797ZM284.514 26H283.354V13.2617H284.514V26ZM283.19 9.72266C283.19 8.97266 283.436 8.59766 283.928 8.59766C284.17 8.59766 284.358 8.69531 284.49 8.89062C284.631 9.08594 284.701 9.36328 284.701 9.72266C284.701 10.0742 284.631 10.3516 284.49 10.5547C284.358 10.7578 284.17 10.8594 283.928 10.8594C283.436 10.8594 283.19 10.4805 283.19 9.72266ZM290.191 26H289.031V7.76562H290.191V26ZM302.607 22.6836C302.607 23.8242 302.174 24.7031 301.306 25.3203C300.439 25.9297 299.209 26.2344 297.615 26.2344C295.912 26.2344 294.56 25.9727 293.56 25.4492V24.1953C294.842 24.8359 296.193 25.1562 297.615 25.1562C298.873 25.1562 299.826 24.9492 300.474 24.5352C301.131 24.1133 301.459 23.5547 301.459 22.8594C301.459 22.2188 301.197 21.6797 300.674 21.2422C300.158 20.8047 299.306 20.375 298.119 19.9531C296.845 19.4922 295.951 19.0977 295.435 18.7695C294.92 18.4336 294.529 18.0586 294.263 17.6445C294.006 17.2227 293.877 16.7109 293.877 16.1094C293.877 15.1562 294.275 14.4023 295.072 13.8477C295.877 13.293 296.998 13.0156 298.435 13.0156C299.81 13.0156 301.115 13.2734 302.349 13.7891L301.916 14.8438C300.666 14.3281 299.506 14.0703 298.435 14.0703C297.396 14.0703 296.572 14.2422 295.963 14.5859C295.353 14.9297 295.049 15.4062 295.049 16.0156C295.049 16.6797 295.283 17.2109 295.752 17.6094C296.228 18.0078 297.154 18.4531 298.529 18.9453C299.677 19.3594 300.513 19.7344 301.037 20.0703C301.56 20.3984 301.951 20.7734 302.209 21.1953C302.474 21.6172 302.607 22.1133 302.607 22.6836ZM317.689 26.2344C315.868 26.2344 314.443 25.6602 313.411 24.5117C312.38 23.3633 311.865 21.7617 311.865 19.707C311.865 17.5977 312.4 15.957 313.47 14.7852C314.54 13.6055 316.005 13.0156 317.865 13.0156C318.966 13.0156 320.021 13.207 321.029 13.5898L320.712 14.6211C319.611 14.2539 318.654 14.0703 317.841 14.0703C316.279 14.0703 315.095 14.5547 314.29 15.5234C313.486 16.4844 313.083 17.8711 313.083 19.6836C313.083 21.4023 313.486 22.75 314.29 23.7266C315.095 24.6953 316.22 25.1797 317.665 25.1797C318.822 25.1797 319.896 24.9727 320.888 24.5586V25.6367C320.075 26.0352 319.009 26.2344 317.689 26.2344ZM325.417 26H324.257V7.76562H325.417V26ZM331.095 26H329.934V13.2617H331.095V26ZM329.77 9.72266C329.77 8.97266 330.016 8.59766 330.509 8.59766C330.751 8.59766 330.938 8.69531 331.071 8.89062C331.212 9.08594 331.282 9.36328 331.282 9.72266C331.282 10.0742 331.212 10.3516 331.071 10.5547C330.938 10.7578 330.751 10.8594 330.509 10.8594C330.016 10.8594 329.77 10.4805 329.77 9.72266ZM340.698 26.2344C338.878 26.2344 337.452 25.6602 336.42 24.5117C335.389 23.3633 334.874 21.7617 334.874 19.707C334.874 17.5977 335.409 15.957 336.479 14.7852C337.549 13.6055 339.014 13.0156 340.874 13.0156C341.975 13.0156 343.03 13.207 344.038 13.5898L343.721 14.6211C342.62 14.2539 341.663 14.0703 340.85 14.0703C339.288 14.0703 338.104 14.5547 337.299 15.5234C336.495 16.4844 336.092 17.8711 336.092 19.6836C336.092 21.4023 336.495 22.75 337.299 23.7266C338.104 24.6953 339.229 25.1797 340.674 25.1797C341.831 25.1797 342.905 24.9727 343.897 24.5586V25.6367C343.085 26.0352 342.018 26.2344 340.698 26.2344ZM348.403 20.4102L354.907 13.2617H356.313L351.297 18.6992L356.746 26H355.352L350.512 19.5664L348.426 21.4648V26H347.266V7.76562H348.426V16.9062L348.344 20.4102H348.403ZM376.14 19.6133C376.14 21.6914 375.637 23.3164 374.629 24.4883C373.621 25.6523 372.23 26.2344 370.457 26.2344C369.34 26.2344 368.355 25.9648 367.504 25.4258C366.652 24.8867 366 24.1133 365.547 23.1055C365.094 22.0977 364.867 20.9336 364.867 19.6133C364.867 17.5352 365.371 15.918 366.379 14.7617C367.387 13.5977 368.769 13.0156 370.527 13.0156C372.277 13.0156 373.648 13.6055 374.64 14.7852C375.64 15.957 376.14 17.5664 376.14 19.6133ZM366.086 19.6133C366.086 21.3633 366.469 22.7305 367.234 23.7148C368.008 24.6914 369.098 25.1797 370.504 25.1797C371.91 25.1797 372.996 24.6914 373.762 23.7148C374.535 22.7305 374.922 21.3633 374.922 19.6133C374.922 17.8555 374.531 16.4922 373.75 15.5234C372.976 14.5547 371.887 14.0703 370.48 14.0703C369.074 14.0703 367.988 14.5547 367.223 15.5234C366.465 16.4844 366.086 17.8477 366.086 19.6133ZM388.791 26V17.7383C388.791 16.457 388.521 15.5273 387.982 14.9492C387.443 14.3633 386.607 14.0703 385.474 14.0703C383.951 14.0703 382.834 14.457 382.123 15.2305C381.42 15.9961 381.068 17.2422 381.068 18.9688V26H379.908V13.2617H380.892L381.115 15.0078H381.185C382.013 13.6797 383.486 13.0156 385.603 13.0156C388.494 13.0156 389.939 14.5664 389.939 17.668V26H388.791ZM408.677 22.6836C408.677 23.8242 408.243 24.7031 407.376 25.3203C406.509 25.9297 405.278 26.2344 403.685 26.2344C401.982 26.2344 400.63 25.9727 399.63 25.4492V24.1953C400.911 24.8359 402.263 25.1562 403.685 25.1562C404.943 25.1562 405.896 24.9492 406.544 24.5352C407.2 24.1133 407.528 23.5547 407.528 22.8594C407.528 22.2188 407.267 21.6797 406.743 21.2422C406.228 20.8047 405.376 20.375 404.189 19.9531C402.915 19.4922 402.021 19.0977 401.505 18.7695C400.989 18.4336 400.599 18.0586 400.333 17.6445C400.075 17.2227 399.946 16.7109 399.946 16.1094C399.946 15.1562 400.345 14.4023 401.142 13.8477C401.946 13.293 403.068 13.0156 404.505 13.0156C405.88 13.0156 407.185 13.2734 408.419 13.7891L407.985 14.8438C406.735 14.3281 405.575 14.0703 404.505 14.0703C403.466 14.0703 402.642 14.2422 402.032 14.5859C401.423 14.9297 401.118 15.4062 401.118 16.0156C401.118 16.6797 401.353 17.2109 401.821 17.6094C402.298 18.0078 403.224 18.4531 404.599 18.9453C405.747 19.3594 406.583 19.7344 407.107 20.0703C407.63 20.3984 408.021 20.7734 408.278 21.1953C408.544 21.6172 408.677 22.1133 408.677 22.6836ZM417.343 26.2344C415.491 26.2344 414.046 25.6641 413.007 24.5234C411.975 23.3828 411.46 21.7852 411.46 19.7305C411.46 17.6992 411.96 16.0742 412.96 14.8555C413.96 13.6289 415.307 13.0156 417.003 13.0156C418.503 13.0156 419.686 13.5391 420.554 14.5859C421.421 15.6328 421.854 17.0547 421.854 18.8516V19.7891H412.679C412.694 21.5391 413.1 22.875 413.897 23.7969C414.702 24.7188 415.85 25.1797 417.343 25.1797C418.069 25.1797 418.706 25.1289 419.253 25.0273C419.807 24.9258 420.507 24.707 421.35 24.3711V25.4258C420.632 25.7383 419.968 25.9492 419.358 26.0586C418.749 26.1758 418.077 26.2344 417.343 26.2344ZM417.003 14.0469C415.776 14.0469 414.792 14.4531 414.05 15.2656C413.307 16.0703 412.874 17.2344 412.749 18.7578H420.624C420.624 17.2812 420.304 16.1289 419.663 15.3008C419.022 14.4648 418.136 14.0469 417.003 14.0469ZM433.344 26L433.051 23.9844H432.958C432.317 24.8047 431.657 25.3867 430.977 25.7305C430.305 26.0664 429.508 26.2344 428.587 26.2344C427.337 26.2344 426.364 25.9141 425.669 25.2734C424.973 24.6328 424.626 23.7461 424.626 22.6133C424.626 21.3711 425.141 20.4062 426.172 19.7188C427.212 19.0312 428.712 18.668 430.672 18.6289L433.098 18.5586V17.7148C433.098 16.5039 432.852 15.5898 432.36 14.9727C431.868 14.3555 431.075 14.0469 429.981 14.0469C428.801 14.0469 427.579 14.375 426.313 15.0312L425.88 14.0234C427.278 13.3672 428.661 13.0391 430.028 13.0391C431.426 13.0391 432.469 13.4023 433.157 14.1289C433.852 14.8555 434.2 15.9883 434.2 17.5273V26H433.344ZM428.657 25.1797C430.016 25.1797 431.087 24.793 431.868 24.0195C432.657 23.2383 433.051 22.1562 433.051 20.7734V19.5195L430.825 19.6133C429.036 19.6992 427.758 19.9805 426.993 20.457C426.235 20.9258 425.856 21.6602 425.856 22.6602C425.856 23.457 426.098 24.0781 426.583 24.5234C427.075 24.9609 427.766 25.1797 428.657 25.1797ZM443.592 13.0156C444.131 13.0156 444.709 13.0703 445.327 13.1797L445.104 14.293C444.573 14.1602 444.022 14.0938 443.452 14.0938C442.366 14.0938 441.475 14.5547 440.78 15.4766C440.084 16.3984 439.737 17.5625 439.737 18.9688V26H438.577V13.2617H439.561L439.678 15.5586H439.76C440.284 14.6211 440.842 13.9648 441.436 13.5898C442.03 13.207 442.748 13.0156 443.592 13.0156ZM453.254 26.2344C451.434 26.2344 450.008 25.6602 448.977 24.5117C447.945 23.3633 447.43 21.7617 447.43 19.707C447.43 17.5977 447.965 15.957 449.035 14.7852C450.106 13.6055 451.57 13.0156 453.43 13.0156C454.531 13.0156 455.586 13.207 456.594 13.5898L456.277 14.6211C455.176 14.2539 454.219 14.0703 453.406 14.0703C451.844 14.0703 450.66 14.5547 449.856 15.5234C449.051 16.4844 448.649 17.8711 448.649 19.6836C448.649 21.4023 449.051 22.75 449.856 23.7266C450.66 24.6953 451.785 25.1797 453.231 25.1797C454.387 25.1797 455.461 24.9727 456.453 24.5586V25.6367C455.641 26.0352 454.574 26.2344 453.254 26.2344ZM468.705 26V17.7383C468.705 16.457 468.435 15.5273 467.896 14.9492C467.357 14.3633 466.521 14.0703 465.389 14.0703C463.865 14.0703 462.748 14.457 462.037 15.2305C461.334 15.9961 460.982 17.2422 460.982 18.9688V26H459.822V7.76562H460.982V13.5664L460.924 15.1953H461.006C461.482 14.4297 462.084 13.875 462.81 13.5312C463.537 13.1875 464.439 13.0156 465.517 13.0156C468.408 13.0156 469.853 14.5664 469.853 17.668V26H468.705ZM473.984 25.0859C473.984 24.3203 474.297 23.9375 474.922 23.9375C475.562 23.9375 475.883 24.3203 475.883 25.0859C475.883 25.8516 475.562 26.2344 474.922 26.2344C474.297 26.2344 473.984 25.8516 473.984 25.0859Z" fill="#334D6E"/>
<path d="M493 424.5C493 390.42 467.03 357.735 420.802 333.637C374.574 309.538 311.876 296 246.5 296C181.124 296 118.426 309.538 72.1982 333.637C25.9705 357.735 9.87148e-06 390.42 0 424.5L246.5 424.5H493Z" fill="url(#paint0_linear)"/>
<path fill-rule="evenodd" clip-rule="evenodd" d="M226.309 329.646H227.205C233.426 322.831 238.3 314.563 241.398 305.386C246.412 290.532 246.201 274.943 240.803 261.491C238.074 254.694 234.135 248.357 230.325 242.229C226.461 236.017 222.467 229.591 219.755 222.704C218.634 219.859 217.806 216.8 217.308 213.681C217.083 213.652 216.858 213.629 216.634 213.603C217.134 216.831 217.986 219.997 219.146 222.944C221.878 229.884 225.889 236.336 229.769 242.574C233.564 248.678 237.488 254.989 240.194 261.734C245.535 275.042 245.742 290.472 240.777 305.18C237.641 314.469 232.665 322.815 226.309 329.646Z" fill="white"/>
<path fill-rule="evenodd" clip-rule="evenodd" d="M244.395 126.628C246.531 129.739 245.732 133.987 242.61 136.115C239.488 138.244 235.226 137.448 233.089 134.337C230.953 131.227 231.752 126.979 234.874 124.85C237.996 122.722 242.258 123.518 244.395 126.628Z" fill="#D3DFFF"/>
<path fill-rule="evenodd" clip-rule="evenodd" d="M248.746 144.559C248.354 146.643 246.329 148.014 244.223 147.62C242.117 147.227 240.727 145.219 241.119 143.135C241.511 141.051 243.536 139.681 245.642 140.074C247.749 140.468 249.138 142.476 248.746 144.559Z" fill="#D3DFFF"/>
<path fill-rule="evenodd" clip-rule="evenodd" d="M248.348 101.07C245.604 115.657 231.511 125.266 216.871 122.532C202.23 119.798 192.587 105.756 195.331 91.1683C198.075 76.5808 212.167 66.9718 226.808 69.706C241.448 72.4402 251.092 86.482 248.348 101.07Z" fill="#D3DFFF"/>
<path fill-rule="evenodd" clip-rule="evenodd" d="M214.881 96.1184C214.881 97.9882 213.36 99.5041 211.483 99.5041C209.607 99.5041 208.085 97.9882 208.085 96.1184C208.085 94.2483 209.607 92.7324 211.483 92.7324C213.36 92.7324 214.881 94.2483 214.881 96.1184Z" fill="white"/>
<path fill-rule="evenodd" clip-rule="evenodd" d="M225.237 96.1184C225.237 97.9882 223.716 99.5041 221.839 99.5041C219.962 99.5041 218.441 97.9882 218.441 96.1184C218.441 94.2483 219.962 92.7324 221.839 92.7324C223.716 92.7324 225.237 94.2483 225.237 96.1184Z" fill="white"/>
<path fill-rule="evenodd" clip-rule="evenodd" d="M235.593 96.1184C235.593 97.9882 234.072 99.5041 232.195 99.5041C230.318 99.5041 228.797 97.9882 228.797 96.1184C228.797 94.2483 230.318 92.7324 232.195 92.7324C234.072 92.7324 235.593 94.2483 235.593 96.1184Z" fill="white"/>
<path fill-rule="evenodd" clip-rule="evenodd" d="M202.519 316.068L205.039 325.749C205.696 328.272 208.146 329.979 210.855 329.794C219.118 329.235 236.285 327.218 246.138 319.983L243.337 306.033C229.79 305.268 217.121 306.02 206.15 309.7C203.404 310.621 201.815 313.364 202.519 316.068Z" fill="#102048"/>
<path fill-rule="evenodd" clip-rule="evenodd" d="M218.308 323.772C218.165 323.772 218.033 323.678 217.993 323.535L214.609 311.463C214.561 311.288 214.663 311.108 214.837 311.061C215.012 311.012 215.192 311.114 215.24 311.288L218.624 323.36C218.672 323.532 218.571 323.712 218.396 323.762C218.367 323.769 218.337 323.772 218.308 323.772Z" fill="white"/>
<path fill-rule="evenodd" clip-rule="evenodd" d="M225.621 322.141C225.477 322.141 225.346 322.047 225.305 321.904L221.922 309.832C221.873 309.658 221.975 309.478 222.149 309.431C222.325 309.381 222.504 309.483 222.553 309.658L225.936 321.729C225.985 321.901 225.883 322.081 225.709 322.131C225.679 322.139 225.65 322.141 225.621 322.141Z" fill="white"/>
<path fill-rule="evenodd" clip-rule="evenodd" d="M202.627 273.055L226.01 304.977L259.581 307.637L305.884 288.13L288.289 261.748L234.113 263.742L202.627 273.055Z" fill="#85A5F8"/>
<path fill-rule="evenodd" clip-rule="evenodd" d="M272.932 268.178C342.078 247.783 353.193 308.674 245.304 319.759C241.493 315.486 237.04 308.071 235.271 301.875L292.245 275.642L272.932 268.178Z" fill="#9DB4F0"/>
<path fill-rule="evenodd" clip-rule="evenodd" d="M275.869 311.816C272.635 310.785 269.536 308.747 269.536 308.747L258.423 312.221L260.97 324.266L272.514 326.602C276.031 320.195 276.236 314.93 275.869 311.816Z" fill="#F9B384"/>
<path fill-rule="evenodd" clip-rule="evenodd" d="M234.114 263.743C169.752 251.552 153.082 313.181 260.97 324.266C264.781 319.994 267.768 314.943 269.536 308.747C252.964 297.699 234.434 287.196 214.126 277.192L234.114 263.743Z" fill="#9DB4F0"/>
<path fill-rule="evenodd" clip-rule="evenodd" d="M307.968 308.23C299.722 303.154 283.736 311.926 279.723 312.367C278.553 312.498 277.199 312.242 275.869 311.817C276.236 314.93 276.031 320.195 272.514 326.602L274.475 326.999C274.475 326.999 288.031 331.953 302.412 329.069C315.685 326.409 314.451 312.221 307.968 308.23Z" fill="#102048"/>
<path fill-rule="evenodd" clip-rule="evenodd" d="M296.728 324.835C296.695 324.835 296.662 324.83 296.629 324.819C296.457 324.764 296.361 324.582 296.416 324.409C297.395 321.319 297.823 315.238 294.985 311.153C294.882 311.005 294.919 310.804 295.068 310.699C295.216 310.597 295.421 310.634 295.524 310.783C298.495 315.058 298.059 321.392 297.04 324.605C296.996 324.744 296.867 324.835 296.728 324.835Z" fill="white"/>
<path fill-rule="evenodd" clip-rule="evenodd" d="M290.261 326.056C290.228 326.056 290.195 326.051 290.162 326.04C289.99 325.988 289.894 325.803 289.949 325.633C290.928 322.54 291.356 316.462 288.519 312.377C288.416 312.228 288.452 312.025 288.601 311.923C288.75 311.821 288.954 311.858 289.057 312.006C292.028 316.281 291.592 322.616 290.573 325.829C290.529 325.967 290.4 326.056 290.261 326.056Z" fill="white"/>
<path fill-rule="evenodd" clip-rule="evenodd" d="M222.727 184.279C222.727 184.279 238.936 170.545 238.336 167.935C237.907 166.069 233.316 168.804 233.316 168.804C233.316 168.804 239.755 161.193 239.427 160.267C238.842 158.617 234.389 161.694 234.389 161.694C234.389 161.694 237.399 157.377 235.96 156.675C234.521 155.971 231.383 158.633 231.383 158.633C231.383 158.633 233.216 156.234 232.355 155.605C231.493 154.976 227.778 157.563 227.778 157.563C227.778 157.563 229.112 154.54 226.279 155.686C223.447 156.832 203.586 174.992 203.586 174.992L222.727 184.279Z" fill="#F9B384"/>
<path fill-rule="evenodd" clip-rule="evenodd" d="M229.359 167.989C229.28 167.989 229.201 167.961 229.138 167.903C226.356 165.371 225.129 164.756 222.059 163.813C221.886 163.761 221.79 163.578 221.843 163.406C221.896 163.234 222.079 163.137 222.252 163.192C225.432 164.166 226.703 164.802 229.58 167.42C229.714 167.543 229.723 167.749 229.601 167.882C229.536 167.953 229.448 167.989 229.359 167.989Z" fill="#E28B6D"/>
<path fill-rule="evenodd" clip-rule="evenodd" d="M224.43 175.436C224.25 175.41 224.126 175.246 224.151 175.068C224.469 172.798 225.187 171.378 226.344 170.728C227.334 170.174 228.621 170.232 230.171 170.897C230.337 170.971 230.414 171.161 230.342 171.325C230.27 171.493 230.077 171.568 229.911 171.498C228.559 170.916 227.467 170.848 226.665 171.297C225.711 171.832 225.083 173.132 224.799 175.157C224.776 175.321 224.636 175.439 224.475 175.439L224.43 175.436Z" fill="#E28B6D"/>
<path fill-rule="evenodd" clip-rule="evenodd" d="M223.711 161.71C223.624 161.71 223.537 161.673 223.473 161.605C223.349 161.475 223.355 161.269 223.487 161.146L227.554 157.325C227.685 157.202 227.892 157.207 228.017 157.338C228.141 157.471 228.135 157.677 228.003 157.8L223.935 161.618C223.872 161.678 223.792 161.71 223.711 161.71Z" fill="#E28B6D"/>
<path fill-rule="evenodd" clip-rule="evenodd" d="M227.476 163.015C227.395 163.015 227.313 162.984 227.25 162.924C227.119 162.799 227.115 162.592 227.24 162.462L231.147 158.406C231.272 158.275 231.479 158.27 231.61 158.395C231.741 158.521 231.745 158.727 231.62 158.857L227.713 162.913C227.648 162.981 227.562 163.015 227.476 163.015Z" fill="#E28B6D"/>
<path fill-rule="evenodd" clip-rule="evenodd" d="M231.324 165.298C231.244 165.298 231.164 165.267 231.101 165.21C230.968 165.087 230.961 164.881 231.084 164.748L234.15 161.472C234.273 161.342 234.48 161.334 234.612 161.456C234.745 161.579 234.752 161.785 234.629 161.916L231.563 165.194C231.499 165.262 231.411 165.298 231.324 165.298Z" fill="#E28B6D"/>
<path fill-rule="evenodd" clip-rule="evenodd" d="M283.958 276.14L224.693 278.424L218.145 224.592C218.145 224.592 237.985 205.839 245.618 198.936L258.504 198.278C298.485 216.384 291.939 239 283.958 276.14Z" fill="#3A6BEA"/>
<path fill-rule="evenodd" clip-rule="evenodd" d="M318.666 233.401C332.775 263.954 274.79 274.835 274.79 274.835L258.504 198.278C258.504 198.278 304.246 202.175 318.666 233.401Z" fill="#3A6BEA"/>
<path fill-rule="evenodd" clip-rule="evenodd" d="M206.22 204.968L225.122 182.05L207.446 171.375C200.073 176.485 185.815 188.056 173.732 201.158C171.064 204.05 168.981 207.427 167.932 211.146C167.037 214.32 166.874 217.455 167.377 220.524C168.689 228.526 175.005 234.701 183.437 235.685C190.638 236.526 218.145 234.38 240.41 227.855L246.958 202.672C243.593 200.769 218.584 200.437 206.22 204.968Z" fill="#3A6BEA"/>
<path fill-rule="evenodd" clip-rule="evenodd" d="M262.691 186.309L262.55 200.124L262.533 201.53C262.508 203.731 261.603 205.725 260.142 207.173C258.689 208.611 256.688 209.514 254.471 209.53C250.005 209.554 246.352 205.98 246.31 201.523L246.153 185.481L262.691 186.309Z" fill="#F9B384"/>
<path fill-rule="evenodd" clip-rule="evenodd" d="M262.682 187.145L262.55 200.124C255.31 197.188 252.329 189.379 252.329 189.379L262.682 187.145Z" fill="#102048"/>
<path fill-rule="evenodd" clip-rule="evenodd" d="M265.547 164.494C268.141 167.598 275.717 185.176 268.038 191.174C259.396 197.923 246.244 186.831 246.244 186.831L244.479 166.355L255.895 163.356L265.547 164.494Z" fill="#F9B384"/>
<path fill-rule="evenodd" clip-rule="evenodd" d="M247.904 169.595C247.904 173.366 244.837 176.42 241.054 176.42C237.272 176.42 234.205 173.366 234.205 169.595C234.205 165.826 237.272 162.772 241.054 162.772C244.837 162.772 247.904 165.826 247.904 169.595Z" fill="#FBC343"/>
<path fill-rule="evenodd" clip-rule="evenodd" d="M249.481 177.795C248.741 173.538 248.29 170.618 252.609 168.423C252.609 168.423 267.83 171.181 270.736 165.46C273.642 159.736 269.214 150.707 259.943 156.98C236.212 152.361 233.029 174.491 240.225 181.867L247.326 180.781C248.755 180.562 249.728 179.215 249.481 177.795Z" fill="#102048"/>
<path fill-rule="evenodd" clip-rule="evenodd" d="M262.278 177.809C262.278 178.365 261.825 178.817 261.266 178.817C260.707 178.817 260.254 178.365 260.254 177.809C260.254 177.253 260.707 176.802 261.266 176.802C261.825 176.802 262.278 177.253 262.278 177.809Z" fill="#102048"/>
<path fill-rule="evenodd" clip-rule="evenodd" d="M269.127 174.447C269.127 175.005 268.674 175.457 268.115 175.457C267.557 175.457 267.104 175.005 267.104 174.447C267.104 173.891 267.557 173.439 268.115 173.439C268.674 173.439 269.127 173.891 269.127 174.447Z" fill="#102048"/>
<path fill-rule="evenodd" clip-rule="evenodd" d="M267.415 180.912C267.344 180.912 267.273 180.886 267.218 180.834C267.103 180.724 267.098 180.544 267.207 180.429C267.613 180.004 268.058 179.406 267.871 178.973C267.677 178.521 266.857 178.328 266.481 178.328C265.674 178.328 265.286 176.895 265.217 176.608C265.18 176.457 265.274 176.303 265.428 176.264C265.581 176.227 265.736 176.321 265.773 176.475C265.921 177.081 266.255 177.757 266.481 177.757C266.867 177.757 268.049 177.937 268.397 178.746C268.646 179.325 268.386 180.022 267.623 180.823C267.566 180.883 267.491 180.912 267.415 180.912Z" fill="#102048"/>
<path fill-rule="evenodd" clip-rule="evenodd" d="M267.467 184.738C267.412 184.738 267.356 184.722 267.307 184.688C265.401 183.407 263.478 184.482 263.458 184.493C263.322 184.571 263.146 184.524 263.067 184.388C262.988 184.25 263.036 184.078 263.173 183.997C263.264 183.944 265.429 182.736 267.627 184.216C267.758 184.305 267.793 184.482 267.704 184.613C267.649 184.694 267.559 184.738 267.467 184.738Z" fill="#102048"/>
<path fill-rule="evenodd" clip-rule="evenodd" d="M260.823 173.441C261.398 174.519 260.395 174.739 259.22 175.36C258.045 175.981 256.841 176.211 256.567 175.694C256.292 175.18 257.022 174.258 258.198 173.635C259.373 173.013 260.377 172.606 260.823 173.441Z" fill="#102048"/>
<path fill-rule="evenodd" clip-rule="evenodd" d="M265.109 171.493C265.362 172.456 266.083 172.036 267.132 171.762C268.182 171.488 269.029 170.963 268.908 170.504C268.787 170.044 267.839 169.893 266.79 170.167C265.741 170.441 264.913 170.746 265.109 171.493Z" fill="#102048"/>
<path fill-rule="evenodd" clip-rule="evenodd" d="M256.596 185.488C254.948 185.488 253.612 184.156 253.612 182.515C253.612 180.87 254.948 179.542 256.596 179.542C258.244 179.542 259.579 180.87 259.579 182.515C259.579 184.156 258.244 185.488 256.596 185.488Z" fill="#F39176"/>
<path fill-rule="evenodd" clip-rule="evenodd" d="M247.734 179.338C249.742 180.88 250.264 183.558 248.9 185.32C247.537 187.079 244.804 187.254 242.796 185.711C240.788 184.169 240.266 181.488 241.63 179.729C242.993 177.967 245.726 177.792 247.734 179.338Z" fill="#F9B384"/>
<path fill-rule="evenodd" clip-rule="evenodd" d="M247.041 184.015C246.882 184.015 246.754 183.887 246.754 183.73C246.754 182.887 246.342 182.11 245.651 181.645C245.061 181.251 244.356 181.157 243.768 181.397C243.621 181.455 243.455 181.387 243.395 181.241C243.335 181.094 243.405 180.927 243.552 180.867C244.317 180.557 245.221 180.672 245.971 181.173C246.82 181.742 247.327 182.697 247.327 183.73C247.327 183.887 247.199 184.015 247.041 184.015Z" fill="#102048"/>
<path fill-rule="evenodd" clip-rule="evenodd" d="M196.12 216.332L195.639 215.888L205.979 204.746L206.46 205.19L196.12 216.332Z" fill="#102048"/>
<path fill-rule="evenodd" clip-rule="evenodd" d="M283.391 227.37H219.367C217.064 227.37 215.198 229.382 215.198 231.862V277.409C215.198 279.891 217.064 281.903 219.367 281.903H283.391C285.693 281.903 287.56 279.891 287.56 277.409V231.862C287.56 229.382 285.693 227.37 283.391 227.37Z" fill="#D3DFFF"/>
<path fill-rule="evenodd" clip-rule="evenodd" d="M254.759 250.452H247.999C247.034 250.452 246.249 251.251 246.249 252.232V257.04C246.249 258.021 247.034 258.82 247.999 258.82H254.759C255.723 258.82 256.508 258.021 256.508 257.04V252.232C256.508 251.251 255.723 250.452 254.759 250.452ZM254.759 251.757C255.002 251.757 255.199 251.969 255.199 252.232V257.04C255.199 257.301 255.002 257.515 254.759 257.515H247.999C247.756 257.515 247.559 257.301 247.559 257.04V252.232C247.559 251.969 247.756 251.757 247.999 251.757H254.759Z" fill="#1F3C88"/>
<defs>
<linearGradient id="paint0_linear" x1="246.5" y1="296" x2="246.5" y2="348.728" gradientUnits="userSpaceOnUse">
<stop stop-color="white"/>
<stop offset="1" stop-color="#C4C4C4" stop-opacity="0"/>
</linearGradient>
</defs>
</svg>
