<svg width="18" height="23" viewBox="0 0 18 23" fill="none" xmlns="http://www.w3.org/2000/svg">
<path d="M11.9014 12.9597L11.9711 13.0313L11.9014 12.9597L9.37573 15.4168V7.98421C9.37573 7.83067 9.31742 7.68256 9.21231 7.5727C9.10706 7.46268 8.96334 7.4 8.8125 7.4C8.66166 7.4 8.51794 7.46268 8.41269 7.5727C8.30758 7.68256 8.24927 7.83067 8.24927 7.98421V15.4168L5.72362 12.9597L5.65388 13.0313L5.72361 12.9597C5.66964 12.9072 5.60606 12.866 5.53639 12.8389C5.46671 12.8118 5.39245 12.7992 5.31789 12.802C5.24335 12.8048 5.17019 12.8229 5.10264 12.8551C5.0351 12.8874 4.9746 12.9331 4.92446 12.9894C4.87432 13.0457 4.83549 13.1116 4.80999 13.1831C4.78448 13.2546 4.77274 13.3306 4.77536 13.4066C4.77797 13.4827 4.79489 13.5576 4.82527 13.6271C4.85565 13.6966 4.89896 13.7595 4.95292 13.812L8.42715 17.1919C8.5311 17.293 8.66872 17.35 8.8125 17.35C8.95628 17.35 9.0939 17.293 9.19785 17.1919L12.6721 13.812C12.726 13.7595 12.7693 13.6966 12.7997 13.6271C12.8301 13.5576 12.847 13.4827 12.8496 13.4066C12.8523 13.3306 12.8405 13.2546 12.815 13.1831C12.7895 13.1116 12.7507 13.0457 12.7005 12.9894C12.6504 12.9331 12.5899 12.8874 12.5224 12.8551C12.4548 12.8229 12.3817 12.8048 12.3071 12.802C12.2326 12.7992 12.1583 12.8118 12.0886 12.8389C12.0189 12.866 11.9554 12.9072 11.9014 12.9597Z" fill="#662DDE" stroke="#662DDE" stroke-width="0.2"/>
<path d="M2.25 0H15.75C16.9926 0 18 1.00736 18 2.25V20.5753C18 21.3747 17.352 22.0226 16.5527 22.0226C16.3105 22.0226 16.0722 21.9619 15.8596 21.8459L15.1875 21.4793L13.8433 22.2125C13.3956 22.4567 12.8544 22.4567 12.4067 22.2125L11.0625 21.4793L9.71828 22.2125C9.27056 22.4567 8.72944 22.4567 8.28172 22.2125L6.9375 21.4793L5.59328 22.2125C5.14556 22.4567 4.60444 22.4567 4.15672 22.2125L2.8125 21.4793L2.14039 21.8459C1.43865 22.2287 0.559491 21.9701 0.176725 21.2684C0.0607638 21.0558 0 20.8175 0 20.5753V2.25C0 1.00736 1.00736 0 2.25 0ZM16.5 2.25C16.5 1.83579 16.1642 1.5 15.75 1.5H2.25C1.83579 1.5 1.5 1.83579 1.5 2.25V20.4866L2.09422 20.1625C2.54194 19.9183 3.08306 19.9183 3.53078 20.1625L4.875 20.8957L6.21922 20.1625C6.66694 19.9183 7.20806 19.9183 7.65578 20.1625L9 20.8957L10.3442 20.1625C10.7919 19.9183 11.3331 19.9183 11.7808 20.1625L13.125 20.8957L14.4692 20.1625C14.9169 19.9183 15.4581 19.9183 15.9058 20.1625L16.5 20.4866V2.25ZM13.125 3.9375C13.5392 3.9375 13.875 4.27329 13.875 4.6875C13.875 5.10171 13.5392 5.4375 13.125 5.4375H4.875C4.46079 5.4375 4.125 5.10171 4.125 4.6875C4.125 4.27329 4.46079 3.9375 4.875 3.9375H13.125Z" fill="#662DDE"/>
</svg>
