<svg width="22" height="23" viewBox="0 0 22 23" fill="none" xmlns="http://www.w3.org/2000/svg">
<path d="M20.7126 10.4226C21.0178 10.4226 21.2651 10.1752 21.2651 9.87011C21.2651 9.56498 21.0178 9.31763 20.7126 9.31763C20.4075 9.31763 20.1602 9.56498 20.1602 9.87011C20.1602 10.1752 20.4075 10.4226 20.7126 10.4226Z" fill="#FB983D"/>
<path d="M20.0054 8.36742C20.3105 8.36742 20.5579 8.12007 20.5579 7.81494C20.5579 7.50981 20.3105 7.26245 20.0054 7.26245C19.7002 7.26245 19.4529 7.50981 19.4529 7.81494C19.4529 8.12007 19.7002 8.36742 20.0054 8.36742Z" fill="#FB983D"/>
<path d="M18.6797 6.44469C18.9848 6.44469 19.2322 6.19734 19.2322 5.89221C19.2322 5.58708 18.9848 5.33972 18.6797 5.33972C18.3746 5.33972 18.1272 5.58708 18.1272 5.89221C18.1272 6.19734 18.3746 6.44469 18.6797 6.44469Z" fill="#FB983D"/>
<path d="M16.8232 4.78734C17.1284 4.78734 17.3757 4.53999 17.3757 4.23486C17.3757 3.92973 17.1284 3.68237 16.8232 3.68237C16.5181 3.68237 16.2708 3.92973 16.2708 4.23486C16.2708 4.53999 16.5181 4.78734 16.8232 4.78734Z" fill="#FB983D"/>
<path d="M14.6352 3.61596C14.9404 3.61596 15.1877 3.3686 15.1877 3.06347C15.1877 2.75834 14.9404 2.51099 14.6352 2.51099C14.3301 2.51099 14.0828 2.75834 14.0828 3.06347C14.0828 3.3686 14.3301 3.61596 14.6352 3.61596Z" fill="#FB983D"/>
<path d="M9.97817 1.12696C9.81691 1.37213 9.85365 1.72252 10.1023 1.91494C4.9054 2.49981 0.85 6.91004 0.85 12.2348C0.85 17.9751 5.51383 22.6389 11.2541 22.6389C16.9944 22.6389 21.6582 17.9751 21.6582 12.2348C21.6582 11.9088 21.3922 11.6428 21.0663 11.6428C20.745 11.6428 20.4522 11.9043 20.4522 12.2569C20.4522 17.3232 16.3204 21.4549 11.2541 21.4549C6.18803 21.4549 2.05608 17.3234 2.05608 12.2348C2.05608 7.55954 5.57376 3.67221 10.1137 3.10752C9.86149 3.31183 9.80269 3.68639 10.0086 3.9512L10.0086 3.95121L10.0099 3.95281C10.1246 4.09614 10.2991 4.18591 10.4806 4.18591C10.5803 4.18591 10.7355 4.16335 10.8438 4.06141L12.3397 2.91749L12.3397 2.91752L12.3423 2.91547C12.4887 2.79834 12.5754 2.62249 12.5754 2.42265C12.5754 2.21251 12.4573 2.03405 12.3068 1.9423L10.8069 0.949778C10.8069 0.949738 10.8068 0.949699 10.8068 0.949659C10.5445 0.774932 10.1597 0.828296 9.97817 1.12696Z" fill="#FB983D" stroke="#FFA756" stroke-width="0.3"/>
<path d="M10.498 16.6934H10.3679L10.3495 16.8222C10.3485 16.8286 10.3476 16.8351 10.3466 16.8417C10.3391 16.8929 10.3307 16.9507 10.3307 17.0158C10.3307 17.5726 10.7857 18.0276 11.3426 18.0276C11.8995 18.0276 12.3545 17.5726 12.3545 17.0158C12.3545 16.9507 12.346 16.8929 12.3386 16.8417C12.3376 16.8351 12.3366 16.8286 12.3357 16.8222L12.3173 16.6934H12.1872H10.498Z" fill="#FB983D" stroke="#FFA756" stroke-width="0.3"/>
<path d="M8.88144 14.8445C8.79611 15.0094 8.6933 15.1667 8.57535 15.3144L8.88144 14.8445ZM8.88144 14.8445C9.11658 14.4011 9.24333 13.9032 9.24333 13.3959V9.94836V9.94801V9.94766V9.9473V9.94695V9.9466V9.94625V9.94589V9.94554V9.94519V9.94484V9.94449V9.94414V9.94379V9.94343V9.94308V9.94273V9.94238V9.94203V9.94168V9.94133V9.94098V9.94063V9.94028V9.93994V9.93959V9.93924V9.93889V9.93854V9.93819V9.93784V9.9375V9.93715V9.9368V9.93645V9.93611V9.93576V9.93541V9.93507V9.93472V9.93437V9.93403V9.93368V9.93334V9.93299V9.93264V9.9323V9.93195V9.93161V9.93126V9.93092V9.93057V9.93023V9.92989V9.92954V9.9292V9.92885V9.92851V9.92817V9.92782V9.92748V9.92714V9.9268V9.92645V9.92611V9.92577V9.92543V9.92508V9.92474V9.9244V9.92406V9.92372V9.92338V9.92303V9.92269V9.92235V9.92201V9.92167V9.92133V9.92099V9.92065V9.92031V9.91997V9.91963V9.91929V9.91895V9.91861V9.91827V9.91793V9.91759V9.91725V9.91692V9.91658V9.91624V9.9159V9.91556V9.91522V9.91489V9.91455V9.91421V9.91387V9.91353V9.9132V9.91286V9.91252V9.91219V9.91185V9.91151V9.91117V9.91084V9.9105V9.91016V9.90983V9.90949V9.90916V9.90882V9.90848V9.90815V9.90781V9.90748V9.90714V9.90681V9.90647V9.90614V9.9058V9.90547V9.90513V9.9048V9.90446V9.90413V9.90379V9.90346V9.90312V9.90279V9.90246V9.90212V9.90179V9.90145V9.90112V9.90079V9.90045V9.90012V9.89979V9.89945V9.89912V9.89879V9.89846V9.89812V9.89779V9.89746V9.89712V9.89679V9.89646V9.89613V9.89579V9.89546V9.89513V9.8948V9.89447V9.89413V9.8938V9.89347V9.89314V9.89281V9.89248V9.89214V9.89181V9.89148V9.89115V9.89082V9.89049V9.89016V9.88983V9.88949V9.88916V9.88883V9.8885V9.88817V9.88784V9.88751V9.88718V9.88685V9.88652V9.88619V9.88586V9.88553V9.8852V9.88487V9.88454V9.88421V9.88388V9.88355V9.88322V9.88289V9.88256V9.88223V9.8819V9.88157V9.88124V9.88091V9.88058V9.88025V9.87992V9.87959V9.87926V9.87893V9.87861V9.87828V9.87795V9.87762V9.87729V9.87696V9.87663V9.8763V9.87597V9.87564V9.87531V9.87499V9.87466V9.87433V9.874V9.87367V9.87334V9.87301V9.87268V9.87236V9.87203V9.8717V9.87137V9.87104V9.87071V9.87038V9.87006V9.86973V9.8694V9.86907V9.86874V9.86841V9.86809V9.86776V9.86743V9.8671V9.86677V9.86644V9.86612V9.86579V9.86546V9.86513V9.8648V9.86447V9.86415V9.86382V9.86349V9.86316V9.86283V9.8625V9.86218V9.86185V9.86152V9.86119V9.86086V9.86054V9.86021V9.85988V9.85955V9.85922V9.85889V9.85857V9.85824V9.85791V9.85758V9.85725V9.85692V9.8566V9.85627V9.85594V9.85561V9.85528V9.85495V9.85463V9.8543V9.85397V9.85364V9.85331V9.85298V9.85265V9.85233V9.852V9.85167V9.85134V9.85101V9.85068V9.85035V9.85002V9.8497V9.84937V9.84904V9.84871V9.84838V9.84805V9.84772V9.84739V9.84706V9.84674V9.84641V9.84608V9.84575V9.84542V9.84509V9.84476V9.84443V9.8441V9.84377V9.84344V9.84311V9.84278V9.84245V9.84212V9.84179V9.84146V9.84113V9.8408V9.84047V9.84014V9.83981V9.83948V9.83915V9.83882V9.83849V9.83816V9.83783V9.8375V9.83717V9.83684V9.83651V9.83618V9.83585V9.83552V9.83519V9.83486V9.83453V9.8342V9.83386V9.83353V9.8332V9.83287V9.83254V9.83221V9.83188V9.83155V9.83121V9.83088V9.83055V9.83022V9.82989V9.82955V9.82922V9.82889V9.82856V9.82823V9.82789V9.82756V9.82723V9.8269V9.82656V9.82623V9.8259V9.82556V9.82523V9.8249V9.82456V9.82423V9.8239V9.82357V9.82323V9.8229V9.82256V9.82223V9.8219V9.82156V9.82123V9.82089V9.82056V9.82022V9.81989V9.81956V9.81922V9.81889V9.81855V9.81822V9.81788V9.81755V9.81721V9.81688V9.81654V9.8162V9.81587V9.81553V9.8152V9.81486V9.81452V9.81419V9.81385V9.81352V9.81318V9.81284V9.8125V9.81217V9.81183V9.81149V9.81116V9.81082V9.81048V9.81014V9.80981V9.80947V9.80913V9.80879V9.80845V9.80811V9.80778V9.80744V9.8071V9.80676V9.80642V9.80608V9.80574V9.8054V9.80506V9.80472V9.80438V9.80404V9.8037V9.80336V9.80302V9.80268V9.80234V9.802V9.80166V9.80132V9.80098V9.80064V9.80029V9.79995V9.79961V9.79927V9.79893V9.79858V9.79824V9.7979V9.79756V9.79721V9.79687V9.79653V9.79619V9.79584V9.7955V9.79515V9.79481V9.79447V9.79412V9.79378V9.79343V9.79309V9.79274V9.7924V9.79205V9.79171V9.79136V9.79102V9.79067V9.79033V9.78998V9.78963V9.78929V9.78894V9.78859V9.78825V9.7879V9.78755V9.7872V9.78686V9.78651V9.78616V9.78581V9.78546V9.78512V9.78477V9.78442V9.78407V9.78372V9.78337V9.78302V9.78267V9.78232V9.78197V9.78162V9.78127V9.78092V9.78057V9.78022V9.77987V9.77951V9.77916V9.77881V9.77846V9.77811V9.77775V9.7774V9.77705V9.7767V9.77634V9.77599C9.24333 8.61773 10.176 7.68511 11.3342 7.68511C12.4925 7.68511 13.4251 8.61773 13.4251 9.77599V9.77634V9.7767V9.77705V9.7774V9.77775V9.77811V9.77846V9.77881V9.77916V9.77951V9.77987V9.78022V9.78057V9.78092V9.78127V9.78162V9.78197V9.78232V9.78267V9.78302V9.78337V9.78372V9.78407V9.78442V9.78477V9.78512V9.78546V9.78581V9.78616V9.78651V9.78686V9.7872V9.78755V9.7879V9.78825V9.78859V9.78894V9.78929V9.78963V9.78998V9.79033V9.79067V9.79102V9.79136V9.79171V9.79205V9.7924V9.79274V9.79309V9.79343V9.79378V9.79412V9.79447V9.79481V9.79515V9.7955V9.79584V9.79619V9.79653V9.79687V9.79721V9.79756V9.7979V9.79824V9.79858V9.79893V9.79927V9.79961V9.79995V9.80029V9.80064V9.80098V9.80132V9.80166V9.802V9.80234V9.80268V9.80302V9.80336V9.8037V9.80404V9.80438V9.80472V9.80506V9.8054V9.80574V9.80608V9.80642V9.80676V9.8071V9.80744V9.80778V9.80811V9.80845V9.80879V9.80913V9.80947V9.80981V9.81014V9.81048V9.81082V9.81116V9.81149V9.81183V9.81217V9.8125V9.81284V9.81318V9.81352V9.81385V9.81419V9.81452V9.81486V9.8152V9.81553V9.81587V9.8162V9.81654V9.81688V9.81721V9.81755V9.81788V9.81822V9.81855V9.81889V9.81922V9.81956V9.81989V9.82022V9.82056V9.82089V9.82123V9.82156V9.8219V9.82223V9.82256V9.8229V9.82323V9.82357V9.8239V9.82423V9.82456V9.8249V9.82523V9.82556V9.8259V9.82623V9.82656V9.8269V9.82723V9.82756V9.82789V9.82823V9.82856V9.82889V9.82922V9.82955V9.82989V9.83022V9.83055V9.83088V9.83121V9.83155V9.83188V9.83221V9.83254V9.83287V9.8332V9.83353V9.83386V9.8342V9.83453V9.83486V9.83519V9.83552V9.83585V9.83618V9.83651V9.83684V9.83717V9.8375V9.83783V9.83816V9.83849V9.83882V9.83915V9.83948V9.83981V9.84014V9.84047V9.8408V9.84113V9.84146V9.84179V9.84212V9.84245V9.84278V9.84311V9.84344V9.84377V9.8441V9.84443V9.84476V9.84509V9.84542V9.84575V9.84608V9.84641V9.84674V9.84706V9.84739V9.84772V9.84805V9.84838V9.84871V9.84904V9.84937V9.8497V9.85002V9.85035V9.85068V9.85101V9.85134V9.85167V9.852V9.85233V9.85265V9.85298V9.85331V9.85364V9.85397V9.8543V9.85463V9.85495V9.85528V9.85561V9.85594V9.85627V9.8566V9.85692V9.85725V9.85758V9.85791V9.85824V9.85857V9.85889V9.85922V9.85955V9.85988V9.86021V9.86054V9.86086V9.86119V9.86152V9.86185V9.86218V9.8625V9.86283V9.86316V9.86349V9.86382V9.86415V9.86447V9.8648V9.86513V9.86546V9.86579V9.86612V9.86644V9.86677V9.8671V9.86743V9.86776V9.86809V9.86841V9.86874V9.86907V9.8694V9.86973V9.87006V9.87038V9.87071V9.87104V9.87137V9.8717V9.87203V9.87236V9.87268V9.87301V9.87334V9.87367V9.874V9.87433V9.87466V9.87499V9.87531V9.87564V9.87597V9.8763V9.87663V9.87696V9.87729V9.87762V9.87795V9.87828V9.87861V9.87893V9.87926V9.87959V9.87992V9.88025V9.88058V9.88091V9.88124V9.88157V9.8819V9.88223V9.88256V9.88289V9.88322V9.88355V9.88388V9.88421V9.88454V9.88487V9.8852V9.88553V9.88586V9.88619V9.88652V9.88685V9.88718V9.88751V9.88784V9.88817V9.8885V9.88883V9.88916V9.88949V9.88983V9.89016V9.89049V9.89082V9.89115V9.89148V9.89181V9.89214V9.89248V9.89281V9.89314V9.89347V9.8938V9.89413V9.89447V9.8948V9.89513V9.89546V9.89579V9.89613V9.89646V9.89679V9.89712V9.89746V9.89779V9.89812V9.89846V9.89879V9.89912V9.89945V9.89979V9.90012V9.90045V9.90079V9.90112V9.90145V9.90179V9.90212V9.90246V9.90279V9.90312V9.90346V9.90379V9.90413V9.90446V9.9048V9.90513V9.90547V9.9058V9.90614V9.90647V9.90681V9.90714V9.90748V9.90781V9.90815V9.90848V9.90882V9.90916V9.90949V9.90983V9.91016V9.9105V9.91084V9.91117V9.91151V9.91185V9.91219V9.91252V9.91286V9.9132V9.91353V9.91387V9.91421V9.91455V9.91489V9.91522V9.91556V9.9159V9.91624V9.91658V9.91692V9.91725V9.91759V9.91793V9.91827V9.91861V9.91895V9.91929V9.91963V9.91997V9.92031V9.92065V9.92099V9.92133V9.92167V9.92201V9.92235V9.92269V9.92303V9.92338V9.92372V9.92406V9.9244V9.92474V9.92508V9.92543V9.92577V9.92611V9.92645V9.9268V9.92714V9.92748V9.92782V9.92817V9.92851V9.92885V9.9292V9.92954V9.92989V9.93023V9.93057V9.93092V9.93126V9.93161V9.93195V9.9323V9.93264V9.93299V9.93334V9.93368V9.93403V9.93437V9.93472V9.93507V9.93541V9.93576V9.93611V9.93645V9.9368V9.93715V9.9375V9.93784V9.93819V9.93854V9.93889V9.93924V9.93959V9.93994V9.94028V9.94063V9.94098V9.94133V9.94168V9.94203V9.94238V9.94273V9.94308V9.94343V9.94379V9.94414V9.94449V9.94484V9.94519V9.94554V9.94589V9.94625V9.9466V9.94695V9.9473V9.94766V9.94801V9.94836L8.88144 14.8445ZM15.3187 14.6688L15.3188 14.6687L15.3149 14.6651C14.9667 14.3406 14.768 13.8807 14.768 13.3959V9.94836V9.94801V9.94766V9.9473V9.94695V9.9466V9.94625V9.94589V9.94554V9.94519V9.94484V9.94449V9.94414V9.94379V9.94343V9.94308V9.94273V9.94238V9.94203V9.94168V9.94133V9.94098V9.94063V9.94028V9.93994V9.93959V9.93924V9.93889V9.93854V9.93819V9.93784V9.9375V9.93715V9.9368V9.93645V9.93611V9.93576V9.93541V9.93507V9.93472V9.93437V9.93403V9.93368V9.93334V9.93299V9.93264V9.9323V9.93195V9.93161V9.93126V9.93092V9.93057V9.93023V9.92989V9.92954V9.9292V9.92885V9.92851V9.92817V9.92782V9.92748V9.92714V9.9268V9.92645V9.92611V9.92577V9.92543V9.92508V9.92474V9.9244V9.92406V9.92372V9.92338V9.92303V9.92269V9.92235V9.92201V9.92167V9.92133V9.92099V9.92065V9.92031V9.91997V9.91963V9.91929V9.91895V9.91861V9.91827V9.91793V9.91759V9.91725V9.91692V9.91658V9.91624V9.9159V9.91556V9.91522V9.91489V9.91455V9.91421V9.91387V9.91353V9.9132V9.91286V9.91252V9.91219V9.91185V9.91151V9.91117V9.91084V9.9105V9.91016V9.90983V9.90949V9.90916V9.90882V9.90848V9.90815V9.90781V9.90748V9.90714V9.90681V9.90647V9.90614V9.9058V9.90547V9.90513V9.9048V9.90446V9.90413V9.90379V9.90346V9.90312V9.90279V9.90246V9.90212V9.90179V9.90145V9.90112V9.90079V9.90045V9.90012V9.89979V9.89945V9.89912V9.89879V9.89846V9.89812V9.89779V9.89746V9.89712V9.89679V9.89646V9.89613V9.89579V9.89546V9.89513V9.8948V9.89447V9.89413V9.8938V9.89347V9.89314V9.89281V9.89248V9.89214V9.89181V9.89148V9.89115V9.89082V9.89049V9.89016V9.88983V9.88949V9.88916V9.88883V9.8885V9.88817V9.88784V9.88751V9.88718V9.88685V9.88652V9.88619V9.88586V9.88553V9.8852V9.88487V9.88454V9.88421V9.88388V9.88355V9.88322V9.88289V9.88256V9.88223V9.8819V9.88157V9.88124V9.88091V9.88058V9.88025V9.87992V9.87959V9.87926V9.87893V9.87861V9.87828V9.87795V9.87762V9.87729V9.87696V9.87663V9.8763V9.87597V9.87564V9.87531V9.87499V9.87466V9.87433V9.874V9.87367V9.87334V9.87301V9.87268V9.87236V9.87203V9.8717V9.87137V9.87104V9.87071V9.87038V9.87006V9.86973V9.8694V9.86907V9.86874V9.86841V9.86809V9.86776V9.86743V9.8671V9.86677V9.86644V9.86612V9.86579V9.86546V9.86513V9.8648V9.86447V9.86415V9.86382V9.86349V9.86316V9.86283V9.8625V9.86218V9.86185V9.86152V9.86119V9.86086V9.86054V9.86021V9.85988V9.85955V9.85922V9.85889V9.85857V9.85824V9.85791V9.85758V9.85725V9.85692V9.8566V9.85627V9.85594V9.85561V9.85528V9.85495V9.85463V9.8543V9.85397V9.85364V9.85331V9.85298V9.85265V9.85233V9.852V9.85167V9.85134V9.85101V9.85068V9.85035V9.85002V9.8497V9.84937V9.84904V9.84871V9.84838V9.84805V9.84772V9.84739V9.84706V9.84674V9.84641V9.84608V9.84575V9.84542V9.84509V9.84476V9.84443V9.8441V9.84377V9.84344V9.84311V9.84278V9.84245V9.84212V9.84179V9.84146V9.84113V9.8408V9.84047V9.84014V9.83981V9.83948V9.83915V9.83882V9.83849V9.83816V9.83783V9.8375V9.83717V9.83684V9.83651V9.83618V9.83585V9.83552V9.83519V9.83486V9.83453V9.8342V9.83386V9.83353V9.8332V9.83287V9.83254V9.83221V9.83188V9.83155V9.83121V9.83088V9.83055V9.83022V9.82989V9.82955V9.82922V9.82889V9.82856V9.82823V9.82789V9.82756V9.82723V9.8269V9.82656V9.82623V9.8259V9.82556V9.82523V9.8249V9.82456V9.82423V9.8239V9.82357V9.82323V9.8229V9.82256V9.82223V9.8219V9.82156V9.82123V9.82089V9.82056V9.82022V9.81989V9.81956V9.81922V9.81889V9.81855V9.81822V9.81788V9.81755V9.81721V9.81688V9.81654V9.8162V9.81587V9.81553V9.8152V9.81486V9.81452V9.81419V9.81385V9.81352V9.81318V9.81284V9.8125V9.81217V9.81183V9.81149V9.81116V9.81082V9.81048V9.81014V9.80981V9.80947V9.80913V9.80879V9.80845V9.80811V9.80778V9.80744V9.8071V9.80676V9.80642V9.80608V9.80574V9.8054V9.80506V9.80472V9.80438V9.80404V9.8037V9.80336V9.80302V9.80268V9.80234V9.802V9.80166V9.80132V9.80098V9.80064V9.80029V9.79995V9.79961V9.79927V9.79893V9.79858V9.79824V9.7979V9.79756V9.79721V9.79687V9.79653V9.79619V9.79584V9.7955V9.79515V9.79481V9.79447V9.79412V9.79378V9.79343V9.79309V9.79274V9.7924V9.79205V9.79171V9.79136V9.79102V9.79067V9.79033V9.78998V9.78963V9.78929V9.78894V9.78859V9.78825V9.7879V9.78755V9.7872V9.78686V9.78651V9.78616V9.78581V9.78546V9.78512V9.78477V9.78442V9.78407V9.78372V9.78337V9.78302V9.78267V9.78232V9.78197V9.78162V9.78127V9.78092V9.78057V9.78022V9.77987V9.77951V9.77916V9.77881V9.77846V9.77811V9.77775V9.7774V9.77705V9.7767V9.77634V9.77599C14.768 8.27133 13.7802 6.93797 12.3482 6.50634C12.2906 6.00325 11.8608 5.60964 11.3428 5.60964C10.8249 5.60964 10.3951 6.00325 10.3375 6.50634C8.90548 6.93797 7.9177 8.27133 7.9177 9.77599V9.77634V9.7767V9.77705V9.7774V9.77775V9.77811V9.77846V9.77881V9.77916V9.77951V9.77987V9.78022V9.78057V9.78092V9.78127V9.78162V9.78197V9.78232V9.78267V9.78302V9.78337V9.78372V9.78407V9.78442V9.78477V9.78512V9.78546V9.78581V9.78616V9.78651V9.78686V9.7872V9.78755V9.7879V9.78825V9.78859V9.78894V9.78929V9.78963V9.78998V9.79033V9.79067V9.79102V9.79136V9.79171V9.79205V9.7924V9.79274V9.79309V9.79343V9.79378V9.79412V9.79447V9.79481V9.79515V9.7955V9.79584V9.79619V9.79653V9.79687V9.79721V9.79756V9.7979V9.79824V9.79858V9.79893V9.79927V9.79961V9.79995V9.80029V9.80064V9.80098V9.80132V9.80166V9.802V9.80234V9.80268V9.80302V9.80336V9.8037V9.80404V9.80438V9.80472V9.80506V9.8054V9.80574V9.80608V9.80642V9.80676V9.8071V9.80744V9.80778V9.80811V9.80845V9.80879V9.80913V9.80947V9.80981V9.81014V9.81048V9.81082V9.81116V9.81149V9.81183V9.81217V9.8125V9.81284V9.81318V9.81352V9.81385V9.81419V9.81452V9.81486V9.8152V9.81553V9.81587V9.8162V9.81654V9.81688V9.81721V9.81755V9.81788V9.81822V9.81855V9.81889V9.81922V9.81956V9.81989V9.82022V9.82056V9.82089V9.82123V9.82156V9.8219V9.82223V9.82256V9.8229V9.82323V9.82357V9.8239V9.82423V9.82456V9.8249V9.82523V9.82556V9.8259V9.82623V9.82656V9.8269V9.82723V9.82756V9.82789V9.82823V9.82856V9.82889V9.82922V9.82955V9.82989V9.83022V9.83055V9.83088V9.83121V9.83155V9.83188V9.83221V9.83254V9.83287V9.8332V9.83353V9.83386V9.8342V9.83453V9.83486V9.83519V9.83552V9.83585V9.83618V9.83651V9.83684V9.83717V9.8375V9.83783V9.83816V9.83849V9.83882V9.83915V9.83948V9.83981V9.84014V9.84047V9.8408V9.84113V9.84146V9.84179V9.84212V9.84245V9.84278V9.84311V9.84344V9.84377V9.8441V9.84443V9.84476V9.84509V9.84542V9.84575V9.84608V9.84641V9.84674V9.84706V9.84739V9.84772V9.84805V9.84838V9.84871V9.84904V9.84937V9.8497V9.85002V9.85035V9.85068V9.85101V9.85134V9.85167V9.852V9.85233V9.85265V9.85298V9.85331V9.85364V9.85397V9.8543V9.85463V9.85495V9.85528V9.85561V9.85594V9.85627V9.8566V9.85692V9.85725V9.85758V9.85791V9.85824V9.85857V9.85889V9.85922V9.85955V9.85988V9.86021V9.86054V9.86086V9.86119V9.86152V9.86185V9.86218V9.8625V9.86283V9.86316V9.86349V9.86382V9.86415V9.86447V9.8648V9.86513V9.86546V9.86579V9.86612V9.86644V9.86677V9.8671V9.86743V9.86776V9.86809V9.86841V9.86874V9.86907V9.8694V9.86973V9.87006V9.87038V9.87071V9.87104V9.87137V9.8717V9.87203V9.87236V9.87268V9.87301V9.87334V9.87367V9.874V9.87433V9.87466V9.87499V9.87531V9.87564V9.87597V9.8763V9.87663V9.87696V9.87729V9.87762V9.87795V9.87828V9.87861V9.87893V9.87926V9.87959V9.87992V9.88025V9.88058V9.88091V9.88124V9.88157V9.8819V9.88223V9.88256V9.88289V9.88322V9.88355V9.88388V9.88421V9.88454V9.88487V9.8852V9.88553V9.88586V9.88619V9.88652V9.88685V9.88718V9.88751V9.88784V9.88817V9.8885V9.88883V9.88916V9.88949V9.88983V9.89016V9.89049V9.89082V9.89115V9.89148V9.89181V9.89214V9.89248V9.89281V9.89314V9.89347V9.8938V9.89413V9.89447V9.8948V9.89513V9.89546V9.89579V9.89613V9.89646V9.89679V9.89712V9.89746V9.89779V9.89812V9.89846V9.89879V9.89912V9.89945V9.89979V9.90012V9.90045V9.90079V9.90112V9.90145V9.90179V9.90212V9.90246V9.90279V9.90312V9.90346V9.90379V9.90413V9.90446V9.9048V9.90513V9.90547V9.9058V9.90614V9.90647V9.90681V9.90714V9.90748V9.90781V9.90815V9.90848V9.90882V9.90916V9.90949V9.90983V9.91016V9.9105V9.91084V9.91117V9.91151V9.91185V9.91219V9.91252V9.91286V9.9132V9.91353V9.91387V9.91421V9.91455V9.91489V9.91522V9.91556V9.9159V9.91624V9.91658V9.91692V9.91725V9.91759V9.91793V9.91827V9.91861V9.91895V9.91929V9.91963V9.91997V9.92031V9.92065V9.92099V9.92133V9.92167V9.92201V9.92235V9.92269V9.92303V9.92338V9.92372V9.92406V9.9244V9.92474V9.92508V9.92543V9.92577V9.92611V9.92645V9.9268V9.92714V9.92748V9.92782V9.92817V9.92851V9.92885V9.9292V9.92954V9.92989V9.93023V9.93057V9.93092V9.93126V9.93161V9.93195V9.9323V9.93264V9.93299V9.93334V9.93368V9.93403V9.93437V9.93472V9.93507V9.93541V9.93576V9.93611V9.93645V9.9368V9.93715V9.9375V9.93784V9.93819V9.93854V9.93889V9.93924V9.93959V9.93994V9.94028V9.94063V9.94098V9.94133V9.94168V9.94203V9.94238V9.94273V9.94308V9.94343V9.94379V9.94414V9.94449V9.94484V9.94519V9.94554V9.94589V9.94625V9.9466V9.94695V9.9473V9.94766V9.94801V9.94836V13.3959C7.9177 13.9345 7.67297 14.441 7.24646 14.7744C7.01823 14.9321 6.88345 15.1925 6.88345 15.4644V15.8091C6.88345 15.9567 6.92518 16.1051 7.00957 16.2333C7.15578 16.4809 7.42619 16.6486 7.72295 16.6486H14.9627C15.2595 16.6486 15.5299 16.4809 15.6761 16.2333C15.7605 16.1051 15.8022 15.9567 15.8022 15.8091V15.4644C15.8022 15.1833 15.6669 14.932 15.4401 14.775C15.3992 14.7422 15.3546 14.7046 15.3187 14.6688ZM13.7873 14.8452L13.7875 14.8455L13.9198 14.7749L13.7873 14.8452Z" fill="#FB983D" stroke="#FFA756" stroke-width="0.3"/>
</svg>
