<svg width="18" height="20" viewBox="0 0 18 20" fill="none" xmlns="http://www.w3.org/2000/svg">
<path d="M11.9711 11.6373L9.27573 13.9791V7.13011C9.27573 7.01543 9.22693 6.90544 9.14005 6.82434C9.05318 6.74325 8.93536 6.69769 8.8125 6.69769C8.68964 6.69769 8.57182 6.74325 8.48495 6.82434C8.39807 6.90544 8.34927 7.01543 8.34927 7.13011V13.9791L5.65388 11.6373C5.60935 11.5987 5.55709 11.5685 5.50008 11.5487C5.44308 11.5289 5.38244 11.5197 5.32165 11.5217C5.26085 11.5238 5.20107 11.537 5.14574 11.5606C5.0904 11.5842 5.04059 11.6177 4.99915 11.6593C4.9577 11.7009 4.92543 11.7496 4.90418 11.8029C4.88293 11.8561 4.87312 11.9127 4.8753 11.9694C4.87748 12.0262 4.89162 12.082 4.9169 12.1336C4.94218 12.1853 4.97812 12.2318 5.02265 12.2705L8.49688 15.2888C8.58261 15.3633 8.69538 15.4047 8.8125 15.4047C8.92962 15.4047 9.04239 15.3633 9.12812 15.2888L12.6023 12.2705C12.6469 12.2318 12.6828 12.1853 12.7081 12.1336C12.7334 12.082 12.7475 12.0262 12.7497 11.9694C12.7519 11.9127 12.7421 11.8561 12.7208 11.8029C12.6996 11.7496 12.6673 11.7009 12.6259 11.6593C12.5844 11.6177 12.5346 11.5842 12.4793 11.5606C12.4239 11.537 12.3642 11.5238 12.3034 11.5217C12.2426 11.5197 12.1819 11.5289 12.1249 11.5487C12.0679 11.5685 12.0157 11.5987 11.9711 11.6373V11.6373Z" fill="#662DDE"/>
<path fill-rule="evenodd" clip-rule="evenodd" d="M5.65393 11.6373L8.34932 13.9791V7.1301C8.34932 7.01541 8.39812 6.90543 8.48499 6.82433C8.57187 6.74324 8.68969 6.69768 8.81255 6.69768C8.93541 6.69768 9.05323 6.74324 9.1401 6.82433C9.22698 6.90543 9.27578 7.01541 9.27578 7.1301V13.9791L11.9712 11.6373C12.0157 11.5986 12.068 11.5685 12.125 11.5487C12.182 11.5288 12.2426 11.5197 12.3034 11.5217C12.3642 11.5238 12.424 11.537 12.4793 11.5606C12.5346 11.5842 12.5845 11.6177 12.6259 11.6593C12.6674 11.7009 12.6996 11.7496 12.7209 11.8029C12.7421 11.8561 12.7519 11.9127 12.7498 11.9694C12.7476 12.0262 12.7334 12.082 12.7081 12.1336C12.6829 12.1853 12.6469 12.2318 12.6024 12.2705L9.12816 15.2888C9.04244 15.3633 8.92967 15.4047 8.81255 15.4047C8.69543 15.4047 8.58266 15.3633 8.49693 15.2888L5.0227 12.2705C4.97817 12.2318 4.94223 12.1853 4.91695 12.1336C4.89167 12.082 4.87753 12.0262 4.87535 11.9694C4.87316 11.9127 4.88298 11.8561 4.90423 11.8029C4.92548 11.7496 4.95775 11.7009 4.99919 11.6593C5.04064 11.6177 5.09045 11.5842 5.14579 11.5606C5.20112 11.537 5.2609 11.5238 5.32169 11.5217C5.38249 11.5197 5.44312 11.5288 5.50013 11.5487C5.55714 11.5685 5.6094 11.5986 5.65393 11.6373ZM8.36575 15.4398L4.89153 12.4214C4.82732 12.3657 4.77468 12.2979 4.73731 12.2215C4.69993 12.1452 4.67876 12.0621 4.6755 11.9771C4.67223 11.8921 4.68695 11.8077 4.71849 11.7287C4.75001 11.6497 4.79751 11.5783 4.85756 11.5181C4.91758 11.4579 4.98898 11.41 5.06732 11.3766C5.14565 11.3432 5.22978 11.3247 5.31499 11.3218C5.40021 11.319 5.48541 11.3318 5.56586 11.3598C5.64632 11.3878 5.72091 11.4306 5.7851 11.4864L8.14932 13.5404V7.1301C8.14932 6.95776 8.22278 6.7955 8.34852 6.67813C8.47379 6.5612 8.64092 6.49768 8.81255 6.49768C8.98418 6.49768 9.15131 6.5612 9.27658 6.67813C9.40231 6.7955 9.47578 6.95776 9.47578 7.1301V13.5404L11.84 11.4864C11.9042 11.4306 11.9788 11.3878 12.0592 11.3598C12.1397 11.3318 12.2249 11.319 12.3101 11.3218C12.3953 11.3247 12.4795 11.3432 12.5578 11.3766C12.6361 11.41 12.7075 11.4579 12.7675 11.5181C12.8276 11.5783 12.8751 11.6497 12.9066 11.7287C12.9381 11.8077 12.9529 11.8921 12.9496 11.9771C12.9463 12.0621 12.9252 12.1452 12.8878 12.2215C12.8504 12.2979 12.7978 12.3657 12.7336 12.4214L9.25934 15.4398C9.25934 15.4398 9.25935 15.4398 9.25934 15.4398C9.136 15.5469 8.97622 15.6047 8.81255 15.6047C8.64888 15.6047 8.48909 15.5469 8.36575 15.4398C8.36575 15.4398 8.36576 15.4398 8.36575 15.4398Z" fill="#662DDE"/>
<path d="M2.25 0H15.75C16.9926 0 18 0.899601 18 2.00932V18.3744C18 19.0882 17.352 19.6669 16.5527 19.6669C16.3105 19.6669 16.0722 19.6126 15.8596 19.509L15.1875 19.1817L13.8433 19.8364C13.3956 20.0545 12.8544 20.0545 12.4067 19.8364L11.0625 19.1817L9.71828 19.8364C9.27056 20.0545 8.72944 20.0545 8.28172 19.8364L6.9375 19.1817L5.59328 19.8364C5.14556 20.0545 4.60444 20.0545 4.15672 19.8364L2.8125 19.1817L2.14039 19.509C1.43865 19.8509 0.559491 19.6199 0.176725 18.9933C0.0607638 18.8034 0 18.5906 0 18.3744V2.00932C0 0.899601 1.00736 0 2.25 0ZM16.5 2.00932C16.5 1.63941 16.1642 1.33954 15.75 1.33954H2.25C1.83579 1.33954 1.5 1.63941 1.5 2.00932V18.2951L2.09422 18.0057C2.54194 17.7876 3.08306 17.7876 3.53078 18.0057L4.875 18.6605L6.21922 18.0057C6.66694 17.7876 7.20806 17.7876 7.65578 18.0057L9 18.6605L10.3442 18.0057C10.7919 17.7876 11.3331 17.7876 11.7808 18.0057L13.125 18.6605L14.4692 18.0057C14.9169 17.7876 15.4581 17.7876 15.9058 18.0057L16.5 18.2951V2.00932ZM13.125 3.5163C13.5392 3.5163 13.875 3.81617 13.875 4.18607C13.875 4.55598 13.5392 4.85585 13.125 4.85585H4.875C4.46079 4.85585 4.125 4.55598 4.125 4.18607C4.125 3.81617 4.46079 3.5163 4.875 3.5163H13.125Z" fill="#662DDE"/>
</svg>
