<?xml version="1.0" standalone="no"?>
<!DOCTYPE svg PUBLIC "-//W3C//DTD SVG 20010904//EN"
 "http://www.w3.org/TR/2001/REC-SVG-20010904/DTD/svg10.dtd">
<svg version="1.0" xmlns="http://www.w3.org/2000/svg"
 width="1280.000000pt" height="842.000000pt" viewBox="0 0 1280.000000 842.000000"
 preserveAspectRatio="xMidYMid meet">

<g transform="translate(0.000000,842.000000) scale(0.100000,-0.100000)"
fill="#000000" stroke="none">
<path d="M7563 7387 c2 -7 10 -39 16 -72 23 -113 82 -235 148 -303 38 -39 108
-77 167 -91 42 -10 52 -10 64 3 13 13 14 25 4 78 -29 154 -143 282 -334 372
-62 29 -72 31 -65 13z"/>
<path d="M5134 7346 c-185 -99 -282 -223 -292 -373 -2 -40 -2 -73 1 -73 3 0
30 5 59 11 63 13 134 54 183 106 63 67 128 214 149 336 9 48 1 48 -100 -7z"/>
<path d="M8103 7212 c-102 -216 -98 -394 10 -517 l42 -47 36 49 c77 101 89
255 34 408 -17 46 -79 175 -84 175 -3 0 -20 -30 -38 -68z"/>
<path d="M4612 7178 c-72 -165 -86 -259 -57 -372 14 -53 61 -136 86 -151 16
-10 80 64 106 123 33 76 32 201 -3 314 -26 84 -71 178 -85 178 -4 0 -25 -42
-47 -92z"/>
<path d="M5275 7097 c-3 -7 -4 -353 -3 -768 l3 -754 26 -70 c74 -200 181 -330
387 -475 52 -36 115 -81 142 -100 46 -33 272 -192 478 -336 51 -36 97 -62 103
-58 12 7 127 88 504 354 312 220 357 254 416 322 83 97 120 161 173 298 21 54
21 70 24 818 2 650 1 763 -12 768 -7 3 -44 -15 -81 -40 -140 -94 -292 -139
-470 -140 -168 -1 -333 40 -489 122 l-74 38 -74 -38 c-332 -171 -679 -164
-963 19 -33 22 -66 42 -73 47 -7 4 -14 2 -17 -7z m1159 -341 c18 -23 21 -42
21 -121 0 -83 1 -92 15 -80 29 25 75 23 90 -5 12 -23 6 -53 -16 -75 -20 -19
-35 -19 -28 0 9 23 -33 19 -48 -5 -10 -16 -24 -20 -68 -20 -44 0 -58 4 -68 20
-15 24 -42 27 -42 4 0 -21 -20 -13 -42 17 -36 48 13 105 66 77 12 -6 25 -16
29 -22 4 -6 5 18 2 54 -7 70 4 130 31 168 19 27 31 25 58 -12z m-547 -128 c23
-26 43 -79 43 -114 0 -27 12 -31 30 -9 29 34 90 4 90 -45 0 -14 -6 -35 -14
-46 -15 -19 -15 -19 -29 0 -22 30 -40 11 -32 -33 4 -20 12 -39 18 -43 19 -12
54 -9 66 5 6 8 23 12 40 9 30 -4 44 8 46 40 2 25 -26 32 -32 8 -4 -16 -9 -18
-25 -9 -27 14 -20 53 10 57 17 3 22 8 17 20 -20 52 -16 142 6 142 15 0 49 -81
49 -118 0 -29 2 -31 19 -21 26 17 51 4 51 -26 0 -20 -4 -24 -22 -22 -19 2 -23
-3 -23 -28 0 -23 5 -31 21 -33 11 -2 26 4 33 12 8 10 23 13 46 9 26 -4 36 -2
41 11 9 23 116 23 135 0 8 -10 22 -14 40 -10 17 3 32 0 39 -9 15 -18 49 -20
55 -2 13 38 9 52 -12 52 -29 1 -36 9 -28 35 6 18 12 21 34 17 26 -6 28 -3 40
46 11 49 34 87 53 87 11 0 10 -103 -2 -134 -9 -24 -7 -26 15 -26 19 0 25 -5
25 -23 0 -23 -17 -47 -32 -47 -4 0 -8 9 -8 21 0 12 -5 19 -12 17 -7 -3 -13
-18 -13 -34 0 -26 4 -29 40 -34 22 -3 46 -9 53 -14 7 -4 24 -5 37 -2 18 5 26
15 31 42 8 45 -10 69 -32 40 -14 -20 -14 -20 -29 0 -19 25 -19 54 1 82 19 28
51 28 80 2 l21 -21 7 48 c3 26 15 63 26 81 19 31 45 50 56 40 2 -3 -16 -64
-41 -137 -25 -72 -45 -137 -45 -145 0 -8 -7 -26 -15 -42 -8 -16 -12 -39 -9
-51 4 -13 3 -23 -1 -23 -3 0 -45 11 -93 25 -232 66 -488 64 -723 -6 -82 -24
-81 -24 -74 4 5 17 -65 246 -110 360 -10 25 17 22 42 -5z m483 -198 c0 -5 -4
-10 -9 -10 -6 0 -13 5 -16 10 -3 6 1 10 9 10 9 0 16 -4 16 -10z m40 0 c0 -5
-4 -10 -10 -10 -5 0 -10 5 -10 10 0 6 5 10 10 10 6 0 10 -4 10 -10z m50 0 c0
-5 -4 -10 -10 -10 -5 0 -10 5 -10 10 0 6 5 10 10 10 6 0 10 -4 10 -10z m-131
-166 c-14 -14 -17 -14 -29 0 -10 13 -10 19 0 32 12 14 15 14 29 0 14 -15 14
-17 0 -32z m106 16 c0 -20 -6 -26 -27 -28 -25 -3 -28 0 -28 28 0 28 3 31 28
28 21 -2 27 -8 27 -28z m-186 1 c15 -27 -9 -56 -37 -47 -21 7 -31 44 -15 59
13 13 42 7 52 -12z m268 8 c9 -9 8 -15 -3 -26 -12 -13 -16 -13 -28 0 -11 11
-12 17 -3 26 6 6 14 11 17 11 3 0 11 -5 17 -11z m101 -1 c7 -7 12 -18 12 -25
0 -17 -35 -34 -54 -27 -16 6 -22 45 -9 57 10 11 38 8 51 -5z m-474 -24 c12 -5
13 -10 5 -25 -8 -16 -14 -17 -30 -8 -16 8 -18 13 -8 25 13 16 12 16 33 8z
m564 -6 c9 -9 7 -14 -6 -24 -22 -18 -29 -17 -36 2 -12 31 18 46 42 22z m-650
-7 c8 -4 12 -19 10 -32 -4 -30 -51 -35 -56 -6 -8 39 15 58 46 38z m750 -34
c-4 -32 -54 -36 -63 -6 -5 16 -2 26 10 35 25 18 57 0 53 -29z m-180 -1 c108
-19 197 -55 197 -81 0 -27 -25 -25 -145 9 -181 51 -427 45 -600 -15 -64 -22
-90 -20 -90 6 0 30 137 77 281 94 89 12 251 5 357 -13z m-98 -198 c71 -22 187
-126 164 -147 -5 -5 -38 -23 -73 -42 -56 -29 -65 -31 -75 -17 -26 35 -89 68
-131 68 -105 0 -192 -100 -182 -206 7 -69 44 -126 100 -153 82 -40 199 -16
205 42 l3 27 -75 0 -76 0 0 75 0 75 160 0 160 0 0 -135 0 -135 -32 -30 c-140
-128 -395 -123 -528 10 -72 72 -85 109 -85 240 0 100 3 120 23 157 81 152 269
225 442 171z m-614 -24 c92 -47 92 -49 -5 -166 -4 -4 -33 6 -65 22 -46 24 -72
30 -121 30 -66 0 -90 -13 -83 -47 3 -18 43 -34 180 -68 129 -33 188 -95 188
-199 0 -126 -85 -204 -238 -220 -62 -7 -145 4 -207 26 -34 12 -125 70 -125 79
0 4 21 35 46 69 l45 62 22 -20 c54 -49 168 -78 234 -60 39 11 60 42 43 63 -13
16 -42 26 -150 50 -148 34 -210 89 -218 194 -5 70 20 126 73 167 60 45 100 55
217 51 95 -3 114 -7 164 -33z m1340 5 c168 -81 145 -354 -35 -408 -21 -6 -84
-11 -140 -11 l-101 0 0 -110 0 -110 -90 0 -90 0 0 330 0 330 207 0 c188 0 211
-2 249 -21z"/>
<path d="M6397 6647 c-10 -25 -9 -159 2 -175 12 -19 21 81 12 143 -4 36 -8 45
-14 32z"/>
<path d="M6131 6520 c0 -14 4 -34 9 -45 7 -17 9 -16 9 10 0 17 -4 37 -9 45 -8
12 -10 10 -9 -10z"/>
<path d="M6668 6535 c-3 -6 -9 -28 -12 -50 l-6 -40 16 34 c14 31 16 78 2 56z"/>
<path d="M6980 5800 l0 -70 79 0 c96 0 131 20 131 75 0 51 -27 65 -127 65
l-83 0 0 -70z"/>
<path d="M7660 6863 c39 -123 87 -207 162 -283 61 -61 128 -93 204 -98 71 -5
76 1 63 72 -22 118 -115 224 -259 296 -60 30 -163 70 -181 70 -4 0 1 -26 11
-57z"/>
<path d="M5078 6891 c-112 -44 -185 -88 -249 -151 -82 -80 -112 -136 -113
-210 l-1 -55 33 -3 c83 -8 206 58 276 149 45 58 93 154 116 229 21 70 18 72
-62 41z"/>
<path d="M4396 6770 c-19 -53 -38 -156 -43 -229 -6 -93 10 -178 47 -251 24
-47 93 -120 114 -120 20 0 55 63 73 133 18 70 12 131 -19 215 -42 115 -159
286 -172 252z"/>
<path d="M8351 6730 c-95 -120 -141 -234 -141 -349 0 -76 21 -141 63 -195 14
-19 16 -18 65 28 36 33 58 67 78 114 25 60 28 79 29 182 0 113 -27 270 -46
270 -5 0 -26 -22 -48 -50z"/>
<path d="M4835 6422 c-67 -47 -148 -123 -180 -169 -56 -81 -90 -203 -77 -278
7 -36 11 -40 34 -37 67 7 156 67 203 137 59 86 99 230 93 338 l-3 58 -70 -49z"/>
<path d="M7890 6416 c0 -137 63 -308 143 -387 42 -42 131 -89 167 -89 45 0 31
181 -22 269 -30 50 -87 121 -122 151 -59 51 -141 110 -153 110 -9 0 -13 -17
-13 -54z"/>
<path d="M4209 6233 c-7 -59 24 -215 56 -289 50 -112 132 -196 224 -229 38
-13 42 -13 51 5 5 10 10 52 10 92 0 151 -100 286 -302 407 -21 13 -38 19 -39
14z"/>
<path d="M8520 6203 c-86 -49 -198 -162 -235 -237 -16 -33 -30 -81 -33 -112
-6 -67 6 -144 21 -144 7 0 39 13 72 29 110 51 197 178 229 331 21 105 29 170
19 170 -4 0 -37 -17 -73 -37z"/>
<path d="M7892 5986 c-7 -35 -12 -106 -12 -159 0 -161 50 -273 153 -342 48
-33 53 -34 65 -18 20 27 42 112 42 161 0 59 -42 181 -87 250 -39 62 -130 172
-142 172 -4 0 -13 -29 -19 -64z"/>
<path d="M4853 6008 c-125 -134 -205 -314 -188 -428 7 -50 39 -130 52 -130 14
0 75 41 102 68 56 56 93 145 105 248 6 48 -7 216 -20 257 -8 24 -16 22 -51
-15z"/>
<path d="M8540 5715 c-216 -43 -361 -158 -389 -310 -10 -51 -5 -55 65 -55 92
0 195 52 282 142 43 44 152 209 152 229 0 12 -31 10 -110 -6z"/>
<path d="M4150 5715 c0 -4 21 -44 48 -88 57 -98 159 -202 233 -240 64 -32 164
-53 203 -43 26 6 28 10 22 44 -25 141 -149 253 -336 306 -66 18 -170 31 -170
21z"/>
<path d="M7789 5518 c-31 -112 -37 -258 -14 -329 31 -92 57 -130 125 -181 l36
-27 29 47 c27 44 29 54 30 152 0 93 -3 114 -29 179 -27 69 -96 182 -136 224
-17 18 -18 16 -41 -65z"/>
<path d="M4968 5573 c-43 -51 -109 -161 -135 -225 -24 -62 -28 -87 -28 -169 0
-82 4 -102 25 -143 13 -27 30 -51 38 -53 24 -10 127 106 151 170 29 80 29 226
0 334 -28 103 -31 108 -51 86z"/>
<path d="M8370 5316 c-84 -15 -195 -67 -243 -114 -38 -36 -97 -137 -97 -166 0
-8 14 -17 32 -22 129 -28 277 31 397 159 38 40 121 146 121 154 0 8 -151 0
-210 -11z"/>
<path d="M4230 5311 c0 -13 109 -148 146 -182 32 -30 124 -88 167 -107 40 -17
128 -26 181 -18 56 9 58 22 20 99 -50 100 -156 174 -291 202 -76 16 -223 20
-223 6z"/>
<path d="M7572 5233 c-99 -209 -94 -377 14 -501 l32 -37 26 24 c15 14 39 50
54 80 24 51 27 66 27 166 0 81 -5 125 -19 165 -24 73 -77 190 -86 190 -4 0
-25 -39 -48 -87z"/>
<path d="M5143 5243 c-52 -118 -67 -180 -67 -288 -1 -88 2 -106 26 -155 14
-30 37 -68 51 -85 l25 -30 30 28 c16 16 42 53 58 84 36 72 44 187 20 283 -18
72 -90 230 -104 230 -5 0 -23 -30 -39 -67z"/>
<path d="M7322 4996 c-86 -90 -118 -140 -149 -226 -27 -79 -29 -158 -5 -223
25 -66 33 -72 70 -53 79 41 150 157 174 286 11 60 4 268 -10 282 -5 5 -41 -25
-80 -66z"/>
<path d="M5397 5038 c-13 -52 -18 -187 -9 -248 20 -132 88 -252 167 -297 22
-13 43 -23 47 -23 4 0 16 25 27 55 54 145 3 305 -149 466 -36 38 -68 69 -71
69 -4 0 -9 -10 -12 -22z"/>
<path d="M4538 4927 c-38 -5 -68 -13 -68 -18 0 -4 19 -26 43 -47 173 -162 321
-218 475 -181 63 16 78 30 62 60 -82 156 -265 222 -512 186z"/>
<path d="M7980 4925 c-93 -27 -185 -97 -225 -174 -11 -23 -12 -31 -2 -39 41
-33 182 -45 253 -22 105 34 188 85 279 172 39 37 47 50 37 60 -19 19 -274 21
-342 3z"/>
<path d="M7005 4735 c-212 -57 -343 -161 -380 -300 -25 -98 -25 -98 48 -93
146 9 284 124 379 313 14 28 29 60 32 73 9 26 -4 28 -79 7z"/>
<path d="M5720 4716 c51 -134 146 -263 235 -320 71 -46 103 -57 171 -59 58 -2
59 -1 62 26 7 62 -47 170 -118 234 -62 56 -265 143 -334 143 -23 0 -25 -2 -16
-24z"/>
<path d="M7629 4629 c-69 -10 -152 -54 -199 -106 l-43 -46 24 -18 c84 -65 190
-78 334 -43 71 17 270 128 259 145 -3 5 -44 20 -91 35 -96 29 -214 43 -284 33z"/>
<path d="M4977 4614 c-38 -8 -97 -25 -130 -38 l-61 -23 44 -32 c103 -75 253
-131 351 -131 78 0 165 24 202 56 26 22 27 25 12 47 -24 38 -93 88 -147 109
-69 26 -187 31 -271 12z"/>
<path d="M7140 4406 c-66 -19 -140 -62 -140 -82 0 -5 11 -20 23 -34 78 -88
235 -134 376 -111 78 13 211 51 211 61 0 11 -108 84 -168 114 -59 30 -190 67
-231 65 -14 0 -46 -6 -71 -13z"/>
<path d="M5504 4400 c-60 -12 -162 -57 -219 -96 -70 -47 -101 -72 -95 -77 3
-2 39 -14 80 -26 104 -32 265 -40 344 -17 65 19 142 66 170 104 25 33 14 50
-57 85 -62 31 -154 42 -223 27z"/>
<path d="M6375 4363 c-17 -31 -27 -39 -64 -46 l-43 -9 31 -32 c33 -34 33 -39
14 -109 -4 -16 -1 -16 39 4 l44 21 43 -22 43 -21 -7 48 c-6 45 -4 50 25 78 27
26 29 30 13 37 -10 3 -30 7 -45 7 -22 1 -32 10 -48 41 -11 22 -21 40 -23 40
-1 0 -11 -17 -22 -37z"/>
<path d="M5951 4245 c-95 -27 -238 -112 -299 -178 l-23 -24 43 -11 c172 -43
312 -36 427 23 67 33 145 107 138 129 -2 6 -28 23 -58 39 -68 34 -153 43 -228
22z"/>
<path d="M6645 4239 c-27 -11 -59 -26 -69 -34 -18 -14 -18 -15 8 -49 37 -49
83 -82 157 -113 57 -24 77 -27 179 -27 103 0 201 14 239 34 16 8 -95 105 -166
145 -118 66 -251 83 -348 44z"/>
<path d="M5352 3853 c2 -10 14 -19 28 -21 14 -2 35 -15 47 -30 13 -15 23 -22
23 -15 0 6 -15 28 -34 47 -36 39 -70 48 -64 19z"/>
<path d="M5841 3844 c-18 -13 -22 -23 -17 -45 5 -26 3 -29 -19 -29 -18 0 -23
-4 -19 -15 4 -8 12 -15 20 -15 11 0 14 -17 14 -73 0 -68 10 -97 32 -97 4 0 8
38 8 85 l0 85 85 0 c84 0 85 0 85 -25 0 -25 -1 -25 -25 -9 -40 26 -89 8 -93
-33 -5 -54 50 -89 99 -63 16 9 19 7 19 -9 0 -16 18 -31 36 -31 2 0 4 38 4 85
l0 85 29 0 c24 0 28 -4 24 -19 -5 -20 31 -61 55 -61 12 0 12 -3 2 -15 -9 -11
-22 -14 -43 -9 -24 5 -28 3 -25 -13 2 -10 13 -22 25 -28 12 -5 27 -20 34 -32
7 -13 17 -23 22 -23 5 0 2 11 -7 25 -17 25 -16 27 13 54 35 33 47 71 31 100
-10 21 -9 21 75 21 84 0 85 0 85 -25 0 -25 -1 -25 -25 -9 -20 13 -30 14 -60 4
-32 -11 -36 -15 -33 -42 2 -20 13 -39 31 -52 23 -17 32 -19 57 -9 26 10 30 9
30 -7 0 -15 18 -30 37 -30 2 0 3 38 1 85 -2 66 0 85 10 85 8 0 12 6 10 13 -4
9 -75 13 -301 15 -277 2 -297 3 -297 20 0 47 53 55 118 17 23 -13 40 -20 37
-14 -9 14 -108 69 -125 69 -9 0 -26 -7 -39 -16z m363 -120 c8 -21 7 -26 -3
-43 -13 -21 -41 4 -41 35 0 28 34 34 44 8z m-193 -44 c26 -14 24 -25 -6 -38
-43 -20 -65 -15 -65 12 0 34 33 46 71 26z m360 0 c26 -14 24 -25 -6 -38 -38
-18 -65 -15 -65 6 0 37 33 52 71 32z"/>
<path d="M5002 3758 c3 -9 31 -14 81 -16 59 -2 77 -6 77 -17 0 -12 -15 -15
-65 -15 -36 0 -65 -3 -65 -7 0 -5 14 -16 30 -25 18 -10 30 -25 30 -38 0 -23
-31 -41 -38 -22 -7 22 -22 13 -22 -13 0 -14 6 -25 13 -25 7 0 21 -14 31 -31
20 -34 34 -33 16 1 -10 19 -8 24 10 37 22 15 23 33 5 76 -7 16 -4 18 21 15 27
-3 29 -7 34 -52 3 -27 11 -51 18 -54 9 -3 12 18 12 82 l0 86 30 0 30 0 0 -79
c0 -61 3 -80 15 -85 13 -4 15 8 15 79 l0 85 75 0 75 0 0 -30 c0 -29 -1 -30
-50 -30 -54 0 -61 -10 -34 -45 14 -19 16 -19 25 -2 6 9 21 17 34 17 22 0 25
-5 25 -34 0 -28 13 -46 34 -46 1 0 0 38 -2 85 l-3 85 75 0 76 0 0 -30 c0 -29
-1 -30 -50 -30 -55 0 -64 -14 -31 -44 16 -15 19 -15 24 -1 4 8 18 15 32 15 21
0 25 -5 25 -28 0 -27 15 -52 32 -52 4 0 8 38 8 85 0 72 3 85 16 85 14 0 14 3
4 15 -11 13 -61 15 -342 15 -259 0 -329 -3 -326 -12z"/>
<path d="M6562 3758 c3 -8 29 -14 71 -16 l67 -3 0 -32 c-1 -27 -2 -29 -11 -14
-12 20 -69 23 -87 5 -36 -36 14 -105 68 -95 22 5 30 3 30 -8 0 -8 9 -19 20
-25 19 -10 20 -8 20 33 0 37 4 46 25 55 14 7 28 12 30 12 9 0 5 -42 -6 -62 -8
-16 -8 -22 2 -29 18 -11 26 -3 34 32 10 44 -18 82 -56 77 -26 -4 -29 -2 -29
24 l0 28 170 0 c160 0 170 -1 170 -19 0 -23 -42 -36 -71 -21 -15 8 -24 8 -34
0 -10 -8 -19 -8 -34 -1 -80 43 -108 -51 -35 -120 34 -32 43 -15 10 20 -37 38
-33 75 8 79 23 3 27 0 23 -12 -10 -25 13 -30 37 -7 30 28 43 26 61 -9 16 -31
51 -46 86 -37 15 4 23 -1 29 -19 19 -48 30 -25 30 61 l0 85 30 0 30 0 0 -73
c0 -68 10 -97 32 -97 4 0 8 38 8 85 0 84 0 85 25 85 22 0 25 -4 25 -39 0 -53
7 -69 41 -87 22 -11 34 -12 49 -4 17 9 20 21 20 70 0 57 1 60 25 60 25 0 25
-1 25 -79 0 -61 3 -80 15 -85 13 -4 15 8 15 79 l0 85 35 0 c33 0 35 -2 35 -33
0 -18 -5 -38 -10 -43 -6 -6 -8 -18 -5 -27 8 -19 38 -32 43 -18 2 6 17 11 33
11 24 0 29 -4 29 -24 0 -20 16 -36 36 -36 2 0 4 38 4 85 0 68 3 85 15 85 9 0
12 6 9 15 -5 13 -81 15 -601 15 -471 0 -594 -3 -591 -12z m596 -60 c-3 -39 -6
-44 -41 -57 -30 -11 -40 -11 -50 -2 -9 10 -8 15 7 26 10 8 24 16 30 18 8 3 7
11 -1 30 -12 26 -12 27 23 27 l35 0 -3 -42z m260 -10 c-3 -45 -6 -53 -23 -53
-17 0 -20 8 -23 53 -3 50 -2 52 23 52 25 0 26 -2 23 -52z m272 12 c0 -38 -2
-40 -30 -40 -28 0 -30 2 -30 40 0 38 2 40 30 40 28 0 30 -2 30 -40z m-1006
-26 c24 -9 19 -22 -15 -40 -36 -18 -55 -8 -44 25 6 21 29 27 59 15z"/>
<path d="M7692 3538 c3 -7 15 -14 29 -16 13 -2 36 -17 52 -34 15 -17 27 -25
27 -18 0 19 -72 80 -93 80 -11 0 -17 -6 -15 -12z"/>
<path d="M5783 3423 c-9 -3 -13 -30 -13 -84 l0 -79 60 0 c47 0 60 3 60 15 0
11 -12 15 -46 15 -38 0 -45 3 -42 18 2 12 15 18 46 20 56 4 51 26 -7 30 -33 3
-42 7 -39 20 2 12 15 18 46 20 23 2 42 7 42 13 0 5 -3 9 -7 10 -45 5 -90 6
-100 2z"/>
<path d="M6226 3423 c-3 -3 -6 -17 -6 -29 0 -21 -4 -23 -30 -18 -40 9 -60 -10
-60 -56 0 -48 15 -60 73 -58 l47 1 0 78 c0 72 -8 98 -24 82z m-22 -69 c24 -9
21 -61 -4 -69 -11 -3 -24 -3 -30 0 -14 9 -13 48 2 63 14 14 12 14 32 6z"/>
<path d="M6438 3420 c-29 -18 -20 -30 19 -27 32 2 38 -1 41 -19 2 -16 -10 -32
-42 -59 -26 -21 -46 -41 -46 -46 0 -5 29 -9 65 -9 51 0 65 3 65 15 0 10 -10
15 -32 15 l-32 0 32 33 c34 35 41 67 19 86 -21 17 -70 23 -89 11z"/>
<path d="M6595 3406 c-51 -51 -25 -146 40 -146 62 0 90 81 48 138 -27 36 -57
39 -88 8z m63 -18 c17 -17 15 -74 -4 -92 -12 -12 -20 -13 -35 -6 -34 19 -21
110 16 110 6 0 16 -5 23 -12z"/>
<path d="M6756 3409 c-21 -16 -26 -29 -26 -63 0 -56 22 -86 64 -86 45 0 66 26
66 81 0 32 -6 52 -20 67 -26 28 -50 28 -84 1z m62 -21 c15 -15 16 -80 1 -95
-23 -23 -59 5 -59 45 0 50 31 77 58 50z"/>
<path d="M6912 3414 c-26 -18 -30 -65 -7 -84 9 -8 29 -10 50 -7 19 3 35 2 35
-2 0 -17 -26 -31 -57 -31 -23 0 -33 -5 -33 -15 0 -24 75 -20 100 5 29 29 27
94 -5 125 -28 29 -51 31 -83 9z m68 -29 c16 -19 4 -35 -25 -35 -27 0 -39 14
-31 35 7 19 40 19 56 0z"/>
<path d="M6050 3395 c0 -8 -4 -15 -10 -15 -5 0 -10 -7 -10 -15 0 -8 4 -15 9
-15 6 0 11 -19 13 -42 3 -39 6 -43 31 -46 29 -4 37 12 12 22 -9 3 -15 18 -15
35 0 16 6 31 15 35 8 3 15 10 15 16 0 5 -7 10 -15 10 -8 0 -15 7 -15 15 0 8
-7 15 -15 15 -8 0 -15 -7 -15 -15z"/>
<path d="M5924 3366 c-11 -29 1 -50 34 -58 42 -11 42 -31 0 -26 -18 2 -35 -1
-38 -7 -9 -18 75 -18 90 0 17 21 3 47 -30 55 -13 3 -26 12 -28 19 -4 11 3 13
27 8 24 -5 31 -3 29 6 -7 19 -77 22 -84 3z"/>
<path d="M6280 3275 c0 -8 9 -15 20 -15 11 0 20 7 20 15 0 8 -9 15 -20 15 -11
0 -20 -7 -20 -15z"/>
<path d="M3777 2904 c-16 -17 -4 -24 38 -24 l45 0 0 -120 c0 -100 3 -120 15
-120 13 0 15 20 15 120 l0 120 46 0 c32 0 44 4 42 13 -5 13 -188 23 -201 11z"/>
<path d="M4210 2776 c0 -115 2 -136 15 -136 13 0 15 19 13 132 -2 94 -7 133
-15 136 -10 3 -13 -28 -13 -132z"/>
<path d="M4607 2903 c-4 -3 -7 -64 -7 -135 0 -107 2 -128 15 -128 8 0 15 7 15
17 0 15 1 15 18 0 24 -22 74 -22 102 1 16 13 24 32 28 70 4 47 2 54 -26 82
-34 33 -66 38 -100 14 -22 -15 -22 -15 -22 35 0 47 -7 61 -23 44z m125 -110
c25 -23 24 -87 -2 -113 -24 -24 -48 -25 -78 -4 -29 20 -32 107 -4 123 26 16
63 13 84 -6z"/>
<path d="M4830 2775 c0 -113 2 -135 15 -135 12 0 15 15 15 74 0 84 10 99 62
94 l33 -3 3 -82 c2 -65 6 -83 17 -83 24 0 21 168 -2 186 -24 18 -48 17 -83 -1
l-30 -16 0 51 c0 38 -4 50 -15 50 -13 0 -15 -22 -15 -135z"/>
<path d="M6116 2889 c-26 -21 -34 -60 -17 -87 4 -8 37 -24 72 -37 56 -20 64
-26 67 -50 2 -16 -2 -32 -10 -36 -21 -14 -91 -10 -112 6 -19 14 -36 12 -36 -5
0 -18 59 -40 105 -40 56 0 85 25 85 73 0 43 -22 62 -91 85 -41 13 -55 22 -57
39 -5 33 31 53 76 41 55 -14 57 -14 61 -3 6 15 -39 35 -80 35 -22 0 -47 -8
-63 -21z"/>
<path d="M7070 2775 c0 -113 2 -135 15 -135 12 0 15 13 15 55 l0 55 55 0 c46
0 60 4 80 25 33 33 32 70 -4 106 -27 26 -36 29 -95 29 l-66 0 0 -135z m146 80
c14 -21 15 -31 6 -50 -10 -22 -18 -25 -67 -25 l-55 0 0 50 0 50 50 0 c42 0 52
-4 66 -25z"/>
<path d="M8160 2775 c0 -113 2 -135 15 -135 12 0 15 15 15 75 0 81 10 95 64
95 34 0 46 -26 46 -104 0 -37 4 -66 10 -66 6 0 10 34 10 83 0 69 -3 87 -18
100 -23 21 -45 21 -82 2 l-30 -16 0 51 c0 38 -4 50 -15 50 -13 0 -15 -22 -15
-135z"/>
<path d="M8810 2891 c0 -36 13 -81 21 -75 5 3 9 25 9 50 0 32 -4 44 -15 44 -8
0 -15 -8 -15 -19z"/>
<path d="M4302 2884 c4 -21 22 -23 26 -1 2 10 -3 17 -13 17 -10 0 -15 -6 -13
-16z"/>
<path d="M5897 2893 c-13 -12 -7 -23 13 -23 11 0 20 7 20 15 0 15 -21 21 -33
8z"/>
<path d="M7767 2893 c-13 -12 -7 -23 13 -23 11 0 20 7 20 15 0 15 -21 21 -33
8z"/>
<path d="M7660 2864 c0 -17 -6 -28 -20 -31 -26 -7 -26 -23 0 -23 17 0 19 -8
22 -82 l3 -83 33 -3 c18 -2 32 1 32 7 0 6 -9 11 -19 11 -25 0 -31 19 -31 91 0
53 2 59 21 59 12 0 19 5 17 13 -3 6 -11 12 -19 12 -8 0 -15 12 -17 28 -4 34
-22 36 -22 1z"/>
<path d="M8057 2883 c-4 -3 -7 -17 -7 -30 0 -12 -5 -22 -11 -20 -6 1 -14 -4
-16 -10 -3 -7 2 -13 11 -13 13 0 16 -13 16 -73 0 -78 9 -97 46 -97 31 0 40 18
12 22 -21 3 -23 9 -26 76 -3 68 -2 72 18 72 13 0 20 5 17 13 -2 6 -11 11 -21
9 -12 -2 -16 5 -16 28 0 29 -9 38 -23 23z"/>
<path d="M3990 2753 c0 -56 4 -93 12 -101 15 -15 63 -15 91 -1 16 9 22 9 25 0
2 -6 10 -11 18 -11 12 0 14 17 12 95 -4 113 -22 132 -26 27 -3 -64 -6 -74 -27
-88 -16 -10 -34 -14 -50 -10 -26 7 -29 18 -25 112 1 26 -4 45 -14 53 -14 12
-16 4 -16 -76z"/>
<path d="M4430 2833 c-24 -9 -40 -25 -35 -33 3 -5 18 -2 34 6 42 21 81 4 81
-35 0 -28 -1 -29 -28 -19 -62 24 -119 -23 -94 -77 14 -30 55 -42 94 -27 16 6
28 6 28 1 0 -5 7 -9 15 -9 12 0 15 15 15 78 0 42 -4 82 -8 88 -18 27 -67 40
-102 27z m78 -127 c4 -32 -10 -46 -48 -46 -29 0 -50 16 -50 40 0 27 23 41 60
38 30 -3 35 -7 38 -32z"/>
<path d="M5083 2828 c-23 -11 -31 -28 -14 -28 5 0 22 5 37 10 35 14 74 -10 74
-46 0 -21 -3 -23 -19 -14 -11 5 -32 10 -46 10 -46 0 -65 -17 -65 -57 0 -22 7
-41 18 -49 22 -17 74 -18 90 -2 10 10 15 10 22 -2 19 -31 32 6 28 80 -3 61 -8
75 -27 91 -26 21 -64 23 -98 7z m91 -110 c17 -27 -4 -52 -47 -56 -28 -2 -38 1
-47 17 -18 35 4 63 47 59 21 -2 41 -10 47 -20z"/>
<path d="M5403 2827 c-6 -6 -22 -40 -35 -75 -14 -35 -29 -62 -34 -62 -5 1 -21
32 -35 68 -15 37 -34 68 -42 70 -12 2 -6 -19 23 -90 26 -65 43 -93 55 -93 11
0 28 28 55 92 21 51 35 95 30 98 -4 3 -12 -1 -17 -8z"/>
<path d="M5493 2828 c-13 -6 -23 -17 -23 -25 0 -11 6 -11 30 2 26 13 35 14 58
3 15 -7 28 -23 30 -35 3 -21 0 -22 -45 -17 -60 7 -86 -10 -86 -56 0 -46 24
-61 95 -57 69 2 74 12 65 105 -9 82 -56 113 -124 80z m91 -110 c16 -26 -4 -52
-43 -56 -51 -5 -80 35 -49 66 18 18 79 11 92 -10z"/>
<path d="M5681 2743 c-1 -63 3 -103 9 -103 6 0 10 29 10 68 0 77 17 105 66
105 36 0 44 -17 44 -100 0 -58 3 -73 15 -73 12 0 15 14 15 69 0 38 -4 81 -10
95 -12 33 -53 43 -94 23 -30 -14 -33 -13 -44 2 -8 12 -11 -7 -11 -86z"/>
<path d="M6367 2824 c-85 -46 -47 -184 50 -184 39 0 84 22 71 35 -3 4 -15 2
-26 -4 -32 -17 -70 -13 -92 9 -39 39 -27 50 55 50 74 0 75 0 75 26 0 32 -50
84 -82 84 -13 -1 -36 -8 -51 -16z m88 -29 c38 -37 32 -45 -40 -45 -68 0 -79 9
-52 42 26 34 61 35 92 3z"/>
<path d="M6536 2832 c-8 -13 70 -187 86 -190 10 -2 26 24 51 85 39 92 44 117
26 111 -6 -2 -24 -37 -40 -78 -17 -41 -32 -76 -34 -78 -3 -4 -16 23 -54 111
-20 47 -26 54 -35 39z"/>
<path d="M6783 2828 c-13 -6 -23 -18 -23 -26 0 -11 3 -12 14 -3 16 14 67 18
85 7 6 -4 11 -21 11 -39 0 -24 -3 -28 -12 -19 -16 16 -70 15 -93 -2 -11 -8
-18 -26 -18 -46 0 -20 7 -38 18 -46 23 -17 77 -18 93 -2 9 9 12 9 12 0 0 -7 7
-12 15 -12 12 0 15 15 15 78 0 47 -5 85 -13 95 -15 22 -75 30 -104 15z m85
-122 c4 -32 -10 -46 -48 -46 -29 0 -50 16 -50 40 0 27 23 41 60 38 30 -3 35
-7 38 -32z"/>
<path d="M7305 2829 c-11 -29 -1 -182 13 -187 9 -3 12 15 12 66 0 72 16 102
53 102 9 0 17 7 17 15 0 18 -8 18 -40 1 -21 -12 -26 -12 -36 3 -11 14 -13 14
-19 0z"/>
<path d="M7463 2828 c-13 -6 -23 -17 -23 -24 0 -10 7 -10 34 1 51 22 86 4 86
-43 0 -19 -3 -21 -19 -12 -29 15 -77 12 -95 -6 -21 -21 -20 -67 2 -87 13 -12
35 -16 80 -14 l62 1 0 74 c0 64 -3 76 -25 97 -26 27 -64 31 -102 13z m91 -110
c17 -27 -4 -52 -47 -56 -28 -2 -38 1 -47 17 -18 35 4 63 47 59 21 -2 41 -10
47 -20z"/>
<path d="M7872 2824 c-47 -32 -19 -83 55 -99 17 -3 34 -13 37 -22 14 -35 -40
-56 -85 -33 -11 6 -24 8 -31 4 -17 -11 32 -33 72 -33 44 0 70 19 70 51 0 31
-25 54 -67 63 -44 9 -58 28 -38 49 19 19 38 20 67 5 13 -7 24 -7 30 -1 6 6 -2
14 -23 21 -43 15 -60 14 -87 -5z"/>
<path d="M8413 2828 c-13 -6 -23 -17 -23 -24 0 -10 6 -10 33 1 44 18 81 2 85
-38 3 -26 2 -27 -17 -18 -25 14 -67 14 -92 1 -25 -14 -26 -77 -1 -96 22 -17
74 -18 91 -1 11 10 14 10 18 0 13 -36 23 -4 23 71 0 76 -2 86 -22 100 -26 18
-63 20 -95 4z m91 -110 c17 -27 -4 -52 -47 -56 -28 -2 -38 1 -47 17 -18 35 4
63 47 59 21 -2 41 -10 47 -20z"/>
<path d="M8607 2833 c-11 -10 -8 -193 2 -193 15 0 23 36 20 89 -3 60 12 81 56
81 40 0 45 -11 45 -101 0 -55 3 -69 15 -69 12 0 15 13 15 59 0 88 -9 121 -37
134 -18 8 -33 8 -55 -1 -21 -7 -36 -8 -43 -2 -7 5 -15 7 -18 3z"/>
<path d="M8903 2828 c-54 -27 -37 -75 34 -98 36 -11 49 -20 51 -37 4 -29 -36
-40 -79 -23 -35 15 -52 4 -25 -16 29 -20 99 -18 119 4 21 23 22 56 3 71 -8 6
-33 17 -57 24 -49 14 -62 39 -29 57 16 8 30 9 52 1 33 -12 48 -7 31 10 -15 15
-75 20 -100 7z"/>
<path d="M4298 2713 l-3 -118 -32 -3 c-47 -5 -41 -22 7 -22 54 0 60 16 60 149
0 91 -3 111 -15 111 -12 0 -15 -22 -17 -117z"/>
<path d="M5900 2734 c0 -64 4 -94 11 -92 6 2 10 7 10 11 -1 4 -1 45 -1 92 0
50 -4 85 -10 85 -6 0 -10 -39 -10 -96z"/>
<path d="M7770 2735 c0 -57 4 -95 10 -95 6 0 10 38 10 95 0 57 -4 95 -10 95
-6 0 -10 -38 -10 -95z"/>
<path d="M2810 2343 c-76 -27 -58 -143 21 -143 32 0 69 39 69 72 0 45 -51 85
-90 71z"/>
<path d="M6698 2320 c-24 -25 -29 -36 -24 -58 8 -32 40 -62 67 -62 11 0 31 7
44 16 36 24 35 85 -1 113 -36 28 -50 26 -86 -9z"/>
<path d="M11007 2330 c-35 -28 -37 -77 -4 -108 29 -28 57 -28 91 -1 31 24 35
67 9 97 -27 32 -64 37 -96 12z"/>
<path d="M1360 2305 c-70 -32 -110 -87 -110 -154 0 -98 51 -146 187 -176 102
-23 123 -34 123 -61 0 -61 -143 -60 -226 2 l-31 23 -36 -52 -36 -52 27 -22
c62 -51 222 -78 315 -52 47 13 106 63 123 106 29 69 6 149 -55 190 -31 21 -52
28 -185 65 -57 16 -77 38 -56 63 20 24 121 17 177 -12 l41 -22 36 44 c20 24
36 47 36 52 0 4 -23 21 -52 37 -45 25 -64 30 -147 33 -72 3 -105 0 -131 -12z"/>
<path d="M4281 2308 c-46 -13 -112 -59 -143 -100 -37 -48 -52 -104 -51 -185 2
-83 21 -128 80 -187 61 -62 112 -81 218 -81 99 0 151 17 213 69 l32 28 0 114
0 115 -132 -3 -133 -3 -3 -62 -3 -63 66 0 c63 0 65 -1 65 -25 0 -47 -105 -69
-173 -36 -63 30 -91 84 -85 162 5 68 27 105 79 131 61 30 149 14 183 -33 12
-18 15 -18 69 12 63 34 64 40 10 91 -64 61 -190 86 -292 56z"/>
<path d="M5967 2313 c-4 -3 -7 -45 -7 -93 0 -48 -3 -89 -6 -92 -3 -4 -22 5
-41 18 -81 54 -189 17 -234 -81 -39 -83 -18 -217 42 -272 55 -50 135 -57 193
-18 37 25 38 25 43 5 5 -17 13 -20 64 -20 l59 0 0 280 0 280 -53 0 c-30 0 -57
-3 -60 -7z m-36 -270 c27 -16 29 -22 29 -78 0 -66 -4 -76 -37 -94 -36 -19 -82
-13 -108 14 -20 19 -25 34 -25 75 0 41 5 56 25 75 29 30 74 33 116 8z"/>
<path d="M6187 2314 c-4 -4 -7 -130 -7 -281 l0 -273 65 0 65 0 0 134 c0 128 1
136 22 150 28 20 78 21 104 2 17 -13 19 -29 22 -150 l4 -136 59 0 59 0 0 165
c0 139 -3 170 -17 192 -37 56 -130 69 -207 28 -25 -13 -46 -21 -47 -17 0 4 -1
48 -2 97 l-2 90 -55 3 c-31 2 -59 0 -63 -4z"/>
<path d="M7120 2040 l0 -280 69 0 c82 0 81 -1 81 111 l0 79 95 0 c106 0 155
17 194 66 62 79 43 205 -40 266 -33 25 -126 38 -276 38 l-123 0 0 -280z m314
134 c9 -8 16 -28 16 -44 0 -48 -22 -60 -108 -60 l-77 0 0 60 0 60 77 0 c56 0
81 -4 92 -16z"/>
<path d="M8137 2314 c-4 -4 -7 -130 -7 -281 l0 -273 65 0 65 0 -2 278 -3 277
-55 3 c-31 2 -59 0 -63 -4z"/>
<path d="M9987 2313 c-4 -3 -7 -129 -7 -280 l0 -273 65 0 65 0 0 134 c0 149 2
154 68 163 32 4 44 1 61 -16 19 -19 21 -32 21 -151 l0 -130 60 0 60 0 0 170 0
170 -29 32 c-28 32 -32 33 -104 33 -64 0 -79 -3 -99 -22 -14 -13 -27 -23 -31
-23 -4 0 -7 42 -7 94 0 76 -3 95 -16 100 -21 8 -99 8 -107 -1z"/>
<path d="M8820 2215 l0 -55 -99 0 c-113 0 -93 20 -152 -145 -18 -49 -35 -93
-39 -98 -3 -4 -26 49 -51 118 l-44 125 -62 0 c-35 0 -63 -4 -63 -10 0 -5 34
-96 75 -201 41 -105 75 -196 75 -203 0 -21 -22 -34 -60 -38 -32 -3 -35 -6 -43
-46 -13 -68 -6 -76 59 -68 60 7 100 23 126 52 14 17 62 132 174 423 l29 75 3
-47 c3 -46 4 -47 38 -47 l34 0 0 -100 c0 -161 34 -207 147 -198 69 6 77 14 63
67 -9 36 -14 41 -39 41 -36 0 -41 12 -41 111 l0 79 40 0 40 0 0 55 0 55 -40 0
-40 0 0 55 0 55 -65 0 -65 0 0 -55z"/>
<path d="M1887 2155 c-137 -48 -177 -233 -73 -340 58 -61 145 -80 239 -54 48
13 111 75 127 124 19 58 9 146 -24 195 -51 77 -171 111 -269 75z m148 -120
c20 -19 25 -34 25 -75 0 -41 -5 -56 -25 -75 -26 -27 -72 -33 -107 -14 -29 15
-50 73 -42 115 13 70 100 99 149 49z"/>
<path d="M2436 2145 c-45 -24 -46 -24 -46 -4 0 18 -5 20 -62 17 l-63 -3 -3
-173 c-5 -229 -7 -222 68 -222 l60 0 0 128 c0 70 4 132 8 138 24 36 92 44 122
14 18 -18 20 -33 20 -150 l0 -130 65 0 65 0 -1 148 c0 86 -5 161 -12 182 -27
77 -130 103 -221 55z"/>
<path d="M3518 2156 c-21 -8 -49 -21 -63 -30 -24 -16 -24 -17 -8 -51 18 -39
26 -41 63 -20 37 21 123 19 143 -3 15 -16 25 -82 12 -82 -2 0 -19 9 -37 20
-60 36 -157 20 -200 -34 -24 -29 -24 -123 0 -152 46 -54 140 -70 200 -34 39
24 42 24 42 5 0 -12 14 -15 66 -15 l65 0 -3 148 c-4 180 -14 209 -88 241 -56
24 -136 27 -192 7z m127 -238 c31 -14 35 -62 6 -78 -29 -15 -87 -12 -105 6
-50 49 26 105 99 72z"/>
<path d="M4814 2161 c-39 -10 -94 -42 -94 -56 0 -8 14 -33 36 -63 1 -2 19 4
39 12 87 37 165 11 165 -54 0 -36 0 -36 -47 -10 -66 35 -164 18 -199 -35 -80
-122 65 -257 199 -185 44 24 47 24 47 5 0 -12 13 -15 60 -15 l60 0 0 153 c0
135 -2 156 -20 185 -37 60 -143 87 -246 63z m131 -251 c52 -43 -41 -104 -106
-70 -24 13 -25 58 -1 77 20 16 85 11 107 -7z"/>
<path d="M5385 2163 c-11 -3 -31 -14 -45 -25 l-25 -20 -3 21 c-3 19 -10 21
-68 21 l-64 0 0 -200 0 -200 65 0 65 0 0 134 c0 149 2 154 67 163 25 3 45 -1
58 -10 18 -14 20 -29 23 -151 l4 -136 59 0 59 0 0 165 c0 185 -6 206 -67 231
-32 14 -89 17 -128 7z"/>
<path d="M7756 2155 c-74 -26 -136 -109 -136 -182 0 -129 92 -222 218 -223
126 0 221 91 222 214 0 146 -155 244 -304 191z m127 -106 c59 -27 63 -134 8
-176 -9 -7 -32 -13 -52 -13 -53 0 -84 37 -84 102 0 42 4 53 28 74 31 26 62 30
100 13z"/>
<path d="M9218 2160 c-45 -13 -96 -59 -119 -107 -18 -37 -21 -57 -17 -113 6
-78 25 -111 89 -156 38 -26 50 -29 123 -29 59 0 93 5 124 19 23 10 42 21 42
24 0 10 -42 72 -48 72 -4 0 -27 -6 -52 -14 -50 -15 -101 -7 -131 20 -43 39
-27 44 127 44 l146 0 -7 53 c-13 91 -55 151 -127 182 -40 16 -106 19 -150 5z
m135 -108 c9 -8 17 -23 17 -34 0 -16 -9 -18 -80 -18 -44 0 -80 4 -80 9 0 59
92 87 143 43z"/>
<path d="M9651 2144 c-127 -64 -156 -227 -58 -329 46 -47 93 -65 167 -65 49 0
117 27 139 54 13 15 11 21 -21 53 -35 34 -37 35 -59 19 -30 -20 -88 -21 -116
-1 -13 9 -27 33 -34 53 -15 50 8 107 48 123 34 13 94 5 109 -15 9 -13 17 -9
49 24 34 35 37 41 24 56 -46 56 -164 69 -248 28z"/>
<path d="M10690 2163 c-8 -3 -27 -14 -42 -24 -33 -24 -38 -24 -38 1 0 18 -7
20 -65 20 l-65 0 0 -200 0 -200 65 0 65 0 0 135 0 134 30 16 c40 21 76 19 100
-5 18 -18 20 -33 20 -150 l0 -131 63 3 62 3 3 141 c3 166 -7 207 -57 241 -33
22 -103 30 -141 16z"/>
<path d="M11326 2155 c-78 -28 -122 -79 -137 -159 -29 -159 123 -283 292 -236
19 6 46 21 59 35 l24 26 -36 36 c-35 34 -37 35 -59 19 -27 -18 -81 -21 -111
-5 -47 25 -59 127 -18 164 27 25 83 30 121 11 33 -17 33 -17 68 18 l35 35 -22
24 c-42 45 -140 59 -216 32z"/>
<path d="M2770 1960 l0 -200 60 0 60 0 0 200 0 200 -60 0 -60 0 0 -200z"/>
<path d="M2944 2134 c4 -15 39 -108 79 -206 79 -200 80 -211 10 -216 -41 -3
-41 -3 -47 -53 -4 -27 -4 -54 -1 -59 14 -23 139 2 175 35 20 18 49 84 146 330
36 94 68 176 71 183 4 10 -10 12 -62 10 l-68 -3 -41 -117 c-23 -64 -44 -119
-47 -122 -3 -3 -26 49 -50 117 l-45 122 -63 3 -63 3 6 -27z"/>
<path d="M6680 1960 l0 -200 65 0 65 0 0 200 0 200 -65 0 -65 0 0 -200z"/>
<path d="M10990 1960 l0 -200 60 0 60 0 0 200 0 200 -60 0 -60 0 0 -200z"/>
<path d="M4904 1376 c-70 -32 -97 -114 -51 -159 12 -13 49 -31 82 -41 88 -26
105 -34 105 -50 0 -46 -78 -60 -145 -26 -38 19 -41 19 -53 3 -33 -45 26 -83
128 -83 95 0 139 34 140 105 0 69 -31 93 -158 125 -39 10 -43 14 -40 38 3 24
8 27 46 30 25 2 56 -3 75 -13 31 -15 33 -15 50 6 24 30 22 34 -20 55 -50 23
-120 28 -159 10z"/>
<path d="M6174 1377 c-80 -32 -124 -94 -124 -177 0 -70 39 -133 102 -166 46
-24 144 -18 195 11 l43 26 0 74 0 75 -79 0 -79 0 -4 -30 c-5 -33 5 -40 58 -40
29 0 34 -3 34 -23 0 -40 -78 -61 -132 -36 -55 25 -80 115 -48 173 29 55 115
74 163 36 22 -17 29 -18 51 -9 36 17 32 34 -14 65 -47 31 -119 40 -166 21z"/>
<path d="M6563 1377 c-97 -35 -147 -150 -108 -245 33 -77 86 -112 170 -112 98
0 162 46 186 133 39 145 -106 276 -248 224z m139 -86 c31 -27 33 -34 33 -91 0
-57 -2 -64 -33 -91 -47 -43 -102 -41 -148 5 -29 29 -34 41 -34 80 0 56 14 88
48 109 43 27 96 22 134 -12z"/>
<path d="M5170 1200 l0 -180 35 0 35 0 0 75 0 75 90 0 90 0 0 -75 0 -75 35 0
35 0 0 180 0 180 -35 0 -35 0 0 -70 0 -70 -90 0 -90 0 0 70 0 70 -35 0 -35 0
0 -180z"/>
<path d="M5570 1200 l0 -180 35 0 35 0 0 66 0 65 33 -3 c28 -3 36 -11 65 -65
32 -61 34 -63 73 -63 21 0 39 3 39 6 0 4 -16 33 -36 66 l-36 60 36 30 c33 27
36 34 36 79 0 97 -33 119 -180 119 l-100 0 0 -180z m188 104 c24 -17 29 -53
10 -72 -7 -7 -38 -12 -70 -12 l-58 0 0 50 0 50 48 0 c27 0 57 -7 70 -16z"/>
<path d="M5920 1200 l0 -180 35 0 35 0 0 180 0 180 -35 0 -35 0 0 -180z"/>
<path d="M6872 1203 l3 -178 37 -3 37 -3 3 118 3 118 85 -117 c82 -115 86
-118 122 -118 l38 0 0 180 0 180 -40 0 -39 0 -3 -111 -3 -111 -80 111 -80 110
-43 1 -42 0 2 -177z"/>
<path d="M7270 1200 l0 -182 103 4 c122 4 161 20 200 80 21 33 27 54 27 96 0
69 -21 113 -72 149 -38 26 -50 28 -150 31 l-108 4 0 -182z m200 102 c70 -35
78 -155 13 -194 -16 -9 -53 -18 -83 -19 l-55 -3 -3 104 c-1 57 0 110 2 117 8
19 84 16 126 -5z"/>
<path d="M7683 1217 c-35 -89 -66 -170 -69 -179 -5 -15 0 -18 34 -18 35 0 41
4 52 30 12 30 13 30 95 30 l83 0 7 -30 c6 -27 10 -30 46 -30 44 0 48 10 24 62
-8 18 -38 93 -67 166 l-52 132 -46 0 -45 0 -62 -163z m141 5 l25 -72 -55 0
c-36 0 -54 4 -54 13 0 12 36 113 47 130 8 13 11 6 37 -71z"/>
</g>
</svg>
