<svg width="21" height="20" viewBox="0 0 21 20" fill="none" xmlns="http://www.w3.org/2000/svg">
<g clip-path="url(#clip0)">
<path d="M20.673 7.17651C20.6022 7.38486 20.5022 7.58206 20.3758 7.76218L12.5698 19.1258C12.3084 19.5058 11.949 19.8079 11.5296 19.9999L11.2324 18.9947L11.7482 17.2464L14.624 7.21148L20.673 7.17651Z" fill="white"/>
<path d="M8.24301 5.4283H0C0.0627064 5.22713 0.147735 5.03362 0.253497 4.85138L2.41259 1.29368C2.63272 0.938848 2.93188 0.639689 3.28671 0.419556L4.58042 1.74823L8.24301 5.4283Z" fill="white"/>
<path d="M20.7166 5.42827H12.4736L16.1362 1.7482L17.4649 0.437012C17.8197 0.657145 18.1189 0.956304 18.339 1.31114L20.4981 4.86883C20.5906 5.04701 20.6639 5.23455 20.7166 5.42827Z" fill="white"/>
<path d="M15.4279 0L10.358 5.06993L5.28809 0H15.4279Z" fill="white"/>
<path d="M9.43206 18.9948L9.1436 19.9913C8.74205 19.7901 8.39893 19.4891 8.1471 19.1172L0.341148 7.75351C0.214768 7.5734 0.114695 7.37619 0.0439453 7.16785H6.07542L8.89884 17.1329L9.43206 18.9948Z" fill="white"/>
<path d="M12.8236 7.17651L10.3411 15.8129L7.89355 7.17651H12.8236Z" fill="white"/>
</g>
<defs>
<clipPath id="clip0">
<rect width="20.7168" height="20" fill="white"/>
</clipPath>
</defs>
</svg>
