<svg width="20" height="20" viewBox="0 0 20 20" fill="none" xmlns="http://www.w3.org/2000/svg">
<path d="M14.3879 0H2.48588H1.77024H1.3936C0.602637 0 0 0.640301 0 1.43126V3.9548C0 4.14313 0.188324 4.33145 0.376648 4.33145H3.16384V15.6309H0.376648C0.188324 15.6309 0 15.8192 0 16.0075V18.5687C0 19.3597 0.640301 20 1.43126 20H1.65725H2.48588H14.3879C15.1789 20 15.8192 19.3597 15.8192 18.5687V1.43126C15.8192 0.640301 15.1789 0 14.3879 0ZM6.51601 6.51601C6.32768 6.51601 6.13936 6.36535 6.13936 6.13936C6.13936 5.95104 6.32768 5.76271 6.51601 5.76271H13.4087C13.6347 5.76271 13.7853 5.95104 13.7853 6.13936C13.7853 6.36535 13.6347 6.51601 13.4087 6.51601H6.51601ZM12.6177 9.98117C12.6177 10.1695 12.467 10.3578 12.2411 10.3578H7.64595C7.45763 10.3578 7.2693 10.1695 7.2693 9.98117C7.2693 9.79284 7.45763 9.60452 7.64595 9.60452H12.2787C12.467 9.60452 12.6177 9.79284 12.6177 9.98117ZM6.51601 13.4463H13.4087C13.6347 13.4463 13.7853 13.597 13.7853 13.823C13.7853 14.0113 13.6347 14.1996 13.4087 14.1996H6.51601C6.32768 14.1996 6.13936 14.0113 6.13936 13.823C6.13936 13.597 6.29002 13.4463 6.51601 13.4463ZM6.51601 15.0283H13.4087C13.6347 15.0283 13.7853 15.1789 13.7853 15.4049C13.7853 15.5932 13.6347 15.7815 13.4087 15.7815H6.51601C6.32768 15.7815 6.13936 15.5932 6.13936 15.4049C6.13936 15.2166 6.29002 15.0283 6.51601 15.0283ZM13.371 4.93409H6.51601C6.32768 4.93409 6.13936 4.78343 6.13936 4.55744C6.13936 4.36912 6.32768 4.18079 6.51601 4.18079H13.4087C13.6347 4.18079 13.7853 4.36912 13.7853 4.55744C13.7476 4.74576 13.597 4.93409 13.371 4.93409ZM0.753295 3.57815V1.43126C0.753295 1.05461 1.05461 0.753296 1.43126 0.753296H1.80791H2.48588C2.86252 0.753296 3.16384 1.05461 3.16384 1.43126V3.57815H0.753295ZM1.61959 19.209H1.3936C1.01695 19.209 0.715631 18.9077 0.715631 18.5311V16.3842H3.12618V18.5687C3.12618 18.9454 2.82486 19.2467 2.44821 19.2467H1.61959V19.209Z" fill="white"/>
<path d="M18.9075 4.82117H17.2126C17.0243 4.82117 16.8359 4.97183 16.8359 5.19781V12.3165H17.5892H18.5309H19.2841V5.19781C19.2841 5.00949 19.1335 4.82117 18.9075 4.82117Z" fill="white"/>
<path d="M17.7399 13.1073H17.1749C17.0243 13.1073 16.9113 13.032 16.8359 12.8813L16.9113 13.1073L17.6646 15.1412C17.7022 15.2919 17.8529 15.3672 18.0035 15.3672C18.1542 15.3672 18.3049 15.2542 18.3425 15.1412L19.0958 13.1073H18.2672H17.7399Z" fill="white"/>
</svg>
