<svg width="20" height="20" viewBox="0 0 20 20" fill="none" xmlns="http://www.w3.org/2000/svg">
<path d="M3.18182 6.36364C2.05409 6.36364 1.13636 5.44591 1.13636 4.31818C1.13636 3.19045 2.05409 2.27273 3.18182 2.27273C4.30955 2.27273 5.22727 3.19045 5.22727 4.31818C5.22727 5.44591 4.30955 6.36364 3.18182 6.36364ZM18.8636 4.31818C18.8636 3.19045 17.9459 2.27273 16.8182 2.27273C15.6905 2.27273 14.7727 3.19045 14.7727 4.31818C14.7727 5.44591 15.6905 6.36364 16.8182 6.36364C17.9459 6.36364 18.8636 5.44591 18.8636 4.31818ZM12.5 2.5C12.5 1.12136 11.3782 0 10 0C8.62182 0 7.5 1.12136 7.5 2.5C7.5 3.87864 8.62182 5 10 5C11.3782 5 12.5 3.87864 12.5 2.5ZM0 11.3636V16.8182V19.5455C0 19.7964 0.203182 20 0.454545 20C0.705909 20 0.909091 19.7964 0.909091 19.5455V17.2727H19.0909V19.5455C19.0909 19.7964 19.2941 20 19.5455 20C19.7968 20 20 19.7964 20 19.5455V16.8182V11.3636H0ZM19.0909 7.72727C19.0909 7.30318 18.8923 6.92864 18.5882 6.67818C18.0941 7.04955 17.4823 7.27273 16.8182 7.27273C16.1541 7.27273 15.5423 7.04955 15.0482 6.67818C14.7441 6.92864 14.5455 7.30318 14.5455 7.72727V10.4545H19.0909V7.72727ZM13.6364 6.81818C13.6364 5.96409 13.0423 5.25091 12.2473 5.05682C11.6468 5.58545 10.8614 5.90909 10 5.90909C9.13864 5.90909 8.35318 5.58545 7.75273 5.05682C6.95773 5.25091 6.36364 5.96409 6.36364 6.81818V10.4545H13.6364V6.81818ZM5.45455 7.72727C5.45455 7.30318 5.25591 6.92864 4.95182 6.67818C4.45773 7.04955 3.84591 7.27273 3.18182 7.27273C2.51773 7.27273 1.90591 7.04955 1.41182 6.67818C1.10773 6.92864 0.909091 7.30318 0.909091 7.72727V10.4545H5.45455V7.72727Z" fill="white"/>
</svg>
