<svg width="19" height="20" viewBox="0 0 19 20" fill="none" xmlns="http://www.w3.org/2000/svg">
<path d="M15.9464 0H3.05357C2.24399 0.00101801 1.46782 0.366038 0.895362 1.01498C0.322901 1.66391 0.000898039 2.54377 0 3.4615V12.6922C0.000898039 13.6099 0.322901 14.4898 0.895362 15.1387C1.46782 15.7876 2.24399 16.1527 3.05357 16.1537H4.07143V19.2306C4.07139 19.3768 4.10814 19.5201 4.17737 19.6435C4.24659 19.7669 4.34542 19.8654 4.46227 19.9274C4.57912 19.9894 4.70915 20.0124 4.8371 19.9936C4.96506 19.9749 5.08564 19.9151 5.18471 19.8214L9.06487 16.1537H15.9464C16.756 16.1527 17.5322 15.7876 18.1046 15.1387C18.6771 14.4898 18.9991 13.6099 19 12.6922V3.4615C18.9991 2.54377 18.6771 1.66391 18.1046 1.01498C17.5322 0.366038 16.756 0.00101801 15.9464 0ZM5.42857 9.61528C5.16015 9.61528 4.89776 9.52506 4.67458 9.35601C4.4514 9.18696 4.27745 8.94669 4.17473 8.66558C4.07202 8.38446 4.04514 8.07513 4.09751 7.7767C4.14987 7.47827 4.27913 7.20415 4.46893 6.98899C4.65873 6.77384 4.90055 6.62732 5.16381 6.56795C5.42707 6.50859 5.69994 6.53906 5.94793 6.6555C6.19591 6.77194 6.40787 6.96913 6.55699 7.22212C6.70612 7.47512 6.78571 7.77256 6.78571 8.07684C6.78571 8.48486 6.64273 8.87617 6.38822 9.16468C6.1337 9.4532 5.78851 9.61528 5.42857 9.61528ZM9.5 9.61528C9.23158 9.61528 8.96919 9.52506 8.74601 9.35601C8.52283 9.18696 8.34888 8.94669 8.24616 8.66558C8.14344 8.38446 8.11657 8.07513 8.16893 7.7767C8.2213 7.47827 8.35056 7.20415 8.54035 6.98899C8.73015 6.77384 8.97197 6.62732 9.23523 6.56795C9.49849 6.50859 9.77137 6.53906 10.0194 6.6555C10.2673 6.77194 10.4793 6.96913 10.6284 7.22212C10.7775 7.47512 10.8571 7.77256 10.8571 8.07684C10.8571 8.48486 10.7142 8.87617 10.4596 9.16468C10.2051 9.4532 9.85994 9.61528 9.5 9.61528ZM13.5714 9.61528C13.303 9.61528 13.0406 9.52506 12.8174 9.35601C12.5943 9.18696 12.4203 8.94669 12.3176 8.66558C12.2149 8.38446 12.188 8.07513 12.2404 7.7767C12.2927 7.47827 12.422 7.20415 12.6118 6.98899C12.8016 6.77384 13.0434 6.62732 13.3067 6.56795C13.5699 6.50859 13.8428 6.53906 14.0908 6.6555C14.3388 6.77194 14.5507 6.96913 14.6999 7.22212C14.849 7.47512 14.9286 7.77256 14.9286 8.07684C14.9286 8.48486 14.7856 8.87617 14.5311 9.16468C14.2766 9.4532 13.9314 9.61528 13.5714 9.61528Z" fill="white"/>
</svg>
