<svg width="21" height="20" viewBox="0 0 21 20" fill="none" xmlns="http://www.w3.org/2000/svg">
<path d="M19.3291 0H13.1246C12.2034 0 11.4541 0.654124 11.4541 1.45824V7.70783C11.4541 8.51194 12.2034 9.16607 13.1246 9.16607H19.3291C20.2502 9.16607 20.9996 8.51194 20.9996 7.70783V1.45824C20.9996 0.654124 20.2502 0 19.3291 0ZM17.8992 5.048L15.5128 6.92288C15.0546 7.28202 14.3177 7.00037 14.3177 6.45791V2.70816C14.3177 2.16819 15.0537 1.88404 15.5128 2.24319L17.8992 4.11806C18.2151 4.36721 18.2151 4.79885 17.8992 5.048Z" fill="white"/>
<path d="M17.1818 10.8326H13.125C11.1491 10.8326 9.54546 9.43271 9.54546 7.70783V1.45824C9.54546 0.933272 9.69819 0.433305 9.96546 0H2.86364C1.28864 0 0 1.12493 0 2.49984V14.5824C0 15.399 1.27814 16.6656 2.86364 16.6656H5.72728V19.3737C5.72728 19.917 6.46991 20.1978 6.92046 19.8404L8.59091 18.5405L10.2614 19.8404C10.6947 20.1912 11.4546 19.9312 11.4546 19.3737V16.6656H16.2273C16.7523 16.6656 17.1818 16.2906 17.1818 15.8323C17.1818 14.9215 17.1818 11.8292 17.1818 10.8326ZM5.72728 14.999H2.86364C2.33864 14.999 1.90909 14.624 1.90909 14.1657C1.90909 13.7074 2.33864 13.3325 2.86364 13.3325H5.72728V14.999ZM15.2727 14.999H11.4546V13.3325H15.2727V14.999Z" fill="white"/>
</svg>
