<svg width="20" height="20" viewBox="0 0 20 20" fill="none" xmlns="http://www.w3.org/2000/svg">
<g clip-path="url(#clip0)">
<path d="M15.5912 9.9325C17.9889 9.9325 19.9325 8.82832 19.9325 7.46625C19.9325 6.10418 17.9889 5 15.5912 5C13.1936 5 11.25 6.10418 11.25 7.46625C11.25 8.82832 13.1936 9.9325 15.5912 9.9325Z" fill="white"/>
<path fill-rule="evenodd" clip-rule="evenodd" d="M15.6567 11.3513C12.5517 11.3513 11.3154 10.05 11.3154 9.29626V12.525C11.3154 13.8875 13.2592 14.99 15.6567 14.99C18.0567 14.99 20.0004 13.8875 20.0004 12.525V9.37376C20.0004 10.1288 18.7629 11.3513 15.6567 11.3513Z" fill="white"/>
<path fill-rule="evenodd" clip-rule="evenodd" d="M15.6567 16.34C12.8792 16.34 11.3154 15.0888 11.3154 14.335V17.5338C11.3154 18.8963 13.2592 20 15.6567 20C18.0567 20 20.0004 18.8963 20.0004 17.5338V14.2963C20.0004 15.05 18.4354 16.34 15.6567 16.34Z" fill="white"/>
<path d="M4.92125 4.9325C7.63918 4.9325 9.8425 3.82832 9.8425 2.46625C9.8425 1.10418 7.63918 0 4.92125 0C2.20332 0 0 1.10418 0 2.46625C0 3.82832 2.20332 4.9325 4.92125 4.9325Z" fill="white"/>
<path fill-rule="evenodd" clip-rule="evenodd" d="M5.0775 6.35126C1.55875 6.35126 0.15625 5.05001 0.15625 4.29626V7.52501C0.15625 8.88751 2.36 9.99002 5.0775 9.99002C7.7975 9.99002 10 8.88751 10 7.52501V4.37376C10 5.12876 8.59625 6.35126 5.0775 6.35126Z" fill="white"/>
<path fill-rule="evenodd" clip-rule="evenodd" d="M5.0775 11.34C1.92875 11.34 0.15625 10.0888 0.15625 9.33501V12.5338C0.15625 13.8963 2.36 15 5.0775 15C7.7975 15 10 13.8963 10 12.5338V9.29626C10 10.05 8.225 11.34 5.0775 11.34Z" fill="white"/>
<path fill-rule="evenodd" clip-rule="evenodd" d="M5.0775 16.34C1.92875 16.34 0.15625 15.0888 0.15625 14.335V17.5338C0.15625 18.8963 2.36 20 5.0775 20C7.7975 20 10 18.8963 10 17.5338V14.2963C10 15.05 8.225 16.34 5.0775 16.34Z" fill="white"/>
</g>
<defs>
<clipPath id="clip0">
<rect width="20" height="20" fill="white"/>
</clipPath>
</defs>
</svg>
