<svg width="17" height="20" viewBox="0 0 17 20" fill="none" xmlns="http://www.w3.org/2000/svg">
<path d="M16.8216 4.26829C16.8216 3.80294 16.8312 3.33517 16.8216 2.86739C16.8143 2.44082 16.5307 2.03849 16.1017 1.94154C15.9345 1.90276 15.76 1.91488 15.5903 1.91488H13.8671V2.78983C13.8671 3.16551 13.8719 3.53633 13.6562 3.86838C13.3896 4.27799 12.9485 4.51551 12.4613 4.51793C12.3523 4.51793 12.2432 4.51793 12.1317 4.51793H4.66185C4.56006 4.51793 4.45826 4.52036 4.35647 4.51793C3.84022 4.51309 3.33366 4.23194 3.10584 3.75689C2.94587 3.42242 2.95557 3.08553 2.95557 2.72682V1.91488H1.19111C0.985099 1.91488 0.783933 1.90761 0.587613 1.99001C0.226482 2.14028 0.0083483 2.48445 0.0010772 2.87466C-0.0013465 3.02493 0.0010772 3.17278 0.0010772 3.32305V18.922C0.0010772 18.9632 0.0010772 19.0068 0.0010772 19.048C0.010772 19.5012 0.328277 19.9109 0.783932 19.9811C0.94632 20.0078 1.11356 19.9981 1.27837 19.9981H15.5661C15.7503 19.9981 15.9514 20.0126 16.1308 19.9617C16.5453 19.843 16.8119 19.4649 16.8191 19.0407C16.8191 18.9947 16.8191 18.9486 16.8191 18.905V4.26829H16.8216ZM4.34192 17.7586C4.32981 17.7586 4.32011 17.7586 4.30799 17.7586H2.82711C2.56535 17.7586 2.34237 17.5356 2.34237 17.2739V15.7591C2.34237 15.4973 2.56535 15.2743 2.82711 15.2743H4.34192C4.60368 15.2743 4.82666 15.4973 4.82666 15.7591V17.2739C4.83878 17.5356 4.59641 17.7586 4.34192 17.7586ZM4.34192 13.3135C4.32981 13.3135 4.32011 13.3135 4.30799 13.3135H2.82469C2.56293 13.3135 2.33995 13.0906 2.33995 12.8288V11.314C2.33995 11.0522 2.56293 10.8292 2.82469 10.8292H4.34192C4.60368 10.8292 4.82666 11.0522 4.82666 11.314V12.8288C4.83878 13.0906 4.59641 13.3135 4.34192 13.3135ZM4.34192 8.8709C4.32981 8.8709 4.32011 8.8709 4.30799 8.8709H2.82469C2.56293 8.8709 2.33995 8.64792 2.33995 8.38616V6.86892C2.33995 6.60716 2.56293 6.38418 2.82469 6.38418H4.34192C4.60368 6.38418 4.82666 6.60716 4.82666 6.86892V8.38616C4.83878 8.64792 4.59641 8.8709 4.34192 8.8709ZM13.9979 17.2424H6.91832C6.51113 17.2424 6.20817 16.9079 6.19121 16.5152C6.17424 16.1226 6.5378 15.7881 6.91832 15.7881H14.0004C14.4075 15.7881 14.7105 16.1202 14.7275 16.5152C14.7444 16.9079 14.3785 17.2424 13.9979 17.2424ZM13.9979 12.7997H6.91832C6.51113 12.7997 6.20817 12.4677 6.19121 12.0726C6.17424 11.68 6.5378 11.3455 6.91832 11.3455H14.0004C14.4075 11.3455 14.7105 11.68 14.7275 12.0726C14.7444 12.4652 14.3785 12.7997 13.9979 12.7997ZM13.9979 8.35465H6.91832C6.51113 8.35465 6.20817 8.02018 6.19121 7.62754C6.17424 7.2349 6.5378 6.90043 6.91832 6.90043H14.0004C14.4075 6.90043 14.7105 7.2349 14.7275 7.62754C14.7444 8.02018 14.3785 8.35465 13.9979 8.35465Z" fill="white"/>
<path d="M12.8998 2.27841C12.8998 2.39959 12.8998 2.52078 12.8998 2.64196C12.8998 2.79465 12.8998 2.94492 12.8998 3.09762C12.8998 3.13155 12.8973 3.16306 12.8973 3.19699C12.8973 3.19941 12.8973 3.20184 12.8949 3.20426C12.8852 3.23334 12.878 3.26243 12.8707 3.29151C12.8513 3.31817 12.8367 3.35453 12.8198 3.38119C12.8198 3.38361 12.8174 3.38604 12.8174 3.38604C12.7955 3.40785 12.7762 3.42966 12.7543 3.45148C12.7543 3.45148 12.7495 3.45632 12.7422 3.4636C12.7301 3.47087 12.7156 3.48056 12.7034 3.48783C12.701 3.49026 12.6768 3.5048 12.655 3.51692C12.6429 3.52176 12.6283 3.52661 12.6162 3.52904C12.5944 3.53631 12.575 3.53873 12.5532 3.546C12.5483 3.546 12.5435 3.54843 12.5386 3.54843C12.5314 3.54843 12.5241 3.54843 12.5192 3.54843C12.4465 3.55085 12.3738 3.54843 12.3035 3.54843H5.05667C4.81915 3.54843 4.5792 3.55327 4.34168 3.54843C4.33683 3.54843 4.31744 3.54843 4.29806 3.54843C4.27867 3.54358 4.2617 3.54115 4.24231 3.53631C4.2205 3.53146 4.20111 3.52419 4.18172 3.51692C4.15506 3.49995 4.12597 3.48541 4.09931 3.46844C4.09689 3.46844 4.09446 3.46602 4.09446 3.46602C4.07992 3.45148 4.06538 3.43936 4.05084 3.42724C4.0363 3.4127 4.02175 3.39573 4.00721 3.38119L4.00479 3.37877C3.99267 3.35938 3.97813 3.33272 3.96601 3.3109C3.96116 3.29394 3.94177 3.24304 3.92965 3.20668C3.92965 3.19214 3.92723 3.18002 3.92723 3.16548C3.92723 3.15094 3.92723 3.14124 3.92723 3.13155C3.92723 3.12185 3.92723 3.11216 3.92723 3.10489C3.92723 2.94977 3.92723 2.79708 3.92723 2.64196C3.92723 2.52078 3.92723 2.39959 3.92723 2.27841V2.23963C3.92723 2.13056 3.92723 2.02149 3.9248 1.91485C3.9248 1.78155 3.9248 1.64824 3.92723 1.51494C3.92723 1.49555 3.92723 1.48101 3.92965 1.46404C3.92965 1.46162 3.92965 1.45677 3.92965 1.45435C3.93692 1.42769 3.94662 1.38648 3.94904 1.38406C3.95147 1.37437 3.95631 1.36467 3.95874 1.35255C3.96116 1.35013 3.96116 1.34528 3.96116 1.34286C3.97328 1.31862 3.99267 1.28711 4.00721 1.2653C4.01448 1.25803 4.01933 1.25076 4.0266 1.24349C4.03145 1.23864 4.06053 1.20713 4.08477 1.18289C4.08962 1.18047 4.09931 1.17562 4.11143 1.17078C4.13567 1.15866 4.15748 1.14411 4.17929 1.132C4.2108 1.12473 4.24231 1.11503 4.27139 1.10534C4.27139 1.10534 4.27382 1.10534 4.27382 1.10291C4.29563 1.10291 4.31744 1.10049 4.33926 1.10049H4.35865C4.94276 1.09806 5.52687 1.10049 6.11098 1.10049H6.28791C6.54967 1.10049 6.77265 1.93014 6.77265 1.66838C6.77265 1.58113 6.7775 1.4963 6.78477 1.40904C6.78477 1.40662 6.78477 1.4042 6.78719 1.39935C6.79204 1.37754 6.79447 1.35572 6.79931 1.33391C6.81143 1.27089 6.8284 1.20545 6.84779 1.14486C6.85991 1.10366 6.87445 1.06245 6.88899 1.02125C6.89626 1.00429 6.94231 0.929151 6.90111 0.989744C6.88899 1.00429 6.88414 1.01156 6.88414 1.01398C6.88414 1.01156 6.9108 0.970354 6.91565 0.960659C6.9617 0.863711 7.01502 0.771611 7.07561 0.684357C7.08773 0.667391 7.09985 0.650426 7.11197 0.63346C7.11197 0.63346 7.11197 0.631036 7.11439 0.631036C7.14348 0.599528 7.17014 0.56802 7.1968 0.536512C7.23315 0.497733 7.26951 0.461377 7.30829 0.425022C7.32768 0.405632 7.40524 0.318379 7.42705 0.320802C7.41008 0.332921 7.39554 0.34504 7.37858 0.357158C7.39554 0.34504 7.41251 0.332921 7.42947 0.320802C7.44644 0.308684 7.46341 0.296566 7.4828 0.284447C7.52642 0.255363 7.57247 0.226278 7.61852 0.202041C7.65488 0.180228 7.69366 0.160838 7.73244 0.143872C7.74698 0.136601 7.82454 0.0857035 7.76152 0.12933C7.70093 0.172957 7.80272 0.114788 7.82211 0.107517C7.91422 0.073585 8.00874 0.0493481 8.10326 0.0275348C8.12508 0.0226874 8.14689 0.0202638 8.1687 0.0154164C8.17355 0.0154164 8.17597 0.0129926 8.1784 0.0129926C8.23172 0.00814525 8.28504 0.00329791 8.33836 0.000874208C8.42804 -0.00154949 8.52014 0.000874009 8.60982 0.0105688C8.61951 0.0105688 8.62921 0.0129926 8.6389 0.0129926C8.65587 0.0154163 8.67283 0.0202637 8.67768 0.0202637C8.73585 0.0323822 8.79402 0.0445008 8.85219 0.0614667C8.89824 0.0735852 8.94429 0.0881272 8.99034 0.105093C9.00973 0.112364 9.03154 0.122059 9.05093 0.12933C9.14545 0.177804 9.23998 0.226278 9.32966 0.284447C9.34662 0.296566 9.36601 0.308684 9.38298 0.320802C9.39267 0.328074 9.47023 0.393514 9.40964 0.340192C9.40479 0.335345 9.40237 0.332921 9.39994 0.330497C9.41933 0.34504 9.47023 0.39109 9.48235 0.403208C9.55991 0.473496 9.63019 0.551054 9.69806 0.628612C9.7126 0.652849 9.73199 0.674663 9.74653 0.6989C9.77804 0.747374 9.80955 0.795848 9.83863 0.846745C9.86772 0.897643 9.88711 0.950965 9.91619 0.999438C9.92589 1.0261 9.93558 1.05276 9.94528 1.08184C9.95739 1.11578 10.0592 1.41147 10.0325 1.43086C10.0325 1.43086 10.0277 1.38481 10.0253 1.36784C10.0253 1.37269 10.0253 1.38238 10.0277 1.39935C10.0301 1.43328 10.035 1.46721 10.0374 1.49872C10.0398 1.55447 10.0422 1.61021 10.0422 1.66353C10.0422 1.92529 10.2652 1.09564 10.527 1.09564H12.4174C12.4611 1.09564 12.512 1.10534 12.5556 1.10291C12.5726 1.10776 12.5895 1.11018 12.6065 1.11503C12.6065 1.11503 12.6235 1.11988 12.6404 1.12473C12.6453 1.12715 12.6477 1.12957 12.655 1.132C12.6744 1.14169 12.6913 1.15381 12.7107 1.1635C12.7204 1.16835 12.7277 1.17562 12.7374 1.18047C12.7422 1.18289 12.7471 1.18774 12.7495 1.18774C12.7689 1.20713 12.7883 1.22894 12.7955 1.23622C12.7955 1.23622 12.8052 1.24591 12.8149 1.2556C12.8174 1.26045 12.8222 1.26772 12.8246 1.27499C12.8343 1.29438 12.8464 1.31135 12.8561 1.33074C12.8634 1.34043 12.8658 1.34771 12.8707 1.35255C12.8804 1.38406 12.8876 1.43011 12.8925 1.43981C12.8949 1.44708 12.8973 1.45435 12.8973 1.4592C12.8973 1.46889 12.8973 1.47616 12.8973 1.48343C12.8973 1.48586 12.8973 1.48828 12.8973 1.4907C12.8973 1.49313 12.8973 1.49313 12.8973 1.49555C12.8973 1.49797 12.8973 1.50282 12.8973 1.50525C12.8973 1.63855 12.8973 1.77185 12.8973 1.90516C12.8998 2.03604 12.8998 2.15722 12.8998 2.27841Z" fill="white"/>
</svg>
