<svg width="23" height="29" viewBox="0 0 23 29" fill="none" xmlns="http://www.w3.org/2000/svg">
<path d="M8.54901 10.848C11.5446 10.848 13.973 8.41961 13.973 5.42401C13.973 2.42841 11.5446 0 8.54901 0C5.55341 0 3.125 2.42841 3.125 5.42401C3.125 8.41961 5.55341 10.848 8.54901 10.848Z" fill="white"/>
<path d="M17.6831 18.4187C14.7608 18.4187 12.3916 20.7879 12.3916 23.7102C12.3916 26.6324 14.76 29 17.6831 29C20.6037 29 22.9729 26.6324 22.9729 23.7102C22.9729 20.7879 20.6037 18.4187 17.6831 18.4187ZM18.818 25.9928C18.6133 26.2536 18.31 26.4073 17.9125 26.4558V27.081H17.4682V26.4473C17.1904 26.4107 16.9576 26.3241 16.7707 26.1865C16.5839 26.0505 16.4055 25.8781 16.2381 25.6708L16.8107 25.145C16.8778 25.2197 16.9423 25.2928 17.0052 25.3625C17.0681 25.4321 17.1352 25.4916 17.2057 25.5451C17.2762 25.5969 17.3552 25.6377 17.4401 25.6666C17.5259 25.6963 17.6236 25.7116 17.7324 25.7116C17.9227 25.7116 18.0654 25.6487 18.1614 25.5222C18.2574 25.3981 18.3058 25.2435 18.3058 25.0626C18.3058 24.8714 18.2557 24.7092 18.1571 24.5716C18.0586 24.434 17.9354 24.3057 17.7884 24.1885C17.6415 24.0712 17.4818 23.9548 17.3102 23.8402C17.1377 23.7255 16.9772 23.5964 16.8294 23.4519C16.6815 23.3075 16.5584 23.1402 16.4581 22.9507C16.3596 22.7613 16.3103 22.5328 16.3103 22.2652C16.3103 22.0843 16.3358 21.9135 16.3885 21.7555C16.4411 21.5975 16.515 21.4565 16.6153 21.3291C16.7138 21.2033 16.8362 21.0972 16.9823 21.0139C17.1275 20.929 17.2898 20.8729 17.469 20.8466V20.3386H17.9125V20.8466C18.1529 20.8797 18.3584 20.9442 18.5283 21.0436C18.6974 21.1413 18.8622 21.2772 19.0193 21.4514L18.4536 22.0002C18.355 21.8744 18.2472 21.7725 18.1299 21.6969C18.0118 21.6204 17.8717 21.5839 17.7086 21.5839C17.5157 21.5839 17.3688 21.64 17.2643 21.7547C17.1598 21.8693 17.108 22.0214 17.108 22.2074C17.108 22.4181 17.1785 22.6059 17.3204 22.7647C17.4138 22.8624 17.5191 22.9507 17.6364 23.0272C17.7545 23.1037 17.8674 23.1801 17.977 23.2574C18.1418 23.3721 18.2956 23.4876 18.4374 23.6023C18.5793 23.717 18.7008 23.8444 18.8019 23.9803C18.9038 24.1163 18.982 24.2675 19.0397 24.4348C19.0967 24.6005 19.1264 24.7933 19.1264 25.0142C19.1264 25.4058 19.0236 25.7328 18.818 25.9928Z" fill="white"/>
<path d="M16.8871 17.5165C16.323 15.3698 14.7047 14.1253 13.5341 13.4814C13.5324 13.4797 13.5307 13.4797 13.529 13.478C13.3337 13.3701 13.1468 13.2741 12.9828 13.1993C12.959 13.1874 12.9336 13.1781 12.9089 13.1679C12.5029 12.9853 12.2327 12.9037 12.2327 12.9037L12.231 12.9071C12.1716 12.8859 12.1095 12.8706 12.0492 12.851L10.3384 18.2105C10.1489 17.2565 9.91106 16.2193 9.63752 15.3868C10.2585 15.2577 10.7257 14.7063 10.7257 14.048C10.7257 13.2911 10.1132 12.6794 9.35719 12.6794H7.73635C6.9803 12.6794 6.36867 13.2919 6.36867 14.048C6.36867 14.7429 6.88941 15.312 7.56221 15.3987C7.26998 16.2932 7.01768 17.4179 6.82315 18.4237L5.04516 12.8519C4.984 12.8714 4.92283 12.8867 4.86252 12.908L4.86167 12.9046C4.86167 12.9046 4.59153 12.9861 4.18547 13.1688C4.16084 13.1789 4.13535 13.1883 4.11072 13.2002C3.94846 13.2749 3.76158 13.3709 3.56534 13.4788C3.56364 13.4805 3.5611 13.4805 3.5594 13.4822C2.1212 14.2739 0.00341848 15.9729 0.00341848 19.1432C0.00341848 20.7479 -0.0246147 22.712 0.079873 24.6021H11.5039C11.4622 24.3099 11.4325 24.0151 11.4325 23.711C11.4325 20.5279 13.8111 17.9081 16.8871 17.5165Z" fill="white"/>
</svg>
