<svg width="23" height="20" viewBox="0 0 23 20" fill="none" xmlns="http://www.w3.org/2000/svg">
<g clip-path="url(#clip0)">
<path d="M14.5147 14.8836V13.8174C15.9631 13.0148 17.1434 11.0155 17.1434 9.01496C17.1434 5.80345 17.1434 3.19934 13.2004 3.19934C9.25735 3.19934 9.25735 5.80345 9.25735 9.01496C9.25735 11.0155 10.4376 13.0148 11.886 13.8174V14.8836C7.42779 15.2415 4 17.3959 4 20H22.4007C22.4007 17.3959 18.9729 15.2415 14.5147 14.8836Z" fill="white"/>
<path d="M6.29194 15.2941C7.35537 14.5987 8.6785 14.0707 10.1346 13.7482C9.83808 13.3966 9.5771 13.0165 9.35545 12.6134C8.77806 11.579 8.47074 10.4157 8.46188 9.23114C8.46188 7.57692 8.46188 6.01378 9.05021 4.73496C9.62131 3.49429 10.649 2.72503 12.1125 2.43702C11.7875 0.966192 10.9211 0 8.61573 0C4.92327 0 4.92327 2.4801 4.92327 5.53868C4.92327 7.44399 6.02855 9.34807 7.38491 10.1124V11.1278C3.20997 11.4688 0 13.5205 0 16.0006H5.36514C5.64453 15.752 5.95347 15.5169 6.29194 15.2954V15.2941Z" fill="white"/>
</g>
<defs>
<clipPath id="clip0">
<rect width="22.4009" height="20" fill="white"/>
</clipPath>
</defs>
</svg>
