<svg width="22" height="20" viewBox="0 0 22 20" fill="none" xmlns="http://www.w3.org/2000/svg">
<g clip-path="url(#clip0)">
<path d="M14.9652 10.4266H14.8491V7.10946C14.8491 6.44119 13.9272 5.89935 12.7897 5.89935H8.96063C7.82312 5.89935 6.90066 6.44119 6.90066 7.10946V10.4266H6.78484H0V13.3497H1.44228V20H3.76624V18.7872H17.9824V20H20.3075V13.3497H21.7498V10.4266H14.9652Z" fill="white"/>
<path d="M10.8748 5.74955C12.4625 5.74955 13.7496 4.46247 13.7496 2.87478C13.7496 1.28708 12.4625 0 10.8748 0C9.28708 0 8 1.28708 8 2.87478C8 4.46247 9.28708 5.74955 10.8748 5.74955Z" fill="white"/>
</g>
<defs>
<clipPath id="clip0">
<rect width="21.7498" height="20" fill="white"/>
</clipPath>
</defs>
</svg>
