<svg width="20" height="22" viewBox="0 0 20 22" fill="none" xmlns="http://www.w3.org/2000/svg">
<path d="M1.90735e-05 9.12173C1.90735e-05 4.09198 4.48662 0 10.0005 0C15.5134 0 20 4.09198 20 9.12173C20 14.1515 15.5134 18.2426 10.0005 18.2426C9.40183 18.2426 8.85778 18.1951 8.33342 18.1066L3.32067 21.021C3.26519 21.0532 3.20255 21.0693 3.14081 21.0693C3.07997 21.0693 3.01733 21.0532 2.96275 21.0219C2.85179 20.9583 2.78378 20.8402 2.78289 20.7123L2.76857 15.3971C0.985209 13.7121 1.90735e-05 11.4921 1.90735e-05 9.12173ZM3.49606 20.0921L8.0784 17.4274C8.09182 17.4193 8.10703 17.4184 8.12135 17.4131C8.1464 17.4023 8.17056 17.3925 8.19741 17.3871C8.22246 17.3827 8.24662 17.3844 8.27168 17.3853C8.28868 17.3862 8.30568 17.3809 8.32268 17.3844C8.84436 17.4802 9.39288 17.5276 9.99956 17.5276C15.1188 17.5276 19.2824 13.7569 19.2824 9.12173C19.2824 4.4866 15.1188 0.715851 9.99956 0.715851C4.88033 0.715851 0.71587 4.4866 0.71587 9.12173C0.71587 11.3418 1.65721 13.4249 3.36631 14.9872C3.3681 14.989 3.36899 14.9917 3.37078 14.9935C3.39315 15.0141 3.40836 15.0409 3.42447 15.0669C3.43252 15.0803 3.44505 15.0919 3.45131 15.1062C3.46116 15.1277 3.46295 15.1519 3.46832 15.1751C3.47279 15.1975 3.48084 15.219 3.48174 15.2414C3.48174 15.2449 3.48353 15.2476 3.48353 15.2503L3.49606 20.0921Z" fill="#EFD80A"/>
<path d="M8.91 3.38586H11.0889V5.40188H8.91V3.38586Z" fill="#8D8C80"/>
<path d="M8.91 6.51855H11.0889V14.7526H8.91V6.51855Z" fill="#8D8C80"/>
</svg>
