<svg width="23" height="22" viewBox="0 0 23 22" fill="none" xmlns="http://www.w3.org/2000/svg">
<path d="M13.4408 0.102621C13.332 0.014277 13.1889 -0.0194964 13.0521 0.0109684L1.1355 2.76097C0.92577 2.80918 0.777786 2.99678 0.779806 3.21197V18.7953C0.779892 19.0214 0.944934 19.2138 1.16846 19.2481L13.0851 21.0815C13.3353 21.1199 13.5693 20.9483 13.6078 20.6982C13.6113 20.6752 13.6131 20.6519 13.6131 20.6287V0.461968C13.6135 0.322191 13.5501 0.18989 13.4408 0.102621Z" fill="#4CAF50"/>
<path d="M22.3216 19.2535H13.1549C12.9018 19.2535 12.6965 19.0483 12.6965 18.7952C12.6965 18.5421 12.9018 18.3369 13.1549 18.3369H21.8632V2.75357H13.1549C12.9018 2.75357 12.6965 2.54835 12.6965 2.29522C12.6965 2.04209 12.9018 1.83691 13.1549 1.83691H22.3215C22.5747 1.83691 22.7799 2.04213 22.7799 2.29526V18.7952C22.7799 19.0484 22.5747 19.2535 22.3216 19.2535Z" fill="#4CAF50"/>
<path d="M9.48807 14.6703C9.33003 14.6703 9.18317 14.5889 9.09942 14.4549L4.51608 7.12157C4.37518 6.91129 4.43147 6.62658 4.64176 6.48568C4.85205 6.34479 5.13676 6.40108 5.27765 6.61136C5.2832 6.61961 5.28844 6.62804 5.29342 6.63663L9.87677 13.97C10.0104 14.1849 9.94449 14.4675 9.72951 14.6012C9.65702 14.6463 9.57341 14.6702 9.48807 14.6703Z" fill="#FAFAFA"/>
<path d="M4.90467 14.6703C4.65154 14.6698 4.44675 14.4642 4.44727 14.211C4.44744 14.1254 4.47159 14.0416 4.51692 13.969L9.10026 6.63569C9.22719 6.41668 9.50765 6.34204 9.72662 6.46897C9.94563 6.5959 10.0203 6.87635 9.89334 7.09532C9.88835 7.10392 9.88311 7.11234 9.87757 7.12059L5.29427 14.4539C5.21056 14.5886 5.06322 14.6704 4.90467 14.6703Z" fill="#FAFAFA"/>
<path d="M16.8216 19.2536C16.5685 19.2536 16.3633 19.0484 16.3633 18.7952V2.29526C16.3633 2.04213 16.5685 1.83691 16.8216 1.83691C17.0748 1.83691 17.28 2.04213 17.28 2.29526V18.7952C17.2799 19.0484 17.0748 19.2536 16.8216 19.2536Z" fill="#4CAF50"/>
<path d="M22.3216 16.5036H13.1549C12.9018 16.5036 12.6965 16.2984 12.6965 16.0453C12.6965 15.7921 12.9018 15.5869 13.1549 15.5869H22.3215C22.5747 15.5869 22.7799 15.7921 22.7799 16.0453C22.7799 16.2984 22.5747 16.5036 22.3216 16.5036Z" fill="#4CAF50"/>
<path d="M22.3216 13.7536H13.1549C12.9018 13.7536 12.6965 13.5484 12.6965 13.2953C12.6965 13.0421 12.9018 12.8369 13.1549 12.8369H22.3215C22.5747 12.8369 22.7799 13.0421 22.7799 13.2953C22.7799 13.5484 22.5747 13.7536 22.3216 13.7536Z" fill="#4CAF50"/>
<path d="M22.3216 11.0036H13.1549C12.9018 11.0036 12.6965 10.7984 12.6965 10.5453C12.6965 10.2921 12.9018 10.0869 13.1549 10.0869H22.3215C22.5747 10.0869 22.7799 10.2921 22.7799 10.5453C22.7799 10.7984 22.5747 11.0036 22.3216 11.0036Z" fill="#4CAF50"/>
<path d="M22.3216 8.25361H13.1549C12.9018 8.25361 12.6965 8.04839 12.6965 7.79526C12.6965 7.54213 12.9018 7.33691 13.1549 7.33691H22.3215C22.5747 7.33691 22.7799 7.54213 22.7799 7.79526C22.7799 8.04839 22.5747 8.25361 22.3216 8.25361Z" fill="#4CAF50"/>
<path d="M22.3216 5.50361H13.1549C12.9018 5.50361 12.6965 5.29839 12.6965 5.04526C12.6965 4.79213 12.9018 4.58691 13.1549 4.58691H22.3215C22.5747 4.58691 22.7799 4.79213 22.7799 5.04526C22.7799 5.29843 22.5747 5.50361 22.3216 5.50361Z" fill="#4CAF50"/>
</svg>
