<svg width="19" height="21" viewBox="0 0 19 21" fill="none" xmlns="http://www.w3.org/2000/svg">
<path d="M1.77573 16.7334L1.77583 16.7333L7.35598 15.2053L7.35599 15.2054L7.3583 15.2047C7.45658 15.1752 7.54758 15.1251 7.62399 15.0487L16.6189 6.05381C17.422 5.25076 17.422 3.94225 16.6189 3.1392L14.6267 1.14274L14.6266 1.14267C13.8236 0.339618 12.5151 0.339618 11.712 1.14267L2.71707 10.1376C2.64066 10.214 2.59063 10.305 2.56115 10.4033L2.56112 10.4033L2.56048 10.4056L1.03248 15.99L1.03247 15.99L1.0322 15.9911C0.977137 16.2013 1.03209 16.424 1.18907 16.581C1.30192 16.6938 1.45876 16.7538 1.61435 16.7538C1.66759 16.7538 1.71893 16.7488 1.77573 16.7334ZM7.20294 13.756L4.00978 10.5629L10.356 4.21663L13.5492 7.40979L7.20294 13.756ZM12.571 2.00166C12.9034 1.66926 13.4395 1.66926 13.7718 2.00166L15.7642 3.99397C16.0965 4.32636 16.0965 4.86243 15.7642 5.19482L14.4082 6.5508L11.215 3.35764L12.571 2.00166ZM2.47905 15.2825L3.45497 11.726L6.03555 14.3066L2.47905 15.2825Z" fill="#DEE5EA" stroke="#DEE5EA" stroke-width="0.2"/>
<path d="M17.8103 19.4367H1.25554C0.921728 19.4367 0.649023 19.7094 0.649023 20.0432C0.649023 20.377 0.921728 20.6497 1.25554 20.6497H17.8103C18.1441 20.6497 18.4168 20.377 18.4168 20.0432C18.4168 19.7094 18.1441 19.4367 17.8103 19.4367Z" fill="#DEE5EA" stroke="#DEE5EA" stroke-width="0.2"/>
</svg>
