<svg width="22" height="23" viewBox="0 0 22 23" fill="none" xmlns="http://www.w3.org/2000/svg">
<path d="M20.2044 10.4971C20.5095 10.4971 20.7569 10.2497 20.7569 9.94461C20.7569 9.63948 20.5095 9.39212 20.2044 9.39212C19.8993 9.39212 19.6519 9.63948 19.6519 9.94461C19.6519 10.2497 19.8993 10.4971 20.2044 10.4971Z" fill="#DEE5EA"/>
<path d="M19.4971 8.44185C19.8023 8.44185 20.0496 8.19449 20.0496 7.88936C20.0496 7.58424 19.8023 7.33688 19.4971 7.33688C19.192 7.33688 18.9446 7.58424 18.9446 7.88936C18.9446 8.19449 19.192 8.44185 19.4971 8.44185Z" fill="#DEE5EA"/>
<path d="M18.1713 6.5192C18.4764 6.5192 18.7238 6.27185 18.7238 5.96672C18.7238 5.66159 18.4764 5.41423 18.1713 5.41423C17.8662 5.41423 17.6188 5.66159 17.6188 5.96672C17.6188 6.27185 17.8662 6.5192 18.1713 6.5192Z" fill="#DEE5EA"/>
<path d="M16.3149 4.86175C16.6201 4.86175 16.8674 4.61439 16.8674 4.30926C16.8674 4.00413 16.6201 3.75678 16.3149 3.75678C16.0098 3.75678 15.7625 4.00413 15.7625 4.30926C15.7625 4.61439 16.0098 4.86175 16.3149 4.86175Z" fill="#DEE5EA"/>
<path d="M14.127 3.69048C14.4321 3.69048 14.6795 3.44312 14.6795 3.138C14.6795 2.83287 14.4321 2.58551 14.127 2.58551C13.8219 2.58551 13.5745 2.83287 13.5745 3.138C13.5745 3.44312 13.8219 3.69048 14.127 3.69048Z" fill="#DEE5EA"/>
<path d="M9.46987 1.20143C9.30861 1.44659 9.34535 1.79698 9.59401 1.98941C4.3971 2.57428 0.341699 6.9845 0.341699 12.3092C0.341699 18.0495 5.00553 22.7134 10.7458 22.7134C16.4861 22.7134 21.1499 18.0495 21.1499 12.3092C21.1499 11.9833 20.8839 11.7173 20.558 11.7173C20.2367 11.7173 19.9439 11.9787 19.9439 12.3313C19.9439 17.3977 15.8121 21.5294 10.7458 21.5294C5.67973 21.5294 1.54777 17.3979 1.54777 12.3092C1.54777 7.634 5.06546 3.74668 9.60537 3.18198C9.35319 3.38629 9.29439 3.76085 9.50035 4.02566L9.50034 4.02567L9.50162 4.02728C9.61628 4.17061 9.79077 4.26037 9.97234 4.26037C10.072 4.26037 10.2271 4.23781 10.3355 4.13587L11.8314 2.99196L11.8314 2.99198L11.834 2.98993C11.9804 2.8728 12.0671 2.69695 12.0671 2.49711C12.0671 2.28697 11.949 2.10851 11.7985 2.01676L10.2986 1.02424C10.2986 1.0242 10.2985 1.02416 10.2985 1.02412C10.0362 0.849395 9.65144 0.902759 9.46987 1.20143Z" fill="#DEE5EA" stroke="#DEE5EA" stroke-width="0.3"/>
<path d="M9.98956 16.7679H9.85946L9.84107 16.8966C9.84015 16.903 9.8392 16.9095 9.83824 16.9162C9.83075 16.9674 9.82232 17.0251 9.82232 17.0902C9.82232 17.6471 10.2773 18.1021 10.8342 18.1021C11.3911 18.1021 11.8461 17.6471 11.8461 17.0902C11.8461 17.0251 11.8376 16.9674 11.8302 16.9162C11.8292 16.9095 11.8282 16.903 11.8273 16.8966L11.8089 16.7679H11.6788H9.98956Z" fill="#DEE5EA" stroke="#DEE5EA" stroke-width="0.3"/>
<path d="M8.37302 14.919C8.28769 15.0838 8.18488 15.2412 8.06692 15.3889L8.37302 14.919ZM8.37302 14.919C8.60816 14.4756 8.73491 13.9777 8.73491 13.4703V10.0228V10.0225V10.0221V10.0218V10.0214V10.0211V10.0207V10.0204V10.02V10.0197V10.0193V10.019V10.0186V10.0183V10.0179V10.0176V10.0172V10.0169V10.0165V10.0162V10.0158V10.0155V10.0151V10.0148V10.0144V10.0141V10.0137V10.0134V10.013V10.0127V10.0123V10.012V10.0116V10.0113V10.0109V10.0106V10.0102V10.0099V10.0095V10.0092V10.0089V10.0085V10.0082V10.0078V10.0075V10.0071V10.0068V10.0064V10.0061V10.0057V10.0054V10.0051V10.0047V10.0044V10.004V10.0037V10.0033V10.003V10.0026V10.0023V10.002V10.0016V10.0013V10.0009V10.0006V10.0002V9.9999V9.99956V9.99922V9.99888V9.99854V9.99819V9.99785V9.99751V9.99717V9.99683V9.99649V9.99615V9.99581V9.99547V9.99513V9.99479V9.99445V9.99411V9.99377V9.99343V9.99309V9.99275V9.99241V9.99207V9.99173V9.99139V9.99106V9.99072V9.99038V9.99004V9.9897V9.98936V9.98903V9.98869V9.98835V9.98801V9.98767V9.98734V9.987V9.98666V9.98633V9.98599V9.98565V9.98532V9.98498V9.98464V9.98431V9.98397V9.98363V9.9833V9.98296V9.98263V9.98229V9.98196V9.98162V9.98129V9.98095V9.98061V9.98028V9.97994V9.97961V9.97928V9.97894V9.97861V9.97827V9.97794V9.9776V9.97727V9.97693V9.9766V9.97627V9.97593V9.9756V9.97527V9.97493V9.9746V9.97427V9.97393V9.9736V9.97327V9.97293V9.9726V9.97227V9.97194V9.9716V9.97127V9.97094V9.97061V9.97027V9.96994V9.96961V9.96928V9.96894V9.96861V9.96828V9.96795V9.96762V9.96729V9.96695V9.96662V9.96629V9.96596V9.96563V9.9653V9.96497V9.96463V9.9643V9.96397V9.96364V9.96331V9.96298V9.96265V9.96232V9.96199V9.96166V9.96133V9.961V9.96067V9.96034V9.96001V9.95968V9.95935V9.95902V9.95869V9.95836V9.95803V9.9577V9.95737V9.95704V9.95671V9.95638V9.95605V9.95572V9.95539V9.95506V9.95473V9.9544V9.95407V9.95374V9.95341V9.95308V9.95275V9.95243V9.9521V9.95177V9.95144V9.95111V9.95078V9.95045V9.95012V9.94979V9.94946V9.94914V9.94881V9.94848V9.94815V9.94782V9.94749V9.94716V9.94683V9.94651V9.94618V9.94585V9.94552V9.94519V9.94486V9.94453V9.94421V9.94388V9.94355V9.94322V9.94289V9.94256V9.94224V9.94191V9.94158V9.94125V9.94092V9.94059V9.94027V9.93994V9.93961V9.93928V9.93895V9.93862V9.9383V9.93797V9.93764V9.93731V9.93698V9.93665V9.93633V9.936V9.93567V9.93534V9.93501V9.93469V9.93436V9.93403V9.9337V9.93337V9.93304V9.93272V9.93239V9.93206V9.93173V9.9314V9.93107V9.93075V9.93042V9.93009V9.92976V9.92943V9.9291V9.92877V9.92845V9.92812V9.92779V9.92746V9.92713V9.9268V9.92648V9.92615V9.92582V9.92549V9.92516V9.92483V9.9245V9.92417V9.92384V9.92352V9.92319V9.92286V9.92253V9.9222V9.92187V9.92154V9.92121V9.92088V9.92056V9.92023V9.9199V9.91957V9.91924V9.91891V9.91858V9.91825V9.91792V9.91759V9.91726V9.91693V9.9166V9.91627V9.91594V9.91561V9.91528V9.91495V9.91462V9.91429V9.91396V9.91363V9.9133V9.91297V9.91264V9.91231V9.91198V9.91165V9.91132V9.91099V9.91066V9.91033V9.91V9.90967V9.90934V9.90901V9.90867V9.90834V9.90801V9.90768V9.90735V9.90702V9.90669V9.90635V9.90602V9.90569V9.90536V9.90503V9.9047V9.90436V9.90403V9.9037V9.90337V9.90304V9.9027V9.90237V9.90204V9.90171V9.90137V9.90104V9.90071V9.90038V9.90004V9.89971V9.89938V9.89904V9.89871V9.89838V9.89804V9.89771V9.89738V9.89704V9.89671V9.89637V9.89604V9.89571V9.89537V9.89504V9.8947V9.89437V9.89403V9.8937V9.89336V9.89303V9.89269V9.89236V9.89202V9.89169V9.89135V9.89102V9.89068V9.89035V9.89001V9.88967V9.88934V9.889V9.88867V9.88833V9.88799V9.88766V9.88732V9.88698V9.88665V9.88631V9.88597V9.88563V9.8853V9.88496V9.88462V9.88428V9.88395V9.88361V9.88327V9.88293V9.88259V9.88225V9.88192V9.88158V9.88124V9.8809V9.88056V9.88022V9.87988V9.87954V9.8792V9.87886V9.87852V9.87818V9.87784V9.8775V9.87716V9.87682V9.87648V9.87614V9.8758V9.87546V9.87511V9.87477V9.87443V9.87409V9.87375V9.87341V9.87306V9.87272V9.87238V9.87204V9.87169V9.87135V9.87101V9.87066V9.87032V9.86998V9.86963V9.86929V9.86894V9.8686V9.86826V9.86791V9.86757V9.86722V9.86688V9.86653V9.86619V9.86584V9.8655V9.86515V9.8648V9.86446V9.86411V9.86376V9.86342V9.86307V9.86272V9.86238V9.86203V9.86168V9.86133V9.86099V9.86064V9.86029V9.85994V9.85959V9.85924V9.8589V9.85855V9.8582V9.85785V9.8575V9.85715V9.8568V9.85645V9.8561V9.85575V9.8554V9.85505V9.85469V9.85434V9.85399V9.85364V9.85329V9.85294V9.85258V9.85223V9.85188V9.85153V9.85117V9.85082V9.85047C8.73491 8.69221 9.66753 7.75959 10.8258 7.75959C11.984 7.75959 12.9167 8.69221 12.9167 9.85047V9.85082V9.85117V9.85153V9.85188V9.85223V9.85258V9.85294V9.85329V9.85364V9.85399V9.85434V9.85469V9.85505V9.8554V9.85575V9.8561V9.85645V9.8568V9.85715V9.8575V9.85785V9.8582V9.85855V9.8589V9.85924V9.85959V9.85994V9.86029V9.86064V9.86099V9.86133V9.86168V9.86203V9.86238V9.86272V9.86307V9.86342V9.86376V9.86411V9.86446V9.8648V9.86515V9.8655V9.86584V9.86619V9.86653V9.86688V9.86722V9.86757V9.86791V9.86826V9.8686V9.86894V9.86929V9.86963V9.86998V9.87032V9.87066V9.87101V9.87135V9.87169V9.87204V9.87238V9.87272V9.87306V9.87341V9.87375V9.87409V9.87443V9.87477V9.87511V9.87546V9.8758V9.87614V9.87648V9.87682V9.87716V9.8775V9.87784V9.87818V9.87852V9.87886V9.8792V9.87954V9.87988V9.88022V9.88056V9.8809V9.88124V9.88158V9.88192V9.88225V9.88259V9.88293V9.88327V9.88361V9.88395V9.88428V9.88462V9.88496V9.8853V9.88563V9.88597V9.88631V9.88665V9.88698V9.88732V9.88766V9.88799V9.88833V9.88867V9.889V9.88934V9.88967V9.89001V9.89035V9.89068V9.89102V9.89135V9.89169V9.89202V9.89236V9.89269V9.89303V9.89336V9.8937V9.89403V9.89437V9.8947V9.89504V9.89537V9.89571V9.89604V9.89637V9.89671V9.89704V9.89738V9.89771V9.89804V9.89838V9.89871V9.89904V9.89938V9.89971V9.90004V9.90038V9.90071V9.90104V9.90137V9.90171V9.90204V9.90237V9.9027V9.90304V9.90337V9.9037V9.90403V9.90436V9.9047V9.90503V9.90536V9.90569V9.90602V9.90635V9.90669V9.90702V9.90735V9.90768V9.90801V9.90834V9.90867V9.90901V9.90934V9.90967V9.91V9.91033V9.91066V9.91099V9.91132V9.91165V9.91198V9.91231V9.91264V9.91297V9.9133V9.91363V9.91396V9.91429V9.91462V9.91495V9.91528V9.91561V9.91594V9.91627V9.9166V9.91693V9.91726V9.91759V9.91792V9.91825V9.91858V9.91891V9.91924V9.91957V9.9199V9.92023V9.92056V9.92088V9.92121V9.92154V9.92187V9.9222V9.92253V9.92286V9.92319V9.92352V9.92384V9.92417V9.9245V9.92483V9.92516V9.92549V9.92582V9.92615V9.92648V9.9268V9.92713V9.92746V9.92779V9.92812V9.92845V9.92877V9.9291V9.92943V9.92976V9.93009V9.93042V9.93075V9.93107V9.9314V9.93173V9.93206V9.93239V9.93272V9.93304V9.93337V9.9337V9.93403V9.93436V9.93469V9.93501V9.93534V9.93567V9.936V9.93633V9.93665V9.93698V9.93731V9.93764V9.93797V9.9383V9.93862V9.93895V9.93928V9.93961V9.93994V9.94027V9.94059V9.94092V9.94125V9.94158V9.94191V9.94224V9.94256V9.94289V9.94322V9.94355V9.94388V9.94421V9.94453V9.94486V9.94519V9.94552V9.94585V9.94618V9.94651V9.94683V9.94716V9.94749V9.94782V9.94815V9.94848V9.94881V9.94914V9.94946V9.94979V9.95012V9.95045V9.95078V9.95111V9.95144V9.95177V9.9521V9.95243V9.95275V9.95308V9.95341V9.95374V9.95407V9.9544V9.95473V9.95506V9.95539V9.95572V9.95605V9.95638V9.95671V9.95704V9.95737V9.9577V9.95803V9.95836V9.95869V9.95902V9.95935V9.95968V9.96001V9.96034V9.96067V9.961V9.96133V9.96166V9.96199V9.96232V9.96265V9.96298V9.96331V9.96364V9.96397V9.9643V9.96463V9.96497V9.9653V9.96563V9.96596V9.96629V9.96662V9.96695V9.96729V9.96762V9.96795V9.96828V9.96861V9.96894V9.96928V9.96961V9.96994V9.97027V9.97061V9.97094V9.97127V9.9716V9.97194V9.97227V9.9726V9.97293V9.97327V9.9736V9.97393V9.97427V9.9746V9.97493V9.97527V9.9756V9.97593V9.97627V9.9766V9.97693V9.97727V9.9776V9.97794V9.97827V9.97861V9.97894V9.97928V9.97961V9.97994V9.98028V9.98061V9.98095V9.98129V9.98162V9.98196V9.98229V9.98263V9.98296V9.9833V9.98363V9.98397V9.98431V9.98464V9.98498V9.98532V9.98565V9.98599V9.98633V9.98666V9.987V9.98734V9.98767V9.98801V9.98835V9.98869V9.98903V9.98936V9.9897V9.99004V9.99038V9.99072V9.99106V9.99139V9.99173V9.99207V9.99241V9.99275V9.99309V9.99343V9.99377V9.99411V9.99445V9.99479V9.99513V9.99547V9.99581V9.99615V9.99649V9.99683V9.99717V9.99751V9.99785V9.99819V9.99854V9.99888V9.99922V9.99956V9.9999V10.0002V10.0006V10.0009V10.0013V10.0016V10.002V10.0023V10.0026V10.003V10.0033V10.0037V10.004V10.0044V10.0047V10.0051V10.0054V10.0057V10.0061V10.0064V10.0068V10.0071V10.0075V10.0078V10.0082V10.0085V10.0089V10.0092V10.0095V10.0099V10.0102V10.0106V10.0109V10.0113V10.0116V10.012V10.0123V10.0127V10.013V10.0134V10.0137V10.0141V10.0144V10.0148V10.0151V10.0155V10.0158V10.0162V10.0165V10.0169V10.0172V10.0176V10.0179V10.0183V10.0186V10.019V10.0193V10.0197V10.02V10.0204V10.0207V10.0211V10.0214V10.0218V10.0221V10.0225V10.0228L8.37302 14.919ZM14.8103 14.7433L14.8104 14.7432L14.8065 14.7396C14.4582 14.4151 14.2595 13.9552 14.2595 13.4703V10.0228V10.0225V10.0221V10.0218V10.0214V10.0211V10.0207V10.0204V10.02V10.0197V10.0193V10.019V10.0186V10.0183V10.0179V10.0176V10.0172V10.0169V10.0165V10.0162V10.0158V10.0155V10.0151V10.0148V10.0144V10.0141V10.0137V10.0134V10.013V10.0127V10.0123V10.012V10.0116V10.0113V10.0109V10.0106V10.0102V10.0099V10.0095V10.0092V10.0089V10.0085V10.0082V10.0078V10.0075V10.0071V10.0068V10.0064V10.0061V10.0057V10.0054V10.0051V10.0047V10.0044V10.004V10.0037V10.0033V10.003V10.0026V10.0023V10.002V10.0016V10.0013V10.0009V10.0006V10.0002V9.9999V9.99956V9.99922V9.99888V9.99854V9.99819V9.99785V9.99751V9.99717V9.99683V9.99649V9.99615V9.99581V9.99547V9.99513V9.99479V9.99445V9.99411V9.99377V9.99343V9.99309V9.99275V9.99241V9.99207V9.99173V9.99139V9.99106V9.99072V9.99038V9.99004V9.9897V9.98936V9.98903V9.98869V9.98835V9.98801V9.98767V9.98734V9.987V9.98666V9.98633V9.98599V9.98565V9.98532V9.98498V9.98464V9.98431V9.98397V9.98363V9.9833V9.98296V9.98263V9.98229V9.98196V9.98162V9.98129V9.98095V9.98061V9.98028V9.97994V9.97961V9.97928V9.97894V9.97861V9.97827V9.97794V9.9776V9.97727V9.97693V9.9766V9.97627V9.97593V9.9756V9.97527V9.97493V9.9746V9.97427V9.97393V9.9736V9.97327V9.97293V9.9726V9.97227V9.97194V9.9716V9.97127V9.97094V9.97061V9.97027V9.96994V9.96961V9.96928V9.96894V9.96861V9.96828V9.96795V9.96762V9.96729V9.96695V9.96662V9.96629V9.96596V9.96563V9.9653V9.96497V9.96463V9.9643V9.96397V9.96364V9.96331V9.96298V9.96265V9.96232V9.96199V9.96166V9.96133V9.961V9.96067V9.96034V9.96001V9.95968V9.95935V9.95902V9.95869V9.95836V9.95803V9.9577V9.95737V9.95704V9.95671V9.95638V9.95605V9.95572V9.95539V9.95506V9.95473V9.9544V9.95407V9.95374V9.95341V9.95308V9.95275V9.95243V9.9521V9.95177V9.95144V9.95111V9.95078V9.95045V9.95012V9.94979V9.94946V9.94914V9.94881V9.94848V9.94815V9.94782V9.94749V9.94716V9.94683V9.94651V9.94618V9.94585V9.94552V9.94519V9.94486V9.94453V9.94421V9.94388V9.94355V9.94322V9.94289V9.94256V9.94224V9.94191V9.94158V9.94125V9.94092V9.94059V9.94027V9.93994V9.93961V9.93928V9.93895V9.93862V9.9383V9.93797V9.93764V9.93731V9.93698V9.93665V9.93633V9.936V9.93567V9.93534V9.93501V9.93469V9.93436V9.93403V9.9337V9.93337V9.93304V9.93272V9.93239V9.93206V9.93173V9.9314V9.93107V9.93075V9.93042V9.93009V9.92976V9.92943V9.9291V9.92877V9.92845V9.92812V9.92779V9.92746V9.92713V9.9268V9.92648V9.92615V9.92582V9.92549V9.92516V9.92483V9.9245V9.92417V9.92384V9.92352V9.92319V9.92286V9.92253V9.9222V9.92187V9.92154V9.92121V9.92088V9.92056V9.92023V9.9199V9.91957V9.91924V9.91891V9.91858V9.91825V9.91792V9.91759V9.91726V9.91693V9.9166V9.91627V9.91594V9.91561V9.91528V9.91495V9.91462V9.91429V9.91396V9.91363V9.9133V9.91297V9.91264V9.91231V9.91198V9.91165V9.91132V9.91099V9.91066V9.91033V9.91V9.90967V9.90934V9.90901V9.90867V9.90834V9.90801V9.90768V9.90735V9.90702V9.90669V9.90635V9.90602V9.90569V9.90536V9.90503V9.9047V9.90436V9.90403V9.9037V9.90337V9.90304V9.9027V9.90237V9.90204V9.90171V9.90137V9.90104V9.90071V9.90038V9.90004V9.89971V9.89938V9.89904V9.89871V9.89838V9.89804V9.89771V9.89738V9.89704V9.89671V9.89637V9.89604V9.89571V9.89537V9.89504V9.8947V9.89437V9.89403V9.8937V9.89336V9.89303V9.89269V9.89236V9.89202V9.89169V9.89135V9.89102V9.89068V9.89035V9.89001V9.88967V9.88934V9.889V9.88867V9.88833V9.88799V9.88766V9.88732V9.88698V9.88665V9.88631V9.88597V9.88563V9.8853V9.88496V9.88462V9.88428V9.88395V9.88361V9.88327V9.88293V9.88259V9.88225V9.88192V9.88158V9.88124V9.8809V9.88056V9.88022V9.87988V9.87954V9.8792V9.87886V9.87852V9.87818V9.87784V9.8775V9.87716V9.87682V9.87648V9.87614V9.8758V9.87546V9.87511V9.87477V9.87443V9.87409V9.87375V9.87341V9.87306V9.87272V9.87238V9.87204V9.87169V9.87135V9.87101V9.87066V9.87032V9.86998V9.86963V9.86929V9.86894V9.8686V9.86826V9.86791V9.86757V9.86722V9.86688V9.86653V9.86619V9.86584V9.8655V9.86515V9.8648V9.86446V9.86411V9.86376V9.86342V9.86307V9.86272V9.86238V9.86203V9.86168V9.86133V9.86099V9.86064V9.86029V9.85994V9.85959V9.85924V9.8589V9.85855V9.8582V9.85785V9.8575V9.85715V9.8568V9.85645V9.8561V9.85575V9.8554V9.85505V9.85469V9.85434V9.85399V9.85364V9.85329V9.85294V9.85258V9.85223V9.85188V9.85153V9.85117V9.85082V9.85047C14.2595 8.34581 13.2718 7.01244 11.8397 6.58082C11.7822 6.07773 11.3524 5.68412 10.8344 5.68412C10.3165 5.68412 9.88665 6.07773 9.82908 6.58082C8.39705 7.01245 7.40928 8.34581 7.40928 9.85047V9.85082V9.85117V9.85153V9.85188V9.85223V9.85258V9.85294V9.85329V9.85364V9.85399V9.85434V9.85469V9.85505V9.8554V9.85575V9.8561V9.85645V9.8568V9.85715V9.8575V9.85785V9.8582V9.85855V9.8589V9.85924V9.85959V9.85994V9.86029V9.86064V9.86099V9.86133V9.86168V9.86203V9.86238V9.86272V9.86307V9.86342V9.86376V9.86411V9.86446V9.8648V9.86515V9.8655V9.86584V9.86619V9.86653V9.86688V9.86722V9.86757V9.86791V9.86826V9.8686V9.86894V9.86929V9.86963V9.86998V9.87032V9.87066V9.87101V9.87135V9.87169V9.87204V9.87238V9.87272V9.87306V9.87341V9.87375V9.87409V9.87443V9.87477V9.87511V9.87546V9.8758V9.87614V9.87648V9.87682V9.87716V9.8775V9.87784V9.87818V9.87852V9.87886V9.8792V9.87954V9.87988V9.88022V9.88056V9.8809V9.88124V9.88158V9.88192V9.88225V9.88259V9.88293V9.88327V9.88361V9.88395V9.88428V9.88462V9.88496V9.8853V9.88563V9.88597V9.88631V9.88665V9.88698V9.88732V9.88766V9.88799V9.88833V9.88867V9.889V9.88934V9.88967V9.89001V9.89035V9.89068V9.89102V9.89135V9.89169V9.89202V9.89236V9.89269V9.89303V9.89336V9.8937V9.89403V9.89437V9.8947V9.89504V9.89537V9.89571V9.89604V9.89637V9.89671V9.89704V9.89738V9.89771V9.89804V9.89838V9.89871V9.89904V9.89938V9.89971V9.90004V9.90038V9.90071V9.90104V9.90137V9.90171V9.90204V9.90237V9.9027V9.90304V9.90337V9.9037V9.90403V9.90436V9.9047V9.90503V9.90536V9.90569V9.90602V9.90635V9.90669V9.90702V9.90735V9.90768V9.90801V9.90834V9.90867V9.90901V9.90934V9.90967V9.91V9.91033V9.91066V9.91099V9.91132V9.91165V9.91198V9.91231V9.91264V9.91297V9.9133V9.91363V9.91396V9.91429V9.91462V9.91495V9.91528V9.91561V9.91594V9.91627V9.9166V9.91693V9.91726V9.91759V9.91792V9.91825V9.91858V9.91891V9.91924V9.91957V9.9199V9.92023V9.92056V9.92088V9.92121V9.92154V9.92187V9.9222V9.92253V9.92286V9.92319V9.92352V9.92384V9.92417V9.9245V9.92483V9.92516V9.92549V9.92582V9.92615V9.92648V9.9268V9.92713V9.92746V9.92779V9.92812V9.92845V9.92877V9.9291V9.92943V9.92976V9.93009V9.93042V9.93075V9.93107V9.9314V9.93173V9.93206V9.93239V9.93272V9.93304V9.93337V9.9337V9.93403V9.93436V9.93469V9.93501V9.93534V9.93567V9.936V9.93633V9.93665V9.93698V9.93731V9.93764V9.93797V9.9383V9.93862V9.93895V9.93928V9.93961V9.93994V9.94027V9.94059V9.94092V9.94125V9.94158V9.94191V9.94224V9.94256V9.94289V9.94322V9.94355V9.94388V9.94421V9.94453V9.94486V9.94519V9.94552V9.94585V9.94618V9.94651V9.94683V9.94716V9.94749V9.94782V9.94815V9.94848V9.94881V9.94914V9.94946V9.94979V9.95012V9.95045V9.95078V9.95111V9.95144V9.95177V9.9521V9.95243V9.95275V9.95308V9.95341V9.95374V9.95407V9.9544V9.95473V9.95506V9.95539V9.95572V9.95605V9.95638V9.95671V9.95704V9.95737V9.9577V9.95803V9.95836V9.95869V9.95902V9.95935V9.95968V9.96001V9.96034V9.96067V9.961V9.96133V9.96166V9.96199V9.96232V9.96265V9.96298V9.96331V9.96364V9.96397V9.9643V9.96463V9.96497V9.9653V9.96563V9.96596V9.96629V9.96662V9.96695V9.96729V9.96762V9.96795V9.96828V9.96861V9.96894V9.96928V9.96961V9.96994V9.97027V9.97061V9.97094V9.97127V9.9716V9.97194V9.97227V9.9726V9.97293V9.97327V9.9736V9.97393V9.97427V9.9746V9.97493V9.97527V9.9756V9.97593V9.97627V9.9766V9.97693V9.97727V9.9776V9.97794V9.97827V9.97861V9.97894V9.97928V9.97961V9.97994V9.98028V9.98061V9.98095V9.98129V9.98162V9.98196V9.98229V9.98263V9.98296V9.9833V9.98363V9.98397V9.98431V9.98464V9.98498V9.98532V9.98565V9.98599V9.98633V9.98666V9.987V9.98734V9.98767V9.98801V9.98835V9.98869V9.98903V9.98936V9.9897V9.99004V9.99038V9.99072V9.99106V9.99139V9.99173V9.99207V9.99241V9.99275V9.99309V9.99343V9.99377V9.99411V9.99445V9.99479V9.99513V9.99547V9.99581V9.99615V9.99649V9.99683V9.99717V9.99751V9.99785V9.99819V9.99854V9.99888V9.99922V9.99956V9.9999V10.0002V10.0006V10.0009V10.0013V10.0016V10.002V10.0023V10.0026V10.003V10.0033V10.0037V10.004V10.0044V10.0047V10.0051V10.0054V10.0057V10.0061V10.0064V10.0068V10.0071V10.0075V10.0078V10.0082V10.0085V10.0089V10.0092V10.0095V10.0099V10.0102V10.0106V10.0109V10.0113V10.0116V10.012V10.0123V10.0127V10.013V10.0134V10.0137V10.0141V10.0144V10.0148V10.0151V10.0155V10.0158V10.0162V10.0165V10.0169V10.0172V10.0176V10.0179V10.0183V10.0186V10.019V10.0193V10.0197V10.02V10.0204V10.0207V10.0211V10.0214V10.0218V10.0221V10.0225V10.0228V13.4703C7.40928 14.009 7.16455 14.5155 6.73804 14.8489C6.50981 15.0065 6.37502 15.267 6.37502 15.5389V15.8836C6.37502 16.0312 6.41676 16.1796 6.50115 16.3078C6.64735 16.5554 6.91777 16.7231 7.21453 16.7231H14.4543C14.7511 16.7231 15.0215 16.5554 15.1677 16.3078C15.2521 16.1796 15.2938 16.0312 15.2938 15.8836V15.5389C15.2938 15.2578 15.1585 15.0065 14.9316 14.8495C14.8908 14.8167 14.8461 14.7791 14.8103 14.7433ZM13.2789 14.9197L13.2791 14.9199L13.4114 14.8494L13.2789 14.9197Z" fill="#DEE5EA" stroke="#DEE5EA" stroke-width="0.3"/>
</svg>
