<svg width="11" height="10" viewBox="0 0 11 10" fill="none" xmlns="http://www.w3.org/2000/svg">
<path d="M8.79164 0.810633H7.96704V0H7.41696V0.810633H3.0184V0H2.46832V0.810633H1.64372C0.885563 0.810633 0.269043 1.41671 0.269043 2.16203V8.64861C0.269043 9.39392 0.885563 10 1.64372 10H8.79164C9.5498 10 10.1663 9.39392 10.1663 8.64861V3.51342V2.97316V2.16203C10.1663 1.41722 9.5498 0.810633 8.79164 0.810633ZM9.61676 8.64861C9.61676 9.0957 9.24695 9.45924 8.79216 9.45924H1.64372C1.18893 9.45924 0.819121 9.0957 0.819121 8.64861V3.51342H9.61676V8.64861ZM9.61676 2.97316H0.818606V2.16203C0.818606 1.71494 1.18841 1.35139 1.64321 1.35139H2.46781V1.89215H3.0184V1.35139H7.41748V1.89215H7.96756V1.35139H8.79216C9.24695 1.35139 9.61676 1.71494 9.61676 2.16203V2.97316Z" fill="#F11010"/>
<path d="M4.62891 6.13664H5.80682C6.13178 6.13664 6.39606 5.90724 6.39606 5.62516V4.60267C6.39606 4.32059 6.13178 4.09119 5.80682 4.09119H4.62891C4.30395 4.09119 4.03967 4.32059 4.03967 4.60267V5.62516C4.04022 5.90724 4.3045 6.13664 4.62891 6.13664ZM4.62891 4.60267H5.80682L5.80737 5.62516H4.62891V4.60267Z" fill="#F11010"/>
<path d="M7.39784 6.13664H8.45805C8.75054 6.13664 8.9884 5.90724 8.9884 5.62516V4.60267C8.9884 4.32059 8.75054 4.09119 8.45805 4.09119H7.39784C7.10536 4.09119 6.86749 4.32059 6.86749 4.60267V5.62516C6.86799 5.90724 7.10585 6.13664 7.39784 6.13664ZM7.39784 4.60267H8.45805L8.45855 5.62516H7.39784V4.60267Z" fill="#F11010"/>
<path d="M1.97754 8.63664H3.03772C3.3302 8.63664 3.56805 8.40724 3.56805 8.12516V7.10267C3.56805 6.82059 3.3302 6.59119 3.03772 6.59119H1.97754C1.68506 6.59119 1.4472 6.82059 1.4472 7.10267V8.12516C1.4472 8.40724 1.68506 8.63664 1.97754 8.63664ZM1.97754 7.10267H3.03772L3.03821 8.12516H1.97754V7.10267Z" fill="#F11010"/>
<path d="M4.62891 8.63664H5.80682C6.13178 8.63664 6.39606 8.40724 6.39606 8.12516V7.10267C6.39606 6.82059 6.13178 6.59119 5.80682 6.59119H4.62891C4.30395 6.59119 4.03967 6.82059 4.03967 7.10267V8.12516C4.04022 8.40724 4.3045 8.63664 4.62891 8.63664ZM4.62891 7.10267H5.80682L5.80737 8.12516H4.62891V7.10267Z" fill="#F11010"/>
<path d="M7.39784 8.63664H8.45805C8.75054 8.63664 8.9884 8.40724 8.9884 8.12516V7.10267C8.9884 6.82059 8.75054 6.59119 8.45805 6.59119H7.39784C7.10536 6.59119 6.86749 6.82059 6.86749 7.10267V8.12516C6.86799 8.40724 7.10585 8.63664 7.39784 8.63664ZM7.39784 7.10267H8.45805L8.45855 8.12516H7.39784V7.10267Z" fill="#F11010"/>
</svg>
