<svg xmlns="http://www.w3.org/2000/svg" xmlns:xlink="http://www.w3.org/1999/xlink" width="78" height="78" viewBox="0 0 78 78"><defs><filter id="a" x="0" y="0" width="78" height="78" filterUnits="userSpaceOnUse"><feOffset dy="3" input="SourceAlpha"/><feGaussianBlur stdDeviation="5" result="b"/><feFlood flood-opacity="0.259"/><feComposite operator="in" in2="b"/><feComposite in="SourceGraphic"/></filter><clipPath id="c"><path d="M460.3,13038.772l2.958-2.958,2.658.823,4.27-.464,1.671-.359,1.253,2.355v1.021s-1.717,1.113-1.9,1.16-2.46,2.274-2.46,2.274l-1.439,2.089-1.856,1.346-3.945.371-2.274-3.527Z" fill="#1984f6"/></clipPath></defs><g transform="translate(1436 -7165)"><g transform="translate(-1870 7058)"><g transform="translate(268 -3613)"><g transform="matrix(1, 0, 0, 1, 166, 3720)" filter="url(#a)"><circle cx="24" cy="24" r="24" transform="translate(15 12)" fill="#fff"/></g></g><g transform="translate(-1232.44 -13496.44)"><rect width="32.881" height="32.881" transform="translate(1689 13623)" fill="none"/><path d="M28.6,14.478a14.258,14.258,0,0,1,0,20.135,1.6,1.6,0,0,1-1.991.209l-3.381-2.2a1.572,1.572,0,0,1-.123-2.543,1.591,1.591,0,0,1,1.887-.108L27.2,31.409a11.056,11.056,0,1,0-17.336,0l2.216-1.442a1.6,1.6,0,0,1,1.905.108,1.572,1.572,0,0,1-.138,2.531l-3.381,2.2A1.594,1.594,0,0,1,8.476,34.6,14.233,14.233,0,0,1,28.6,14.478ZM25.71,25.96a1,1,0,1,0,.422-.649A1.005,1.005,0,0,0,25.71,25.96ZM11.773,21.744a1,1,0,1,0-.922.615A1.006,1.006,0,0,0,11.773,21.744Zm-1.6,3.438a1.006,1.006,0,0,0,.194,1.993.986.986,0,0,0,.2-.018,1.006,1.006,0,0,0,.79-1.181h0A1,1,0,0,0,10.178,25.182Zm3.178-8.395h0a1.005,1.005,0,0,0,1.116,1.673h0a1.005,1.005,0,0,0-1.116-1.673Zm10.636,1.387a1,1,0,1,0-.638.431A1.006,1.006,0,0,0,23.993,18.174ZM19.456,16.6a1.005,1.005,0,0,0-.922-1.39h0a1.005,1.005,0,1,0,.922,1.39Zm7.115,5.535-5.055,3.238A3.043,3.043,0,1,1,20.071,22.1l5.839-1.51a.852.852,0,0,1,.673,1.537ZM19.524,24.29a.819.819,0,1,0,.006,0Z" transform="translate(1686.775 13615.954)" fill="#2d4a99"/><g transform="translate(1241.44 599.44)" clip-path="url(#c)"><g transform="translate(-1241.44 -599.44)"><rect width="32.881" height="32.881" transform="translate(1689 13623)" fill="none"/><path d="M28.6,14.478a14.258,14.258,0,0,1,0,20.135,1.6,1.6,0,0,1-1.991.209l-3.381-2.2a1.572,1.572,0,0,1-.123-2.543,1.591,1.591,0,0,1,1.887-.108L27.2,31.409a11.056,11.056,0,1,0-17.336,0l2.216-1.442a1.6,1.6,0,0,1,1.905.108,1.572,1.572,0,0,1-.138,2.531l-3.381,2.2A1.594,1.594,0,0,1,8.476,34.6,14.233,14.233,0,0,1,28.6,14.478ZM25.71,25.96a1,1,0,1,0,.422-.649A1.005,1.005,0,0,0,25.71,25.96ZM11.773,21.744a1,1,0,1,0-.922.615A1.006,1.006,0,0,0,11.773,21.744Zm-1.6,3.438a1.006,1.006,0,0,0,.194,1.993.986.986,0,0,0,.2-.018,1.006,1.006,0,0,0,.79-1.181h0A1,1,0,0,0,10.178,25.182Zm3.178-8.395h0a1.005,1.005,0,0,0,1.116,1.673h0a1.005,1.005,0,0,0-1.116-1.673Zm10.636,1.387a1,1,0,1,0-.638.431A1.006,1.006,0,0,0,23.993,18.174ZM19.456,16.6a1.005,1.005,0,0,0-.922-1.39h0a1.005,1.005,0,1,0,.922,1.39Zm7.115,5.535-5.055,3.238A3.043,3.043,0,1,1,20.071,22.1l5.839-1.51a.852.852,0,0,1,.673,1.537ZM19.524,24.29a.819.819,0,1,0,.006,0Z" transform="translate(1686.775 13615.954)" fill="#1984f6"/></g></g></g></g></g></svg>