<svg xmlns="http://www.w3.org/2000/svg" xmlns:xlink="http://www.w3.org/1999/xlink" width="78" height="78" viewBox="0 0 78 78">
  <defs>
    <filter id="Ellipse_26" x="0" y="0" width="78" height="78" filterUnits="userSpaceOnUse">
      <feOffset dy="3" input="SourceAlpha"/>
      <feGaussianBlur stdDeviation="5" result="blur"/>
      <feFlood flood-opacity="0.259"/>
      <feComposite operator="in" in2="blur"/>
      <feComposite in="SourceGraphic"/>
    </filter>
  </defs>
  <g id="Library_Setup_BLue" data-name="Library Setup BLue" transform="translate(14.29 11.733)">
    <g id="Group_4354" data-name="Group 4354" transform="translate(0.432 -0.011)">
      <g id="Group_4351" data-name="Group 4351" transform="translate(0 0)">
        <g transform="matrix(1, 0, 0, 1, -14.72, -11.72)" filter="url(#Ellipse_26)">
          <circle id="Ellipse_26-2" data-name="Ellipse 26" cx="24" cy="24" r="24" transform="translate(15 12)" fill="#fff"/>
        </g>
      </g>
      <g id="Group_4353" data-name="Group 4353" transform="translate(9.711 8.74)">
        <rect id="Rectangle_2093" data-name="Rectangle 2093" width="31" height="32" transform="translate(-0.433 -0.462)" fill="none"/>
        <g id="Group_4352" data-name="Group 4352" transform="translate(1.513 1.239)">
          <path id="Path_1983" data-name="Path 1983" d="M23.355,16.135V5.839A2.335,2.335,0,0,0,21.02,3.5H2.336a1.168,1.168,0,0,1,0-2.336H21.018a.584.584,0,1,0,0-1.167H2.336A2.335,2.335,0,0,0,0,2.336V25.694A2.335,2.335,0,0,0,2.336,28.03H15.045a7.587,7.587,0,0,1,8.311-11.895Zm-4.671-5.624H5.838V8.175H18.682Z" transform="translate(0 0.001)" fill="#2d4a99"/>
          <g id="Group_4356" data-name="Group 4356" transform="translate(15.598 17.651)">
            <path id="Path_1981" data-name="Path 1981" d="M298.955,347.039h-1.721a3.558,3.558,0,0,0-.158-.376l1.218-1.218a.293.293,0,0,0,0-.413l-1.3-1.3a.293.293,0,0,0-.413,0l-1.229,1.223a3.662,3.662,0,0,0-.375-.157l-.009-1.729a.293.293,0,0,0-.291-.291h-1.835a.293.293,0,0,0-.291.291V344.8a3.625,3.625,0,0,0-.375.157l-1.218-1.218a.293.293,0,0,0-.413,0l-1.3,1.3a.293.293,0,0,0,0,.413l1.218,1.218a3.679,3.679,0,0,0-.158.376h-1.721a.293.293,0,0,0-.291.291v1.844a.293.293,0,0,0,.291.291h1.715a3.7,3.7,0,0,0,.158.375l-1.218,1.218a.293.293,0,0,0,0,.413l1.3,1.3a.293.293,0,0,0,.413,0l1.231-1.218a3.669,3.669,0,0,0,.375.158v1.723a.293.293,0,0,0,.291.291h1.841a.293.293,0,0,0,.291-.291v-1.718a3.709,3.709,0,0,0,.375-.158l1.22,1.2a.293.293,0,0,0,.413,0l1.3-1.3a.293.293,0,0,0,0-.413l-1.218-1.218a3.618,3.618,0,0,0,.158-.376h1.727a.293.293,0,0,0,.291-.291V347.33A.293.293,0,0,0,298.955,347.039Zm-7.264,1.21a2.065,2.065,0,1,1,2.065,2.066,2.066,2.066,0,0,1-2.065-2.066Z" transform="translate(-288.3 -342.78)" fill="#1984f6"/>
            <path id="Path_1982" data-name="Path 1982" d="M415.32,467.94a2.282,2.282,0,1,0,1.613.674A2.282,2.282,0,0,0,415.32,467.94Zm1.305,3.587a1.846,1.846,0,1,1,.541-1.3A1.846,1.846,0,0,1,416.625,471.527Z" transform="translate(-409.814 -464.776)" fill="#2d4a99"/>
          </g>
          <path id="Path_1984" data-name="Path 1984" d="M224,24h2.964v3.407l-1.481-1.7L224,27.407Z" transform="translate(-205.864 -20.576)" fill="#1984f6"/>
        </g>
      </g>
    </g>
  </g>
</svg>
