<svg width="13" height="14" viewBox="0 0 13 14" fill="none" xmlns="http://www.w3.org/2000/svg">
<path d="M7.95312 5.3629C5.57199 5.3629 3.63457 7.30032 3.63457 9.68145C3.63457 12.0626 5.57199 14 7.95312 14C10.3342 14 12.2717 12.0626 12.2717 9.68145C12.2717 7.30032 10.3342 5.3629 7.95312 5.3629ZM7.02505 7.96786C7.35586 7.96786 7.62514 8.23685 7.62514 8.56766C7.62514 8.89872 7.35586 9.16802 7.02505 9.16802C6.69425 9.16802 6.42497 8.89875 6.42497 8.56766C6.42497 8.23685 6.69425 7.96786 7.02505 7.96786ZM8.88118 11.395C8.55038 11.395 8.2811 11.126 8.2811 10.7952C8.2811 10.4642 8.55038 10.1949 8.88118 10.1949C9.21199 10.1949 9.48126 10.4642 9.48126 10.7952C9.48126 11.126 9.21199 11.395 8.88118 11.395ZM9.38614 8.88718L7.15884 11.1144C6.98139 11.2913 6.69679 11.2906 6.5201 11.1144C6.34368 10.938 6.34368 10.6521 6.5201 10.4757L8.74739 8.24843C8.9238 8.07202 9.20973 8.07202 9.38614 8.24843C9.56255 8.42484 9.56255 8.71077 9.38614 8.88718ZM6.73941 0H3.80393C3.46087 0 3.24316 0.368234 3.40792 0.668669L4.2705 2.24282C3.65625 2.60829 3.45901 3.39026 3.80223 3.99677C2.2803 4.515 1.09651 5.81706 0.780095 7.46573L0.0411437 11.3163C-0.226042 12.7098 0.842079 14 2.25885 14H4.13978C4.47968 14 4.64601 13.5868 4.4018 13.3504C1.50731 10.5482 2.85664 5.68524 6.71912 4.72367C7.0784 4.63423 7.11707 4.12393 6.7411 3.99675C7.0843 3.39031 6.88717 2.60829 6.27284 2.24279L7.13542 0.668641C7.30043 0.367782 7.08196 0 6.73941 0V0ZM5.61038 3.75403H4.93296C4.67356 3.75403 4.47175 3.50254 4.55812 3.23073C4.60921 3.06956 4.76389 2.96371 4.93296 2.96371H5.61038C5.77945 2.96371 5.93413 3.06956 5.98522 3.23073C6.07159 3.50254 5.86977 3.75403 5.61038 3.75403Z" fill="#245EB6"/>
</svg>
