<svg width="10" height="13" viewBox="0 0 10 13" fill="none" xmlns="http://www.w3.org/2000/svg">
<path d="M3.15577 5.4275C3.1221 5.38506 3.08028 5.34979 3.03278 5.32376C2.98527 5.29772 2.93304 5.28145 2.87916 5.2759C2.82527 5.27035 2.77082 5.27563 2.71901 5.29143C2.66719 5.30723 2.61906 5.33324 2.57745 5.36792C2.53583 5.4026 2.50158 5.44525 2.47669 5.49336C2.4518 5.54148 2.43679 5.59408 2.43253 5.64809C2.42827 5.70209 2.43486 5.7564 2.4519 5.80782C2.46895 5.85924 2.4961 5.90673 2.53177 5.9475L4.34608 8.125L2.53177 10.3025C2.46585 10.3856 2.43503 10.4911 2.4459 10.5966C2.45677 10.7021 2.50846 10.7992 2.58993 10.8671C2.67141 10.935 2.7762 10.9683 2.88193 10.96C2.98766 10.9517 3.08594 10.9023 3.15577 10.8225L4.87502 8.75956L6.59427 10.8233C6.66333 10.9061 6.76244 10.958 6.86978 10.9677C6.92294 10.9724 6.97651 10.9667 7.02745 10.9508C7.07839 10.9349 7.1257 10.9091 7.16667 10.8749C7.20765 10.8407 7.24148 10.7988 7.26625 10.7515C7.29101 10.7042 7.30623 10.6525 7.31102 10.5994C7.31581 10.5462 7.31008 10.4927 7.29417 10.4417C7.27826 10.3908 7.25246 10.3435 7.21827 10.3025L5.40395 8.125L7.21827 5.9475C7.28419 5.86442 7.315 5.75885 7.30414 5.65336C7.29327 5.54786 7.24157 5.45079 7.1601 5.3829C7.07863 5.315 6.97383 5.28166 6.8681 5.28999C6.76237 5.29833 6.6641 5.34768 6.59427 5.4275L4.87502 7.49044L3.15577 5.42669V5.4275Z" fill="#797979"/>
<path d="M9.75 11.375V3.65625L6.09375 0H1.625C1.19402 0 0.780698 0.171205 0.475951 0.475951C0.171205 0.780698 0 1.19402 0 1.625V11.375C0 11.806 0.171205 12.2193 0.475951 12.524C0.780698 12.8288 1.19402 13 1.625 13H8.125C8.55598 13 8.9693 12.8288 9.27405 12.524C9.57879 12.2193 9.75 11.806 9.75 11.375ZM6.09375 2.4375C6.09375 2.76073 6.22215 3.07073 6.45071 3.29929C6.67927 3.52785 6.98927 3.65625 7.3125 3.65625H8.9375V11.375C8.9375 11.5905 8.8519 11.7972 8.69952 11.9495C8.54715 12.1019 8.34049 12.1875 8.125 12.1875H1.625C1.40951 12.1875 1.20285 12.1019 1.05048 11.9495C0.898102 11.7972 0.8125 11.5905 0.8125 11.375V1.625C0.8125 1.40951 0.898102 1.20285 1.05048 1.05048C1.20285 0.898102 1.40951 0.8125 1.625 0.8125H6.09375V2.4375Z" fill="#797979"/>
</svg>
