<svg width="10" height="12" viewBox="0 0 10 12" fill="none" xmlns="http://www.w3.org/2000/svg">
<path d="M9.04125 5.43064C8.78087 4.84459 8.40235 4.31859 7.92937 3.88554L7.53907 3.52743C7.52582 3.5156 7.50987 3.50721 7.49262 3.50299C7.47537 3.49877 7.45734 3.49884 7.44013 3.50321C7.42291 3.50758 7.40703 3.51611 7.39389 3.52805C7.38074 3.53999 7.37072 3.55497 7.36471 3.57169L7.19035 4.07197C7.08171 4.38582 6.88187 4.70637 6.59887 5.02156C6.58009 5.04168 6.55863 5.04705 6.54388 5.04839C6.52912 5.04973 6.50632 5.04705 6.4862 5.02827C6.46743 5.01217 6.45804 4.98803 6.45938 4.96389C6.50901 4.15647 6.26758 3.24577 5.73914 2.2546C5.3019 1.43108 4.69432 0.788629 3.93518 0.340657L3.38125 0.0147377C3.30882 -0.0281818 3.21628 0.0281499 3.2203 0.112648L3.24981 0.75644C3.26993 1.19636 3.21896 1.58532 3.09825 1.90856C2.95071 2.30422 2.7388 2.67172 2.46787 3.00166C2.27932 3.23097 2.06562 3.43837 1.83078 3.61997C1.26519 4.05476 0.805294 4.61186 0.485526 5.24957C0.166546 5.89285 0.000389173 6.60108 0 7.3191C0 7.95216 0.124735 8.5651 0.371522 9.14317C0.609814 9.69974 0.953696 10.2049 1.38415 10.6306C1.81871 11.0598 2.32302 11.3978 2.88499 11.6325C3.46709 11.8766 4.08406 12 4.72114 12C5.35823 12 5.97519 11.8766 6.55729 11.6338C7.11788 11.4005 7.62766 11.0602 8.05813 10.6319C8.49269 10.2027 8.83336 9.70113 9.07076 9.14451C9.31718 8.56802 9.44359 7.94738 9.44228 7.32044C9.44228 6.66591 9.30816 6.03017 9.04125 5.43064Z" fill="#FA0F0F"/>
</svg>
