<svg width="15" height="16" viewBox="0 0 15 16" fill="none" xmlns="http://www.w3.org/2000/svg">
<g clip-path="url(#clip0)">
<path d="M11.2768 8.69121C11.2768 6.55368 9.54318 4.80325 7.38881 4.80325C5.23445 4.80325 3.50085 6.55368 3.50085 8.69121C3.50085 10.8456 5.25128 12.5792 7.38881 12.5792C9.54318 12.596 11.2768 10.8456 11.2768 8.69121ZM9.13923 8.32093L7.52346 9.9367C7.40564 10.0545 7.25416 10.1218 7.10268 10.1218C6.95121 10.1218 6.79973 10.0545 6.68191 9.9367L5.67205 8.92684C5.43642 8.69121 5.43642 8.3041 5.67205 8.06846C5.90769 7.83283 6.2948 7.83283 6.53043 8.06846L7.11952 8.65755L8.31452 7.46255C8.55015 7.22691 8.93726 7.22691 9.1729 7.46255C9.37487 7.69818 9.37487 8.08529 9.13923 8.32093Z" fill="#F08B14"/>
<path d="M1.32965 8.69122C1.32965 5.35869 4.03944 2.63207 7.3888 2.63207H8.78577V3.32214C8.78577 3.52411 8.90359 3.72608 9.08873 3.82707C9.17288 3.87756 9.27387 3.89439 9.35803 3.89439C9.45901 3.89439 9.57683 3.86073 9.66098 3.81024L11.7985 2.44693C11.9668 2.34594 12.0678 2.1608 12.0678 1.95883C12.0678 1.75686 11.9668 1.58855 11.7985 1.47073L9.66098 0.090588C9.49267 -0.0272289 9.25704 -0.0272288 9.0719 0.0737571C8.88676 0.174743 8.76894 0.359884 8.76894 0.578687V1.31925H7.37197C3.29887 1.31925 0 4.61812 0 8.69122C0 9.0615 0.302958 9.34763 0.656408 9.34763C1.00986 9.34763 1.32965 9.04467 1.32965 8.69122Z" fill="#F08B14"/>
<path d="M12.0846 4.87059C12.2529 5.07257 12.4044 5.29137 12.5391 5.51017C12.6569 5.71214 12.8757 5.82996 13.0945 5.82996C13.2123 5.82996 13.3301 5.7963 13.4311 5.72897C13.5826 5.64482 13.6836 5.49334 13.7172 5.32503C13.7509 5.15672 13.7341 4.97158 13.6331 4.83693C13.4648 4.56764 13.2796 4.29834 13.0777 4.04588C12.9598 3.91123 12.8084 3.82707 12.6401 3.81024C12.6232 3.81024 12.5896 3.81024 12.5727 3.81024C12.4213 3.81024 12.2866 3.86073 12.152 3.96172C12.0173 4.07954 11.9332 4.23102 11.9163 4.39933C11.9163 4.5508 11.9668 4.71911 12.0846 4.87059Z" fill="#F08B14"/>
<path d="M14.0202 9.8694C13.9697 9.85257 13.9024 9.85257 13.8519 9.85257C13.5658 9.85257 13.2965 10.0545 13.2123 10.3407C13.145 10.5931 13.0608 10.8456 12.943 11.0812C12.8084 11.4179 12.9599 11.805 13.2965 11.9396C13.3806 11.9733 13.4648 11.9901 13.5489 11.9901C13.8182 11.9901 14.0539 11.8386 14.1549 11.5862C14.2727 11.2832 14.3905 10.9802 14.4747 10.6773C14.5251 10.509 14.5083 10.3238 14.4073 10.1724C14.34 10.0209 14.1885 9.91989 14.0202 9.8694Z" fill="#F08B14"/>
<path d="M14.6093 7.19327C14.5419 6.89031 14.2726 6.67151 13.9697 6.67151C13.9192 6.67151 13.8855 6.67151 13.835 6.68834C13.6667 6.722 13.5153 6.82299 13.4143 6.97447C13.3133 7.12595 13.2796 7.29426 13.3133 7.46257C13.3638 7.71503 13.3974 7.98433 13.4311 8.23679C13.4648 8.59024 13.7677 8.87637 14.138 8.84271C14.4915 8.80904 14.7776 8.50609 14.7439 8.1358C14.7103 7.81602 14.6598 7.49623 14.6093 7.19327Z" fill="#F08B14"/>
<path d="M12.2866 12.6129H12.2698C12.1015 12.6129 11.9332 12.697 11.8154 12.8148C11.6302 13 11.4451 13.1851 11.2431 13.3534C10.957 13.5891 10.9233 13.993 11.1589 14.2791C11.2768 14.4306 11.4619 14.5148 11.6639 14.5148C11.8154 14.5148 11.9668 14.4643 12.0846 14.3633C12.3371 14.1613 12.5727 13.9425 12.7915 13.7069C12.9094 13.5722 12.9767 13.4039 12.9599 13.2356C12.9599 13.0673 12.8757 12.899 12.7579 12.7812C12.6064 12.6802 12.4549 12.6129 12.2866 12.6129Z" fill="#F08B14"/>
<path d="M1.68312 10.7446C1.61579 10.5763 1.49798 10.4417 1.3465 10.3743C1.26234 10.3407 1.16136 10.307 1.06037 10.307C0.976216 10.307 0.908892 10.3238 0.841568 10.3407C0.504948 10.4585 0.319807 10.8456 0.454455 11.1822C0.555441 11.4852 0.690089 11.7713 0.841568 12.0574C0.959385 12.2762 1.17819 12.4109 1.43065 12.4109C1.53164 12.4109 1.63262 12.3772 1.73361 12.3436C2.0534 12.1752 2.18805 11.7713 2.01974 11.4515C1.88509 11.2327 1.76727 10.9971 1.68312 10.7446Z" fill="#F08B14"/>
<path d="M3.26521 13.1346C3.1474 13.0168 2.97909 12.9663 2.82761 12.9663C2.81078 12.9663 2.81078 12.9663 2.79395 12.9663C2.62564 12.9663 2.45733 13.0504 2.33951 13.1851C2.22169 13.3197 2.15437 13.488 2.1712 13.6563C2.1712 13.8247 2.25535 13.993 2.37317 14.1108C2.6088 14.3296 2.86127 14.5316 3.11373 14.7167C3.23155 14.8009 3.34937 14.8345 3.50085 14.8345C3.71965 14.8345 3.92162 14.7335 4.03944 14.5484C4.14042 14.3969 4.17409 14.2286 4.15726 14.0603C4.12359 13.892 4.03944 13.7405 3.88796 13.6395C3.66916 13.488 3.46719 13.3197 3.26521 13.1346Z" fill="#F08B14"/>
<path d="M9.91344 14.4306C9.82928 14.3801 9.7283 14.3633 9.62731 14.3633C9.55999 14.3633 9.47583 14.3801 9.40851 14.3969C9.15604 14.4811 8.90358 14.5652 8.65111 14.6157C8.4828 14.6494 8.33132 14.7504 8.23034 14.9018C8.12935 15.0533 8.09569 15.2216 8.14618 15.3899C8.21351 15.6929 8.4828 15.9117 8.78576 15.9117C8.83625 15.9117 8.86992 15.9117 8.92041 15.8949C9.22337 15.8275 9.54316 15.7434 9.84611 15.6256C10.0144 15.5583 10.1491 15.4404 10.2164 15.289C10.2837 15.1375 10.3005 14.9523 10.2501 14.784C10.1827 14.6325 10.0649 14.4979 9.91344 14.4306Z" fill="#F08B14"/>
<path d="M6.54724 14.683C6.27795 14.6494 6.02548 14.5989 5.77302 14.5316C5.60471 14.4811 5.41957 14.5147 5.26809 14.5989C5.11661 14.683 4.99879 14.8345 4.96513 15.0028C4.91464 15.1711 4.9483 15.3563 5.03245 15.5078C5.11661 15.6592 5.26809 15.7771 5.4364 15.8107C5.73936 15.8949 6.05914 15.9622 6.37893 15.9959C6.54724 16.0127 6.71555 15.979 6.86703 15.878C7.00168 15.7771 7.10266 15.6087 7.1195 15.4404C7.13633 15.2721 7.10267 15.087 6.98485 14.9523C6.88386 14.8009 6.73238 14.7167 6.54724 14.683Z" fill="#F08B14"/>
</g>
<defs>
<clipPath id="clip0">
<rect width="14.7466" height="16" fill="white"/>
</clipPath>
</defs>
</svg>
