<svg width="16" height="16" viewBox="0 0 16 16" fill="none" xmlns="http://www.w3.org/2000/svg">
<path d="M-3.49691e-07 8C-2.80529e-07 9.58225 0.469191 11.129 1.34824 12.4446C2.22729 13.7602 3.47672 14.7855 4.93853 15.391C6.40034 15.9965 8.00887 16.155 9.56072 15.8463C11.1126 15.5376 12.538 14.7757 13.6569 13.6569C14.7757 12.538 15.5376 11.1126 15.8463 9.56072C16.155 8.00887 15.9965 6.40034 15.391 4.93853C14.7855 3.47672 13.7602 2.2273 12.4446 1.34824C11.129 0.469193 9.58225 1.4885e-06 8 1.55766e-06C6.94942 1.60358e-06 5.90913 0.206926 4.93853 0.608964C3.96793 1.011 3.08601 1.60028 2.34314 2.34315C1.60028 3.08601 1.011 3.96793 0.608963 4.93853C0.206926 5.90914 -3.95613e-07 6.94942 -3.49691e-07 8ZM9.488 5.048L11.776 7.448C11.8099 7.48271 11.837 7.5234 11.856 7.568C11.89 7.60564 11.917 7.64897 11.936 7.696C11.9783 7.79176 12.0002 7.8953 12.0002 8C12.0002 8.10469 11.9783 8.20824 11.936 8.304C11.8979 8.4022 11.8408 8.49191 11.768 8.568L9.368 10.968C9.21735 11.1186 9.01304 11.2033 8.8 11.2033C8.58696 11.2033 8.38264 11.1186 8.232 10.968C8.08135 10.8174 7.99672 10.613 7.99672 10.4C7.99672 10.187 8.08135 9.98264 8.232 9.832L9.272 8.8L4.8 8.8C4.58782 8.8 4.38434 8.71571 4.23431 8.56568C4.08428 8.41565 4 8.21217 4 8C4 7.78783 4.08428 7.58434 4.23431 7.43431C4.38434 7.28428 4.58782 7.2 4.8 7.2L9.328 7.2L8.328 6.152C8.1816 5.99817 8.1023 5.79249 8.10755 5.5802C8.1128 5.36791 8.20217 5.1664 8.356 5.02C8.50982 4.8736 8.71551 4.7943 8.9278 4.79955C9.14009 4.8048 9.3416 4.89417 9.488 5.048Z" fill="#0097F9"/>
</svg>
