<svg xmlns="http://www.w3.org/2000/svg" viewBox="1165 207 18 18">
  <defs>
    <style>
      .cls-1, .cls-2 {
        fill: none;
      }

      .cls-2 {
        stroke: #0084f6;
        stroke-miterlimit: 10;
      }
    </style>
  </defs>
  <g id="Group_1205" data-name="Group 1205" transform="translate(-46 -16)">
    <rect id="Rectangle_684" data-name="Rectangle 684" class="cls-1" width="18" height="18" transform="translate(1211 223)"/>
    <g id="Group_1200" data-name="Group 1200">
      <path id="Path_20" data-name="Path 20" class="cls-2" d="M14.333,18.222H2.778A1.783,1.783,0,0,1,1,16.444V5.778A1.783,1.783,0,0,1,2.778,4H14.333a1.783,1.783,0,0,1,1.778,1.778V16.444A1.783,1.783,0,0,1,14.333,18.222Z" transform="translate(1211 221.778)"/>
      <line id="Line_2" data-name="Line 2" class="cls-2" x2="15.111" transform="translate(1212.444 229.333)"/>
      <line id="Line_3" data-name="Line 3" class="cls-2" y2="3.111" transform="translate(1215.556 224)"/>
      <line id="Line_4" data-name="Line 4" class="cls-2" y2="3.111" transform="translate(1223.556 224)"/>
      <path id="Path_21" data-name="Path 21" class="cls-2" d="M7.222,18.667H5.444A.42.42,0,0,1,5,18.222V16.444A.42.42,0,0,1,5.444,16H7.222a.42.42,0,0,1,.444.444v1.778A.42.42,0,0,1,7.222,18.667Z" transform="translate(1208.778 215.111)"/>
      <path id="Path_22" data-name="Path 22" class="cls-2" d="M17.222,18.667H15.444A.42.42,0,0,1,15,18.222V16.444A.42.42,0,0,1,15.444,16h1.778a.42.42,0,0,1,.444.444v1.778A.42.42,0,0,1,17.222,18.667Z" transform="translate(1203.222 215.111)"/>
      <path id="Path_23" data-name="Path 23" class="cls-2" d="M27.222,18.667H25.444A.42.42,0,0,1,25,18.222V16.444A.42.42,0,0,1,25.444,16h1.778a.42.42,0,0,1,.444.444v1.778A.42.42,0,0,1,27.222,18.667Z" transform="translate(1197.667 215.111)"/>
      <path id="Path_24" data-name="Path 24" class="cls-2" d="M7.222,28.667H5.444A.42.42,0,0,1,5,28.222V26.444A.42.42,0,0,1,5.444,26H7.222a.42.42,0,0,1,.444.444v1.778A.42.42,0,0,1,7.222,28.667Z" transform="translate(1208.778 209.556)"/>
      <path id="Path_25" data-name="Path 25" class="cls-2" d="M17.222,28.667H15.444A.42.42,0,0,1,15,28.222V26.444A.42.42,0,0,1,15.444,26h1.778a.42.42,0,0,1,.444.444v1.778A.42.42,0,0,1,17.222,28.667Z" transform="translate(1203.222 209.556)"/>
      <path id="Path_26" data-name="Path 26" class="cls-2" d="M27.222,28.667H25.444A.42.42,0,0,1,25,28.222V26.444A.42.42,0,0,1,25.444,26h1.778a.42.42,0,0,1,.444.444v1.778A.42.42,0,0,1,27.222,28.667Z" transform="translate(1197.667 209.556)"/>
    </g>
  </g>
</svg>
C5.73835 4.7894 5.54425 4.875 5.34186 4.875C5.13947 4.875 4.94536 4.7894 4.80225 4.63702C4.65914 4.48465 4.57874 4.27799 4.57874 4.0625V1.625ZM22.1306 7.3125H0.763123V4.46875C0.764028 4.14581 0.88492 3.83638 1.09939 3.60803C1.31387 3.37968 1.6045 3.25096 1.90781 3.25H3.81561V4.0625C3.81561 4.49348 3.97641 4.9068 4.26264 5.21155C4.54887 5.5163 4.93707 5.6875 5.34186 5.6875C5.74664 5.6875 6.13485 5.5163 6.42108 5.21155C6.7073 4.9068 6.8681 4.49348 6.8681 4.0625V3.25H9.92059V4.0625C9.92059 4.49348 10.0814 4.9068 10.3676 5.21155C10.6538 5.5163 11.0421 5.6875 11.4468 5.6875C11.8516 5.6875 12.2398 5.5163 12.5261 5.21155C12.8123 4.9068 12.9731 4.49348 12.9731 4.0625V3.25H16.0256V4.0625C16.0256 4.49348 16.1864 4.9068 16.4726 5.21155C16.7588 5.5163 17.147 5.6875 17.5518 5.6875C17.9566 5.6875 18.3448 5.5163 18.631 5.21155C18.9173 4.9068 19.0781 4.49348 19.0781 4.0625V3.25H20.9859C21.2892 3.25096 21.5798 3.37968 21.7943 3.60803C22.0088 3.83638 22.1296 4.14581 22.1306 4.46875V7.3125Z" fill="#109CF1"/>
<path d="M10.6837 10.9688C10.6837 10.7533 10.6033 10.5466 10.4602 10.3942C10.3171 10.2419 10.123 10.1562 9.92059 10.1562H8.39435C8.19196 10.1562 7.99785 10.2419 7.85474 10.3942C7.71163 10.5466 7.63123 10.7533 7.63123 10.9688V12.1875C7.63123 12.403 7.71163 12.6097 7.85474 12.762C7.99785 12.9144 8.19196 13 8.39435 13H9.92059C10.123 13 10.3171 12.9144 10.4602 12.762C10.6033 12.6097 10.6837 12.403 10.6837 12.1875V10.9688ZM8.39435 12.1875V10.9688H9.92059V12.1875H8.39435Z" fill="#109CF1"/>
<path d="M6.10498 10.9688C6.10498 10.7533 6.02458 10.5466 5.88147 10.3942C5.73835 10.2419 5.54425 10.1562 5.34186 10.1562H3.81561C3.61322 10.1562 3.41912 10.2419 3.276 10.3942C3.13289 10.5466 3.05249 10.7533 3.05249 10.9688V12.1875C3.05249 12.403 3.13289 12.6097 3.276 12.762C3.41912 12.9144 3.61322 13 3.81561 13H5.34186C5.54425 13 5.73835 12.9144 5.88147 12.762C6.02458 12.6097 6.10498 12.403 6.10498 12.1875V10.9688ZM3.81561 12.1875V10.9688H5.34186V12.1875H3.81561Z" fill="#109CF1"/>
<path d="M19.078 13C19.2804 13 19.4745 12.9144 19.6176 12.762C19.7608 12.6097 19.8412 12.403 19.8412 12.1875V10.9688C19.8412 10.7533 19.7608 10.5466 19.6176 10.3942C19.4745 10.2419 19.2804 10.1562 19.078 10.1562H17.5518C17.3494 10.1562 17.1553 10.2419 17.0122 10.3942C16.8691 10.5466 16.7887 10.7533 16.7887 10.9688V12.1875C16.7887 12.403 16.8691 12.6097 17.0122 12.762C17.1553 12.9144 17.3494 13 17.5518 13H19.078ZM17.5518 10.9688H19.078V12.1875H17.5518V10.9688Z" fill="#109CF1"/>
<path d="M10.6837 14.625C10.6837 14.4095 10.6033 14.2028 10.4602 14.0505C10.3171 13.8981 10.123 13.8125 9.92059 13.8125H8.39435C8.19196 13.8125 7.99785 13.8981 7.85474 14.0505C7.71163 14.2028 7.63123 14.4095 7.63123 14.625V15.8438C7.63123 16.0592 7.71163 16.2659 7.85474 16.4183C7.99785 16.5706 8.19196 16.6562 8.39435 16.6562H9.92059C10.123 16.6562 10.3171 16.5706 10.4602 16.4183C10.6033 16.2659 10.6837 16.0592 10.6837 15.8438V14.625ZM8.39435 15.8438V14.625H9.92059V15.8438H8.39435Z" fill="#109CF1"/>
<path d="M6.10498 14.625C6.10498 14.4095 6.02458 14.2028 5.88147 14.0505C5.73835 13.8981 5.54425 13.8125 5.34186 13.8125H3.81561C3.61322 13.8125 3.41912 13.8981 3.276 14.0505C3.13289 14.2028 3.05249 14.4095 3.05249 14.625V15.8438C3.05249 16.0592 3.13289 16.2659 3.276 16.4183C3.41912 16.5706 3.61322 16.6562 3.81561 16.6562H5.34186C5.54425 16.6562 5.73835 16.5706 5.88147 16.4183C6.02458 16.2659 6.10498 16.0592 6.10498 15.8438V14.625ZM3.81561 15.8438V14.625H5.34186V15.8438H3.81561Z" fill="#109CF1"/>
<path d="M9.92059 17.4688H8.39435C8.19196 17.4688 7.99785 17.5544 7.85474 17.7067C7.71163 17.8591 7.63123 18.0658 7.63123 18.2812V19.5C7.63123 19.7155 7.71163 19.9222 7.85474 20.0745C7.99785 20.2269 8.19196 20.3125 8.39435 20.3125H9.92059C10.123 20.3125 10.3171 20.2269 10.4602 20.0745C10.6033 19.9222 10.6837 19.7155 10.6837 19.5V18.2812C10.6837 18.0658 10.6033 17.8591 10.4602 17.7067C10.3171 17.5544 10.123 17.4688 9.92059 17.4688ZM8.39435 19.5V18.2812H9.92059V19.5H8.39435Z" fill="#109CF1"/>
<path d="M12.9731 13H14.4993C14.7017 13 14.8958 12.9144 15.0389 12.762C15.1821 12.6097 15.2625 12.403 15.2625 12.1875V10.9688C15.2625 10.7533 15.1821 10.5466 15.0389 10.3942C14.8958 10.2419 14.7017 10.1562 14.4993 10.1562H12.9731C12.7707 10.1562 12.5766 10.2419 12.4335 10.3942C12.2904 10.5466 12.21 10.7533 12.21 10.9688V12.1875C12.21 12.403 12.2904 12.6097 12.4335 12.762C12.5766 12.9144 12.7707 13 12.9731 13ZM12.9731 10.9688H14.4993V12.1875H12.9731V10.9688Z" fill="#109CF1"/>
<path d="M12.21 15.8438C12.21 16.0592 12.2904 16.2659 12.4335 16.4183C12.5766 16.5706 12.7707 16.6562 12.9731 16.6562C13.0743 16.6562 13.1713 16.6134 13.2429 16.5373C13.3145 16.4611 13.3547 16.3577 13.3547 16.25C13.3547 16.1423 13.3145 16.0389 13.2429 15.9627C13.1713 15.8866 13.0743 15.8438 12.9731 15.8438V14.625H14.4994C14.6006 14.625 14.6976 14.5822 14.7692 14.506C14.8407 14.4298 14.8809 14.3265 14.8809 14.2188C14.8809 14.111 14.8407 14.0077 14.7692 13.9315C14.6976 13.8553 14.6006 13.8125 14.4994 13.8125H12.9731C12.7707 13.8125 12.5766 13.8981 12.4335 14.0505C12.2904 14.2028 12.21 14.4095 12.21 14.625V15.8438Z" fill="#109CF1"/>
<path d="M5.34186 17.4688H3.81561C3.61322 17.4688 3.41912 17.5544 3.276 17.7067C3.13289 17.8591 3.05249 18.0658 3.05249 18.2812V19.5C3.05249 19.7155 3.13289 19.9222 3.276 20.0745C3.41912 20.2269 3.61322 20.3125 3.81561 20.3125H5.34186C5.54425 20.3125 5.73835 20.2269 5.88147 20.0745C6.02458 19.9222 6.10498 19.7155 6.10498 19.5V18.2812C6.10498 18.0658 6.02458 17.8591 5.88147 17.7067C5.73835 17.5544 5.54425 17.4688 5.34186 17.4688ZM3.81561 19.5V18.2812H5.34186V19.5H3.81561Z" fill="#109CF1"/>
<path d="M17.9334 13.8125C16.9524 13.8125 15.9934 14.1222 15.1776 14.7026C14.3619 15.2829 13.7262 16.1077 13.3507 17.0727C12.9753 18.0377 12.8771 19.0996 13.0685 20.1241C13.2599 21.1485 13.7323 22.0896 14.426 22.8282C15.1197 23.5668 16.0035 24.0697 16.9657 24.2735C17.9279 24.4773 18.9253 24.3727 19.8316 23.973C20.738 23.5733 21.5127 22.8963 22.0577 22.0279C22.6028 21.1594 22.8937 20.1383 22.8937 19.0937C22.8922 17.6936 22.3691 16.3512 21.4392 15.3611C20.5093 14.371 19.2485 13.8141 17.9334 13.8125ZM17.9334 23.5625C17.1033 23.5625 16.2918 23.3004 15.6016 22.8094C14.9114 22.3183 14.3734 21.6204 14.0558 20.8039C13.7381 19.9873 13.655 19.0888 13.8169 18.2219C13.9789 17.3551 14.3786 16.5588 14.9656 15.9339C15.5526 15.3089 16.3004 14.8833 17.1146 14.7109C17.9288 14.5384 18.7727 14.6269 19.5396 14.9652C20.3065 15.3034 20.962 15.8762 21.4232 16.611C21.8844 17.3459 22.1306 18.2099 22.1306 19.0937C22.1293 20.2785 21.6867 21.4143 20.8998 22.2521C20.113 23.0898 19.0462 23.5611 17.9334 23.5625Z" fill="#109CF1"/>
<path d="M20.138 17.3909L17.1703 20.5507L15.8214 19.1142C15.7495 19.0402 15.6531 18.9993 15.5531 19.0002C15.453 19.0011 15.3573 19.0438 15.2866 19.1192C15.2158 19.1945 15.1757 19.2964 15.1748 19.4029C15.1739 19.5094 15.2124 19.612 15.2819 19.6886L16.9005 21.4124C16.972 21.4885 17.0691 21.5313 17.1703 21.5313C17.2714 21.5313 17.3685 21.4885 17.44 21.4124L20.6776 17.9653C20.7471 17.8887 20.7855 17.7861 20.7847 17.6796C20.7838 17.5731 20.7437 17.4712 20.6729 17.3958C20.6022 17.3205 20.5065 17.2778 20.4064 17.2769C20.3064 17.2759 20.21 17.3169 20.138 17.3909Z" fill="#109CF1"/>
</svg>
