<svg width="20" height="21" viewBox="0 0 20 21" fill="none" xmlns="http://www.w3.org/2000/svg">
<path d="M17.2221 1.62769H15.5558V0H14.4442V1.62769H5.55579V0H4.44421V1.62769H2.77789C1.24584 1.62769 0 2.84465 0 4.34119V17.3658C0 18.8623 1.24584 20.0793 2.77789 20.0793H17.2221C18.7542 20.0793 20 18.8623 20 17.3658V7.05469V5.9699V4.34119C20 2.84567 18.7542 1.62769 17.2221 1.62769ZM18.8895 17.3658C18.8895 18.2635 18.1422 18.9935 17.2231 18.9935H2.77789C1.85887 18.9935 1.11157 18.2635 1.11157 17.3658V7.05469H18.8895V17.3658ZM18.8895 5.9699H1.11053V4.34119C1.11053 3.44347 1.85783 2.7135 2.77685 2.7135H4.44317V3.79931H5.55579V2.7135H14.4453V3.79931H15.5568V2.7135H17.2231C18.1422 2.7135 18.8895 3.44347 18.8895 4.34119V5.9699Z" fill="#109CF1"/>
<path d="M8.81026 12.3215H11.1907C11.8474 12.3215 12.3814 11.8609 12.3814 11.2945V9.24138C12.3814 8.67498 11.8474 8.21436 11.1907 8.21436H8.81026C8.15356 8.21436 7.61951 8.67498 7.61951 9.24138V11.2945C7.62062 11.8609 8.15468 12.3215 8.81026 12.3215ZM8.81026 9.24138H11.1907L11.1918 11.2945H8.81026V9.24138Z" fill="#109CF1"/>
<path d="M14.4054 12.3215H16.5478C17.1388 12.3215 17.6195 11.8609 17.6195 11.2945V9.24138C17.6195 8.67498 17.1388 8.21436 16.5478 8.21436H14.4054C13.8144 8.21436 13.3337 8.67498 13.3337 9.24138V11.2945C13.3347 11.8609 13.8154 12.3215 14.4054 12.3215ZM14.4054 9.24138H16.5478L16.5488 11.2945H14.4054V9.24138Z" fill="#109CF1"/>
<path d="M3.45244 17.3413H5.59479C6.18582 17.3413 6.66647 16.8806 6.66647 16.3142V14.2612C6.66647 13.6948 6.18582 13.2341 5.59479 13.2341H3.45244C2.86142 13.2341 2.38077 13.6948 2.38077 14.2612V16.3142C2.38077 16.8806 2.86142 17.3413 3.45244 17.3413ZM3.45244 14.2612H5.59479L5.5958 16.3142H3.45244V14.2612Z" fill="#109CF1"/>
<path d="M8.81026 17.3413H11.1907C11.8474 17.3413 12.3814 16.8806 12.3814 16.3142V14.2612C12.3814 13.6948 11.8474 13.2341 11.1907 13.2341H8.81026C8.15356 13.2341 7.61951 13.6948 7.61951 14.2612V16.3142C7.62062 16.8806 8.15468 17.3413 8.81026 17.3413ZM8.81026 14.2612H11.1907L11.1918 16.3142H8.81026V14.2612Z" fill="#109CF1"/>
<path d="M14.4054 17.3413H16.5478C17.1388 17.3413 17.6195 16.8806 17.6195 16.3142V14.2612C17.6195 13.6948 17.1388 13.2341 16.5478 13.2341H14.4054C13.8144 13.2341 13.3337 13.6948 13.3337 14.2612V16.3142C13.3347 16.8806 13.8154 17.3413 14.4054 17.3413ZM14.4054 14.2612H16.5478L16.5488 16.3142H14.4054V14.2612Z" fill="#109CF1"/>
</svg>
