<svg width="18" height="22" viewBox="0 0 18 22" fill="none" xmlns="http://www.w3.org/2000/svg">
<path d="M9 8C10.3356 8 11.5915 8.52029 12.5356 9.46441C13.4797 10.4085 14 11.6644 14 13C14 14.3353 13.4797 15.5915 12.5356 16.5356C11.5915 17.4794 10.3356 18 9 18C7.66441 18 6.40853 17.4794 5.46441 16.5356C4.52059 15.5915 4 14.3356 4 13C4 11.6644 4.52059 10.4085 5.46441 9.46441C6.40853 8.52029 7.66441 8 9 8ZM6.74706 9.91529L9 12.1682L11.2529 9.91529C10.6024 9.43824 9.82206 9.17647 9 9.17647C8.17794 9.17647 7.39765 9.43824 6.74706 9.91529ZM12.0847 10.7471L9.83176 13L12.0847 15.2529C12.5618 14.6021 12.8235 13.8221 12.8235 13C12.8235 12.1779 12.5618 11.3976 12.0847 10.7471ZM11.2529 16.0847L9 13.8318L6.74706 16.0847C7.39765 16.5615 8.17794 16.8235 9 16.8235C9.82206 16.8235 10.6024 16.5615 11.2529 16.0847ZM5.91529 15.2529L8.16824 13L5.91529 10.7471C5.43853 11.3976 5.17647 12.1779 5.17647 13C5.17647 13.8221 5.43853 14.6024 5.91529 15.2529Z" fill="#CE2323"/>
<path d="M1.63837 4.73459L4.74725 1.63622C5.11119 1.27351 5.77397 1 6.28814 1H15.1017C16.1482 1 17 1.84892 17 2.89189V19.1081C17 20.1511 16.1482 21 15.1017 21H2.89831C1.8518 21 1 20.1511 1 19.1081V6.27027C1 5.75757 1.27444 5.0973 1.63837 4.73459ZM2.84895 5.05649C2.86576 5.05622 2.88149 5.05405 2.89831 5.05405H4.25424C4.70278 5.05405 5.0678 4.69027 5.0678 4.24324V2.89189C5.0678 2.87514 5.06997 2.85946 5.07024 2.84297L2.84895 5.05649ZM2.08475 19.1081C2.08475 19.5551 2.44976 19.9189 2.89831 19.9189H15.1017C15.5502 19.9189 15.9153 19.5551 15.9153 19.1081V2.89189C15.9153 2.44486 15.5502 2.08108 15.1017 2.08108H6.9661C6.51756 2.08108 6.15254 2.44486 6.15254 2.89189V4.24324C6.15254 5.28622 5.30075 6.13513 4.25424 6.13513H2.89831C2.44976 6.13513 2.08475 6.49892 2.08475 6.94595V19.1081Z" fill="#CE2323"/>
<path fill-rule="evenodd" clip-rule="evenodd" d="M12.677 16.677C11.6954 17.6583 10.3887 18.2 9.00005 18.2C7.61139 18.2 6.30466 17.6583 5.32306 16.677C4.34177 15.6954 3.80005 14.3886 3.80005 13C3.80005 11.6113 4.34173 10.3046 5.32302 9.323C6.30464 8.34138 7.61142 7.79999 9.00005 7.79999C10.3887 7.79999 11.6954 8.34135 12.6771 9.32298C13.6587 10.3046 14.2 11.6114 14.2 13C14.2 14.3883 13.6587 15.6954 12.677 16.677ZM5.46446 9.4644C6.40858 8.52028 7.66446 7.99999 9.00005 7.99999C10.3356 7.99999 11.5915 8.52028 12.5356 9.4644C13.4798 10.4085 14 11.6644 14 13C14 14.3353 13.4798 15.5915 12.5356 16.5356C11.5915 17.4794 10.3356 18 9.00005 18C7.66446 18 6.40858 17.4794 5.46446 16.5356C4.52064 15.5915 4.00005 14.3356 4.00005 13C4.00005 11.6644 4.52064 10.4085 5.46446 9.4644ZM9.00005 12.1682L6.74711 9.91528C6.80187 9.87513 6.85755 9.8365 6.91409 9.79942C7.52935 9.39601 8.24718 9.17646 9.00005 9.17646C9.75291 9.17646 10.4708 9.39601 11.086 9.79942C11.1426 9.8365 11.1982 9.87513 11.253 9.91528L9.00005 12.1682ZM10.9414 9.94404L9.00005 11.8854L7.05871 9.94404C7.63402 9.5761 8.30096 9.37646 9.00005 9.37646C9.69914 9.37646 10.3661 9.5761 10.9414 9.94404ZM9.83181 13L12.0848 10.747C12.1249 10.8018 12.1635 10.8575 12.2006 10.914C12.604 11.5293 12.8236 12.2471 12.8236 13C12.8236 13.7529 12.604 14.4705 12.2006 15.0859C12.1635 15.1425 12.1249 15.1982 12.0848 15.2529L9.83181 13ZM10.1147 13L12.056 14.9413C12.4239 14.3658 12.6236 13.6991 12.6236 13C12.6236 12.3009 12.4239 11.634 12.056 11.0586L10.1147 13ZM9.00005 13.8318L11.253 16.0847C11.1982 16.1248 11.1425 16.1634 11.086 16.2005C10.4707 16.6037 9.7529 16.8235 9.00005 16.8235C8.2472 16.8235 7.52938 16.6037 6.91413 16.2005C6.85757 16.1634 6.80188 16.1248 6.74711 16.0847L9.00005 13.8318ZM9.00005 14.1146L7.05875 16.0559C7.63409 16.4237 8.30103 16.6235 9.00005 16.6235C9.69907 16.6235 10.366 16.4237 10.9413 16.0559L9.00005 14.1146ZM8.16828 13L5.91534 15.2529C5.8752 15.1982 5.83659 15.1425 5.79952 15.0859C5.39631 14.4707 5.17652 13.7528 5.17652 13C5.17652 12.2471 5.39631 11.5293 5.79952 10.9141C5.83659 10.8575 5.8752 10.8018 5.91534 10.747L8.16828 13ZM7.88544 13L5.94415 11.0587C5.57636 11.634 5.37652 12.301 5.37652 13C5.37652 13.699 5.57636 14.3659 5.94415 14.9413L7.88544 13ZM1.49724 4.59292L4.60612 1.49454C4.81105 1.29031 5.09185 1.11827 5.38509 0.997216C5.67833 0.876156 5.99877 0.799988 6.28818 0.799988H15.1017C16.2581 0.799988 17.2001 1.73781 17.2001 2.89188V19.1081C17.2001 20.2622 16.2581 21.2 15.1017 21.2H2.89835C1.74203 21.2 0.800049 20.2622 0.800049 19.1081V6.27026C0.800049 5.98136 0.876552 5.66176 0.99808 5.3694C1.11962 5.07702 1.2923 4.79717 1.49724 4.59292ZM2.849 5.05647C2.85686 5.05635 2.86449 5.05581 2.87211 5.05527C2.88077 5.05465 2.88941 5.05404 2.89835 5.05404H4.25429C4.70283 5.05404 5.06785 4.69026 5.06785 4.24323V2.89188C5.06785 2.88292 5.06847 2.87427 5.06908 2.86564C5.06962 2.85814 5.07016 2.85063 5.07029 2.84296L2.849 5.05647ZM4.86785 3.32704L3.33548 4.85404H4.25429C4.59301 4.85404 4.86785 4.57916 4.86785 4.24323V3.32704ZM2.28479 19.1081C2.28479 19.444 2.55963 19.7189 2.89835 19.7189H15.1017C15.4405 19.7189 15.7153 19.444 15.7153 19.1081V2.89188C15.7153 2.55595 15.4405 2.28107 15.1017 2.28107H6.96615C6.62743 2.28107 6.35259 2.55595 6.35259 2.89188V4.24323C6.35259 5.3973 5.41061 6.33512 4.25429 6.33512H2.89835C2.55963 6.33512 2.28479 6.61 2.28479 6.94593V19.1081ZM4.7473 1.6362L1.63842 4.73458C1.27449 5.09729 1.00005 5.75756 1.00005 6.27026V19.1081C1.00005 20.1511 1.85185 21 2.89835 21H15.1017C16.1483 21 17 20.1511 17 19.1081V2.89188C17 1.84891 16.1483 0.999988 15.1017 0.999988H6.28818C5.77401 0.999988 5.11124 1.2735 4.7473 1.6362ZM2.89835 19.9189C2.44981 19.9189 2.08479 19.5551 2.08479 19.1081V6.94593C2.08479 6.49891 2.44981 6.13512 2.89835 6.13512H4.25429C5.30079 6.13512 6.15259 5.2862 6.15259 4.24323V2.89188C6.15259 2.44485 6.51761 2.08107 6.96615 2.08107H15.1017C15.5503 2.08107 15.9153 2.44485 15.9153 2.89188V19.1081C15.9153 19.5551 15.5503 19.9189 15.1017 19.9189H2.89835Z" fill="#CE2323"/>
</svg>
