<svg width="27" height="23" viewBox="0 0 27 23" fill="none" xmlns="http://www.w3.org/2000/svg">
<path d="M24.5726 22.7167C24.9469 22.7167 25.2788 22.5803 25.5673 22.3776H25.5674H25.5675H25.5677H25.5678H25.5679H25.5681H25.5682H25.5683H25.5685H25.5686H25.5687H25.5689H25.569H25.5691H25.5693H25.5694H25.5696H25.5697H25.5698H25.57H25.5701H25.5703H25.5704H25.5705H25.5707H25.5708H25.571H25.5711H25.5713H25.5714H25.5716H25.5717H25.5719H25.572H25.5722H25.5723H25.5725H25.5726H25.5728H25.5729H25.5731H25.5733H25.5734H25.5736H25.5737H25.5739H25.5741H25.5742H25.5744H25.5745H25.5747H25.5749H25.575H25.5752H25.5754H25.5755H25.5757H25.5759H25.5761H25.5762H25.5764H25.5766H25.5767H25.5769H25.5771H25.5773H25.5774H25.5776H25.5778H25.578H25.5782H25.5783H25.5785H25.5787H25.5789H25.5791H25.5793H25.5794H25.5796H25.5798H25.58H25.5802H25.5804H25.5806H25.5808H25.581H25.5812H25.5814H25.5815H25.5817H25.5819H25.5821H25.5823H25.5825H25.5827H25.5829H25.5831H25.5833H25.5835H25.5837H25.584H25.5842H25.5844H25.5846H25.5848H25.585H25.5852H25.5854H25.5856H25.5858H25.5861H25.5863H25.5865H25.5867H25.5869H25.5871H25.5874H25.5876H25.5878H25.588H25.5882H25.5885H25.5887H25.5889H25.5891H25.5894H25.5896H25.5898H25.5901H25.5903H25.5905H25.5908H25.591H25.5912H25.5915H25.5917H25.5919H25.5922H25.6422V22.3276V22.3276V22.3276V22.3275V22.3275V22.3275V22.3275V22.3275V22.3275V22.3274V22.3274V22.3274V22.3274V22.3274V22.3274V22.3273V22.3273V22.3273V22.3273V22.3273V22.3272V22.3272V22.3272V22.3272V22.3272V22.3271V22.3271V22.3271V22.3271V22.3271V22.327V22.327V22.327V22.3269V22.3269V22.3269V22.3269V22.3269V22.3268V22.3268V22.3268V22.3268V22.3268V22.3268V22.3267V22.3267V22.3267V22.3267V22.3267V22.3267V22.3266V22.3266V22.3266V22.3266V22.3266V22.3265V22.3265V22.3265V22.3265V22.3265V22.3264V22.3264V22.3264V22.3264V22.3264V22.3263V22.3263V22.3263V22.3263V22.3262V22.3262V22.3262V22.3262V22.3261V22.3261V22.3261V22.3261V22.326V22.326V22.326V22.326V22.3259V22.3259V22.3259V22.3259V22.3258V22.3258V22.3258V22.3258V22.3257V22.3257V22.3257V22.3256V22.3256V22.3256V22.3255V22.3255V22.3255V22.3255V22.3254V22.3254V22.3254V22.3253V22.3253V22.3253V22.3252V22.3252V22.3252V22.3251V22.3251V22.325V22.325V22.325V22.3249V22.3249V22.3249V22.3248V22.3248V22.3248V22.3247V22.3247V22.3246V22.3246V22.3246V22.3245V22.3245V22.3244V22.3244V22.3244V22.3243V22.3243V22.3242V22.3242V22.3241V22.3241V22.3241V22.324V22.324V22.3239V22.3239V22.3238V22.3238V22.3237V22.3237V22.3236V22.3236V22.3236V22.3235V22.3235V22.3234V22.3234V22.3233V22.3233V22.3232V22.3232V22.3231V22.3231V22.323V22.3229V22.3229V22.3228V22.3228V22.3227V22.3227V22.3226V22.3226V22.3225V22.3225V22.3224V22.3223V22.3223V22.3222V22.3222V22.3221V22.322V22.322V22.3219V22.3219V22.3218V22.3217V22.3217V22.3216V22.3216V22.3215V22.3214V22.3214V22.3213V22.3212V22.3212V22.3211V22.321V22.321V22.3209V22.3208V22.3208V22.3207V22.3206V22.3206V22.3205V22.3204V22.3204V22.3203V22.3202V22.3201V22.3201V22.32V22.3199V22.3198V22.3198V22.3197V22.3196V22.3195V22.3195V22.3194V22.3193V22.3192V22.3192V22.3191V22.319V22.3189V22.3188V22.3188V22.3187V22.3186V22.3185V22.3184V22.3183V22.3183V22.3182V22.3181V22.318V22.3179V22.3178V22.3178V22.3177V22.3176V22.3175V22.3174V22.3173V22.3172V22.3171V22.317V22.3169V22.3169C25.8849 22.1085 26.05 21.8301 26.05 21.5138V9.74804C26.05 9.69002 26.0382 9.63936 26.0135 9.59308C25.9891 9.54735 25.9534 9.50865 25.9096 9.47225L22.298 6.4695V2.15284C22.298 1.47275 21.6548 0.95 20.8613 0.95H6.09788C5.30443 0.95 4.66126 1.47275 4.66126 2.15284V6.4695L1.09038 9.43834C1.0466 9.47474 1.01094 9.51344 0.986492 9.55917C0.961754 9.60545 0.95 9.65611 0.95 9.71414V21.5138C0.95 21.8362 1.12169 22.1547 1.37586 22.366C1.62996 22.5773 2.00845 22.7167 2.38662 22.7167H24.5726ZM22.298 11.9132V7.58286L24.9022 9.74804L22.298 11.9132ZM5.57692 2.15284C5.57692 1.91745 5.79019 1.72814 6.09788 1.72814H20.8613C21.169 1.72814 21.3823 1.91745 21.3823 2.15284V12.6745L13.4796 19.2448L5.57692 12.6745V2.15284ZM2.057 9.74804L4.66126 7.58286V11.9132L2.057 9.74804ZM8.3443 16.0548L1.86566 21.4411V10.6684L8.3443 16.0548ZM17.9657 16.5945L24.4342 21.9724H2.52497L8.99347 16.5945L13.1622 20.0604C13.2541 20.1368 13.3883 20.1736 13.4796 20.1736C13.571 20.1736 13.7052 20.1368 13.7971 20.0604L17.9657 16.5945ZM25.0936 10.6684V21.4411L18.6149 16.0548L25.0936 10.6684Z" fill="#F47229" stroke="#F47229" stroke-width="0.1"/>
<path d="M15.4643 8.23325L15.4643 8.23305C15.4966 8.07154 15.3994 7.91473 15.2449 7.85296L15.2451 7.85253L15.2385 7.85087C15.0181 7.79577 14.771 7.76842 14.5247 7.76842C13.2529 7.76842 12.2346 8.84607 12.2346 10.1934C12.2346 10.5545 12.3458 10.8576 12.5449 11.0709C12.7443 11.2846 13.028 11.4039 13.3641 11.4039C13.6851 11.4039 14.0264 11.2528 14.2955 11.0497C14.4971 11.3575 14.8213 11.5119 15.1454 11.5119C16.1512 11.5119 17.1385 10.6189 17.1386 8.95231C17.1522 8.03639 16.8444 7.26738 16.3077 6.72724C15.771 6.1871 15.0087 5.8792 14.1198 5.8792C11.9848 5.8792 10.3724 7.57726 10.3724 9.81559C10.3724 11.7043 11.7161 13.0773 13.5531 13.0773C14.262 13.0773 14.8365 12.9408 15.3837 12.6671L15.3909 12.6635L15.3967 12.6578C15.4561 12.5984 15.5018 12.5231 15.5212 12.4456C15.5404 12.3685 15.5342 12.2854 15.4838 12.2167C15.3938 12.069 15.204 11.9932 15.0648 12.0942C14.6153 12.3314 14.1387 12.4375 13.5531 12.4375C12.2814 12.4375 11.0121 11.5386 11.0121 9.81559C11.0121 9.00275 11.2788 8.17788 11.8 7.55706C12.3203 6.93731 13.0958 6.51898 14.1198 6.51898C14.8368 6.51898 15.4376 6.7644 15.859 7.1858C16.2804 7.6072 16.5258 8.20797 16.5258 8.92496C16.5258 10.2041 15.8364 10.8451 15.1724 10.8451C15.1252 10.8451 15.041 10.8331 14.9636 10.7824C14.8913 10.7352 14.821 10.6519 14.7934 10.5026C15.0062 10.2047 15.1402 9.88015 15.1946 9.55482L15.4643 8.23325ZM14.5836 9.37372L14.5836 9.37371L14.5833 9.37555C14.531 9.68951 14.3667 10.0254 14.146 10.2823C13.9243 10.5404 13.6536 10.7102 13.3911 10.7102C13.1752 10.7102 13.0576 10.6351 12.991 10.5337C12.9216 10.4282 12.9014 10.2852 12.9014 10.1395C12.9014 9.16497 13.665 8.35421 14.5517 8.35421C14.6418 8.35421 14.724 8.35459 14.79 8.36759L14.5836 9.37372Z" fill="#F47229" stroke="#F47229" stroke-width="0.1"/>
</svg>
