<svg width="20" height="22" viewBox="0 0 20 22" fill="none" xmlns="http://www.w3.org/2000/svg">
<path d="M1.99695 17.4134L1.99704 17.4133L7.68895 15.8547L7.68896 15.8548L7.69128 15.8541C7.79124 15.8241 7.88377 15.7732 7.96144 15.6955L17.1365 6.52043C17.9549 5.70208 17.9549 4.36863 17.1365 3.55028L15.1044 1.51384L15.1043 1.51376C14.286 0.695412 12.9525 0.695412 12.1342 1.51376L2.95908 10.6888C2.88141 10.7665 2.83053 10.8591 2.80054 10.959L2.80051 10.959L2.79987 10.9614L1.24127 16.6576L1.24126 16.6576L1.24098 16.6586C1.18499 16.8724 1.24087 17.0988 1.40048 17.2584C1.51518 17.3731 1.67465 17.4341 1.83286 17.4341C1.88703 17.4341 1.93922 17.4291 1.99695 17.4134ZM7.53338 14.3812L4.27343 11.1212L10.7496 4.64505L14.0096 7.90499L7.53338 14.3812ZM13.0075 2.38713C13.3474 2.04729 13.8954 2.04729 14.2353 2.38713L16.2675 4.41934C16.6073 4.75917 16.6073 5.30724 16.2675 5.64707L14.8829 7.03163L11.623 3.77168L13.0075 2.38713ZM2.71201 15.9383L3.70932 12.3038L6.34646 14.941L2.71201 15.9383Z" fill="#9E9B9B" stroke="#9E9B9B" stroke-width="0.2"/>
<path d="M18.3527 20.1749H1.46637C1.12698 20.1749 0.849707 20.4522 0.849707 20.7916C0.849707 21.131 1.12698 21.4082 1.46637 21.4082H18.3527C18.692 21.4082 18.9693 21.131 18.9693 20.7916C18.9693 20.4522 18.692 20.1749 18.3527 20.1749Z" fill="#9E9B9B" stroke="#9E9B9B" stroke-width="0.2"/>
</svg>
