<svg width="26" height="17" viewBox="0 0 26 17" fill="none" xmlns="http://www.w3.org/2000/svg">
<path d="M25.4796 7.30805C24.111 5.6037 19.1787 0 13.1102 0C7.04164 0 2.10935 5.6037 0.74071 7.30805C0.353357 7.7987 0.353357 8.49593 0.74071 8.98658C2.10935 10.7168 7.04164 16.3204 13.1102 16.3204C19.1787 16.3204 24.111 10.7168 25.4796 9.0124C25.8411 8.52175 25.8411 7.7987 25.4796 7.30805ZM13.1102 14.6161C7.94547 14.6161 3.478 9.63216 2.23847 8.16022C3.42635 6.66246 7.94547 1.70435 13.1102 1.70435C18.2749 1.70435 22.7423 6.68829 23.9819 8.16022C22.7682 9.65799 18.2749 14.6161 13.1102 14.6161Z" fill="#14B0F3"/>
<path d="M13.1099 3.1499C10.3467 3.1499 8.1001 5.39655 8.1001 8.15966C8.1001 10.9228 10.3467 13.1694 13.1099 13.1694C15.873 13.1694 18.1196 10.9228 18.1196 8.15966C18.1196 5.39655 15.873 3.1499 13.1099 3.1499ZM13.1099 11.4651C11.2764 11.4651 9.80445 9.9673 9.80445 8.15966C9.80445 6.35202 11.2764 4.85425 13.1099 4.85425C14.9433 4.85425 16.4411 6.32619 16.4411 8.15966C16.4411 9.99313 14.9433 11.4651 13.1099 11.4651Z" fill="#14B0F3"/>
</svg>
