<svg width="27" height="27" viewBox="0 0 27 27" fill="none" xmlns="http://www.w3.org/2000/svg">
<path d="M8.89452 22.254L8.89451 22.253L8.90629 13.5485L8.90629 13.5483C8.90706 13.2469 9.15148 13.0014 9.45323 13.0021L9.45284 13.1521M8.89452 22.254L18.0633 22.2936C18.0639 19.5029 18.0925 16.7009 18.1222 13.8801C18.1531 11.0202 18.1828 8.14035 18.1828 5.23403L18.1828 5.23394C18.1825 4.73175 18.0682 4.33847 17.7866 4.07423C17.5073 3.8122 17.0941 3.70627 16.5651 3.70423C15.2134 3.69806 13.8618 3.69975 12.5101 3.70199C12.5101 3.70199 12.5101 3.70199 12.5101 3.70199C12.5101 3.70199 12.51 3.70199 12.51 3.70199L10.551 3.70367C10.551 3.70367 10.551 3.70367 10.5509 3.70367C9.73448 3.70397 9.26307 3.89799 9.0223 4.31875C8.9072 4.51988 8.8541 4.75857 8.82809 5.01839C8.80224 5.27672 8.80211 5.56999 8.80197 5.88524L8.80197 5.89021L8.80197 5.89069L8.80253 6.08981L8.80253 6.09016C8.80407 6.38939 9.04638 6.63559 9.35058 6.63482L9.35097 6.63482C9.6518 6.63327 9.89696 6.38881 9.89563 6.08567C9.89563 6.08553 9.89563 6.08539 9.89563 6.08526L9.89563 5.87295C9.89577 5.56415 9.89597 5.34091 9.90813 5.17534C9.92061 5.00541 9.94455 4.92476 9.9721 4.88281C9.99117 4.85379 10.0207 4.82944 10.1109 4.81413C10.2086 4.79752 10.3444 4.79692 10.5512 4.79677L10.5512 4.79677L12.5126 4.79509H12.5127C12.5922 4.79499 12.6717 4.79489 12.7511 4.79479C14.0217 4.79317 15.2913 4.79156 16.5608 4.79789L16.5609 4.79789C16.7206 4.79858 16.8324 4.80655 16.9117 4.82244C16.9905 4.83823 17.0225 4.85902 17.0375 4.87399C17.0513 4.8878 17.0664 4.91227 17.0764 4.97197C17.0868 5.03437 17.089 5.11672 17.0892 5.23459C17.0892 8.13574 17.0594 11.0118 17.0297 13.8696C17.0065 16.0117 16.9842 18.1437 16.9751 20.2689L13.9396 15.03L13.9397 15.03L13.9385 15.028C13.8403 14.8643 13.663 14.7577 13.4666 14.7577C13.2721 14.7577 13.0918 14.8605 12.9936 15.0299L12.9935 15.03L9.99112 20.2146L9.9994 13.5489V13.5487C9.9994 13.2471 9.75444 13.0021 9.45284 13.0021L9.45284 13.1521M8.89452 22.254C8.89528 22.4011 8.95458 22.5392 9.05511 22.6397C9.12073 22.7053 9.20352 22.7559 9.29956 22.7817L9.30006 22.7818C9.53881 22.845 9.79066 22.7418 9.91514 22.5277L9.91526 22.5275L13.4666 16.3939L17.0432 22.5673L17.0441 22.5689C17.1698 22.7799 17.4179 22.8867 17.6583 22.8221L17.6592 22.8218C17.8968 22.7565 18.0633 22.5414 18.0633 22.2936L8.89452 22.254ZM9.45284 13.1521C9.23466 13.1516 9.05685 13.3294 9.05629 13.5487L9.8494 13.5487C9.8494 13.3299 9.67159 13.1521 9.45284 13.1521Z" fill="#DB4C2D" stroke="#DB4C2D" stroke-width="0.3"/>
<path d="M7.24812 12.1106L7.24863 12.1111L7.24863 12.1112L7.24863 12.1112L7.24864 12.1112L7.24864 12.1112L7.24865 12.1112L7.24865 12.1112L7.24865 12.1112L7.24865 12.1112L7.24866 12.1112L7.24866 12.1112L7.24867 12.1112L7.24867 12.1112L7.24867 12.1112L7.24868 12.1112L7.24868 12.1112L7.24869 12.1112L7.24869 12.1112L7.2487 12.1112L7.2487 12.1112L7.24871 12.1112L7.24872 12.1112L7.24872 12.1112L7.24873 12.1112L7.24874 12.1113L7.24874 12.1113L7.24875 12.1113L7.24876 12.1113L7.24876 12.1113L7.24877 12.1113L7.24878 12.1113L7.24879 12.1113L7.2488 12.1113L7.2488 12.1113L7.24881 12.1113L7.24882 12.1113L7.24883 12.1114L7.24884 12.1114L7.24885 12.1114L7.24886 12.1114L7.24887 12.1114L7.24888 12.1114L7.24889 12.1114L7.2489 12.1114L7.24891 12.1114L7.24892 12.1114L7.24893 12.1115L7.24894 12.1115L7.24895 12.1115L7.24897 12.1115L7.24898 12.1115L7.24899 12.1115L7.249 12.1115L7.24901 12.1115L7.24903 12.1115L7.24904 12.1116L7.24905 12.1116L7.24906 12.1116L7.24908 12.1116L7.24909 12.1116L7.2491 12.1116L7.24912 12.1116L7.24913 12.1117L7.24915 12.1117L7.24916 12.1117L7.24917 12.1117L7.24919 12.1117L7.2492 12.1117L7.24922 12.1117L7.24923 12.1118L7.24925 12.1118L7.24926 12.1118L7.24928 12.1118L7.24929 12.1118L7.24931 12.1118L7.24933 12.1118L7.24934 12.1119L7.24936 12.1119L7.24937 12.1119L7.24939 12.1119L7.24941 12.1119L7.24942 12.1119L7.24944 12.112L7.24946 12.112L7.24948 12.112L7.24949 12.112L7.24951 12.112L7.24953 12.112L7.24955 12.1121L7.24956 12.1121L7.24958 12.1121L7.2496 12.1121L7.24962 12.1121L7.24964 12.1122L7.24966 12.1122L7.24968 12.1122L7.2497 12.1122L7.24971 12.1122L7.24973 12.1123L7.24975 12.1123L7.24977 12.1123L7.24979 12.1123L7.24981 12.1123L7.24983 12.1124L7.24985 12.1124L7.24987 12.1124L7.24989 12.1124L7.24991 12.1124L7.24993 12.1125L7.24996 12.1125L7.24998 12.1125L7.25 12.1125L7.25002 12.1125L7.25004 12.1126L7.25006 12.1126L7.25008 12.1126L7.25011 12.1126L7.25013 12.1126L7.25015 12.1127L7.25017 12.1127L7.25019 12.1127L7.25022 12.1127L7.25024 12.1128L7.25026 12.1128L7.25028 12.1128L7.25031 12.1128L7.25033 12.1128L7.25035 12.1129L7.25038 12.1129L7.2504 12.1129L7.25042 12.1129L7.25045 12.113L7.25047 12.113L7.25049 12.113L7.25052 12.113L7.25054 12.1131L7.25056 12.1131L7.25059 12.1131L7.25061 12.1131L7.25064 12.1132L7.25066 12.1132L7.25069 12.1132L7.25071 12.1132L7.25074 12.1133L7.25076 12.1133L7.25078 12.1133L7.25081 12.1133L7.25084 12.1134L7.25086 12.1134L7.25089 12.1134L7.25091 12.1134L7.25094 12.1135L7.25096 12.1135L7.25099 12.1135L7.25101 12.1135L7.25104 12.1136L7.25107 12.1136L7.25109 12.1136L7.25112 12.1136L7.25114 12.1137L7.25117 12.1137L7.2512 12.1137L7.25122 12.1137L7.25125 12.1138L7.25128 12.1138L7.2513 12.1138L7.25133 12.1138L7.25136 12.1139L7.25138 12.1139L7.25141 12.1139L7.25144 12.114L7.25146 12.114L7.25149 12.114L7.25152 12.114L7.25155 12.1141L7.25157 12.1141L7.2516 12.1141L7.25163 12.1141L7.25166 12.1142L7.25169 12.1142L7.25171 12.1142L7.25174 12.1143L7.25177 12.1143L7.2518 12.1143L7.25183 12.1143L7.25185 12.1144L7.25188 12.1144L7.25191 12.1144L7.25194 12.1145L7.25197 12.1145L7.25199 12.1145L7.25202 12.1145L7.25205 12.1146L7.25208 12.1146L7.25211 12.1146L7.25214 12.1147L7.25217 12.1147L7.2522 12.1147L7.25222 12.1147L7.25225 12.1148L7.25228 12.1148L7.25231 12.1148L7.25234 12.1149L7.25237 12.1149L7.2524 12.1149L7.25243 12.1149L7.25246 12.115L7.25249 12.115L7.25252 12.115L7.25255 12.1151L7.25258 12.1151L7.2526 12.1151L7.25263 12.1152L7.25266 12.1152L7.25269 12.1152L7.25272 12.1152L7.25275 12.1153L7.25278 12.1153L7.25281 12.1153L7.25284 12.1154L7.25287 12.1154L7.2529 12.1154L7.25293 12.1155L7.25296 12.1155L7.25299 12.1155L7.25302 12.1155L7.25305 12.1156L7.25308 12.1156L7.25311 12.1156L7.25314 12.1157L7.25317 12.1157L7.2532 12.1157L7.25323 12.1158L7.25326 12.1158L7.25329 12.1158L7.25332 12.1158L7.25335 12.1159L7.25338 12.1159L7.25341 12.1159L7.25344 12.116L7.25347 12.116L7.2535 12.116L7.25353 12.1161L7.25357 12.1161L7.2536 12.1161L7.25363 12.1161L7.25366 12.1162L7.25369 12.1162L7.25372 12.1162L7.25375 12.1163L7.25378 12.1163L7.25381 12.1163L7.25384 12.1164L7.25387 12.1164L7.2539 12.1164L7.25393 12.1164L7.25396 12.1165L7.25399 12.1165L7.25402 12.1165L7.25405 12.1166L7.25408 12.1166L7.25411 12.1166L7.25414 12.1167L7.25417 12.1167L7.2542 12.1167L7.25423 12.1168L7.25426 12.1168L7.25429 12.1168L7.25433 12.1168L7.25436 12.1169L7.25439 12.1169L7.25442 12.1169L7.25445 12.117L7.25448 12.117L7.25451 12.117L7.25454 12.1171L7.25457 12.1171L7.2546 12.1171L7.25463 12.1171L7.25466 12.1172L7.25469 12.1172L7.25472 12.1172L7.25475 12.1173L7.25478 12.1173L7.25481 12.1173L7.25484 12.1174L7.25487 12.1174L7.2549 12.1174L7.25493 12.1174L7.25496 12.1175L7.25499 12.1175L7.25502 12.1175L7.25505 12.1176L7.25508 12.1176L7.25511 12.1176L7.25514 12.1177L7.25517 12.1177L7.2552 12.1177L7.25523 12.1177L7.25526 12.1178L7.25529 12.1178L7.25532 12.1178L7.25535 12.1179L7.25538 12.1179L7.2554 12.1179L7.25543 12.118L7.25546 12.118L7.25549 12.118L7.25552 12.118L7.25555 12.1181L7.25558 12.1181L7.25561 12.1181L7.25564 12.1182L7.25567 12.1182L7.2557 12.1182L7.25573 12.1182L7.25575 12.1183L7.25578 12.1183L7.25581 12.1183L7.25584 12.1184L7.25587 12.1184L7.2559 12.1184L7.25593 12.1184L7.25596 12.1185L7.25598 12.1185L7.25601 12.1185L7.25604 12.1186L7.25607 12.1186L7.2561 12.1186L7.25612 12.1186L7.25615 12.1187L7.25618 12.1187L7.25621 12.1187L7.25624 12.1188L7.25626 12.1188L7.25629 12.1188L7.25632 12.1188L7.25635 12.1189L7.25638 12.1189L7.2564 12.1189L7.25643 12.1189L7.25646 12.119L7.25648 12.119L7.25651 12.119L7.25654 12.1191L7.25657 12.1191L7.25659 12.1191L7.25662 12.1191L7.25665 12.1192L7.25667 12.1192L7.2567 12.1192L7.25673 12.1192L7.25675 12.1193L7.25678 12.1193L7.25681 12.1193L7.25683 12.1194L7.25686 12.1194L7.25688 12.1194L7.25691 12.1194L7.25694 12.1195L7.25696 12.1195L7.25699 12.1195L7.25701 12.1195L7.25704 12.1196L7.25706 12.1196L7.25709 12.1196L7.25711 12.1196L7.25714 12.1197L7.25716 12.1197L7.25719 12.1197L7.25721 12.1197L7.25724 12.1198L7.25726 12.1198L7.25729 12.1198L7.25731 12.1198L7.25734 12.1199L7.25736 12.1199L7.25738 12.1199L7.25741 12.1199L7.25743 12.12L7.25746 12.12L7.25748 12.12L7.2575 12.12L7.25753 12.12L7.25755 12.1201L7.25757 12.1201L7.2576 12.1201L7.25762 12.1201L7.25764 12.1202L7.25766 12.1202L7.25769 12.1202L7.25771 12.1202L7.25773 12.1203L7.25775 12.1203L7.25778 12.1203L7.2578 12.1203L7.25782 12.1203L7.25784 12.1204L7.25786 12.1204L7.25789 12.1204L7.25791 12.1204L7.25793 12.1204L7.25795 12.1205L7.25797 12.1205L7.25799 12.1205L7.25801 12.1205L7.25803 12.1206L7.25805 12.1206L7.25807 12.1206L7.25809 12.1206L7.25811 12.1206L7.25813 12.1207L7.25815 12.1207L7.25817 12.1207L7.25819 12.1207L7.25821 12.1207L7.25823 12.1208L7.25825 12.1208L7.25827 12.1208L7.25829 12.1208L7.25831 12.1208L7.25833 12.1208L7.25835 12.1209L7.25836 12.1209L7.25838 12.1209L7.2584 12.1209L7.25842 12.1209L7.25844 12.121L7.25845 12.121L7.25847 12.121L7.25849 12.121L7.2585 12.121L7.25852 12.121L7.25854 12.1211L7.25856 12.1211L7.25857 12.1211L7.25859 12.1211L7.2586 12.1211L7.25862 12.1211L7.25864 12.1212L7.25865 12.1212L7.25867 12.1212L7.25868 12.1212L7.2587 12.1212L7.25871 12.1212L7.25873 12.1212L7.25874 12.1213L7.25876 12.1213L7.25877 12.1213L7.25879 12.1213L7.2588 12.1213L7.25881 12.1213L7.25883 12.1213L7.25884 12.1214L7.25885 12.1214L7.25887 12.1214L7.25888 12.1214L7.25889 12.1214L7.25891 12.1214L7.25892 12.1214L7.25893 12.1214L7.25894 12.1215L7.25895 12.1215L7.25897 12.1215L7.25898 12.1215L7.25899 12.1215L7.259 12.1215L7.25901 12.1215L7.25902 12.1215L7.25903 12.1216L7.25904 12.1216L7.25905 12.1216L7.25906 12.1216L7.25907 12.1216L7.25908 12.1216L7.25909 12.1216L7.2591 12.1216L7.25911 12.1216L7.25912 12.1216L7.25913 12.1216L7.25914 12.1217L7.25915 12.1217L7.25915 12.1217L7.25916 12.1217L7.25917 12.1217L7.25918 12.1217L7.25919 12.1217L7.25919 12.1217L7.2592 12.1217L7.25921 12.1217L7.25921 12.1217L7.25922 12.1217L7.25923 12.1217L7.25923 12.1218L7.25924 12.1218L7.25924 12.1218L7.25925 12.1218L7.25925 12.1218L7.25926 12.1218L7.25926 12.1218L7.25927 12.1218L7.25927 12.1218L7.25928 12.1218L7.25928 12.1218L7.25928 12.1218L7.25929 12.1218C7.86919 12.7317 8.68258 13.0671 9.54676 13.066C10.4072 13.0654 11.2133 12.7292 11.8164 12.1226L11.8165 12.1225C13.0442 10.8854 13.049 8.8623 11.8029 7.58215L11.8029 7.58214L11.8015 7.58071C11.2037 6.98293 10.3983 6.65663 9.53616 6.65898C8.66739 6.66077 7.85713 6.99711 7.25698 7.60433L7.25695 7.60436C6.02579 8.85082 6.02083 10.8716 7.24812 12.1106ZM9.53922 7.75208H9.53922C10.1102 7.7505 10.638 7.96362 11.0485 8.37377C11.8532 9.20122 11.8481 10.5384 11.0411 11.3519C10.6442 11.7509 10.1137 11.9718 9.54527 11.9729C8.97254 11.9739 8.43593 11.7524 8.03231 11.3488L8.02419 11.3407C7.21922 10.527 7.22235 9.19548 8.03467 8.37268L8.03469 8.37266C8.42751 7.97462 8.9615 7.75365 9.53922 7.75208Z" fill="#DB4C2D" stroke="#DB4C2D" stroke-width="0.3"/>
<path d="M7.6416 9.86196L7.6416 9.86273C7.64237 10.0128 7.70334 10.1496 7.8022 10.2485C7.90038 10.3466 8.03672 10.4092 8.18851 10.4085C8.18865 10.4085 8.18879 10.4085 8.18892 10.4085L10.7806 10.4085C11.0822 10.4085 11.3271 10.1636 11.3271 9.86196C11.3271 9.56037 11.0822 9.31541 10.7806 9.31541L8.18815 9.31541C7.88656 9.31541 7.6416 9.56037 7.6416 9.86196Z" fill="#DB4C2D" stroke="#DB4C2D" stroke-width="0.3"/>
</svg>
