<svg width="24" height="24" viewBox="0 0 24 24" fill="none" xmlns="http://www.w3.org/2000/svg">
<mask id="path-1-outside-1" maskUnits="userSpaceOnUse" x="3.82608" y="3.82608" width="16" height="16" fill="black">
<rect fill="white" x="3.82608" y="3.82608" width="16" height="16"/>
<path d="M17.7716 10.0869H17.7104C17.6207 10.0862 17.5333 10.0584 17.4596 10.0072C17.3859 9.95599 17.3293 9.88379 17.2972 9.79999C17.2634 9.71907 17.2545 9.62993 17.2715 9.54391C17.2886 9.4579 17.3308 9.37889 17.3929 9.31695L17.4364 9.27343C17.6987 9.01007 17.846 8.65349 17.846 8.28175C17.846 7.91002 17.6987 7.55344 17.4364 7.29008L16.7137 6.56791C16.4506 6.30535 16.094 6.1579 15.7223 6.1579C15.3506 6.1579 14.994 6.30535 14.7309 6.56791L14.6873 6.61143C14.6232 6.67318 14.5425 6.71487 14.455 6.73138C14.3675 6.74789 14.2771 6.73851 14.1949 6.70438C14.1127 6.67025 14.0422 6.61287 13.9921 6.53927C13.9421 6.46566 13.9146 6.37904 13.913 6.29004V6.22834C13.9127 5.85655 13.7648 5.50011 13.5019 5.23721C13.239 4.97432 12.8826 4.82646 12.5108 4.82608H11.4892C11.1174 4.82646 10.761 4.97432 10.4981 5.23721C10.2352 5.50011 10.0873 5.85655 10.0869 6.22834V6.29004C10.0846 6.3784 10.0567 6.4642 10.0066 6.53704C9.95655 6.60988 9.88642 6.66664 9.80474 6.70044C9.72306 6.73425 9.63333 6.74365 9.54642 6.72751C9.45951 6.71138 9.37914 6.67039 9.31504 6.60951L9.27151 6.56599C9.00836 6.30344 8.65181 6.15599 8.28008 6.15599C7.90835 6.15599 7.5518 6.30344 7.28865 6.56599L6.56599 7.28817C6.30364 7.55152 6.15634 7.90811 6.15634 8.27984C6.15634 8.65157 6.30364 9.00816 6.56599 9.27151L6.60951 9.31504C6.67219 9.37916 6.71414 9.46065 6.72992 9.54892C6.7457 9.63719 6.73458 9.72817 6.69799 9.81004C6.66517 9.89158 6.60878 9.96148 6.53603 10.0108C6.46327 10.0601 6.37746 10.0866 6.28956 10.0869H6.22834C5.85655 10.0873 5.50011 10.2352 5.23721 10.4981C4.97432 10.761 4.82646 11.1174 4.82608 11.4892V12.5108C4.82646 12.8826 4.97432 13.239 5.23721 13.5019C5.50011 13.7648 5.85655 13.9127 6.22834 13.913H6.28956C6.37929 13.9138 6.4667 13.9416 6.54041 13.9928C6.61411 14.044 6.67069 14.1162 6.70278 14.2C6.73656 14.2809 6.7455 14.3701 6.72847 14.4561C6.71143 14.5421 6.66919 14.6211 6.60712 14.683L6.5636 14.7266C6.30125 14.9899 6.15395 15.3465 6.15395 15.7182C6.15395 16.09 6.30125 16.4465 6.5636 16.7099L7.28578 17.4316C7.54888 17.6944 7.90556 17.842 8.27745 17.842C8.64934 17.842 9.00601 17.6944 9.26912 17.4316L9.31265 17.3881C9.37681 17.3255 9.45829 17.2835 9.54655 17.2678C9.6348 17.252 9.72576 17.2631 9.80765 17.2996C9.88919 17.3323 9.95911 17.3886 10.0084 17.4613C10.0578 17.5339 10.0843 17.6197 10.0846 17.7076V17.7693C10.0844 17.9537 10.1207 18.1365 10.1912 18.3069C10.2618 18.4774 10.3652 18.6323 10.4957 18.7628C10.6261 18.8932 10.781 18.9967 10.9515 19.0672C11.122 19.1378 11.3047 19.174 11.4892 19.1739H12.5108C12.8826 19.1735 13.239 19.0257 13.5019 18.7628C13.7648 18.4999 13.9127 18.1434 13.913 17.7716V17.7099C13.9154 17.6216 13.9433 17.5358 13.9934 17.4629C14.0434 17.3901 14.1136 17.3333 14.1952 17.2995C14.2769 17.2657 14.3667 17.2563 14.4536 17.2725C14.5405 17.2886 14.6208 17.3296 14.6849 17.3905L14.7285 17.434C14.9916 17.6965 15.3482 17.844 15.7199 17.844C16.0916 17.844 16.4482 17.6965 16.7113 17.434L17.434 16.7123C17.6963 16.4489 17.8436 16.0924 17.8436 15.7206C17.8436 15.3489 17.6963 14.9923 17.434 14.7289L17.3905 14.6854C17.3278 14.6213 17.2858 14.5398 17.2701 14.4515C17.2543 14.3633 17.2654 14.2723 17.302 14.1904C17.3347 14.1088 17.3911 14.0388 17.4639 13.9894C17.5366 13.94 17.6225 13.9134 17.7104 13.913H17.7716C18.1434 13.9127 18.4999 13.7648 18.7628 13.5019C19.0257 13.239 19.1735 12.8826 19.1739 12.5108V11.4892C19.1735 11.1174 19.0257 10.761 18.7628 10.4981C18.4999 10.2352 18.1434 10.0873 17.7716 10.0869ZM18.2174 12.5108C18.2173 12.629 18.1703 12.7423 18.0867 12.8258C18.0031 12.9094 17.8898 12.9564 17.7716 12.9565H17.7104C17.4329 12.9589 17.1622 13.0429 16.9321 13.1981C16.7019 13.3532 16.5226 13.5727 16.4164 13.8291C16.3101 14.0855 16.2817 14.3675 16.3347 14.64C16.3877 14.9124 16.5197 15.1633 16.7142 15.3612L16.7573 15.4047C16.8407 15.4885 16.8876 15.6019 16.8876 15.7201C16.8876 15.8384 16.8407 15.9518 16.7573 16.0356L16.0346 16.7573C15.951 16.8408 15.8376 16.8878 15.7194 16.8878C15.6012 16.8878 15.4878 16.8408 15.4043 16.7573L15.3612 16.7137C15.1632 16.5194 14.9124 16.3876 14.64 16.3348C14.3676 16.2819 14.0857 16.3104 13.8294 16.4166C13.5731 16.5228 13.3536 16.702 13.1984 16.932C13.0432 17.162 12.9591 17.4325 12.9565 17.7099V17.7716C12.9564 17.8898 12.9094 18.0031 12.8258 18.0867C12.7423 18.1703 12.629 18.2173 12.5108 18.2174H11.4892C11.371 18.2173 11.2577 18.1703 11.1742 18.0867C11.0906 18.0031 11.0436 17.8898 11.0435 17.7716V17.7099C11.0421 17.4319 10.9587 17.1605 10.8037 16.9298C10.6487 16.699 10.4289 16.5192 10.1721 16.4128C9.91524 16.3064 9.63269 16.2783 9.35991 16.3319C9.08713 16.3855 8.83626 16.5185 8.63878 16.7142L8.59525 16.7577C8.51154 16.8411 8.39821 16.8879 8.28008 16.8879C8.16195 16.8879 8.04862 16.8411 7.96491 16.7577L7.24273 16.036C7.15923 15.9523 7.11235 15.8389 7.11235 15.7206C7.11235 15.6024 7.15923 15.4889 7.24273 15.4052L7.28625 15.3617C7.481 15.1637 7.61314 14.9128 7.66618 14.6403C7.71922 14.3677 7.69082 14.0855 7.58451 13.829C7.4782 13.5725 7.29871 13.3529 7.06841 13.1978C6.83812 13.0426 6.56723 12.9587 6.28956 12.9565H6.22834C6.11016 12.9564 5.99686 12.9094 5.9133 12.8258C5.82973 12.7423 5.78273 12.629 5.7826 12.5108V11.4892C5.78273 11.371 5.82973 11.2577 5.9133 11.1742C5.99686 11.0906 6.11016 11.0436 6.22834 11.0435H6.28956C6.5671 11.0411 6.8378 10.9571 7.06792 10.8019C7.29804 10.6468 7.47739 10.4273 7.58362 10.1709C7.68985 9.91446 7.71825 9.63244 7.66529 9.36C7.61232 9.08755 7.48033 8.83672 7.28578 8.63878L7.24273 8.59525C7.15926 8.5116 7.11239 8.39825 7.11239 8.28008C7.11239 8.16191 7.15926 8.04856 7.24273 7.96491L7.96538 7.24225C8.04898 7.15867 8.16235 7.11171 8.28056 7.11171C8.39877 7.11171 8.51214 7.15867 8.59573 7.24225L8.63878 7.28578C8.83677 7.48008 9.08754 7.61186 9.35987 7.66471C9.6322 7.71757 9.91406 7.68916 10.1704 7.58303C10.4267 7.4769 10.6461 7.29773 10.8014 7.06782C10.9566 6.83792 11.0408 6.56744 11.0435 6.29004V6.22834C11.0436 6.11016 11.0906 5.99686 11.1742 5.9133C11.2577 5.82973 11.371 5.78273 11.4892 5.7826H12.5108C12.629 5.78273 12.7423 5.82973 12.8258 5.9133C12.9094 5.99686 12.9564 6.11016 12.9565 6.22834V6.29004C12.959 6.56754 13.043 6.83817 13.1982 7.06822C13.3535 7.29827 13.5729 7.47755 13.8293 7.58372C14.0857 7.68989 14.3677 7.71825 14.6401 7.66527C14.9125 7.61229 15.1633 7.48031 15.3612 7.28578L15.4047 7.24225C15.4883 7.15867 15.6017 7.11171 15.7199 7.11171C15.8381 7.11171 15.9515 7.15867 16.0351 7.24225L16.7573 7.96491C16.8407 8.04856 16.8876 8.16191 16.8876 8.28008C16.8876 8.39825 16.8407 8.5116 16.7573 8.59525L16.7137 8.63878C16.5191 8.83675 16.3871 9.08762 16.3342 9.36011C16.2813 9.63261 16.3097 9.91466 16.416 10.1711C16.5223 10.4275 16.7017 10.647 16.9319 10.8021C17.1621 10.9573 17.4328 11.0412 17.7104 11.0435H17.7716C17.8898 11.0436 18.0031 11.0906 18.0867 11.1742C18.1703 11.2577 18.2173 11.371 18.2174 11.4892V12.5108Z"/>
</mask>
<path d="M17.7716 10.0869H17.7104C17.6207 10.0862 17.5333 10.0584 17.4596 10.0072C17.3859 9.95599 17.3293 9.88379 17.2972 9.79999C17.2634 9.71907 17.2545 9.62993 17.2715 9.54391C17.2886 9.4579 17.3308 9.37889 17.3929 9.31695L17.4364 9.27343C17.6987 9.01007 17.846 8.65349 17.846 8.28175C17.846 7.91002 17.6987 7.55344 17.4364 7.29008L16.7137 6.56791C16.4506 6.30535 16.094 6.1579 15.7223 6.1579C15.3506 6.1579 14.994 6.30535 14.7309 6.56791L14.6873 6.61143C14.6232 6.67318 14.5425 6.71487 14.455 6.73138C14.3675 6.74789 14.2771 6.73851 14.1949 6.70438C14.1127 6.67025 14.0422 6.61287 13.9921 6.53927C13.9421 6.46566 13.9146 6.37904 13.913 6.29004V6.22834C13.9127 5.85655 13.7648 5.50011 13.5019 5.23721C13.239 4.97432 12.8826 4.82646 12.5108 4.82608H11.4892C11.1174 4.82646 10.761 4.97432 10.4981 5.23721C10.2352 5.50011 10.0873 5.85655 10.0869 6.22834V6.29004C10.0846 6.3784 10.0567 6.4642 10.0066 6.53704C9.95655 6.60988 9.88642 6.66664 9.80474 6.70044C9.72306 6.73425 9.63333 6.74365 9.54642 6.72751C9.45951 6.71138 9.37914 6.67039 9.31504 6.60951L9.27151 6.56599C9.00836 6.30344 8.65181 6.15599 8.28008 6.15599C7.90835 6.15599 7.5518 6.30344 7.28865 6.56599L6.56599 7.28817C6.30364 7.55152 6.15634 7.90811 6.15634 8.27984C6.15634 8.65157 6.30364 9.00816 6.56599 9.27151L6.60951 9.31504C6.67219 9.37916 6.71414 9.46065 6.72992 9.54892C6.7457 9.63719 6.73458 9.72817 6.69799 9.81004C6.66517 9.89158 6.60878 9.96148 6.53603 10.0108C6.46327 10.0601 6.37746 10.0866 6.28956 10.0869H6.22834C5.85655 10.0873 5.50011 10.2352 5.23721 10.4981C4.97432 10.761 4.82646 11.1174 4.82608 11.4892V12.5108C4.82646 12.8826 4.97432 13.239 5.23721 13.5019C5.50011 13.7648 5.85655 13.9127 6.22834 13.913H6.28956C6.37929 13.9138 6.4667 13.9416 6.54041 13.9928C6.61411 14.044 6.67069 14.1162 6.70278 14.2C6.73656 14.2809 6.7455 14.3701 6.72847 14.4561C6.71143 14.5421 6.66919 14.6211 6.60712 14.683L6.5636 14.7266C6.30125 14.9899 6.15395 15.3465 6.15395 15.7182C6.15395 16.09 6.30125 16.4465 6.5636 16.7099L7.28578 17.4316C7.54888 17.6944 7.90556 17.842 8.27745 17.842C8.64934 17.842 9.00601 17.6944 9.26912 17.4316L9.31265 17.3881C9.37681 17.3255 9.45829 17.2835 9.54655 17.2678C9.6348 17.252 9.72576 17.2631 9.80765 17.2996C9.88919 17.3323 9.95911 17.3886 10.0084 17.4613C10.0578 17.5339 10.0843 17.6197 10.0846 17.7076V17.7693C10.0844 17.9537 10.1207 18.1365 10.1912 18.3069C10.2618 18.4774 10.3652 18.6323 10.4957 18.7628C10.6261 18.8932 10.781 18.9967 10.9515 19.0672C11.122 19.1378 11.3047 19.174 11.4892 19.1739H12.5108C12.8826 19.1735 13.239 19.0257 13.5019 18.7628C13.7648 18.4999 13.9127 18.1434 13.913 17.7716V17.7099C13.9154 17.6216 13.9433 17.5358 13.9934 17.4629C14.0434 17.3901 14.1136 17.3333 14.1952 17.2995C14.2769 17.2657 14.3667 17.2563 14.4536 17.2725C14.5405 17.2886 14.6208 17.3296 14.6849 17.3905L14.7285 17.434C14.9916 17.6965 15.3482 17.844 15.7199 17.844C16.0916 17.844 16.4482 17.6965 16.7113 17.434L17.434 16.7123C17.6963 16.4489 17.8436 16.0924 17.8436 15.7206C17.8436 15.3489 17.6963 14.9923 17.434 14.7289L17.3905 14.6854C17.3278 14.6213 17.2858 14.5398 17.2701 14.4515C17.2543 14.3633 17.2654 14.2723 17.302 14.1904C17.3347 14.1088 17.3911 14.0388 17.4639 13.9894C17.5366 13.94 17.6225 13.9134 17.7104 13.913H17.7716C18.1434 13.9127 18.4999 13.7648 18.7628 13.5019C19.0257 13.239 19.1735 12.8826 19.1739 12.5108V11.4892C19.1735 11.1174 19.0257 10.761 18.7628 10.4981C18.4999 10.2352 18.1434 10.0873 17.7716 10.0869ZM18.2174 12.5108C18.2173 12.629 18.1703 12.7423 18.0867 12.8258C18.0031 12.9094 17.8898 12.9564 17.7716 12.9565H17.7104C17.4329 12.9589 17.1622 13.0429 16.9321 13.1981C16.7019 13.3532 16.5226 13.5727 16.4164 13.8291C16.3101 14.0855 16.2817 14.3675 16.3347 14.64C16.3877 14.9124 16.5197 15.1633 16.7142 15.3612L16.7573 15.4047C16.8407 15.4885 16.8876 15.6019 16.8876 15.7201C16.8876 15.8384 16.8407 15.9518 16.7573 16.0356L16.0346 16.7573C15.951 16.8408 15.8376 16.8878 15.7194 16.8878C15.6012 16.8878 15.4878 16.8408 15.4043 16.7573L15.3612 16.7137C15.1632 16.5194 14.9124 16.3876 14.64 16.3348C14.3676 16.2819 14.0857 16.3104 13.8294 16.4166C13.5731 16.5228 13.3536 16.702 13.1984 16.932C13.0432 17.162 12.9591 17.4325 12.9565 17.7099V17.7716C12.9564 17.8898 12.9094 18.0031 12.8258 18.0867C12.7423 18.1703 12.629 18.2173 12.5108 18.2174H11.4892C11.371 18.2173 11.2577 18.1703 11.1742 18.0867C11.0906 18.0031 11.0436 17.8898 11.0435 17.7716V17.7099C11.0421 17.4319 10.9587 17.1605 10.8037 16.9298C10.6487 16.699 10.4289 16.5192 10.1721 16.4128C9.91524 16.3064 9.63269 16.2783 9.35991 16.3319C9.08713 16.3855 8.83626 16.5185 8.63878 16.7142L8.59525 16.7577C8.51154 16.8411 8.39821 16.8879 8.28008 16.8879C8.16195 16.8879 8.04862 16.8411 7.96491 16.7577L7.24273 16.036C7.15923 15.9523 7.11235 15.8389 7.11235 15.7206C7.11235 15.6024 7.15923 15.4889 7.24273 15.4052L7.28625 15.3617C7.481 15.1637 7.61314 14.9128 7.66618 14.6403C7.71922 14.3677 7.69082 14.0855 7.58451 13.829C7.4782 13.5725 7.29871 13.3529 7.06841 13.1978C6.83812 13.0426 6.56723 12.9587 6.28956 12.9565H6.22834C6.11016 12.9564 5.99686 12.9094 5.9133 12.8258C5.82973 12.7423 5.78273 12.629 5.7826 12.5108V11.4892C5.78273 11.371 5.82973 11.2577 5.9133 11.1742C5.99686 11.0906 6.11016 11.0436 6.22834 11.0435H6.28956C6.5671 11.0411 6.8378 10.9571 7.06792 10.8019C7.29804 10.6468 7.47739 10.4273 7.58362 10.1709C7.68985 9.91446 7.71825 9.63244 7.66529 9.36C7.61232 9.08755 7.48033 8.83672 7.28578 8.63878L7.24273 8.59525C7.15926 8.5116 7.11239 8.39825 7.11239 8.28008C7.11239 8.16191 7.15926 8.04856 7.24273 7.96491L7.96538 7.24225C8.04898 7.15867 8.16235 7.11171 8.28056 7.11171C8.39877 7.11171 8.51214 7.15867 8.59573 7.24225L8.63878 7.28578C8.83677 7.48008 9.08754 7.61186 9.35987 7.66471C9.6322 7.71757 9.91406 7.68916 10.1704 7.58303C10.4267 7.4769 10.6461 7.29773 10.8014 7.06782C10.9566 6.83792 11.0408 6.56744 11.0435 6.29004V6.22834C11.0436 6.11016 11.0906 5.99686 11.1742 5.9133C11.2577 5.82973 11.371 5.78273 11.4892 5.7826H12.5108C12.629 5.78273 12.7423 5.82973 12.8258 5.9133C12.9094 5.99686 12.9564 6.11016 12.9565 6.22834V6.29004C12.959 6.56754 13.043 6.83817 13.1982 7.06822C13.3535 7.29827 13.5729 7.47755 13.8293 7.58372C14.0857 7.68989 14.3677 7.71825 14.6401 7.66527C14.9125 7.61229 15.1633 7.48031 15.3612 7.28578L15.4047 7.24225C15.4883 7.15867 15.6017 7.11171 15.7199 7.11171C15.8381 7.11171 15.9515 7.15867 16.0351 7.24225L16.7573 7.96491C16.8407 8.04856 16.8876 8.16191 16.8876 8.28008C16.8876 8.39825 16.8407 8.5116 16.7573 8.59525L16.7137 8.63878C16.5191 8.83675 16.3871 9.08762 16.3342 9.36011C16.2813 9.63261 16.3097 9.91466 16.416 10.1711C16.5223 10.4275 16.7017 10.647 16.9319 10.8021C17.1621 10.9573 17.4328 11.0412 17.7104 11.0435H17.7716C17.8898 11.0436 18.0031 11.0906 18.0867 11.1742C18.1703 11.2577 18.2173 11.371 18.2174 11.4892V12.5108Z" fill="black"/>
<path d="M17.7716 10.0869H17.7104C17.6207 10.0862 17.5333 10.0584 17.4596 10.0072C17.3859 9.95599 17.3293 9.88379 17.2972 9.79999C17.2634 9.71907 17.2545 9.62993 17.2715 9.54391C17.2886 9.4579 17.3308 9.37889 17.3929 9.31695L17.4364 9.27343C17.6987 9.01007 17.846 8.65349 17.846 8.28175C17.846 7.91002 17.6987 7.55344 17.4364 7.29008L16.7137 6.56791C16.4506 6.30535 16.094 6.1579 15.7223 6.1579C15.3506 6.1579 14.994 6.30535 14.7309 6.56791L14.6873 6.61143C14.6232 6.67318 14.5425 6.71487 14.455 6.73138C14.3675 6.74789 14.2771 6.73851 14.1949 6.70438C14.1127 6.67025 14.0422 6.61287 13.9921 6.53927C13.9421 6.46566 13.9146 6.37904 13.913 6.29004V6.22834C13.9127 5.85655 13.7648 5.50011 13.5019 5.23721C13.239 4.97432 12.8826 4.82646 12.5108 4.82608H11.4892C11.1174 4.82646 10.761 4.97432 10.4981 5.23721C10.2352 5.50011 10.0873 5.85655 10.0869 6.22834V6.29004C10.0846 6.3784 10.0567 6.4642 10.0066 6.53704C9.95655 6.60988 9.88642 6.66664 9.80474 6.70044C9.72306 6.73425 9.63333 6.74365 9.54642 6.72751C9.45951 6.71138 9.37914 6.67039 9.31504 6.60951L9.27151 6.56599C9.00836 6.30344 8.65181 6.15599 8.28008 6.15599C7.90835 6.15599 7.5518 6.30344 7.28865 6.56599L6.56599 7.28817C6.30364 7.55152 6.15634 7.90811 6.15634 8.27984C6.15634 8.65157 6.30364 9.00816 6.56599 9.27151L6.60951 9.31504C6.67219 9.37916 6.71414 9.46065 6.72992 9.54892C6.7457 9.63719 6.73458 9.72817 6.69799 9.81004C6.66517 9.89158 6.60878 9.96148 6.53603 10.0108C6.46327 10.0601 6.37746 10.0866 6.28956 10.0869H6.22834C5.85655 10.0873 5.50011 10.2352 5.23721 10.4981C4.97432 10.761 4.82646 11.1174 4.82608 11.4892V12.5108C4.82646 12.8826 4.97432 13.239 5.23721 13.5019C5.50011 13.7648 5.85655 13.9127 6.22834 13.913H6.28956C6.37929 13.9138 6.4667 13.9416 6.54041 13.9928C6.61411 14.044 6.67069 14.1162 6.70278 14.2C6.73656 14.2809 6.7455 14.3701 6.72847 14.4561C6.71143 14.5421 6.66919 14.6211 6.60712 14.683L6.5636 14.7266C6.30125 14.9899 6.15395 15.3465 6.15395 15.7182C6.15395 16.09 6.30125 16.4465 6.5636 16.7099L7.28578 17.4316C7.54888 17.6944 7.90556 17.842 8.27745 17.842C8.64934 17.842 9.00601 17.6944 9.26912 17.4316L9.31265 17.3881C9.37681 17.3255 9.45829 17.2835 9.54655 17.2678C9.6348 17.252 9.72576 17.2631 9.80765 17.2996C9.88919 17.3323 9.95911 17.3886 10.0084 17.4613C10.0578 17.5339 10.0843 17.6197 10.0846 17.7076V17.7693C10.0844 17.9537 10.1207 18.1365 10.1912 18.3069C10.2618 18.4774 10.3652 18.6323 10.4957 18.7628C10.6261 18.8932 10.781 18.9967 10.9515 19.0672C11.122 19.1378 11.3047 19.174 11.4892 19.1739H12.5108C12.8826 19.1735 13.239 19.0257 13.5019 18.7628C13.7648 18.4999 13.9127 18.1434 13.913 17.7716V17.7099C13.9154 17.6216 13.9433 17.5358 13.9934 17.4629C14.0434 17.3901 14.1136 17.3333 14.1952 17.2995C14.2769 17.2657 14.3667 17.2563 14.4536 17.2725C14.5405 17.2886 14.6208 17.3296 14.6849 17.3905L14.7285 17.434C14.9916 17.6965 15.3482 17.844 15.7199 17.844C16.0916 17.844 16.4482 17.6965 16.7113 17.434L17.434 16.7123C17.6963 16.4489 17.8436 16.0924 17.8436 15.7206C17.8436 15.3489 17.6963 14.9923 17.434 14.7289L17.3905 14.6854C17.3278 14.6213 17.2858 14.5398 17.2701 14.4515C17.2543 14.3633 17.2654 14.2723 17.302 14.1904C17.3347 14.1088 17.3911 14.0388 17.4639 13.9894C17.5366 13.94 17.6225 13.9134 17.7104 13.913H17.7716C18.1434 13.9127 18.4999 13.7648 18.7628 13.5019C19.0257 13.239 19.1735 12.8826 19.1739 12.5108V11.4892C19.1735 11.1174 19.0257 10.761 18.7628 10.4981C18.4999 10.2352 18.1434 10.0873 17.7716 10.0869ZM18.2174 12.5108C18.2173 12.629 18.1703 12.7423 18.0867 12.8258C18.0031 12.9094 17.8898 12.9564 17.7716 12.9565H17.7104C17.4329 12.9589 17.1622 13.0429 16.9321 13.1981C16.7019 13.3532 16.5226 13.5727 16.4164 13.8291C16.3101 14.0855 16.2817 14.3675 16.3347 14.64C16.3877 14.9124 16.5197 15.1633 16.7142 15.3612L16.7573 15.4047C16.8407 15.4885 16.8876 15.6019 16.8876 15.7201C16.8876 15.8384 16.8407 15.9518 16.7573 16.0356L16.0346 16.7573C15.951 16.8408 15.8376 16.8878 15.7194 16.8878C15.6012 16.8878 15.4878 16.8408 15.4043 16.7573L15.3612 16.7137C15.1632 16.5194 14.9124 16.3876 14.64 16.3348C14.3676 16.2819 14.0857 16.3104 13.8294 16.4166C13.5731 16.5228 13.3536 16.702 13.1984 16.932C13.0432 17.162 12.9591 17.4325 12.9565 17.7099V17.7716C12.9564 17.8898 12.9094 18.0031 12.8258 18.0867C12.7423 18.1703 12.629 18.2173 12.5108 18.2174H11.4892C11.371 18.2173 11.2577 18.1703 11.1742 18.0867C11.0906 18.0031 11.0436 17.8898 11.0435 17.7716V17.7099C11.0421 17.4319 10.9587 17.1605 10.8037 16.9298C10.6487 16.699 10.4289 16.5192 10.1721 16.4128C9.91524 16.3064 9.63269 16.2783 9.35991 16.3319C9.08713 16.3855 8.83626 16.5185 8.63878 16.7142L8.59525 16.7577C8.51154 16.8411 8.39821 16.8879 8.28008 16.8879C8.16195 16.8879 8.04862 16.8411 7.96491 16.7577L7.24273 16.036C7.15923 15.9523 7.11235 15.8389 7.11235 15.7206C7.11235 15.6024 7.15923 15.4889 7.24273 15.4052L7.28625 15.3617C7.481 15.1637 7.61314 14.9128 7.66618 14.6403C7.71922 14.3677 7.69082 14.0855 7.58451 13.829C7.4782 13.5725 7.29871 13.3529 7.06841 13.1978C6.83812 13.0426 6.56723 12.9587 6.28956 12.9565H6.22834C6.11016 12.9564 5.99686 12.9094 5.9133 12.8258C5.82973 12.7423 5.78273 12.629 5.7826 12.5108V11.4892C5.78273 11.371 5.82973 11.2577 5.9133 11.1742C5.99686 11.0906 6.11016 11.0436 6.22834 11.0435H6.28956C6.5671 11.0411 6.8378 10.9571 7.06792 10.8019C7.29804 10.6468 7.47739 10.4273 7.58362 10.1709C7.68985 9.91446 7.71825 9.63244 7.66529 9.36C7.61232 9.08755 7.48033 8.83672 7.28578 8.63878L7.24273 8.59525C7.15926 8.5116 7.11239 8.39825 7.11239 8.28008C7.11239 8.16191 7.15926 8.04856 7.24273 7.96491L7.96538 7.24225C8.04898 7.15867 8.16235 7.11171 8.28056 7.11171C8.39877 7.11171 8.51214 7.15867 8.59573 7.24225L8.63878 7.28578C8.83677 7.48008 9.08754 7.61186 9.35987 7.66471C9.6322 7.71757 9.91406 7.68916 10.1704 7.58303C10.4267 7.4769 10.6461 7.29773 10.8014 7.06782C10.9566 6.83792 11.0408 6.56744 11.0435 6.29004V6.22834C11.0436 6.11016 11.0906 5.99686 11.1742 5.9133C11.2577 5.82973 11.371 5.78273 11.4892 5.7826H12.5108C12.629 5.78273 12.7423 5.82973 12.8258 5.9133C12.9094 5.99686 12.9564 6.11016 12.9565 6.22834V6.29004C12.959 6.56754 13.043 6.83817 13.1982 7.06822C13.3535 7.29827 13.5729 7.47755 13.8293 7.58372C14.0857 7.68989 14.3677 7.71825 14.6401 7.66527C14.9125 7.61229 15.1633 7.48031 15.3612 7.28578L15.4047 7.24225C15.4883 7.15867 15.6017 7.11171 15.7199 7.11171C15.8381 7.11171 15.9515 7.15867 16.0351 7.24225L16.7573 7.96491C16.8407 8.04856 16.8876 8.16191 16.8876 8.28008C16.8876 8.39825 16.8407 8.5116 16.7573 8.59525L16.7137 8.63878C16.5191 8.83675 16.3871 9.08762 16.3342 9.36011C16.2813 9.63261 16.3097 9.91466 16.416 10.1711C16.5223 10.4275 16.7017 10.647 16.9319 10.8021C17.1621 10.9573 17.4328 11.0412 17.7104 11.0435H17.7716C17.8898 11.0436 18.0031 11.0906 18.0867 11.1742C18.1703 11.2577 18.2173 11.371 18.2174 11.4892V12.5108Z" stroke="black" stroke-width="0.2" mask="url(#path-1-outside-1)"/>
<path d="M12 8.60216H12C11.328 8.60216 10.671 8.80144 10.1123 9.1748C9.55349 9.54816 9.11798 10.0788 8.86081 10.6997C8.60363 11.3206 8.53634 12.0038 8.66745 12.6629C8.79856 13.322 9.12217 13.9274 9.59736 14.4026C10.0726 14.8778 10.678 15.2014 11.3371 15.3325C11.9962 15.4636 12.6794 15.3963 13.3003 15.1392C13.9212 14.882 14.4518 14.4465 14.8252 13.8877C15.1985 13.3289 15.3978 12.672 15.3978 12V11.9999C15.3968 11.0991 15.0385 10.2355 14.4015 9.59848C13.7645 8.9615 12.9009 8.60319 12 8.60216ZM11.9999 14.3413C11.5369 14.3413 11.0842 14.204 10.6992 13.9467C10.3142 13.6894 10.0141 13.3238 9.83691 12.896C9.6597 12.4681 9.61333 11.9974 9.70367 11.5432C9.79401 11.0891 10.017 10.6719 10.3444 10.3444C10.6719 10.017 11.0891 9.79401 11.5432 9.70367C11.9974 9.61333 12.4681 9.6597 12.896 9.8369C13.3238 10.0141 13.6894 10.3142 13.9467 10.6992C14.204 11.0842 14.3413 11.5369 14.3413 11.9999C14.3405 12.6207 14.0936 13.2158 13.6547 13.6547C13.2158 14.0936 12.6207 14.3405 11.9999 14.3413Z" fill="black" stroke="black" stroke-width="0.1"/>
<path d="M12.0001 0.95H12C9.81452 0.95 7.67812 1.59807 5.86095 2.81226C4.04379 4.02645 2.62748 5.75222 1.79114 7.77135C0.954788 9.79047 0.735961 12.0123 1.16233 14.1557C1.58869 16.2992 2.6411 18.2682 4.18647 19.8135C5.73184 21.3589 7.70077 22.4113 9.84426 22.8377C11.9877 23.264 14.2095 23.0452 16.2287 22.2089C18.2478 21.3725 19.9736 19.9562 21.1877 18.139C22.4019 16.3219 23.05 14.1855 23.05 12V11.9999C23.0467 9.07033 21.8814 6.26165 19.8099 4.1901C17.7383 2.11855 14.9297 0.953306 12.0001 0.95ZM11.9999 21.9935C10.0234 21.9935 8.09133 21.4074 6.44793 20.3093C4.80451 19.2112 3.52362 17.6504 2.76723 15.8243C2.01085 13.9983 1.81295 11.9889 2.19855 10.0504C2.58415 8.11182 3.53593 6.33116 4.93355 4.93354C6.33116 3.53593 8.11183 2.58414 10.0504 2.19854C11.9889 1.81294 13.9983 2.01085 15.8243 2.76723C17.6504 3.52361 19.2112 4.8045 20.3093 6.44792C21.4074 8.09132 21.9935 10.0234 21.9935 11.9999C21.9905 14.6495 20.9366 17.1896 19.0631 19.0631C17.1896 20.9366 14.6495 21.9905 11.9999 21.9935Z" fill="black" stroke="black" stroke-width="0.1"/>
</svg>
