<svg width="7" height="3" viewBox="0 0 7 3" fill="none" xmlns="http://www.w3.org/2000/svg">
<path d="M1.4275 2.28567e-07C1.52753 -0.000195202 1.62447 0.0346425 1.70149 0.0984662L3.99618 2.01641L6.29515 0.166965C6.33894 0.131404 6.38933 0.104847 6.44341 0.0888218C6.4975 0.0727968 6.55422 0.0676193 6.61032 0.0735869C6.66641 0.0795545 6.72078 0.0965492 6.77028 0.123595C6.81979 0.15064 6.86346 0.187203 6.89879 0.231182C6.93435 0.274973 6.96091 0.32536 6.97693 0.379447C6.99296 0.433535 6.99813 0.490256 6.99217 0.546351C6.9862 0.602446 6.9692 0.656809 6.94216 0.706315C6.91511 0.755821 6.87855 0.799493 6.83457 0.834822L4.26589 2.90261C4.18929 2.96558 4.0932 3 3.99404 3C3.89488 3 3.79879 2.96558 3.72219 2.90261L1.15351 0.762042C1.11016 0.726102 1.07432 0.681964 1.04806 0.632154C1.02179 0.582344 1.00561 0.527842 1.00044 0.471769C0.99527 0.415696 1.00121 0.359154 1.01793 0.305381C1.03464 0.251609 1.0618 0.201662 1.09785 0.158402C1.13769 0.109292 1.18791 0.0696169 1.24491 0.0422284C1.30191 0.01484 1.36426 0.000418397 1.4275 2.28567e-07Z" fill="#323C47"/>
</svg>
