<svg xmlns="http://www.w3.org/2000/svg" width="11.936" height="11.018" viewBox="0 0 11.936 11.018"><g transform="translate(0 0)"><g transform="translate(0 0)"><path d="M11.735,310.834a.664.664,0,0,0-.488-.2H7.919l-.976.975a1.385,1.385,0,0,1-1.951,0l-.968-.975H.689a.665.665,0,0,0-.488.2.664.664,0,0,0-.2.488v2.3a.664.664,0,0,0,.2.488.664.664,0,0,0,.488.2H11.247a.686.686,0,0,0,.689-.688v-2.3A.664.664,0,0,0,11.735,310.834Zm-2.69,2.417a.45.45,0,1,1,.136-.323A.442.442,0,0,1,9.045,313.251Zm1.836,0a.45.45,0,1,1,.136-.323A.441.441,0,0,1,10.882,313.251Z" transform="translate(0 -303.288)" fill="#585574"/><path d="M94.424,25.938a.451.451,0,0,0,.646,0l3.214-3.214a.414.414,0,0,0,.1-.5.429.429,0,0,0-.423-.28H96.124V18.729a.465.465,0,0,0-.459-.459H93.829a.466.466,0,0,0-.459.459v3.214H91.533a.429.429,0,0,0-.423.28.414.414,0,0,0,.1.5Z" transform="translate(-88.779 -18.27)" fill="#585574"/></g></g></svg>