<svg xmlns="http://www.w3.org/2000/svg" width="13.01" height="13.009" viewBox="0 0 13.01 13.009"><g transform="translate(-0.001 0)"><g transform="translate(0 0)"><path d="M12.97,5.782a.423.423,0,0,0-.418-.32,1.436,1.436,0,0,1-.983-2.5.361.361,0,0,0,.04-.49,6.436,6.436,0,0,0-1.03-1.041.362.362,0,0,0-.494.04,1.5,1.5,0,0,1-1.622.364A1.445,1.445,0,0,1,7.583.423a.361.361,0,0,0-.319-.38A6.494,6.494,0,0,0,5.8.04a.362.362,0,0,0-.322.372A1.447,1.447,0,0,1,4.588,1.8a1.5,1.5,0,0,1-1.61-.367.363.363,0,0,0-.491-.041,6.461,6.461,0,0,0-1.052,1.04.362.362,0,0,0,.039.494,1.441,1.441,0,0,1,.364,1.623,1.5,1.5,0,0,1-1.415.879.354.354,0,0,0-.376.319,6.516,6.516,0,0,0,0,1.479.43.43,0,0,0,.427.32,1.426,1.426,0,0,1,1.338.891,1.446,1.446,0,0,1-.364,1.608.361.361,0,0,0-.04.49,6.46,6.46,0,0,0,1.029,1.041.362.362,0,0,0,.5-.039,1.5,1.5,0,0,1,1.621-.365,1.442,1.442,0,0,1,.88,1.412.361.361,0,0,0,.319.38,6.473,6.473,0,0,0,1.463,0,.362.362,0,0,0,.322-.372,1.446,1.446,0,0,1,.89-1.387,1.5,1.5,0,0,1,1.611.366.363.363,0,0,0,.491.041,6.475,6.475,0,0,0,1.052-1.04.361.361,0,0,0-.039-.494,1.441,1.441,0,0,1-.364-1.623,1.456,1.456,0,0,1,1.331-.882l.08,0a.362.362,0,0,0,.381-.319A6.51,6.51,0,0,0,12.97,5.782ZM6.517,8.688a2.17,2.17,0,1,1,2.169-2.17A2.172,2.172,0,0,1,6.517,8.688Z" transform="translate(-0.003 0)" fill="#585574" fill-rule="evenodd"/></g></g></svg>