<svg xmlns="http://www.w3.org/2000/svg" width="24" height="24" viewBox="0 0 24 24"><path d="M0,0H24V24H0Z" fill="none"/><path d="M13.971,10.779a2.064,2.064,0,1,0-2.064-2.064A2.058,2.058,0,0,0,13.971,10.779ZM7.779,9.954A2.477,2.477,0,1,0,5.3,7.477,2.466,2.466,0,0,0,7.779,9.954Zm6.192,2.477c-1.511,0-4.541.76-4.541,2.27v1.858h9.081V14.7C18.512,13.19,15.482,12.43,13.971,12.43ZM7.779,11.6C5.855,11.6,2,12.571,2,14.494v2.064H7.779V14.7a3.254,3.254,0,0,1,1.957-2.865A10.141,10.141,0,0,0,7.779,11.6Z" transform="translate(1.744 1.221)" fill="#585574"/></svg>