<svg width="16" height="18" viewBox="0 0 16 18" fill="none" xmlns="http://www.w3.org/2000/svg">
<path fill-rule="evenodd" clip-rule="evenodd" d="M4.56809 0H11.2498V2.02511C11.2498 2.50513 10.8571 2.89778 10.3771 2.89778H5.44077C4.96075 2.89778 4.56809 2.50513 4.56809 2.02511V0ZM1.41809 0H3.52832V2.02511C3.52832 3.07899 4.38688 3.93756 5.44077 3.93756H10.3771C11.431 3.93756 12.2895 3.07899 12.2895 2.02511V0H14.3998C15.1799 0 15.8179 0.638153 15.8179 1.41809V16.5817C15.8179 17.3618 15.1799 18 14.3998 18H1.41809C0.637929 18 0 17.3618 0 16.5817V1.41809C0 0.638153 0.637929 0 1.41809 0ZM7.53733 12.9689H14.0857V14.071H7.53733V12.9689ZM7.53733 6.55938H14.0857V7.66142H7.53733V6.55938ZM5.58076 14.068V15.4443C4.29774 15.4443 3.01493 15.4443 1.73191 15.4443V11.5954H4.09323V12.4092H2.54545V14.6307H4.767V14.068H5.58076ZM3.29223 12.4934L3.8829 13.2989L5.39149 11.7513L5.9732 12.3169L3.7951 14.5514L2.63773 12.9732L3.29223 12.4934ZM5.58076 7.65851V9.03472C4.29774 9.03472 3.01493 9.03472 1.73191 9.03472V5.18586H4.09323V5.9994H2.54545V8.22095H4.767V7.65851H5.58076ZM3.29223 6.08385L3.8829 6.8891L5.39149 5.34176L5.9732 5.90734L3.7951 8.14166L2.63773 6.56364L3.29223 6.08385Z" fill="#256FDE"/>
</svg>
