<svg width="14" height="16" viewBox="0 0 14 16" fill="none" xmlns="http://www.w3.org/2000/svg">
<path d="M10.0202 8.83333C10.9632 8.83333 11.8676 9.18452 12.5344 9.80964C13.2012 10.4348 13.5758 11.2826 13.5758 12.1667C13.5758 13.0507 13.2012 13.8986 12.5344 14.5237C11.8676 15.1488 10.9632 15.5 10.0202 15.5C9.07721 15.5 8.17284 15.1488 7.50604 14.5237C6.83925 13.8986 6.46465 13.0507 6.46465 12.1667C6.46465 11.2826 6.83925 10.4348 7.50604 9.80964C8.17284 9.18452 9.07721 8.83333 10.0202 8.83333ZM6.46465 0.5C7.08525 0.499948 7.68224 0.723032 8.13264 1.1233C8.58305 1.52356 8.85256 2.07053 8.88566 2.65152L8.88889 2.77273H12.4444C12.5673 2.77276 12.6855 2.81651 12.7753 2.89513C12.8651 2.97376 12.9196 3.08139 12.928 3.19629C12.9364 3.31119 12.8979 3.42478 12.8204 3.51412C12.7429 3.60346 12.6321 3.66188 12.5104 3.67758L12.4444 3.68182H11.7598L11.35 8.42848C11.0399 8.33163 10.7188 8.26919 10.3932 8.24242L10.7876 3.68182H2.14174L2.92461 12.7315C2.95417 13.073 3.11975 13.3915 3.38843 13.6238C3.65711 13.856 4.00918 13.9849 4.37463 13.9848L6.29204 13.9855C6.47758 14.3194 6.71289 14.6255 6.98828 14.8945L4.37463 14.8939C3.76556 14.894 3.17879 14.6791 2.73103 14.292C2.28328 13.9049 2.00735 13.374 1.95814 12.8048L1.16881 3.68182H0.484848C0.367685 3.68181 0.254486 3.64203 0.166186 3.56984C0.0778867 3.49764 0.0204595 3.39791 0.00452523 3.28909L0 3.22727C4.94086e-06 3.11743 0.0424358 3.01131 0.119445 2.92853C0.196455 2.84575 0.302834 2.79191 0.418909 2.77697L0.484848 2.77273H4.0404C4.0404 2.16996 4.29581 1.59189 4.75045 1.16567C5.20508 0.739447 5.8217 0.5 6.46465 0.5ZM8.41956 10.6661C8.35896 10.7229 8.32492 10.8 8.32492 10.8803C8.32492 10.9607 8.35896 11.0377 8.41956 11.0945L9.56315 12.1673L8.42085 13.2376C8.36015 13.2944 8.32602 13.3715 8.32596 13.4519C8.3259 13.5323 8.35992 13.6095 8.42052 13.6664C8.48113 13.7233 8.56337 13.7553 8.64915 13.7553C8.73492 13.7554 8.8172 13.7235 8.8779 13.6667L10.0202 12.5958L11.1644 13.6679C11.1943 13.6968 11.2299 13.7199 11.2694 13.7358C11.3088 13.7517 11.3512 13.76 11.3941 13.7604C11.4371 13.7607 11.4796 13.7531 11.5193 13.7378C11.5591 13.7226 11.5952 13.7001 11.6255 13.6716C11.6559 13.6432 11.6799 13.6093 11.6961 13.5721C11.7124 13.5349 11.7205 13.495 11.7202 13.4547C11.7198 13.4145 11.7109 13.3747 11.6939 13.3378C11.677 13.3008 11.6524 13.2673 11.6215 13.2394L10.4779 12.1667L11.6228 11.0939C11.6817 11.0368 11.7142 10.9602 11.7135 10.8808C11.7128 10.8013 11.6788 10.7253 11.6189 10.6691C11.5589 10.613 11.4778 10.5811 11.3931 10.5804C11.3083 10.5797 11.2267 10.6103 11.1657 10.6655L10.0208 11.7382L8.87661 10.6655C8.81599 10.6086 8.73379 10.5767 8.64808 10.5767C8.56237 10.5767 8.48017 10.6086 8.41956 10.6655V10.6661ZM6.46465 1.40909C6.09608 1.40905 5.74124 1.54018 5.47184 1.77598C5.20243 2.01178 5.03856 2.33467 5.01333 2.67939L5.0101 2.77273H7.91919L7.91596 2.67939C7.89073 2.33467 7.72686 2.01178 7.45746 1.77598C7.18805 1.54018 6.83321 1.40905 6.46465 1.40909Z" fill="#EC1212"/>
</svg>
