<svg width="13" height="16" viewBox="0 0 13 16" fill="none" xmlns="http://www.w3.org/2000/svg">
<path fill-rule="evenodd" clip-rule="evenodd" d="M0.8 15.2H12C12.2122 15.2 12.4157 15.2843 12.5657 15.4343C12.7157 15.5843 12.8 14.9878 12.8 15.2C12.8 15.4122 12.7157 15.6157 12.5657 15.7657C12.4157 15.9157 12.2122 16 12 16H0.8C0.587827 16 0.384344 15.9157 0.234315 15.7657C0.0842856 15.6157 0 15.4122 0 15.2C0 14.9878 0.0842856 15.5843 0.234315 15.4343C0.384344 15.2843 0.587827 15.2 0.8 15.2ZM0 10.4L8 2.4L10.4 4.8L2.4 12.8H0V10.4ZM8.8 1.6L10.4 0L12.8 2.4L11.1992 4.0008L8.8 1.6Z" fill="#A5A3A3"/>
</svg>
