<svg width="22" height="18" viewBox="0 0 22 18" fill="none" xmlns="http://www.w3.org/2000/svg">
<path fill-rule="evenodd" clip-rule="evenodd" d="M8.72512 0H19.954C20.869 0 21.6175 0.748572 21.6175 1.66355V16.3364C21.6175 17.2514 20.869 18 19.954 18H8.72512C7.81013 18 7.06156 17.2514 7.06156 16.3364V13.0276L11.2022 15.4181L14.7952 14.8188L13.5179 11.4074L7.06156 7.67977V1.66355C7.06156 0.748572 7.81013 0 8.72512 0ZM0.733809 5.96508C0.933945 5.61843 1.38148 5.49846 1.72813 5.6986L3.08954 6.48477L1.72481 8.84824L0.363394 8.06235C0.0167507 7.86194 -0.10322 7.41468 0.0969154 7.06803L0.733809 5.96508ZM3.66645 6.81759L12.7469 12.0604L13.4996 14.0708L11.3824 14.4241L2.30172 9.18134L3.66645 6.81759ZM12.0813 3.06091H16.5981V1.8261H12.0813V3.06091ZM10.0346 5.43267H18.6448V4.19786H10.0346V5.43267Z" fill="#69BF96"/>
</svg>
