<svg width="14" height="9" viewBox="0 0 14 9" fill="none" xmlns="http://www.w3.org/2000/svg">
<path d="M6.90667 8C9.566 8 11.8787 6.51733 13.0633 4.33333C12.4628 3.22407 11.5736 2.29772 10.4899 1.65228C9.40611 1.00684 8.16806 0.666295 6.90667 0.666667C5.64527 0.666295 4.40722 1.00684 3.32347 1.65228C2.23971 2.29772 1.35054 3.22407 0.75 4.33333C1.35054 5.4426 2.23971 6.36895 3.32347 7.01439C4.40722 7.65983 5.64527 8.00037 6.90667 8ZM6.90667 4.28039e-07C8.34894 -0.000481429 9.7621 0.405877 10.9838 1.1724C12.2055 1.93892 13.1863 3.03452 13.8133 4.33333C13.1863 5.63215 12.2055 6.72775 10.9838 7.49427C9.7621 8.26079 8.34894 8.66715 6.90667 8.66667C5.46439 8.66715 4.05123 8.26079 2.82952 7.49427C1.6078 6.72775 0.627075 5.63215 0 4.33333C0.627075 3.03452 1.6078 1.93892 2.82952 1.1724C4.05123 0.405877 5.46439 -0.000481429 6.90667 4.28039e-07ZM6.90667 1.33333C7.70232 1.33333 8.46538 1.6494 9.02799 2.21201C9.5906 2.77462 9.90667 3.53768 9.90667 4.33333C9.90667 5.12898 9.5906 5.89205 9.02799 6.45465C8.46538 7.01726 7.70232 7.33333 6.90667 7.33333C6.11102 7.33333 5.34796 7.01726 4.78535 6.45465C4.22274 5.89205 3.90667 5.12898 3.90667 4.33333C3.90667 3.53768 4.22274 2.77462 4.78535 2.21201C5.34796 1.6494 6.11102 1.33333 6.90667 1.33333ZM6.90667 2C6.28783 2 5.69434 2.24583 5.25675 2.68342C4.81917 3.121 4.57333 3.7145 4.57333 4.33333C4.57333 4.95217 4.81917 5.54566 5.25675 5.98325C5.69434 6.42083 6.28783 6.66667 6.90667 6.66667C7.52551 6.66667 8.119 6.42083 8.55658 5.98325C8.99417 5.54566 9.24 4.95217 9.24 4.33333C9.24 3.7145 8.99417 3.121 8.55658 2.68342C8.119 2.24583 7.52551 2 6.90667 2Z" fill="black"/>
</svg>
