<svg width="16" height="16" viewBox="0 0 16 16" fill="none" xmlns="http://www.w3.org/2000/svg">
<path d="M0.311717 15.0883C0.50853 14.9758 1.71775 14.226 2.35515 12.8856C0.855343 11.4795 0.0023737 9.52669 0.0023737 7.53013C0.00240517 3.39641 3.60497 0 8.00119 0C12.3974 0 16 3.39641 16 7.53013C16 11.6638 12.3974 15.0603 8.00122 15.0603C7.41069 15.0603 6.81075 15.004 5.93903 14.8259C3.6425 16.0445 1.54909 16.007 0.761686 15.9976C0.414874 15.9882 0.161779 16.0538 0.030592 15.6976C-0.063221 15.4539 0.0679979 15.1727 0.311717 15.0883Z" fill="#17ACE8"/>
<path d="M0.0305963 15.6976C0.161784 16.0538 0.414877 15.9882 0.76169 15.9976C1.5491 16.007 3.64247 16.0445 5.93903 14.8259C6.81078 15.004 7.41069 15.0603 8.00122 15.0603V0C3.605 0 0.0024085 3.39641 0.0024085 7.53013C0.0024085 9.52669 0.855377 11.4795 2.35519 12.8856C1.71778 14.226 0.508564 14.9758 0.311752 15.0883C0.0680332 15.1727 -0.0631847 15.4539 0.0305963 15.6976Z" fill="#1689FC"/>
<path d="M7.06379 7.53012V11.3108C7.06379 11.8264 7.4856 12.2482 8.00113 12.2482C8.51666 12.2482 8.93848 11.8264 8.93848 11.3108V7.53012C8.93848 7.01456 8.51666 6.59277 8.00113 6.59277C7.4856 6.59277 7.06379 7.01456 7.06379 7.53012Z" fill="white"/>
<path d="M7.06379 4.24936C7.06379 4.76492 7.4856 5.1867 8.00113 5.1867C8.51666 5.1867 8.93848 4.76489 8.93848 4.24936C8.93848 3.73382 8.51666 3.31201 8.00113 3.31201C7.4856 3.31201 7.06379 3.73379 7.06379 4.24936Z" fill="white"/>
<path d="M8.00122 5.18673V3.31201C7.48566 3.31201 7.06388 3.73382 7.06388 4.24936C7.06388 4.76489 7.48569 5.18673 8.00122 5.18673Z" fill="white"/>
<path d="M7.06388 7.53015V11.3108C7.06388 11.8264 7.48569 12.2482 8.00122 12.2482V6.59277C7.48569 6.59277 7.06388 7.01459 7.06388 7.53015Z" fill="white"/>
</svg>
