<svg width="15" height="18" viewBox="0 0 15 18" fill="none" xmlns="http://www.w3.org/2000/svg">
<path d="M10.2857 2.25V0H0.964286C0.708633 0.000297741 0.463536 0.101987 0.282762 0.282762C0.101987 0.463536 0.000297741 0.708633 0 0.964286V17.0357C0.000297741 17.2914 0.101987 17.5365 0.282762 17.7172C0.463536 17.898 0.708633 17.9997 0.964286 18H13.1786C13.4342 17.9997 13.6793 17.898 13.8601 17.7172C14.0409 17.5365 14.1426 17.2914 14.1429 17.0357V3.85714H11.8929C11.4668 3.85666 11.0583 3.68719 10.757 3.38589C10.4557 3.0846 10.2862 2.67609 10.2857 2.25ZM4.5 9.96429C4.30928 9.96429 4.12285 9.90773 3.96427 9.80177C3.8057 9.69582 3.6821 9.54522 3.60912 9.36902C3.53613 9.19281 3.51704 8.99893 3.55424 8.81188C3.59145 8.62482 3.68329 8.453 3.81815 8.31815C3.953 8.18329 4.12482 8.09145 4.31188 8.05424C4.49893 8.01704 4.69282 8.03613 4.86902 8.10912C5.04522 8.1821 5.19582 8.3057 5.30177 8.46427C5.40773 8.62285 5.46429 8.80928 5.46429 9C5.46399 9.25565 5.3623 9.50075 5.18152 9.68152C5.00075 9.8623 4.75565 9.96399 4.5 9.96429ZM7.07143 9.96429C6.88071 9.96429 6.69428 9.90773 6.5357 9.80177C6.37712 9.69582 6.25353 9.54522 6.18054 9.36902C6.10756 9.19281 6.08846 8.99893 6.12567 8.81188C6.16288 8.62482 6.25472 8.453 6.38958 8.31815C6.52443 8.18329 6.69625 8.09145 6.88331 8.05424C7.07036 8.01704 7.26424 8.03613 7.44044 8.10912C7.61664 8.1821 7.76725 8.3057 7.8732 8.46427C7.97916 8.62285 8.03571 8.80928 8.03571 9C8.03542 9.25565 7.93373 9.50075 7.75295 9.68152C7.57218 9.8623 7.32708 9.96399 7.07143 9.96429ZM9.64286 9.96429C9.45214 9.96429 9.26571 9.90773 9.10713 9.80177C8.94855 9.69582 8.82496 9.54522 8.75197 9.36902C8.67899 9.19281 8.65989 8.99893 8.6971 8.81188C8.73431 8.62482 8.82615 8.453 8.961 8.31815C9.09586 8.18329 9.26768 8.09145 9.45473 8.05424C9.64179 8.01704 9.83567 8.03613 10.0119 8.10912C10.1881 8.1821 10.3387 8.3057 10.4446 8.46427C10.5506 8.62285 10.6071 8.80928 10.6071 9C10.6068 9.25565 10.5052 9.50075 10.3244 9.68152C10.1436 9.8623 9.89851 9.96399 9.64286 9.96429ZM7.39286 9C7.39286 9.06357 7.37401 9.12572 7.33869 9.17858C7.30337 9.23143 7.25317 9.27263 7.19443 9.29696C7.1357 9.32129 7.07107 9.32765 7.00872 9.31525C6.94637 9.30285 6.8891 9.27224 6.84414 9.22728C6.79919 9.18233 6.76858 9.12506 6.75618 9.06271C6.74377 9.00036 6.75014 8.93573 6.77447 8.877C6.7988 8.81826 6.83999 8.76806 6.89285 8.73274C6.94571 8.69742 7.00786 8.67857 7.07143 8.67857C7.15665 8.67867 7.23835 8.71256 7.29861 8.77282C7.35887 8.83308 7.39276 8.91478 7.39286 9ZM9.96429 9C9.96429 9.06357 9.94543 9.12572 9.91012 9.17858C9.8748 9.23143 9.8246 9.27263 9.76586 9.29696C9.70713 9.32129 9.6425 9.32765 9.58015 9.31525C9.5178 9.30285 9.46053 9.27224 9.41557 9.22728C9.37062 9.18233 9.34001 9.12506 9.3276 9.06271C9.3152 9.00036 9.32157 8.93573 9.3459 8.877C9.37022 8.81826 9.41142 8.76806 9.46428 8.73274C9.51714 8.69742 9.57928 8.67857 9.64286 8.67857C9.72808 8.67867 9.80978 8.71256 9.87004 8.77282C9.93029 8.83308 9.96419 8.91478 9.96429 9ZM10.9286 2.25V0.45454L13.6883 3.21429H11.8929C11.6372 3.21399 11.3921 3.1123 11.2113 2.93152C11.0306 2.75075 10.9289 2.50565 10.9286 2.25ZM4.82143 9C4.82143 9.06357 4.80258 9.12572 4.76726 9.17858C4.73194 9.23143 4.68174 9.27263 4.623 9.29696C4.56427 9.32129 4.49964 9.32765 4.43729 9.31525C4.37494 9.30285 4.31767 9.27224 4.27272 9.22728C4.22776 9.18233 4.19715 9.12506 4.18475 9.06271C4.17235 9.00036 4.17871 8.93573 4.20304 8.877C4.22737 8.81826 4.26857 8.76806 4.32142 8.73274C4.37428 8.69742 4.43643 8.67857 4.5 8.67857C4.58522 8.67867 4.66692 8.71256 4.72718 8.77282C4.78744 8.83308 4.82133 8.91478 4.82143 9Z" fill="#A734DD"/>
</svg>
