<svg width="36" height="43" viewBox="0 0 36 43" fill="none" xmlns="http://www.w3.org/2000/svg">
<path d="M8.07703 1H24.4077C28.516 4.32282 32.0981 8.42122 35.0001 13.1191V41.8041H8.07703V1Z" stroke="#C8C8C8" stroke-width="0.5"/>
<path d="M24.2301 1C28.4006 4.38556 32.0414 8.55002 34.9993 13.3182C34.0159 12.164 32.8236 11.2691 31.5057 10.6961C30.1878 10.1231 28.7762 9.88582 27.3696 10.0009C27.5702 8.3188 27.3865 6.60604 26.8364 5.02892C26.2863 3.45181 25.3885 2.06391 24.2301 1Z" fill="url(#paint0_linear)"/>
<path d="M24.2301 1C28.4006 4.38556 32.0414 8.55002 34.9993 13.3182C34.0159 12.164 32.8236 11.2691 31.5057 10.6961C30.1878 10.1231 28.7762 9.88582 27.3696 10.0009C27.5702 8.3188 27.3865 6.60604 26.8364 5.02892C26.2863 3.45181 25.3885 2.06391 24.2301 1V1Z" stroke="#C8C8C8" stroke-width="0.5"/>
<path d="M2.69275 6.38928H22.8851V11.0086H2.69275V6.38928Z" stroke="#C8C8C8" stroke-width="4"/>
<path d="M25.5769 14.0881H0V3.30969H25.5769V14.0881ZM24.6585 4.37775H0.919889V13.0168H24.6585V4.37775Z" fill="url(#paint1_linear)"/>
<path d="M8.0769 1H24.4076C28.5159 4.32282 32.098 8.42122 35 13.1191V41.8041H8.0769V1Z" fill="white"/>
<path d="M17.7507 28.0234C18.4059 26.5661 19.1567 24.9255 19.7473 23.2768L19.9835 22.6263C19.2045 19.2653 18.7377 16.5675 19.1553 14.8232C19.2429 14.5883 19.394 14.391 19.5868 14.2598C19.7796 14.1286 20.0042 14.0701 20.2282 14.093H20.5853C21.2658 14.0818 21.585 15.0624 21.6216 15.4434C21.6268 16.0209 21.56 16.5963 21.4233 17.1527C21.4567 16.5612 21.3796 15.9684 21.1969 15.4131C20.9157 14.7132 20.6472 14.2971 20.4067 14.2285C20.3212 14.3071 20.2517 14.4058 20.2031 14.5179C20.1546 14.6299 20.1281 14.7526 20.1255 14.8774C20.0541 15.3724 20.0179 15.873 20.0172 16.3746C20.0505 17.849 20.2552 19.3121 20.6261 20.7258C20.702 20.477 20.7667 20.2379 20.8229 20.013C20.9059 19.6591 21.4317 17.3169 21.4317 17.3169C21.4317 17.3169 21.2996 20.4356 21.114 21.3779C21.0746 21.5772 21.031 21.7749 20.9846 21.9758C21.6072 24 22.6402 25.8301 24.0006 27.3187C24.535 27.8443 25.1198 28.3 25.7441 28.6771C26.9155 28.4768 28.0985 28.376 29.2832 28.3758C30.2334 28.2671 31.1891 28.5092 32.0081 29.0662C32.1886 29.2726 32.2953 29.5475 32.3076 29.8379C32.3015 29.9895 32.2822 30.1401 32.25 30.2875C32.264 30.2062 32.264 29.8092 31.1884 29.4169C29.7566 29.108 28.2882 29.0848 26.8493 29.3484C29.0512 30.5697 31.1982 31.1772 31.8774 30.8136C32.0207 30.705 32.1455 30.5678 32.2458 30.4087C32.1985 30.6725 32.1298 30.9309 32.0405 31.1804C31.9049 31.3756 31.7199 31.5191 31.5104 31.5917C30.4362 31.9106 27.6409 31.1644 25.2042 29.5859C22.4532 30.0648 19.7409 30.7959 17.094 31.7719C14.7389 36.4531 12.9673 38.6024 11.5275 37.7844L10.9974 37.4831C10.9007 37.3947 10.83 37.2751 10.7946 37.1402C10.7592 37.0052 10.7608 36.8613 10.7991 36.7273C10.9664 35.7962 11.9971 34.3915 14.0668 32.99C14.289 32.8306 15.2816 32.2422 15.2816 32.2422C15.2816 32.2422 14.5463 33.049 14.3747 33.2069C12.7226 34.7423 11.5036 36.6731 11.5331 37.4225V37.4879C12.9391 37.2615 15.0412 34.0216 17.7465 28.0186L17.7507 28.0234ZM18.6042 28.5161C18.1799 29.4161 17.7459 30.3101 17.3021 31.1979C19.5578 30.1728 21.9025 29.4204 24.2973 28.953C23.9879 28.7117 23.689 28.4537 23.4016 28.1797C22.1668 26.9719 21.1621 25.4914 20.4489 23.8285C19.9274 25.4374 19.3087 27.0037 18.5971 28.5161" fill="#F91D0A"/>
<path d="M0.673218 4.07959H24.904V13.3183H0.673218V4.07959Z" fill="url(#paint2_linear)"/>
<path d="M6.73047 5.62294H8.55548C8.78592 5.60688 9.01682 5.64537 9.23229 5.73574C9.44775 5.82612 9.64268 5.96624 9.80363 6.14647C10.1166 6.56228 10.2724 7.09214 10.2395 7.62848C10.2724 8.16723 10.1166 8.69955 9.80363 9.1184C9.64229 9.29778 9.44719 9.43702 9.23174 9.52657C9.01629 9.61612 8.78559 9.65385 8.55548 9.63719H7.82896V11.7708H6.73047V5.62294ZM7.83041 6.77122V8.4889H8.43923C8.5317 8.49465 8.62416 8.47757 8.7097 8.43895C8.79525 8.40034 8.87167 8.34118 8.93327 8.26589C9.05785 8.08384 9.11958 7.85986 9.10763 7.63323C9.12098 7.40642 9.05911 7.18192 8.93327 7.00056C8.87174 6.92519 8.79533 6.86596 8.70976 6.82734C8.6242 6.78871 8.53171 6.77169 8.43923 6.77755H7.83041V6.77122ZM12.1154 6.82658V10.5735H12.5092C12.7028 10.5876 12.8968 10.552 13.0755 10.4696C13.2541 10.3872 13.4125 10.2603 13.5379 10.099C13.8002 9.69045 13.9263 9.19657 13.8954 8.69926C13.9263 8.20489 13.8012 7.71384 13.5408 7.3074C13.4148 7.14621 13.2558 7.01935 13.0767 6.93696C12.8976 6.85457 12.7032 6.81893 12.5092 6.83291H12.1154V6.82658ZM11.0155 5.63401H12.1779C12.6635 5.60708 13.1497 5.67183 13.6149 5.82539C13.9398 5.96298 14.2227 6.19696 14.4315 6.50076C14.6356 6.78657 14.787 7.11255 14.8776 7.46083C14.9793 7.86199 15.0282 8.27682 15.0229 8.69294C15.0283 9.1127 14.9794 9.53119 14.8776 9.93612C14.787 10.2844 14.6356 10.6104 14.4315 10.8962C14.2201 11.2009 13.9355 11.4362 13.6091 11.5763C13.1429 11.7304 12.656 11.7972 12.1692 11.774H11.0067V5.62294L11.0155 5.63401ZM15.8628 5.62294H18.8459V6.82184H16.9714V7.96537H18.7282V9.16427H16.9714V11.7708H15.8715V5.62294" fill="#FFF9F9"/>
<defs>
<linearGradient id="paint0_linear" x1="28.3727" y1="8.46644" x2="30.1164" y2="7.05885" gradientUnits="userSpaceOnUse">
<stop stop-color="white"/>
<stop offset="1" stop-color="#C8C8C8"/>
</linearGradient>
<linearGradient id="paint1_linear" x1="15.3739" y1="17.9375" x2="8.62915" y2="0.0545179" gradientUnits="userSpaceOnUse">
<stop offset="0.315" stop-color="#5E0000"/>
<stop offset="0.444" stop-color="#830000" stop-opacity="0.999"/>
<stop offset="0.618" stop-color="#AE0000" stop-opacity="0.998"/>
<stop offset="0.775" stop-color="#CD0000" stop-opacity="0.997"/>
<stop offset="0.908" stop-color="#E00000" stop-opacity="0.996"/>
<stop offset="1" stop-color="#E70000" stop-opacity="0.996"/>
</linearGradient>
<linearGradient id="paint2_linear" x1="15.1423" y1="16.9163" x2="9.2468" y2="0.919407" gradientUnits="userSpaceOnUse">
<stop offset="0.127" stop-color="#8A0000"/>
<stop offset="0.244" stop-color="#900000" stop-opacity="0.999"/>
<stop offset="0.398" stop-color="#A00000" stop-opacity="0.999"/>
<stop offset="0.573" stop-color="#BC0000" stop-opacity="0.998"/>
<stop offset="0.761" stop-color="#E20000" stop-opacity="0.997"/>
<stop offset="0.867" stop-color="#FA0000" stop-opacity="0.996"/>
</linearGradient>
</defs>
</svg>
