<svg width="20" height="15" viewBox="0 0 20 15" fill="none" xmlns="http://www.w3.org/2000/svg">
<path d="M17.1429 15H2.14286C0.964286 15 0 14.0357 0 12.8571V2.14286C0 0.964286 0.964286 0 2.14286 0H17.1429C18.3214 0 19.2857 0.964286 19.2857 2.14286V12.8571C19.2857 14.0357 18.3214 15 17.1429 15Z" fill="#6FD5E2"/>
<path d="M14.4643 5.893C15.3519 5.893 16.0715 5.17345 16.0715 4.28585C16.0715 3.39825 15.3519 2.67871 14.4643 2.67871C13.5767 2.67871 12.8572 3.39825 12.8572 4.28585C12.8572 5.17345 13.5767 5.893 14.4643 5.893Z" fill="#FFF9C4"/>
<path d="M7.4999 5.30347L2.67847 12.3213H12.3213L7.4999 5.30347Z" fill="#59B1BC"/>
<path d="M13.3928 8.30371L10.1785 12.3216H16.607L13.3928 8.30371Z" fill="#59B1BC"/>
</svg>
