<svg width="16" height="16" viewBox="0 0 16 16" fill="none" xmlns="http://www.w3.org/2000/svg">
<path d="M8 0C3.584 0 0 3.584 0 8C0 12.416 3.584 16 8 16C12.416 16 16 12.416 16 8C16 3.584 12.416 0 8 0ZM6.4 10.8V5.2C6.4 5.12572 6.42069 5.0529 6.45974 4.98971C6.49879 4.92652 6.55467 4.87545 6.62111 4.84223C6.68756 4.80901 6.76194 4.79494 6.83592 4.80162C6.90991 4.80829 6.98057 4.83543 7.04 4.88L10.776 7.68C10.992 7.84 10.992 8.16 10.776 8.32L7.04 11.12C6.98057 11.1646 6.90991 11.1917 6.83592 11.1984C6.76194 11.2051 6.68756 11.191 6.62111 11.1578C6.55467 11.1245 6.49879 11.0735 6.45974 11.0103C6.42069 10.9471 6.4 10.8743 6.4 10.8Z" fill="#2478DC"/>
</svg>
