<svg width="14" height="18" viewBox="0 0 14 18" fill="none" xmlns="http://www.w3.org/2000/svg">
<path d="M0.777778 0C0.341123 0 0 0.341122 0 0.777778V0.881944C0.00899103 0.902039 0.0159695 0.922974 0.0208333 0.944444C0.0970436 1.2939 0.399495 1.55556 0.777778 1.55556H11.3333V0H0.777778ZM0 1.97222V17.2222C0 17.6589 0.341123 18 0.777778 18H2.44444V2.22222H0.777778C0.488034 2.22222 0.226985 2.12005 0 1.97222ZM3.11111 2.22222V18H13.5556V2.22222H12V7.22222C11.9993 7.45196 11.7086 7.62394 11.5069 7.51389L9.66667 6.49306L7.82639 7.51389C7.62472 7.62394 7.334 7.45196 7.33333 7.22222V2.22222H3.11111Z" fill="#E98122"/>
</svg>
