<svg width="411" height="21" viewBox="0 0 411 21" fill="none" xmlns="http://www.w3.org/2000/svg">
<path d="M11.0496 1.72266V10.9609C11.0496 12.5885 10.5581 13.8678 9.575 14.7988C8.59192 15.7298 7.24101 16.1953 5.52226 16.1953C3.80351 16.1953 2.47213 15.7266 1.52812 14.7891C0.590622 13.8516 0.121872 12.5625 0.121872 10.9219V1.72266H1.78203V11.0391C1.78203 12.2305 2.10755 13.1452 2.75859 13.7832C3.40963 14.4212 4.36666 14.7402 5.62968 14.7402C6.83411 14.7402 7.76185 14.4212 8.41289 13.7832C9.06393 13.1387 9.38945 12.2174 9.38945 11.0195V1.72266H11.0496ZM21.6988 13.0801C21.6988 14.0762 21.3277 14.8444 20.5855 15.3848C19.8434 15.9251 18.8017 16.1953 17.4605 16.1953C16.0413 16.1953 14.9345 15.9707 14.1402 15.5215V14.0176C14.6546 14.278 15.2047 14.4831 15.7906 14.6328C16.3831 14.7826 16.9527 14.8574 17.4996 14.8574C18.346 14.8574 18.997 14.724 19.4527 14.457C19.9085 14.1836 20.1363 13.7702 20.1363 13.2168C20.1363 12.8001 19.954 12.4453 19.5894 12.1523C19.2314 11.8529 18.5283 11.5013 17.4801 11.0977C16.484 10.7266 15.7743 10.4043 15.3512 10.1309C14.9345 9.85091 14.622 9.53516 14.4137 9.18359C14.2118 8.83203 14.1109 8.41211 14.1109 7.92383C14.1109 7.05143 14.4658 6.36458 15.1754 5.86328C15.885 5.35547 16.8583 5.10156 18.0953 5.10156C19.2477 5.10156 20.374 5.33594 21.4742 5.80469L20.898 7.12305C19.8238 6.68034 18.8505 6.45898 17.9781 6.45898C17.2099 6.45898 16.6305 6.57943 16.2398 6.82031C15.8492 7.0612 15.6539 7.39323 15.6539 7.81641C15.6539 8.10286 15.7255 8.34701 15.8687 8.54883C16.0185 8.75065 16.2561 8.94271 16.5816 9.125C16.9072 9.30729 17.5322 9.57096 18.4566 9.91602C19.7262 10.3783 20.5823 10.8438 21.025 11.3125C21.4742 11.7812 21.6988 12.3704 21.6988 13.0801ZM29.0668 16.1953C27.4848 16.1953 26.2348 15.7135 25.3168 14.75C24.4053 13.7865 23.9496 12.4486 23.9496 10.7363C23.9496 9.01107 24.3728 7.64062 25.2191 6.625C26.072 5.60938 27.2146 5.10156 28.6469 5.10156C29.988 5.10156 31.0492 5.54427 31.8305 6.42969C32.6117 7.30859 33.0023 8.4707 33.0023 9.91602V10.9414H25.6293C25.6618 12.1979 25.9776 13.1517 26.5766 13.8027C27.182 14.4538 28.0316 14.7793 29.1254 14.7793C30.2777 14.7793 31.4171 14.5384 32.5434 14.0566V15.502C31.9704 15.7493 31.4268 15.9251 30.9125 16.0293C30.4047 16.14 29.7894 16.1953 29.0668 16.1953ZM28.6273 6.45898C27.768 6.45898 27.0811 6.73893 26.5668 7.29883C26.059 7.85872 25.7595 8.63346 25.6684 9.62305H31.2641C31.2641 8.60091 31.0362 7.81966 30.5805 7.2793C30.1247 6.73242 29.4737 6.45898 28.6273 6.45898ZM45.6484 16.1953C44.099 16.1953 42.8978 15.7201 42.0449 14.7695C41.1986 13.8125 40.7754 12.4616 40.7754 10.7168C40.7754 8.92643 41.2051 7.54297 42.0644 6.56641C42.9303 5.58984 44.1608 5.10156 45.7559 5.10156C46.2702 5.10156 46.7845 5.1569 47.2988 5.26758C47.8131 5.37826 48.2168 5.50846 48.5098 5.6582L48.0117 7.03516C47.6536 6.89193 47.263 6.77474 46.8398 6.68359C46.4167 6.58594 46.0423 6.53711 45.7168 6.53711C43.5423 6.53711 42.4551 7.92383 42.4551 10.6973C42.4551 12.0124 42.7187 13.0215 43.2461 13.7246C43.7799 14.4277 44.5677 14.7793 45.6094 14.7793C46.5013 14.7793 47.416 14.5872 48.3535 14.2031V15.6387C47.6374 16.0098 46.7357 16.1953 45.6484 16.1953ZM57.6844 16L57.3621 14.4766H57.284C56.7501 15.1471 56.2163 15.6029 55.6824 15.8438C55.1551 16.0781 54.4943 16.1953 53.7 16.1953C52.6388 16.1953 51.8055 15.9219 51.2 15.375C50.601 14.8281 50.3016 14.0501 50.3016 13.041C50.3016 10.8796 52.0301 9.74674 55.4871 9.64258L57.3035 9.58398V8.91992C57.3035 8.08008 57.1212 7.46159 56.7566 7.06445C56.3986 6.66081 55.8224 6.45898 55.0281 6.45898C54.1362 6.45898 53.1271 6.73242 52.0008 7.2793L51.5027 6.03906C52.0301 5.7526 52.6062 5.52799 53.2312 5.36523C53.8628 5.20247 54.4943 5.12109 55.1258 5.12109C56.4018 5.12109 57.3458 5.4043 57.9578 5.9707C58.5763 6.53711 58.8855 7.44531 58.8855 8.69531V16H57.6844ZM54.0223 14.8574C55.0314 14.8574 55.8224 14.5807 56.3953 14.0273C56.9747 13.474 57.2645 12.6992 57.2645 11.7031V10.7363L55.6434 10.8047C54.3543 10.8503 53.4233 11.0521 52.8504 11.4102C52.284 11.7617 52.0008 12.3118 52.0008 13.0605C52.0008 13.6465 52.1766 14.0924 52.5281 14.3984C52.8862 14.7044 53.3842 14.8574 54.0223 14.8574ZM65.8922 14.8574C66.1786 14.8574 66.4553 14.8379 66.7223 14.7988C66.9892 14.7533 67.2008 14.7077 67.357 14.6621V15.9023C67.1812 15.987 66.9208 16.0553 66.5758 16.1074C66.2372 16.166 65.9312 16.1953 65.6578 16.1953C63.5875 16.1953 62.5523 15.1048 62.5523 12.9238V6.55664H61.0191V5.77539L62.5523 5.10156L63.2359 2.81641H64.1734V5.29688H67.2789V6.55664H64.1734V12.8555C64.1734 13.5 64.3264 13.9948 64.6324 14.3398C64.9384 14.6849 65.3583 14.8574 65.8922 14.8574ZM74.227 16.1953C72.6449 16.1953 71.3949 15.7135 70.477 14.75C69.5655 13.7865 69.1098 12.4486 69.1098 10.7363C69.1098 9.01107 69.5329 7.64062 70.3793 6.625C71.2322 5.60938 72.3747 5.10156 73.807 5.10156C75.1482 5.10156 76.2094 5.54427 76.9906 6.42969C77.7719 7.30859 78.1625 8.4707 78.1625 9.91602V10.9414H70.7895C70.822 12.1979 71.1378 13.1517 71.7367 13.8027C72.3422 14.4538 73.1918 14.7793 74.2855 14.7793C75.4379 14.7793 76.5772 14.5384 77.7035 14.0566V15.502C77.1306 15.7493 76.587 15.9251 76.0727 16.0293C75.5648 16.14 74.9496 16.1953 74.227 16.1953ZM73.7875 6.45898C72.9281 6.45898 72.2413 6.73893 71.727 7.29883C71.2191 7.85872 70.9197 8.63346 70.8285 9.62305H76.4242C76.4242 8.60091 76.1964 7.81966 75.7406 7.2793C75.2849 6.73242 74.6339 6.45898 73.7875 6.45898ZM89.8957 5.29688V6.32227L87.9133 6.55664C88.0956 6.78451 88.2583 7.08398 88.4016 7.45508C88.5448 7.81966 88.6164 8.23307 88.6164 8.69531C88.6164 9.74349 88.2583 10.5801 87.5422 11.2051C86.826 11.8301 85.843 12.1426 84.593 12.1426C84.274 12.1426 83.9745 12.1165 83.6945 12.0645C83.0044 12.429 82.6594 12.888 82.6594 13.4414C82.6594 13.7344 82.7798 13.9525 83.0207 14.0957C83.2616 14.2324 83.675 14.3008 84.2609 14.3008H86.1555C87.3143 14.3008 88.203 14.5449 88.8215 15.0332C89.4465 15.5215 89.759 16.2311 89.759 17.1621C89.759 18.347 89.2837 19.2487 88.3332 19.8672C87.3827 20.4922 85.996 20.8047 84.173 20.8047C82.7733 20.8047 81.6926 20.5443 80.9309 20.0234C80.1756 19.5026 79.798 18.7669 79.798 17.8164C79.798 17.1654 80.0064 16.6022 80.423 16.127C80.8397 15.6517 81.4256 15.3294 82.1809 15.1602C81.9074 15.0365 81.6763 14.8444 81.4875 14.584C81.3052 14.3236 81.2141 14.0208 81.2141 13.6758C81.2141 13.2852 81.3182 12.9434 81.5266 12.6504C81.7349 12.3574 82.0637 12.0742 82.5129 11.8008C81.9595 11.5729 81.507 11.1855 81.1555 10.6387C80.8104 10.0918 80.6379 9.4668 80.6379 8.76367C80.6379 7.5918 80.9894 6.6901 81.6926 6.05859C82.3957 5.42057 83.3918 5.10156 84.6809 5.10156C85.2408 5.10156 85.7453 5.16667 86.1945 5.29688H89.8957ZM81.3605 17.7969C81.3605 18.3763 81.6047 18.8158 82.093 19.1152C82.5812 19.4147 83.2811 19.5645 84.1926 19.5645C85.5533 19.5645 86.5591 19.3594 87.2102 18.9492C87.8677 18.5456 88.1965 17.9954 88.1965 17.2988C88.1965 16.7194 88.0174 16.3158 87.6594 16.0879C87.3013 15.8665 86.6275 15.7559 85.6379 15.7559H83.6945C82.9588 15.7559 82.3859 15.9316 81.9758 16.2832C81.5656 16.6348 81.3605 17.1393 81.3605 17.7969ZM82.2394 8.72461C82.2394 9.47331 82.451 10.0397 82.8742 10.4238C83.2974 10.8079 83.8866 11 84.6418 11C86.2238 11 87.0148 10.2318 87.0148 8.69531C87.0148 7.08724 86.2141 6.2832 84.6125 6.2832C83.8508 6.2832 83.2648 6.48828 82.8547 6.89844C82.4445 7.30859 82.2394 7.91732 82.2394 8.72461ZM101.531 10.6387C101.531 12.3835 101.092 13.7474 100.213 14.7305C99.334 15.707 98.1198 16.1953 96.5703 16.1953C95.6133 16.1953 94.7637 15.9707 94.0215 15.5215C93.2793 15.0723 92.7064 14.4277 92.3027 13.5879C91.8991 12.748 91.6973 11.765 91.6973 10.6387C91.6973 8.89388 92.1335 7.53646 93.0059 6.56641C93.8783 5.58984 95.0892 5.10156 96.6387 5.10156C98.1361 5.10156 99.3242 5.59961 100.203 6.5957C101.089 7.5918 101.531 8.93945 101.531 10.6387ZM93.377 10.6387C93.377 12.0059 93.6504 13.0475 94.1973 13.7637C94.7441 14.4798 95.5482 14.8379 96.6094 14.8379C97.6706 14.8379 98.4746 14.4831 99.0215 13.7734C99.5749 13.0573 99.8516 12.0124 99.8516 10.6387C99.8516 9.27799 99.5749 8.24609 99.0215 7.54297C98.4746 6.83333 97.6641 6.47852 96.5898 6.47852C95.5286 6.47852 94.7279 6.82682 94.1875 7.52344C93.6471 8.22005 93.377 9.25846 93.377 10.6387ZM109.466 5.10156C109.941 5.10156 110.367 5.14062 110.745 5.21875L110.52 6.72266C110.078 6.625 109.687 6.57617 109.348 6.57617C108.483 6.57617 107.74 6.92773 107.122 7.63086C106.51 8.33398 106.204 9.20964 106.204 10.2578V16H104.583V5.29688H105.921L106.106 7.2793H106.184C106.582 6.58268 107.06 6.04557 107.62 5.66797C108.18 5.29036 108.795 5.10156 109.466 5.10156ZM111.248 5.29688H112.986L115.33 11.4004C115.844 12.7936 116.163 13.7995 116.287 14.418H116.365C116.449 14.0859 116.625 13.5195 116.892 12.7188C117.166 11.9115 118.051 9.4375 119.548 5.29688H121.287L116.687 17.4844C116.231 18.6888 115.698 19.5417 115.086 20.043C114.48 20.5508 113.735 20.8047 112.849 20.8047C112.354 20.8047 111.866 20.7493 111.384 20.6387V19.3398C111.742 19.418 112.143 19.457 112.586 19.457C113.699 19.457 114.493 18.832 114.968 17.582L115.564 16.0586L111.248 5.29688ZM128.645 1.72266L123.323 16H121.702L127.024 1.72266H128.645ZM139.07 12.2012C139.07 13.4577 138.614 14.4375 137.702 15.1406C136.791 15.8438 135.554 16.1953 133.991 16.1953C132.299 16.1953 130.997 15.9772 130.085 15.541V13.9395C130.671 14.1868 131.309 14.3822 131.999 14.5254C132.689 14.6686 133.373 14.7402 134.05 14.7402C135.157 14.7402 135.99 14.5319 136.55 14.1152C137.11 13.6921 137.39 13.1061 137.39 12.3574C137.39 11.8626 137.289 11.459 137.087 11.1465C136.892 10.8275 136.56 10.5345 136.091 10.2676C135.629 10.0007 134.922 9.69792 133.972 9.35938C132.644 8.88411 131.693 8.32096 131.12 7.66992C130.554 7.01888 130.271 6.16927 130.271 5.12109C130.271 4.02083 130.684 3.14518 131.511 2.49414C132.338 1.8431 133.432 1.51758 134.792 1.51758C136.211 1.51758 137.517 1.77799 138.708 2.29883L138.191 3.74414C137.012 3.24935 135.866 3.00195 134.753 3.00195C133.874 3.00195 133.187 3.19076 132.693 3.56836C132.198 3.94596 131.95 4.47005 131.95 5.14062C131.95 5.63542 132.042 6.04232 132.224 6.36133C132.406 6.67383 132.712 6.96354 133.142 7.23047C133.578 7.49089 134.242 7.7806 135.134 8.09961C136.631 8.63346 137.66 9.20638 138.22 9.81836C138.786 10.4303 139.07 11.2246 139.07 12.2012ZM143.469 5.29688V12.2402C143.469 13.1126 143.667 13.7637 144.064 14.1934C144.462 14.623 145.083 14.8379 145.93 14.8379C147.049 14.8379 147.867 14.5319 148.381 13.9199C148.902 13.3079 149.162 12.3086 149.162 10.9219V5.29688H150.783V16H149.445L149.211 14.5645H149.123C148.791 15.0918 148.329 15.4954 147.736 15.7754C147.15 16.0553 146.48 16.1953 145.725 16.1953C144.423 16.1953 143.446 15.8861 142.795 15.2676C142.15 14.6491 141.828 13.6595 141.828 12.2988V5.29688H143.469ZM159.411 5.12109C160.817 5.12109 161.908 5.60286 162.682 6.56641C163.464 7.52344 163.854 8.88086 163.854 10.6387C163.854 12.3965 163.46 13.7637 162.673 14.7402C161.891 15.7103 160.804 16.1953 159.411 16.1953C158.714 16.1953 158.076 16.0684 157.497 15.8145C156.924 15.554 156.442 15.1569 156.052 14.623H155.934L155.593 16H154.43V0.804688H156.052V4.49609C156.052 5.32292 156.026 6.0651 155.973 6.72266H156.052C156.807 5.65495 157.927 5.12109 159.411 5.12109ZM159.177 6.47852C158.07 6.47852 157.272 6.79753 156.784 7.43555C156.296 8.06706 156.052 9.13477 156.052 10.6387C156.052 12.1426 156.302 13.2201 156.804 13.8711C157.305 14.5156 158.109 14.8379 159.216 14.8379C160.212 14.8379 160.954 14.4766 161.442 13.7539C161.93 13.0247 162.175 11.9798 162.175 10.6191C162.175 9.22591 161.93 8.1875 161.442 7.50391C160.954 6.82031 160.199 6.47852 159.177 6.47852ZM165.597 20.8047C164.979 20.8047 164.477 20.7233 164.093 20.5605V19.2422C164.543 19.3724 164.985 19.4375 165.421 19.4375C165.929 19.4375 166.3 19.2975 166.535 19.0176C166.776 18.7441 166.896 18.3242 166.896 17.7578V5.29688H168.517V17.6406C168.517 19.75 167.544 20.8047 165.597 20.8047ZM166.759 2.39648C166.759 2.02539 166.851 1.75521 167.033 1.58594C167.215 1.41016 167.443 1.32227 167.716 1.32227C167.977 1.32227 168.201 1.41016 168.39 1.58594C168.579 1.76172 168.673 2.0319 168.673 2.39648C168.673 2.76107 168.579 3.03451 168.39 3.2168C168.201 3.39258 167.977 3.48047 167.716 3.48047C167.443 3.48047 167.215 3.39258 167.033 3.2168C166.851 3.03451 166.759 2.76107 166.759 2.39648ZM176.676 16.1953C175.094 16.1953 173.844 15.7135 172.926 14.75C172.015 13.7865 171.559 12.4486 171.559 10.7363C171.559 9.01107 171.982 7.64062 172.829 6.625C173.681 5.60938 174.824 5.10156 176.256 5.10156C177.597 5.10156 178.659 5.54427 179.44 6.42969C180.221 7.30859 180.612 8.4707 180.612 9.91602V10.9414H173.239C173.271 12.1979 173.587 13.1517 174.186 13.8027C174.791 14.4538 175.641 14.7793 176.735 14.7793C177.887 14.7793 179.026 14.5384 180.153 14.0566V15.502C179.58 15.7493 179.036 15.9251 178.522 16.0293C178.014 16.14 177.399 16.1953 176.676 16.1953ZM176.237 6.45898C175.377 6.45898 174.69 6.73893 174.176 7.29883C173.668 7.85872 173.369 8.63346 173.278 9.62305H178.873C178.873 8.60091 178.646 7.81966 178.19 7.2793C177.734 6.73242 177.083 6.45898 176.237 6.45898ZM187.863 16.1953C186.313 16.1953 185.112 15.7201 184.259 14.7695C183.413 13.8125 182.989 12.4616 182.989 10.7168C182.989 8.92643 183.419 7.54297 184.279 6.56641C185.144 5.58984 186.375 5.10156 187.97 5.10156C188.484 5.10156 188.999 5.1569 189.513 5.26758C190.027 5.37826 190.431 5.50846 190.724 5.6582L190.226 7.03516C189.868 6.89193 189.477 6.77474 189.054 6.68359C188.631 6.58594 188.256 6.53711 187.931 6.53711C185.756 6.53711 184.669 7.92383 184.669 10.6973C184.669 12.0124 184.933 13.0215 185.46 13.7246C185.994 14.4277 186.782 14.7793 187.823 14.7793C188.715 14.7793 189.63 14.5872 190.568 14.2031V15.6387C189.851 16.0098 188.95 16.1953 187.863 16.1953ZM196.773 14.8574C197.06 14.8574 197.337 14.8379 197.604 14.7988C197.87 14.7533 198.082 14.7077 198.238 14.6621V15.9023C198.062 15.987 197.802 16.0553 197.457 16.1074C197.118 16.166 196.812 16.1953 196.539 16.1953C194.469 16.1953 193.434 15.1048 193.434 12.9238V6.55664H191.9V5.77539L193.434 5.10156L194.117 2.81641H195.055V5.29688H198.16V6.55664H195.055V12.8555C195.055 13.5 195.208 13.9948 195.514 14.3398C195.82 14.6849 196.24 14.8574 196.773 14.8574ZM210.806 6.55664H208.082V16H206.461V6.55664H204.546V5.82422L206.461 5.23828V4.64258C206.461 2.01237 207.61 0.697266 209.908 0.697266C210.474 0.697266 211.138 0.811198 211.9 1.03906L211.48 2.33789C210.855 2.13607 210.321 2.03516 209.879 2.03516C209.267 2.03516 208.814 2.24023 208.521 2.65039C208.228 3.05404 208.082 3.70508 208.082 4.60352V5.29688H210.806V6.55664ZM214.38 16H212.759V5.29688H214.38V16ZM212.623 2.39648C212.623 2.02539 212.714 1.75521 212.896 1.58594C213.078 1.41016 213.306 1.32227 213.58 1.32227C213.84 1.32227 214.065 1.41016 214.254 1.58594C214.442 1.76172 214.537 2.0319 214.537 2.39648C214.537 2.76107 214.442 3.03451 214.254 3.2168C214.065 3.39258 213.84 3.48047 213.58 3.48047C213.306 3.48047 213.078 3.39258 212.896 3.2168C212.714 3.03451 212.623 2.76107 212.623 2.39648ZM219.639 16H218.018V0.804688H219.639V16ZM226.734 14.8574C227.02 14.8574 227.297 14.8379 227.564 14.7988C227.831 14.7533 228.042 14.7077 228.198 14.6621V15.9023C228.023 15.987 227.762 16.0553 227.417 16.1074C227.079 16.166 226.773 16.1953 226.499 16.1953C224.429 16.1953 223.394 15.1048 223.394 12.9238V6.55664H221.861V5.77539L223.394 5.10156L224.077 2.81641H225.015V5.29688H228.12V6.55664H225.015V12.8555C225.015 13.5 225.168 13.9948 225.474 14.3398C225.78 14.6849 226.2 14.8574 226.734 14.8574ZM235.068 16.1953C233.486 16.1953 232.236 15.7135 231.318 14.75C230.407 13.7865 229.951 12.4486 229.951 10.7363C229.951 9.01107 230.374 7.64062 231.221 6.625C232.074 5.60938 233.216 5.10156 234.648 5.10156C235.99 5.10156 237.051 5.54427 237.832 6.42969C238.613 7.30859 239.004 8.4707 239.004 9.91602V10.9414H231.631C231.663 12.1979 231.979 13.1517 232.578 13.8027C233.184 14.4538 234.033 14.7793 235.127 14.7793C236.279 14.7793 237.419 14.5384 238.545 14.0566V15.502C237.972 15.7493 237.428 15.9251 236.914 16.0293C236.406 16.14 235.791 16.1953 235.068 16.1953ZM234.629 6.45898C233.77 6.45898 233.083 6.73893 232.568 7.29883C232.061 7.85872 231.761 8.63346 231.67 9.62305H237.266C237.266 8.60091 237.038 7.81966 236.582 7.2793C236.126 6.73242 235.475 6.45898 234.629 6.45898ZM246.86 5.10156C247.335 5.10156 247.762 5.14062 248.139 5.21875L247.915 6.72266C247.472 6.625 247.082 6.57617 246.743 6.57617C245.877 6.57617 245.135 6.92773 244.516 7.63086C243.904 8.33398 243.598 9.20964 243.598 10.2578V16H241.977V5.29688H243.315L243.501 7.2793H243.579C243.976 6.58268 244.455 6.04557 245.014 5.66797C245.574 5.29036 246.19 5.10156 246.86 5.10156ZM259.194 14.8574C259.48 14.8574 259.757 14.8379 260.024 14.7988C260.291 14.7533 260.502 14.7077 260.659 14.6621V15.9023C260.483 15.987 260.222 16.0553 259.877 16.1074C259.539 16.166 259.233 16.1953 258.959 16.1953C256.889 16.1953 255.854 15.1048 255.854 12.9238V6.55664H254.321V5.77539L255.854 5.10156L256.537 2.81641H257.475V5.29688H260.58V6.55664H257.475V12.8555C257.475 13.5 257.628 13.9948 257.934 14.3398C258.24 14.6849 258.66 14.8574 259.194 14.8574ZM272.245 10.6387C272.245 12.3835 271.806 13.7474 270.927 14.7305C270.048 15.707 268.834 16.1953 267.284 16.1953C266.327 16.1953 265.478 15.9707 264.736 15.5215C263.993 15.0723 263.42 14.4277 263.017 13.5879C262.613 12.748 262.411 11.765 262.411 10.6387C262.411 8.89388 262.848 7.53646 263.72 6.56641C264.592 5.58984 265.803 5.10156 267.353 5.10156C268.85 5.10156 270.038 5.59961 270.917 6.5957C271.803 7.5918 272.245 8.93945 272.245 10.6387ZM264.091 10.6387C264.091 12.0059 264.364 13.0475 264.911 13.7637C265.458 14.4798 266.262 14.8379 267.323 14.8379C268.385 14.8379 269.189 14.4831 269.736 13.7734C270.289 13.0573 270.566 12.0124 270.566 10.6387C270.566 9.27799 270.289 8.24609 269.736 7.54297C269.189 6.83333 268.378 6.47852 267.304 6.47852C266.243 6.47852 265.442 6.82682 264.902 7.52344C264.361 8.22005 264.091 9.25846 264.091 10.6387ZM287.596 13.0801C287.596 14.0762 287.225 14.8444 286.483 15.3848C285.741 15.9251 284.699 16.1953 283.358 16.1953C281.939 16.1953 280.832 15.9707 280.038 15.5215V14.0176C280.552 14.278 281.102 14.4831 281.688 14.6328C282.281 14.7826 282.85 14.8574 283.397 14.8574C284.244 14.8574 284.895 14.724 285.35 14.457C285.806 14.1836 286.034 13.7702 286.034 13.2168C286.034 12.8001 285.852 12.4453 285.487 12.1523C285.129 11.8529 284.426 11.5013 283.378 11.0977C282.382 10.7266 281.672 10.4043 281.249 10.1309C280.832 9.85091 280.52 9.53516 280.311 9.18359C280.11 8.83203 280.009 8.41211 280.009 7.92383C280.009 7.05143 280.363 6.36458 281.073 5.86328C281.783 5.35547 282.756 5.10156 283.993 5.10156C285.145 5.10156 286.272 5.33594 287.372 5.80469L286.796 7.12305C285.721 6.68034 284.748 6.45898 283.876 6.45898C283.108 6.45898 282.528 6.57943 282.138 6.82031C281.747 7.0612 281.552 7.39323 281.552 7.81641C281.552 8.10286 281.623 8.34701 281.766 8.54883C281.916 8.75065 282.154 8.94271 282.479 9.125C282.805 9.30729 283.43 9.57096 284.354 9.91602C285.624 10.3783 286.48 10.8438 286.923 11.3125C287.372 11.7812 287.596 12.3704 287.596 13.0801ZM297.767 16V9.07617C297.767 8.20378 297.569 7.55273 297.172 7.12305C296.774 6.69336 296.153 6.47852 295.306 6.47852C294.18 6.47852 293.356 6.78451 292.836 7.39648C292.321 8.00846 292.064 9.01107 292.064 10.4043V16H290.443V0.804688H292.064V5.4043C292.064 5.95768 292.038 6.41667 291.986 6.78125H292.084C292.403 6.26693 292.855 5.86328 293.441 5.57031C294.033 5.27083 294.707 5.12109 295.463 5.12109C296.771 5.12109 297.751 5.43359 298.402 6.05859C299.06 6.67708 299.388 7.66341 299.388 9.01758V16H297.767ZM309.51 16L309.188 14.4766H309.11C308.576 15.1471 308.042 15.6029 307.508 15.8438C306.981 16.0781 306.32 16.1953 305.526 16.1953C304.465 16.1953 303.631 15.9219 303.026 15.375C302.427 14.8281 302.127 14.0501 302.127 13.041C302.127 10.8796 303.856 9.74674 307.313 9.64258L309.129 9.58398V8.91992C309.129 8.08008 308.947 7.46159 308.582 7.06445C308.224 6.66081 307.648 6.45898 306.854 6.45898C305.962 6.45898 304.953 6.73242 303.827 7.2793L303.328 6.03906C303.856 5.7526 304.432 5.52799 305.057 5.36523C305.689 5.20247 306.32 5.12109 306.952 5.12109C308.228 5.12109 309.172 5.4043 309.784 5.9707C310.402 6.53711 310.711 7.44531 310.711 8.69531V16H309.51ZM305.848 14.8574C306.857 14.8574 307.648 14.5807 308.221 14.0273C308.8 13.474 309.09 12.6992 309.09 11.7031V10.7363L307.469 10.8047C306.18 10.8503 305.249 11.0521 304.676 11.4102C304.11 11.7617 303.827 12.3118 303.827 13.0605C303.827 13.6465 304.002 14.0924 304.354 14.3984C304.712 14.7044 305.21 14.8574 305.848 14.8574ZM319.144 5.10156C319.619 5.10156 320.045 5.14062 320.423 5.21875L320.198 6.72266C319.756 6.625 319.365 6.57617 319.027 6.57617C318.161 6.57617 317.418 6.92773 316.8 7.63086C316.188 8.33398 315.882 9.20964 315.882 10.2578V16H314.261V5.29688H315.599L315.784 7.2793H315.862C316.26 6.58268 316.738 6.04557 317.298 5.66797C317.858 5.29036 318.473 5.10156 319.144 5.10156ZM327.146 16.1953C325.564 16.1953 324.314 15.7135 323.396 14.75C322.485 13.7865 322.029 12.4486 322.029 10.7363C322.029 9.01107 322.452 7.64062 323.299 6.625C324.152 5.60938 325.294 5.10156 326.727 5.10156C328.068 5.10156 329.129 5.54427 329.91 6.42969C330.691 7.30859 331.082 8.4707 331.082 9.91602V10.9414H323.709C323.742 12.1979 324.057 13.1517 324.656 13.8027C325.262 14.4538 326.111 14.7793 327.205 14.7793C328.357 14.7793 329.497 14.5384 330.623 14.0566V15.502C330.05 15.7493 329.507 15.9251 328.992 16.0293C328.484 16.14 327.869 16.1953 327.146 16.1953ZM326.707 6.45898C325.848 6.45898 325.161 6.73893 324.646 7.29883C324.139 7.85872 323.839 8.63346 323.748 9.62305H329.344C329.344 8.60091 329.116 7.81966 328.66 7.2793C328.204 6.73242 327.553 6.45898 326.707 6.45898ZM343.728 16.1953C342.179 16.1953 340.977 15.7201 340.125 14.7695C339.278 13.8125 338.855 12.4616 338.855 10.7168C338.855 8.92643 339.285 7.54297 340.144 6.56641C341.01 5.58984 342.241 5.10156 343.836 5.10156C344.35 5.10156 344.864 5.1569 345.379 5.26758C345.893 5.37826 346.297 5.50846 346.589 5.6582L346.091 7.03516C345.733 6.89193 345.343 6.77474 344.92 6.68359C344.496 6.58594 344.122 6.53711 343.797 6.53711C341.622 6.53711 340.535 7.92383 340.535 10.6973C340.535 12.0124 340.798 13.0215 341.326 13.7246C341.86 14.4277 342.647 14.7793 343.689 14.7793C344.581 14.7793 345.496 14.5872 346.433 14.2031V15.6387C345.717 16.0098 344.815 16.1953 343.728 16.1953ZM358.42 10.6387C358.42 12.3835 357.981 13.7474 357.102 14.7305C356.223 15.707 355.009 16.1953 353.459 16.1953C352.502 16.1953 351.653 15.9707 350.911 15.5215C350.168 15.0723 349.595 14.4277 349.192 13.5879C348.788 12.748 348.586 11.765 348.586 10.6387C348.586 8.89388 349.023 7.53646 349.895 6.56641C350.767 5.58984 351.978 5.10156 353.528 5.10156C355.025 5.10156 356.213 5.59961 357.092 6.5957C357.978 7.5918 358.42 8.93945 358.42 10.6387ZM350.266 10.6387C350.266 12.0059 350.539 13.0475 351.086 13.7637C351.633 14.4798 352.437 14.8379 353.498 14.8379C354.56 14.8379 355.364 14.4831 355.911 13.7734C356.464 13.0573 356.741 12.0124 356.741 10.6387C356.741 9.27799 356.464 8.24609 355.911 7.54297C355.364 6.83333 354.553 6.47852 353.479 6.47852C352.418 6.47852 351.617 6.82682 351.077 7.52344C350.536 8.22005 350.266 9.25846 350.266 10.6387ZM368.796 16V9.07617C368.796 8.20378 368.598 7.55273 368.2 7.12305C367.803 6.69336 367.181 6.47852 366.335 6.47852C365.215 6.47852 364.395 6.78125 363.874 7.38672C363.353 7.99219 363.093 8.99154 363.093 10.3848V16H361.472V5.29688H362.79L363.054 6.76172H363.132C363.464 6.23438 363.93 5.82747 364.529 5.54102C365.127 5.24805 365.795 5.10156 366.53 5.10156C367.82 5.10156 368.79 5.41406 369.441 6.03906C370.092 6.65755 370.417 7.65039 370.417 9.01758V16H368.796ZM377.414 14.8574C377.701 14.8574 377.977 14.8379 378.244 14.7988C378.511 14.7533 378.723 14.7077 378.879 14.6621V15.9023C378.703 15.987 378.443 16.0553 378.098 16.1074C377.759 16.166 377.453 16.1953 377.18 16.1953C375.109 16.1953 374.074 15.1048 374.074 12.9238V6.55664H372.541V5.77539L374.074 5.10156L374.758 2.81641H375.695V5.29688H378.801V6.55664H375.695V12.8555C375.695 13.5 375.848 13.9948 376.154 14.3398C376.46 14.6849 376.88 14.8574 377.414 14.8574ZM385.749 16.1953C384.167 16.1953 382.917 15.7135 381.999 14.75C381.087 13.7865 380.632 12.4486 380.632 10.7363C380.632 9.01107 381.055 7.64062 381.901 6.625C382.754 5.60938 383.897 5.10156 385.329 5.10156C386.67 5.10156 387.731 5.54427 388.513 6.42969C389.294 7.30859 389.684 8.4707 389.684 9.91602V10.9414H382.311C382.344 12.1979 382.66 13.1517 383.259 13.8027C383.864 14.4538 384.714 14.7793 385.807 14.7793C386.96 14.7793 388.099 14.5384 389.225 14.0566V15.502C388.652 15.7493 388.109 15.9251 387.595 16.0293C387.087 16.14 386.471 16.1953 385.749 16.1953ZM385.309 6.45898C384.45 6.45898 383.763 6.73893 383.249 7.29883C382.741 7.85872 382.442 8.63346 382.35 9.62305H387.946C387.946 8.60091 387.718 7.81966 387.263 7.2793C386.807 6.73242 386.156 6.45898 385.309 6.45898ZM399.982 16V9.07617C399.982 8.20378 399.783 7.55273 399.386 7.12305C398.989 6.69336 398.367 6.47852 397.521 6.47852C396.401 6.47852 395.581 6.78125 395.06 7.38672C394.539 7.99219 394.279 8.99154 394.279 10.3848V16H392.658V5.29688H393.976L394.24 6.76172H394.318C394.65 6.23438 395.116 5.82747 395.714 5.54102C396.313 5.24805 396.981 5.10156 397.716 5.10156C399.005 5.10156 399.976 5.41406 400.627 6.03906C401.278 6.65755 401.603 7.65039 401.603 9.01758V16H399.982ZM408.6 14.8574C408.886 14.8574 409.163 14.8379 409.43 14.7988C409.697 14.7533 409.909 14.7077 410.065 14.6621V15.9023C409.889 15.987 409.629 16.0553 409.284 16.1074C408.945 16.166 408.639 16.1953 408.366 16.1953C406.295 16.1953 405.26 15.1048 405.26 12.9238V6.55664H403.727V5.77539L405.26 5.10156L405.944 2.81641H406.881V5.29688H409.987V6.55664H406.881V12.8555C406.881 13.5 407.034 13.9948 407.34 14.3398C407.646 14.6849 408.066 14.8574 408.6 14.8574Z" fill="#D8D8D8"/>
</svg>
