<svg width="23" height="16" viewBox="0 0 23 16" fill="none" xmlns="http://www.w3.org/2000/svg">
<path d="M22.3421 2.50544C22.211 2.02114 21.9554 1.57963 21.6006 1.22488C21.2458 0.870128 20.8043 0.614509 20.32 0.483481C18.5469 0 11.4115 0 11.4115 0C11.4115 0 4.27586 0.0146721 2.50305 0.498153C2.01877 0.629202 1.57727 0.884831 1.22252 1.23958C0.867768 1.59433 0.612139 2.03583 0.48109 2.52011C-0.0552104 5.67042 -0.263275 10.4704 0.495762 13.4946C0.626812 13.9788 0.88244 14.4203 1.23719 14.7751C1.59194 15.1298 2.03344 15.3855 2.51772 15.5165C4.29067 16 11.4262 16 11.4262 16C11.4262 16 18.5617 16 20.3347 15.5165C20.819 15.3855 21.2605 15.1298 21.6152 14.7751C21.97 14.4203 22.2256 13.9788 22.3566 13.4946C22.9221 10.3399 23.0965 5.54284 22.342 2.50558L22.3421 2.50544Z" fill="#FF0000"/>
<path d="M9.1405 11.4287L15.0599 8.00019L9.1405 4.57153V11.4287Z" fill="white"/>
</svg>
