<svg width="63" height="20" viewBox="0 0 63 20" fill="none" xmlns="http://www.w3.org/2000/svg">
<path d="M59.7889 20H27.2324C25.9896 19.9965 24.9824 19.0907 24.9785 17.973V2.02703C24.9824 0.909328 25.9896 0.00348736 27.2324 0H59.7899C61.0327 0.00348736 62.04 0.909328 62.0438 2.02703V17.9738C62.039 19.0915 61.0317 19.9965 59.7889 20Z" fill="#E21B1B"/>
<path d="M31.7761 7.77334H29.146V6.5083H36.1259V7.77334H33.4648V14.8126H31.7761V7.77334Z" fill="white"/>
<path d="M42.4271 13.0103C42.4271 13.7243 42.4552 14.318 42.4814 14.8106H41.0001L40.9177 13.8961H40.8934C40.4407 14.5648 39.6244 14.9641 38.7539 14.9423C37.5334 14.9423 36.4272 14.2875 36.4272 12.3267V8.80713H38.1082V12.0739C38.1082 13.0713 38.4679 13.7191 39.3569 13.7191C40.1295 13.699 40.7432 13.128 40.7393 12.4322V8.80887H42.4261L42.4271 13.0103Z" fill="white"/>
<path d="M44.1946 14.8117C44.2227 14.4028 44.2527 13.7411 44.2527 13.1229V6.06104H45.9357V9.63558H45.9638C46.4388 9.00175 47.2483 8.63819 48.0965 8.67655C49.73 8.67655 50.8924 9.89713 50.8808 11.7201C50.8808 13.8779 49.3578 14.946 47.8532 14.946C46.9895 14.9852 46.1742 14.5859 45.7437 13.9111H45.7156L45.6332 14.8108L44.1946 14.8117ZM45.9396 12.3339C45.9376 12.4542 45.9522 12.5737 45.9812 12.6905C46.1519 13.3095 46.7655 13.7463 47.4742 13.7541C48.5289 13.7541 49.1746 12.9878 49.1746 11.7829C49.1746 10.7193 48.6123 9.85528 47.4877 9.85528C46.7675 9.87708 46.1548 10.3322 45.9948 10.9643C45.9619 11.0933 45.9444 11.2258 45.9405 11.3583L45.9396 12.3339Z" fill="white"/>
<path d="M53.4603 12.237C53.4971 13.1368 54.3386 13.8395 55.339 13.8063C55.3982 13.8046 55.4573 13.8002 55.5155 13.7924C56.1456 13.8055 56.7728 13.7122 57.3642 13.5169L57.6124 14.5631C56.8678 14.8186 56.0758 14.945 55.2789 14.9354C53.5417 15.0775 52.0042 13.9258 51.8462 12.3635C51.8307 12.2091 51.8287 12.054 51.8413 11.8996C51.6872 10.2623 53.0376 8.82291 54.8582 8.68429C54.9396 8.67819 55.0201 8.6747 55.1015 8.67383C57.2692 8.67383 57.9808 10.2806 57.9808 11.598C57.9827 11.8125 57.9643 12.0269 57.9265 12.2388H53.4603V12.237ZM56.3928 11.1734C56.4995 10.4663 55.9488 9.81507 55.1626 9.71916C55.1112 9.71306 55.0599 9.7087 55.0075 9.70783C54.1428 9.75404 53.4642 10.394 53.4564 11.1734H56.3928Z" fill="white"/>
<path d="M2.91993 14.8117V11.3522L0 6.5083H1.91948L3.02851 8.63559C3.34648 9.25285 3.57915 9.72277 3.82732 10.2877H3.85156C4.08713 9.75852 4.34403 9.24152 4.66201 8.63559L5.77104 6.5083H7.67307L4.60287 11.3139V14.8108L2.91993 14.8117Z" fill="black"/>
<path d="M13.6922 11.7543C13.8299 13.3898 12.4669 14.8153 10.6482 14.9391C10.5212 14.9478 10.3942 14.9496 10.2682 14.9452C8.49027 15.0088 6.99152 13.763 6.92076 12.164C6.91591 12.062 6.91785 11.9592 6.9256 11.8571C6.78794 10.2251 8.14903 8.80135 9.96381 8.67755C10.1024 8.66796 10.2411 8.66621 10.3797 8.67319C12.145 8.61303 13.6312 9.85104 13.6981 11.4387C13.7029 11.5442 13.701 11.6496 13.6922 11.7543ZM8.66574 11.8214C8.66574 12.9748 9.29393 13.8528 10.3206 13.8528C11.2813 13.8528 11.9541 13.0045 11.9541 11.7918C11.9541 10.8545 11.4858 9.78653 10.337 9.78653C9.14561 9.78217 8.66574 10.8162 8.66574 11.8214Z" fill="black"/>
<path d="M21.0511 13.0103C21.0511 13.7243 21.0792 14.318 21.1054 14.8106H19.6241L19.5417 13.8961H19.5165C19.0637 14.5648 18.2475 14.9641 17.3769 14.9423C16.1564 14.9423 15.0503 14.2875 15.0503 12.3267V8.80713H16.7332V12.0739C16.7332 13.0713 17.0929 13.7191 17.9819 13.7191C18.7545 13.699 19.3682 13.128 19.3643 12.4322V8.80887H21.0511V13.0103Z" fill="black"/>
<path opacity="0.2" d="M24.9785 2.5667V16.2337C24.9824 16.4882 25.0289 16.7402 25.1171 16.9817L47.5527 0H24.9921" fill="white"/>
</svg>
