<svg width="9" height="9" viewBox="0 0 9 9" fill="none" xmlns="http://www.w3.org/2000/svg">
<path d="M4.5 9C6.98528 9 9 6.98528 9 4.5C9 2.01472 6.98528 0 4.5 0C2.01472 0 0 2.01472 0 4.5C0 6.98528 2.01472 9 4.5 9Z" fill="#EA3843"/>
<path d="M2.50692 6.49299C2.54407 6.53014 2.58816 6.5596 2.6367 6.57971C2.68523 6.59981 2.73724 6.61016 2.78977 6.61016C2.8423 6.61016 2.89432 6.59981 2.94285 6.57971C2.99138 6.5596 3.03548 6.53014 3.07262 6.49299L4.50002 5.06559L5.92742 6.49299C6.00245 6.56801 6.10421 6.61015 6.21031 6.61014C6.31641 6.61013 6.41816 6.56797 6.49317 6.49294C6.56819 6.41791 6.61033 6.31616 6.61032 6.21006C6.61031 6.10396 6.56815 6.00221 6.49312 5.92719L5.06572 4.49989L6.49312 3.07259C6.56815 2.99758 6.61031 2.89583 6.61032 2.78973C6.61033 2.68363 6.56819 2.58187 6.49317 2.50684C6.41816 2.43181 6.31641 2.38966 6.21031 2.38965C6.10421 2.38964 6.00245 2.43178 5.92742 2.50679L4.50002 3.93419L3.07262 2.50679C3.03547 2.46965 2.99137 2.44019 2.94283 2.42009C2.89429 2.39999 2.84227 2.38964 2.78974 2.38965C2.7372 2.38965 2.68518 2.4 2.63665 2.42011C2.58812 2.44022 2.54402 2.46969 2.50687 2.50684C2.46973 2.54399 2.44027 2.5881 2.42017 2.63664C2.40007 2.68517 2.38972 2.73719 2.38973 2.78973C2.38973 2.84226 2.40009 2.89428 2.42019 2.94282C2.4403 2.99135 2.46977 3.03545 2.50692 3.07259L3.93432 4.49989L2.50692 5.92719C2.46976 5.96434 2.44029 6.00844 2.42017 6.05698C2.40006 6.10552 2.38971 6.15755 2.38971 6.21009C2.38971 6.26264 2.40006 6.31466 2.42017 6.3632C2.44029 6.41175 2.46976 6.45585 2.50692 6.49299V6.49299Z" fill="#FFFCEE"/>
</svg>
