<svg width="23" height="20" viewBox="0 0 23 20" fill="none" xmlns="http://www.w3.org/2000/svg">
<path d="M22.3729 0H8.36158C8.23729 0 8.13559 0.101695 8.13559 0.225989V1.80791C8.13559 1.9322 8.23729 2.0339 8.36158 2.0339H22.3729C22.4972 2.0339 22.5989 1.9322 22.5989 1.80791V0.225989C22.5989 0.101695 22.4972 0 22.3729 0ZM22.3729 11.9774H8.36158C8.23729 11.9774 8.13559 12.0791 8.13559 12.2034V13.7853C8.13559 13.9096 8.23729 14.0113 8.36158 14.0113H22.3729C22.4972 14.0113 22.5989 13.9096 22.5989 13.7853V12.2034C22.5989 12.0791 22.4972 11.9774 22.3729 11.9774ZM22.3729 17.9661H0.225989C0.101695 17.9661 0 18.0678 0 18.1921V19.774C0 19.8983 0.101695 20 0.225989 20H22.3729C22.4972 20 22.5989 19.8983 22.5989 19.774V18.1921C22.5989 18.0678 22.4972 17.9661 22.3729 17.9661ZM22.3729 5.9887H0.225989C0.101695 5.9887 0 6.0904 0 6.21469V7.79661C0 7.9209 0.101695 8.0226 0.225989 8.0226H22.3729C22.4972 8.0226 22.5989 7.9209 22.5989 7.79661V6.21469C22.5989 6.0904 22.4972 5.9887 22.3729 5.9887Z" fill="black"/>
</svg>
