<svg width="23" height="20" viewBox="0 0 23 20" fill="none" xmlns="http://www.w3.org/2000/svg">
<path d="M4.29379 2.0339H18.3051C18.4294 2.0339 18.5311 1.9322 18.5311 1.80791V0.225989C18.5311 0.101695 18.4294 0 18.3051 0H4.29379C4.16949 0 4.0678 0.101695 4.0678 0.225989V1.80791C4.0678 1.9322 4.16949 2.0339 4.29379 2.0339ZM18.3051 14.0113C18.4294 14.0113 18.5311 13.9096 18.5311 13.7853V12.2034C18.5311 12.0791 18.4294 11.9774 18.3051 11.9774H4.29379C4.16949 11.9774 4.0678 12.0791 4.0678 12.2034V13.7853C4.0678 13.9096 4.16949 14.0113 4.29379 14.0113H18.3051ZM22.3729 17.9661H0.225989C0.101695 17.9661 0 18.0678 0 18.1921V19.774C0 19.8983 0.101695 20 0.225989 20H22.3729C22.4972 20 22.5989 19.8983 22.5989 19.774V18.1921C22.5989 18.0678 22.4972 17.9661 22.3729 17.9661ZM22.3729 5.9887H0.225989C0.101695 5.9887 0 6.0904 0 6.21469V7.79661C0 7.9209 0.101695 8.0226 0.225989 8.0226H22.3729C22.4972 8.0226 22.5989 7.9209 22.5989 7.79661V6.21469C22.5989 6.0904 22.4972 5.9887 22.3729 5.9887Z" fill="black"/>
</svg>
