<svg width="23" height="20" viewBox="0 0 23 20" fill="none" xmlns="http://www.w3.org/2000/svg">
<path d="M0.225989 2.0339H22.2373C22.3616 2.0339 22.4633 1.9322 22.4633 1.80791V0.225989C22.4633 0.101695 22.3616 0 22.2373 0H0.225989C0.101695 0 0 0.101695 0 0.225989V1.80791C0 1.9322 0.101695 2.0339 0.225989 2.0339ZM0.225989 14.0113H22.2373C22.3616 14.0113 22.4633 13.9096 22.4633 13.7853V12.2034C22.4633 12.0791 22.3616 11.9774 22.2373 11.9774H0.225989C0.101695 11.9774 0 12.0791 0 12.2034V13.7853C0 13.9096 0.101695 14.0113 0.225989 14.0113ZM22.3729 17.9661H0.225989C0.101695 17.9661 0 18.0678 0 18.1921V19.774C0 19.8983 0.101695 20 0.225989 20H22.3729C22.4972 20 22.5989 19.8983 22.5989 19.774V18.1921C22.5989 18.0678 22.4972 17.9661 22.3729 17.9661ZM22.3729 5.9887H0.225989C0.101695 5.9887 0 6.0904 0 6.21469V7.79661C0 7.9209 0.101695 8.0226 0.225989 8.0226H22.3729C22.4972 8.0226 22.5989 7.9209 22.5989 7.79661V6.21469C22.5989 6.0904 22.4972 5.9887 22.3729 5.9887Z" fill="black"/>
</svg>
