<svg width="23" height="20" viewBox="0 0 23 20" fill="none" xmlns="http://www.w3.org/2000/svg">
<path d="M22.3736 2.0339H0.362322C0.238028 2.0339 0.136332 1.9322 0.136332 1.80791V0.225989C0.136332 0.101695 0.238028 0 0.362322 0H22.3736C22.4979 0 22.5996 0.101695 22.5996 0.225989V1.80791C22.5996 1.9322 22.4979 2.0339 22.3736 2.0339ZM22.3736 14.0113H10.3623C10.238 14.0113 10.1363 13.9096 10.1363 13.7853V12.2034C10.1363 12.0791 10.238 11.9774 10.3623 11.9774H22.3736C22.4979 11.9774 22.5996 12.0791 22.5996 12.2034V13.7853C22.5996 13.9096 22.4979 14.0113 22.3736 14.0113ZM0.226728 17.9661H22.3736C22.4979 17.9661 22.5996 18.0678 22.5996 18.1921V19.774C22.5996 19.8983 22.4979 20 22.3736 20H0.226728C0.102434 20 0.000740051 19.8983 0.000740051 19.774V18.1921C0.000740051 18.0678 0.102434 17.9661 0.226728 17.9661ZM10.2267 5.9887H22.3736C22.4979 5.9887 22.5996 6.0904 22.5996 6.21469V7.79661C22.5996 7.9209 22.4979 8.0226 22.3736 8.0226H10.2267C10.1024 8.0226 10.0007 7.9209 10.0007 7.79661V6.21469C10.0007 6.0904 10.1024 5.9887 10.2267 5.9887Z" fill="black"/>
<path d="M1 13.4286L4.75 9.5L1 5.57143L1.75 4L7 9.5L1.75 15L1 13.4286Z" fill="black"/>
</svg>
