<svg width="23" height="20" viewBox="0 0 23 20" fill="none" xmlns="http://www.w3.org/2000/svg">
<path d="M0.225256 2.0339H22.2366C22.3608 2.0339 22.4625 1.9322 22.4625 1.80791V0.225989C22.4625 0.101695 22.3608 0 22.2366 0H0.225256C0.100962 0 -0.000732422 0.101695 -0.000732422 0.225989V1.80791C-0.000732422 1.9322 0.100962 2.0339 0.225256 2.0339ZM0.225256 14.0113H12.2366C12.3608 14.0113 12.4625 13.9096 12.4625 13.7853V12.2034C12.4625 12.0791 12.3608 11.9774 12.2366 11.9774H0.225256C0.100962 11.9774 -0.000732422 12.0791 -0.000732422 12.2034V13.7853C-0.000732422 13.9096 0.100962 14.0113 0.225256 14.0113ZM22.3721 17.9661H0.225256C0.100962 17.9661 -0.000732422 18.0678 -0.000732422 18.1921V19.774C-0.000732422 19.8983 0.100962 20 0.225256 20H22.3721C22.4964 20 22.5981 19.8983 22.5981 19.774V18.1921C22.5981 18.0678 22.4964 17.9661 22.3721 17.9661ZM12.3721 5.9887H0.225256C0.100962 5.9887 -0.000732422 6.0904 -0.000732422 6.21469V7.79661C-0.000732422 7.9209 0.100962 8.0226 0.225256 8.0226H12.3721C12.4964 8.0226 12.5981 7.9209 12.5981 7.79661V6.21469C12.5981 6.0904 12.4964 5.9887 12.3721 5.9887Z" fill="black"/>
<path d="M21 5.57143L17.25 9.5L21 13.4286L20.25 15L15 9.5L20.25 4L21 5.57143Z" fill="black"/>
</svg>
