<svg id="Campaign_Report" data-name="Campaign Report" xmlns="http://www.w3.org/2000/svg" xmlns:xlink="http://www.w3.org/1999/xlink" width="48" height="48" viewBox="0 0 48 48">
  <defs>
    <clipPath id="clip-path">
      <rect id="Rectangle_2103" data-name="Rectangle 2103" width="48" height="48" fill="none"/>
    </clipPath>
  </defs>
  <g id="Group_4360" data-name="Group 4360" clip-path="url(#clip-path)">
    <path id="Path_1987" data-name="Path 1987" d="M70.607,674.49v2.995a2.993,2.993,0,0,1-2.995,2.995H28.685a2.993,2.993,0,0,1-2.995-2.995V674.49H42.159a5.118,5.118,0,0,0,3.616,1.5h4.746a5.118,5.118,0,0,0,3.616-1.5Zm0,0" transform="translate(-24.149 -634.021)" fill="#57a7dc"/>
    <path id="Path_1988" data-name="Path 1988" d="M601.09,549.72a1.5,1.5,0,1,1-1.2.6A1.52,1.52,0,0,1,601.09,549.72Zm0,0" transform="translate(-563.615 -516.737)" fill="#57a7dc"/>
    <path id="Path_1989" data-name="Path 1989" d="M500.149,477.214a1.466,1.466,0,0,1-.329-.935,1.5,1.5,0,1,1,.329.935Zm0,0" transform="translate(-469.83 -446.289)" fill="#57a7dc"/>
    <path id="Path_1990" data-name="Path 1990" d="M377.714,575.239a1.465,1.465,0,0,1,.332.938,1.5,1.5,0,1,1-2.994,0,1.452,1.452,0,0,1,.254-.831,1.508,1.508,0,0,1,1.24-.666A1.491,1.491,0,0,1,377.714,575.239Zm0,0" transform="translate(-352.547 -540.199)" fill="#57a7dc"/>
    <path id="Path_1991" data-name="Path 1991" d="M160.941,307.669v1.5H150.46V300.18h10.481Zm0,0" transform="translate(-141.432 -282.169)" fill="#57a7dc"/>
    <path id="Path_1992" data-name="Path 1992" d="M265.744,502.679a1.455,1.455,0,0,1-.254.831,1.493,1.493,0,0,1-2.486,0,1.455,1.455,0,0,1-.254-.831,1.5,1.5,0,0,1,2.995,0Zm0,0" transform="translate(-246.985 -471.193)" fill="#57a7dc"/>
    <path id="Path_1993" data-name="Path 1993" d="M153.112,575.371a1.456,1.456,0,0,1,.254.831,1.5,1.5,0,1,1-.254-.831Zm0,0" transform="translate(-141.344 -540.224)" fill="#57a7dc"/>
    <rect id="Rectangle_2095" data-name="Rectangle 2095" width="1.497" height="1.497" transform="translate(5.284 42.716)" fill="#0a346c"/>
    <rect id="Rectangle_2096" data-name="Rectangle 2096" width="1.497" height="1.497" transform="translate(8.279 42.716)" fill="#0a346c"/>
    <rect id="Rectangle_2097" data-name="Rectangle 2097" width="1.497" height="1.497" transform="translate(11.273 42.716)" fill="#0a346c"/>
    <rect id="Rectangle_2098" data-name="Rectangle 2098" width="5.989" height="1.497" transform="translate(36.727 42.716)" fill="#0a346c"/>
    <path id="Path_1994" data-name="Path 1994" d="M58.09,52.137v-24.7a3.747,3.747,0,0,0-3.743-3.743H52.1a10.48,10.48,0,1,0-20.96,0H18.413a3.747,3.747,0,0,0-3.743,3.743v24.7h-1.5v3.744a3.748,3.748,0,0,0,3.746,3.743H55.844a3.748,3.748,0,0,0,3.743-3.743V52.137Zm-6.11-26.95h2.366a2.249,2.249,0,0,1,2.246,2.246v24.7h-1.5V28.182a1.5,1.5,0,0,0-1.5-1.5H51.659A10.475,10.475,0,0,0,51.98,25.188Zm-19.345-1.5a8.951,8.951,0,0,1,.436-2.75l.007,0a8.915,8.915,0,0,1,.583-1.38l-.01,0a8.962,8.962,0,0,1,13.764-2.722l-.053.053a9.079,9.079,0,0,1,1.058,1.058l.053-.052A8.967,8.967,0,0,1,45.16,31.941l0-.011a8.91,8.91,0,0,1-2.7.7l-.1.009-.116.01-.166.01-.06,0-.18.007h-.246a8.949,8.949,0,0,1-8.948-8.941v-.035ZM16.167,27.434a2.249,2.249,0,0,1,2.246-2.246H31.259a10.312,10.312,0,0,0,.322,1.5H19.16a1.5,1.5,0,0,0-1.5,1.5V52.137H16.167ZM58.09,55.881a2.248,2.248,0,0,1-2.246,2.246H16.916a2.248,2.248,0,0,1-2.246-2.246V53.637H30.093a5.82,5.82,0,0,0,3.913,1.5h4.748a5.82,5.82,0,0,0,3.913-1.5H52.1v-1.5H42.059l-.219.22a4.333,4.333,0,0,1-3.086,1.28H34.005a4.336,4.336,0,0,1-3.085-1.28l-.219-.22H19.16V28.182H32.165a10.457,10.457,0,0,0,18.91,0H53.6V53.637h4.492Z" transform="translate(-12.38 -12.417)" fill="#0a346c"/>
    <g id="Group_4215" data-name="Group 4215" transform="translate(21.194 3.74)">
      <g id="Speaker" transform="translate(0 1.307)">
        <path id="Path_1700" data-name="Path 1700" d="M361.664,202.192a.649.649,0,0,1-.871-.286h0l-1.269-2.536-.1.049a.649.649,0,0,0-.293.868l1.316,2.63a.648.648,0,0,0,.871.286h0c.3-.151,1.711-.84,2.023-.968l-.353-.706Z" transform="translate(-358.719 -192.454)" fill="#57a7dc"/>
        <path id="Path_1701" data-name="Path 1701" d="M421.494,167.049l-1.706-3.409q-.3.23-.608.441l1.985,3.967c1.5-.1,6.626-.281,6.626-.281l-.49-.979S422.962,166.9,421.494,167.049Z" transform="translate(-415.223 -158.868)" fill="#57a7dc"/>
        <path id="Path_1702" data-name="Path 1702" d="M361.549,84.3a.264.264,0,0,0-.233.087l-4.375,4.927-2.71,1.357a1.5,1.5,0,0,0-.67,2.012l.98,1.958a1.5,1.5,0,0,0,1.371.827l2.069,2.3a1.47,1.47,0,1,0,2.185-1.967l-1.426-1.584.524-.262,6.566-.55a.266.266,0,0,0,.243-.287.262.262,0,0,0-.028-.1l-1.327-2.656.038-.019a1.9,1.9,0,1,0-1.69-3.405l-.012.006-.037.019-1.26-2.52A.265.265,0,0,0,361.549,84.3Zm-2.717,9.274-.406.2-1.846-3.687.406-.2Zm-3.816.828-.979-1.957a.968.968,0,0,1,.432-1.3l1.636-.819,1.846,3.688-1.636.819A.968.968,0,0,1,355.016,94.4Zm4.684,3.078a.937.937,0,0,1-1.324-.07h0l-1.871-2.078.047-.022,1.693-.847,1.525,1.7A.938.938,0,0,1,359.7,97.482Zm5.692-4.574-6.046.506-1.92-3.84,4.028-4.536Zm-2.1-5.485a1.368,1.368,0,0,1,1.225,2.447l-.038.019-1.225-2.447Z" transform="translate(-353.391 -84.289)" fill="#0a346c"/>
        <path id="Path_1995" data-name="Path 1995" d="M359.574,97.925a1.484,1.484,0,0,1-1.76-.329l-2.066-2.3a1.521,1.521,0,0,1-1.376-.835l-.98-1.958a1.515,1.515,0,0,1,.674-2.027l2.708-1.355,4.373-4.925a.276.276,0,0,1,.244-.091h0a.278.278,0,0,1,.212.151l1.256,2.509.039-.02a1.912,1.912,0,0,1,1.706,3.42l-.006,0-.027.014,1.325,2.647a.285.285,0,0,1,.028.1.278.278,0,0,1-.254.3l-6.563.55-.508.254,1.416,1.573a1.482,1.482,0,0,1-.442,2.311Zm-5.5-7.423a1.493,1.493,0,0,0-.664,2l.98,1.958a1.5,1.5,0,0,0,1.361.821h.005l0,0,2.069,2.3A1.459,1.459,0,1,0,360,95.629l-1.436-1.6.54-.27,6.566-.55a.255.255,0,0,0,.233-.275.248.248,0,0,0-.026-.092l-1.335-2.668.048-.024.006,0a1.889,1.889,0,1,0-1.685-3.381l-.06.029-1.266-2.529a.254.254,0,0,0-.42-.055l-4.374,4.928Zm5.263,6.953a.95.95,0,0,1-1.129-.214l-1.882-2.09.02-.009.041-.019,1.7-.851,1.531,1.7a.952.952,0,0,1-.07,1.34h0A.956.956,0,0,1,359.339,97.455Zm-2.972-2.3,1.86,2.067a.926.926,0,1,0,1.376-1.239L358.084,94.3l-1.685.84a.276.276,0,0,1-.033.016Zm8.885-2.416h-.017l-6.053.506-1.929-3.855,0-.006,4.04-4.549Zm-6.057.48,6.024-.5-3.928-7.841-4.012,4.518Zm-.506.18-.427.214-1.856-3.708.427-.214Zm-.416.18.385-.193-1.835-3.665-.386.193Zm-.466.259-1.648.826a.981.981,0,0,1-1.313-.437l-.98-1.958a.982.982,0,0,1,.437-1.313l1.647-.824Zm-2.94.377a.96.96,0,0,0,1.282.427l1.63-.812-1.835-3.667-1.626.814a.96.96,0,0,0-.426,1.282l.98,1.958Zm9.492-4.519-.048.024-1.235-2.467.048-.024a1.38,1.38,0,0,1,1.235,2.467Zm-.038-.007.028-.014a1.356,1.356,0,1,0-1.214-2.426l-.027.014Z" transform="translate(-353.233 -84.107)" fill="#0a346c"/>
      </g>
      <g id="Arrows" transform="translate(10.217)">
        <path id="Path_1706" data-name="Path 1706" d="M564.528,107.276l-1.7-.672a.286.286,0,0,0-.211.531l.994.394-2.212.956a.286.286,0,0,0,.227.525l2.26-.976a.289.289,0,0,0,.038-.02l-.443,1.118a.286.286,0,0,0,.532.211l.672-1.695A.287.287,0,0,0,564.528,107.276Z" transform="translate(-558.979 -103.928)" fill="#57a7dc"/>
        <path id="Path_1708" data-name="Path 1708" d="M565.71,168.567a.286.286,0,0,0,.38.138l1.652-.771a.286.286,0,0,0,.138-.38h0l-.771-1.652a.286.286,0,0,0-.518.24l.452.968-2.264-.824a.286.286,0,0,0-.2.535h0l2.314.84a.261.261,0,0,0,.043.011l-1.091.509a.286.286,0,0,0-.138.38Z" transform="translate(-561.94 -159.541)" fill="#57a7dc"/>
        <path id="Path_1709" data-name="Path 1709" d="M523.519,63.191a.286.286,0,0,0,.353.195l1.028-.294-1.17,2.107a.286.286,0,1,0,.5.284l0-.006,1.2-2.151a.352.352,0,0,0,.017-.041l.331,1.158a.286.286,0,1,0,.549-.157l-.5-1.753a.286.286,0,0,0-.353-.2h0l-1.75.5a.286.286,0,0,0-.2.353Z" transform="translate(-523.508 -62.325)" fill="#57a7dc"/>
      </g>
    </g>
    <path id="Path_1996" data-name="Path 1996" d="M167.167,466.453a2.232,2.232,0,0,0-1.244.378l-2.612-1.958a2.207,2.207,0,0,0,.112-.665,2.246,2.246,0,1,0-4.36.731l-4.192,3.355a2.2,2.2,0,0,0-2.52.11l-3.228-2.152a2.193,2.193,0,0,0,.076-.547,2.246,2.246,0,0,0-4.492,0,2.194,2.194,0,0,0,.076.547l-3.228,2.152a2.223,2.223,0,0,0-1.34-.454,2.246,2.246,0,1,0,2.246,2.246,2.194,2.194,0,0,0-.076-.547l3.229-2.152a2.2,2.2,0,0,0,2.678,0l3.228,2.152a2.2,2.2,0,0,0-.076.547,2.246,2.246,0,1,0,4.36-.732L160,466.108a2.217,2.217,0,0,0,2.424-.034l2.611,1.959a2.215,2.215,0,0,0-.112.666,2.246,2.246,0,1,0,2.246-2.246Zm-26.951,4.492a.749.749,0,1,1,.749-.749A.749.749,0,0,1,140.216,470.944Zm6.738-4.492a.749.749,0,1,1,.748-.749A.749.749,0,0,1,146.954,466.453Zm6.737,4.492a.749.749,0,1,1,.749-.749A.749.749,0,0,1,153.692,470.944Zm7.486-5.989a.749.749,0,1,1,.749-.748A.749.749,0,0,1,161.178,464.955Zm5.989,4.492a.749.749,0,1,1,.748-.749A.749.749,0,0,1,167.167,469.447Zm0,0" transform="translate(-129.692 -434.218)" fill="#0a346c"/>
    <rect id="Rectangle_2099" data-name="Rectangle 2099" width="5.989" height="1.497" transform="translate(11.273 20.257)"/>
    <rect id="Rectangle_2100" data-name="Rectangle 2100" width="5.989" height="1.497" transform="translate(11.273 23.251)"/>
    <rect id="Rectangle_2101" data-name="Rectangle 2101" width="1.497" height="1.497" transform="translate(21.754 24.749)" fill="#57a7dc"/>
    <rect id="Rectangle_2102" data-name="Rectangle 2102" width="14.972" height="1.497" transform="translate(24.749 24.749)" fill="#57a7dc"/>
  </g>
</svg>
