<svg xmlns="http://www.w3.org/2000/svg" width="36" height="36" viewBox="0 0 36 36">
  <g id="Data_Setup" data-name="Data Setup" transform="translate(-859 -602)">
    <rect id="Rectangle_2012" data-name="Rectangle 2012" width="36" height="36" transform="translate(859 602)" fill="none"/>
    <g id="setup" transform="translate(858 601)">
      <path id="Path_1749" data-name="Path 1749" d="M29.474,57.567v1.7H17v-1.7A.567.567,0,0,1,17.567,57h11.34A.567.567,0,0,1,29.474,57.567Z" transform="translate(-6.586 -23.835)" fill="#57a7dc"/>
      <path id="Path_1750" data-name="Path 1750" d="M28.5,49l.567,4.536H20L20.567,49H28.5Z" transform="translate(-7.889 -20.371)" fill="#57a7dc"/>
      <path id="Path_1752" data-name="Path 1752" d="M37.4,6.4H34.567A.567.567,0,0,1,34,5.835V3Z" transform="translate(-13.994 -0.433)" fill="#57a7dc"/>
      <path id="Path_1753" data-name="Path 1753" d="M23.375,33.733A1.129,1.129,0,0,0,22.25,32.6h-.628L21.2,29.2h1.05V28.067H4.812a1.694,1.694,0,0,1-1.687-1.7v-1.7H16.062V23.533H3.125V9.367a1.694,1.694,0,0,1,1.687-1.7h2.25v13.6A1.129,1.129,0,0,0,8.187,22.4h6.187V21.267H8.187V3.133h11.25V5.4a1.129,1.129,0,0,0,1.125,1.133h2.25V7.667h5.625a1.694,1.694,0,0,1,1.687,1.7H31.25a2.826,2.826,0,0,0-2.812-2.833h-4.5V5.967a.569.569,0,0,0-.165-.4L20.4,2.166A.56.56,0,0,0,20,2H8.187A1.129,1.129,0,0,0,7.062,3.133v3.4H4.812A2.826,2.826,0,0,0,2,9.367v17A2.826,2.826,0,0,0,4.812,29.2H12.05l-.422,3.4H11a1.129,1.129,0,0,0-1.125,1.133v1.133H8.75V36H24.5V34.867H23.375Zm-2.812-29.8L22.017,5.4H20.562ZM13.184,29.2h6.882l.422,3.4H12.762ZM11,34.867V33.733H22.25v1.133Z" fill="#0a346c"/>
      <g id="text" transform="translate(9.918 5.242)">
        <path id="Path_1732" data-name="Path 1732" d="M32,320h8.951v1.492H32Zm0,0" transform="translate(-32 -320)" fill="#57a7dc"/>
        <path id="Path_1733" data-name="Path 1733" d="M32,352h1.492v1.492H32Zm0,0" transform="translate(-32 -348.997)" fill="#57a7dc"/>
        <path id="Path_1734" data-name="Path 1734" d="M64,352h5.968v1.492H64Zm0,0" transform="translate(-61.016 -348.997)" fill="#57a7dc"/>
        <path id="Path_1735" data-name="Path 1735" d="M32,384h7.063v1.492H32Zm0,0" transform="translate(-32 -377.995)" fill="#57a7dc"/>
        <path id="Path_1738" data-name="Path 1738" d="M32,448h5.967v1.492H32Zm0,0" transform="translate(-32 -438.893)" fill="#57a7dc"/>
      </g>
      <g id="Setting" transform="translate(16.723 9.204)">
        <path id="Path_70" data-name="Path 70" d="M31.277,34.51V30.767l-2.241-.28a7.642,7.642,0,0,0-.646-1.558l1.387-1.783L27.131,24.5l-1.783,1.387a7.669,7.669,0,0,0-1.558-.646L23.51,23H19.767l-.28,2.241a7.642,7.642,0,0,0-1.558.646L16.147,24.5,13.5,27.147l1.387,1.783a7.669,7.669,0,0,0-.646,1.558L12,30.767V34.51l2.241.28a7.642,7.642,0,0,0,.646,1.558L13.5,38.131l2.646,2.646,1.783-1.387a7.67,7.67,0,0,0,1.558.646l.28,2.241H23.51l.28-2.241a7.643,7.643,0,0,0,1.558-.646l1.783,1.387,2.646-2.646-1.387-1.783a7.669,7.669,0,0,0,.646-1.558Zm-9.639,2.948a4.819,4.819,0,1,1,4.819-4.819A4.819,4.819,0,0,1,21.639,37.458Z" transform="translate(-12 -23)" fill="#57a7dc"/>
        <path id="Path_71" data-name="Path 71" d="M27.774,42.547a3.774,3.774,0,1,1,3.774-3.774A3.778,3.778,0,0,1,27.774,42.547Zm0-6.6a2.83,2.83,0,1,0,2.83,2.83A2.833,2.833,0,0,0,27.774,35.943Z" transform="translate(-18.135 -29.117)" fill="#0a346c"/>
        <path id="Path_72" data-name="Path 72" d="M25.906,42.755c-.2,0-.366-.008-.546-.024l.09-.973c.15.013.3.017.455.02s.3-.007.452-.021l.091.973C26.269,42.746,26.088,42.755,25.906,42.755Zm-1.615-.22a5.905,5.905,0,0,1-1.015-.39l.438-.875a4.9,4.9,0,0,0,.845.325Zm3.226,0-.269-.94a4.938,4.938,0,0,0,.844-.326l.439.874A5.908,5.908,0,0,1,27.517,42.531Zm-5.167-.956a5.927,5.927,0,0,1-.8-.727l.725-.66a4.96,4.96,0,0,0,.671.607Zm7.105-.007-.593-.78a4.958,4.958,0,0,0,.67-.608l.727.658A6,6,0,0,1,29.455,41.568Zm-8.567-1.582a5.832,5.832,0,0,1-.487-.967l.916-.355a4.855,4.855,0,0,0,.406.806Zm10.026-.01-.835-.516a4.817,4.817,0,0,0,.4-.806l.917.353A5.82,5.82,0,0,1,30.914,39.976Zm-10.812-2A5.921,5.921,0,0,1,20,36.9l.983,0a4.889,4.889,0,0,0,.085.9ZM31.7,37.966l-.967-.178a4.9,4.9,0,0,0,.083-.9l.983-.022V36.9A5.844,5.844,0,0,1,31.7,37.966ZM21.064,36l-.967-.176a5.8,5.8,0,0,1,.295-1.042l.917.351A4.833,4.833,0,0,0,21.064,36Zm9.663-.03a4.867,4.867,0,0,0-.251-.866l.915-.356a5.83,5.83,0,0,1,.3,1.04Zm-9.014-1.645-.837-.514a5.891,5.891,0,0,1,.654-.864l.728.657A4.927,4.927,0,0,0,21.712,34.327Zm8.356-.026a4.927,4.927,0,0,0-.55-.718l.724-.661a5.856,5.856,0,0,1,.659.86ZM22.926,33l-.6-.778a5.916,5.916,0,0,1,.923-.573l.44.874A4.932,4.932,0,0,0,22.926,33Zm5.92-.018a4.9,4.9,0,0,0-.772-.473l.436-.876a5.894,5.894,0,0,1,.926.567Zm-4.307-.787-.272-.939a5.87,5.87,0,0,1,1.069-.2l.092.973A4.936,4.936,0,0,0,24.538,32.191Zm2.689-.008a4.931,4.931,0,0,0-.892-.162l.087-.974a5.97,5.97,0,0,1,1.07.194Z" transform="translate(-16.259 -27.251)" fill="#0a346c"/>
      </g>
    </g>
  </g>
</svg>
