<svg xmlns="http://www.w3.org/2000/svg" xmlns:xlink="http://www.w3.org/1999/xlink" width="60" height="60" viewBox="0 0 60 60">
  <defs>
    <clipPath id="clip-path">
      <rect id="Rectangle_2087" data-name="Rectangle 2087" width="60" height="60" fill="none"/>
    </clipPath>
  </defs>
  <g id="Manage_Campaign_60_" data-name="Manage Campaign (60)" clip-path="url(#clip-path)">
    <path id="Path_1963" data-name="Path 1963" d="M43.81,498.927,70.524,477.25l27.209,21.677Z" transform="translate(-40.524 -441.456)" fill="#57a7dc"/>
    <path id="Path_1964" data-name="Path 1964" d="M68.327,41.764l-4.693-4.037-1.581,1.184,4.679,4.037-18.6,14.888-6.067-4.852a2.907,2.907,0,0,0-3.632,0l-6.052,4.847L13.772,42.948,39.617,20.673a.975.975,0,0,1,1.275,0l4.546,3.9,1.832,1.581,1.232-1.5-1.44-1.242-4.9-4.2a2.925,2.925,0,0,0-3.808,0L12.173,41.77a2.9,2.9,0,0,0-1,2.2V73.131a2.909,2.909,0,0,0,2.912,2.908H66.425a2.909,2.909,0,0,0,2.909-2.909V43.969a2.908,2.908,0,0,0-1.007-2.206Zm-55.2,31.471a.814.814,0,0,1-.02-.1V44.9L30.827,59.074Zm2.021.866L39.642,54.5a.989.989,0,0,1,1.215,0L65.352,74.1Zm52.245-.97c-.005.035-.012.069-.02.1L49.681,59.075,67.394,44.9Z" transform="translate(-10.332 -17.119)" fill="#0a346c"/>
    <g id="Group_4215" data-name="Group 4215" transform="translate(22.719 3.044)">
      <g id="Speaker" transform="translate(0 2.672)">
        <path id="Path_1700" data-name="Path 1700" d="M317.744,270.5a1.325,1.325,0,0,1-1.78-.585h0l-2.594-5.184c-.065.033-.13.068-.2.1a1.326,1.326,0,0,0-.6,1.775l2.691,5.377a1.324,1.324,0,0,0,1.779.585h0c.614-.308,3.5-1.719,4.134-1.979l-.719-1.442C320.306,269.22,317.9,270.423,317.744,270.5Z" transform="translate(-311.724 -250.591)" fill="#57a7dc"/>
        <path id="Path_1701" data-name="Path 1701" d="M415.49,213.26,412,206.29q-.607.468-1.242.9l4.06,8.111c3.058-.208,13.545-.576,13.545-.576l-1-2S418.492,212.949,415.49,213.26Z" transform="translate(-402.672 -196.534)" fill="#57a7dc"/>
        <path id="Path_1702" data-name="Path 1702" d="M319.847,76.527a.546.546,0,0,0-.479.181l-8.944,10.069-5.541,2.775a3.069,3.069,0,0,0-1.369,4.114l2,4a3.068,3.068,0,0,0,2.8,1.69l4.23,4.7a3,3,0,1,0,4.466-4.021L314.1,96.8l1.075-.535L328.6,95.139a.545.545,0,0,0,.5-.588.536.536,0,0,0-.056-.2l-2.719-5.432.075-.038a3.886,3.886,0,1,0-3.454-6.962l-.025.013-.075.038-2.583-5.149A.548.548,0,0,0,319.847,76.527Zm-5.555,18.959-.83.415-3.772-7.538.829-.416Zm-7.8,1.7-2-4a1.978,1.978,0,0,1,.883-2.652l3.345-1.675,3.773,7.535-3.346,1.675A1.98,1.98,0,0,1,306.492,97.184Zm9.575,6.293a1.916,1.916,0,0,1-2.706-.143h0l-3.825-4.249.1-.045,3.461-1.732,3.116,3.462a1.919,1.919,0,0,1-.142,2.7ZM327.7,94.123l-12.357,1.036-3.931-7.853,8.235-9.276Zm-4.3-11.214a2.8,2.8,0,1,1,2.5,5l-.075.038-2.5-5Z" transform="translate(-303.17 -76.499)" fill="#0a346c"/>
        <path id="Path_1965" data-name="Path 1965" d="M315.878,104.453a3.033,3.033,0,0,1-3.6-.675l-4.223-4.692a3.109,3.109,0,0,1-2.814-1.706l-2-4a3.1,3.1,0,0,1,1.382-4.138l5.537-2.775L319.1,76.4a.567.567,0,0,1,.5-.186h0a.569.569,0,0,1,.434.309l2.567,5.129.08-.04a3.909,3.909,0,1,1,3.487,7l-.013.006-.053.029,2.708,5.411a.552.552,0,0,1,.059.207.566.566,0,0,1-.518.613l-13.423,1.119-1.036.525,2.895,3.216a3.037,3.037,0,0,1-.225,4.258A3,3,0,0,1,315.878,104.453ZM304.64,89.278a3.05,3.05,0,0,0-1.358,4.081l2,4a3.061,3.061,0,0,0,2.782,1.68h.011l.007.007,4.23,4.7a2.981,2.981,0,1,0,4.431-3.989L313.809,96.5l1.107-.553,13.425-1.125a.521.521,0,0,0,.475-.562.505.505,0,0,0-.053-.19l-2.729-5.453.1-.049.013-.007a3.862,3.862,0,1,0-3.445-6.912l-.122.061-2.59-5.169a.521.521,0,0,0-.855-.112L310.185,86.5ZM315.4,103.489a1.943,1.943,0,0,1-2.307-.439l-3.847-4.275.04-.019.084-.039,3.477-1.741,3.129,3.479a1.95,1.95,0,0,1-.144,2.74h0A1.941,1.941,0,0,1,315.4,103.489Zm-6.075-4.7,3.8,4.229a1.893,1.893,0,1,0,2.815-2.532l-3.1-3.45-3.445,1.725-.067.031Zm18.166-4.95h-.035l-12.375,1.035L311.132,87l.011-.012,8.258-9.3Zm-12.383.989,12.309-1.03-8.025-16.031-8.2,9.242Zm-1.034.365-.873.442-3.794-7.58.869-.436Zm-.851.375.788-.395-3.75-7.5-.788.395Zm-.952.529L308.9,97.789a2.006,2.006,0,0,1-2.684-.894l-2-4a2.006,2.006,0,0,1,.893-2.684l3.367-1.684Zm-6.008.77a1.959,1.959,0,0,0,2.621.873l3.324-1.664-3.75-7.5-3.326,1.669a1.958,1.958,0,0,0-.872,2.62l2,4Zm19.4-9.233-.1.049-2.524-5.047.1-.049a2.82,2.82,0,1,1,2.525,5.044Zm-.075-.014.055-.028a2.775,2.775,0,0,0-2.484-4.956l-.056.028Z" transform="translate(-302.916 -76.204)" fill="#0a346c"/>
      </g>
      <g id="Arrows" transform="translate(20.885)">
        <path id="Path_1706" data-name="Path 1706" d="M649.51,114.384l-3.465-1.374a.584.584,0,1,0-.431,1.086l2.031.805-4.522,1.954a.584.584,0,1,0,.464,1.073l4.619-2a.6.6,0,0,0,.075-.042l-.907,2.287a.585.585,0,0,0,1.087.431l1.377-3.463a.586.586,0,0,0-.328-.759Z" transform="translate(-638.168 -107.54)" fill="#57a7dc"/>
        <path id="Path_1708" data-name="Path 1708" d="M650.95,215.434a.584.584,0,0,0,.776.283l3.375-1.575a.585.585,0,0,0,.285-.778h0l-1.575-3.379a.584.584,0,0,0-1.058.494l.922,1.985-4.63-1.685a.584.584,0,1,0-.408,1.1h.009l4.725,1.721a.591.591,0,0,0,.087.022l-2.23,1.04a.583.583,0,0,0-.282.776Z" transform="translate(-643.242 -196.983)" fill="#57a7dc"/>
        <path id="Path_1709" data-name="Path 1709" d="M581.408,42.351a.584.584,0,0,0,.722.4l2.1-.6-2.392,4.306a.586.586,0,0,0,1.018.581l.007-.014,2.444-4.4a.541.541,0,0,0,.036-.082l.675,2.367a.585.585,0,0,0,1.125-.321l-1.028-3.584a.585.585,0,0,0-.722-.4h0l-3.586,1.024a.584.584,0,0,0-.4.722Z" transform="translate(-581.385 -40.581)" fill="#57a7dc"/>
      </g>
    </g>
  </g>
</svg>
