<svg id="Referred_by_Reports" data-name="Referred by Reports" xmlns="http://www.w3.org/2000/svg" width="92" height="92" viewBox="0 0 92 92">
  <rect id="BG" width="92" height="92" fill="none"/>
  <g id="Group_4232" data-name="Group 4232" transform="translate(2.705 2.71)">
    <g id="Group_4231" data-name="Group 4231" transform="translate(9.074 9.299)">
      <path id="Path_1717" data-name="Path 1717" d="M155.144,92.416l-.054,1.5.054-18.013s16.679,1.929,17.073,17.941H155.144" transform="translate(-138.904 -74.223)" fill="#57a7dc"/>
      <path id="Path_1713" data-name="Path 1713" d="M80.951,66.6a1.693,1.693,0,0,0-1.695,1.695v3.047a15.615,15.615,0,1,0,17.2,17.238H99.5a1.693,1.693,0,0,0,1.693-1.695A20.26,20.26,0,0,0,80.951,66.6Zm0,32.474a12.212,12.212,0,0,1-1.693-24.306v12.1a1.693,1.693,0,0,0,1.693,1.695h12.1A12.229,12.229,0,0,1,80.951,99.074Zm1.7-13.9h0V70.08a16.9,16.9,0,0,1,15.09,15.092Z" transform="translate(-65.322 -66.6)" fill="#0a346c"/>
    </g>
    <g id="Group_4230" data-name="Group 4230">
      <path id="Path_2171" data-name="Path 2171" d="M299.37,33.83,313.362,47.8H299.37V33.83" transform="translate(-248.096 -30.44)" fill="#57a7dc"/>
      <path id="Path_1711" data-name="Path 1711" d="M100.173,98.531H20.079a1.693,1.693,0,0,1-1.695-1.695v-76.7a1.693,1.693,0,0,1,1.695-1.695H63.864V29.63a5.079,5.079,0,0,0,5.085,5.085h11.2v20.88a1.695,1.695,0,1,0,3.39,0h0V33.025a1.708,1.708,0,0,0-.5-1.208L66.767,15.535a1.708,1.708,0,0,0-1.208-.5H20.079A5.117,5.117,0,0,0,15,20.133v76.7a5.079,5.079,0,0,0,5.085,5.085h80.093a1.695,1.695,0,1,0-.005-3.39Zm-32.924-77.7L77.742,31.33h-8.8a1.693,1.693,0,0,1-1.695-1.695Z" transform="translate(-15 -15.03)" fill="#0a346c"/>
    </g>
    <g id="Group_4229" data-name="Group 4229" transform="translate(9.154 50.685)">
      <path id="Path_1714" data-name="Path 1714" d="M96.825,296.13h-29.5c-.847,0-1.551,1.208-1.551,2.723s.685,2.723,1.551,2.723h29.5c.847,0,1.551-1.208,1.551-2.723S97.667,296.13,96.825,296.13Z" transform="translate(-65.77 -296.13)" fill="#57a7dc"/>
      <path id="Path_1714-2" data-name="Path 1714" d="M89.39,388H66.942c-.649,0-1.172,1.208-1.172,2.723s.523,2.723,1.172,2.723H89.39c.649,0,1.172-1.208,1.172-2.723S90.04,388,89.39,388Z" transform="translate(-65.77 -371.435)" fill="#57a7dc"/>
      <path id="Path_1715" data-name="Path 1715" d="M80.123,341.73H67.717c-1.064,0-1.947,1.208-1.947,2.723s.865,2.723,1.947,2.723H80.123c1.064,0,1.947-1.208,1.947-2.723S81.2,341.73,80.123,341.73Z" transform="translate(-65.77 -333.508)" fill="#57a7dc"/>
      <path id="Path_1716" data-name="Path 1716" d="M177.737,342.491a2.721,2.721,0,1,0,.793,1.929A2.721,2.721,0,0,0,177.737,342.491Z" transform="translate(-153.738 -333.475)" fill="#0a346c"/>
    </g>
  </g>
  <path id="Path_2172" data-name="Path 2172" d="M288.15,341.452v-3.786s.79-2.813,2.667-3.065a57.771,57.771,0,0,1,6.76,0s2.73.721,3.038,2.609v4.583l-4.65.06s-3.136-.974-2.7-3.341c0,0-.18,3.864-2.153,3.282H288.15Z" transform="translate(-236.194 -274.177)" fill="#57a7dc"/>
  <path id="Path_2173" data-name="Path 2173" d="M395.09,263.142v-3.786s.79-2.813,2.669-3.065a57.742,57.742,0,0,1,6.758,0s2.732.721,3.038,2.609v4.573l-4.65.059s-3.136-.974-2.7-3.341c0,0-.18,3.864-2.153,3.282H395.09Z" transform="translate(-323.852 -209.987)" fill="#57a7dc"/>
  <path id="Path_2174" data-name="Path 2174" d="M403.582,404.669l-4.2,4.2h2.405s-1.039,6.686-5.458,7.193c0,0,8.518.554,9.347-7h2.395l-4.446-4.446Z" transform="translate(-324.868 -331.663)" fill="#57a7dc"/>
  <path id="Path_2158" data-name="Path 2158" d="M273.482,345.343a5.748,5.748,0,0,1-1.827-2.564h-.334a2.537,2.537,0,0,1-1.273-4.735v-2.9a5.094,5.094,0,0,1,5.086-5.087h3.817a5.092,5.092,0,0,1,5.088,5.087v2.9a2.537,2.537,0,0,1-1.28,4.735h-.334a5.748,5.748,0,0,1-1.827,2.564,7,7,0,0,1,6.612,6.976v2.544a.635.635,0,0,1-.635.635H267.5a.636.636,0,0,1-.635-.635h0v-2.544A7,7,0,0,1,273.482,345.343Zm6.414,1.251-2,2.5,1.936,1.937.884-4.409c-.164-.014-.326-.025-.492-.025Zm-4.07,0,1.221,1.527,1.221-1.527Zm-1.623,0h-.33c-.166,0-.328.011-.492.025l.884,4.41,1.937-1.938Zm-2.874-5.087h.04a5.365,5.365,0,0,1-.038-.636v-1.908a1.273,1.273,0,1,0,0,2.544Zm11.45-6.361a3.819,3.819,0,0,0-3.817-3.815h-3.826a3.819,3.819,0,0,0-3.817,3.815v2.55h2.544a1.275,1.275,0,0,0,1.273-1.275h0v-2.546h1.271v.636a3.184,3.184,0,0,0,3.181,3.181h3.184Zm0,6.359a1.273,1.273,0,0,0,0-2.544v1.906a6.239,6.239,0,0,1-.038.637Zm-1.28-.638v-1.9h-1.909a4.448,4.448,0,0,1-3.379-1.561,2.546,2.546,0,0,1-2.344,1.561h-1.273v1.9a4.453,4.453,0,0,0,8.905,0Zm-13.357,13.355h17.807v-1.9a5.734,5.734,0,0,0-3.987-5.453l-1.114,5.577a.635.635,0,0,1-.438.485.615.615,0,0,1-.18.027.637.637,0,0,1-.449-.18l-2.73-2.73-2.73,2.723a.637.637,0,0,1-1.082-.326l-1.116-5.575a5.736,5.736,0,0,0-3.967,5.453Z" transform="translate(-218.751 -270.547)" fill="#0a346c"/>
  <path id="Path_2159" data-name="Path 2159" d="M373.23,276.723v-2.544a7,7,0,0,1,6.612-6.976,5.748,5.748,0,0,1-1.827-2.564h-.334a2.537,2.537,0,0,1-1.271-4.735v-2.9a5.09,5.09,0,0,1,5.085-5.087h3.815a5.094,5.094,0,0,1,5.088,5.087v2.9a2.537,2.537,0,0,1-1.273,4.735h-.334a5.739,5.739,0,0,1-1.827,2.564,7,7,0,0,1,6.614,6.976v2.544a.636.636,0,0,1-.636.636H373.867A.636.636,0,0,1,373.23,276.723Zm13.026-8.265-2,2.5,1.936,1.938.884-4.41c-.162-.014-.326-.025-.492-.025Zm-4.07,0,1.221,1.527,1.221-1.527Zm-1.623,0h-.343c-.168,0-.33.011-.492.025l.882,4.409,1.938-1.936Zm-2.874-5.088h.04a5.364,5.364,0,0,1-.038-.636v-1.909a1.273,1.273,0,0,0,0,2.544Zm11.45-6.363a3.819,3.819,0,0,0-3.824-3.81H381.5a3.819,3.819,0,0,0-3.814,3.815v2.55h2.539a1.273,1.273,0,0,0,1.262-1.277h0v-2.55h1.271v.636a3.184,3.184,0,0,0,3.181,3.181h3.184Zm0,6.359a1.273,1.273,0,0,0,0-2.544v1.908a6.239,6.239,0,0,1-.038.636Zm-1.273-.636v-1.906h-1.917a4.438,4.438,0,0,1-3.375-1.561,2.551,2.551,0,0,1-2.344,1.561h-1.271v1.908a4.452,4.452,0,1,0,8.9,0Zm-13.357,13.355H392.3v-1.906a5.734,5.734,0,0,0-3.987-5.453L387.2,274.3a.635.635,0,0,1-.438.485.615.615,0,0,1-.18.027.636.636,0,0,1-.449-.18l-2.73-2.73-2.735,2.728a.635.635,0,0,1-.9,0,.627.627,0,0,1-.18-.325l-1.116-5.577a5.734,5.734,0,0,0-3.985,5.453Z" transform="translate(-305.933 -206.497)" fill="#0a346c"/>
  <path id="Path_2160" data-name="Path 2160" d="M384.436,412.066a6.369,6.369,0,0,0,6.329-5.723h-1.881a.636.636,0,0,1-.449-1.082l4.452-4.452a.636.636,0,0,1,.9,0h0l4.452,4.452a.636.636,0,0,1-.449,1.082h-1.935a7.64,7.64,0,0,1-7.6,7h-3.817a.636.636,0,1,1,0-1.273Zm10.177-6.359a.635.635,0,0,1,.637-.635h1.008l-2.917-2.917-2.916,2.917h1.008a.635.635,0,0,1,.636.635,7.64,7.64,0,0,1-3.4,6.343,6.367,6.367,0,0,0,5.939-6.347Z" transform="translate(-314.597 -328.386)" fill="#0a346c"/>
</svg>
