<svg xmlns="http://www.w3.org/2000/svg" width="92" height="92" viewBox="0 0 92 92">
  <g id="Source_wise_report" data-name="Source wise report" transform="translate(0.078 0.078)">
    <rect id="BG" width="92" height="92" transform="translate(-0.078 -0.078)" fill="none"/>
    <g id="Group_4232" data-name="Group 4232" transform="translate(2.691 2.696)">
      <g id="Group_4231" data-name="Group 4231" transform="translate(9.027 9.251)">
        <path id="Path_1717" data-name="Path 1717" d="M155.144,92.332l-.054,1.489.054-17.92s16.593,1.919,16.986,17.849H155.144" transform="translate(-138.987 -74.232)" fill="#57a7dc"/>
        <path id="Path_1713" data-name="Path 1713" d="M80.871,66.6a1.684,1.684,0,0,0-1.686,1.686v3.032A15.535,15.535,0,1,0,96.3,88.467h3.032a1.684,1.684,0,0,0,1.684-1.686A20.156,20.156,0,0,0,80.871,66.6Zm0,32.307a12.15,12.15,0,0,1-1.684-24.181V86.763a1.684,1.684,0,0,0,1.684,1.686H92.908A12.166,12.166,0,0,1,80.871,98.907Zm1.688-13.831h0V70.062A16.81,16.81,0,0,1,97.571,85.077Z" transform="translate(-65.322 -66.6)" fill="#0a346c"/>
      </g>
      <g id="Group_4230" data-name="Group 4230">
        <path id="Path_2175" data-name="Path 2175" d="M299.37,33.83l13.92,13.9H299.37V33.83" transform="translate(-248.358 -30.458)" fill="#57a7dc"/>
        <path id="Path_1711" data-name="Path 1711" d="M99.736,98.1H20.053a1.684,1.684,0,0,1-1.686-1.686V20.107a1.684,1.684,0,0,1,1.686-1.686h43.56V29.555a5.053,5.053,0,0,0,5.059,5.059h11.14V55.386a1.686,1.686,0,1,0,3.372,0h0V32.933a1.7,1.7,0,0,0-.5-1.2L66.5,15.532a1.7,1.7,0,0,0-1.2-.5H20.053A5.091,5.091,0,0,0,15,20.107v76.31a5.053,5.053,0,0,0,5.059,5.059H99.741a1.686,1.686,0,1,0-.005-3.372ZM66.98,20.806l10.44,10.44H68.666A1.684,1.684,0,0,1,66.98,29.56Z" transform="translate(-15 -15.03)" fill="#0a346c"/>
      </g>
      <g id="Group_4229" data-name="Group 4229" transform="translate(9.107 50.425)">
        <path id="Path_1714" data-name="Path 1714" d="M96.665,296.13H67.313c-.843,0-1.543,1.2-1.543,2.709s.682,2.709,1.543,2.709H96.665c.843,0,1.543-1.2,1.543-2.709S97.5,296.13,96.665,296.13Z" transform="translate(-65.77 -296.13)" fill="#57a7dc"/>
        <path id="Path_1714-2" data-name="Path 1714" d="M89.269,388H66.936c-.646,0-1.166,1.2-1.166,2.709s.52,2.709,1.166,2.709H89.269c.646,0,1.166-1.2,1.166-2.709S89.915,388,89.269,388Z" transform="translate(-65.77 -371.52)" fill="#57a7dc"/>
        <path id="Path_1715" data-name="Path 1715" d="M80.049,341.73H67.707c-1.058,0-1.937,1.2-1.937,2.709s.861,2.709,1.937,2.709H80.049c1.058,0,1.937-1.2,1.937-2.709S81.125,341.73,80.049,341.73Z" transform="translate(-65.77 -333.55)" fill="#57a7dc"/>
        <path id="Path_1716" data-name="Path 1716" d="M177.713,342.487a2.707,2.707,0,1,0,.789,1.919,2.707,2.707,0,0,0-.789-1.919Z" transform="translate(-153.837 -333.517)" fill="#0a346c"/>
      </g>
    </g>
    <circle id="Ellipse_25" data-name="Ellipse 25" cx="2.933" cy="2.933" r="2.933" transform="translate(65.206 60.404)" fill="#57a7dc"/>
    <path id="Path_2176" data-name="Path 2176" d="M360.291,374.878h-5.679a2.013,2.013,0,0,0-2.052,1.973v2.578a9.712,9.712,0,0,0,9.778,0v-2.581A2.015,2.015,0,0,0,360.291,374.878Z" transform="translate(-289.316 -307.631)" fill="#57a7dc"/>
    <circle id="Ellipse_26" data-name="Ellipse 26" cx="2.133" cy="2.133" r="2.133" transform="translate(66.006 79.169)" fill="#57a7dc"/>
    <circle id="Ellipse_27" data-name="Ellipse 27" cx="2.133" cy="2.133" r="2.133" transform="translate(66.006 46.839)" fill="#57a7dc"/>
    <circle id="Ellipse_28" data-name="Ellipse 28" cx="2.133" cy="2.133" r="2.133" transform="translate(54.576 74.434)" fill="#57a7dc"/>
    <circle id="Ellipse_29" data-name="Ellipse 29" cx="2.133" cy="2.133" r="2.133" transform="translate(77.437 51.575)" fill="#57a7dc"/>
    <circle id="Ellipse_30" data-name="Ellipse 30" cx="2.133" cy="2.133" r="2.133" transform="translate(49.842 63.003)" fill="#57a7dc"/>
    <circle id="Ellipse_31" data-name="Ellipse 31" cx="2.133" cy="2.133" r="2.133" transform="translate(82.171 63.003)" fill="#57a7dc"/>
    <circle id="Ellipse_32" data-name="Ellipse 32" cx="2.133" cy="2.133" r="2.133" transform="translate(54.576 51.575)" fill="#57a7dc"/>
    <circle id="Ellipse_33" data-name="Ellipse 33" cx="2.133" cy="2.133" r="2.133" transform="translate(77.437 74.434)" fill="#57a7dc"/>
    <path id="Path_2177" data-name="Path 2177" d="M308.268,271.178a17.023,17.023,0,0,0-2.673-6.458,3.229,3.229,0,0,0-.391-4.09,3.322,3.322,0,0,0-4.088-.391,17,17,0,0,0-6.458-2.676,3.229,3.229,0,0,0-6.341,0,17,17,0,0,0-6.458,2.676,3.324,3.324,0,0,0-4.088.391,3.229,3.229,0,0,0-.393,4.092,16.978,16.978,0,0,0-2.675,6.458,3.229,3.229,0,0,0,0,6.341,17,17,0,0,0,2.675,6.458,3.229,3.229,0,0,0,4.485,4.485,17.007,17.007,0,0,0,6.458,2.673,3.229,3.229,0,0,0,6.341,0,16.991,16.991,0,0,0,6.458-2.673,3.229,3.229,0,0,0,4.485-4.485,16.975,16.975,0,0,0,2.675-6.458,3.229,3.229,0,0,0,0-6.341Zm-6.329-9.238a1.349,1.349,0,0,1,.843-.379,1.15,1.15,0,0,1,.136-.027,1.372,1.372,0,0,1,.978.405,1.435,1.435,0,0,1,0,1.959,1.387,1.387,0,0,1-1.957-1.966Zm-11.506-4.626a1.369,1.369,0,1,1-.325.87A1.36,1.36,0,0,1,290.433,257.314Zm-11.357,4.626a1.374,1.374,0,0,1,.979-.407c.048,0,.088.023.135.027a1.365,1.365,0,0,1,.845.38,1.614,1.614,0,0,1,.405,1.076,1.917,1.917,0,0,1-.4,1.076h0V264a1.342,1.342,0,0,1-.967.343,1.421,1.421,0,0,1-.99-2.4Zm-3.754,13.795a1.387,1.387,0,1,1,1.337-1.386A1.387,1.387,0,0,1,275.322,275.735Zm5.717,11.052a1.38,1.38,0,0,1-2.337-1.143,1.1,1.1,0,0,1,.378-.735,1.294,1.294,0,0,1,.978-.3h0a1.289,1.289,0,0,1,.979.3,1.256,1.256,0,0,1,.405.927A1.313,1.313,0,0,1,281.039,286.787Zm11.5,4.6a1.362,1.362,0,1,1,.334-.87,1.36,1.36,0,0,1-.337.87ZM303.9,286.76a1.374,1.374,0,0,1-1.1.368,1.094,1.094,0,0,1-.746-.368,1.294,1.294,0,0,1-.3-.978h0a1.043,1.043,0,0,1,1.168-1.168h0a1.3,1.3,0,0,1,.978.3,1.225,1.225,0,0,1,.378.789,1.256,1.256,0,0,1-.38,1.058Zm.257-3.946a3.369,3.369,0,0,0-2.754.144l-2.784-2.723a10.366,10.366,0,0,1-1.3,1.29l2.732,2.728a3.31,3.31,0,0,0-.158,2.773,15.235,15.235,0,0,1-5.478,2.266,2.736,2.736,0,0,0-2.115-1.86v-2.854c-.273.022-.538.036-.822.036a10.352,10.352,0,0,1-1.232-.077v2.888a3.279,3.279,0,0,0-1.91,1.86,14.71,14.71,0,0,1-5.382-2.267,3.229,3.229,0,0,0-.074-2.771l3.069-3.127a10.1,10.1,0,0,1-1.225-1.222l-3.15,3.136a3.381,3.381,0,0,0-2.757-.106,14.931,14.931,0,0,1-2.275-5.435,3.269,3.269,0,0,0,1.858-1.907h2.9a10.321,10.321,0,0,1-.075-1.231c0-.278.013-.551.034-.822H278.4a2.747,2.747,0,0,0-1.86-2.117,15.361,15.361,0,0,1,2.266-5.518,3.253,3.253,0,0,0,1.247.248,3.213,3.213,0,0,0,1.528-.4l3.1,3.119a10.481,10.481,0,0,1,1.256-1.266l-3.128-3.154a3.218,3.218,0,0,0,.108-2.77,15,15,0,0,1,5.425-2.269,3.268,3.268,0,0,0,1.91,1.86v2.9a10.359,10.359,0,0,1,1.232-.077c.276,0,.549.014.822.036v-2.856a2.744,2.744,0,0,0,2.115-1.86,15.313,15.313,0,0,1,5.489,2.269,3.229,3.229,0,0,0,.179,2.77l-2.712,2.691a10.189,10.189,0,0,1,1.31,1.358l2.707-2.716a3.338,3.338,0,0,0,2.775.156,15.26,15.26,0,0,1,2.266,5.477,2.738,2.738,0,0,0-1.862,2.117h-2.861c.022.271.036.538.036.822a10.331,10.331,0,0,1-.081,1.236h2.9a3.269,3.269,0,0,0,1.86,1.91,14.443,14.443,0,0,1-2.271,5.317Zm4.364-7.409a1.356,1.356,0,0,1-.87.334,1.387,1.387,0,0,1,0-2.771,1.369,1.369,0,0,1,.87,2.438Z" transform="translate(-223.277 -209.212)" fill="#0a346c"/>
    <path id="Path_2178" data-name="Path 2178" d="M336.542,328.974a9.552,9.552,0,1,1,9.552-9.552A9.552,9.552,0,0,1,336.542,328.974Zm0-17.368a7.816,7.816,0,1,0,7.816,7.816A7.816,7.816,0,0,0,336.542,311.606Z" transform="translate(-268.333 -254.284)" fill="#0a346c"/>
  </g>
</svg>
