<svg width="27" height="20" viewBox="0 0 27 20" fill="none" xmlns="http://www.w3.org/2000/svg">
<path d="M23.4142 0H2.66215C1.19383 0 0 1.19383 0 2.66121V17.3397C0 18.8071 1.19477 20 2.66215 20H23.4142C24.8825 20 26.0763 18.8062 26.0763 17.3397V2.66121C26.0763 1.19289 24.8825 0 23.4142 0ZM1.03027 2.66121C1.03027 1.76067 1.76161 1.02933 2.66215 1.02933H23.4142C24.3138 1.02933 25.0461 1.76067 25.0461 2.66121V3.93777H1.03027V2.66121ZM25.0461 6.65257H1.03027V4.96804H25.047V6.65257H25.0461ZM23.4142 18.9707H2.66215C1.76161 18.9707 1.03027 18.2384 1.03027 17.3397V7.6819H25.047V17.3397C25.0461 18.2384 24.3138 18.9707 23.4142 18.9707Z" fill="#7705EA"/>
<path d="M22.7383 12.2617H15.7154C15.4315 12.2617 15.2012 12.492 15.2012 12.7769V15.8489C15.2012 16.1337 15.4315 16.3631 15.7154 16.3631H22.7383C23.0231 16.3631 23.2534 16.1337 23.2534 15.8489V12.7769C23.2534 12.492 23.0231 12.2617 22.7383 12.2617ZM22.2241 15.3337H16.2314V13.2901H22.2241V15.3337Z" fill="#7705EA"/>
<path d="M11.0976 15.3336H3.47021V16.362H11.0976V15.3336Z" fill="#7705EA"/>
<path d="M8.84622 12.3877H3.47021V13.418H8.84622V12.3877Z" fill="#7705EA"/>
</svg>
