<svg width="22" height="22" viewBox="0 0 22 22" fill="none" xmlns="http://www.w3.org/2000/svg">
<path d="M18.8065 13.8384H3.1936V16.3222H6.38715V14.9029H15.613V16.3222H18.8065V13.8384Z" fill="#57A4FF"/>
<path d="M1.77417 7.09668H7.09675V8.87087H1.77417V7.09668Z" fill="#57A4FF"/>
<path d="M4.25806 2.12891H6.38709V5.67729H4.25806V2.12891Z" fill="#57A4FF"/>
<path d="M15.6128 2.12891H17.7418V5.67729H15.6128V2.12891Z" fill="#57A4FF"/>
<path d="M20.7581 5.32258H18.0968V2.12903C18.0968 2.03492 18.0594 1.94467 17.9928 1.87812C17.9263 1.81158 17.836 1.77419 17.7419 1.77419H15.9677V0.354839C15.9677 0.26073 15.9304 0.170475 15.8638 0.10393C15.7973 0.0373847 15.707 0 15.6129 0H6.3871C6.29299 0 6.20273 0.0373847 6.13619 0.10393C6.06964 0.170475 6.03226 0.26073 6.03226 0.354839V1.77419H4.25806C4.16396 1.77419 4.0737 1.81158 4.00716 1.87812C3.94061 1.94467 3.90323 2.03492 3.90323 2.12903V5.32258H1.24194C0.912665 5.32294 0.596986 5.45391 0.364156 5.68674C0.131327 5.91957 0.000363945 6.23525 0 6.56452V15.4355C0.000363945 15.7648 0.131327 16.0804 0.364156 16.3133C0.596986 16.5461 0.912665 16.6771 1.24194 16.6774H6.03226V21.6452C6.03226 21.7393 6.06964 21.8295 6.13619 21.8961C6.20273 21.9626 6.29299 22 6.3871 22H15.6129C15.707 22 15.7973 21.9626 15.8638 21.8961C15.9304 21.8295 15.9677 21.7393 15.9677 21.6452V16.6774H20.7581C21.0873 16.6771 21.403 16.5461 21.6358 16.3133C21.8687 16.0804 21.9996 15.7648 22 15.4355V6.56452C21.9996 6.23525 21.8687 5.91957 21.6358 5.68674C21.403 5.45391 21.0873 5.32294 20.7581 5.32258ZM15.9677 2.48387H17.3871V5.32258H15.9677V2.48387ZM6.74194 0.709677H15.2581V5.32258H6.74194V0.709677ZM4.6129 2.48387H6.03226V5.32258H4.6129V2.48387ZM15.2581 21.2903H6.74194V15.2581H15.2581V21.2903ZM18.4516 15.9677H15.9677V15.2581H16.6774C16.7715 15.2581 16.8618 15.2207 16.9283 15.1541C16.9949 15.0876 17.0323 14.9973 17.0323 14.9032C17.0323 14.8091 16.9949 14.7189 16.9283 14.6523C16.8618 14.5858 16.7715 14.5484 16.6774 14.5484H5.32258C5.22847 14.5484 5.13822 14.5858 5.07167 14.6523C5.00513 14.7189 4.96774 14.8091 4.96774 14.9032C4.96774 14.9973 5.00513 15.0876 5.07167 15.1541C5.13822 15.2207 5.22847 15.2581 5.32258 15.2581H6.03226V15.9677H3.54839V14.1935H18.4516V15.9677ZM21.2903 15.4355C21.2902 15.5766 21.2341 15.7119 21.1343 15.8117C21.0345 15.9115 20.8992 15.9676 20.7581 15.9677H19.1613V13.8387C19.1613 13.7446 19.1239 13.6543 19.0574 13.5878C18.9908 13.5213 18.9006 13.4839 18.8065 13.4839H3.19355C3.09944 13.4839 3.00918 13.5213 2.94264 13.5878C2.87609 13.6543 2.83871 13.7446 2.83871 13.8387V15.9677H1.24194C1.10081 15.9676 0.965494 15.9115 0.865702 15.8117C0.76591 15.7119 0.709795 15.5766 0.709677 15.4355V6.56452C0.709795 6.42339 0.76591 6.28807 0.865702 6.18828C0.965494 6.08849 1.10081 6.03238 1.24194 6.03226H20.7581C20.8992 6.03238 21.0345 6.08849 21.1343 6.18828C21.2341 6.28807 21.2902 6.42339 21.2903 6.56452V15.4355Z" fill="#004FAC"/>
<path d="M7.09685 6.7417H1.77427C1.68016 6.7417 1.58991 6.77908 1.52336 6.84563C1.45682 6.91217 1.41943 7.00243 1.41943 7.09654V8.87073C1.41943 8.96484 1.45682 9.0551 1.52336 9.12164C1.58991 9.18819 1.68016 9.22557 1.77427 9.22557H7.09685C7.19096 9.22557 7.28122 9.18819 7.34776 9.12164C7.41431 9.0551 7.45169 8.96484 7.45169 8.87073V7.09654C7.45169 7.00243 7.41431 6.91217 7.34776 6.84563C7.28122 6.77908 7.19096 6.7417 7.09685 6.7417ZM6.74201 8.51589H2.12911V7.45138H6.74201V8.51589Z" fill="#004FAC"/>
</svg>
