<svg width="17" height="16" viewBox="0 0 17 16" fill="none" xmlns="http://www.w3.org/2000/svg">
<path d="M4.77906 1.24839C4.21199 0.798016 3.49967 0.570787 2.77654 0.609594C2.05342 0.6484 1.36951 0.950557 0.853895 1.45904C0.342533 1.97378 0.039675 2.65951 0.00363094 3.38418C-0.0324132 4.10886 0.200905 4.82125 0.658664 5.3842C1.48302 3.55008 2.94803 2.07959 4.77906 1.24839Z" fill="#797979"/>
<path d="M8.60115 4.36705C8.60115 4.24442 8.55244 4.12681 8.46572 4.04009C8.37901 3.95338 8.2614 3.90466 8.13876 3.90466C8.01613 3.90466 7.89852 3.95338 7.81181 4.04009C7.72509 4.12681 7.67638 4.24442 7.67638 4.36705V8.99094L11.3036 10.7891C11.4139 10.8429 11.5412 10.8507 11.6573 10.8107C11.7734 10.7707 11.8688 10.6863 11.9226 10.5759C11.9765 10.4655 11.9842 10.3383 11.9443 10.2222C11.9043 10.1061 11.8198 10.0106 11.7094 9.95681L8.59602 8.41552L8.60115 4.36705Z" fill="#797979"/>
<path d="M13.297 13.7586C14.238 12.8053 14.8918 11.6064 15.1834 10.2989C15.4751 8.99152 15.3928 7.62841 14.9461 6.36553C14.5882 6.42883 14.2227 6.43749 13.8621 6.39122C14.4035 7.70915 14.4717 9.17393 14.0552 10.5365C13.6386 11.899 12.7629 13.0752 11.5771 13.8651C10.3913 14.6549 8.96845 15.0097 7.5506 14.869C6.13276 14.7283 4.80741 14.1009 3.79992 13.0934C2.79244 12.0859 2.165 10.7605 2.02431 9.34269C1.88363 7.92485 2.23837 6.50204 3.02822 5.31621C3.81807 4.13037 4.99428 3.25472 6.35682 2.83814C7.71937 2.42157 9.18414 2.48978 10.5021 3.0312C10.4826 2.87782 10.4723 2.72341 10.4712 2.56881C10.4733 2.3604 10.4922 2.15251 10.5278 1.94715C8.99289 1.41943 7.32464 1.42635 5.7942 1.96678C4.26375 2.50722 2.96107 3.54939 2.09791 4.9239C1.23475 6.29841 0.861842 7.92446 1.03981 9.53773C1.21778 11.151 1.93615 12.6567 3.07817 13.81L1.76807 15.1201C1.67201 15.2182 1.61885 15.3504 1.6203 15.4877C1.62174 15.625 1.67767 15.7561 1.77578 15.8522C1.87388 15.9483 2.00613 16.0014 2.14343 16C2.28073 15.9985 2.41183 15.9426 2.50789 15.8445L3.87451 14.4779C5.12426 15.4236 6.65041 15.9319 8.21764 15.9245C9.78487 15.9171 11.3061 15.3943 12.5469 14.4368L13.9546 15.8445C14.0529 15.9287 14.1793 15.9726 14.3086 15.9677C14.4379 15.9627 14.5605 15.9091 14.652 15.8176C14.7435 15.7261 14.7971 15.6034 14.8021 15.4741C14.8071 15.3448 14.7632 15.2184 14.679 15.1201L13.297 13.7586Z" fill="#797979"/>
<path d="M14.3247 5.13765C15.7434 5.13765 16.8935 3.98755 16.8935 2.56883C16.8935 1.1501 15.7434 0 14.3247 0C12.906 0 11.7559 1.1501 11.7559 2.56883C11.7559 3.98755 12.906 5.13765 14.3247 5.13765Z" fill="#797979"/>
</svg>
