<svg width="20" height="19" viewBox="0 0 20 19" fill="none" xmlns="http://www.w3.org/2000/svg">
<path d="M9.69565 14.9275C9.69565 14.9275 8.82608 13.7218 6.28405 13.7218C3.60869 13.7218 1 14.9275 1 14.9275V2.10727C1 2.10727 4.22898 0.994225 6.28405 1.00002C7.55337 1.03505 8.76635 1.53178 9.69565 2.39712V14.9275Z" stroke="#334D6E" stroke-width="1.5" stroke-linecap="round" stroke-linejoin="round"/>
<path d="M9.69568 14.9275C9.69568 14.9275 10.5652 13.7218 13.1073 13.7218C15.7826 13.7218 18.3913 14.9275 18.3913 14.9275V2.10727C18.3913 2.10727 15.1623 0.994225 13.1073 1.00002C11.838 1.03505 10.625 1.53178 9.69568 2.39712V14.9275Z" stroke="#334D6E" stroke-width="1.5" stroke-linecap="round" stroke-linejoin="round"/>
<path d="M18.3739 18C18.3739 18 11.7072 15.0116 9.71304 18H9.67826C7.69275 15.0116 1.0174 18 1.0174 18" stroke="#334D6E" stroke-width="1.5" stroke-linecap="round" stroke-linejoin="round"/>
</svg>
