<svg width="21" height="21" viewBox="0 0 21 21" fill="none" xmlns="http://www.w3.org/2000/svg">
<path d="M10.4976 15.7559L11.7984 17.0566H7.88086V7.88086H11.8066V11.8066H10.5059V9.1875H10.5V9.18164H9.1875V9.1875H9.18164V15.75H9.1875V15.7559H10.4976ZM18.3691 17.6367V20.9941H14.4434V17.6367H14.4453L14.4419 17.6328L11.8184 14.6814V13.1309H20.9941V14.6814L18.3706 17.6328L18.3691 17.6315V17.6367ZM19.4575 14.4336L19.4553 14.4316H13.3506V14.4375V14.4434V14.4463L15.7441 17.1468V19.6875H15.75V19.6934H17.0625V19.6875H17.0684V17.1468L19.4663 14.4414L19.4619 14.4375L19.4575 14.4336ZM14.4316 3.9375V11.8066H13.1309V2.63086H17.0566V11.8066H15.7559V3.9375H15.75V3.93164H14.4375V3.9375H14.4316ZM6.55664 5.25586V17.0566H2.63086V5.25586H6.55664ZM5.25586 15.75V6.5625H5.25V6.55664H3.9375V6.5625H3.93164V15.75H3.9375V15.7559H5.25V15.75H5.25586ZM1.30664 1.31836V18.375H1.3125V18.3809H13.1191V19.6816H0.00585938V1.31836H1.30664Z" fill="#334D6E" stroke="black" stroke-width="0.0117188"/>
</svg>
