<svg width="25" height="21" viewBox="0 0 25 21" fill="none" xmlns="http://www.w3.org/2000/svg">
<path d="M1.89436 10.8546L1.89463 10.8547L7.9918 13.9033L7.99883 13.9069L8.00596 13.9101C8.70411 14.2322 9.46572 14.3931 10.2344 14.381C11.007 14.3927 11.7724 14.2307 12.4741 13.907L12.4812 13.9037L12.4882 13.9002L22.925 8.68179C23.7421 8.27324 24.3165 7.57621 24.3165 6.71863C24.3165 5.86194 23.7419 5.16497 22.925 4.75649L16.8383 1.7131L16.8275 1.70773L16.8165 1.70287C16.1134 1.39263 15.3534 1.23239 14.5849 1.23239C13.8164 1.23239 13.0563 1.39263 12.3532 1.70287L12.3422 1.70773L12.3315 1.7131L1.89462 6.93153L1.86682 6.94543L1.85967 6.9502C1.05909 7.35948 0.5 8.047 0.5 8.89261C0.5 9.74889 1.07319 10.4434 1.89436 10.8546ZM3.54447 8.89315L13.4308 3.95048C13.7971 3.80079 14.1891 3.72376 14.5849 3.72376C14.9807 3.72376 15.3726 3.80079 15.7389 3.95048L21.2762 6.71915L11.3813 11.6661C11.017 11.8154 10.6269 11.892 10.233 11.8915C9.8389 11.8911 9.44879 11.8135 9.08461 11.6632L3.54447 8.89315Z" fill="#334D6E" stroke="white"/>
<path d="M22.484 9.40259H22.4994C22.6107 9.3607 22.7276 9.33487 22.8467 9.32606C23.0101 9.31398 23.1743 9.33423 23.3299 9.38566C23.4855 9.43709 23.6294 9.51869 23.7535 9.62579L23.7535 9.62579C23.8775 9.7329 23.9792 9.8634 24.0528 10.0098L24.0528 10.0098C24.1264 10.1563 24.1703 10.3158 24.1822 10.4792C24.1941 10.6427 24.1736 10.8069 24.122 10.9624C24.0703 11.1179 23.9886 11.2618 23.8813 11.3857C23.7741 11.5094 23.6437 11.6109 23.4973 11.6842L22.484 9.40259ZM22.484 9.40259L22.3781 9.45574L22.484 9.40259ZM22.6005 9.89859V9.89859V9.89859ZM13.4614 16.7225L23.4968 11.6845L22.3774 9.45609L12.3442 14.4935C12.3441 14.4936 12.344 14.4937 12.3438 14.4937C11.7017 14.8142 10.9935 14.9801 10.2758 14.9781C9.55816 14.9762 8.85094 14.8065 8.21058 14.4825C8.21039 14.4824 8.2102 14.4823 8.21001 14.4822L2.44292 11.5466L2.44277 11.5466C2.29687 11.4724 2.13779 11.4276 1.9746 11.4149C1.81141 11.4022 1.64732 11.4217 1.49168 11.4724C1.33605 11.5231 1.19192 11.604 1.06753 11.7104C0.943146 11.8168 0.840931 11.9466 0.766726 12.0925L1.2124 12.3192L0.766726 12.0925C0.692522 12.2384 0.647781 12.3975 0.635058 12.5607C0.622335 12.7239 0.641878 12.888 0.692573 13.0436C0.743267 13.1992 0.82412 13.3434 0.930514 13.4677C1.03687 13.5921 1.16668 13.6943 1.31251 13.7685C1.31256 13.7685 1.31261 13.7685 1.31266 13.7685L7.08067 16.7046L7.0818 16.7052C8.07003 17.2051 9.16143 17.467 10.2689 17.4701C11.3763 17.4732 12.4692 17.2174 13.4602 16.7231L13.4614 16.7225Z" fill="#334D6E" stroke="white"/>
<path d="M23.273 14.4317L23.4973 14.8786L23.497 14.8787C23.4969 14.8788 23.4969 14.8788 23.4968 14.8788L14.0788 19.6076L14.0777 19.6082C12.8952 20.1982 11.5911 20.5036 10.2696 20.5C8.94804 20.4963 7.64567 20.1837 6.46644 19.5872L6.46533 19.5866L1.31266 16.9639C1.31261 16.9639 1.31257 16.9639 1.31252 16.9639C1.16668 16.8897 1.03688 16.7875 0.930515 16.6631C0.824121 16.5388 0.743267 16.3946 0.692572 16.239C0.641877 16.0834 0.622335 15.9193 0.635058 15.7561C0.647781 15.5929 0.692522 15.4338 0.766726 15.2879C0.840931 15.142 0.943145 15.0122 1.06753 14.9058L1.39253 15.2857L1.06753 14.9058C1.19192 14.7994 1.33605 14.7185 1.49168 14.6678C1.64732 14.6171 1.81141 14.5976 1.9746 14.6103C2.13779 14.623 2.29687 14.6678 2.44277 14.742L2.4429 14.742L7.59498 17.3644C7.59512 17.3645 7.59527 17.3646 7.59542 17.3646C8.42635 17.7857 9.34436 18.0064 10.2759 18.0089C11.2075 18.0114 12.1268 17.7957 12.96 17.3789C12.9601 17.3789 12.9602 17.3789 12.9603 17.3788L22.3774 12.6504L23.606 13.4286C23.6501 13.5164 23.6764 13.6119 23.6835 13.7098C23.6906 13.8077 23.6784 13.9061 23.6474 13.9992C23.6165 14.0924 23.5675 14.1785 23.5033 14.2528C23.439 14.327 23.3608 14.3878 23.273 14.4317ZM23.273 14.4317L13.8545 19.1608L23.273 14.4317ZM24.0528 13.2042C23.9792 13.0578 23.8775 12.9273 23.7535 12.8202C23.7535 12.8202 23.7535 12.8202 23.7535 12.8201L24.0528 13.2042ZM22.4994 12.5969H22.484L22.3781 12.6501L22.4994 12.5969Z" fill="#334D6E" stroke="white"/>
<path d="M9.73262 9.98019L9.7397 9.98373L9.7469 9.98704C10.5804 10.3713 11.4896 10.5631 12.4071 10.5484C13.2878 10.5626 14.1607 10.3867 14.9664 10.033H14.9783L15.084 9.9801C15.7198 9.66188 16.1196 9.26812 16.3568 8.86286C16.5925 8.45992 16.6492 8.07702 16.6492 7.80566C16.6492 7.53466 16.5925 7.15195 16.3565 6.74915C16.1192 6.34404 15.7191 5.95033 15.0828 5.63217C14.3091 5.24508 13.346 5.06372 12.407 5.064C11.4679 5.06427 10.5052 5.24623 9.73199 5.63196L9.73141 5.63225C9.09557 5.95047 8.69579 6.34421 8.45868 6.74928C8.22293 7.15203 8.1662 7.53467 8.1662 7.80566C8.1662 8.07704 8.22287 8.46001 8.45884 8.863C8.69615 9.2683 9.09628 9.66202 9.73262 9.98019ZM12.419 7.55173C12.9022 7.54129 13.382 7.62738 13.8305 7.80431C13.3759 7.97358 12.8943 8.06051 12.4082 8.06051C11.9218 8.06051 11.4399 7.97345 10.985 7.80396C11.4339 7.62727 11.914 7.54131 12.3974 7.55173L12.4082 7.55196L12.419 7.55173Z" fill="#334D6E" stroke="white"/>
</svg>
