<svg width="21" height="21" viewBox="0 0 21 21" fill="none" xmlns="http://www.w3.org/2000/svg">
<g clip-path="url(#clip0)">
<path d="M16.6831 6.5625L21 10.8794V21H9.1875V6.5625H16.6831ZM17.0625 10.5H18.7544L17.0625 8.80811V10.5ZM19.6875 19.6875V11.8125H15.75V7.875H10.5V19.6875H19.6875ZM6.23438 1.3125C6.54199 1.3125 6.80518 1.34326 7.02393 1.40479C7.24268 1.46631 7.44092 1.54834 7.61865 1.65088C7.79639 1.75342 7.95361 1.85938 8.09033 1.96875C8.22705 2.07812 8.36377 2.18408 8.50049 2.28662C8.63721 2.38916 8.7876 2.46777 8.95166 2.52246C9.11572 2.57715 9.30371 2.61133 9.51562 2.625H19.6875C19.8721 2.625 20.043 2.65918 20.2002 2.72754C20.3574 2.7959 20.4941 2.88818 20.6104 3.00439C20.7266 3.12061 20.8223 3.26074 20.8975 3.4248C20.9727 3.58887 21.0068 3.75977 21 3.9375V8.56201L19.6875 7.24951V3.9375H9.51562C9.30371 3.9375 9.11914 3.96826 8.96191 4.02979C8.80469 4.09131 8.6543 4.17334 8.51074 4.27588C8.36719 4.37842 8.22705 4.48438 8.09033 4.59375C7.95361 4.70312 7.7998 4.80908 7.62891 4.91162C7.45801 5.01416 7.25977 5.09277 7.03418 5.14746C6.80859 5.20215 6.54199 5.23633 6.23438 5.25H1.3125V17.0625H7.875V18.375H0V2.625C0 2.44043 0.0341797 2.26953 0.102539 2.1123C0.170898 1.95508 0.263184 1.81836 0.379395 1.70215C0.495605 1.58594 0.635742 1.49023 0.799805 1.41504C0.963867 1.33984 1.13477 1.30566 1.3125 1.3125H6.23438ZM6.23438 3.9375C6.39844 3.9375 6.54199 3.92383 6.66504 3.89648C6.78809 3.86914 6.90088 3.82471 7.00342 3.76318C7.10596 3.70166 7.20508 3.6333 7.30078 3.55811C7.39648 3.48291 7.50586 3.39062 7.62891 3.28125C7.5127 3.17871 7.40674 3.08984 7.31104 3.01465C7.21533 2.93945 7.11279 2.87109 7.00342 2.80957C6.89404 2.74805 6.78125 2.70361 6.66504 2.67627C6.54883 2.64893 6.40527 2.63184 6.23438 2.625H1.3125V3.9375H6.23438Z" fill="#334D6E"/>
</g>
<defs>
<clipPath id="clip0">
<rect width="21" height="21" fill="white"/>
</clipPath>
</defs>
</svg>
