<svg width="23" height="20" viewBox="0 0 23 20" fill="none" xmlns="http://www.w3.org/2000/svg">
<path d="M12.0202 8.39977L12.0202 8.40069L12.0298 8.39977C12.1637 8.38699 12.2987 8.40396 12.4253 8.44946C12.5519 8.49497 12.6669 8.56789 12.762 8.66301C12.8571 8.75813 12.93 8.87309 12.9755 8.99968C13.021 9.12626 13.038 9.26134 13.0252 9.39525L13.0243 9.39516L13.0252 9.40475C13.038 9.53866 13.021 9.67374 12.9755 9.80032C12.93 9.92691 12.8571 10.0419 12.762 10.137C12.6669 10.2321 12.5519 10.305 12.4253 10.3505C12.2987 10.396 12.1637 10.413 12.0298 10.4002L12.0298 10.3993L12.0202 10.4002C11.8863 10.413 11.7513 10.396 11.6247 10.3505C11.4981 10.305 11.3831 10.2321 11.288 10.137C11.1929 10.0419 11.12 9.92691 11.0745 9.80032C11.029 9.67374 11.012 9.53866 11.0248 9.40475L11.0257 9.40484L11.0248 9.39525C11.012 9.26134 11.029 9.12626 11.0745 8.99968C11.12 8.87309 11.1929 8.75813 11.288 8.66301C11.3831 8.56789 11.4981 8.49497 11.6247 8.44946C11.7513 8.40396 11.8863 8.38699 12.0202 8.39977ZM15.7 17.325H15.75V17.275V15.175C15.75 14.5799 15.6121 13.778 15.0071 13.1248C14.4015 12.4709 13.336 11.975 11.5 11.975C10.4266 11.975 9.65338 11.6943 9.01437 10.957C8.37145 10.2151 7.86087 9.00727 7.32813 7.14189L7.32811 7.14184L7.21891 6.76121L7.20852 6.725H7.17085H5.2H5.15V6.775V7.3C5.15 8.74613 5.43986 10.361 6.04656 11.7731C6.6487 13.1745 7.56509 14.3808 8.825 15.02V17.275V17.325H8.875H9.925H9.975V17.275V14.2946V14.2607L9.94359 14.2482L9.61338 14.1159C9.61338 14.1159 9.61337 14.1159 9.61337 14.1159C8.60047 13.7098 7.80911 12.7925 7.25346 11.645C6.70555 10.5134 6.38957 9.1634 6.31644 7.875H6.344C6.84923 9.56283 7.39517 10.8723 8.18304 11.7613C8.97938 12.6598 10.0194 13.125 11.5 13.125C13.0678 13.125 13.838 13.5184 14.2183 13.9628C14.5992 14.4079 14.6 14.916 14.6 15.175V17.275V17.325H14.65H15.7ZM20.95 0.95H2.05C1.75826 0.95 1.47847 1.06589 1.27218 1.27218C1.06589 1.47847 0.95 1.75826 0.95 2.05V18.85C0.95 19.1417 1.06589 19.4215 1.27218 19.6278C1.47847 19.8341 1.75826 19.95 2.05 19.95H20.95C21.2417 19.95 21.5215 19.8341 21.7278 19.6278C21.9341 19.4215 22.05 19.1417 22.05 18.85V2.05C22.05 1.75826 21.9341 1.47847 21.7278 1.27218C21.5215 1.06589 21.2417 0.95 20.95 0.95ZM20.9 4.1H2.1V2.1H20.9V4.1ZM2.1 18.8V5.25H20.9V18.8H2.1ZM3.1469 2.78055C3.08372 2.87511 3.05 2.98628 3.05 3.1C3.05 3.2525 3.11058 3.39875 3.21841 3.50659C3.32625 3.61442 3.4725 3.675 3.625 3.675C3.73872 3.675 3.84989 3.64128 3.94445 3.57809C4.03901 3.51491 4.11271 3.42511 4.15623 3.32004C4.19975 3.21498 4.21114 3.09936 4.18895 2.98782C4.16676 2.87628 4.112 2.77383 4.03159 2.69341C3.95117 2.613 3.84872 2.55823 3.73718 2.53605C3.62564 2.51386 3.51002 2.52525 3.40496 2.56877C3.29989 2.61229 3.21009 2.68599 3.1469 2.78055ZM5.2469 2.78055C5.18372 2.87511 5.15 2.98628 5.15 3.1C5.15 3.2525 5.21058 3.39875 5.31841 3.50659C5.42625 3.61442 5.5725 3.675 5.725 3.675C5.83872 3.675 5.94989 3.64128 6.04445 3.57809C6.13901 3.51491 6.21271 3.42511 6.25623 3.32004C6.29975 3.21498 6.31114 3.09936 6.28895 2.98782C6.26677 2.87628 6.212 2.77383 6.13159 2.69341C6.05117 2.613 5.94872 2.55823 5.83718 2.53605C5.72564 2.51386 5.61002 2.52525 5.50496 2.56877C5.39989 2.61229 5.31009 2.68599 5.2469 2.78055ZM11.1847 11.4202C11.4525 11.5221 11.7389 11.5664 12.025 11.5501C12.3111 11.5664 12.5975 11.5221 12.8653 11.4202C13.1341 11.3179 13.3782 11.1599 13.5816 10.9566C13.7849 10.7532 13.9429 10.5091 14.0452 10.2403C14.1471 9.97247 14.1914 9.68612 14.1751 9.4C14.1914 9.11388 14.1471 8.82753 14.0452 8.55966C13.9429 8.29088 13.7849 8.04679 13.5816 7.84344C13.3782 7.64009 13.1341 7.48209 12.8653 7.37982C12.5975 7.2779 12.3111 7.23364 12.025 7.24992C11.7389 7.23364 11.4525 7.2779 11.1847 7.37982C10.9159 7.48209 10.6718 7.64009 10.4684 7.84344C10.2651 8.04679 10.1071 8.29088 10.0048 8.55966C9.9029 8.82753 9.85864 9.11388 9.87492 9.4C9.85864 9.68612 9.9029 9.97247 10.0048 10.2403C10.1071 10.5091 10.2651 10.7532 10.4684 10.9566C10.6718 11.1599 10.9159 11.3179 11.1847 11.4202Z" fill="#334D6E" stroke="#334D6E" stroke-width="0.1"/>
</svg>
