<svg width="21" height="24" viewBox="0 0 21 24" fill="none" xmlns="http://www.w3.org/2000/svg">
<path d="M2.76623 20.9806L4.70522 20.8453V22.5525C4.70522 22.8334 4.93459 23.089 5.24176 23.089H19.5135C19.7944 23.089 20.05 22.8596 20.05 22.5525V4.52749H20.0508L20.0492 4.51855C19.9994 4.24492 19.7741 4.01413 19.4903 4.01413H16.4092L16.2272 1.44427C16.2265 1.30996 16.1468 1.18281 16.0504 1.08639C15.9483 0.984249 15.7945 0.930893 15.661 0.95624L1.43866 1.95227L1.43866 1.95226L1.438 1.95232C1.28734 1.96487 1.15897 2.02804 1.0714 2.12859C0.983772 2.2292 0.939568 2.36431 0.952095 2.51565C0.952104 2.51577 0.952114 2.51588 0.952124 2.516L2.20315 20.494L2.20325 20.495C2.22882 20.7763 2.45952 20.9807 2.73958 20.9807H2.76275V20.9808L2.76623 20.9806ZM3.20301 19.8808L2.02836 2.95211L15.204 2.03234L15.336 3.99096H5.19542C4.91451 3.99096 4.65889 4.22033 4.65889 4.52749V19.7722L3.20301 19.8808ZM18.9769 22.0159H5.75513V5.06403H18.9769V22.0159Z" fill="#334D6E" stroke="#334D6E" stroke-width="0.1"/>
<path d="M14.3932 18.6127L13.8262 18.0457C13.6213 17.8408 13.2884 17.8408 13.0836 18.0457C12.8787 18.2505 12.8787 18.5834 13.0836 18.7883L14.0335 19.7382C14.1361 19.8408 14.265 19.8918 14.4164 19.8918C14.5433 19.8918 14.6958 19.8416 14.7992 19.7382L16.699 17.8384C16.9039 17.6335 16.9039 17.3006 16.699 17.0958L16.6993 17.0955L16.6949 17.0921C16.4473 16.894 16.1169 16.889 15.9101 17.0958L14.3932 18.6127Z" fill="#334D6E" stroke="#334D6E" stroke-width="0.1"/>
<path d="M7.92922 8.44657H11.613C11.8939 8.44657 12.1495 8.2172 12.1495 7.91004C12.1495 7.62913 11.9202 7.3735 11.613 7.3735H7.92922C7.64831 7.3735 7.39269 7.60287 7.39269 7.91004C7.39269 8.21567 7.62359 8.44657 7.92922 8.44657Z" fill="#334D6E" stroke="#334D6E" stroke-width="0.1"/>
<path d="M7.92922 10.694H16.8027C17.0836 10.694 17.3392 10.4646 17.3392 10.1574C17.3392 9.87653 17.1099 9.6209 16.8027 9.6209H7.92922C7.64831 9.6209 7.39269 9.85027 7.39269 10.1574C7.39269 10.4631 7.62359 10.694 7.92922 10.694Z" fill="#334D6E" stroke="#334D6E" stroke-width="0.1"/>
<path d="M7.92922 12.9413H16.8027C17.0836 12.9413 17.3392 12.7119 17.3392 12.4047C17.3392 12.1238 17.1099 11.8682 16.8027 11.8682H7.92922C7.64831 11.8682 7.39269 12.0976 7.39269 12.4047C7.39269 12.7104 7.62359 12.9413 7.92922 12.9413Z" fill="#334D6E" stroke="#334D6E" stroke-width="0.1"/>
<path d="M7.92922 15.1887H16.8027C17.0836 15.1887 17.3392 14.9593 17.3392 14.6521C17.3392 14.3712 17.1099 14.1156 16.8027 14.1156H7.92922C7.64831 14.1156 7.39269 14.345 7.39269 14.6521C7.39269 14.9578 7.62359 15.1887 7.92922 15.1887Z" fill="#334D6E" stroke="#334D6E" stroke-width="0.1"/>
</svg>
