<svg width="10" height="12" viewBox="0 0 10 12" fill="none" xmlns="http://www.w3.org/2000/svg">
<path d="M9.47085 9.66816C9.47085 9.8296 9.34529 9.95516 9.16592 9.95516H2.52915C2.1704 9.95516 1.84753 10.0987 1.61435 10.3318L1.59641 10.3498C1.38117 10.565 1.23767 10.87 1.21973 11.1928C1.41704 11.3184 1.65022 11.3901 1.90135 11.3901H8.86099V10.5112C8.86099 10.3498 9.00448 10.2063 9.16592 10.2063C9.34529 10.2063 9.47085 10.3498 9.47085 10.5112V11.6951C9.47085 11.8565 9.34529 12 9.16592 12H1.90135C1.38117 12 0.914798 11.7848 0.573991 11.4439H0.556054C0.215247 11.0852 0 10.6188 0 10.0987V2.95964C0 2.4574 0.197309 2.00897 0.502242 1.6861C0.753363 1.3991 1.07623 1.20179 1.45291 1.11211V0.304933C1.45291 0.143498 1.57848 0 1.75785 0H4C4.17937 0 4.30493 0.143498 4.30493 0.304933V1.0583H9.16592C9.34529 1.0583 9.47085 1.20179 9.47085 1.36323V9.66816ZM8.86099 9.36323V1.66816H4.30493V7.98206C4.30493 8.1435 4.17937 8.287 4 8.287C3.91031 8.287 3.82063 8.23318 3.76682 8.16144L2.88789 7.15695L1.97309 8.17937C1.86547 8.30493 1.6861 8.32287 1.56054 8.21525C1.48879 8.1435 1.45291 8.07175 1.45291 7.98206V1.73991C1.25561 1.81166 1.09417 1.93722 0.950673 2.08072C0.735426 2.3139 0.609865 2.61883 0.609865 2.95964V10.0987C0.609865 10.278 0.64574 10.4574 0.717489 10.6188C0.825112 10.3498 0.96861 10.1166 1.16592 9.91928L1.18386 9.90135C1.5426 9.56054 2.00897 9.36323 2.52915 9.36323H8.86099ZM3.69507 0.609865H2.06278V7.17489L2.65471 6.49327L2.69058 6.4574C2.81614 6.34978 2.99552 6.36771 3.12108 6.49327L3.69507 7.17489V0.609865Z" fill="#634E4E"/>
</svg>
