<svg width="10" height="12" viewBox="0 0 10 12" fill="none" xmlns="http://www.w3.org/2000/svg">
<g clip-path="url(#clip0)">
<path d="M0.364223 11.7932L0.364223 11.7932L0.704382 11.9823L0.724414 12.0281L0.724493 12.0281L4.03581 10.5801L4.03592 10.5801C4.12902 10.5391 4.18929 10.447 4.18944 10.3452V10.3452V9.13835C4.30939 9.14793 4.43065 9.1533 4.55326 9.1533C4.67588 9.1533 4.79715 9.14793 4.91709 9.13835V10.3452V10.3453C4.91733 10.4472 4.97776 10.5393 5.07111 10.5801C5.07112 10.5801 5.07113 10.5801 5.07113 10.5801L8.38081 12.0281C8.55046 12.1026 8.7408 11.9785 8.74109 11.7932V11.7932V6.45709C9.00617 5.8762 9.15492 5.2312 9.15492 4.55165C9.15492 2.01246 7.09246 -0.05 4.55326 -0.05C2.01409 -0.05 -0.05 2.01243 -0.05 4.55165C-0.05 5.23105 0.0991038 5.87593 0.364223 6.45668L0.364223 11.7932ZM4.33657 1.55455H4.34997L7.58272 3.51077L4.81984 1.46437L4.81987 1.46433L4.818 1.46307C4.76199 1.42538 4.70562 1.40353 4.64591 1.40358C4.58624 1.40363 4.52985 1.42554 4.47378 1.46296L4.33657 1.55455ZM2.9585 4.84645L4.49446 5.98324L4.4945 5.98327C4.54939 6.0238 4.60748 6.04688 4.66868 6.04686C4.72986 6.04685 4.78793 6.02377 4.84278 5.98332C5.24321 5.68857 5.64361 5.39178 6.04372 5.0952C6.15087 5.01577 6.258 4.93636 6.3651 4.85702V6.29584C6.3651 6.42371 6.33867 6.48583 6.29842 6.51952C6.25568 6.5553 6.18402 6.57117 6.06229 6.57117H3.26131C3.16464 6.57117 3.09024 6.54457 3.04025 6.49964C2.99095 6.45534 2.95987 6.38829 2.9585 6.2955V4.84645ZM5.43135 9.06796C6.56783 8.84776 7.55532 8.20931 8.2273 7.319V11.4003L5.43135 10.1763V9.06796ZM4.55326 0.463818C6.81358 0.463818 8.64109 2.29133 8.64109 4.55165C8.64109 6.81197 6.81358 8.63948 4.55326 8.63948C2.29292 8.63948 0.464223 6.81195 0.464223 4.55165C0.464223 2.29135 2.29292 0.463818 4.55326 0.463818ZM2.29423 3.7163L4.64665 1.97453L7.02169 3.73288L4.66928 5.47309L2.29423 3.7163ZM3.67565 10.1763L0.878077 11.4003V7.31855C1.55048 8.20922 2.53864 8.8478 3.67565 9.06796V10.1763Z" fill="#634E4E" stroke="black" stroke-width="0.1"/>
</g>
<defs>
<clipPath id="clip0">
<rect width="9.10492" height="12" fill="white"/>
</clipPath>
</defs>
</svg>
