<svg width="558" height="201" viewBox="0 0 558 201" fill="none" xmlns="http://www.w3.org/2000/svg">
<g filter="url(#filter0_d)">
<rect x="155.5" y="131.5" width="290" height="55" rx="1.5" stroke="#DADCE0" shape-rendering="crispEdges"/>
</g>
<path fill-rule="evenodd" clip-rule="evenodd" d="M293 53.5L289.999 55.2494L287 57V50L293 53.5Z" fill="#F8F7F5"/>
<path fill-rule="evenodd" clip-rule="evenodd" d="M313 54C313 55.1045 312.104 56 311 56C309.896 56 309 55.1045 309 54C309 52.8955 309.896 52 311 52C312.104 52 313 52.8955 313 54Z" fill="#F8F7F5"/>
<path fill-rule="evenodd" clip-rule="evenodd" d="M436 38.5005C436 39.3284 435.328 40 434.5 40C433.672 40 433 39.3284 433 38.5005C433 37.6716 433.672 37 434.5 37C435.328 37 436 37.6716 436 38.5005Z" fill="#FDFCFB"/>
<path fill-rule="evenodd" clip-rule="evenodd" d="M0 119H558V116H0V119Z" fill="#F4F3F2"/>
<path d="M262.415 161.201C262.415 162.458 261.959 163.438 261.048 164.141C260.136 164.844 258.899 165.195 257.337 165.195C255.644 165.195 254.342 164.977 253.43 164.541V162.939C254.016 163.187 254.654 163.382 255.345 163.525C256.035 163.669 256.718 163.74 257.395 163.74C258.502 163.74 259.335 163.532 259.895 163.115C260.455 162.692 260.735 162.106 260.735 161.357C260.735 160.863 260.634 160.459 260.432 160.146C260.237 159.827 259.905 159.535 259.436 159.268C258.974 159.001 258.268 158.698 257.317 158.359C255.989 157.884 255.039 157.321 254.466 156.67C253.899 156.019 253.616 155.169 253.616 154.121C253.616 153.021 254.029 152.145 254.856 151.494C255.683 150.843 256.777 150.518 258.137 150.518C259.557 150.518 260.862 150.778 262.054 151.299L261.536 152.744C260.358 152.249 259.212 152.002 258.098 152.002C257.22 152.002 256.533 152.191 256.038 152.568C255.543 152.946 255.296 153.47 255.296 154.141C255.296 154.635 255.387 155.042 255.569 155.361C255.751 155.674 256.057 155.964 256.487 156.23C256.923 156.491 257.587 156.781 258.479 157.1C259.977 157.633 261.005 158.206 261.565 158.818C262.132 159.43 262.415 160.225 262.415 161.201ZM268.748 163.857C269.034 163.857 269.311 163.838 269.578 163.799C269.845 163.753 270.056 163.708 270.212 163.662V164.902C270.037 164.987 269.776 165.055 269.431 165.107C269.093 165.166 268.787 165.195 268.513 165.195C266.443 165.195 265.408 164.105 265.408 161.924V155.557H263.875V154.775L265.408 154.102L266.091 151.816H267.029V154.297H270.134V155.557H267.029V161.855C267.029 162.5 267.182 162.995 267.488 163.34C267.794 163.685 268.214 163.857 268.748 163.857ZM279.143 165L278.821 163.477H278.743C278.209 164.147 277.675 164.603 277.141 164.844C276.614 165.078 275.953 165.195 275.159 165.195C274.097 165.195 273.264 164.922 272.659 164.375C272.06 163.828 271.76 163.05 271.76 162.041C271.76 159.88 273.489 158.747 276.946 158.643L278.762 158.584V157.92C278.762 157.08 278.58 156.462 278.215 156.064C277.857 155.661 277.281 155.459 276.487 155.459C275.595 155.459 274.586 155.732 273.459 156.279L272.961 155.039C273.489 154.753 274.065 154.528 274.69 154.365C275.321 154.202 275.953 154.121 276.584 154.121C277.86 154.121 278.804 154.404 279.416 154.971C280.035 155.537 280.344 156.445 280.344 157.695V165H279.143ZM275.481 163.857C276.49 163.857 277.281 163.581 277.854 163.027C278.433 162.474 278.723 161.699 278.723 160.703V159.736L277.102 159.805C275.813 159.85 274.882 160.052 274.309 160.41C273.743 160.762 273.459 161.312 273.459 162.061C273.459 162.646 273.635 163.092 273.987 163.398C274.345 163.704 274.843 163.857 275.481 163.857ZM291.218 165V158.076C291.218 157.204 291.019 156.553 290.622 156.123C290.225 155.693 289.603 155.479 288.757 155.479C287.637 155.479 286.817 155.781 286.296 156.387C285.775 156.992 285.515 157.992 285.515 159.385V165H283.894V154.297H285.212L285.476 155.762H285.554C285.886 155.234 286.351 154.827 286.95 154.541C287.549 154.248 288.217 154.102 288.952 154.102C290.241 154.102 291.211 154.414 291.862 155.039C292.514 155.658 292.839 156.65 292.839 158.018V165H291.218ZM303.664 163.564H303.576C302.827 164.652 301.708 165.195 300.217 165.195C298.817 165.195 297.727 164.717 296.945 163.76C296.171 162.803 295.783 161.442 295.783 159.678C295.783 157.913 296.174 156.543 296.955 155.566C297.736 154.59 298.824 154.102 300.217 154.102C301.669 154.102 302.782 154.629 303.557 155.684H303.684L303.615 154.912L303.576 154.16V149.805H305.197V165H303.879L303.664 163.564ZM300.422 163.838C301.529 163.838 302.329 163.538 302.824 162.939C303.326 162.334 303.576 161.361 303.576 160.02V159.678C303.576 158.161 303.322 157.08 302.814 156.436C302.313 155.785 301.509 155.459 300.402 155.459C299.452 155.459 298.723 155.83 298.215 156.572C297.714 157.308 297.463 158.35 297.463 159.697C297.463 161.064 297.714 162.096 298.215 162.793C298.716 163.49 299.452 163.838 300.422 163.838ZM315.427 165L315.104 163.477H315.026C314.492 164.147 313.958 164.603 313.425 164.844C312.897 165.078 312.236 165.195 311.442 165.195C310.381 165.195 309.548 164.922 308.942 164.375C308.343 163.828 308.044 163.05 308.044 162.041C308.044 159.88 309.772 158.747 313.229 158.643L315.046 158.584V157.92C315.046 157.08 314.863 156.462 314.499 156.064C314.141 155.661 313.565 155.459 312.77 155.459C311.878 155.459 310.869 155.732 309.743 156.279L309.245 155.039C309.772 154.753 310.348 154.528 310.973 154.365C311.605 154.202 312.236 154.121 312.868 154.121C314.144 154.121 315.088 154.404 315.7 154.971C316.318 155.537 316.628 156.445 316.628 157.695V165H315.427ZM311.764 163.857C312.774 163.857 313.565 163.581 314.138 163.027C314.717 162.474 315.007 161.699 315.007 160.703V159.736L313.386 159.805C312.096 159.85 311.165 160.052 310.593 160.41C310.026 160.762 309.743 161.312 309.743 162.061C309.743 162.646 309.919 163.092 310.27 163.398C310.628 163.704 311.126 163.857 311.764 163.857ZM325.06 154.102C325.535 154.102 325.962 154.141 326.339 154.219L326.115 155.723C325.672 155.625 325.282 155.576 324.943 155.576C324.077 155.576 323.335 155.928 322.716 156.631C322.104 157.334 321.798 158.21 321.798 159.258V165H320.177V154.297H321.515L321.701 156.279H321.779C322.176 155.583 322.655 155.046 323.214 154.668C323.774 154.29 324.39 154.102 325.06 154.102ZM335.827 163.564H335.739C334.99 164.652 333.87 165.195 332.379 165.195C330.98 165.195 329.889 164.717 329.108 163.76C328.333 162.803 327.946 161.442 327.946 159.678C327.946 157.913 328.336 156.543 329.118 155.566C329.899 154.59 330.986 154.102 332.379 154.102C333.831 154.102 334.944 154.629 335.719 155.684H335.846L335.778 154.912L335.739 154.16V149.805H337.36V165H336.041L335.827 163.564ZM332.584 163.838C333.691 163.838 334.492 163.538 334.987 162.939C335.488 162.334 335.739 161.361 335.739 160.02V159.678C335.739 158.161 335.485 157.08 334.977 156.436C334.476 155.785 333.672 155.459 332.565 155.459C331.614 155.459 330.885 155.83 330.377 156.572C329.876 157.308 329.625 158.35 329.625 159.697C329.625 161.064 329.876 162.096 330.377 162.793C330.879 163.49 331.614 163.838 332.584 163.838Z" fill="#1A2334"/>
<path fill-rule="evenodd" clip-rule="evenodd" d="M290.613 136.87C289.611 135.717 289.509 134.743 291.765 134.545C296.739 134.104 300.402 131.964 300.98 130.726C301.559 129.488 299.982 128.277 298.633 129.022C297.544 129.623 295.41 130.087 293.791 130.373C292.456 130.608 291.091 130.633 289.755 130.426C288.597 130.247 287.579 130.056 286.668 129.865C286.668 129.865 281.404 128.747 279.131 127L268 138.72L273.222 144.531C273.222 144.531 275.714 148.204 280.194 147.768C284.672 147.333 290.697 144.166 290.697 144.166C291.51 142.935 298.722 147.316 301.045 148.957C303.34 150.582 305.085 150.187 304.997 148.608C304.937 147.531 297.95 142.336 295.615 140.762C294.339 139.902 291.821 138.257 290.613 136.87Z" fill="#F2B499"/>
<path fill-rule="evenodd" clip-rule="evenodd" d="M284 147.774C284.011 147.853 283.708 148.016 283.184 147.999C282.664 147.986 281.939 147.726 281.296 147.113C280.655 146.498 280.259 145.684 280.107 145.055C279.952 144.423 279.994 144.008 280.055 144.001C280.2 143.959 280.448 145.509 281.611 146.586C282.746 147.708 283.993 147.587 284 147.774Z" fill="#EB916B"/>
<path fill-rule="evenodd" clip-rule="evenodd" d="M288 145.809C288.008 145.892 287.698 146.033 287.175 145.993C286.657 145.956 285.937 145.679 285.3 145.067C284.666 144.451 284.271 143.653 284.115 143.038C283.954 142.42 283.99 142.011 284.055 142.001C284.207 141.955 284.489 143.458 285.635 144.531C286.757 145.646 287.998 145.616 288 145.809Z" fill="#EB916B"/>
<path fill-rule="evenodd" clip-rule="evenodd" d="M367.926 91.2391L297.038 70.1175C291.161 67.6134 286.712 67 286.712 67L262.779 67.1598C259.529 67.1598 256.47 67.8615 253.599 69.0872L189.073 90.5966C184.299 92.1129 181 97.0282 181 102.626C181 109.528 185.957 115.123 192.071 115.123H221.868C221.783 115.404 221.737 115.561 221.737 115.561L325.375 115.951L325.374 115.912L364.929 116C371.043 116 376 110.352 376 103.384C376 97.7321 372.702 92.7699 367.926 91.2391Z" fill="#0097F9"/>
<path fill-rule="evenodd" clip-rule="evenodd" d="M354 99.0022C353.997 99.0263 353.774 99.0116 353.354 98.962C352.871 98.8977 352.265 98.8147 351.522 98.713C349.934 98.4719 347.631 98.1653 344.785 97.8359C339.093 97.1718 331.198 96.584 322.47 96.7139C313.742 96.8571 305.863 97.694 300.186 98.5362C297.348 98.9553 295.053 99.3329 293.47 99.6248C292.73 99.7493 292.125 99.8498 291.645 99.9301C291.226 99.993 291.005 100.014 291 99.9904C290.997 99.9676 291.211 99.8993 291.624 99.7922C292.101 99.6784 292.698 99.5338 293.434 99.357C295.006 98.9834 297.294 98.5295 300.132 98.0475C305.807 97.0781 313.707 96.1608 322.464 96.0162C331.217 95.8864 339.134 96.5545 344.828 97.3459C347.676 97.7382 349.973 98.1198 351.553 98.4452C352.29 98.5978 352.893 98.7237 353.371 98.8228C353.785 98.9178 354.002 98.9781 354 99.0022Z" fill="#1A282B"/>
<path fill-rule="evenodd" clip-rule="evenodd" d="M259.307 92C252.851 92 247.135 89.8028 243.12 86.9463C240.882 85.3584 239.183 83.5604 237.621 82.0893C236.071 80.6004 234.646 79.4173 233.362 78.6256C230.77 77.0311 228.96 77.1067 229.001 77C229.001 77 229.004 77 229.012 77C229.081 77 229.498 77.0056 230.217 77.1434C231.008 77.2835 232.157 77.6605 233.48 78.4322C234.802 79.2061 236.268 80.3814 237.844 81.8536C239.433 83.3091 241.146 85.076 243.357 86.6116C247.308 89.3647 252.894 91.4763 259.18 91.4763C259.875 91.4763 260.579 91.4496 261.29 91.3962C263.062 91.255 264.875 90.9826 266.661 90.4544C267.567 90.2354 268.439 89.8773 269.333 89.5615C270.196 89.169 271.084 88.8099 271.931 88.3384C275.352 86.5215 278.536 83.9507 282.378 82.2239C284.489 81.2176 286.792 80.7561 289.059 80.7561C290.326 80.7561 291.582 80.8996 292.788 81.1731C292.942 81.411 293.1 81.6457 293.262 81.8781C291.907 81.52 290.492 81.3299 289.067 81.3299C286.884 81.3299 284.674 81.7769 282.615 82.752C278.869 84.4311 275.682 86.993 272.201 88.8377C271.339 89.3158 270.426 89.6838 269.544 90.0819C268.629 90.4033 267.737 90.7646 266.811 90.987C264.987 91.5196 263.136 91.7921 261.329 91.9288C260.648 91.9766 259.973 92 259.307 92ZM318.684 91.6853C317.071 91.6853 315.387 91.454 313.709 91.0004C310.919 90.2565 308.166 88.9266 305.368 87.4366C305.605 87.3677 305.84 87.2932 306.075 87.2153C308.697 88.6108 311.261 89.8339 313.838 90.5378C315.525 91.0048 317.208 91.2417 318.817 91.2428C320.104 91.2428 321.344 91.0904 322.499 90.7802C322.861 90.6913 323.215 90.5901 323.561 90.4811C323.706 90.5723 323.852 90.6623 324 90.7524C323.55 90.9103 323.083 91.0526 322.603 91.1772C321.381 91.5174 320.059 91.6853 318.684 91.6853Z" fill="white"/>
<path fill-rule="evenodd" clip-rule="evenodd" d="M266.51 115L265.293 114.996L264.822 114.801L233 100L272 106.919L266.731 114.997L266.51 115Z" fill="#026BAF"/>
<path fill-rule="evenodd" clip-rule="evenodd" d="M310.004 115C310.003 115 310.003 115 310.003 115C309.984 114.992 310.064 114.771 310.236 114.355C310.331 114.129 310.438 113.875 310.56 113.587C310.722 113.287 310.901 112.953 311.1 112.585C311.953 111.113 313.41 109.028 315.855 107.137C318.249 105.221 321.653 103.494 325.73 102.977C326.472 102.884 327.237 102.838 328.014 102.838C329.359 102.838 330.741 102.979 332.115 103.273C334.294 103.702 336.471 104.402 338.706 105.029C340.936 105.663 343.146 106.159 345.31 106.248C345.515 106.256 345.72 106.259 345.924 106.259C347.864 106.259 349.736 105.91 351.435 105.326C355.224 104.047 358.049 101.571 359.757 99.1123C361.494 96.6385 362.233 94.2469 362.579 92.604C362.918 90.9488 362.917 90 362.976 90C362.997 90 363.003 90.2358 362.999 90.6863C362.987 91.1357 362.939 91.7998 362.802 92.6452C362.519 94.3237 361.831 96.7798 360.095 99.3437C358.392 101.893 355.507 104.485 351.611 105.83C349.846 106.451 347.892 106.824 345.861 106.824C345.67 106.824 345.481 106.821 345.289 106.814C343.054 106.731 340.792 106.224 338.548 105.586C336.299 104.954 334.138 104.257 332.004 103.829C330.618 103.528 329.244 103.386 327.908 103.386C327.19 103.386 326.485 103.427 325.794 103.507C321.831 103.98 318.483 105.623 316.108 107.461C313.679 109.273 312.196 111.281 311.294 112.701C311.081 113.056 310.888 113.376 310.714 113.665C310.575 113.942 310.451 114.187 310.343 114.403C310.141 114.794 310.025 115 310.004 115Z" fill="white"/>
<path fill-rule="evenodd" clip-rule="evenodd" d="M189 113.489C189 113.489 270.483 148.787 270.063 147.987C269.643 147.185 283 124.034 283 124.034L216.982 92L189 113.489Z" fill="#0097F9"/>
<path fill-rule="evenodd" clip-rule="evenodd" d="M226 96.0036C226.018 95.9658 226.609 96.225 227.661 96.724C228.8 97.2792 230.292 98.0087 232.094 98.8874C235.827 100.739 240.965 103.332 246.623 106.23C252.285 109.129 257.396 111.783 261.083 113.732C262.853 114.682 264.319 115.467 265.437 116.067C266.459 116.63 267.017 116.96 267 116.996C266.983 117.034 266.392 116.776 265.341 116.277C264.204 115.722 262.711 114.994 260.909 114.114C257.177 112.262 252.037 109.669 246.375 106.769C240.716 103.87 235.604 101.216 231.917 99.2682C230.147 98.3184 228.681 97.5327 227.564 96.9328C226.541 96.3695 225.984 96.0403 226 96.0036Z" fill="#1A282B"/>
<path fill-rule="evenodd" clip-rule="evenodd" d="M188.004 113C188.003 113 188.001 113 188 112.999C188 112.999 188.258 112.199 189.222 111.032C190.166 109.865 191.974 108.446 194.598 107.585C195.342 107.343 196.146 107.14 197 107L196.278 107.546C195.734 107.654 195.214 107.788 194.72 107.939C192.149 108.733 190.358 110.064 189.385 111.165C188.412 112.242 188.072 113 188.004 113Z" fill="#F0B1B4"/>
<path fill-rule="evenodd" clip-rule="evenodd" d="M231.084 116C230.232 116 229.356 115.937 228.471 115.816C224.627 115.31 220.663 113.669 216.682 111.764C212.7 109.855 208.905 108.014 205.218 107.132C203.531 106.715 201.882 106.498 200.331 106.498C200.194 106.498 200.059 106.5 199.923 106.503C198.896 106.53 197.917 106.657 197 106.852L197.763 106.24C198.45 106.121 199.165 106.041 199.906 106.011C200.114 106.003 200.323 106 200.533 106C202.071 106 203.691 106.206 205.339 106.6C209.107 107.473 212.951 109.321 216.925 111.226C220.895 113.126 224.796 114.753 228.542 115.274C229.466 115.409 230.377 115.478 231.26 115.478C232.157 115.478 233.027 115.407 233.855 115.266C235.501 114.984 236.976 114.417 238.233 113.743C240.754 112.378 242.319 110.509 243.048 109.069C243.792 107.642 243.927 106.719 243.997 106.719C243.998 106.719 243.999 106.72 244 106.72C244 106.72 243.956 107.663 243.248 109.176C242.564 110.683 240.998 112.659 238.426 114.112C237.146 114.83 235.634 115.437 233.938 115.748C233.027 115.917 232.07 116 231.084 116Z" fill="white"/>
<path fill-rule="evenodd" clip-rule="evenodd" d="M249.17 140C249.114 139.975 249.056 139.949 249 139.923C249.124 139.805 249.273 139.664 249.445 139.504C250.036 138.937 250.957 138.187 252.144 137.337C253.327 136.475 254.814 135.571 256.527 134.691C258.252 133.84 260.21 133.031 262.331 132.395C264.456 131.78 266.531 131.401 268.429 131.184C269.698 131.061 270.888 131 271.967 131C272.505 131 273.015 131.015 273.495 131.045C274.934 131.122 276.095 131.258 276.887 131.418C277.446 131.523 277.827 131.604 278 131.657C277.986 131.682 277.973 131.706 277.959 131.731C277.482 131.725 275.865 131.505 273.481 131.465C273.28 131.46 273.075 131.458 272.863 131.458C271.574 131.458 270.095 131.546 268.486 131.73C266.619 131.973 264.58 132.361 262.487 132.967C260.399 133.593 258.467 134.375 256.753 135.187C255.052 136.027 253.564 136.881 252.366 137.687C250.876 138.677 249.794 139.521 249.17 140Z" fill="white"/>
<path fill-rule="evenodd" clip-rule="evenodd" d="M335 81L296.698 70.1171C292.964 68.5996 289.807 67.811 288 67.4369C288.043 67.2909 288.092 67.1449 288.147 67L335 81Z" fill="#141D1F"/>
<path fill-rule="evenodd" clip-rule="evenodd" d="M323.332 91C323.184 90.906 323.037 90.812 322.891 90.7168C325.043 90.0052 326.873 88.9222 328.417 87.8741C330.209 86.6332 331.643 85.3947 332.791 84.3616C333.94 83.3273 334.795 82.4811 335.385 81.917C335.595 81.715 335.773 81.5432 335.924 81.3981L336 81.4225C335.853 81.5827 335.677 81.7754 335.468 82.0029C334.904 82.5961 334.072 83.4713 332.942 84.5369C331.812 85.6024 330.394 86.8735 328.6 88.1538C327.127 89.1846 325.388 90.2525 323.332 91ZM304.628 87.5386C304.287 87.3494 303.945 87.1579 303.602 86.964C300.424 85.2194 297.147 83.1938 293.424 82.0296C293.112 81.9216 292.796 81.8241 292.476 81.7359C292.313 81.4933 292.155 81.2484 292 81C292.542 81.1277 293.073 81.2821 293.592 81.4631C297.404 82.668 300.69 84.7191 303.859 86.4753C304.355 86.7574 304.847 87.036 305.338 87.3076C305.102 87.3889 304.866 87.4666 304.628 87.5386Z" fill="white"/>
<path fill-rule="evenodd" clip-rule="evenodd" d="M288.283 65.3309C288.471 60.943 288.706 56.9729 288.706 56.9729C288.706 56.9729 298.475 55.7351 298.896 45.7259C299.317 35.7156 298.324 12.6671 298.324 12.6671L280.345 4L261 19.6439L264.033 65.6154C264.471 72.2381 270.106 77.2937 276.712 76.9867C282.993 76.6955 288.014 71.6377 288.283 65.3309Z" fill="#F2B499"/>
<path fill-rule="evenodd" clip-rule="evenodd" d="M297 30.9829C297.009 31.536 296.57 31.9902 296.018 31.9999C295.466 32.0086 295.01 31.5693 295 31.0171C294.99 30.4649 295.43 30.0098 295.982 30.0002C296.534 29.9905 296.99 30.4307 297 30.9829Z" fill="#1A282B"/>
<path fill-rule="evenodd" clip-rule="evenodd" d="M297.98 27.9847C297.82 28.0945 296.877 27.5798 295.521 27.5468C294.167 27.5007 293.16 27.9583 293.016 27.839C292.946 27.7862 293.108 27.5849 293.548 27.3769C293.98 27.1705 294.712 26.9779 295.556 27.0021C296.401 27.0277 297.106 27.2613 297.509 27.4926C297.921 27.7262 298.056 27.9356 297.98 27.9847Z" fill="#1A282B"/>
<path fill-rule="evenodd" clip-rule="evenodd" d="M282 30.9829C282.011 31.536 281.57 31.9902 281.018 31.9999C280.465 32.0086 280.01 31.5693 280 31.0171C279.99 30.4649 280.43 30.0098 280.982 30.0002C281.534 29.9905 281.991 30.4307 282 30.9829Z" fill="#1A282B"/>
<path fill-rule="evenodd" clip-rule="evenodd" d="M282.983 28.9693C282.856 29.189 282.101 28.1595 281.017 28.0936C279.934 28.0014 279.129 28.9166 279.013 28.6794C278.956 28.5725 279.086 28.1698 279.439 27.7553C279.784 27.3409 280.37 26.9558 281.045 27.0041C281.72 27.0554 282.284 27.5225 282.607 27.9867C282.936 28.4524 283.046 28.8712 282.983 28.9693Z" fill="#1A282B"/>
<path fill-rule="evenodd" clip-rule="evenodd" d="M288.456 39.9066C288.45 39.8255 289.314 39.7057 290.71 39.5758C291.066 39.5514 291.402 39.4925 291.465 39.2472C291.553 38.9864 291.411 38.5879 291.247 38.1572C290.928 37.2636 290.596 36.3268 290.245 35.3444C288.858 31.3406 287.86 28.0539 288.016 28.0006C288.172 27.9485 289.423 31.1508 290.811 35.1546C291.144 36.1414 291.464 37.0827 291.766 37.9829C291.894 38.4025 292.116 38.8798 291.927 39.4193C291.827 39.6879 291.565 39.8744 291.337 39.9288C291.11 39.9909 290.91 39.9876 290.736 39.992C289.33 40.0154 288.459 39.9876 288.456 39.9066Z" fill="#1A282B"/>
<path fill-rule="evenodd" clip-rule="evenodd" d="M284.236 41.1626C282.813 40.2646 288.165 43.3804 291 43.3335C291 43.3335 289.295 45.8457 286.415 44.7012C283.424 43.5142 284.236 41.1626 284.236 41.1626Z" fill="#FFFFFE"/>
<path fill-rule="evenodd" clip-rule="evenodd" d="M289 57.4146C289 57.4146 282.433 57.61 276 53C276 53 279.056 60.5705 288.83 59.9656L289 57.4146Z" fill="#EB916B"/>
<path fill-rule="evenodd" clip-rule="evenodd" d="M251.368 29.8573C251.334 38.6195 249.075 61.787 264.803 65L264.231 33.0919C264.231 33.0919 279.46 25.8002 282.032 10.6132L282.125 10.6993C283.1 12.9912 284.837 17.915 283.782 21.9245L298.043 25.4932L299.684 27.0182C299.684 27.0182 304.763 15.7193 294.965 5.46849C285.167 -4.78236 276.794 2.6452 271.543 2.00509C268.048 1.58024 255.934 1.66181 251 22.8455L251.368 29.8573Z" fill="#1A282B"/>
<path fill-rule="evenodd" clip-rule="evenodd" d="M264.534 33.3643C263.236 32.5396 261.464 33.2175 260.433 34.3749C258.812 36.1945 258.53 39.1334 259.773 41.2443C261.017 43.354 263.682 44.4577 266 43.8201" fill="#F2B499"/>
<path fill-rule="evenodd" clip-rule="evenodd" d="M264 40.9221C263.998 40.9933 263.601 41.0713 262.978 40.8803C262.386 40.7027 261.465 40.1645 261.113 39.0056C260.94 38.4448 260.973 37.8297 261.164 37.357C261.353 36.8822 261.653 36.5588 261.925 36.353C262.487 35.9437 262.914 35.9731 262.919 36.0387C262.942 36.128 262.571 36.2535 262.149 36.6831C261.725 37.0902 261.317 37.9212 261.605 38.8179C261.868 39.7111 262.585 40.2278 263.103 40.489C263.633 40.7581 264.008 40.8328 264 40.9221Z" fill="#EB916B"/>
<path fill-rule="evenodd" clip-rule="evenodd" d="M262.762 43.0151C262.109 43.1695 261.776 44.0706 262.169 44.6145C262.563 45.1583 263.523 45.119 263.872 44.5458C264.221 43.9717 263.816 43.1009 263.151 43" fill="#DE4D59"/>
<path fill-rule="evenodd" clip-rule="evenodd" d="M292 116V99C292 99 267.449 104.238 267 115.799L292 116Z" fill="#F2B499"/>
<path d="M350 158C350 159.582 350.469 161.129 351.348 162.445C352.227 163.76 353.477 164.786 354.939 165.391C356.4 165.997 358.009 166.155 359.561 165.846C361.113 165.538 362.538 164.776 363.657 163.657C364.776 162.538 365.538 161.113 365.846 159.561C366.155 158.009 365.997 156.4 365.391 154.939C364.786 153.477 363.76 152.227 362.445 151.348C361.129 150.469 359.582 150 358 150C356.949 150 355.909 150.207 354.939 150.609C353.968 151.011 353.086 151.6 352.343 152.343C351.6 153.086 351.011 153.968 350.609 154.939C350.207 155.909 350 156.949 350 158V158ZM359.488 155.048L361.776 157.448C361.81 157.483 361.837 157.523 361.856 157.568C361.89 157.606 361.917 157.649 361.936 157.696C361.978 157.792 362 157.895 362 158C362 158.105 361.978 158.208 361.936 158.304C361.898 158.402 361.841 158.492 361.768 158.568L359.368 160.968C359.217 161.119 359.013 161.203 358.8 161.203C358.587 161.203 358.383 161.119 358.232 160.968C358.081 160.817 357.997 160.613 357.997 160.4C357.997 160.187 358.081 159.983 358.232 159.832L359.272 158.8L354.8 158.8C354.588 158.8 354.384 158.716 354.234 158.566C354.084 158.416 354 158.212 354 158C354 157.788 354.084 157.584 354.234 157.434C354.384 157.284 354.588 157.2 354.8 157.2L359.328 157.2L358.328 156.152C358.182 155.998 358.102 155.792 358.108 155.58C358.113 155.368 358.202 155.166 358.356 155.02C358.51 154.874 358.716 154.794 358.928 154.8C359.14 154.805 359.342 154.894 359.488 155.048V155.048Z" fill="#DADCE0"/>
<defs>
<filter id="filter0_d" x="145" y="125" width="311" height="76" filterUnits="userSpaceOnUse" color-interpolation-filters="sRGB">
<feFlood flood-opacity="0" result="BackgroundImageFix"/>
<feColorMatrix in="SourceAlpha" type="matrix" values="0 0 0 0 0 0 0 0 0 0 0 0 0 0 0 0 0 0 127 0" result="hardAlpha"/>
<feOffset dy="4"/>
<feGaussianBlur stdDeviation="5"/>
<feComposite in2="hardAlpha" operator="out"/>
<feColorMatrix type="matrix" values="0 0 0 0 0 0 0 0 0 0 0 0 0 0 0 0 0 0 0.05 0"/>
<feBlend mode="normal" in2="BackgroundImageFix" result="effect1_dropShadow"/>
<feBlend mode="normal" in="SourceGraphic" in2="effect1_dropShadow" result="shape"/>
</filter>
</defs>
</svg>
