<svg width="18" height="12" viewBox="0 0 18 12" fill="none" xmlns="http://www.w3.org/2000/svg">
<path d="M16.7566 1.87908C16.6583 1.51586 16.4665 1.18473 16.2005 0.918661C15.9344 0.652596 15.6032 0.460882 15.24 0.362611C13.9102 0 8.55865 0 8.55865 0C8.55865 0 3.20689 0.0110041 1.87728 0.373615C1.51408 0.471902 1.18295 0.663623 0.91689 0.929687C0.650826 1.19575 0.459105 1.52687 0.360817 1.89008C-0.0414078 4.25281 -0.197456 7.85282 0.371822 10.1209C0.470109 10.4841 0.66183 10.8153 0.927894 11.0813C1.19396 11.3474 1.52508 11.5391 1.88829 11.6374C3.218 12 8.56965 12 8.56965 12C8.56965 12 13.9213 12 15.251 11.6374C15.6142 11.5391 15.9453 11.3474 16.2114 11.0813C16.4775 10.8153 16.6692 10.4841 16.7675 10.1209C17.1916 7.75494 17.3224 4.15713 16.7565 1.87918L16.7566 1.87908Z" fill="#FF0000"/>
<path d="M6.85538 8.57135L11.2949 5.99996L6.85538 3.42847V8.57135Z" fill="white"/>
</svg>
