<svg width="25" height="20" viewBox="0 0 25 20" fill="none" xmlns="http://www.w3.org/2000/svg">
<path d="M22.997 0.99875C22.857 0.44875 22.177 0 21.4845 0H3.49702C2.80327 0 2.12327 0.44875 1.98452 0.99875L1.73327 2.5H23.247L22.997 0.99875ZM24.2558 3.75H0.724517C0.623553 3.75007 0.523715 3.77122 0.4314 3.81211C0.339085 3.853 0.256327 3.91271 0.188429 3.98744C0.12053 4.06216 0.0689876 4.15024 0.0371025 4.24604C0.00521743 4.34184 -0.00630711 4.44324 0.00326714 4.54375L1.15702 19.13C1.18 19.3681 1.29079 19.589 1.4678 19.7499C1.64481 19.9107 1.87535 19.9999 2.11452 20H22.8658C23.1049 19.9999 23.3355 19.9107 23.5125 19.7499C23.6895 19.589 23.8003 19.3681 23.8233 19.13L24.977 4.54375C24.9866 4.44324 24.9751 4.34184 24.9432 4.24604C24.9113 4.15024 24.8598 4.06216 24.7919 3.98744C24.724 3.91271 24.6412 3.853 24.5489 3.81211C24.4566 3.77122 24.3567 3.75007 24.2558 3.75ZM9.99077 15V8.75L15.4695 11.875L9.99077 15Z" fill="#0498F9"/>
</svg>
