<svg width="27" height="37" viewBox="0 0 27 37" fill="none" xmlns="http://www.w3.org/2000/svg">
<path d="M24.4577 20.2372V7.52546L16.9323 0H1.25424C0.562387 0.002032 0.002032 0.562387 0 1.25424V28.2205C0.002032 28.9123 0.562387 29.4727 1.25424 29.4747H13.1696L24.4577 20.2372Z" fill="#DAECFB"/>
<path d="M16.9324 0L24.4578 7.52546H18.1866C17.4939 7.52546 16.9324 6.96392 16.9324 6.27122V0Z" fill="#90BAE1"/>
<path d="M9.40598 10.034H3.76189C3.41554 10.034 3.13477 9.75326 3.13477 9.40691C3.13477 9.06056 3.41554 8.77979 3.76189 8.77979H9.40598C9.75233 8.77979 10.0331 9.06056 10.0331 9.40691C10.0331 9.75326 9.75233 10.034 9.40598 10.034Z" fill="#285680"/>
<path d="M16.3043 13.1695H3.76189C3.41554 13.1695 3.13477 12.8888 3.13477 12.5424C3.13477 12.1961 3.41554 11.9153 3.76189 11.9153H16.3043C16.6507 11.9153 16.9314 12.1961 16.9314 12.5424C16.9314 12.8888 16.6507 13.1695 16.3043 13.1695Z" fill="#285680"/>
<path d="M16.3043 16.3053H3.76189C3.41554 16.3053 3.13477 16.0245 3.13477 15.6781C3.13477 15.3318 3.41554 15.051 3.76189 15.051H16.3043C16.6507 15.051 16.9314 15.3318 16.9314 15.6781C16.9314 16.0245 16.6507 16.3053 16.3043 16.3053Z" fill="#285680"/>
<path d="M16.3043 19.4408H3.76189C3.41554 19.4408 3.13477 19.16 3.13477 18.8136C3.13477 18.4673 3.41554 18.1865 3.76189 18.1865H16.3043C16.6507 18.1865 16.9314 18.4673 16.9314 18.8136C16.9314 19.16 16.6507 19.4408 16.3043 19.4408Z" fill="#285680"/>
<path d="M5.05031 23.8306H8.81304V31.356H5.05031C4.01126 31.356 3.16895 30.5137 3.16895 29.4747V25.7119C3.16895 24.6729 4.01126 23.8306 5.05031 23.8306Z" fill="#CC66A1"/>
<path d="M17.5929 37.0002C17.2466 37.0002 16.9658 36.7194 16.9658 36.3731C16.9658 36.0267 17.2466 35.7459 17.5929 35.7459C22.0955 35.7459 25.7455 32.0959 25.7455 27.5933C25.7455 23.0908 22.0955 19.4408 17.5929 19.4408C17.2466 19.4408 16.9658 19.16 16.9658 18.8136C16.9658 18.4673 17.2466 18.1865 17.5929 18.1865C22.7882 18.1865 26.9998 22.3981 26.9998 27.5933C26.9998 32.7886 22.7882 37.0002 17.5929 37.0002Z" fill="#FF5364"/>
<path d="M17.5929 34.4917C17.2466 34.4917 16.9658 34.211 16.9658 33.8646C16.9658 33.5183 17.2466 33.2375 17.5929 33.2375C20.7101 33.2375 23.237 30.7106 23.237 27.5934C23.237 24.4763 20.7101 21.9493 17.5929 21.9493C17.2466 21.9493 16.9658 21.6685 16.9658 21.3222C16.9658 20.9758 17.2466 20.6951 17.5929 20.6951C21.4028 20.6951 24.4913 23.7836 24.4913 27.5934C24.4913 31.4033 21.4028 34.4917 17.5929 34.4917Z" fill="#FF5364"/>
<path d="M17.5929 31.9833C17.2466 31.9833 16.9658 31.7025 16.9658 31.3562C16.9658 31.0098 17.2466 30.7291 17.5929 30.7291C19.3247 30.7291 20.7286 29.3252 20.7286 27.5935C20.7286 25.8617 19.3247 24.4579 17.5929 24.4579C17.2466 24.4579 16.9658 24.1771 16.9658 23.8307C16.9658 23.4844 17.2466 23.2036 17.5929 23.2036C20.0174 23.2036 21.9828 25.169 21.9828 27.5935C21.9828 30.0179 20.0174 31.9833 17.5929 31.9833Z" fill="#FF5364"/>
<path d="M13.2305 34.9638L8.18701 31.356V23.8306L13.2305 20.2227C13.6191 20.0108 14.0907 20.0193 14.4714 20.2453C14.852 20.4713 15.0854 20.8812 15.0854 21.3238V33.8628C15.0854 34.3054 14.852 34.7153 14.4714 34.9413C14.0907 35.1672 13.6191 35.1758 13.2305 34.9638Z" fill="#894B9D"/>
</svg>
