<svg width="20" height="22" viewBox="0 0 20 22" fill="none" xmlns="http://www.w3.org/2000/svg">
<path d="M18.3333 2.23772H16.6667V1.52436C16.6667 1.14598 16.5262 0.783089 16.2761 0.515529C16.0261 0.24797 15.687 0.0976563 15.3333 0.0976562C14.9797 0.0976563 14.6406 0.24797 14.3905 0.515529C14.1405 0.783089 14 1.14598 14 1.52436V2.23772H11.3333V1.52436C11.3333 1.14598 11.1929 0.783089 10.9428 0.515529C10.6928 0.24797 10.3536 0.0976563 10 0.0976562C9.64638 0.0976563 9.30724 0.24797 9.05719 0.515529C8.80714 0.783089 8.66667 1.14598 8.66667 1.52436V2.23772H6V1.52436C6 1.14598 5.85952 0.783089 5.60948 0.515529C5.35943 0.24797 5.02029 0.0976563 4.66667 0.0976562C4.31305 0.0976563 3.97391 0.24797 3.72386 0.515529C3.47381 0.783089 3.33333 1.14598 3.33333 1.52436V2.23772H1.66667C1.22464 2.23772 0.800716 2.42561 0.488155 2.76006C0.175595 3.09451 0 3.54812 0 4.0211V18.2882C0 18.7612 0.175595 19.2148 0.488155 19.5492C0.800716 19.8837 1.22464 20.0716 1.66667 20.0716H11C11.0884 20.0716 11.1732 20.034 11.2357 19.9671C11.2982 19.9002 11.3333 19.8095 11.3333 19.7149C11.3333 19.6203 11.2982 19.5296 11.2357 19.4627C11.1732 19.3958 11.0884 19.3582 11 19.3582H1.66667C1.40169 19.3574 1.1478 19.2444 0.960434 19.0439C0.773069 18.8434 0.667458 18.5717 0.666667 18.2882V7.23119H19.3333V13.2947C19.3333 13.3893 19.3685 13.48 19.431 13.5469C19.4935 13.6138 19.5783 13.6514 19.6667 13.6514C19.7551 13.6514 19.8399 13.6138 19.9024 13.5469C19.9649 13.48 20 13.3893 20 13.2947V4.0211C20 3.54812 19.8244 3.09451 19.5118 2.76006C19.1993 2.42561 18.7754 2.23772 18.3333 2.23772ZM14.6667 1.52436C14.6667 1.33517 14.7369 1.15373 14.8619 1.01995C14.987 0.886167 15.1565 0.81101 15.3333 0.81101C15.5101 0.81101 15.6797 0.886167 15.8047 1.01995C15.9298 1.15373 16 1.33517 16 1.52436V3.66443C16 3.85362 15.9298 4.03506 15.8047 4.16884C15.6797 4.30262 15.5101 4.37778 15.3333 4.37778C15.1565 4.37778 14.987 4.30262 14.8619 4.16884C14.7369 4.03506 14.6667 3.85362 14.6667 3.66443V1.52436ZM9.33333 1.52436C9.33333 1.33517 9.40357 1.15373 9.5286 1.01995C9.65362 0.886167 9.82319 0.81101 10 0.81101C10.1768 0.81101 10.3464 0.886167 10.4714 1.01995C10.5964 1.15373 10.6667 1.33517 10.6667 1.52436V3.66443C10.6667 3.85362 10.5964 4.03506 10.4714 4.16884C10.3464 4.30262 10.1768 4.37778 10 4.37778C9.82319 4.37778 9.65362 4.30262 9.5286 4.16884C9.40357 4.03506 9.33333 3.85362 9.33333 3.66443V1.52436ZM4 1.52436C4 1.33517 4.07024 1.15373 4.19526 1.01995C4.32029 0.886167 4.48986 0.81101 4.66667 0.81101C4.84348 0.81101 5.01305 0.886167 5.13807 1.01995C5.2631 1.15373 5.33333 1.33517 5.33333 1.52436V3.66443C5.33333 3.85362 5.2631 4.03506 5.13807 4.16884C5.01305 4.30262 4.84348 4.37778 4.66667 4.37778C4.48986 4.37778 4.32029 4.30262 4.19526 4.16884C4.07024 4.03506 4 3.85362 4 3.66443V1.52436ZM19.3333 6.51784H0.666667V4.0211C0.667458 3.73757 0.773069 3.4659 0.960434 3.26541C1.1478 3.06493 1.40169 2.95192 1.66667 2.95107H3.33333V3.66443C3.33333 4.04281 3.47381 4.4057 3.72386 4.67326C3.97391 4.94082 4.31305 5.09113 4.66667 5.09113C5.02029 5.09113 5.35943 4.94082 5.60948 4.67326C5.85952 4.4057 6 4.04281 6 3.66443V2.95107H8.66667V3.66443C8.66667 4.04281 8.80714 4.4057 9.05719 4.67326C9.30724 4.94082 9.64638 5.09113 10 5.09113C10.3536 5.09113 10.6928 4.94082 10.9428 4.67326C11.1929 4.4057 11.3333 4.04281 11.3333 3.66443V2.95107H14V3.66443C14 4.04281 14.1405 4.4057 14.3905 4.67326C14.6406 4.94082 14.9797 5.09113 15.3333 5.09113C15.687 5.09113 16.0261 4.94082 16.2761 4.67326C16.5262 4.4057 16.6667 4.04281 16.6667 3.66443V2.95107H18.3333C18.5983 2.95192 18.8522 3.06493 19.0396 3.26541C19.2269 3.4659 19.3325 3.73757 19.3333 4.0211V6.51784Z" fill="#109CF1"/>
<path d="M9.33344 9.72777C9.33344 9.53857 9.2632 9.35712 9.13817 9.22334C9.01315 9.08956 8.84358 9.0144 8.66676 9.0144H7.33342C7.15661 9.0144 6.98704 9.08956 6.86201 9.22334C6.73699 9.35712 6.66675 9.53857 6.66675 9.72777V10.7978C6.66675 10.987 6.73699 11.1684 6.86201 11.3022C6.98704 11.436 7.15661 11.5112 7.33342 11.5112H8.66676C8.84358 11.5112 9.01315 11.436 9.13817 11.3022C9.2632 11.1684 9.33344 10.987 9.33344 10.7978V9.72777ZM7.33342 10.7978V9.72777H8.66676V10.7978H7.33342Z" fill="#109CF1"/>
<path d="M5.33313 9.72777C5.33313 9.53857 5.26289 9.35712 5.13787 9.22334C5.01284 9.08956 4.84327 9.0144 4.66646 9.0144H3.33311C3.1563 9.0144 2.98673 9.08956 2.86171 9.22334C2.73668 9.35712 2.66644 9.53857 2.66644 9.72777V10.7978C2.66644 10.987 2.73668 11.1684 2.86171 11.3022C2.98673 11.436 3.1563 11.5112 3.33311 11.5112H4.66646C4.84327 11.5112 5.01284 11.436 5.13787 11.3022C5.26289 11.1684 5.33313 10.987 5.33313 10.7978V9.72777ZM3.33311 10.7978V9.72777H4.66646V10.7978H3.33311Z" fill="#109CF1"/>
<path d="M16.6665 11.5112C16.8433 11.5112 17.0129 11.436 17.1379 11.3022C17.263 11.1684 17.3332 10.987 17.3332 10.7978V9.72777C17.3332 9.53857 17.263 9.35712 17.1379 9.22334C17.0129 9.08956 16.8433 9.0144 16.6665 9.0144H15.3332C15.1564 9.0144 14.9868 9.08956 14.8618 9.22334C14.7368 9.35712 14.6666 9.53857 14.6666 9.72777V10.7978C14.6666 10.987 14.7368 11.1684 14.8618 11.3022C14.9868 11.436 15.1564 11.5112 15.3332 11.5112H16.6665ZM15.3332 9.72777H16.6665V10.7978H15.3332V9.72777Z" fill="#109CF1"/>
<path d="M9.33344 12.938C9.33344 12.7488 9.2632 12.5673 9.13817 12.4335C9.01315 12.2998 8.84358 12.2246 8.66676 12.2246H7.33342C7.15661 12.2246 6.98704 12.2998 6.86201 12.4335C6.73699 12.5673 6.66675 12.7488 6.66675 12.938V14.008C6.66675 14.1972 6.73699 14.3786 6.86201 14.5124C6.98704 14.6462 7.15661 14.7213 7.33342 14.7213H8.66676C8.84358 14.7213 9.01315 14.6462 9.13817 14.5124C9.2632 14.3786 9.33344 14.1972 9.33344 14.008V12.938ZM7.33342 14.008V12.938H8.66676V14.008H7.33342Z" fill="#109CF1"/>
<path d="M5.33313 12.938C5.33313 12.7488 5.26289 12.5673 5.13787 12.4335C5.01284 12.2998 4.84327 12.2246 4.66646 12.2246H3.33311C3.1563 12.2246 2.98673 12.2998 2.86171 12.4335C2.73668 12.5673 2.66644 12.7488 2.66644 12.938V14.008C2.66644 14.1972 2.73668 14.3786 2.86171 14.5124C2.98673 14.6462 3.1563 14.7213 3.33311 14.7213H4.66646C4.84327 14.7213 5.01284 14.6462 5.13787 14.5124C5.26289 14.3786 5.33313 14.1972 5.33313 14.008V12.938ZM3.33311 14.008V12.938H4.66646V14.008H3.33311Z" fill="#109CF1"/>
<path d="M8.66676 15.4348H7.33342C7.15661 15.4348 6.98704 15.51 6.86201 15.6438C6.73699 15.7775 6.66675 15.959 6.66675 16.1482V17.2182C6.66675 17.4074 6.73699 17.5888 6.86201 17.7226C6.98704 17.8564 7.15661 17.9315 7.33342 17.9315H8.66676C8.84358 17.9315 9.01315 17.8564 9.13817 17.7226C9.2632 17.5888 9.33344 17.4074 9.33344 17.2182V16.1482C9.33344 15.959 9.2632 15.7775 9.13817 15.6438C9.01315 15.51 8.84358 15.4348 8.66676 15.4348ZM7.33342 17.2182V16.1482H8.66676V17.2182H7.33342Z" fill="#109CF1"/>
<path d="M11.3333 11.5112H12.6667C12.8435 11.5112 13.013 11.436 13.1381 11.3022C13.2631 11.1684 13.3333 10.987 13.3333 10.7978V9.72777C13.3333 9.53857 13.2631 9.35712 13.1381 9.22334C13.013 9.08956 12.8435 9.0144 12.6667 9.0144H11.3333C11.1565 9.0144 10.987 9.08956 10.8619 9.22334C10.7369 9.35712 10.6667 9.53857 10.6667 9.72777V10.7978C10.6667 10.987 10.7369 11.1684 10.8619 11.3022C10.987 11.436 11.1565 11.5112 11.3333 11.5112ZM11.3333 9.72777H12.6667V10.7978H11.3333V9.72777Z" fill="#109CF1"/>
<path d="M10.6667 14.008C10.6667 14.1972 10.7369 14.3786 10.8619 14.5124C10.987 14.6462 11.1565 14.7213 11.3333 14.7213C11.4218 14.7213 11.5065 14.6838 11.569 14.6169C11.6316 14.55 11.6667 14.4593 11.6667 14.3647C11.6667 14.2701 11.6316 14.1793 11.569 14.1125C11.5065 14.0456 11.4218 14.008 11.3333 14.008V12.938H12.6667C12.7551 12.938 12.8399 12.9004 12.9024 12.8335C12.9649 12.7666 13 12.6759 13 12.5813C13 12.4867 12.9649 12.396 12.9024 12.3291C12.8399 12.2622 12.7551 12.2246 12.6667 12.2246H11.3333C11.1565 12.2246 10.987 12.2998 10.8619 12.4335C10.7369 12.5673 10.6667 12.7488 10.6667 12.938V14.008Z" fill="#109CF1"/>
<path d="M4.66646 15.4348H3.33311C3.1563 15.4348 2.98673 15.51 2.86171 15.6438C2.73668 15.7775 2.66644 15.959 2.66644 16.1482V17.2182C2.66644 17.4074 2.73668 17.5888 2.86171 17.7226C2.98673 17.8564 3.1563 17.9315 3.33311 17.9315H4.66646C4.84327 17.9315 5.01284 17.8564 5.13787 17.7226C5.26289 17.5888 5.33313 17.4074 5.33313 17.2182V16.1482C5.33313 15.959 5.26289 15.7775 5.13787 15.6438C5.01284 15.51 4.84327 15.4348 4.66646 15.4348ZM3.33311 17.2182V16.1482H4.66646V17.2182H3.33311Z" fill="#109CF1"/>
<path d="M15.6667 12.2246C14.8096 12.2246 13.9718 12.4966 13.2592 13.0061C12.5466 13.5155 11.9912 14.2397 11.6632 15.087C11.3353 15.9342 11.2494 16.8665 11.4166 17.766C11.5838 18.6654 11.9965 19.4916 12.6026 20.1401C13.2086 20.7886 13.9807 21.2302 14.8213 21.4091C15.6619 21.588 16.5332 21.4962 17.325 21.1452C18.1168 20.7943 18.7936 20.2 19.2697 19.4375C19.7459 18.675 20 17.7785 20 16.8614C19.9987 15.6321 19.5417 14.4535 18.7293 13.5843C17.917 12.715 16.8155 12.226 15.6667 12.2246ZM15.6667 20.7848C14.9415 20.7848 14.2326 20.5547 13.6296 20.1236C13.0266 19.6925 12.5567 19.0798 12.2791 18.3628C12.0016 17.6459 11.929 16.8571 12.0705 16.096C12.212 15.3349 12.5612 14.6358 13.074 14.0871C13.5868 13.5384 14.2401 13.1647 14.9514 13.0133C15.6626 12.862 16.3999 12.9397 17.0699 13.2366C17.7398 13.5336 18.3125 14.0365 18.7154 14.6817C19.1183 15.3269 19.3333 16.0854 19.3333 16.8614C19.3322 17.9016 18.9455 18.8988 18.2581 19.6343C17.5708 20.3699 16.6388 20.7836 15.6667 20.7848Z" fill="#109CF1"/>
<path d="M17.5927 15.3662L15 18.1404L13.8217 16.8792C13.7588 16.8143 13.6746 16.7783 13.5872 16.7791C13.4998 16.7799 13.4162 16.8175 13.3544 16.8836C13.2926 16.9497 13.2575 17.0392 13.2568 17.1327C13.256 17.2262 13.2896 17.3163 13.3503 17.3836L14.7643 18.8969C14.8269 18.9638 14.9116 19.0014 15 19.0014C15.0884 19.0014 15.1732 18.9638 15.2357 18.8969L18.064 15.8706C18.1247 15.8033 18.1583 15.7132 18.1576 15.6197C18.1568 15.5262 18.1218 15.4367 18.06 15.3706C17.9982 15.3045 17.9146 15.2669 17.8272 15.2661C17.7398 15.2653 17.6556 15.3013 17.5927 15.3662Z" fill="#109CF1"/>
</svg>
