<svg width="36" height="43" viewBox="0 0 36 43" fill="none" xmlns="http://www.w3.org/2000/svg">
<path d="M8.0769 1H24.4076C28.5159 4.32282 32.098 8.42122 35 13.1191V41.8041H8.0769V1Z" stroke="#C8C8C8" stroke-width="0.5"/>
<path d="M24.2302 1C28.4008 4.38556 32.0416 8.55002 34.9995 13.3182C34.016 12.164 32.8237 11.2691 31.5058 10.6961C30.1879 10.1231 28.7763 9.88582 27.3697 10.0009C27.5703 8.3188 27.3866 6.60604 26.8365 5.02892C26.2864 3.45181 25.3886 2.06391 24.2302 1Z" fill="url(#paint0_linear)"/>
<path d="M24.2302 1C28.4008 4.38556 32.0416 8.55002 34.9995 13.3182C34.016 12.164 32.8237 11.2691 31.5058 10.6961C30.1879 10.1231 28.7763 9.88582 27.3697 10.0009C27.5703 8.3188 27.3866 6.60604 26.8365 5.02892C26.2864 3.45181 25.3886 2.06391 24.2302 1V1Z" stroke="#C8C8C8" stroke-width="0.5"/>
<path d="M2.69263 6.38916H22.8849V11.0085H2.69263V6.38916Z" stroke="#C8C8C8" stroke-width="4"/>
<path d="M25.5769 14.088H0V3.30957H25.5769V14.088ZM24.6585 4.37763H0.919889V13.0166H24.6585V4.37763Z" fill="url(#paint1_linear)"/>
<path d="M8.07666 1H24.4073C28.5156 4.32282 32.0977 8.42122 34.9997 13.1191V41.8041H8.07666V1Z" fill="white"/>
<path d="M17.7506 28.0234C18.4058 26.5661 19.1566 24.9255 19.7472 23.2768L19.9834 22.6263C19.2044 19.2653 18.7376 16.5675 19.1552 14.8232C19.2428 14.5883 19.3938 14.391 19.5867 14.2598C19.7795 14.1286 20.0041 14.0701 20.228 14.093H20.5852C21.2657 14.0818 21.5849 15.0624 21.6214 15.4434C21.6266 16.0209 21.5599 16.5963 21.4232 17.1527C21.4566 16.5612 21.3795 15.9684 21.1968 15.4131C20.9156 14.7132 20.647 14.2971 20.4066 14.2285C20.321 14.3071 20.2516 14.4058 20.203 14.5179C20.1545 14.6299 20.128 14.7526 20.1254 14.8774C20.054 15.3724 20.0178 15.873 20.0171 16.3746C20.0503 17.849 20.255 19.3121 20.626 20.7258C20.7019 20.477 20.7666 20.2379 20.8228 20.013C20.9058 19.6591 21.4316 17.3169 21.4316 17.3169C21.4316 17.3169 21.2995 20.4356 21.1139 21.3779C21.0745 21.5772 21.0309 21.7749 20.9845 21.9758C21.607 24 22.6401 25.8301 24.0005 27.3187C24.5348 27.8443 25.1197 28.3 25.744 28.6771C26.9154 28.4768 28.0984 28.376 29.2831 28.3758C30.2332 28.2671 31.189 28.5092 32.008 29.0662C32.1885 29.2726 32.2952 29.5475 32.3075 29.8379C32.3014 29.9895 32.2821 30.1401 32.2499 30.2875C32.2639 30.2062 32.2639 29.8092 31.1883 29.4169C29.7564 29.108 28.288 29.0848 26.8492 29.3484C29.0511 30.5697 31.1981 31.1772 31.8772 30.8136C32.0206 30.705 32.1454 30.5678 32.2456 30.4087C32.1984 30.6725 32.1297 30.9309 32.0404 31.1804C31.9048 31.3756 31.7198 31.5191 31.5103 31.5917C30.436 31.9106 27.6408 31.1644 25.2041 29.5859C22.453 30.0648 19.7408 30.7959 17.0939 31.7719C14.7388 36.4531 12.9671 38.6024 11.5273 37.7844L10.9972 37.4831C10.9006 37.3947 10.8299 37.2751 10.7945 37.1402C10.7591 37.0052 10.7607 36.8613 10.799 36.7273C10.9663 35.7962 11.997 34.3915 14.0667 32.99C14.2888 32.8306 15.2815 32.2422 15.2815 32.2422C15.2815 32.2422 14.5461 33.049 14.3746 33.2069C12.7225 34.7423 11.5034 36.6731 11.533 37.4225V37.4879C12.939 37.2615 15.0411 34.0216 17.7463 28.0186L17.7506 28.0234ZM18.604 28.5161C18.1798 29.4161 17.7457 30.3101 17.302 31.1979C19.5577 30.1728 21.9023 29.4204 24.2972 28.953C23.9878 28.7117 23.6889 28.4537 23.4015 28.1797C22.1667 26.9719 21.162 25.4914 20.4488 23.8285C19.9273 25.4374 19.3085 27.0037 18.597 28.5161" fill="#F91D0A"/>
<path d="M0.673096 4.07959H24.9039V13.3183H0.673096V4.07959Z" fill="url(#paint2_linear)"/>
<path d="M6.73047 5.62294H8.55548C8.78592 5.60688 9.01682 5.64537 9.23229 5.73574C9.44775 5.82612 9.64268 5.96624 9.80363 6.14647C10.1166 6.56228 10.2724 7.09214 10.2395 7.62848C10.2724 8.16723 10.1166 8.69955 9.80363 9.1184C9.64229 9.29778 9.44719 9.43702 9.23174 9.52657C9.01629 9.61612 8.78559 9.65385 8.55548 9.63719H7.82896V11.7708H6.73047V5.62294ZM7.83041 6.77122V8.4889H8.43923C8.5317 8.49465 8.62416 8.47757 8.7097 8.43895C8.79525 8.40034 8.87167 8.34118 8.93327 8.26589C9.05785 8.08384 9.11958 7.85986 9.10763 7.63323C9.12098 7.40642 9.05911 7.18192 8.93327 7.00056C8.87174 6.92519 8.79533 6.86596 8.70976 6.82734C8.6242 6.78871 8.53171 6.77169 8.43923 6.77755H7.83041V6.77122ZM12.1154 6.82658V10.5735H12.5092C12.7028 10.5876 12.8968 10.552 13.0755 10.4696C13.2541 10.3872 13.4125 10.2603 13.5379 10.099C13.8002 9.69045 13.9263 9.19657 13.8954 8.69926C13.9263 8.20489 13.8012 7.71384 13.5408 7.3074C13.4148 7.14621 13.2558 7.01935 13.0767 6.93696C12.8976 6.85457 12.7032 6.81893 12.5092 6.83291H12.1154V6.82658ZM11.0155 5.63401H12.1779C12.6635 5.60708 13.1497 5.67183 13.6149 5.82539C13.9398 5.96298 14.2227 6.19696 14.4315 6.50076C14.6356 6.78657 14.787 7.11255 14.8776 7.46083C14.9793 7.86199 15.0282 8.27682 15.0229 8.69294C15.0283 9.1127 14.9794 9.53119 14.8776 9.93612C14.787 10.2844 14.6356 10.6104 14.4315 10.8962C14.2201 11.2009 13.9355 11.4362 13.6091 11.5763C13.1429 11.7304 12.656 11.7972 12.1692 11.774H11.0067V5.62294L11.0155 5.63401ZM15.8628 5.62294H18.8459V6.82184H16.9714V7.96537H18.7282V9.16427H16.9714V11.7708H15.8715V5.62294" fill="#FFF9F9"/>
<defs>
<linearGradient id="paint0_linear" x1="28.3728" y1="8.46644" x2="30.1165" y2="7.05885" gradientUnits="userSpaceOnUse">
<stop stop-color="white"/>
<stop offset="1" stop-color="#C8C8C8"/>
</linearGradient>
<linearGradient id="paint1_linear" x1="15.3739" y1="17.9374" x2="8.62915" y2="0.0543958" gradientUnits="userSpaceOnUse">
<stop offset="0.315" stop-color="#5E0000"/>
<stop offset="0.444" stop-color="#830000" stop-opacity="0.999"/>
<stop offset="0.618" stop-color="#AE0000" stop-opacity="0.998"/>
<stop offset="0.775" stop-color="#CD0000" stop-opacity="0.997"/>
<stop offset="0.908" stop-color="#E00000" stop-opacity="0.996"/>
<stop offset="1" stop-color="#E70000" stop-opacity="0.996"/>
</linearGradient>
<linearGradient id="paint2_linear" x1="15.1422" y1="16.9163" x2="9.24668" y2="0.919407" gradientUnits="userSpaceOnUse">
<stop offset="0.127" stop-color="#8A0000"/>
<stop offset="0.244" stop-color="#900000" stop-opacity="0.999"/>
<stop offset="0.398" stop-color="#A00000" stop-opacity="0.999"/>
<stop offset="0.573" stop-color="#BC0000" stop-opacity="0.998"/>
<stop offset="0.761" stop-color="#E20000" stop-opacity="0.997"/>
<stop offset="0.867" stop-color="#FA0000" stop-opacity="0.996"/>
</linearGradient>
</defs>
</svg>
