<svg width="615" height="456" viewBox="0 0 615 456" fill="none" xmlns="http://www.w3.org/2000/svg">
<path d="M615 355.5C615 321.42 582.603 288.735 524.935 264.637C467.268 240.538 389.054 227 307.5 227C225.946 227 147.732 240.538 90.0647 264.637C32.3973 288.735 1.23143e-05 321.42 0 355.5L307.5 355.5H615Z" fill="url(#paint0_linear)"/>
<rect x="282" y="116" width="140" height="140" rx="20" fill="#ECF0FA"/>
<path fill-rule="evenodd" clip-rule="evenodd" d="M226.309 260.404H227.205C233.426 253.59 238.3 245.321 241.398 236.144C246.412 221.291 246.201 205.701 240.803 192.249C238.075 185.453 234.135 179.116 230.326 172.988C226.462 166.776 222.467 160.35 219.755 153.462C218.634 150.617 217.806 147.558 217.308 144.439C217.083 144.411 216.859 144.387 216.634 144.361C217.135 147.59 217.986 150.756 219.146 153.702C221.879 160.642 225.89 167.094 229.769 173.332C233.564 179.437 237.488 185.748 240.195 192.492C245.535 205.8 245.742 221.231 240.777 235.938C237.641 245.227 232.665 253.574 226.309 260.404Z" fill="white"/>
<path fill-rule="evenodd" clip-rule="evenodd" d="M244.395 57.3869C246.531 60.4978 245.732 64.7453 242.61 66.874C239.488 69.0027 235.226 68.2064 233.089 65.0958C230.953 61.9852 231.752 57.7377 234.874 55.609C237.996 53.4803 242.258 54.2763 244.395 57.3869Z" fill="#D3DFFF"/>
<path fill-rule="evenodd" clip-rule="evenodd" d="M248.747 75.3184C248.355 77.4022 246.33 78.7727 244.223 78.3794C242.117 77.9861 240.727 75.978 241.119 73.8941C241.511 71.8103 243.537 70.44 245.643 70.8331C247.749 71.2267 249.139 73.2348 248.747 75.3184Z" fill="#D3DFFF"/>
<path fill-rule="evenodd" clip-rule="evenodd" d="M248.348 31.8284C245.604 46.4157 231.511 56.0247 216.871 53.2907C202.23 50.5564 192.587 36.5144 195.331 21.9271C198.075 7.33954 212.167 -2.26944 226.808 0.464799C241.448 3.19903 251.092 17.2408 248.348 31.8284Z" fill="#D3DFFF"/>
<path fill-rule="evenodd" clip-rule="evenodd" d="M214.882 26.8769C214.882 28.7467 213.36 30.2626 211.483 30.2626C209.607 30.2626 208.085 28.7467 208.085 26.8769C208.085 25.0069 209.607 23.491 211.483 23.491C213.36 23.491 214.882 25.0069 214.882 26.8769Z" fill="white"/>
<path fill-rule="evenodd" clip-rule="evenodd" d="M225.238 26.8769C225.238 28.7467 223.716 30.2626 221.84 30.2626C219.963 30.2626 218.441 28.7467 218.441 26.8769C218.441 25.0069 219.963 23.491 221.84 23.491C223.716 23.491 225.238 25.0069 225.238 26.8769Z" fill="white"/>
<path fill-rule="evenodd" clip-rule="evenodd" d="M235.593 26.8769C235.593 28.7467 234.072 30.2626 232.195 30.2626C230.318 30.2626 228.797 28.7467 228.797 26.8769C228.797 25.0069 230.318 23.491 232.195 23.491C234.072 23.491 235.593 25.0069 235.593 26.8769Z" fill="white"/>
<path fill-rule="evenodd" clip-rule="evenodd" d="M202.519 246.827L205.039 256.507C205.696 259.031 208.146 260.738 210.856 260.553C219.118 259.994 236.285 257.977 246.138 250.742L243.337 236.791C229.79 236.027 217.121 236.778 206.151 240.458C203.404 241.38 201.815 244.123 202.519 246.827Z" fill="#102048"/>
<path fill-rule="evenodd" clip-rule="evenodd" d="M218.309 254.531C218.165 254.531 218.034 254.437 217.993 254.294L214.61 242.223C214.561 242.048 214.663 241.868 214.837 241.821C215.013 241.771 215.192 241.873 215.241 242.048L218.624 254.119C218.673 254.291 218.571 254.471 218.397 254.521C218.367 254.529 218.337 254.531 218.309 254.531Z" fill="white"/>
<path fill-rule="evenodd" clip-rule="evenodd" d="M225.621 252.9C225.478 252.9 225.346 252.806 225.306 252.663L221.922 240.591C221.874 240.417 221.976 240.237 222.15 240.19C222.325 240.14 222.505 240.242 222.553 240.417L225.937 252.488C225.985 252.66 225.883 252.84 225.709 252.89C225.68 252.898 225.65 252.9 225.621 252.9Z" fill="white"/>
<path fill-rule="evenodd" clip-rule="evenodd" d="M202.627 203.814L226.011 235.737L259.581 238.396L305.885 218.889L288.289 192.507L234.114 194.501L202.627 203.814Z" fill="#85A5F8"/>
<path fill-rule="evenodd" clip-rule="evenodd" d="M272.932 198.936C342.078 178.542 353.193 239.433 245.304 250.518C241.493 246.245 237.04 238.83 235.271 232.634L292.245 206.401L272.932 198.936Z" fill="#9DB4F0"/>
<path fill-rule="evenodd" clip-rule="evenodd" d="M275.869 242.575C272.635 241.544 269.536 239.506 269.536 239.506L258.423 242.98L260.97 255.025L272.514 257.361C276.031 250.953 276.236 245.689 275.869 242.575Z" fill="#F9B384"/>
<path fill-rule="evenodd" clip-rule="evenodd" d="M234.114 194.501C169.752 182.31 153.082 243.94 260.97 255.024C264.781 250.752 267.768 245.702 269.536 239.505C252.964 228.457 234.434 217.955 214.126 207.95L234.114 194.501Z" fill="#9DB4F0"/>
<path fill-rule="evenodd" clip-rule="evenodd" d="M307.968 238.989C299.722 233.913 283.736 242.685 279.723 243.126C278.553 243.257 277.2 243.001 275.869 242.575C276.237 245.689 276.031 250.953 272.515 257.361L274.475 257.758C274.475 257.758 288.032 262.711 302.412 259.827C315.686 257.168 314.451 242.98 307.968 238.989Z" fill="#102048"/>
<path fill-rule="evenodd" clip-rule="evenodd" d="M296.728 255.594C296.695 255.594 296.662 255.588 296.63 255.578C296.457 255.523 296.361 255.341 296.416 255.168C297.396 252.078 297.823 245.997 294.985 241.912C294.883 241.763 294.92 241.562 295.069 241.458C295.216 241.356 295.421 241.393 295.524 241.541C298.496 245.817 298.059 252.151 297.04 255.364C296.996 255.502 296.867 255.594 296.728 255.594Z" fill="white"/>
<path fill-rule="evenodd" clip-rule="evenodd" d="M290.261 256.815C290.229 256.815 290.196 256.81 290.163 256.8C289.99 256.747 289.895 256.562 289.949 256.392C290.929 253.3 291.356 247.221 288.519 243.136C288.416 242.987 288.453 242.784 288.602 242.682C288.75 242.58 288.954 242.617 289.057 242.766C292.029 247.041 291.592 253.375 290.573 256.588C290.529 256.727 290.401 256.815 290.261 256.815Z" fill="white"/>
<path fill-rule="evenodd" clip-rule="evenodd" d="M222.727 115.038C222.727 115.038 238.937 101.304 238.336 98.6938C237.908 96.8277 233.316 99.563 233.316 99.563C233.316 99.563 239.755 91.9522 239.428 91.0257C238.843 89.3761 234.389 92.4533 234.389 92.4533C234.389 92.4533 237.399 88.1364 235.96 87.4343C234.521 86.7296 231.384 89.3918 231.384 89.3918C231.384 89.3918 233.217 86.9932 232.355 86.3642C231.494 85.7352 227.779 88.3217 227.779 88.3217C227.779 88.3217 229.112 85.2993 226.279 86.4451C223.447 87.5909 203.586 105.751 203.586 105.751L222.727 115.038Z" fill="#F9B384"/>
<path fill-rule="evenodd" clip-rule="evenodd" d="M229.359 98.7483C229.281 98.7483 229.201 98.7196 229.139 98.6622C226.356 96.1305 225.13 95.5145 222.06 94.5723C221.887 94.5201 221.79 94.3374 221.843 94.1652C221.896 93.9929 222.079 93.8963 222.252 93.9512C225.433 94.9247 226.703 95.5615 229.58 98.1794C229.714 98.302 229.723 98.5082 229.601 98.6413C229.537 98.7118 229.448 98.7483 229.359 98.7483Z" fill="#E28B6D"/>
<path fill-rule="evenodd" clip-rule="evenodd" d="M224.43 106.195C224.251 106.169 224.126 106.004 224.151 105.827C224.47 103.556 225.187 102.136 226.345 101.486C227.334 100.933 228.622 100.99 230.171 101.656C230.338 101.729 230.414 101.92 230.342 102.084C230.271 102.251 230.078 102.327 229.912 102.256C228.56 101.674 227.468 101.606 226.666 102.055C225.712 102.59 225.084 103.89 224.799 105.916C224.777 106.08 224.637 106.197 224.476 106.197L224.43 106.195Z" fill="#E28B6D"/>
<path fill-rule="evenodd" clip-rule="evenodd" d="M223.711 92.4687C223.624 92.4687 223.537 92.4322 223.473 92.3643C223.349 92.2338 223.355 92.0276 223.487 91.905L227.554 88.0839C227.686 87.9612 227.893 87.9664 228.017 88.0969C228.141 88.2301 228.135 88.4363 228.003 88.5589L223.936 92.3774C223.873 92.4374 223.792 92.4687 223.711 92.4687Z" fill="#E28B6D"/>
<path fill-rule="evenodd" clip-rule="evenodd" d="M227.476 93.7737C227.395 93.7737 227.313 93.7424 227.25 93.6824C227.119 93.5571 227.115 93.3509 227.24 93.2204L231.147 89.1645C231.272 89.034 231.479 89.0287 231.61 89.154C231.741 89.2793 231.745 89.4855 231.62 89.616L227.713 93.6719C227.648 93.7398 227.562 93.7737 227.476 93.7737Z" fill="#E28B6D"/>
<path fill-rule="evenodd" clip-rule="evenodd" d="M231.324 96.0577C231.244 96.0577 231.164 96.0263 231.101 95.9689C230.968 95.8463 230.961 95.6401 231.085 95.507L234.15 92.2314C234.273 92.1009 234.48 92.0931 234.613 92.2157C234.745 92.3384 234.752 92.5446 234.629 92.6751L231.564 95.9533C231.499 96.0211 231.412 96.0577 231.324 96.0577Z" fill="#E28B6D"/>
<path fill-rule="evenodd" clip-rule="evenodd" d="M283.958 206.899L224.694 209.183L218.145 155.351C218.145 155.351 237.985 136.599 245.619 129.695L258.505 129.037C298.486 147.143 291.939 169.759 283.958 206.899Z" fill="#3A6BEA"/>
<path fill-rule="evenodd" clip-rule="evenodd" d="M318.666 164.16C332.776 194.713 274.79 205.594 274.79 205.594L258.505 129.037C258.505 129.037 304.246 132.934 318.666 164.16Z" fill="#3A6BEA"/>
<path fill-rule="evenodd" clip-rule="evenodd" d="M206.22 135.727L225.122 112.808L207.446 102.133C200.073 107.244 185.815 118.814 173.732 131.916C171.065 134.808 168.981 138.185 167.932 141.904C167.037 145.078 166.874 148.213 167.378 151.282C168.689 159.284 175.006 165.46 183.437 166.444C190.638 167.284 218.145 165.139 240.41 158.614L246.959 133.43C243.593 131.527 218.584 131.196 206.22 135.727Z" fill="#3A6BEA"/>
<path fill-rule="evenodd" clip-rule="evenodd" d="M262.691 117.068L262.55 130.883L262.534 132.289C262.509 134.49 261.604 136.484 260.142 137.932C258.689 139.37 256.688 140.273 254.472 140.289C250.005 140.313 246.352 136.739 246.311 132.282L246.153 116.24L262.691 117.068Z" fill="#F9B384"/>
<path fill-rule="evenodd" clip-rule="evenodd" d="M262.683 117.903L262.55 130.883C255.31 127.946 252.33 120.137 252.33 120.137L262.683 117.903Z" fill="#102048"/>
<path fill-rule="evenodd" clip-rule="evenodd" d="M265.547 95.2537C268.142 98.357 275.718 115.935 268.038 121.933C259.396 128.683 246.244 117.59 246.244 117.59L244.48 97.1146L255.896 94.1157L265.547 95.2537Z" fill="#F9B384"/>
<path fill-rule="evenodd" clip-rule="evenodd" d="M247.904 100.354C247.904 104.125 244.838 107.179 241.055 107.179C237.272 107.179 234.206 104.125 234.206 100.354C234.206 96.585 237.272 93.5312 241.055 93.5312C244.838 93.5312 247.904 96.585 247.904 100.354Z" fill="#FBC343"/>
<path fill-rule="evenodd" clip-rule="evenodd" d="M249.481 108.554C248.741 104.297 248.29 101.377 252.609 99.1816C252.609 99.1816 267.83 101.94 270.736 96.2193C273.642 90.4955 269.214 81.466 259.943 87.7394C236.212 83.1197 233.029 105.25 240.225 112.626L247.326 111.54C248.755 111.321 249.728 109.974 249.481 108.554Z" fill="#102048"/>
<path fill-rule="evenodd" clip-rule="evenodd" d="M262.278 108.568C262.278 109.123 261.825 109.575 261.266 109.575C260.708 109.575 260.254 109.123 260.254 108.568C260.254 108.012 260.708 107.56 261.266 107.56C261.825 107.56 262.278 108.012 262.278 108.568Z" fill="#102048"/>
<path fill-rule="evenodd" clip-rule="evenodd" d="M269.128 105.206C269.128 105.764 268.675 106.216 268.116 106.216C267.557 106.216 267.104 105.764 267.104 105.206C267.104 104.65 267.557 104.198 268.116 104.198C268.675 104.198 269.128 104.65 269.128 105.206Z" fill="#102048"/>
<path fill-rule="evenodd" clip-rule="evenodd" d="M267.415 111.67C267.344 111.67 267.273 111.644 267.218 111.592C267.103 111.483 267.098 111.302 267.207 111.188C267.613 110.762 268.058 110.164 267.871 109.731C267.677 109.28 266.857 109.087 266.481 109.087C265.674 109.087 265.286 107.654 265.217 107.367C265.18 107.215 265.274 107.061 265.428 107.022C265.581 106.985 265.736 107.079 265.773 107.233C265.921 107.839 266.255 108.515 266.481 108.515C266.867 108.515 268.049 108.695 268.397 109.504C268.646 110.084 268.386 110.78 267.623 111.582C267.566 111.642 267.491 111.67 267.415 111.67Z" fill="#102048"/>
<path fill-rule="evenodd" clip-rule="evenodd" d="M267.467 115.497C267.412 115.497 267.356 115.481 267.307 115.447C265.402 114.166 263.478 115.241 263.459 115.251C263.322 115.33 263.147 115.283 263.067 115.147C262.989 115.009 263.036 114.836 263.173 114.755C263.264 114.703 265.429 113.495 267.627 114.975C267.758 115.063 267.793 115.241 267.705 115.371C267.649 115.452 267.559 115.497 267.467 115.497Z" fill="#102048"/>
<path fill-rule="evenodd" clip-rule="evenodd" d="M260.823 104.201C261.399 105.278 260.395 105.498 259.22 106.119C258.045 106.74 256.842 106.97 256.567 106.453C256.292 105.939 257.022 105.017 258.198 104.394C259.373 103.772 260.377 103.365 260.823 104.201Z" fill="#102048"/>
<path fill-rule="evenodd" clip-rule="evenodd" d="M265.109 102.251C265.362 103.214 266.084 102.794 267.133 102.52C268.182 102.246 269.029 101.721 268.908 101.262C268.788 100.803 267.839 100.651 266.79 100.925C265.741 101.199 264.914 101.505 265.109 102.251Z" fill="#102048"/>
<path fill-rule="evenodd" clip-rule="evenodd" d="M256.596 116.246C254.948 116.246 253.612 114.915 253.612 113.273C253.612 111.629 254.948 110.301 256.596 110.301C258.244 110.301 259.58 111.629 259.58 113.273C259.58 114.915 258.244 116.246 256.596 116.246Z" fill="#F39176"/>
<path fill-rule="evenodd" clip-rule="evenodd" d="M247.734 110.097C249.742 111.639 250.264 114.317 248.901 116.079C247.537 117.838 244.804 118.013 242.797 116.47C240.789 114.928 240.267 112.247 241.63 110.488C242.994 108.726 245.726 108.552 247.734 110.097Z" fill="#F9B384"/>
<path fill-rule="evenodd" clip-rule="evenodd" d="M247.041 114.774C246.882 114.774 246.754 114.646 246.754 114.489C246.754 113.646 246.342 112.868 245.651 112.404C245.061 112.01 244.356 111.916 243.768 112.156C243.621 112.213 243.455 112.145 243.395 111.999C243.335 111.853 243.405 111.686 243.552 111.626C244.317 111.315 245.221 111.43 245.971 111.931C246.82 112.5 247.327 113.455 247.327 114.489C247.327 114.646 247.199 114.774 247.041 114.774Z" fill="#102048"/>
<path fill-rule="evenodd" clip-rule="evenodd" d="M196.12 147.091L195.639 146.647L205.98 135.505L206.461 135.949L196.12 147.091Z" fill="#102048"/>
<path fill-rule="evenodd" clip-rule="evenodd" d="M283.391 158.129H219.367C217.065 158.129 215.198 160.141 215.198 162.62V208.168C215.198 210.65 217.065 212.662 219.367 212.662H283.391C285.694 212.662 287.56 210.65 287.56 208.168V162.62C287.56 160.141 285.694 158.129 283.391 158.129Z" fill="#D3DFFF"/>
<path fill-rule="evenodd" clip-rule="evenodd" d="M254.759 181.211H247.999C247.035 181.211 246.25 182.01 246.25 182.991V187.799C246.25 188.78 247.035 189.579 247.999 189.579H254.759C255.724 189.579 256.509 188.78 256.509 187.799V182.991C256.509 182.01 255.724 181.211 254.759 181.211ZM254.759 182.516C255.002 182.516 255.199 182.728 255.199 182.991V187.799C255.199 188.06 255.002 188.274 254.759 188.274H247.999C247.756 188.274 247.559 188.06 247.559 187.799V182.991C247.559 182.728 247.756 182.516 247.999 182.516H254.759Z" fill="#1F3C88"/>
<path d="M380.5 182.17C383.833 184.094 383.833 188.906 380.5 190.83L342.25 212.914C338.917 214.838 334.75 212.433 334.75 208.584L334.75 164.416C334.75 160.567 338.917 158.162 342.25 160.086L380.5 182.17Z" fill="#B4C8FB"/>
<defs>
<linearGradient id="paint0_linear" x1="307.5" y1="227" x2="307.5" y2="279.728" gradientUnits="userSpaceOnUse">
<stop stop-color="white"/>
<stop offset="1" stop-color="#C4C4C4" stop-opacity="0"/>
</linearGradient>
</defs>
</svg>
