<svg width="20" height="14" viewBox="0 0 20 14" fill="none" xmlns="http://www.w3.org/2000/svg">
<path d="M19.549 2.19232C19.4344 1.76858 19.2107 1.38227 18.9003 1.07186C18.5899 0.761445 18.2036 0.537762 17.7799 0.423081C16.2286 0 9.98512 0 9.98512 0C9.98512 0 3.74137 0.0128064 2.19007 0.435887C1.76633 0.550575 1.38002 0.77427 1.06962 1.0847C0.759221 1.39512 0.535559 1.78145 0.420909 2.2052C-0.0483214 4.96155 -0.230345 9.16159 0.433794 11.8077C0.548456 12.2314 0.772122 12.6177 1.08252 12.9281C1.39292 13.2386 1.77922 13.4622 2.20295 13.5769C3.75425 14 9.99785 14 9.99785 14C9.99785 14 16.2414 14 17.7926 13.5769C18.2163 13.4622 18.6027 13.2386 18.9131 12.9282C19.2235 12.6177 19.4472 12.2314 19.5618 11.8077C20.0568 9.04743 20.2093 4.85004 19.549 2.1924V2.19232Z" fill="#FF0000"/>
<path d="M7.99756 9.99997L13.1771 6.99998L7.99764 4L7.99756 9.99997Z" fill="white"/>
</svg>
