<svg xmlns="http://www.w3.org/2000/svg" width="17.647" height="20.602" viewBox="0 0 17.647 20.602">
  <defs>
    <style>
      .cls-1 {
        fill: #9b9b9b;
      }
    </style>
  </defs>
  <g id="noun_profile_2473057" transform="translate(-8.248 -33.913)">
    <g id="Group_3053" data-name="Group 3053" transform="translate(8.248 33.913)">
      <g id="Group_3050" data-name="Group 3050" transform="translate(4.087 0)">
        <circle id="Ellipse_156" data-name="Ellipse 156" class="cls-1" cx="3.547" cy="3.547" r="3.547" transform="translate(1.196 1.196)"/>
        <g id="Group_3049" data-name="Group 3049">
          <path id="Path_1458" data-name="Path 1458" class="cls-1" d="M157.617,38.657c0,.091,0,.176-.01.267,0,.043-.014.091-.014.129,0-.014.052-.315.014-.124a4.414,4.414,0,0,1-.119.5c-.024.076-.067.157-.086.238,0-.014.129-.277.043-.11l-.057.114a3.47,3.47,0,0,1-.257.424c-.024.033-.052.067-.072.1,0-.014.2-.234.072-.1-.057.062-.11.124-.167.186s-.1.1-.157.153c-.029.029-.062.052-.091.081a.788.788,0,1,0,.072-.052c-.143.081-.272.191-.415.272-.062.033-.129.067-.2.1-.043.024-.181.081,0,0s.014,0-.033.01a3.584,3.584,0,0,1-.491.138c-.052.01-.324.057-.1.019s-.11,0-.167,0c-.176,0-.353-.024-.529-.019-.014,0,.281.048.157.019-.043-.01-.086-.014-.129-.024-.1-.019-.186-.038-.281-.067s-.162-.048-.243-.076a.6.6,0,0,0-.119-.043c.014,0,.277.129.11.043-.148-.076-.3-.153-.439-.243-.067-.043-.133-.1-.205-.143.014,0,.234.2.1.072-.029-.029-.062-.052-.1-.081a4.052,4.052,0,0,1-.343-.358c-.057-.062-.091-.162.072.1-.019-.033-.048-.067-.072-.1-.048-.067-.091-.138-.134-.21s-.072-.124-.1-.191c-.019-.038-.038-.076-.057-.11a.889.889,0,1,0,.033.086c-.038-.153-.11-.3-.148-.453-.019-.081-.038-.167-.052-.253-.01-.048-.033-.205,0,0s0,.014,0-.038a2.872,2.872,0,0,1,0-.5,1.171,1.171,0,0,0,.01-.129c.01-.153-.043.272-.019.124.019-.1.033-.191.057-.286.038-.157.1-.3.143-.453s-.114.243-.048.11c.019-.038.033-.076.052-.114.043-.086.086-.167.133-.248s.086-.138.134-.21c.024-.033.052-.067.072-.1,0-.01-.176.205-.091.119.124-.124.234-.262.362-.381.081-.076.3-.2,0-.01.062-.038.119-.086.176-.124a3.673,3.673,0,0,1,.462-.257c.086-.043.167-.029-.11.043.038-.01.081-.033.119-.043.072-.024.138-.048.21-.067s.162-.043.248-.062a1.219,1.219,0,0,1,.129-.024c.114-.019.2.024-.091.01.162.01.329-.024.5-.019.086,0,.176.01.262.019.153.01-.272-.043-.124-.019l.157.029a3.622,3.622,0,0,1,.548.162c.091.033.129.1-.11-.048.033.019.076.033.114.052.1.048.186.1.277.148.072.043.138.086.21.134.033.024.067.052.1.072-.281-.172-.124-.1-.048-.029a4.372,4.372,0,0,1,.391.4c.029.029.1.124-.014-.024-.124-.167-.01-.01.019.029.052.076.1.153.153.234s.091.162.133.248a1.213,1.213,0,0,0,.052.114.716.716,0,1,0-.038-.081,4.316,4.316,0,0,1,.157.553c.01.043.014.086.024.129.029.148-.024-.3-.014-.091.01.11.019.219.019.329a1.192,1.192,0,1,0,2.384,0,4.814,4.814,0,0,0-3.19-4.477,4.737,4.737,0,0,0-5.154,1.4,4.92,4.92,0,0,0-1.125,2.78,4.682,4.682,0,0,0,.658,2.727A4.741,4.741,0,0,0,160,38.657a1.2,1.2,0,0,0-1.192-1.192A1.218,1.218,0,0,0,157.617,38.657Z" transform="translate(-150.518 -33.913)"/>
        </g>
      </g>
      <g id="Group_3052" data-name="Group 3052" transform="translate(0 10.905)">
        <path id="Path_1459" data-name="Path 1459" class="cls-1" d="M105.257,295.2H90v-3.3a4,4,0,0,1,4-4h7.257a4,4,0,0,1,4,4Z" transform="translate(-88.798 -286.695)"/>
        <g id="Group_3051" data-name="Group 3051">
          <path id="Path_1460" data-name="Path 1460" class="cls-1" d="M81.259,269.94H66l1.192,1.192v-3.156c0-.1,0-.205,0-.31l.014-.229c.014-.2-.014.11-.019.124a1.045,1.045,0,0,0,.019-.129,3.926,3.926,0,0,1,.114-.467c.024-.081.052-.162.081-.238.086-.238-.1.205-.01.024.076-.148.148-.3.238-.439.038-.062.081-.119.119-.181.153-.224-.143.167-.019.019.11-.124.219-.248.339-.362.062-.057.119-.114.186-.167l.072-.057c.1-.1-.215.148-.1.072s.257-.176.391-.253a1.979,1.979,0,0,1,.224-.114c.033-.019.081-.033.114-.052.01-.01-.257.1-.138.057.162-.052.319-.114.482-.157.072-.019.148-.033.219-.052.1-.019.386-.029,0-.01.153-.01.305-.024.462-.029h5.984c.424,0,.849,0,1.268,0,.153,0,.31.024.463.029.019,0-.286-.043-.157-.019.043.01.086.014.129.024.1.019.191.038.281.062.143.038.281.086.424.138.091.033.124.1-.11-.048a1.212,1.212,0,0,0,.114.052l.224.114c.129.072.248.153.367.234.153.1-.081-.067-.091-.076.029.029.067.052.1.076.062.052.124.11.186.167.114.11.215.224.319.339.162.191-.129-.186-.014-.019.052.076.1.153.157.234.076.124.143.253.21.386.124.243-.076-.21-.01-.024.033.091.067.176.1.267a3.929,3.929,0,0,1,.114.467c0,.033.01.062.014.1.029.148-.029-.277-.019-.124.01.1.019.2.019.3.01.238,0,.482,0,.72v2.713a1.192,1.192,0,0,0,2.384,0v-2.165a8.123,8.123,0,0,0-.281-2.818,5.31,5.31,0,0,0-3.409-3.29,7.2,7.2,0,0,0-2.188-.219H71.189c-.486,0-.977-.024-1.464.01a5.288,5.288,0,0,0-4.12,2.4,5.792,5.792,0,0,0-.806,3.261v2.823a1.211,1.211,0,0,0,1.192,1.192H81.254a1.192,1.192,0,0,0,0-2.384Z" transform="translate(-64.8 -262.627)"/>
        </g>
      </g>
    </g>
  </g>
</svg>
