<svg xmlns="http://www.w3.org/2000/svg" width="28.365" height="28.365" viewBox="0 0 28.365 28.365"><path d="M14.182,0C7.136,0,6.138,5.762,7.534,8.864c0,4.9,2.216,9.75,6.648,9.75,4.388,0,6.648-4.853,6.648-9.75,1.706-5.252-1.374-7.091-3.1-7.091C17.617.111,15.645,0,14.182,0ZM7.091,17.728C3.169,17.728,0,20.9,0,28.032a.341.341,0,0,0,.332.332h27.7a.341.341,0,0,0,.332-.332c0-7.136-3.169-10.3-7.091-10.3h-1.15a.9.9,0,0,0-.554.242,7.214,7.214,0,0,1-10.776,0,.9.9,0,0,0-.554-.242H7.091Z" transform="translate(0)" fill="#1984f6"/></svg>