<svg width="30" height="30" viewBox="0 0 30 30" fill="none" xmlns="http://www.w3.org/2000/svg">
<path d="M19.8305 16.4085V6.10169L13.7288 0H1.01695C0.455987 0.00164756 0.00164756 0.455987 0 1.01695V22.8814C0.00164756 23.4423 0.455987 23.8967 1.01695 23.8983H10.678L19.8305 16.4085Z" fill="#B0D3F0"/>
<path d="M13.7288 0L19.8305 6.1017H14.7457C14.1841 6.1017 13.7288 5.64639 13.7288 5.08475V0Z" fill="#90BAE1"/>
<path d="M7.62698 8.1356H3.05071C2.76989 8.1356 2.54224 7.90795 2.54224 7.62713C2.54224 7.3463 2.76989 7.11865 3.05071 7.11865H7.62698C7.9078 7.11865 8.13546 7.3463 8.13546 7.62713C8.13546 7.90795 7.9078 8.1356 7.62698 8.1356Z" fill="#285680"/>
<path d="M13.2202 10.6781H3.05071C2.76989 10.6781 2.54224 10.4504 2.54224 10.1696C2.54224 9.88878 2.76989 9.66113 3.05071 9.66113H13.2202C13.501 9.66113 13.7287 9.88878 13.7287 10.1696C13.7287 10.4504 13.501 10.6781 13.2202 10.6781Z" fill="#285680"/>
<path d="M13.2202 13.2203H3.05071C2.76989 13.2203 2.54224 12.9927 2.54224 12.7118C2.54224 12.431 2.76989 12.2034 3.05071 12.2034H13.2202C13.501 12.2034 13.7287 12.431 13.7287 12.7118C13.7287 12.9927 13.501 13.2203 13.2202 13.2203Z" fill="#285680"/>
<path d="M13.2202 15.7628H3.05071C2.76989 15.7628 2.54224 15.5351 2.54224 15.2543C2.54224 14.9735 2.76989 14.7458 3.05071 14.7458H13.2202C13.501 14.7458 13.7287 14.9735 13.7287 15.2543C13.7287 15.5351 13.501 15.7628 13.2202 15.7628Z" fill="#285680"/>
<path d="M12.2034 19.322H15.2542V25.4237H12.2034C11.3609 25.4237 10.678 24.7408 10.678 23.8983V20.8474C10.678 20.005 11.3609 19.322 12.2034 19.322Z" fill="#CC66A1"/>
<path d="M22.373 30.0001C22.0922 30.0001 21.8645 29.7724 21.8645 29.4916C21.8645 29.2108 22.0922 28.9831 22.373 28.9831C26.0237 28.9831 28.9831 26.0237 28.9831 22.373C28.9831 18.7223 26.0237 15.7628 22.373 15.7628C22.0922 15.7628 21.8645 15.5351 21.8645 15.2543C21.8645 14.9735 22.0922 14.7458 22.373 14.7458C26.5853 14.7458 30.0001 18.1606 30.0001 22.373C30.0001 26.5853 26.5853 30.0001 22.373 30.0001Z" fill="#FF5364"/>
<path d="M22.373 27.966C22.0922 27.966 21.8645 27.7383 21.8645 27.4575C21.8645 27.1767 22.0922 26.949 22.373 26.949C24.9004 26.949 26.9492 24.9002 26.9492 22.3728C26.9492 19.8454 24.9004 17.7965 22.373 17.7965C22.0922 17.7965 21.8645 17.5688 21.8645 17.288C21.8645 17.0072 22.0922 16.7795 22.373 16.7795C25.462 16.7795 27.9662 19.2837 27.9662 22.3728C27.9662 25.4618 25.462 27.966 22.373 27.966Z" fill="#FF5364"/>
<path d="M22.373 25.9321C22.0922 25.9321 21.8645 25.7045 21.8645 25.4236C21.8645 25.1428 22.0922 24.9152 22.373 24.9152C23.7771 24.9152 24.9153 23.7769 24.9153 22.3728C24.9153 20.9687 23.7771 19.8304 22.373 19.8304C22.0922 19.8304 21.8645 19.6028 21.8645 19.322C21.8645 19.0411 22.0922 18.8135 22.373 18.8135C24.3387 18.8135 25.9323 20.407 25.9323 22.3728C25.9323 24.3386 24.3387 25.9321 22.373 25.9321Z" fill="#FF5364"/>
<path d="M18.8352 28.3491L14.7458 25.4238V19.3221L18.8352 16.3969C19.1502 16.225 19.5326 16.232 19.8412 16.4152C20.1499 16.5984 20.3391 16.9307 20.3391 17.2897V27.4563C20.3391 27.8152 20.1499 28.1476 19.8412 28.3308C19.5326 28.514 19.1502 28.5209 18.8352 28.3491Z" fill="#894B9D"/>
</svg>
