<svg width="36" height="36" viewBox="0 0 36 36" fill="none" xmlns="http://www.w3.org/2000/svg">
<path d="M27.6089 17.2108H18.7893V8.39123C18.7893 8.18194 18.7062 7.98122 18.5582 7.83323C18.4102 7.68524 18.2095 7.6021 18.0002 7.6021C17.7909 7.6021 17.5902 7.68524 17.4422 7.83323C17.2942 7.98122 17.211 8.18194 17.211 8.39123V17.2108H8.39147C8.18218 17.2108 7.98146 17.2939 7.83347 17.4419C7.68548 17.5899 7.60234 17.7906 7.60234 17.9999C7.60234 18.2092 7.68548 18.4099 7.83347 18.5579C7.98146 18.7059 8.18218 18.7891 8.39147 18.7891H17.211V27.6086C17.211 27.8179 17.2942 28.0186 17.4422 28.1666C17.5902 28.3146 17.7909 28.3977 18.0002 28.3977C18.2095 28.3977 18.4102 28.3146 18.5582 28.1666C18.7062 28.0186 18.7893 27.8179 18.7893 27.6086V18.7891H27.6089C27.8181 18.7891 28.0189 18.7059 28.1669 18.5579C28.3148 18.4099 28.398 18.2092 28.398 17.9999C28.398 17.7906 28.3148 17.5899 28.1669 17.4419C28.0189 17.2939 27.8181 17.2108 27.6089 17.2108Z" fill="#0097F9" stroke="#0097F9" stroke-width="0.1"/>
<path d="M18.0001 0.95H18C14.6278 0.95 11.3314 1.94996 8.52753 3.82344C5.72368 5.69692 3.53834 8.35977 2.24786 11.4752C0.957387 14.5907 0.619741 18.0189 1.27762 21.3263C1.9355 24.6337 3.55935 27.6717 5.94384 30.0562C8.32832 32.4406 11.3663 34.0645 14.6737 34.7224C17.9811 35.3803 21.4093 35.0426 24.5248 33.7521C27.6402 32.4617 30.3031 30.2763 32.1766 27.4725C34.05 24.6686 35.05 21.3722 35.05 18C35.0449 13.4796 33.2469 9.14582 30.0506 5.94945C26.8542 2.75307 22.5204 0.955101 18.0001 0.95ZM18 33.4717C14.94 33.4717 11.9487 32.5643 9.40437 30.8643C6.86005 29.1642 4.877 26.7479 3.70598 23.9208C2.53496 21.0937 2.22857 17.9828 2.82555 14.9816C3.42253 11.9804 4.89607 9.22359 7.05983 7.05983C9.22359 4.89607 11.9804 3.42253 14.9816 2.82555C17.9828 2.22857 21.0937 2.53496 23.9208 3.70598C26.7479 4.877 29.1642 6.86005 30.8643 9.40436C32.5643 11.9487 33.4717 14.94 33.4717 18C33.4671 22.1019 31.8355 26.0345 28.935 28.935C26.0345 31.8355 22.1019 33.4671 18 33.4717Z" fill="#0097F9" stroke="#0097F9" stroke-width="0.1"/>
</svg>
