<svg xmlns="http://www.w3.org/2000/svg" width="29" height="32" viewBox="0 0 29 32">
  <g id="Group_1517" data-name="Group 1517" transform="translate(-1614.759 2572.408)">
    <path id="Path_7080" data-name="Path 7080" d="M36.407,31.879,32.084,29.09a.556.556,0,0,0-.859.469v5.578a.554.554,0,0,0,.558.558.529.529,0,0,0,.3-.089l4.323-2.789a.556.556,0,0,0,0-.937Z" transform="translate(1595.849 -2588.756)" fill="#4ebeda"/>
    <rect id="Rectangle_699" data-name="Rectangle 699" width="4.117" height="3.955" transform="translate(1614.759 -2549.738)" fill="#4ebeda"/>
    <rect id="Rectangle_700" data-name="Rectangle 700" width="4.117" height="3.949" transform="translate(1614.759 -2554.06)" fill="#4ebeda"/>
    <rect id="Rectangle_701" data-name="Rectangle 701" width="4.117" height="3.949" transform="translate(1614.759 -2558.383)" fill="#4ebeda"/>
    <rect id="Rectangle_702" data-name="Rectangle 702" width="4.117" height="3.949" transform="translate(1614.759 -2562.706)" fill="#4ebeda"/>
    <rect id="Rectangle_703" data-name="Rectangle 703" width="4.117" height="3.955" transform="translate(1614.759 -2567.034)" fill="#4ebeda"/>
    <path id="Path_7081" data-name="Path 7081" d="M10,2H6.443a.559.559,0,0,0-.558.558V7.182H10V2Z" transform="translate(1608.874 -2574.408)" fill="#4ebeda"/>
    <path id="Path_7082" data-name="Path 7082" d="M6.443,63.892H10V58.71H5.885v4.624A.559.559,0,0,0,6.443,63.892Z" transform="translate(1608.874 -2604.301)" fill="#4ebeda"/>
    <path id="Path_7083" data-name="Path 7083" d="M60.852,2.558A.559.559,0,0,0,60.294,2H56.735V7.182h4.117Z" transform="translate(1582.907 -2574.408)" fill="#4ebeda"/>
    <rect id="Rectangle_704" data-name="Rectangle 704" width="4.117" height="3.955" transform="translate(1639.642 -2567.034)" fill="#4ebeda"/>
    <rect id="Rectangle_705" data-name="Rectangle 705" width="4.117" height="3.949" transform="translate(1639.642 -2562.706)" fill="#4ebeda"/>
    <rect id="Rectangle_706" data-name="Rectangle 706" width="4.117" height="3.949" transform="translate(1639.642 -2558.383)" fill="#4ebeda"/>
    <rect id="Rectangle_707" data-name="Rectangle 707" width="4.117" height="3.949" transform="translate(1639.642 -2554.06)" fill="#4ebeda"/>
    <rect id="Rectangle_708" data-name="Rectangle 708" width="4.117" height="3.955" transform="translate(1639.642 -2549.738)" fill="#4ebeda"/>
    <path id="Path_7084" data-name="Path 7084" d="M60.852,63.334V58.71H56.735v5.182h3.559A.559.559,0,0,0,60.852,63.334Z" transform="translate(1582.907 -2604.301)" fill="#4ebeda"/>
    <path id="Path_7085" data-name="Path 7085" d="M33.8,33.515V2.485A.476.476,0,0,0,33.33,2h-17.6a.476.476,0,0,0-.47.485v31.03a.476.476,0,0,0,.47.485h17.6A.476.476,0,0,0,33.8,33.515ZM24.535,24.4a6.308,6.308,0,0,1-6.2-6.4,6.2,6.2,0,1,1,12.393,0A6.307,6.307,0,0,1,24.535,24.4Z" transform="translate(1604.726 -2574.408)" fill="#4ebeda"/>
  </g>
</svg>
