<svg width="28" height="28" viewBox="0 0 28 28" fill="none" xmlns="http://www.w3.org/2000/svg">
<path d="M22.2031 15.6411C22.2031 10.6656 18.1544 6.61768 13.1797 6.61768C8.20493 6.61768 4.15625 10.6656 4.15625 15.6411C4.15625 20.6166 8.20493 24.6646 13.1797 24.6646C18.1544 24.6646 22.2031 20.6166 22.2031 15.6411ZM27.1797 23.0786H24.7188L18.1016 26.3599C18.1016 27.266 25.4533 28.0005 26.3594 28.0005C27.2655 28.0005 28 27.266 28 26.3599V23.8989C28 23.4459 27.6327 23.0786 27.1797 23.0786ZM22.2578 0.000488281H2.46094C1.09922 0.000488281 0 1.09971 0 2.46143C0 2.92075 0.360883 3.28174 0.820312 3.28174H1.64062L23.0781 6.61768L22.2578 0.000488281Z" fill="url(#paint0_linear)"/>
<path d="M24.7188 26.3594V2.50062C24.7188 1.14874 23.6451 0.0192254 22.2934 0.000248827C20.9152 -0.0190559 19.7969 1.08738 19.7969 2.46097C19.7969 2.914 19.4296 3.28128 18.9766 3.28128H1.64062V23.8985C1.64062 26.1637 3.47698 28 5.74219 28H26.3594C25.457 28 24.7188 27.2617 24.7188 26.3594ZM13.1797 23.8438C8.65156 23.8438 4.97656 20.1688 4.97656 15.6407C4.97656 11.1125 8.65156 7.43753 13.1797 7.43753C17.7078 7.43753 21.3828 11.1125 21.3828 15.6407C21.3828 20.1688 17.7078 23.8438 13.1797 23.8438ZM13.1797 10.7188C11.8227 10.7188 10.7188 11.8227 10.7188 13.1797C10.7188 13.6331 11.0856 14 11.5391 14C11.9925 14 12.3594 13.6331 12.3594 13.1797C12.3594 12.7271 12.7279 12.3594 13.1797 12.3594C13.6315 12.3594 14 12.7271 14 13.1797C14 13.4721 13.843 13.7445 13.5883 13.8911C12.8304 14.3301 12.3594 15.1464 12.3594 16.022V16.461C12.3594 16.9144 12.7263 17.2813 13.1797 17.2813C13.6331 17.2813 14 16.9144 14 16.461V16.022C14 15.7304 14.157 15.4572 14.4102 15.3106C15.1696 14.8724 15.6406 14.0553 15.6406 13.1797C15.6406 11.8227 14.5367 10.7188 13.1797 10.7188ZM13.1797 18.9219C12.7267 18.9219 12.3594 19.2892 12.3594 19.7422C12.3594 20.1952 12.7267 20.5625 13.1797 20.5625C13.6327 20.5625 14 20.1952 14 19.7422C14 19.2892 13.6327 18.9219 13.1797 18.9219Z" fill="url(#paint1_linear)"/>
<defs>
<linearGradient id="paint0_linear" x1="14" y1="28.0005" x2="14" y2="0.000488281" gradientUnits="userSpaceOnUse">
<stop stop-color="#ADDCFF"/>
<stop offset="0.5028" stop-color="#EAF6FF"/>
<stop offset="1" stop-color="#EAF6FF"/>
</linearGradient>
<linearGradient id="paint1_linear" x1="14" y1="20.5883" x2="14" y2="10.7059" gradientUnits="userSpaceOnUse">
<stop stop-color="#5558FF"/>
<stop offset="1" stop-color="#00C0FF"/>
</linearGradient>
</defs>
</svg>
