<svg width="35" height="35" viewBox="0 0 35 35" fill="none" xmlns="http://www.w3.org/2000/svg">
<path d="M32.5589 19.9411C33.9071 11.6244 28.2579 3.78934 19.9412 2.44113C11.6244 1.09292 3.78936 6.74205 2.44115 15.0588C1.09294 23.3756 6.74208 31.2106 15.0588 32.5588C23.3756 33.907 31.2106 28.2579 32.5589 19.9411Z" fill="#EBF7FE"/>
<path d="M25.8291 21.9561L18.9469 19.1045C18.7993 19.0434 18.6732 18.9399 18.5845 18.8071C18.4958 18.6743 18.4485 18.5182 18.4485 18.3585V16.6443C18.4485 16.4847 18.4958 16.3286 18.5845 16.1958C18.6732 16.063 18.7993 15.9595 18.9469 15.8984L25.8291 13.0459C25.9518 12.9951 26.0851 12.9753 26.2173 12.9882C26.3494 13.0012 26.4764 13.0466 26.5868 13.1204C26.6972 13.1942 26.7877 13.2941 26.8503 13.4112C26.9129 13.5283 26.9456 13.6591 26.9456 13.7919V21.2102C26.9456 21.343 26.9129 21.4737 26.8503 21.5909C26.7877 21.708 26.6972 21.8079 26.5868 21.8816C26.4764 21.9554 26.3494 22.0008 26.2173 22.0138C26.0851 22.0268 25.9518 22.007 25.8291 21.9561Z" fill="#F13800"/>
<path d="M19.0573 12.5842H8.87078C8.42492 12.5842 8.06348 12.9457 8.06348 13.3915V21.6112C8.06348 22.0571 8.42492 22.4185 8.87078 22.4185H19.0573C19.5032 22.4185 19.8646 22.0571 19.8646 21.6112V13.3915C19.8646 12.9457 19.5032 12.5842 19.0573 12.5842Z" fill="#FF651B"/>
</svg>
