<svg xmlns="http://www.w3.org/2000/svg" width="80" height="80" viewBox="0 0 80 80">
  <g id="Dowload_Certi" data-name="Dowload Certi" transform="translate(3.699 3.254)">
    <rect id="Rectangle_2067" data-name="Rectangle 2067" width="80" height="80" transform="translate(-3.699 -3.254)" fill="none"/>
    <g id="Group_4332" data-name="Group 4332" transform="translate(-2.699 4.746)">
      <g id="Group_4303" data-name="Group 4303" transform="translate(15.26 13.672)">
        <g id="Group_4302" data-name="Group 4302">
          <path id="Path_1816" data-name="Path 1816" d="M149.035,137.141H103.88a1.163,1.163,0,0,0,0,2.325h45.156a1.163,1.163,0,0,0,0-2.325Z" transform="translate(-102.717 -137.141)" fill="#09346c"/>
        </g>
      </g>
      <g id="Group_4305" data-name="Group 4305" transform="translate(15.26 26.271)">
        <g id="Group_4304" data-name="Group 4304">
          <path id="Path_1817" data-name="Path 1817" d="M149.035,218.869H103.88a1.163,1.163,0,0,0,0,2.325h45.156a1.163,1.163,0,0,0,0-2.325Z" transform="translate(-102.717 -218.869)" fill="#09346c"/>
        </g>
      </g>
      <g id="Group_4307" data-name="Group 4307" transform="translate(30.064 34.447)">
        <g id="Group_4306" data-name="Group 4306">
          <path id="Path_1818" data-name="Path 1818" d="M215.011,271.909H199.464a1.163,1.163,0,0,0,0,2.325h15.548a1.163,1.163,0,0,0,0-2.325Z" transform="translate(-198.301 -271.909)" fill="#09346c"/>
        </g>
      </g>
      <g id="Group_4309" data-name="Group 4309" transform="translate(26.561 19.946)">
        <g id="Group_4308" data-name="Group 4308">
          <path id="Path_1819" data-name="Path 1819" d="M211.642,177.838H177.96a1.163,1.163,0,1,0,0,2.325h33.682a1.163,1.163,0,1,0,0-2.325Z" transform="translate(-176.797 -177.838)" fill="#09346c"/>
        </g>
      </g>
      <g id="Group_4311" data-name="Group 4311" transform="translate(15.617 19.946)">
        <g id="Group_4310" data-name="Group 4310">
          <path id="Path_1820" data-name="Path 1820" d="M109.944,177.837H103.88a1.163,1.163,0,1,0,0,2.325h6.065a1.163,1.163,0,0,0,0-2.325Z" transform="translate(-102.717 -177.837)" fill="#09346c"/>
        </g>
      </g>
      <g id="Group_4313" data-name="Group 4313" transform="translate(5.573 5.803)">
        <g id="Group_4312" data-name="Group 4312">
          <path id="Path_1821" data-name="Path 1821" d="M102.418,91.882a1.39,1.39,0,0,0-.991-.412h0a4.34,4.34,0,0,1-4.307-4.194,1.413,1.413,0,0,0-1.4-1.364H42.836a1.413,1.413,0,0,0-1.4,1.364,4.381,4.381,0,0,1-4.109,4.189A1.416,1.416,0,0,0,35.985,92.9v30.05a1.416,1.416,0,0,0,1.338,1.431,4.381,4.381,0,0,1,4.109,4.189,1.413,1.413,0,0,0,1.4,1.364H76.5a1.163,1.163,0,0,0,0-2.325H43.62a6.608,6.608,0,0,0-5.354-5.459V93.7a6.608,6.608,0,0,0,5.354-5.458H94.932a6.636,6.636,0,0,0,5.625,5.5V113.48a1.141,1.141,0,1,0,2.281,0V92.9A1.435,1.435,0,0,0,102.418,91.882Z" transform="translate(-35.985 -85.913)" fill="#58a5da"/>
        </g>
      </g>
      <g id="Group_4315" data-name="Group 4315">
        <g id="Group_4314" data-name="Group 4314">
          <path id="Path_1822" data-name="Path 1822" d="M74.826,48.445H3.174A3.2,3.2,0,0,0,0,51.657V100.6a3.2,3.2,0,0,0,3.174,3.212h48l-1.7,3.6a1.384,1.384,0,0,0,.138,1.416,1.348,1.348,0,0,0,1.3.534l3.164-.515,1.765,2.931a1.353,1.353,0,0,0,1.159.66l.069,0a1.357,1.357,0,0,0,1.157-.781l3.066-6.5,3.066,6.5a1.357,1.357,0,0,0,1.157.781l.07,0a1.353,1.353,0,0,0,1.159-.659l1.765-2.931,3.164.515a1.347,1.347,0,0,0,1.3-.534,1.383,1.383,0,0,0,.138-1.415l-1.7-3.6h3.412A3.2,3.2,0,0,0,78,100.6V51.657A3.2,3.2,0,0,0,74.826,48.445ZM56.9,109.1l-1.2-1.988a1.347,1.347,0,0,0-1.375-.642L52.3,106.8l2.14-4.538a4.048,4.048,0,0,0,3.292,1.223,1.769,1.769,0,0,1,1.2.326,4.048,4.048,0,0,0,.356.226Zm4.664-6.862h-.011a1.775,1.775,0,0,1-.523,0l-.013,0a1.771,1.771,0,0,1-.761-.313,4.04,4.04,0,0,0-2.36-.762q-.192,0-.384.018a1.783,1.783,0,0,1-1.792-1.047,4.128,4.128,0,0,0-.527-.86c-.009-.013-.019-.025-.029-.038l-.034-.043c-.013-.016-.027-.031-.041-.046A4.075,4.075,0,0,0,53.712,98.1a1.812,1.812,0,0,1-1.035-1.814,4.16,4.16,0,0,0-.735-2.777,1.827,1.827,0,0,1,0-2.094,4.16,4.16,0,0,0,.735-2.777,1.812,1.812,0,0,1,1.035-1.814,4.1,4.1,0,0,0,2.008-2.033,1.785,1.785,0,0,1,1.792-1.047A4.038,4.038,0,0,0,60.257,83a1.77,1.77,0,0,1,2.07,0,4.042,4.042,0,0,0,2.744.744,1.783,1.783,0,0,1,1.792,1.047,4.1,4.1,0,0,0,2.008,2.033,1.813,1.813,0,0,1,1.035,1.814,4.16,4.16,0,0,0,.735,2.777,1.826,1.826,0,0,1,0,2.094,4.161,4.161,0,0,0-.735,2.777A1.813,1.813,0,0,1,68.871,98.1,4.076,4.076,0,0,0,67.5,99.144c-.016.016-.031.033-.045.05l-.029.037c-.011.015-.023.029-.034.045a4.124,4.124,0,0,0-.526.858,1.784,1.784,0,0,1-1.792,1.047,4.043,4.043,0,0,0-2.744.744A1.771,1.771,0,0,1,61.564,102.237Zm6.691,4.232a1.348,1.348,0,0,0-1.375.642l-1.2,1.988L63.3,104.036a4.074,4.074,0,0,0,.356-.226,1.768,1.768,0,0,1,1.2-.326,4.047,4.047,0,0,0,3.292-1.222l2.14,4.538Zm7.458-5.865a.894.894,0,0,1-.887.9h-4.5l-.59-1.25c.03-.016.059-.033.09-.047a4.134,4.134,0,0,0,2.36-4.136A1.824,1.824,0,0,1,72.5,94.85a4.166,4.166,0,0,0,0-4.776,1.824,1.824,0,0,1-.322-1.218,4.133,4.133,0,0,0-2.36-4.136,1.8,1.8,0,0,1-.881-.891,4.07,4.07,0,0,0-4.087-2.388,1.768,1.768,0,0,1-1.2-.326,4.037,4.037,0,0,0-4.72,0,1.77,1.77,0,0,1-1.2.326,4.068,4.068,0,0,0-4.087,2.388,1.8,1.8,0,0,1-.881.891,4.133,4.133,0,0,0-2.36,4.136,1.824,1.824,0,0,1-.322,1.218,4.166,4.166,0,0,0,0,4.776,1.824,1.824,0,0,1,.322,1.218,4.133,4.133,0,0,0,2.36,4.136c.031.014.06.031.09.047l-.59,1.251H3.174a.894.894,0,0,1-.887-.9V51.657a.894.894,0,0,1,.887-.9H74.826a.894.894,0,0,1,.887.9V100.6Z" transform="translate(0 -48.445)" fill="#09346c"/>
        </g>
      </g>
      <g id="Group_4317" data-name="Group 4317" transform="translate(54.029 36.571)">
        <g id="Group_4316" data-name="Group 4316" transform="translate(0.316 0.201)">
          <path id="Path_1823" data-name="Path 1823" d="M362.371,287.312a7.228,7.228,0,1,0,7.228,7.228A7.236,7.236,0,0,0,362.371,287.312Zm0,12.129a4.9,4.9,0,1,1,4.9-4.9A4.907,4.907,0,0,1,362.371,299.441Z" transform="translate(-355.143 -287.312)" fill="#58a5da"/>
          <path id="Icon_material-file-download" data-name="Icon material-file-download" d="M13.547,6.634H11.82V4.5H9.228V6.634H7.5l3.024,2.49ZM7.5,9.836v.711h6.047V9.836Z" transform="translate(-3.296 -0.296)" fill="#58a5da"/>
        </g>
      </g>
    </g>
  </g>
</svg>
