<svg width="15" height="15" viewBox="0 0 15 15" fill="none" xmlns="http://www.w3.org/2000/svg">
<path d="M9.5 14.5H9C9 14.5929 9.02586 14.6839 9.07467 14.7629C9.12349 14.8419 9.19334 14.9057 9.27639 14.9472C9.35945 14.9887 9.45242 15.0063 9.5449 14.998C9.63738 14.9896 9.72572 14.9557 9.8 14.9L9.5 14.5ZM11.5 13L11.8 12.6C11.7135 12.5351 11.6082 12.5 11.5 12.5C11.3918 12.5 11.2865 12.5351 11.2 12.6L11.5 13V13ZM13.5 14.5L13.2 14.9C13.2743 14.9557 13.3626 14.9896 13.4551 14.998C13.5476 15.0063 13.6406 14.9887 13.7236 14.9472C13.8067 14.9057 13.8765 14.8419 13.9253 14.7629C13.9741 14.6839 14 14.5929 14 14.5H13.5ZM11.5 11C10.837 11 10.2011 10.7366 9.73223 10.2678C9.26339 9.79893 9 9.16304 9 8.5H8C8 9.42826 8.36875 10.3185 9.02513 10.9749C9.6815 11.6313 10.5717 12 11.5 12V11ZM14 8.5C14 9.16304 13.7366 9.79893 13.2678 10.2678C12.7989 10.7366 12.163 11 11.5 11V12C12.4283 12 13.3185 11.6313 13.9749 10.9749C14.6313 10.3185 15 9.42826 15 8.5H14ZM11.5 6C12.163 6 12.7989 6.26339 13.2678 6.73223C13.7366 7.20107 14 7.83696 14 8.5H15C15 7.57174 14.6313 6.6815 13.9749 6.02513C13.3185 5.36875 12.4283 5 11.5 5V6ZM11.5 5C10.5717 5 9.6815 5.36875 9.02513 6.02513C8.36875 6.6815 8 7.57174 8 8.5H9C9 7.83696 9.26339 7.20107 9.73223 6.73223C10.2011 6.26339 10.837 6 11.5 6V5ZM9 10.5V14.5H10V10.5H9ZM9.8 14.9L11.8 13.4L11.2 12.6L9.2 14.1L9.8 14.9ZM11.2 13.4L13.2 14.9L13.8 14.1L11.8 12.6L11.2 13.4ZM14 14.5V10.5H13V14.5H14ZM15 5V1.5H14V5H15ZM13.5 0H1.5V1H13.5V0ZM0 1.5V13.5H1V1.5H0ZM1.5 15H8V14H1.5V15ZM0 13.5C0 13.8978 0.158035 14.2794 0.43934 14.5607C0.720644 14.842 1.10218 15 1.5 15V14C1.36739 14 1.24021 13.9473 1.14645 13.8536C1.05268 13.7598 1 13.6326 1 13.5H0ZM1.5 0C1.10218 0 0.720644 0.158035 0.43934 0.43934C0.158035 0.720644 0 1.10218 0 1.5H1C1 1.36739 1.05268 1.24021 1.14645 1.14645C1.24021 1.05268 1.36739 1 1.5 1V0ZM15 1.5C15 1.10218 14.842 0.720644 14.5607 0.43934C14.2794 0.158035 13.8978 0 13.5 0V1C13.6326 1 13.7598 1.05268 13.8536 1.14645C13.9473 1.24021 14 1.36739 14 1.5H15ZM3 5H8V4H3V5ZM3 8H6V7H3V8Z" fill="#7E3CB1"/>
<circle cx="11.5" cy="8.5" r="3.5" fill="#7E3CB1"/>
<circle cx="11.5" cy="8.5" r="1.5" fill="white"/>
</svg>
