<svg xmlns="http://www.w3.org/2000/svg" width="80" height="80" viewBox="0 0 80 80">
  <g id="Manage_Fee" data-name="Manage Fee" transform="translate(-68 36)">
    <rect id="Rectangle_44" data-name="Rectangle 44" width="80" height="80" transform="translate(68 -36)" fill="none"/>
    <g id="Cash" transform="translate(65.013 -27)">
      <path id="Path_160" data-name="Path 160" d="M143.083-4.746l-.781-7.226-64.176,3.1,1.891,35.548h3.22V-4.67l59.842.026" transform="translate(-67.485 25.219)" fill="#56a6db"/>
      <path id="Path_161" data-name="Path 161" d="M64.955,7.226,64.174,0,0,3.1,1.892,38.649h3.22V7.3l59.841.028" transform="matrix(0.999, -0.035, 0.035, 0.999, 6.687, 8.377)" fill="#56a6db"/>
      <path id="Subtraction_3" data-name="Subtraction 3" d="M74.882,52H10.694a1.047,1.047,0,0,1-1.1-1.111V47.778L7.5,47.889a.993.993,0,0,1-.771-.333,1.01,1.01,0,0,1-.33-.778l-.11-3.222-1.872.222h-.11a.809.809,0,0,1-.661-.222,1.135,1.135,0,0,1-.441-.778L.014,7.111A1.116,1.116,0,0,1,1,5.889L64.973,0a2,2,0,0,1,.463.064,1.421,1.421,0,0,0,.308.047,1.138,1.138,0,0,1,.44.778L66.734,7l3.3-.111a.993.993,0,0,1,.771.334,1.009,1.009,0,0,1,.33.777l.22,6h3.634a1.022,1.022,0,0,1,.8.367.9.9,0,0,1,.19.744V50.889A1.047,1.047,0,0,1,74.882,52ZM11.9,16.223V49.889H73.891V16.223Zm57.032-7L7.06,12.111,8.6,45.667H9.7V15.111A1.047,1.047,0,0,1,10.8,14H69.157l-.22-4.777ZM64.093,2.334,2.326,8,5.3,41.556l.881-.111L4.859,11.111A1.109,1.109,0,0,1,5.959,10L64.532,7.223l-.44-4.889Zm4.734,42.444H66.514V43.667h1.212v-1h1.1v2.11Zm-6.166,0h-3.3V43.667h3.3v1.11Zm-7.156,0H52.2V43.667h3.3v1.11Zm-21.91,0h-3.3V43.667h3.3v1.11Zm-7.156,0h-3.3V43.667h3.3v1.11Zm-7.156,0H16.969V42.667h1.1v1h1.212v1.11Zm49.545-6.333h-1.1V35.111h1.1v3.333Zm-50.757,0h-1.1V35.111h1.1v3.333ZM68.827,31h-1.1V27.667h1.1V31ZM18.07,31h-1.1V27.667h1.1V31Zm50.757-7.555h-1.1v-1H66.514V21.334h2.313v2.11Zm-50.757,0h-1.1V21.334h2.313v1.111H18.07v1Zm44.59-1h-3.3V21.334h3.3v1.11Zm-7.156,0H52.2V21.334h3.3v1.11Zm-21.91,0h-3.3V21.334h3.3v1.11Zm-7.156,0h-3.3V21.334h3.3v1.11Z" transform="translate(4.987 5)" fill="#0a346c"/>
      <path id="Path_147" data-name="Path 147" d="M.557,6.021,7.225,5.2A3.736,3.736,0,0,0,6.732,4.2a2.439,2.439,0,0,0-.815-.723,3.48,3.48,0,0,0-1.211-.382A6.2,6.2,0,0,0,3.069,3.1L.237,3.449,0,1.524,12.414,0l.242,1.936-4.509.553a4.624,4.624,0,0,1,.794,1.067A5.441,5.441,0,0,1,9.46,4.94l3.518-.432.237,1.925-3.588.441a5.459,5.459,0,0,1-3.515,4.911v.055a4.873,4.873,0,0,1,.915.4,5.819,5.819,0,0,1,.823.576,7.984,7.984,0,0,1,.816.787q.41.451.887,1.038l4.2,5.207-2.612.32L7.364,15.3q-.548-.7-1.024-1.228a4.881,4.881,0,0,0-.984-.856,3.226,3.226,0,0,0-1.088-.453,4.01,4.01,0,0,0-1.323-.033L1.4,12.923l-.232-1.884,2.819-.346A3.96,3.96,0,0,0,5.3,10.3a3.907,3.907,0,0,0,1.055-.771,3.8,3.8,0,0,0,.733-1.081,4.1,4.1,0,0,0,.346-1.32L.792,7.946Z" transform="translate(41.973 27.064) rotate(8)" fill="#56a6db"/>
    </g>
  </g>
</svg>
