<svg xmlns="http://www.w3.org/2000/svg" width="80" height="80" viewBox="0 0 80 80">
  <g id="Note" transform="translate(-216 -57.264)">
    <rect id="Rectangle_2068" data-name="Rectangle 2068" width="80" height="80" transform="translate(216 57.264)" fill="none"/>
    <g id="Group_4333" data-name="Group 4333" transform="translate(219 11)">
      <path id="Path_1843" data-name="Path 1843" d="M-2178.9-1956.352l6.566-6.566,4.616,4.616-6.792,6.792Z" transform="translate(2240.428 2021.936)" fill="#58a5da"/>
      <path id="Path_1844" data-name="Path 1844" d="M181.083,350.627l3.355-6.763,3.859,3.887-5.626,1.682" transform="translate(-154.779 -244.895)" fill="#58a5da"/>
      <path id="Border" d="M74,63.919a4.222,4.222,0,0,0-1.227-2.991l-1.646-1.662a4.162,4.162,0,0,0-5.925,0L57.448,67.1V58.752a1.481,1.481,0,0,0-1.474-1.488H1.474A1.481,1.481,0,0,0,0,58.752v55.023a1.481,1.481,0,0,0,1.474,1.488h54.5a1.481,1.481,0,0,0,1.474-1.488V82.384L72.773,66.91A4.223,4.223,0,0,0,74,63.919ZM54.5,112.287H2.948V60.241H54.5v9.832L27.511,97.32a1.492,1.492,0,0,0-.356.582l-2.743,8.309a1.5,1.5,0,0,0,.356,1.523,1.464,1.464,0,0,0,1.509.36l8.229-2.769a1.473,1.473,0,0,0,.576-.36L54.5,85.36Zm-21.256-9.677-5.1,1.717,1.7-5.152,31.3-31.6,3.4,3.434ZM70.688,64.805l-4.06,4.1-1.7-1.717-1.7-1.717,4.06-4.1a1.233,1.233,0,0,1,1.756,0l1.646,1.662h0a1.262,1.262,0,0,1,0,1.773Z" transform="translate(0 0)" fill="#09346c"/>
      <g id="Lines" transform="translate(9.881 66.613)">
        <path id="Path_1825" data-name="Path 1825" d="M301.094,121.009h-1.412a1.481,1.481,0,1,0,0,2.961h1.412a1.481,1.481,0,1,0,0-2.961Z" transform="translate(-264.793 -121.009)" fill="#58a5da"/>
        <path id="Path_1826" data-name="Path 1826" d="M96.526,121.009H69.549a1.481,1.481,0,0,0,0,2.961H96.527a1.481,1.481,0,1,0,0-2.961Z" transform="translate(-68.068 -121.009)" fill="#58a5da"/>
        <path id="Path_1827" data-name="Path 1827" d="M95.115,180.434H69.549a1.481,1.481,0,0,0,0,2.961H95.115a1.481,1.481,0,1,0,0-2.961Z" transform="translate(-68.068 -171.807)" fill="#58a5da"/>
        <path id="Path_1828" data-name="Path 1828" d="M85.861,239.859H69.549a1.481,1.481,0,1,0,0,2.961H85.861a1.481,1.481,0,1,0,0-2.961Z" transform="translate(-68.068 -222.606)" fill="#58a5da"/>
        <path id="Path_1829" data-name="Path 1829" d="M78.8,298.2H69.549a1.481,1.481,0,0,0,0,2.961H78.8a1.481,1.481,0,0,0,0-2.961Z" transform="translate(-68.068 -272.479)" fill="#58a5da"/>
      </g>
    </g>
  </g>
</svg>
