<svg xmlns="http://www.w3.org/2000/svg" width="80" height="80" viewBox="0 0 80 80">
  <g id="Open_User" data-name="Open User" transform="translate(364 -82)">
    <rect id="Rectangle_2026" data-name="Rectangle 2026" width="80" height="80" transform="translate(-364 82)" fill="none"/>
    <g id="Group_4268" data-name="Group 4268" transform="translate(-350.992 85)">
      <path id="Path_1777" data-name="Path 1777" d="M66.9,54.5a26.765,26.765,0,0,0-7.179-5.188h0a26.261,26.261,0,0,0-5.778-2.082,16.546,16.546,0,0,0,8.838-22.053h4.589a.937.937,0,0,0,0-1.874H62.136l-.561-7.821a6.985,6.985,0,0,0-2.916-5.205,6.826,6.826,0,0,0-5.823-1.025l-5.3,1.474-5.3-1.474a6.855,6.855,0,0,0-5.839,1.028,6.988,6.988,0,0,0-2.914,5.2l-.561,7.82H27.691a.937.937,0,0,0,0,1.874H33a16.542,16.542,0,0,0,8.847,22.054,26.276,26.276,0,0,0-5.776,2.082h0A27.021,27.021,0,0,0,21,73.725V84.89a.932.932,0,0,0,.927.937H73.848a.932.932,0,0,0,.927-.937V73.725A27.191,27.191,0,0,0,66.9,54.5Zm-32.121-31.2.231-3.224H60.046l.231,3.224Zm.551-7.683a5.117,5.117,0,0,1,2.134-3.808,5.025,5.025,0,0,1,4.277-.753L47.288,12.6a.919.919,0,0,0,.493,0l5.548-1.542a4.993,4.993,0,0,1,4.262.75,5.117,5.117,0,0,1,2.136,3.81l.186,2.587H35.144Zm-1.915,16.3a14.692,14.692,0,0,1,1.633-6.747H60.725a14.515,14.515,0,1,1-27.31,6.747Zm24.3,18.518c-.03.028-.056.06-.086.087-.136.125-.28.239-.42.359-.227.193-.454.386-.691.564-.159.119-.323.229-.486.341-.232.16-.467.317-.707.462-.174.105-.351.2-.528.3q-.365.2-.74.38c-.183.087-.367.171-.553.25-.258.11-.519.209-.783.3-.187.067-.373.134-.563.194-.277.086-.559.159-.841.228-.183.045-.364.1-.549.133-.314.065-.633.11-.952.153-.157.021-.313.052-.471.068a13.6,13.6,0,0,1-2.9,0c-.158-.016-.312-.046-.469-.067-.32-.043-.64-.089-.956-.154-.183-.038-.363-.087-.544-.132-.284-.07-.567-.143-.846-.23-.188-.059-.373-.126-.558-.192-.266-.1-.529-.2-.789-.306-.184-.078-.367-.162-.548-.248q-.379-.18-.747-.383c-.175-.1-.35-.194-.522-.3-.243-.147-.48-.305-.715-.467-.161-.111-.323-.219-.479-.337-.24-.18-.47-.374-.7-.57-.138-.118-.28-.23-.414-.353-.03-.028-.057-.06-.088-.088a24.831,24.831,0,0,1,19.645,0ZM72.921,83.953H65.247V74.375a.927.927,0,1,0-1.854,0v9.578H33.454V74.375a.927.927,0,1,0-1.854,0v9.578H22.851V73.725A25.159,25.159,0,0,1,36.274,51.309c.126.13.266.243.4.368.185.177.369.353.561.521.23.2.467.39.707.577.2.155.4.31.6.455.251.177.509.34.769.5.209.131.416.265.631.386.271.153.55.289.829.425.217.106.43.218.651.315.292.128.592.235.891.345.219.081.434.169.657.24.318.1.643.18.967.262.212.054.421.118.636.163.363.076.732.126,1.1.177.182.025.361.064.545.083a15.737,15.737,0,0,0,3.354,0c.183-.019.362-.058.544-.083.369-.051.738-.1,1.1-.177.215-.045.424-.11.637-.164.324-.082.649-.161.966-.262.222-.071.438-.16.656-.24.3-.11.6-.218.891-.346.221-.1.435-.208.651-.315.279-.137.558-.273.828-.425.215-.121.422-.256.632-.387.259-.162.517-.325.767-.5.206-.146.4-.3.6-.457.239-.186.476-.375.7-.575.193-.168.378-.345.563-.523.13-.125.269-.238.395-.367a24.951,24.951,0,0,1,6.078,4.52,25.321,25.321,0,0,1,7.334,17.9Z" transform="translate(-20.997 -9)" fill="#0a346c"/>
      <path id="Path_1778" data-name="Path 1778" d="M61.95,74.246H53.925a.96.96,0,0,0-.96.96v5.564a4.973,4.973,0,1,0,9.946,0V75.206A.96.96,0,0,0,61.95,74.246Zm-.96,6.524a3.052,3.052,0,1,1-6.1,0v-4.6h6.1v4.6Z" transform="translate(-23.558 -13.509)" fill="#0a346c"/>
    </g>
  </g>
</svg>
