<svg width="13" height="12" viewBox="0 0 13 12" fill="none" xmlns="http://www.w3.org/2000/svg">
<path d="M10.8486 0.972759H9.85911V0H9.19902V0.972759H3.92079V0H3.2607V0.972759H2.27119C1.3614 0.972759 0.621582 1.70005 0.621582 2.59443V10.3783C0.621582 11.2727 1.3614 12 2.27119 12H10.8486C11.7584 12 12.4982 11.2727 12.4982 10.3783V4.2161V3.5678V2.59443C12.4982 1.70066 11.7584 0.972759 10.8486 0.972759ZM11.8388 10.3783C11.8388 10.9148 11.395 11.3511 10.8492 11.3511H2.27119C1.72544 11.3511 1.28167 10.9148 1.28167 10.3783V4.2161H11.8388V10.3783ZM11.8388 3.5678H1.28105V2.59443C1.28105 2.05792 1.72482 1.62167 2.27057 1.62167H3.26008V2.27058H3.92079V1.62167H9.19964V2.27058H9.85973V1.62167H10.8492C11.395 1.62167 11.8388 2.05792 11.8388 2.59443V3.5678Z" fill="#08B42E"/>
<path d="M5.85333 7.36411H7.26685C7.65681 7.36411 7.97394 7.08883 7.97394 6.75033V5.52335C7.97394 5.18486 7.65681 4.90958 7.26685 4.90958H5.85333C5.46337 4.90958 5.14624 5.18486 5.14624 5.52335V6.75033C5.1469 7.08883 5.46403 7.36411 5.85333 7.36411ZM5.85333 5.52335H7.26685L7.26751 6.75033H5.85333V5.52335Z" fill="#08B42E"/>
<path d="M9.17607 7.36411H10.4483C10.7992 7.36411 11.0847 7.08883 11.0847 6.75033V5.52335C11.0847 5.18486 10.7992 4.90958 10.4483 4.90958H9.17607C8.8251 4.90958 8.53967 5.18486 8.53967 5.52335V6.75033C8.54027 7.08883 8.82569 7.36411 9.17607 7.36411ZM9.17607 5.52335H10.4483L10.4489 6.75033H9.17607V5.52335Z" fill="#08B42E"/>
<path d="M2.67179 10.3641H3.94399C4.29496 10.3641 4.58038 10.0888 4.58038 9.75034V8.52336C4.58038 8.18486 4.29496 7.90958 3.94399 7.90958H2.67179C2.32082 7.90958 2.0354 8.18486 2.0354 8.52336V9.75034C2.0354 10.0888 2.32082 10.3641 2.67179 10.3641ZM2.67179 8.52336H3.94399L3.94458 9.75034H2.67179V8.52336Z" fill="#08B42E"/>
<path d="M5.85333 10.3641H7.26685C7.65681 10.3641 7.97394 10.0888 7.97394 9.75034V8.52336C7.97394 8.18486 7.65681 7.90958 7.26685 7.90958H5.85333C5.46337 7.90958 5.14624 8.18486 5.14624 8.52336V9.75034C5.1469 10.0888 5.46403 10.3641 5.85333 10.3641ZM5.85333 8.52336H7.26685L7.26751 9.75034H5.85333V8.52336Z" fill="#08B42E"/>
<path d="M9.17607 10.3641H10.4483C10.7992 10.3641 11.0847 10.0888 11.0847 9.75034V8.52336C11.0847 8.18486 10.7992 7.90958 10.4483 7.90958H9.17607C8.8251 7.90958 8.53967 8.18486 8.53967 8.52336V9.75034C8.54027 10.0888 8.82569 10.3641 9.17607 10.3641ZM9.17607 8.52336H10.4483L10.4489 9.75034H9.17607V8.52336Z" fill="#08B42E"/>
</svg>
