<svg xmlns="http://www.w3.org/2000/svg" width="80" height="80" viewBox="0 0 80 80">
  <g id="Student_Archived" data-name="Student Archived" transform="translate(722.319 457.319)">
    <rect id="Rectangle_2013" data-name="Rectangle 2013" width="80" height="80" transform="translate(-722.319 -457.319)" fill="none"/>
    <g id="Upload" transform="translate(-720.11 -455.11)">
      <path id="Subtraction_5" data-name="Subtraction 5" d="M28.922,75.582H28.88a1.033,1.033,0,0,1-.49-.134,39.182,39.182,0,0,0-17.874-5.023A1.045,1.045,0,0,1,9.5,69.385V62.03H1.04A1.041,1.041,0,0,1,0,60.99,27.991,27.991,0,0,1,8.434,40.566a28.649,28.649,0,0,1,8.383-5.9A15.616,15.616,0,0,1,13.359,24.63a15.952,15.952,0,0,1,1.517-6.953L5.963,13.324a1.033,1.033,0,0,1-.584-.933,1.043,1.043,0,0,1,.583-.933L29.188.105a1.041,1.041,0,0,1,.913,0l23.221,11.35.005,0,.016.01a1.041,1.041,0,0,1,.49.536,1.165,1.165,0,0,1,.043.131,1,1,0,0,1,.031.279V23.888a1.039,1.039,0,1,1-2.078,0V14.057L44.34,17.72a16.142,16.142,0,0,1,1.484,6.911,15.57,15.57,0,0,1-3.888,10.541A30.331,30.331,0,0,1,55.19,48.95a12.369,12.369,0,0,0-1.684,1.335A28.057,28.057,0,0,0,40.424,36.742a15.635,15.635,0,0,1-10.812,4.1,15.71,15.71,0,0,1-11.306-4.562,26.322,26.322,0,0,0-8.4,5.752A25.917,25.917,0,0,0,2.1,59.953H9.5V47.16a1.046,1.046,0,0,1,.892-1.03,28.54,28.54,0,0,1,4.013-.289,26.564,26.564,0,0,1,14.517,4.35c4.983-2.994,9.8-4.512,14.31-4.512a19.53,19.53,0,0,1,4.262.467,1.033,1.033,0,0,1,.811,1.013V59.953h1.381a12.307,12.307,0,0,0,.3,2.078H48.3v7.356a1.043,1.043,0,0,1-.309.741,1.014,1.014,0,0,1-.711.3h-.034l-.3,0c-4.886,0-10.8,1.7-17.567,5.042A1.025,1.025,0,0,1,28.922,75.582ZM43.236,47.76c-4.15,0-8.623,1.428-13.295,4.245V72.889c6.123-2.865,11.6-4.389,16.285-4.532V48.014A17.561,17.561,0,0,0,43.236,47.76Zm-28.847.162h0a25.974,25.974,0,0,0-2.813.155v20.3A40.982,40.982,0,0,1,27.86,72.833V51.982a24.56,24.56,0,0,0-13.471-4.06Zm2.358-29.335a13.927,13.927,0,0,0-1.307,6.044,13.423,13.423,0,0,0,3.843,9.7c.107.1.207.2.3.3a13.542,13.542,0,0,0,10.026,4.14,13.463,13.463,0,0,0,9.806-3.928,1.929,1.929,0,0,1,.184-.214,13.428,13.428,0,0,0,4.146-9.993,14.088,14.088,0,0,0-1.275-6L30.1,24.639a1.041,1.041,0,0,1-.908,0ZM29.645,2.2,8.787,12.391l7.96,3.886,12.9,6.27,12.831-6.23L50.5,12.391,29.644,2.2ZM52.87,33.09a1.041,1.041,0,0,1-1.039-1.04v-3.71a1.039,1.039,0,1,1,2.079,0v3.71A1.041,1.041,0,0,1,52.87,33.09Z" transform="translate(0 0)" fill="#0a346c"/>
      <g id="Group_4241" data-name="Group 4241" transform="translate(49.129 45.984)">
        <g id="Ellipse_11" data-name="Ellipse 11" transform="translate(-0.337 -1.193)" fill="none" stroke="#0a346c" stroke-width="2">
          <circle cx="13.227" cy="13.227" r="13.227" stroke="none"/>
          <circle cx="13.227" cy="13.227" r="12.227" fill="none"/>
        </g>
        <g id="Folders" transform="translate(-6.297 -10.393)">
          <path id="Path_1768" data-name="Path 1768" d="M24.411,38h-3.89a.294.294,0,0,0-.2.08l-.685.65h-3.35l-.685-.65a.294.294,0,0,0-.2-.08H11.5a.552.552,0,0,0-.384.152.521.521,0,0,0-.161.387l.513,6.948A.536.536,0,0,0,12.01,46H23.9a.525.525,0,0,0,.538-.512l.52-6.976a.5.5,0,0,0-.161-.366A.552.552,0,0,0,24.411,38Zm-.538,7.373a.078.078,0,0,1-.079.068H12.1a.062.062,0,0,1-.061-.055l-.5-6.786a.048.048,0,0,1,.014-.039.053.053,0,0,1,.039-.015h3.675l.69.649a.3.3,0,0,0,.2.08H19.75a.3.3,0,0,0,.206-.08l.69-.649h3.639a.092.092,0,0,1,.066.027.081.081,0,0,1,.023.065Z" transform="translate(1.5 -17.299)" fill="#0a346c" stroke="#0a346c" stroke-width="0.5"/>
          <path id="Path_1769" data-name="Path 1769" d="M16.455,28.46h.009a.246.246,0,0,0,.179-.106.357.357,0,0,0,.064-.228l-.064-1.03H27.611l-.066,1.032a.351.351,0,0,0,.064.216.25.25,0,0,0,.193.106.284.284,0,0,0,.258-.292l.07-1.11a.545.545,0,0,0-.487-.589H16.615a.444.444,0,0,0-.342.171.676.676,0,0,0-.143.433l.07,1.082A.29.29,0,0,0,16.455,28.46Z" transform="translate(-2.67 -8.036)" fill="#0a346c" stroke="#0a346c" stroke-width="0.4"/>
          <path id="Path_1770" data-name="Path 1770" d="M19.132,17.2h.013a.219.219,0,0,0,.162-.115.445.445,0,0,0,.058-.247l-.054-.957h9.054l-.054.959a.444.444,0,0,0,.065.252.214.214,0,0,0,.17.108c.123,0,.225-.139.234-.317l.058-1.069c0-.339-.19-.613-.424-.613H19.263a.368.368,0,0,0-.3.179.8.8,0,0,0-.125.456l.057,1.043C18.9,17.059,19.007,17.2,19.132,17.2Z" transform="translate(-4.38 1)" fill="#0a346c" stroke="#0a346c" stroke-width="0.4"/>
          <path id="Path_1771" data-name="Path 1771" d="M52,71.5Z" transform="translate(-32.633 -45.241)" fill="#0a346c"/>
          <path id="Path_1772" data-name="Path 1772" d="M47.94,71.5Z" transform="translate(-29.405 -45.241)" fill="#0a346c"/>
          <g id="Group_4243" data-name="Group 4243" transform="translate(0.451 -0.454)">
            <path id="Path_1773" data-name="Path 1773" d="M48.447,69.48a.447.447,0,1,0,.447.447A.447.447,0,0,0,48.447,69.48Z" transform="translate(-29.49 -43.447)" fill="#0a346c"/>
            <path id="Path_1774" data-name="Path 1774" d="M48.441,53.35c-.185,0-.447.161-.447.346-.018.923.116,2.4.116,2.4a.335.335,0,1,0,.67,0s.127-1.788.116-2.411C48.888,53.5,48.618,53.35,48.441,53.35Z" transform="translate(-29.484 -30.696)" fill="#0a346c"/>
          </g>
        </g>
      </g>
    </g>
  </g>
</svg>
