<svg width="14" height="13" viewBox="0 0 14 13" fill="none" xmlns="http://www.w3.org/2000/svg">
<path d="M13.8807 12.3548L10.0913 8.83617C10.9683 7.89855 11.501 6.67623 11.501 5.33974C11.501 2.39551 8.92133 0 5.75041 0C2.57949 0 0 2.39566 0 5.33989C0 8.28412 2.57949 10.6795 5.75041 10.6795C7.18956 10.6795 8.50593 10.1849 9.51552 9.37052L13.3052 12.8893C13.3847 12.9631 13.4889 13 13.5931 13C13.6972 13 13.8014 12.9631 13.8807 12.8893C14.0398 12.7417 14.0398 12.5024 13.8807 12.3548ZM0.814183 5.33974C0.814183 2.81223 3.0286 0.756016 5.75041 0.756016C8.47239 0.756016 10.6868 2.81238 10.6868 5.33974C10.6868 7.8671 8.47239 9.92332 5.75041 9.92332C3.0286 9.92332 0.814183 7.8671 0.814183 5.33974Z" fill="#334D6E"/>
</svg>
