<?xml version="1.0" standalone="no"?>
<!DOCTYPE svg PUBLIC "-//W3C//DTD SVG 20010904//EN"
 "http://www.w3.org/TR/2001/REC-SVG-20010904/DTD/svg10.dtd">
<svg version="1.0" xmlns="http://www.w3.org/2000/svg"
 width="2200.000000pt" height="1700.000000pt" viewBox="0 0 2200.000000 1700.000000"
 preserveAspectRatio="xMidYMid meet">
<metadata>
Created by potrace 1.16, written by Peter Selinger 2001-2019
</metadata>
<g transform="translate(0.000000,1700.000000) scale(0.100000,-0.100000)"
fill="#000000" stroke="none">
<path d="M10480 11969 c-164 -23 -282 -45 -350 -64 -30 -9 -65 -14 -77 -12
-12 2 -20 0 -17 -4 2 -4 -15 -13 -38 -19 -24 -6 -85 -24 -136 -40 -51 -16 -96
-29 -100 -28 -4 1 -29 -8 -56 -20 -27 -12 -52 -22 -56 -22 -11 0 -179 -75
-285 -127 -55 -27 -118 -58 -140 -69 -286 -139 -660 -415 -901 -664 -329 -340
-547 -658 -727 -1057 -78 -174 -176 -495 -227 -746 -25 -124 -40 -350 -40
-604 0 -295 9 -420 45 -593 13 -63 28 -140 34 -170 28 -160 208 -632 299 -786
16 -28 39 -71 51 -95 50 -106 214 -338 374 -529 167 -200 375 -394 618 -577
186 -141 315 -218 562 -340 81 -40 147 -76 147 -80 0 -4 10 -9 23 -9 13 -1 43
-11 67 -22 25 -11 74 -30 110 -43 36 -12 79 -31 97 -40 17 -10 33 -15 36 -12
3 3 32 -4 64 -15 32 -11 106 -32 166 -47 59 -16 107 -32 107 -36 0 -5 7 -6 15
-3 8 4 22 1 30 -6 8 -6 19 -9 25 -5 13 8 52 -4 46 -14 -3 -4 8 -5 24 -3 17 2
38 1 47 -3 10 -4 38 -8 63 -10 25 -2 104 -11 175 -20 175 -22 631 -32 773 -16
290 32 439 52 464 62 15 6 45 12 66 12 22 1 38 5 35 10 -2 4 7 7 21 7 14 0 28
5 31 10 3 6 16 10 27 10 21 0 100 21 230 61 37 12 71 18 76 15 6 -3 12 -1 14
4 2 6 59 33 128 61 312 125 662 320 885 494 397 309 647 583 919 1006 31 48
173 325 213 414 38 86 157 440 173 515 6 30 20 91 30 135 29 121 40 243 47
550 8 345 -8 625 -42 765 -13 52 -26 115 -30 140 -9 54 -60 218 -123 394 -48
134 -207 461 -283 581 -184 291 -462 617 -688 809 -174 147 -409 317 -550 399
-123 72 -416 215 -538 263 -67 26 -120 51 -118 55 3 4 -4 5 -15 2 -12 -3 -20
0 -20 7 0 7 -6 10 -14 7 -8 -3 -39 2 -68 13 -29 10 -98 30 -153 45 -55 14
-101 30 -103 35 -2 5 -10 6 -18 3 -8 -3 -22 -2 -31 2 -10 4 -26 9 -36 10 -11
1 -22 6 -25 11 -4 5 -20 9 -37 10 -16 0 -104 12 -195 25 -151 21 -200 24 -580
25 -351 1 -434 -2 -540 -17z m790 -179 c80 -5 181 -17 225 -25 44 -8 114 -19
155 -25 81 -11 292 -59 405 -92 204 -59 624 -238 709 -301 17 -13 58 -38 91
-57 134 -75 406 -271 510 -369 39 -36 80 -73 90 -82 82 -68 320 -343 431 -499
112 -156 271 -440 258 -461 -4 -6 -42 -8 -102 -5 -238 13 -1003 38 -1016 33
-14 -5 -16 -47 -18 -289 l-3 -283 -435 -5 -435 -5 -5 -290 -5 -290 -435 -5
-435 -5 -5 -290 -5 -290 -50 -3 c-46 -3 -58 2 -145 55 -53 32 -129 84 -170
115 -41 31 -99 75 -128 96 -77 57 -176 153 -265 258 -78 92 -113 116 -187 129
-24 4 -55 24 -95 61 -82 76 -153 131 -260 199 -120 78 -205 116 -355 160 -69
20 -139 45 -157 56 -32 20 -98 123 -88 138 4 8 122 15 405 25 l95 4 -4 80 c-1
44 -6 95 -10 113 l-7 34 -167 3 c-116 2 -167 6 -167 14 0 6 26 45 58 86 85
110 90 121 102 202 7 41 18 98 26 126 22 79 18 153 -9 194 -26 39 -57 112 -57
135 0 9 18 35 40 59 38 41 45 44 107 51 109 11 106 9 107 104 1 80 2 84 31
107 l30 23 -44 45 c-24 24 -40 49 -37 54 4 6 27 14 51 18 25 3 45 10 45 14 0
5 -24 12 -54 15 -31 4 -61 14 -70 24 -8 9 -31 52 -51 95 -32 70 -38 78 -58 72
-12 -4 -71 -18 -132 -32 -121 -29 -168 -49 -204 -88 -25 -27 -25 -28 8 -116
l21 -55 -48 -42 c-51 -46 -53 -59 -4 -41 24 9 37 10 50 1 17 -11 18 -25 7 -73
-4 -21 5 -36 52 -85 84 -87 103 -114 103 -147 0 -17 9 -42 21 -56 14 -18 17
-28 8 -31 -14 -4 -28 13 -119 149 -38 58 -76 114 -84 125 -13 19 -18 17 -163
-53 -83 -39 -153 -72 -156 -72 -24 0 -122 -57 -170 -99 -68 -60 -89 -84 -143
-166 -60 -89 -148 -334 -159 -442 -14 -130 29 -460 91 -708 55 -219 60 -229
100 -233 24 -2 36 -11 50 -37 10 -19 16 -36 13 -39 -2 -3 -50 -15 -104 -26
-55 -12 -104 -25 -108 -30 -9 -8 14 -146 32 -193 9 -24 16 -27 55 -27 41 0 46
3 63 37 24 48 37 51 72 14 15 -16 41 -33 56 -37 l28 -7 -27 -14 c-24 -12 -26
-19 -26 -76 0 -82 -8 -107 -32 -107 -14 0 -28 19 -53 75 -23 51 -40 75 -52 76
-22 1 -67 -2 -71 -5 -1 -2 3 -48 10 -103 l11 -100 -34 -47 c-19 -26 -46 -62
-61 -80 -39 -47 -78 -135 -78 -176 0 -44 -41 -193 -80 -290 -40 -102 -110
-346 -110 -384 0 -40 5 -45 67 -84 43 -28 55 -32 73 -22 34 18 57 3 120 -80
33 -43 65 -82 70 -85 18 -11 10 -25 -14 -25 -14 0 -27 -3 -29 -7 -5 -8 18
-282 27 -338 3 -16 15 -129 26 -250 11 -121 23 -241 26 -267 5 -40 3 -48 -10
-48 -24 0 -331 310 -427 432 -173 219 -236 315 -360 553 -92 177 -174 383
-234 590 -86 295 -118 526 -118 855 -1 318 27 538 102 811 57 208 59 213 143
419 73 178 232 466 340 614 146 199 364 445 478 537 25 20 56 49 70 64 33 36
186 152 325 246 100 68 348 219 359 219 2 0 52 23 110 51 389 185 805 289
1331 332 91 8 319 6 455 -3z m2030 -2140 l5 -85 102 -3 102 -3 3 88 3 88 45 0
45 0 3 -227 2 -228 -49 0 -50 0 -3 98 -3 97 -102 3 -102 3 -3 -98 -3 -98 -44
-3 c-28 -2 -47 1 -52 10 -10 15 -12 391 -3 426 6 20 12 23 53 20 l46 -3 5 -85z
m-632 -496 c17 -5 22 -14 22 -40 l0 -33 -72 -3 -73 -3 -5 -190 -5 -190 -50 0
-50 0 -3 193 -2 192 -75 0 -75 0 0 34 c0 19 6 37 13 39 17 8 348 8 375 1z
m-2923 -470 c55 -14 160 -40 234 -59 73 -18 139 -39 146 -46 16 -16 46 -57
111 -154 60 -89 153 -195 199 -226 44 -30 47 -53 5 -44 -16 4 -39 4 -50 0 -19
-6 -20 -14 -20 -296 l0 -289 -435 0 -435 0 -2 -292 -3 -293 -277 -3 c-153 -1
-278 1 -278 5 0 5 19 16 41 25 76 32 36 55 -99 57 -80 1 -83 2 -94 29 -6 15
-19 45 -30 68 -22 49 -23 70 -3 78 10 4 15 20 15 50 0 84 31 270 62 371 35
118 88 233 169 371 l59 101 108 7 c59 3 123 11 142 16 19 6 97 19 173 30 174
25 214 35 222 59 3 10 -8 75 -24 142 -16 68 -34 144 -38 169 -9 43 -10 45 -44
43 -19 -1 -52 -8 -74 -15 l-40 -13 3 -72 c3 -61 1 -74 -13 -79 -39 -16 -78 31
-87 106 -3 22 -8 25 -38 23 -88 -4 -142 -16 -175 -39 -40 -27 -62 -30 -88 -10
-13 10 -16 21 -11 42 14 59 46 70 92 33 24 -18 35 -20 92 -14 89 10 98 16 102
73 3 45 4 47 33 47 23 0 35 -8 54 -37 28 -43 35 -44 111 -19 38 12 56 24 58
37 5 31 11 44 19 44 4 0 53 -12 108 -26z m1749 -121 c3 -10 10 -38 15 -63 17
-80 53 -205 61 -214 8 -8 90 232 90 261 0 7 5 15 11 19 22 13 95 14 111 1 9
-6 33 -72 53 -147 21 -74 41 -139 45 -144 10 -10 34 67 70 227 15 63 33 80 78
75 21 -2 28 -9 29 -28 2 -14 -23 -117 -55 -230 l-58 -205 -54 0 -55 0 -28 90
c-15 50 -37 120 -49 158 -11 37 -24 70 -29 72 -4 3 -15 -21 -24 -52 -24 -87
-54 -183 -72 -230 l-16 -43 -53 0 c-60 0 -49 -18 -93 150 -90 343 -89 320 -19
320 26 0 38 -5 42 -17z m2916 -110 l55 -8 6 -50 c8 -55 7 -67 -16 -240 -51
-373 -85 -508 -204 -808 -88 -221 -277 -580 -346 -657 -12 -14 -37 -47 -55
-75 -31 -46 -112 -147 -150 -186 -8 -9 -66 -69 -129 -135 -171 -178 -280 -274
-446 -393 -148 -106 -260 -181 -271 -181 -3 0 -35 -20 -72 -44 -142 -92 -522
-253 -742 -314 -432 -120 -838 -168 -1217 -144 -168 11 -529 59 -576 78 -15 5
-18 14 -12 43 12 70 75 317 94 371 67 192 233 531 365 745 35 58 180 263 246
349 224 292 603 664 895 876 44 33 91 67 105 78 48 35 295 190 380 236 420
232 902 393 1310 440 74 9 167 20 205 25 78 10 490 6 575 -6z m-3527 -474 c53
-14 132 -93 146 -144 13 -50 14 -119 1 -165 -32 -117 -185 -186 -320 -145 -73
22 -118 58 -149 120 -20 40 -23 58 -19 119 6 88 30 137 90 185 49 38 171 53
251 30z m-842 -607 c88 -54 84 -169 -7 -213 -49 -23 -53 -32 -24 -52 25 -17
120 -148 120 -164 0 -9 -16 -13 -49 -13 -49 0 -51 1 -93 57 -98 128 -134 155
-187 138 -17 -5 -18 -13 -14 -63 7 -77 -7 -126 -36 -130 -13 -2 -34 -1 -47 2
l-24 6 0 218 c0 161 3 221 13 231 9 10 48 12 162 9 133 -3 155 -6 186 -26z
m-904 -569 c37 -12 65 -29 89 -55 41 -46 42 -55 8 -68 -40 -16 -72 -12 -84 10
-26 48 -116 64 -180 32 -72 -36 -97 -116 -67 -216 22 -73 107 -107 199 -80 82
25 93 84 14 84 -42 0 -76 18 -76 40 0 36 11 40 121 40 l109 0 0 -95 c0 -107 6
-100 -99 -134 -170 -56 -320 0 -371 137 -16 41 -19 66 -14 105 13 103 66 167
160 197 74 24 123 25 191 3z"/>
<path d="M9970 9700 c-19 -5 -36 -13 -38 -19 -2 -6 -9 -11 -17 -11 -30 0 -35
-25 -23 -103 11 -69 15 -77 34 -77 13 0 45 -5 73 -12 43 -10 60 -9 104 5 71
23 81 40 65 123 -10 57 -15 67 -37 75 -14 5 -34 14 -43 19 -20 12 -68 11 -118
0z"/>
<path d="M13020 8055 l-24 -25 26 -28 c14 -15 37 -43 51 -63 l27 -36 -57 -45
c-32 -24 -63 -47 -69 -51 -6 -3 -32 23 -59 58 -51 68 -59 70 -97 28 -18 -19
-13 -25 223 -321 l18 -24 31 22 c16 12 30 25 30 29 0 5 -22 37 -50 71 -27 34
-50 68 -50 74 0 6 17 23 38 38 20 15 49 37 63 48 l27 20 53 -70 c29 -39 58
-70 64 -70 6 0 22 11 35 25 l23 25 -34 43 c-19 24 -74 96 -124 160 -49 64 -97
116 -106 116 -8 1 -26 -10 -39 -24z"/>
<path d="M12630 7744 c-147 -118 -143 -114 -119 -143 22 -27 20 -28 83 23 20
16 38 27 40 25 2 -2 49 -62 106 -134 57 -71 106 -131 110 -133 4 -2 20 8 36
21 l28 25 -29 38 c-16 22 -65 83 -109 138 l-80 98 50 43 c49 43 49 43 30 64
-11 12 -24 21 -30 20 -6 0 -58 -38 -116 -85z"/>
<path d="M13590 7652 l-34 -29 12 -88 c6 -49 10 -91 7 -93 -2 -3 -43 9 -91 27
l-87 31 -33 -25 c-19 -14 -34 -28 -34 -30 0 -7 56 -29 164 -65 96 -32 98 -34
153 -101 30 -38 58 -69 62 -69 3 0 19 11 35 23 l29 24 -56 70 -56 69 -12 120
c-6 65 -14 129 -17 142 l-7 22 -35 -28z"/>
<path d="M12443 7592 l-32 -27 44 -90 c74 -152 85 -175 81 -175 -2 0 -56 40
-121 90 l-117 89 -39 -31 c-21 -17 -39 -32 -39 -33 0 -1 25 -57 55 -125 30
-68 54 -128 53 -132 -2 -5 -50 30 -108 77 -58 47 -109 85 -115 85 -15 -1 -57
-38 -53 -49 5 -14 319 -261 332 -261 12 1 66 45 66 56 0 3 -27 68 -60 144 -33
76 -60 141 -60 144 0 3 58 -37 130 -90 l130 -95 35 26 c33 26 34 28 21 58 -15
35 -167 361 -170 364 0 1 -15 -11 -33 -25z"/>
<path d="M13231 7371 c-51 -44 -54 -24 26 -201 23 -52 40 -96 38 -98 -2 -3
-51 30 -107 73 -57 43 -108 82 -114 87 -11 8 -104 -57 -104 -73 0 -10 248
-323 258 -326 4 -1 19 8 34 20 l26 22 -94 119 c-52 66 -94 121 -94 123 0 8 14
-2 130 -92 128 -98 134 -101 172 -58 15 17 14 22 -8 68 -71 151 -104 229 -99
233 3 3 12 -4 20 -15 39 -56 167 -213 173 -213 13 0 52 31 52 41 0 12 -250
329 -259 329 -3 0 -26 -18 -50 -39z"/>
<path d="M11922 7171 c-89 -31 -152 -109 -152 -189 0 -85 96 -209 180 -232
101 -27 227 53 251 161 25 110 -74 248 -196 273 -18 3 -51 -2 -83 -13z m119
-93 c105 -81 107 -214 4 -248 -26 -9 -44 -9 -68 -1 -56 19 -127 109 -127 161
0 56 65 120 122 120 15 0 45 -14 69 -32z"/>
<path d="M12771 7005 l-121 -97 38 -46 c21 -26 80 -100 131 -164 52 -65 95
-118 97 -118 10 0 244 192 244 199 0 5 -8 19 -18 31 l-18 22 -89 -71 c-49 -39
-92 -71 -95 -71 -9 0 -70 77 -70 87 0 4 30 31 66 58 36 28 72 55 81 62 13 10
13 14 -4 37 -10 14 -21 26 -24 26 -4 0 -40 -27 -82 -60 -41 -33 -79 -60 -85
-60 -5 0 -21 15 -35 34 l-26 33 84 67 c47 37 87 71 89 75 3 4 -5 18 -18 30
l-23 22 -122 -96z"/>
<path d="M11561 6889 c-19 -11 -66 -46 -104 -77 -39 -31 -75 -60 -80 -63 -5
-4 50 -81 122 -173 l132 -166 30 22 c16 12 29 26 29 31 0 5 -22 37 -50 72 -27
35 -50 65 -50 69 0 3 14 13 31 22 26 13 38 14 82 3 29 -6 73 -20 98 -30 l47
-18 33 25 c19 14 34 30 34 37 0 14 -127 56 -172 56 -38 1 -38 0 -17 45 24 48
12 97 -32 135 -42 37 -84 40 -133 10z m81 -76 c18 -17 23 -49 10 -69 -10 -17
-93 -84 -102 -84 -5 0 -22 18 -39 39 l-31 39 56 46 c61 50 78 55 106 29z"/>
<path d="M12482 6770 c-36 -22 -162 -121 -162 -127 0 -11 255 -323 264 -323
19 0 156 119 177 153 30 49 32 71 15 130 -18 63 -91 152 -143 173 -47 20 -112
17 -151 -6z m119 -73 c40 -27 97 -99 106 -135 8 -33 -11 -66 -63 -109 l-42
-34 -86 108 c-47 59 -86 111 -86 114 0 11 104 79 121 79 9 0 31 -10 50 -23z"/>
<path d="M11177 6597 c-56 -40 -80 -70 -97 -120 -17 -54 -5 -117 33 -174 103
-153 276 -148 380 12 46 71 45 87 -8 152 -26 32 -51 60 -56 61 -10 4 -139 -96
-139 -106 1 -4 10 -18 21 -31 19 -24 20 -24 42 -4 51 45 53 45 71 18 15 -22
15 -28 2 -54 -62 -120 -205 -102 -261 33 -23 54 -13 97 32 136 32 29 41 32 82
27 41 -4 48 -2 69 23 l22 29 -22 15 c-13 10 -43 16 -73 16 -42 0 -60 -6 -98
-33z"/>
<path d="M12111 6482 l-33 -27 64 -210 c35 -115 69 -210 74 -212 5 -2 22 7 37
20 28 22 28 22 13 65 -8 23 -13 48 -10 55 3 6 33 33 66 60 l61 47 44 -26 44
-26 35 24 c18 13 34 26 34 30 0 5 -357 212 -389 226 -4 1 -22 -10 -40 -26z"/>
<path d="M11825 6253 c-83 -43 -135 -131 -121 -206 9 -50 71 -141 118 -173 36
-25 51 -29 109 -29 60 0 71 3 106 31 64 52 86 91 80 147 -5 62 -17 74 -55 58
-28 -12 -30 -16 -28 -62 2 -73 -38 -107 -120 -101 -26 2 -90 65 -115 114 -28
55 -24 85 15 124 36 36 81 45 105 22 10 -11 17 -7 37 17 30 38 30 41 -6 60
-37 19 -87 19 -125 -2z"/>
<path d="M11432 5943 l-32 -28 54 -170 c30 -93 60 -189 66 -212 6 -24 14 -43
18 -43 4 0 20 11 37 24 l30 24 -16 50 -16 49 55 44 c80 64 77 63 126 34 l44
-26 32 27 c25 22 29 29 18 39 -17 15 -366 215 -376 215 -4 0 -22 -12 -40 -27z"/>
<path d="M10703 7888 c-40 -28 -53 -63 -53 -140 0 -115 53 -158 182 -150 16 1
42 16 63 37 34 35 35 38 35 111 0 121 -37 164 -142 164 -39 0 -62 -6 -85 -22z"/>
<path d="M9787 7313 c-3 -5 -2 -32 0 -60 l6 -53 83 0 c92 0 124 16 124 63 0
44 -28 57 -123 57 -47 0 -88 -3 -90 -7z"/>
</g>
</svg>
