<svg width="12" height="14" viewBox="0 0 12 14" fill="none" xmlns="http://www.w3.org/2000/svg">
<path d="M6.24063 7C7.89749 7 9.24063 5.65685 9.24063 4C9.24063 2.34315 7.89749 1 6.24063 1C4.58378 1 3.24063 2.34315 3.24063 4C3.24063 5.65685 4.58378 7 6.24063 7Z" stroke="#634E4E" stroke-width="0.8"/>
<path d="M9.24066 8.20001H9.45186C9.89051 8.20014 10.314 8.36043 10.6428 8.65078C10.9716 8.94113 11.1831 9.34155 11.2375 9.77681L11.4721 11.6512C11.4932 11.8201 11.4781 11.9915 11.4279 12.1541C11.3777 12.3167 11.2935 12.4667 11.1808 12.5943C11.0682 12.7218 10.9297 12.824 10.7746 12.8939C10.6195 12.9639 10.4512 13 10.2811 13H2.20026C2.03009 13 1.86186 12.9639 1.70673 12.8939C1.5516 12.824 1.41312 12.7218 1.30049 12.5943C1.18785 12.4667 1.10363 12.3167 1.05342 12.1541C1.00321 11.9915 0.98816 11.8201 1.00926 11.6512L1.24326 9.77681C1.29768 9.34135 1.50931 8.94076 1.83836 8.65038C2.16741 8.36001 2.59121 8.19984 3.03006 8.20001H3.24066" stroke="#634E4E" stroke-width="0.8" stroke-linecap="round" stroke-linejoin="round"/>
</svg>
