<svg width="23" height="23" viewBox="0 0 23 23" fill="none" xmlns="http://www.w3.org/2000/svg">
<path d="M11.7313 10.8V10.7H11.6313H11.0188H10.9188V10.8V11.3552C10.3994 11.4085 10.0001 11.8729 10.0001 12.425C10.0001 13.0121 10.4516 13.5 11.0188 13.5H11.6313C11.7393 13.5 11.8376 13.5955 11.8376 13.725C11.8376 13.8546 11.7393 13.95 11.6313 13.95H10.8126V13.725V13.625H10.7126H10.1001H10.0001V13.725V14.7V14.8H10.1001H10.9188V15.35V15.45H11.0188H11.6313H11.7313V15.35V14.7949C12.2508 14.7416 12.6501 14.2772 12.6501 13.725C12.6501 13.138 12.1986 12.65 11.6313 12.65H11.0188C10.9108 12.65 10.8126 12.5546 10.8126 12.425C10.8126 12.2955 10.9108 12.2 11.0188 12.2H11.8376V12.425V12.525H11.9376H12.5501H12.6501V12.425V11.45V11.35H12.5501H11.7313V10.8Z" fill="white" stroke="white" stroke-width="0.2"/>
<path d="M14.0738 10.1287L14.0738 10.1287L13.038 9.22144L13.9864 6.37258L14.0205 6.2702L13.9158 6.24399L12.1538 5.8029L12.0893 5.78676L12.0495 5.83994L11.2805 6.86626L10.5618 6.14665L10.5217 6.10655L10.4667 6.12031L8.72143 6.55706L8.61277 6.58425L8.65206 6.68915L9.60341 9.22881L8.5761 10.1287L8.57609 10.1287C7.70141 10.895 7.1998 12.0018 7.1998 13.1651C7.1998 15.39 9.00742 17.1999 11.2301 17.1999H11.4195C13.6422 17.1999 15.4498 15.39 15.4498 13.1651C15.4498 12.0015 14.9482 10.8947 14.0738 10.1287ZM10.3702 8.94056L9.70221 7.15691L10.2702 7.01468L11.2875 8.03314L11.3691 8.11482L11.4383 8.02242L12.418 6.71452L12.9634 6.85104L12.2679 8.94056H10.3702ZM11.4195 16.38H11.2301C9.4596 16.38 8.01904 14.9379 8.01904 13.1651C8.01904 12.2379 8.41872 11.3562 9.11565 10.7456L9.04975 10.6704L9.11565 10.7456L10.2401 9.76051H12.4092L13.534 10.7456C13.534 10.7456 13.534 10.7456 13.534 10.7456C14.2309 11.3562 14.6306 12.2379 14.6306 13.1651C14.6306 14.9379 13.19 16.38 11.4195 16.38Z" fill="white" stroke="white" stroke-width="0.2"/>
<path d="M11.5071 22.1252L11.8815 22.0987C16.9495 21.7406 21.0406 17.6495 21.3987 12.5815L21.4253 12.207L21.4329 12.1H21.3256H18.5182H18.4268L18.4186 12.191L18.3899 12.5095C18.0743 16.0068 15.3072 18.7743 11.8095 19.0899L11.491 19.1186L11.4 19.1268V19.2182V22.0255V22.1329L11.5071 22.1252ZM19.2391 13H20.4544C19.9321 17.239 16.5391 20.6321 12.3 21.1543V19.939C15.8999 19.4321 18.7321 16.5998 19.2391 13Z" fill="white" stroke="white" stroke-width="0.2"/>
<path d="M10.8186 1.60034L10.4441 1.62693C5.37616 1.98499 1.28504 6.07611 0.926982 11.1441L0.900385 11.5185L0.892778 11.6256L1.00013 11.6256L3.80748 11.6256L3.89888 11.6256L3.90708 11.5346L3.93578 11.2161C4.25134 7.71875 7.01845 4.95129 10.5162 4.63573L10.8347 4.60703L10.9257 4.59883L10.9257 4.50744L10.9257 1.70008L10.9257 1.59273L10.8186 1.60034ZM3.08661 10.7256L1.87132 10.7256C2.39358 6.48657 5.78662 3.09353 10.0257 2.57127L10.0257 3.78656C6.42581 4.2935 3.59355 7.12576 3.08661 10.7256Z" fill="white" stroke="white" stroke-width="0.2"/>
<path d="M0.900385 12.207L0.926982 12.5815C1.28504 17.6495 5.37616 21.7406 10.4441 22.0987L10.8186 22.1252L10.9257 22.1329L10.9257 22.0255L10.9257 19.2182L10.9257 19.1268L10.8347 19.1186L10.5162 19.0899C7.0188 18.7743 4.25134 16.0072 3.93578 12.5095L3.90708 12.191L3.89888 12.1L3.80748 12.1L1.00013 12.1L0.892778 12.1L0.900385 12.207ZM10.0257 19.939L10.0257 21.1543C5.78662 20.6321 2.39358 17.239 1.87132 13L3.08661 13C3.59355 16.5998 6.42581 19.4321 10.0257 19.939Z" fill="white" stroke="white" stroke-width="0.2"/>
<path d="M21.4253 11.4929L21.3987 11.1184C21.1877 8.13286 19.6804 5.48734 17.4426 3.74335L18.6863 2.5H19.8962C20.0714 2.90949 20.4752 3.2 20.95 3.2C21.5841 3.2 22.1 2.68413 22.1 2.05C22.1 1.41587 21.5841 0.9 20.95 0.9C20.4752 0.9 20.0714 1.19051 19.8962 1.6H18.3551H18.3137L18.2844 1.62929L16.6982 3.21551C15.288 2.30365 13.6446 1.72585 11.8816 1.6013C11.8816 1.6013 11.8816 1.6013 11.8815 1.6013L11.5071 1.5747L11.4 1.5671V1.67445V4.4818V4.57319L11.491 4.5814L11.8095 4.61009C11.8095 4.61009 11.8095 4.6101 11.8095 4.6101C15.3069 4.92566 18.0743 7.69277 18.3899 11.1905L18.4186 11.509L18.4268 11.6H18.5182H21.3256H21.4329L21.4253 11.4929ZM20.95 1.8C21.0876 1.8 21.2 1.91238 21.2 2.05C21.2 2.18762 21.0876 2.3 20.95 2.3C20.8124 2.3 20.7 2.18762 20.7 2.05C20.7 1.91238 20.8124 1.8 20.95 1.8ZM12.3 3.76093V2.54564C16.5391 3.0679 19.9321 6.46093 20.4544 10.7H19.2391C18.7321 7.10013 15.8999 4.26787 12.3 3.76093Z" fill="white" stroke="white" stroke-width="0.2"/>
</svg>
