<svg width="22" height="20" viewBox="0 0 22 20" fill="none" xmlns="http://www.w3.org/2000/svg">
<g clip-path="url(#clip0)">
<path d="M15.9468 6.61328C18.0535 6.61328 21.0135 9.33328 21.0135 13.7333C21.0135 13.8666 21.0135 13.9733 20.9868 14.1066C20.2668 12.0533 18.3735 10.5333 16.1068 10.3733C15.9468 9.94661 15.7335 9.62661 15.4935 9.27995C15.0135 8.53328 14.4268 7.86661 13.8135 7.38661C14.5335 6.87995 15.2801 6.61328 15.9468 6.61328Z" fill="white"/>
<path d="M15.9204 0C17.387 0 18.6137 1.2 18.6137 2.69333C18.6137 3.28 18.4537 3.78667 18.1337 4.24C18.027 4.34667 17.9737 4.45333 17.8937 4.50667C17.4137 5.01333 16.7204 5.33333 15.9737 5.33333C15.387 5.33333 14.827 5.17333 14.4004 4.82667C14.6137 4.26667 14.747 3.73333 14.747 3.12C14.747 2.29333 14.4804 1.49333 14.0537 0.826667C14.507 0.32 15.147 0 15.9204 0Z" fill="white"/>
<path d="M15.7599 11.7067C16.1066 11.7067 16.4532 11.7867 16.7466 11.84C18.4266 12.24 19.7066 13.7333 19.8399 15.4933C19.8666 15.6267 19.8666 15.7333 19.8666 15.8667C19.8666 16.24 19.8399 16.5867 19.7332 16.9333C19.2532 18.6933 17.6799 20 15.7332 20C14.8532 20 14.0532 19.7333 13.3599 19.2533C12.8799 18.9333 12.5066 18.5067 12.1866 18.0267C11.8132 17.4133 11.5732 16.64 11.5732 15.8933C11.5732 13.84 13.1199 12.1067 15.0932 11.7867C15.1732 11.76 15.2266 11.76 15.3066 11.76C15.4932 11.7067 15.6266 11.7067 15.7599 11.7067ZM18.2132 15.0667C18.3732 14.88 18.4266 14.6133 18.3199 14.4C18.1332 14 17.5999 13.8933 17.2799 14.2133C16.5866 14.9867 15.8932 15.7867 15.1732 16.56C14.9332 16.32 14.6666 16.08 14.4266 15.84C14.1066 15.5467 13.5466 15.6533 13.3866 16.0533C13.2799 16.2933 13.3599 16.56 13.5466 16.72L14.7466 17.8667C14.8532 17.9733 15.0132 18.0533 15.1999 18.0533C15.3866 18.0533 15.5466 17.9733 15.6799 17.84L16.3732 17.04C17.0132 16.4 17.6266 15.7333 18.2132 15.0667Z" fill="white"/>
<path d="M12.7204 8.3734C13.4404 8.8534 14.1071 9.5734 14.6404 10.4801C14.5071 10.5067 14.3204 10.5601 14.1871 10.5867C11.9204 11.2534 10.2404 13.3601 10.2404 15.8667C10.2404 16.6667 10.4004 17.4134 10.7204 18.1067C9.09374 18.1334 7.4404 17.9467 6.3204 17.4401C5.94707 17.3067 5.62707 17.0934 5.38707 16.8801C5.17374 16.6667 5.01374 16.4801 4.90707 16.1867C4.8004 15.9467 4.74707 15.6801 4.74707 15.3601C4.74707 11.9201 6.37374 9.4134 8.10707 8.24006C8.4804 7.9734 8.85374 7.78673 9.25374 7.6534C9.62707 7.52006 10.0004 7.44006 10.3471 7.44006C10.7471 7.44006 11.1737 7.54673 11.6271 7.70673C12.0004 7.8934 12.3204 8.08006 12.7204 8.3734Z" fill="white"/>
<path d="M10.3464 0.106689C11.9731 0.106689 13.2798 1.41336 13.2798 3.04002C13.2798 4.66669 11.9731 5.97336 10.3464 5.97336C8.71975 5.97336 7.41309 4.66669 7.41309 3.04002C7.41309 1.41336 8.71975 0.106689 10.3464 0.106689Z" fill="white"/>
<path d="M0 13.7067C0 9.30667 2.96 6.58667 5.06667 6.58667C5.68 6.58667 6.4 6.82667 7.06667 7.28C6.37333 7.78667 5.76 8.45334 5.25333 9.28C4.08 11.04 3.38667 13.3067 3.44 15.3333C3.44 15.6 3.44 15.84 3.52 16.08C2.24 15.9467 1.14667 15.6 0.613333 15.0667C0.186666 14.6933 0 14.24 0 13.7067Z" fill="white"/>
<path d="M2.34668 2.71994C2.34668 1.25328 3.54668 0.0266113 5.04001 0.0266113C5.73335 0.0266113 6.32001 0.266611 6.80001 0.693278C6.32001 1.38661 6.05335 2.21328 6.05335 3.14661C6.05335 3.81328 6.18668 4.42661 6.42668 5.01328C6.05335 5.27994 5.57335 5.43994 5.04001 5.43994C4.29335 5.43994 3.60001 5.11994 3.12001 4.61328C3.04001 4.50661 2.98668 4.39994 2.88001 4.29328C2.53335 3.81328 2.34668 3.30661 2.34668 2.71994Z" fill="white"/>
</g>
<defs>
<clipPath id="clip0">
<rect width="21.0133" height="20" fill="white"/>
</clipPath>
</defs>
</svg>
