<svg width="23" height="20" viewBox="0 0 23 20" fill="none" xmlns="http://www.w3.org/2000/svg">
<path d="M17.6471 0H4.70588C3.4578 0 2.26085 0.495797 1.37832 1.37832C0.495797 2.26085 0 3.4578 0 4.70588C0 5.95396 0.495797 7.15092 1.37832 8.03344C2.26085 8.91597 3.4578 9.41177 4.70588 9.41177H17.6471C18.8951 9.41177 20.0921 8.91597 20.9746 8.03344C21.8571 7.15092 22.3529 5.95396 22.3529 4.70588C22.3529 3.4578 21.8571 2.26085 20.9746 1.37832C20.0921 0.495797 18.8951 0 17.6471 0ZM17.6471 7.05882C17.1817 7.05882 16.7268 6.92083 16.3398 6.66228C15.9529 6.40374 15.6513 6.03626 15.4732 5.60631C15.2951 5.17637 15.2485 4.70327 15.3393 4.24685C15.4301 3.79042 15.6542 3.37117 15.9833 3.0421C16.3123 2.71304 16.7316 2.48894 17.188 2.39815C17.6444 2.30736 18.1175 2.35396 18.5475 2.53205C18.9774 2.71014 19.3449 3.01172 19.6035 3.39866C19.862 3.7856 20 4.24051 20 4.70588C20 5.32992 19.7521 5.9284 19.3108 6.36966C18.8696 6.81092 18.2711 7.05882 17.6471 7.05882Z" fill="white"/>
<path d="M17.6471 10.5883H4.70588C3.4578 10.5883 2.26085 11.0841 1.37832 11.9666C0.495797 12.8491 0 14.0461 0 15.2941C0 16.5422 0.495797 17.7392 1.37832 18.6217C2.26085 19.5042 3.4578 20 4.70588 20H17.6471C18.8951 20 20.0921 19.5042 20.9746 18.6217C21.8571 17.7392 22.3529 16.5422 22.3529 15.2941C22.3529 14.0461 21.8571 12.8491 20.9746 11.9666C20.0921 11.0841 18.8951 10.5883 17.6471 10.5883V10.5883ZM5.29412 17.6471C4.82875 17.6471 4.37383 17.5091 3.98689 17.2505C3.59995 16.992 3.29837 16.6245 3.12028 16.1946C2.94219 15.7646 2.8956 15.2915 2.98639 14.8351C3.07718 14.3787 3.30127 13.9594 3.63034 13.6304C3.9594 13.3013 4.37866 13.0772 4.83508 12.9864C5.29151 12.8956 5.76461 12.9422 6.19455 13.1203C6.62449 13.2984 6.99197 13.6 7.25052 13.9869C7.50906 14.3739 7.64706 14.8288 7.64706 15.2941C7.64706 15.9182 7.39916 16.5167 6.9579 16.9579C6.51664 17.3992 5.91816 17.6471 5.29412 17.6471Z" fill="white"/>
</svg>
