<svg width="23" height="20" viewBox="0 0 23 20" fill="none" xmlns="http://www.w3.org/2000/svg">
<g clip-path="url(#clip0)">
<path d="M20.3962 15.8452C20.501 15.789 20.6059 15.7385 20.7088 15.6994L21.4818 15.4011C22.3826 15.0541 22.3959 14.4517 21.5114 14.0638L19.7318 13.2832C18.8464 12.8962 17.4004 12.2604 16.5149 11.8734L14.7354 11.0928C13.849 10.7049 13.4439 11.1109 13.8318 11.9954L14.6134 13.7759C14.9994 14.6605 15.6352 16.1073 16.0231 16.9919L16.8028 18.7724C17.1917 19.6569 17.7931 19.6426 18.141 18.7419L18.4384 17.9698C18.4784 17.8669 18.529 17.762 18.5852 17.6572L20.928 20L22.739 18.19L20.3962 15.8452Z" fill="white"/>
<path d="M0 1.26579V4.32445C0 5.02311 0.567125 5.59024 1.26483 5.59024H5.48539V0H1.26483C0.567125 0 0 0.567126 0 1.26579ZM2.74127 4.74003C2.51537 4.74003 2.33141 4.55702 2.33141 4.32922C2.33141 4.10427 2.51442 3.91936 2.74127 3.91936C2.96812 3.91936 3.15207 4.10332 3.15207 4.32922C3.15112 4.55702 2.96812 4.74003 2.74127 4.74003ZM2.73364 0.849259C3.12634 0.849259 3.45613 1.00748 3.66106 1.29533C3.86694 1.58605 3.92318 1.97398 3.80594 2.31044C3.73064 2.52871 3.57718 2.70314 3.42849 2.87185C3.23214 3.09393 3.06153 3.28552 3.06153 3.55145H2.42101C2.42101 3.04342 2.71362 2.71172 2.94905 2.44674C3.06057 2.31997 3.16733 2.19988 3.20164 2.10075C3.24072 1.98542 3.23881 1.80527 3.13968 1.66802C3.05581 1.54983 2.9176 1.48978 2.73364 1.48978C2.33618 1.48978 2.26183 1.95396 2.25516 2.00639L1.61941 1.92727C1.66516 1.55459 1.95587 0.849259 2.73364 0.849259Z" fill="white"/>
<path d="M19.6135 4.32445V1.26579C19.6135 0.567126 19.0454 0 18.3477 0H6.85742V5.59024H18.3477C19.0454 5.59024 19.6135 5.02311 19.6135 4.32445Z" fill="white"/>
<path d="M0 8.06754V11.1262C0 11.8249 0.567125 12.392 1.26483 12.392H5.48539V6.80176H1.26483C0.567125 6.80176 0 7.36698 0 8.06754ZM2.74127 11.5418C2.51537 11.5418 2.33141 11.3588 2.33141 11.131C2.33141 10.9051 2.51442 10.7211 2.74127 10.7211C2.96812 10.7211 3.15207 10.9041 3.15207 11.131C3.15112 11.3588 2.96812 11.5418 2.74127 11.5418ZM2.73364 7.65102C3.12634 7.65102 3.45613 7.80924 3.66106 8.09709C3.86789 8.38685 3.92318 8.77574 3.80594 9.11125C3.73064 9.32952 3.57718 9.50394 3.42849 9.6717C3.23309 9.89474 3.06153 10.0873 3.06153 10.3532H2.42101C2.42101 9.84517 2.71362 9.51348 2.94905 9.2485C3.06057 9.12078 3.16733 9.00068 3.20164 8.90251C3.24072 8.78717 3.23881 8.60703 3.13968 8.46977C3.05676 8.35158 2.91951 8.29153 2.73459 8.29153C2.33713 8.29153 2.26278 8.75477 2.25611 8.80814L1.61941 8.72903C1.66516 8.3554 1.95587 7.65102 2.73364 7.65102Z" fill="white"/>
<path d="M0 14.8673V17.9269C0 18.6256 0.567125 19.1927 1.26483 19.1927H5.48539V13.6015H1.26483C0.567125 13.6015 0 14.1686 0 14.8673ZM2.74127 18.3434C2.51537 18.3434 2.33141 18.1604 2.33141 17.9326C2.33141 17.7067 2.51442 17.5228 2.74127 17.5228C2.96812 17.5228 3.15207 17.7058 3.15207 17.9326C3.15112 18.1604 2.96812 18.3434 2.74127 18.3434ZM2.73364 14.4517C3.12634 14.4517 3.45613 14.6109 3.66106 14.8987C3.86789 15.1885 3.92318 15.5774 3.80594 15.9129C3.73064 16.1312 3.57718 16.3046 3.42849 16.4734C3.23309 16.6954 3.06153 16.8889 3.06153 17.1549H2.42101C2.42101 16.6459 2.71362 16.3151 2.94905 16.0492C3.06057 15.9224 3.16733 15.8023 3.20164 15.7032C3.24072 15.5879 3.23881 15.4087 3.13968 15.2705C3.05676 15.1532 2.91951 15.0922 2.73459 15.0922C2.33713 15.0922 2.26278 15.5564 2.25611 15.6098L1.61941 15.5297C1.66516 15.157 1.95587 14.4517 2.73364 14.4517Z" fill="white"/>
<path d="M12.8613 10.5371C13.1368 10.1149 13.6076 9.87184 14.1519 9.87184C14.4655 9.87184 14.8067 9.9519 15.1651 10.1092L19.3161 11.9297C19.4981 11.7105 19.6125 11.4331 19.6125 11.1252V8.06657C19.6125 7.36695 19.0444 6.80078 18.3467 6.80078H6.85742V12.391H12.8365C12.4515 11.4865 12.6345 10.8831 12.8613 10.5371Z" fill="white"/>
<path d="M6.85742 13.6015V19.1936H15.819L13.3655 13.6015H6.85742Z" fill="white"/>
</g>
<defs>
<clipPath id="clip0">
<rect width="22.7394" height="20" fill="white"/>
</clipPath>
</defs>
</svg>
