<svg width="20" height="20" viewBox="0 0 20 20" fill="none" xmlns="http://www.w3.org/2000/svg">
<g clip-path="url(#clip0)">
<path d="M13.9997 7.99963C12.8131 7.99963 11.6531 8.35151 10.6665 9.01077C9.67981 9.67003 8.91081 10.6071 8.45671 11.7034C8.0026 12.7997 7.88378 14.006 8.11529 15.1699C8.34679 16.3337 8.91821 17.4028 9.75729 18.2418C10.5964 19.0809 11.6654 19.6523 12.8293 19.8838C13.9931 20.1153 15.1994 19.9965 16.2957 19.5424C17.3921 19.0883 18.3291 18.3193 18.9883 17.3327C19.6476 16.346 19.9995 15.186 19.9995 13.9994C19.9977 12.4087 19.365 10.8837 18.2402 9.75892C17.1154 8.63414 15.5904 8.00144 13.9997 7.99963V7.99963ZM14.1657 13.5047C15.9689 14.1094 16.3475 15.0172 16.3475 15.6722C16.3475 16.6517 15.591 17.4212 14.5215 17.6073V18.434H13.478V17.5948C12.4333 17.3793 11.652 16.5519 11.652 15.5644H12.6955C12.6955 16.1299 13.2996 16.6077 14.0147 16.6077C14.6553 16.6077 15.304 16.2863 15.304 15.6722C15.304 15.0538 14.2759 14.6421 13.8338 14.4938C12.0306 13.8891 11.652 12.9813 11.652 12.3263C11.652 11.3468 12.4085 10.5773 13.478 10.3912V9.56478H14.5215V10.4037C15.5662 10.6192 16.3475 11.4468 16.3475 12.4342H15.304C15.304 11.8686 14.6999 11.3908 13.9848 11.3908C13.3442 11.3908 12.6955 11.7121 12.6955 12.3263C12.6955 12.9447 13.7236 13.3564 14.1657 13.5047Z" fill="white"/>
<path d="M5.91347 7.36622C9.17939 7.36622 11.8269 5.9903 11.8269 4.29302V3.07322C11.8269 1.37592 9.17938 0 5.91347 0C2.64756 0 0 1.37592 0 3.07322V4.29303C0 5.9903 2.64755 7.36622 5.91347 7.36622Z" fill="white"/>
<path d="M5.91308 10.524C6.6817 10.5267 7.44835 10.4463 8.19965 10.284C9.05242 8.95828 10.3316 7.96285 11.8262 7.4619V6.30859C10.6773 7.49077 8.51075 8.25518 5.91308 8.25518C3.31764 8.25518 1.15106 7.49077 0 6.30859V7.45077C0 9.14845 2.64655 10.524 5.91308 10.524Z" fill="white"/>
<path d="M5.91308 13.6817C6.31689 13.682 6.72042 13.6605 7.12192 13.6173C7.16527 12.8158 7.34956 12.0282 7.66634 11.2907C7.08557 11.3731 6.49966 11.4139 5.91308 11.4129C3.31764 11.4129 1.15106 10.6485 0 9.46631V10.6085C0 12.3062 2.64655 13.6817 5.91308 13.6817Z" fill="white"/>
<path d="M5.91308 16.8415C6.49949 16.8421 7.08502 16.796 7.66412 16.7037C7.36566 16.0081 7.18541 15.2676 7.13081 14.5127C6.73749 14.5505 6.33084 14.5705 5.91308 14.5705C3.31764 14.5705 1.15106 13.8083 0 12.6239V13.7683C0 15.466 2.64655 16.8415 5.91308 16.8415Z" fill="white"/>
<path d="M5.91308 19.9992C7.18344 20.016 8.44482 19.7842 9.62625 19.317C9.01695 18.8159 8.49831 18.2138 8.09299 17.5371C7.37384 17.6684 6.64411 17.7331 5.91308 17.7304C3.31764 17.7304 1.15106 16.966 0 15.7838V16.926C0 18.6237 2.64655 19.9992 5.91308 19.9992Z" fill="white"/>
</g>
<defs>
<clipPath id="clip0">
<rect width="19.9991" height="20" fill="white"/>
</clipPath>
</defs>
</svg>
