<svg width="20" height="20" viewBox="0 0 20 20" fill="none" xmlns="http://www.w3.org/2000/svg">
<g clip-path="url(#clip0)">
<path d="M7.31761 2.14898C6.93527 3.83652 8.04272 6.71061 9.91484 6.71061C11.7738 6.71061 12.8812 3.83652 12.4989 2.14898C12.2088 0.856955 11.075 0 9.91484 0C8.74147 0 7.62084 0.856955 7.31761 2.14898ZM1.87265 3.33553C1.54305 4.75939 2.49229 7.19842 4.07436 7.19842C5.65643 7.19842 6.60567 4.75939 6.27608 3.33553C6.02558 2.24127 5.06316 1.50297 4.07436 1.50297C3.08557 1.50297 2.12314 2.24127 1.87265 3.33553ZM13.5536 3.33553C13.224 4.75939 14.1732 7.19842 15.7421 7.19842C17.3242 7.19842 18.2734 4.75939 17.9438 3.33553C17.6933 2.24127 16.7309 1.50297 15.7421 1.50297C14.7665 1.50297 13.8041 2.24127 13.5536 3.33553ZM12.7757 18.4047L14.4237 12.7357C15.4521 9.45287 13.4877 7.43573 9.91484 7.43573C6.32881 7.43573 4.36441 9.45287 5.37957 12.7357L7.04074 18.4047C7.34397 19.354 8.59645 20 9.91484 20C11.2069 20 12.4725 19.354 12.7757 18.4047ZM4.73356 8.34542C4.08755 9.22874 3.4679 10.7581 4.17983 13.0784L5.65643 18.0751C5.20818 18.3388 4.64127 18.4839 4.07436 18.4839C2.95373 18.4839 1.89902 17.9433 1.63534 17.1259L0.224659 12.3138C-0.632295 9.53197 1.02888 7.83125 4.07436 7.83125C4.43033 7.83125 4.78629 7.85761 5.11589 7.91035C4.98405 8.04219 4.85221 8.2004 4.73356 8.34542ZM15.7421 7.83125C18.7876 7.83125 20.462 9.53197 19.5918 12.3138L18.1812 17.1259C17.9175 17.9433 16.8628 18.4839 15.7421 18.4839C15.1752 18.4839 14.6083 18.3388 14.1601 18.0751L15.6235 13.1048C16.3486 10.7581 15.7289 9.22874 15.0697 8.34542C14.9643 8.2004 14.8324 8.04219 14.7006 7.91035C15.0302 7.85761 15.373 7.83125 15.7421 7.83125Z" fill="white"/>
</g>
<defs>
<clipPath id="clip0">
<rect width="19.8212" height="20" fill="white"/>
</clipPath>
</defs>
</svg>
