<svg width="16" height="20" viewBox="0 0 16 20" fill="none" xmlns="http://www.w3.org/2000/svg">
<path d="M15.36 4.82143L11.0618 0.621435C10.6519 0.222075 10.0974 -0.00138968 9.52 6.50325e-06H2.18182C1.60316 6.50325e-06 1.04821 0.225771 0.63904 0.627635C0.22987 1.0295 0 1.57454 0 2.14286V17.8571C0 18.4255 0.22987 18.9705 0.63904 19.3724C1.04821 19.7742 1.60316 20 2.18182 20H13.8182C14.3968 20 14.9518 19.7742 15.361 19.3724C15.7701 18.9705 16 18.4255 16 17.8571V6.33572C15.9995 5.76759 15.7693 5.22291 15.36 4.82143ZM11.6364 12.8571H4.36364C4.17075 12.8571 3.98577 12.7819 3.84938 12.6479C3.71299 12.514 3.63636 12.3323 3.63636 12.1429C3.63636 11.9534 3.71299 11.7717 3.84938 11.6378C3.98577 11.5038 4.17075 11.4286 4.36364 11.4286H11.6364C11.8292 11.4286 12.0142 11.5038 12.1506 11.6378C12.287 11.7717 12.3636 11.9534 12.3636 12.1429C12.3636 12.3323 12.287 12.514 12.1506 12.6479C12.0142 12.7819 11.8292 12.8571 11.6364 12.8571ZM11.6364 10.7143H4.36364C4.17075 10.7143 3.98577 10.639 3.84938 10.5051C3.71299 10.3711 3.63636 10.1894 3.63636 10C3.63636 9.81056 3.71299 9.62888 3.84938 9.49493C3.98577 9.36097 4.17075 9.28572 4.36364 9.28572H11.6364C11.8292 9.28572 12.0142 9.36097 12.1506 9.49493C12.287 9.62888 12.3636 9.81056 12.3636 10C12.3636 10.1894 12.287 10.3711 12.1506 10.5051C12.0142 10.639 11.8292 10.7143 11.6364 10.7143ZM11.6364 8.57143H4.36364C4.17075 8.57143 3.98577 8.49618 3.84938 8.36222C3.71299 8.22827 3.63636 8.04659 3.63636 7.85715C3.63636 7.66771 3.71299 7.48603 3.84938 7.35207C3.98577 7.21812 4.17075 7.14286 4.36364 7.14286H11.6364C11.8292 7.14286 12.0142 7.21812 12.1506 7.35207C12.287 7.48603 12.3636 7.66771 12.3636 7.85715C12.3636 8.04659 12.287 8.22827 12.1506 8.36222C12.0142 8.49618 11.8292 8.57143 11.6364 8.57143Z" fill="white"/>
</svg>
