<svg width="22" height="20" viewBox="0 0 22 20" fill="none" xmlns="http://www.w3.org/2000/svg">
<path d="M0.319424 20C0.234709 20 0.153454 19.9663 0.0935518 19.9064C0.0336492 19.8465 0 19.7653 0 19.6806V18.6082C0 18.5235 0.0336492 18.4423 0.0935518 18.3824C0.153454 18.3225 0.234709 18.2888 0.319424 18.2888H20.7736C20.8583 18.2888 20.9396 18.3225 20.9995 18.3824C21.0594 18.4423 21.093 18.5235 21.093 18.6082V19.6806C21.093 19.7653 21.0594 19.8465 20.9995 19.9064C20.9396 19.9663 20.8583 20 20.7736 20H0.319424ZM6.68498 17.4447C6.53088 17.444 6.38324 17.3825 6.27426 17.2736C6.16529 17.1646 6.10381 17.017 6.10317 16.8629V0.960376C6.10381 0.806267 6.16529 0.658651 6.27426 0.549679C6.38324 0.440707 6.53088 0.379208 6.68498 0.378578H10.3013C10.4554 0.379208 10.603 0.440707 10.7119 0.549679C10.8209 0.658651 10.8824 0.806267 10.883 0.960376V16.8629C10.8805 17.0164 10.8184 17.1629 10.7098 17.2714C10.6013 17.38 10.4548 17.4421 10.3013 17.4447H6.68498ZM0.581809 17.4447C0.427701 17.444 0.280061 17.3825 0.171089 17.2736C0.0621173 17.1646 0.000630676 17.017 0 16.8629V0.960376C0.000660476 0.806277 0.0621795 0.658678 0.171145 0.549712C0.28011 0.440747 0.42771 0.379238 0.581809 0.378578H4.19808C4.35218 0.379238 4.49978 0.440747 4.60874 0.549712C4.71771 0.658678 4.7792 0.806277 4.77986 0.960376V16.8629C4.77923 17.017 4.71774 17.1646 4.60877 17.2736C4.4998 17.3825 4.35219 17.444 4.19808 17.4447H0.581809ZM16.4957 17.0226L12.001 1.77033C11.9789 1.69768 11.9714 1.62136 11.9789 1.54579C11.9865 1.47022 12.0089 1.3969 12.045 1.33006C12.0811 1.26323 12.13 1.20421 12.1891 1.15642C12.2481 1.10863 12.316 1.07301 12.3889 1.05164L15.8568 0.0249358C15.9295 0.00280347 16.0058 -0.00470435 16.0814 0.0028466C16.157 0.0103975 16.2303 0.0328574 16.2971 0.0689269C16.364 0.104996 16.423 0.15396 16.4708 0.212985C16.5186 0.27201 16.5542 0.339925 16.5755 0.412801L21.0702 15.6764C21.0923 15.7491 21.0998 15.8254 21.0923 15.901C21.0847 15.9766 21.0623 16.0499 21.0262 16.1167C20.9902 16.1835 20.9412 16.2426 20.8822 16.2904C20.8231 16.3381 20.7552 16.3738 20.6824 16.3951L17.2144 17.4104C17.1599 17.4266 17.1035 17.4349 17.0467 17.435C16.9226 17.4352 16.8017 17.3951 16.7024 17.3207C16.603 17.2463 16.5305 17.1417 16.4957 17.0226V17.0226Z" fill="white"/>
</svg>
