<svg width="20" height="20" viewBox="0 0 20 20" fill="none" xmlns="http://www.w3.org/2000/svg">
<path d="M14.6362 18.8277H13.0642L12.6869 16.4334L7.27987 16.4214L6.85769 18.8277H5.36349C5.03978 18.8277 4.77734 19.0901 4.77734 19.4138C4.77734 19.7375 5.03978 20 5.36349 20H14.6362C14.9599 20 15.2224 19.7375 15.2224 19.4138C15.2224 19.0901 14.9599 18.8277 14.6362 18.8277Z" fill="white"/>
<path d="M10.6699 7.03092H12.0985C12.2527 6.25182 12.7437 5.59034 13.4157 5.19945C13.1738 4.85711 13.0313 4.44161 13.0313 3.99376C13.0313 2.82733 13.9945 1.87836 15.1785 1.87836C16.3624 1.87836 17.3256 2.82733 17.3256 3.99376C17.3256 4.44161 17.1832 4.85711 16.9412 5.19945C17.6132 5.59034 18.1042 6.25182 18.2585 7.03092H20.0004V1.30976C20.0004 0.586418 19.4052 0 18.671 0H10.6699V7.03092Z" fill="white"/>
<path d="M1.74906 7.03092C1.90333 6.25182 2.39432 5.59034 3.06632 5.19945C2.82436 4.85711 2.68192 4.44161 2.68192 3.99376C2.68192 2.82733 3.64512 1.87836 4.82905 1.87836C6.01295 1.87836 6.97614 2.82733 6.97614 3.99376C6.97614 4.44161 6.83374 4.85711 6.59174 5.19945C7.26374 5.59034 7.75469 6.25182 7.90897 7.03092H9.36534V0H1.32938C0.595171 0 0 0.586418 0 1.30976V7.03092H1.74906Z" fill="white"/>
<path d="M4.87895 4.82095C5.32024 4.79552 5.67165 4.4348 5.67165 3.99375C5.67165 3.53624 5.29386 3.164 4.82948 3.164C4.36509 3.164 3.9873 3.53624 3.9873 3.99375C3.9873 4.4348 4.33872 4.79552 4.78001 4.82095H4.87895Z" fill="white"/>
<path d="M15.2286 4.82095C15.6698 4.79552 16.0213 4.4348 16.0213 3.99375C16.0213 3.53624 15.6435 3.164 15.1791 3.164C14.7147 3.164 14.3369 3.53624 14.3369 3.99375C14.3369 4.4348 14.6883 4.79552 15.1296 4.82095H15.2286Z" fill="white"/>
<path d="M13.4521 7.0309H16.9064C16.6926 6.49055 16.1587 6.10663 15.5356 6.10663C15.3347 6.1071 15.0716 6.10776 14.8229 6.10663C14.1998 6.10663 13.6659 6.49055 13.4521 7.0309Z" fill="white"/>
<path d="M3.10156 7.0309H6.55579C6.34204 6.49055 5.80814 6.10663 5.18499 6.10663C4.98414 6.1071 4.72096 6.10776 4.47236 6.10663C3.84925 6.10663 3.31531 6.49055 3.10156 7.0309Z" fill="white"/>
<path d="M15.2286 12.9042C15.6698 12.8788 16.0213 12.518 16.0213 12.0769C16.0213 11.6194 15.6435 11.2472 15.1791 11.2472C14.7147 11.2472 14.3369 11.6194 14.3369 12.0769C14.3369 12.518 14.6883 12.8787 15.1296 12.9042H15.2286Z" fill="white"/>
<path d="M13.4521 15.1142H16.9064C16.6926 14.5738 16.1587 14.1899 15.5356 14.1899C15.3347 14.1903 15.0716 14.191 14.8229 14.1899C14.1998 14.1899 13.6659 14.5738 13.4521 15.1142Z" fill="white"/>
<path d="M10.6699 8.31659V15.1165H12.0978C12.2517 14.3365 12.743 13.6739 13.4157 13.2826C13.1737 12.9403 13.0313 12.5248 13.0313 12.0769C13.0313 10.9105 13.9945 9.96151 15.1785 9.96151C16.3624 9.96151 17.3256 10.9105 17.3256 12.0769C17.3256 12.5248 17.1832 12.9403 16.9412 13.2826C17.6139 13.6739 18.1053 14.3365 18.2591 15.1165H18.6711C19.4053 15.1165 20.0004 14.5301 20.0004 13.8067V8.31659H10.6699Z" fill="white"/>
<path d="M3.10156 15.1142H6.55579C6.34204 14.5738 5.80814 14.1899 5.18499 14.1899C4.98414 14.1903 4.72096 14.191 4.47236 14.1899C3.84925 14.1899 3.31531 14.5738 3.10156 15.1142Z" fill="white"/>
<path d="M4.87895 12.9042C5.32024 12.8788 5.67165 12.518 5.67165 12.0769C5.67165 11.6194 5.29386 11.2472 4.82948 11.2472C4.36509 11.2472 3.9873 11.6194 3.9873 12.0769C3.9873 12.518 4.33872 12.8787 4.78001 12.9042H4.87895Z" fill="white"/>
<path d="M3.06632 13.2826C2.82432 12.9403 2.68192 12.5248 2.68192 12.0769C2.68192 10.9105 3.64512 9.96151 4.82905 9.96151C6.01295 9.96151 6.97614 10.9105 6.97614 12.0769C6.97614 12.5248 6.83374 12.9403 6.59174 13.2826C7.2644 13.6739 7.75583 14.3365 7.90967 15.1165H9.36538V8.31659H0V13.8068C0 14.5302 0.595171 15.1165 1.32938 15.1165H1.74839C1.90223 14.3365 2.39366 13.6739 3.06632 13.2826Z" fill="white"/>
</svg>
