<svg width="20" height="20" viewBox="0 0 20 20" fill="none" xmlns="http://www.w3.org/2000/svg">
<g clip-path="url(#clip0)">
<path d="M19.9024 18.5366C19.6829 19.3902 18.9268 20 18 20H1.90244C1 20 0.219512 19.3902 0 18.5366H19.9024ZM2.87805 6.82927H1.90244C1.63415 6.82927 1.41463 7.04878 1.41463 7.31707V17.561H2.87805V6.82927ZM18.4878 7.31707C18.4878 7.04878 18.2683 6.82927 18 6.82927H17.0244V17.561H18.4878V7.31707ZM16.0488 17.561H3.85366V0.487805C3.85366 0.219512 4.07317 0 4.34146 0H11.6585V2.92683C11.6585 3.73171 12.3171 4.39024 13.122 4.39024H16.0488V17.561ZM7.26829 13.4146C7.26829 13.1463 7.04878 12.9268 6.78049 12.9268C6.5122 12.9268 6.29268 13.1463 6.29268 13.4146C6.29268 13.6829 6.5122 13.9024 6.78049 13.9024C7.04878 13.9024 7.26829 13.6829 7.26829 13.4146ZM7.26829 10.9756C7.26829 10.7073 7.04878 10.4878 6.78049 10.4878C6.5122 10.4878 6.29268 10.7073 6.29268 10.9756C6.29268 11.2439 6.5122 11.4634 6.78049 11.4634C7.04878 11.4634 7.26829 11.2439 7.26829 10.9756ZM8.58537 6.73171C8.39024 6.53659 8.09756 6.53659 7.90244 6.73171L6.87805 7.7561L6.78049 7.85366L6.7561 7.82927L6.63415 7.70732C6.43902 7.5122 6.14634 7.5122 5.95122 7.70732C5.7561 7.90244 5.7561 8.19512 5.95122 8.39024L6.43902 8.87805C6.53658 8.97561 6.65854 9.02439 6.78049 9.02439C6.90244 9.02439 7.02439 8.97561 7.12195 8.87805L8.58537 7.41463C8.78049 7.21951 8.78049 6.92683 8.58537 6.73171ZM13.6098 13.4146C13.6098 13.1463 13.3902 12.9268 13.122 12.9268H9.70732C9.43902 12.9268 9.21951 13.1463 9.21951 13.4146C9.21951 13.6829 9.43902 13.9024 9.70732 13.9024H13.122C13.3902 13.9024 13.6098 13.6829 13.6098 13.4146ZM13.6098 10.9756C13.6098 10.7073 13.3902 10.4878 13.122 10.4878H9.70732C9.43902 10.4878 9.21951 10.7073 9.21951 10.9756C9.21951 11.2439 9.43902 11.4634 9.70732 11.4634H13.122C13.3902 11.4634 13.6098 11.2439 13.6098 10.9756ZM13.6098 8.53659C13.6098 8.26829 13.3902 8.04878 13.122 8.04878H9.70732C9.43902 8.04878 9.21951 8.26829 9.21951 8.53659C9.21951 8.80488 9.43902 9.02439 9.70732 9.02439H13.122C13.3902 9.02439 13.6098 8.80488 13.6098 8.53659ZM13.122 3.41463H15.3659L12.6341 0.682927V2.92683C12.6341 3.19512 12.8537 3.41463 13.122 3.41463Z" fill="white"/>
</g>
<defs>
<clipPath id="clip0">
<rect width="19.9024" height="20" fill="white"/>
</clipPath>
</defs>
</svg>
