<svg width="22" height="20" viewBox="0 0 22 20" fill="none" xmlns="http://www.w3.org/2000/svg">
<g clip-path="url(#clip0)">
<path d="M15.0957 10.4762H21.7624V17.1429H15.0957V10.4762Z" fill="white"/>
<path d="M15.0957 18.78C15.0957 19.4524 15.6433 20 16.3157 20H20.5424C21.2157 20 21.7624 19.4524 21.7624 18.78V18.0952H15.0957V18.78V18.78Z" fill="white"/>
<path d="M20.5424 7.61902H16.3157C15.6424 7.61902 15.0957 8.16664 15.0957 8.83902V9.52378H21.7624V8.83902C21.7624 8.16664 21.2148 7.61902 20.5424 7.61902V7.61902Z" fill="white"/>
<path d="M19.8572 1.69238C19.8572 0.759048 19.0981 0 18.1648 0H1.69336C0.760024 0 0.000976562 0.759048 0.000976562 1.69238V1.90476H19.8581L19.8572 1.69238Z" fill="white"/>
<path d="M0 14.4981C0 15.4315 0.759048 16.1905 1.69238 16.1905H8.74L8.13143 19.0477H7.61905C7.35619 19.0477 7.14286 19.2619 7.14286 19.5239C7.14286 19.7858 7.35619 20 7.61905 20H11.1962C11.2038 20 11.2095 20 11.2162 20H12.2381C12.5 20 12.7143 19.7858 12.7143 19.5239C12.7143 19.2619 12.5 19.0477 12.2381 19.0477H11.5829L10.9733 16.1905H14.1429V13.3334H0V14.4981Z" fill="white"/>
<path d="M19.8571 6.6667V2.85718H0V12.381H14.1429V8.83908C14.1429 7.64099 15.1171 6.6667 16.3152 6.6667H19.8571Z" fill="white"/>
</g>
<defs>
<clipPath id="clip0">
<rect width="21.7619" height="20" fill="white"/>
</clipPath>
</defs>
</svg>
