<svg xmlns="http://www.w3.org/2000/svg" width="40.2" height="44.5" viewBox="0 0 40.2 44.5">
  <g id="archive" transform="translate(-2.25 0.75)">
    <path id="Path_1558" data-name="Path 1558" d="M39.67,0H5.03A2.032,2.032,0,0,0,3,2.03V40.97A2.032,2.032,0,0,0,5.03,43H39.67a2.032,2.032,0,0,0,2.03-2.03V2.03A2.032,2.032,0,0,0,39.67,0ZM5.03,1.433H39.67a.6.6,0,0,1,.6.6V20.783H4.433V2.03A.6.6,0,0,1,5.03,1.433ZM39.67,41.567H5.03a.6.6,0,0,1-.6-.6V22.217H40.267V40.97A.6.6,0,0,1,39.67,41.567Z" stroke="#0a346c" stroke-width="1.5"/>
    <path id="Path_1559" data-name="Path 1559" d="M23.512,16.3h7.876A2.514,2.514,0,0,0,33.9,13.788V12.717a.717.717,0,1,0-1.433,0v1.071a1.08,1.08,0,0,1-1.079,1.079H23.512a1.08,1.08,0,0,1-1.079-1.079V12.717a.717.717,0,0,0-1.433,0v1.071A2.514,2.514,0,0,0,23.512,16.3Z" transform="translate(-5.1 -3.4)" fill="#34aeff" stroke="#34aeff" stroke-width="1.5"/>
    <path id="Path_1560" data-name="Path 1560" d="M33.183,41a.716.716,0,0,0-.717.717v1.071a1.08,1.08,0,0,1-1.079,1.079H23.512a1.08,1.08,0,0,1-1.079-1.079V41.717a.717.717,0,1,0-1.433,0v1.071A2.514,2.514,0,0,0,23.512,45.3h7.876A2.514,2.514,0,0,0,33.9,42.788V41.717A.716.716,0,0,0,33.183,41Z" transform="translate(-5.1 -11.617)" stroke="#34aeff" stroke-width="1.5"/>
  </g>
</svg>
