<svg xmlns="http://www.w3.org/2000/svg" width="48.182" height="40.306" viewBox="0 0 48.182 40.306">
  <g id="Group_3508" data-name="Group 3508" transform="translate(-116.473 -844.579)">
    <g id="bank" transform="translate(116.474 844.579)">
      <path id="Path_1562" data-name="Path 1562" d="M46.791,11.582H40.049l4.464-4.464a4.169,4.169,0,1,0-5.9-5.9L28.256,11.582H1.389A1.39,1.39,0,0,0,0,12.972V38.916a1.39,1.39,0,0,0,1.39,1.39h45.4a1.39,1.39,0,0,0,1.39-1.39V12.972a1.39,1.39,0,0,0-1.39-1.39ZM27.383,20.317l-2.948.983.983-2.948L37.306,6.463l1.966,1.966ZM41.565,2.78a1.381,1.381,0,0,1,.983.407,1.4,1.4,0,0,1,0,1.966l-1.31,1.31L39.272,4.5l1.31-1.31a1.381,1.381,0,0,1,.983-.407ZM45.4,37.526H2.779V14.362h22.7L23.22,16.618a1.387,1.387,0,0,0-.336.543l-1.966,5.9a1.575,1.575,0,0,0,.2,1.4,1.4,1.4,0,0,0,1.117.563H40.768a1.39,1.39,0,1,0,0-2.78H29.394l7.876-7.876H45.4Zm0,0" fill="#0a346c"/>
      <path id="Path_1563" data-name="Path 1563" d="M312.817,300.309H301.7a1.39,1.39,0,0,0,0,2.78h11.119a1.39,1.39,0,0,0,0-2.78Zm0,0" transform="translate(-272.049 -272.049)" fill="#0a346c"/>
    </g>
    <g id="Group_3503" data-name="Group 3503" transform="translate(123.949 863.599)">
      <g id="Group_3507" data-name="Group 3507">
        <path id="Path_1591" data-name="Path 1591" d="M287.383,69.484H286.01a4.3,4.3,0,0,0-.594-1.434h1.967a1.025,1.025,0,0,0,0-2.049h-8.012a1.025,1.025,0,0,0,0,2.049h2.3a2.449,2.449,0,0,1,2.182,1.434h-4.477a1.025,1.025,0,0,0,0,2.049h4.477a3.26,3.26,0,0,1-.471.645,2.392,2.392,0,0,1-1.711.686h-2.3a1.032,1.032,0,0,0-1.025,1.045,1.057,1.057,0,0,0,.318.738l5.727,5.42a1.022,1.022,0,0,0,1.4-1.486l-3.863-3.658a4.416,4.416,0,0,0,2.879-1.281,4.586,4.586,0,0,0,1.2-2.111h1.373a1.025,1.025,0,0,0,0-2.049Z" transform="translate(-278.346 -66)" fill="#34aeff" stroke="#34aeff" stroke-width="0.5"/>
      </g>
    </g>
  </g>
</svg>
