<svg xmlns="http://www.w3.org/2000/svg" width="33.135" height="43.255" viewBox="0 0 33.135 43.255">
  <g id="Group_3509" data-name="Group 3509" transform="translate(-123.12 -988.274)">
    <path id="Path_1592" data-name="Path 1592" d="M93.6,0H67.155A1.31,1.31,0,0,0,66,1.213V37.722a1.533,1.533,0,0,0,1.533,1.533H93.6a1.533,1.533,0,0,0,1.533-1.533V1.533A1.533,1.533,0,0,0,93.6,0ZM92.068,36.189h-23V3.067h23Z" transform="translate(61.12 988.274)" fill="#0a346c"/>
    <rect id="Rectangle_1514" data-name="Rectangle 1514" width="24.75" height="33.532" transform="translate(125.528 994.73)" fill="#fff"/>
    <g id="homework" transform="translate(123.12 992.274)">
      <g id="Group_3498" data-name="Group 3498">
        <g id="Group_3497" data-name="Group 3497">
          <path id="Path_1573" data-name="Path 1573" d="M155.47,158.21l.261,4.222a1.533,1.533,0,0,0,1.7,1.429l4.2-.477a1.534,1.534,0,0,0,1-.538l7.885-9.4a1.533,1.533,0,0,0-.189-2.16l-4.464-3.746a1.533,1.533,0,0,0-2.16.189l-7.885,9.4A1.533,1.533,0,0,0,155.47,158.21Zm9.6-7.331,2.114,1.774-6.506,7.754-1.991.226-.123-2Z" transform="translate(-148.607 -135.901)" fill="#34aeff"/>
          <path id="Path_1574" data-name="Path 1574" d="M93.6,0H67.155A1.31,1.31,0,0,0,66,1.213V37.722a1.533,1.533,0,0,0,1.533,1.533H93.6a1.533,1.533,0,0,0,1.533-1.533V1.533A1.533,1.533,0,0,0,93.6,0ZM92.068,36.189h-23V3.067h23Z" transform="translate(-66)" fill="#0a346c"/>
        </g>
      </g>
    </g>
  </g>
</svg>
