<svg xmlns="http://www.w3.org/2000/svg" width="49.173" height="42.332" viewBox="0 0 49.173 42.332">
  <g id="Untitled-1" transform="translate(-3.238 -3.531)">
    <path id="Path_1104" data-name="Path 1104" d="M20.829,23.882V9.112l2.654-4.581,2.629,4.581V24.492" transform="translate(14.55 0)" fill="none" stroke="#34aeff" stroke-linejoin="round" stroke-miterlimit="10" stroke-width="2"/>
    <path id="Path_1098" data-name="Path 1098" d="M14.639,9.282l-3.255,3.962h6.539Z" transform="translate(5.612 3.798)" fill="none" stroke="#34aeff" stroke-linejoin="round" stroke-miterlimit="10" stroke-width="2"/>
    <circle id="Ellipse_139" data-name="Ellipse 139" cx="2.683" cy="2.683" r="2.683" transform="translate(12.552 19.705)" fill="none" stroke="#34aeff" stroke-linejoin="round" stroke-miterlimit="10" stroke-width="2"/>
    <rect id="Rectangle_901" data-name="Rectangle 901" width="5.234" height="5.234" transform="translate(17.74 27.732)" fill="none" stroke="#34aeff" stroke-linejoin="round" stroke-miterlimit="10" stroke-width="2"/>
    <path id="Path_1100" data-name="Path 1100" d="M25.215,23.777V4.981h6.472v18.8" transform="translate(18.056 0.36)" fill="none" stroke="#34aeff" stroke-linecap="round" stroke-linejoin="round" stroke-miterlimit="10" stroke-width="2"/>
    <g id="Group_1630" data-name="Group 1630" transform="translate(46.787 9.305)">
      <line id="Line_137" data-name="Line 137" x1="1.967" stroke-width="2" stroke="#34aeff" stroke-linecap="round" stroke-linejoin="round" stroke-miterlimit="10" fill="none"/>
    </g>
    <g id="Group_1631" data-name="Group 1631" transform="translate(46.787 12.625)">
      <line id="Line_138" data-name="Line 138" x1="1.967" stroke-width="2" stroke="#34aeff" stroke-linecap="round" stroke-linejoin="round" stroke-miterlimit="10" fill="none"/>
    </g>
    <g id="Group_1632" data-name="Group 1632" transform="translate(46.787 15.944)">
      <line id="Line_139" data-name="Line 139" x1="1.967" stroke-width="2" stroke="#34aeff" stroke-linecap="round" stroke-linejoin="round" stroke-miterlimit="10" fill="none"/>
    </g>
    <g id="Group_1633" data-name="Group 1633" transform="translate(46.787 19.264)">
      <line id="Line_140" data-name="Line 140" x1="1.967" stroke-width="2" stroke="#34aeff" stroke-linecap="round" stroke-linejoin="round" stroke-miterlimit="10" fill="none"/>
    </g>
    <path id="Path_1099" data-name="Path 1099" d="M36.4,36.028H20.866l-1.027-20.6H37.527Z" transform="translate(13.759 8.71)" fill="none" stroke="#0a346c" stroke-linejoin="round" stroke-miterlimit="10" stroke-width="2.25"/>
    <path id="Path_1101" data-name="Path 1101" d="M4.509,37.329a7.266,7.266,0,0,1-.146-1.452V11A4.026,4.026,0,0,1,8.295,6.88H27.543a2.429,2.429,0,0,1,2.372,2.481V35.137" transform="translate(0 1.878)" fill="none" stroke="#0a346c" stroke-miterlimit="10" stroke-width="2.25"/>
    <path id="Path_1102" data-name="Path 1102" d="M27.946,30.264H8.158a3.794,3.794,0,0,1-3.795-3.795h0a3.885,3.885,0,0,1,3.885-3.885H29.914V28.3A1.968,1.968,0,0,1,27.946,30.264Z" transform="translate(0 14.431)" fill="none" stroke="#0a346c" stroke-miterlimit="10" stroke-width="2.25"/>
    <line id="Line_141" data-name="Line 141" y2="28.196" transform="translate(7.649 8.821)" fill="none" stroke="#0a346c" stroke-miterlimit="10" stroke-width="2.25"/>
    <line id="Line_142" data-name="Line 142" x1="18.926" transform="translate(10.988 40.855)" fill="none" stroke="#0a346c" stroke-linecap="round" stroke-miterlimit="10" stroke-width="2.25"/>
    <g id="Group_1634" data-name="Group 1634" transform="translate(35.36 10.517)">
      <path id="Path_1105" data-name="Path 1105" d="M.408,1.286h5.41" transform="translate(-0.408 -1.286)" fill="none" stroke="#34aeff" stroke-width="2"/>
    </g>
  </g>
</svg>
