<svg xmlns="http://www.w3.org/2000/svg" width="80" height="80" viewBox="0 0 80 80">
  <g id="Event_management_2" data-name="Event management 2" transform="translate(-3.987 -4.129)">
    <rect id="Rectangle_2087" data-name="Rectangle 2087" width="80" height="80" transform="translate(3.987 4.129)" fill="none"/>
    <g id="Group_4345" data-name="Group 4345" transform="translate(-8.965 -9.404)">
      <path id="Path_1935" data-name="Path 1935" d="M14.89,93.5h78V21.76h-11.9V15.5H79.218v6.26H67.88V15.5H66.113v6.26H54.773V15.5H53.007v6.26H41.667V15.5H39.9v6.26H28.562V15.5H26.795v6.26H14.89Zm1.767-69.96H26.795V29.8h1.767V23.54H39.9V29.8h1.767V23.54h11.34V29.8h1.767V23.54h11.34V29.8H67.88V23.54H79.218V29.8h1.767V23.54H91.123V91.721H16.657Z" transform="translate(-0.938 -0.967)" fill="#1c2d6b"/>
      <g id="Dates" transform="translate(47.806 38.876)">
        <path id="Path_1937" data-name="Path 1937" d="M54.769,45.274H64.8V35.245H54.769V45.274Zm1.692-8.337h6.646v6.645H56.461Z" transform="translate(-42.13 -35.245)" fill="#1c2d6b"/>
        <path id="Path_1938" data-name="Path 1938" d="M65.983,56.49h10.03V46.461H65.983Zm1.692-8.337h6.646V54.8H67.675Z" transform="translate(-40.712 -33.717)" fill="#1c2d6b"/>
        <path id="Path_1940" data-name="Path 1940" d="M43.554,56.49h10.03V46.461H43.554Zm1.692-8.337h6.646V54.8H45.246Z" transform="translate(-43.554 -33.717)" fill="#1c2d6b"/>
        <path id="Path_1941" data-name="Path 1941" d="M65.983,67.7h10.03V57.675H65.983Zm1.692-8.336h6.646v6.645H67.675Z" transform="translate(-40.712 -32.188)" fill="#1c2d6b"/>
        <path id="Path_1944" data-name="Path 1944" d="M65.983,78.919h10.03V68.89H65.983Zm1.692-8.336h6.646v6.645H67.675Z" transform="translate(-40.712 -30.631)" fill="#1c2d6b"/>
        <path id="Path_1945" data-name="Path 1945" d="M54.769,78.919H64.8V68.89H54.769V78.919Zm1.692-8.336h6.646v6.645H56.461Z" transform="translate(-42.13 -30.631)" fill="#1c2d6b"/>
      </g>
      <g id="Event_date" data-name="Event date" transform="translate(35.24 39.092)">
        <path id="Path_1936" data-name="Path 1936" d="M65.983,45.274h10.03V35.245H65.983Zm2.888-1.692L71,41.455l2.127,2.127Zm5.45-1.2-2.127-2.127,2.127-2.126Zm-1.2-5.449L71,39.064,68.87,36.937Zm-5.45,1.2L69.8,40.259l-2.127,2.127Z" transform="translate(-28.038 -35.245)" fill="#58a5da"/>
        <path id="Path_1939" data-name="Path 1939" d="M54.769,56.49H64.8V46.461H54.769V56.49ZM57.656,54.8l2.127-2.127L61.91,54.8Zm5.45-1.2-2.127-2.126,2.127-2.127Zm-1.2-5.449L59.783,50.28l-2.127-2.127Zm-5.45,1.2,2.127,2.127L56.461,53.6Z" transform="translate(-29.472 -33.811)" fill="#58a5da"/>
        <path id="Path_1942" data-name="Path 1942" d="M54.769,67.7H64.8V57.675H54.769V67.7Zm1.692-8.336h6.646v6.645H56.461Z" transform="translate(-29.472 -32.378)" fill="#1c2d6b"/>
        <path id="Path_1943" data-name="Path 1943" d="M43.554,67.7h10.03V57.675H43.554Zm2.887-1.692,2.127-2.126L50.7,66.013H46.441Zm5.45-1.2L49.764,62.69l2.127-2.127Zm-1.2-5.449-2.127,2.127-2.127-2.127Zm-5.45,1.2,2.127,2.127-2.127,2.126Z" transform="translate(-30.905 -32.378)" fill="#58a5da"/>
        <path id="Path_1946" data-name="Path 1946" d="M43.554,78.919h10.03V68.89H43.554Zm2.887-1.692L48.568,75.1,50.7,77.227Zm5.45-1.2-2.127-2.126,2.127-2.127Zm-1.2-5.449-2.127,2.126-2.127-2.127H50.7Zm-5.45,1.2,2.127,2.127-2.127,2.126Z" transform="translate(-30.905 -30.944)" fill="#58a5da"/>
        <path id="Path_1947" data-name="Path 1947" d="M32.339,78.919h10.03V68.89H32.339V78.919Zm2.887-1.692L37.353,75.1l2.127,2.127Zm5.45-1.2-2.127-2.126,2.127-2.127Zm-1.2-5.449L37.353,72.71l-2.127-2.127Zm-5.45,1.2,2.127,2.127-2.127,2.126Z" transform="translate(-32.339 -30.944)" fill="#58a5da"/>
      </g>
      <path id="Pen" d="M49.119,33.239l.01-.162c.007-.112.118-2.729-3.6-4.477a7.353,7.353,0,0,0-3.1-.774,3.935,3.935,0,0,0-2.637.858l-.118.112-.894,1.9-.449-.212L39.22,28.6,35.8,26.986,31.418,36.3H21.556V46.328H26.7l-1.059,2.251.787.37H21.558V58.978h4.879c-.4.848-.815,1.727-1.232,2.62H21.558v8.129A70.214,70.214,0,0,0,18.908,76.7c-.175.6-1.49,5.312-.307,7.168l-.852,1.809.766.36.766.36.854-1.814a3.375,3.375,0,0,0,1.423-.608v.294h10.03V74.245H28.652c.44-.837.891-1.717,1.345-2.62h1.591V68.41c.9-1.858,1.794-3.733,2.619-5.5v8.714h10.03V61.6H34.82c.429-.924.832-1.8,1.206-2.62h8.211V48.948h-2.5l1.233-2.621h1.27v-2.7l2.619-5.569v8.268h10.03V36.3h-9.2ZM35.9,63.291h6.646v6.645H35.9ZM37.61,32.016l.448.211L37,34.475l-.447-.211.794-1.689Zm-6.025,7.9L36.61,29.238l.359.168-.168.358L36.312,30.8,31.585,40.851l-1.692,3.6-.088.188-.8,1.692-.757,1.609-.359-.168.678-1.44.8-1.692.527-1.12Zm4.7-3.915-.139.294H35.6l.238-.505ZM34.2,39.258v1.166l-2.619,5.567V44.826Zm-2.778,7.071L30.192,48.95h-.548l1.234-2.621Zm-8.179-1.692V37.992h6.646v1.55l-2.4,5.1h-4.25Zm0,12.65V50.642h6.646v1.185c-.644,1.306-1.582,3.226-2.653,5.46Zm0,6H24.42c-.4.858-.787,1.721-1.173,2.579Zm6.646,12.649v6.645H23.247V82.5a24.434,24.434,0,0,0,2.211-2.718c.661-.974,1.44-2.305,2.283-3.846h2.153Zm6-20.785c-.447.994-1.025,2.271-1.692,3.723-.777,1.693-1.671,3.62-2.619,5.615-.552,1.162-1.12,2.345-1.692,3.517-.316.647-.634,1.291-.949,1.925-.285.573-.57,1.139-.852,1.692-.465.915-.921,1.793-1.364,2.62q-.475.89-.924,1.692c-.642,1.147-1.236,2.139-1.749,2.9-.249.368-.526.733-.81,1.092A18.794,18.794,0,0,1,21.555,81.8a4.15,4.15,0,0,1-1.574,1.117c-.383-.588-.115-3.462.548-5.742a58.755,58.755,0,0,1,2.065-5.551q.342-.824.715-1.692c.917-2.13,1.948-4.417,2.979-6.645.263-.57.527-1.135.787-1.692.421-.9.836-1.776,1.238-2.62q.414-.875.809-1.692c.267-.558.526-1.093.771-1.6.686-1.418,1.271-2.609,1.692-3.464.127-.259.245-.494.341-.688l1.379.65.9.423,1.692.8.647.306C36.381,54.075,36.16,54.567,35.9,55.155Zm6.645-4.512v6.645h-5.75c.557-1.232,1-2.216,1.283-2.857l.883.415,1.977-4.2Zm1.692-10.988-1.692,3.6-.652,1.386-.8,1.692-1.233,2.621-.8,1.692-.917,1.951L35.9,51.533l-1.692-.8-.663-.311-1.779-.837L34.2,44.4,35.9,40.8l1.322-2.809.8-1.692,3.032-6.444a2.645,2.645,0,0,1,1.386-.338,5.693,5.693,0,0,1,2.383.612c2.22,1.044,2.564,2.328,2.617,2.724Zm4.312-1.661H55.19v6.645H48.544Z" transform="translate(1.07 2.888)" fill="#1c2d6b"/>
    </g>
  </g>
</svg>
