<svg xmlns="http://www.w3.org/2000/svg" width="80" height="80" viewBox="0 0 80 80">
  <g id="PTM" transform="translate(13.973 13.973)">
    <rect id="Rectangle_2074" data-name="Rectangle 2074" width="80" height="80" transform="translate(-13.973 -13.973)" fill="none"/>
    <g id="Group_4334" data-name="Group 4334" transform="translate(-10.796 -10.796)">
      <path id="Path_1854" data-name="Path 1854" d="M13.891,27.781A7.891,7.891,0,1,0,6,19.891,7.9,7.9,0,0,0,13.891,27.781Zm0-13.151a5.26,5.26,0,1,1-5.26,5.26A5.266,5.266,0,0,1,13.891,14.63Z" transform="translate(1.891 3.709)" fill="#58a5da"/>
      <path id="Path_1855" data-name="Path 1855" d="M45.891,27.781A7.891,7.891,0,1,0,38,19.891,7.9,7.9,0,0,0,45.891,27.781Zm0-13.151a5.26,5.26,0,1,1-5.26,5.26A5.266,5.266,0,0,1,45.891,14.63Z" transform="translate(11.71 3.709)" fill="#58a5da"/>
      <path id="Path_1856" data-name="Path 1856" d="M70.761,26V43.1a3.943,3.943,0,0,1-3.931,3.945V32.576A6.571,6.571,0,0,0,60.278,26H53.726a1.313,1.313,0,0,0-1.31,1.315v7.891H41.933a1.313,1.313,0,0,0-1.31,1.315v3.945H32.76V36.521a1.313,1.313,0,0,0-1.31-1.315H20.966V27.315A1.313,1.313,0,0,0,19.656,26H13.1a6.571,6.571,0,0,0-6.552,6.576V47.042A3.943,3.943,0,0,1,2.621,43.1V26H0V43.1a6.58,6.58,0,0,0,3.931,6.018V65.453H6.552V49.672h13.1V64.138a1.313,1.313,0,0,0,1.31,1.315h6.552V43.1H45.864V65.453h6.552a1.313,1.313,0,0,0,1.31-1.315V49.672h13.1V65.453h2.621V49.114A6.58,6.58,0,0,0,73.382,43.1V26ZM26.208,40.466H15.725V32.576H13.1v9.206a1.313,1.313,0,0,0,1.31,1.315h9.173a1.315,1.315,0,0,1,1.31,1.315V62.823H22.277V48.357a1.313,1.313,0,0,0-1.31-1.315H9.173V32.576A3.943,3.943,0,0,1,13.1,28.63h5.242v7.891a1.313,1.313,0,0,0,1.31,1.315H30.139v2.63Zm26.208,6.576a1.313,1.313,0,0,0-1.31,1.315V62.823H48.485V44.412A1.315,1.315,0,0,1,49.8,43.1h9.173a1.313,1.313,0,0,0,1.31-1.315V32.576H57.657v7.891H43.243v-2.63H53.726a1.313,1.313,0,0,0,1.31-1.315V28.63h5.242a3.943,3.943,0,0,1,3.931,3.945V47.042Z" transform="translate(0 7.929)" fill="#09346c"/>
      <path id="Path_1857" data-name="Path 1857" d="M19.945,13.151V17.1a1.315,1.315,0,0,0,.9,1.248,1.34,1.34,0,0,0,.416.067,1.318,1.318,0,0,0,1.052-.526l3.551-4.734h9.863a3.95,3.95,0,0,0,3.945-3.945V3.945A3.95,3.95,0,0,0,35.727,0H19.945A3.95,3.95,0,0,0,16,3.945v5.26A3.95,3.95,0,0,0,19.945,13.151ZM18.63,3.945A1.317,1.317,0,0,1,19.945,2.63H35.727a1.317,1.317,0,0,1,1.315,1.315v5.26a1.317,1.317,0,0,1-1.315,1.315H25.206a1.314,1.314,0,0,0-1.052.526l-1.578,2.1V11.836a1.316,1.316,0,0,0-1.315-1.315H19.945A1.317,1.317,0,0,1,18.63,9.206Z" transform="translate(4.931)" fill="#09346c"/>
      <rect id="Rectangle_2069" data-name="Rectangle 2069" width="13.342" height="2.668" transform="translate(26.035 5.469)" fill="#58a5da"/>
      <rect id="Rectangle_2070" data-name="Rectangle 2070" width="8.005" height="2.668" transform="translate(35.346 32.698)" fill="#58a5da"/>
      <path id="Path_1858" data-name="Path 1858" d="M26.945,21A3.95,3.95,0,0,0,23,24.945v5.26a3.95,3.95,0,0,0,3.945,3.945H37.466a3.95,3.95,0,0,0,3.945-3.945v-.917l2.409-3.614a1.315,1.315,0,0,0-1.094-2.045h-1.54A3.953,3.953,0,0,0,37.466,21Zm11.836,3.945A1.316,1.316,0,0,0,40.1,26.26h.172L39,28.161a1.322,1.322,0,0,0-.221.73v1.315a1.317,1.317,0,0,1-1.315,1.315H26.945a1.317,1.317,0,0,1-1.315-1.315v-5.26a1.317,1.317,0,0,1,1.315-1.315H37.466A1.317,1.317,0,0,1,38.781,24.945Z" transform="translate(7.096 6.497)" fill="#09346c"/>
      <rect id="Rectangle_2071" data-name="Rectangle 2071" width="2.668" height="3.336" transform="translate(30.04 20.734)" fill="#58a5da"/>
      <rect id="Rectangle_2072" data-name="Rectangle 2072" width="2.668" height="3.336" transform="translate(35.357 20.734)" fill="#58a5da"/>
      <rect id="Rectangle_2073" data-name="Rectangle 2073" width="2.668" height="3.336" transform="translate(40.674 20.734)" fill="#58a5da"/>
    </g>
  </g>
</svg>
