<svg xmlns="http://www.w3.org/2000/svg" xmlns:xlink="http://www.w3.org/1999/xlink" width="78" height="78" viewBox="0 0 78 78"><defs><filter id="a" x="0" y="0" width="78" height="78" filterUnits="userSpaceOnUse"><feOffset dy="3" input="SourceAlpha"/><feGaussianBlur stdDeviation="5" result="b"/><feFlood flood-opacity="0.259"/><feComposite operator="in" in2="b"/><feComposite in="SourceGraphic"/></filter></defs><g transform="translate(1715 -7165)"><g transform="translate(-2401 7090)"><g transform="translate(520 -3645)"><g transform="matrix(1, 0, 0, 1, 166, 3720)" filter="url(#a)"><circle cx="24" cy="24" r="24" transform="translate(15 12)" fill="#fff"/></g></g><g transform="translate(-947 -13570)"><rect width="28" height="28" transform="translate(1658 13667)" fill="none"/><g transform="translate(-10.969 -14.418)"><g transform="translate(1678.296 13706.549) rotate(-90)"><path d="M0,0V10.8" transform="translate(5.291 0)" fill="none" stroke="#1283f4" stroke-linecap="round" stroke-width="3"/><path d="M0,0,5.3,5.771,10.61,0" transform="translate(0 8.685)" fill="none" stroke="#1283f4" stroke-linecap="round" stroke-linejoin="round" stroke-width="3"/></g><g transform="translate(1687.088 13683.614) rotate(90)"><path d="M0,0V10.8" transform="translate(5.291 0)" fill="none" stroke="#2d4a99" stroke-linecap="round" stroke-width="3"/><path d="M0,0,5.3,5.771,10.61,0" transform="translate(0 8.685)" fill="none" stroke="#2d4a99" stroke-linecap="round" stroke-linejoin="round" stroke-width="3"/></g></g></g></g></g></svg>