<svg xmlns="http://www.w3.org/2000/svg" xmlns:xlink="http://www.w3.org/1999/xlink" width="78" height="78" viewBox="0 0 78 78"><defs><filter id="a" x="0" y="0" width="78" height="78" filterUnits="userSpaceOnUse"><feOffset dy="3" input="SourceAlpha"/><feGaussianBlur stdDeviation="5" result="b"/><feFlood flood-opacity="0.259"/><feComposite operator="in" in2="b"/><feComposite in="SourceGraphic"/></filter></defs><g transform="translate(1883 -7165)"><g transform="translate(-2472 -5917)"><g transform="translate(423 9362)"><g transform="matrix(1, 0, 0, 1, 166, 3720)" filter="url(#a)"><circle cx="24" cy="24" r="24" transform="translate(15 12)" fill="#fff"/></g></g><g transform="translate(-1044 -563)"><rect width="28" height="28" transform="translate(1658 13667)" fill="none"/><g transform="translate(1660.333 13668.156)"><path d="M21.4,14.775V5.347a2.139,2.139,0,0,0-2.14-2.139H2.14a1.069,1.069,0,1,1,0-2.139H19.258a.535.535,0,1,0,0-1.069H2.14A2.139,2.139,0,0,0,0,2.139V23.528a2.139,2.139,0,0,0,2.14,2.139H13.785A6.948,6.948,0,0,1,21.4,14.775Zm-4.28-5.15H5.349V7.486H17.118Z" fill="#2d4a99"/><path d="M19.349,16H17.21v3.21H14v2.14h3.21v3.21h2.14v-3.21h3.21V19.21h-3.21Z" transform="translate(0.979 1.108)" fill="#1984f6"/></g></g></g></g></svg>