<svg xmlns="http://www.w3.org/2000/svg" xmlns:xlink="http://www.w3.org/1999/xlink" width="25" height="25" viewBox="0 0 25 25">
  <defs>
    <clipPath id="clip-path">
      <rect width="23.598" height="21.196" fill="none"/>
    </clipPath>
  </defs>
  <g id="Group_2" data-name="Group 2" transform="translate(-1751.894 -1761.894)">
    <rect id="Rectangle_1" data-name="Rectangle 1" width="25" height="25" transform="translate(1751.894 1761.894)" fill="none" opacity="0"/>
    <g id="PTM" transform="translate(1752.606 1763.788)" clip-path="url(#clip-path)">
      <path id="Path_1575" data-name="Path 1575" d="M66.388,79.21H48.619a2.913,2.913,0,0,0-2.909,2.909V93.388A2.913,2.913,0,0,0,48.619,96.3H56.25l-.418,2.089a.857.857,0,0,1-.84.688H52.742a.662.662,0,0,0,0,1.323h9.522a.661.661,0,0,0,0-1.323H60.049a.9.9,0,0,1-.881-.722l-.41-2.055H66.39A2.913,2.913,0,0,0,69.3,93.388V82.119A2.91,2.91,0,0,0,66.388,79.21ZM48.619,80.533H66.394a1.59,1.59,0,0,1,1.587,1.587v9.419H47.033V82.119A1.587,1.587,0,0,1,48.619,80.533ZM66.388,94.976H48.619a1.59,1.59,0,0,1-1.587-1.587v-.529H67.976v.529A1.59,1.59,0,0,1,66.388,94.976Z" transform="translate(-45.706 -79.206)" fill="#1f386a" stroke="#1f386a" stroke-width="0.25"/>
      <path id="Path_1" data-name="Path 1" d="M213.44,143.971,219.264,141l5.974,2.971-5.974,2.851Z" transform="translate(-207.43 -138.782)" fill="#56a7dd"/>
      <path id="Path_2" data-name="Path 2" d="M256.33,242.489V245.2l4.288,2.064,4.347-2.385-.17-2.935-4.177,1.777-4.288-1.583Z" transform="translate(-248.783 -236.108)" fill="#56a7dd"/>
      <path id="Path_3" data-name="Path 3" d="M201.16,139.726a.365.365,0,0,1-.154-.036l-6.136-2.888a.361.361,0,0,1,0-.653l6.136-2.888a.363.363,0,0,1,.307,0l6.136,2.888a.361.361,0,0,1,0,.653l-6.135,2.889a.365.365,0,0,1-.154.036Zm-5.288-3.248,5.288,2.488,5.288-2.488-5.288-2.489Zm0,0" transform="translate(-189.326 -131.288)" fill="#1f386a"/>
      <path id="Path_4" data-name="Path 4" d="M249.741,246.621a.364.364,0,0,1-.161-.038l-4.331-2.165a.362.362,0,0,1-.2-.322v-2.759a.361.361,0,0,1,.514-.327l4.177,1.964,4.177-1.966a.362.362,0,0,1,.516.327v2.759a.362.362,0,0,1-.2.322l-4.332,2.167a.364.364,0,0,1-.161.038Zm-3.969-2.75,3.969,1.985,3.97-1.93V241.9l-3.816,1.8a.361.361,0,0,1-.307,0l-3.816-1.8Zm0,0" transform="translate(-237.907 -235.176)" fill="#1f386a"/>
      <path id="Path_5" data-name="Path 5" d="M372.723,214.572h-6.136a.361.361,0,0,1,0-.722h6.136a.361.361,0,0,1,0,.722Zm0,0" transform="translate(-354.754 -209.023)" fill="#1f386a"/>
      <path id="Path_6" data-name="Path 6" d="M537.546,217.525a.361.361,0,0,1-.361-.361v-3.248a.361.361,0,1,1,.722,0v3.248A.361.361,0,0,1,537.546,217.525Zm0,0" transform="translate(-519.578 -208.728)" fill="#1f386a"/>
      <path id="Path_7" data-name="Path 7" d="M366.291,195.885a.361.361,0,0,1-.361-.361v-1.443a.361.361,0,0,1,.722,0v1.443A.361.361,0,0,1,366.291,195.885Zm0,0" transform="translate(-354.457 -189.614)" fill="#1f386a"/>
      <path id="Path_8" data-name="Path 8" d="M517.407,306.543a.361.361,0,0,1-.3-.561l.722-1.083a.361.361,0,0,1,.6.4l-.722,1.083A.36.36,0,0,1,517.407,306.543Zm0,0" transform="translate(-500.16 -296.664)" fill="#1f386a"/>
      <path id="Path_9" data-name="Path 9" d="M538.273,306.324a.361.361,0,0,1-.3-.16l-.721-1.083a.361.361,0,1,1,.6-.4l.722,1.083a.361.361,0,0,1-.3.561Zm0,0" transform="translate(-519.582 -296.445)" fill="#1f386a"/>
      <path id="Path_10" data-name="Path 10" d="M366.291,292.9a.331.331,0,0,1-.361-.288v-.866a.37.37,0,0,1,.722,0v.866A.331.331,0,0,1,366.291,292.9Zm0,0" transform="translate(-354.457 -283.854)" fill="#1f386a"/>
      <path id="Path_11" data-name="Path 11" d="M308.058,478.367H304.22c-.353,0-.64-.2-.64-.444s.287-.444.64-.444h3.838c.353,0,.64.2.64.444S308.411,478.367,308.058,478.367Z" transform="translate(-294.34 -463.212)" fill="#58a5da"/>
      <path id="Path_12" data-name="Path 12" d="M353.555,575.57l-.415,1.768,1.5,0-.357-1.771Z" transform="translate(-342.125 -557.789)" fill="#fff"/>
    </g>
  </g>
</svg>
