<svg xmlns="http://www.w3.org/2000/svg" width="43.765" height="39.337" viewBox="0 0 43.765 39.337">
  <g id="Group_3501" data-name="Group 3501" transform="translate(-118.918 -61.631)">
    <g id="monitor" transform="translate(119.043 61.756)">
      <path id="Path_1575" data-name="Path 1575" d="M38.147,24.5H5.367A5.373,5.373,0,0,0,0,29.867v20.79a5.373,5.373,0,0,0,5.367,5.367h15.17v5.123H12.975a1.22,1.22,0,0,0,0,2.44H30.54a1.22,1.22,0,0,0,0-2.44H22.977V56.024h15.17a5.373,5.373,0,0,0,5.367-5.367V29.867A5.368,5.368,0,0,0,38.147,24.5ZM5.367,26.94H38.157a2.933,2.933,0,0,1,2.927,2.927V47.242H2.44V29.867A2.927,2.927,0,0,1,5.367,26.94Zm32.78,26.645H5.367A2.933,2.933,0,0,1,2.44,50.657v-.976H41.075v.976A2.933,2.933,0,0,1,38.147,53.585Z" transform="translate(0 -24.5)" fill="#0a346c" stroke="#0a346c" stroke-width="0.25"/>
    </g>
    <path id="Path_1587" data-name="Path 1587" d="M146.4,51.711H142.71c0,2.286-1.854,2.693-4.14,2.693v.777a10.635,10.635,0,0,0,5.986,9.565,10.635,10.635,0,0,0,5.986-9.565V54.4C148.255,54.4,146.4,54,146.4,51.711Zm0,0" transform="translate(-3.776 16.513)" fill="#34aeff"/>
    <g id="Group_3500" data-name="Group 3500" transform="translate(134.186 67.616)">
      <path id="Path_1571" data-name="Path 1571" d="M136.492,57.832a.655.655,0,0,1-.285-.065,12.114,12.114,0,0,1-6.778-10.831V46.1a.651.651,0,0,1,.651-.651c3.15,0,3.783-.855,3.783-2.234a.651.651,0,0,1,.651-.651h3.954a.651.651,0,0,1,.651.651c0,1.379.633,2.234,3.783,2.234a.651.651,0,0,1,.651.651v.832a12.114,12.114,0,0,1-6.778,10.831.654.654,0,0,1-.285.065Zm-5.76-11.084v.188a10.807,10.807,0,0,0,5.76,9.515,10.807,10.807,0,0,0,5.76-9.515v-.188c-1.574-.044-4.031-.377-4.39-2.878h-2.74c-.36,2.5-2.816,2.834-4.39,2.878Zm0,0" transform="translate(-129.898 -43.074)" fill="#0a346c" stroke="#0a346c" stroke-width="1"/>
      <path id="Path_1572" data-name="Path 1572" d="M179.105,116.352a.408.408,0,0,1-.289-.12l-1.3-1.3a.409.409,0,1,1,.578-.578l1.011,1.011,2.169-2.169a.409.409,0,1,1,.578.578l-2.458,2.458A.408.408,0,0,1,179.105,116.352Zm0,0" transform="translate(-173.091 -107.589)" fill="#0a346c" stroke="#0a346c" stroke-width="1"/>
    </g>
  </g>
</svg>
