<svg xmlns="http://www.w3.org/2000/svg" width="44.589" height="39.301" viewBox="0 0 44.589 39.301">
  <g id="Group_3510" data-name="Group 3510" transform="translate(-1014.964 -437.349)">
    <path id="Path_1594" data-name="Path 1594" d="M1029,475.012h16.006" fill="none" stroke="#0a346c" stroke-width="3"/>
    <g id="Union_1" data-name="Union 1" transform="translate(1014.964 437.349)" fill="none" stroke-linecap="round" stroke-linejoin="round">
      <path d="M3.131,22.874A14.048,14.048,0,0,1,1.637,20.62l-.177-.267H1.5a14.036,14.036,0,1,1,25.076,0h.01l-.044.066a14.055,14.055,0,0,1-1.744,2.63L14.022,39.3Z" stroke="none"/>
      <path d="M 14.02199745178223 33.8720588684082 L 22.29625701904297 21.39150428771973 C 22.35835647583008 21.2978343963623 22.42566680908203 21.20773506164551 22.49787712097168 21.12162399291992 C 23.03128623962402 20.4854850769043 23.49276733398438 19.78947448730469 23.86949729919434 19.05290412902832 C 23.87401580810547 19.04407119750977 23.87857627868652 19.03526496887207 23.88318061828613 19.0264778137207 C 23.88742065429688 19.01787567138672 23.89167976379395 19.00933647155762 23.89600563049316 19.00076484680176 C 24.67643737792969 17.45466423034668 25.07215690612793 15.78441429138184 25.07215690612793 14.03642463684082 C 25.07215690612793 11.08847522735596 23.92424583435059 8.316974639892578 21.83989715576172 6.232474803924561 C 19.75554656982422 4.147984981536865 16.98422622680664 3.000004768371582 14.03643608093262 3.000004768371582 C 11.08855628967285 3.000004768371582 8.317086219787598 4.148014545440674 6.232546329498291 6.232544898986816 C 4.148006439208984 8.317084312438965 2.999996662139893 11.08855438232422 2.999996662139893 14.03642463684082 C 2.999996662139893 15.78437519073486 3.395736455917358 17.4545955657959 4.176236629486084 19.00067520141602 C 4.193974018096924 19.03581047058105 4.210990428924561 19.07123565673828 4.227255344390869 19.10685539245605 C 4.247212409973145 19.14103507995605 4.266491413116455 19.17560386657715 4.285086631774902 19.2105541229248 C 4.617526531219482 19.83540534973145 5.012956619262695 20.43180465698242 5.460386753082275 20.98320388793945 C 5.52104663848877 21.05795478820801 5.578066349029541 21.13557434082031 5.631256580352783 21.21580505371094 L 14.02199745178223 33.8720588684082 M 14.02199649810791 39.30127334594727 L 3.130846500396729 22.87350463867188 C 2.563596487045288 22.1744441986084 2.062676429748535 21.42047500610352 1.636606574058533 20.61964416503906 L 1.459586501121521 20.35263442993164 L 1.498136520385742 20.35263442993164 C 0.5397165417671204 18.45409393310547 -3.454284751569503e-06 16.3084545135498 -3.454284751569503e-06 14.03642463684082 C -3.454284751569503e-06 6.284454822540283 6.284456729888916 4.765624908031896e-06 14.03643608093262 4.765624908031896e-06 C 21.78841590881348 4.765624908031896e-06 28.07215690612793 6.284454822540283 28.07215690612793 14.03642463684082 C 28.07215690612793 16.3084545135498 27.53248596191406 18.45409393310547 26.57414627075195 20.35263442993164 L 26.58441734313965 20.35263442993164 L 26.5404167175293 20.41899490356445 C 26.05778694152832 21.36261558532715 25.47161674499512 22.2442741394043 24.79666709899902 23.04920387268066 L 14.02199649810791 39.30127334594727 Z" stroke="none" fill="#0a346c"/>
    </g>
    <g id="Ellipse_152" data-name="Ellipse 152" transform="translate(1020.876 443.262)" fill="#fff" stroke="#34aeff" stroke-linecap="round" stroke-linejoin="round" stroke-width="3">
      <ellipse cx="8.123" cy="8.123" rx="8.123" ry="8.123" stroke="none"/>
      <ellipse cx="8.123" cy="8.123" rx="6.623" ry="6.623" fill="none"/>
    </g>
    <g id="noun_Pencil_59185" transform="translate(974 458.6)">
      <path id="Path_1595" data-name="Path 1595" d="M30.912,6.442,29.682,8.575l2.842,1.641,1.231-2.132ZM28.861,10,22.707,20.653l2.842,1.641L31.7,11.636Zm3.344-4.7,1.9,1.1a2.177,2.177,0,0,1,.8,2.983q-4.381,7.581-8.756,15.165l-4.286,2.829c-1.037.684-1.779.229-1.705-.985l.308-5.126,7.795-13.5.959-1.663a2.185,2.185,0,0,1,2.985-.8ZM21.667,25.739l3.062-2.021-2.842-1.641Z" transform="translate(49.847 -10.3)" fill="#0a346c" stroke="#0a346c" stroke-width="1"/>
    </g>
  </g>
</svg>
