<svg xmlns="http://www.w3.org/2000/svg" width="45.272" height="42.868" viewBox="0 0 45.272 42.868">
  <g id="Group_3502" data-name="Group 3502" transform="translate(36.714 -293.286)">
    <path id="Path_1577" data-name="Path 1577" d="M47.868,14.212H29.922L25.828,8.07a2.407,2.407,0,0,0-2-1.07H9.4A2.4,2.4,0,0,0,7,9.4v36.06a2.4,2.4,0,0,0,2.4,2.4H47.868a2.4,2.4,0,0,0,2.4-2.4V16.616A2.4,2.4,0,0,0,47.868,14.212Zm-36.06-2.4H22.542l1.6,2.4H11.808ZM45.464,43.06H11.808V19.02H45.464Z" transform="translate(-42.714 287.286)" fill="#0a346c" stroke="#fff" stroke-width="2"/>
    <path id="Path_1578" data-name="Path 1578" d="M18.343,13.7l-4.608,4.909a2.4,2.4,0,1,0,3.5,3.293l.454-.486v8.452a2.4,2.4,0,1,0,4.808,0V21.414l.452.486a2.406,2.406,0,0,0,3.507-3.3L21.848,13.7A2.483,2.483,0,0,0,18.343,13.7Z" transform="translate(-34.174 295.671)" fill="#34aeff" stroke="#fff" stroke-width="2"/>
  </g>
</svg>
