<svg xmlns="http://www.w3.org/2000/svg" width="38.949" height="38.949" viewBox="0 0 38.949 38.949">
  <g id="video-lecture" transform="translate(0.25 0.25)">
    <path id="Path_1581" data-name="Path 1581" d="M217.759,123.379a3.379,3.379,0,1,0-3.379,3.379A3.383,3.383,0,0,0,217.759,123.379Zm-3.379,1.126a1.126,1.126,0,1,1,1.126-1.126A1.128,1.128,0,0,1,214.379,124.506Zm0,0" transform="translate(-195.155 -112.042)" fill="#34aeff" stroke="#34aeff" stroke-width="0.5"/>
    <path id="Path_1582" data-name="Path 1582" d="M37.322,0H1.126A1.126,1.126,0,0,0,0,1.126v36.2a1.126,1.126,0,0,0,1.126,1.126h36.2a1.126,1.126,0,0,0,1.126-1.126V1.126A1.126,1.126,0,0,0,37.322,0ZM36.2,36.2H2.253V2.253H36.2Zm0,0" fill="#0a346c" stroke="#0a346c" stroke-width="0.5"/>
    <path id="Path_1583" data-name="Path 1583" d="M61.126,368.759a1.126,1.126,0,0,0,1.126-1.126v-4.506a1.126,1.126,0,0,0-2.253,0v4.506A1.126,1.126,0,0,0,61.126,368.759Zm0,0" transform="translate(-55.494 -334.816)" fill="#0a346c" stroke="#0a346c" stroke-width="0.5"/>
    <path id="Path_1584" data-name="Path 1584" d="M122.126,362A1.126,1.126,0,0,0,121,363.126v4.506a1.126,1.126,0,1,0,2.253,0v-4.506A1.126,1.126,0,0,0,122.126,362Zm0,0" transform="translate(-111.914 -334.816)" fill="#0a346c" stroke="#0a346c" stroke-width="0.5"/>
    <path id="Path_1585" data-name="Path 1585" d="M200.224,364.253H187.759v-1.126a1.126,1.126,0,0,0-2.253,0v1.126h-3.379a1.126,1.126,0,0,0,0,2.253h3.379v1.126a1.126,1.126,0,1,0,2.253,0v-1.126h12.466a1.126,1.126,0,0,0,0-2.253Zm0,0" transform="translate(-167.408 -334.816)" fill="#34aeff" stroke="#34aeff" stroke-width="0.5"/>
    <path id="Path_1586" data-name="Path 1586" d="M61.126,80.426H88.311A1.126,1.126,0,0,0,89.437,79.3V61.126A1.126,1.126,0,0,0,88.311,60H61.126A1.126,1.126,0,0,0,60,61.126V79.3A1.126,1.126,0,0,0,61.126,80.426ZM78.1,78.173H71.339v-1.2a3.38,3.38,0,1,1,6.759,0ZM62.253,62.253H87.184v15.92H84.856c-.059.028-2.269-.068-2.253,0H80.351v-1.2a5.633,5.633,0,1,0-11.264,0v1.2H66.834c-.054-.02-2.216-.02-2.253,0H62.253Zm0,0" transform="translate(-55.494 -55.494)" fill="#0a346c" stroke="#0a346c" stroke-width="0.5"/>
  </g>
</svg>
