<svg xmlns="http://www.w3.org/2000/svg" xmlns:xlink="http://www.w3.org/1999/xlink" width="48" height="48" viewBox="0 0 48 48">
  <defs>
    <clipPath id="clip-path">
      <rect id="Rectangle_2226" data-name="Rectangle 2226" width="48" height="48" transform="translate(0.102 0.102)" fill="none"/>
    </clipPath>
    <clipPath id="clip-path-2">
      <rect id="Rectangle_2225" data-name="Rectangle 2225" width="46" height="46" transform="translate(-0.074 -0.074)" fill="none"/>
    </clipPath>
  </defs>
  <g id="Manage_Tag" data-name="Manage Tag" transform="translate(-190.503 -190.503)">
    <g id="Manage_Tag-2" data-name="Manage Tag" transform="translate(190.401 190.401)">
      <g id="Group_4367" data-name="Group 4367" transform="translate(0 0)" clip-path="url(#clip-path)">
        <path id="Path_2105" data-name="Path 2105" d="M608.16,431.778h3.089v-27.02l-3.089-3.088Zm0,0" transform="translate(-575.566 -385.288)" fill="#0a346c"/>
        <rect id="Rectangle_2224" data-name="Rectangle 2224" width="3.089" height="3.089" transform="translate(32.594 1.714)" fill="#0a346c"/>
        <path id="Path_2106" data-name="Path 2106" d="M222.55,214.83l-7.72,7.72h7.72Zm0,0" transform="translate(-213.116 -213.116)" fill="#10bde0"/>
        <path id="Path_2107" data-name="Path 2107" d="M566.72,254.17H559v7.72l10.037,10.036,7.72-7.72Zm-3.088,6.176a1.544,1.544,0,1,1,1.544-1.544A1.544,1.544,0,0,1,563.632,260.346Z" transform="translate(-530.266 -249.368)" fill="#10bde0"/>
        <path id="Path_2108" data-name="Path 2108" d="M706.5,566.926a.773.773,0,0,0,.772.773H711.9a.773.773,0,0,0,.772-.773V549.17H706.5Zm0,0" transform="translate(-666.186 -521.208)" fill="#10bde0"/>
        <g id="Group_4366" data-name="Group 4366" transform="translate(1.176 1.176)" clip-path="url(#clip-path-2)">
          <path id="Path_2109" data-name="Path 2109" d="M241.058,208.315a.77.77,0,0,0-.55-.226v-2.317a.773.773,0,0,0-.769-.772H213.492v.006a.767.767,0,0,0-.55.22l-7.72,7.72a.778.778,0,0,0-.22.55h0v37.056a.773.773,0,0,0,.772.772H239.74a.773.773,0,0,0,.772-.772v-25.16l1.77,1.77a.774.774,0,0,0,1.092,0l7.72-7.717a.774.774,0,0,0,0-1.092Zm-2.09-.226h-1.544v-1.544h1.544Zm-26.249-.453v5.084h-5.084Zm-6.175,42.14V214.264h6.947a.772.772,0,0,0,.773-.773v-6.947H235.88v1.544h-3.088a.772.772,0,0,0-.772.772v7.72a.773.773,0,0,0,.226.546l3.633,3.634v29.016Zm32.424,0h-1.544V222.3l1.544,1.544Zm3.86-24.251-9.264-9.264v-6.628h6.628l9.264,9.264Zm0,0" transform="translate(-205.234 -205.234)" fill="#0a346c"/>
        </g>
        <path id="Path_2110" data-name="Path 2110" d="M590.816,283.67a2.316,2.316,0,1,0,2.316,2.316,2.316,2.316,0,0,0-2.316-2.316Zm0,3.088a.773.773,0,1,1,.772-.773A.773.773,0,0,1,590.816,286.758Zm0,0" transform="translate(-557.45 -276.552)" fill="#0a346c"/>
        <path id="Path_2111" data-name="Path 2111" d="M670,369.07l3.86-3.86,1.092,1.092-3.853,3.859Zm0,0" transform="translate(-632.551 -351.69)" fill="#0a346c"/>
        <path id="Path_2112" data-name="Path 2112" d="M704.221,494.472l-3.089-3.86a.8.8,0,0,0-1.205,0l-3.089,3.86.009.008a.752.752,0,0,0-.178.471v17.761a1.543,1.543,0,0,0,1.543,1.544h4.632a1.544,1.544,0,0,0,1.544-1.544V494.957a.757.757,0,0,0-.178-.471Zm-3.69-2.142,1.482,1.853h-2.962Zm-2.316,20.38V495.728h4.632v16.984Zm0,0" transform="translate(-657.128 -466.994)" fill="#0a346c"/>
      </g>
    </g>
    <g id="Layer_1" data-name="Layer 1" transform="translate(193.84 205.553)">
      <path id="Path_2113" data-name="Path 2113" d="M244.87,386l-1.982,2.041a3.843,3.843,0,0,0-5.424,1.137,4.107,4.107,0,0,0,1.1,5.588,3.844,3.844,0,0,0,5.424-1.137,4.135,4.135,0,0,0,0-4.451l1.982-2.041Zm-4.13,7.8a2.412,2.412,0,0,1,0-4.821,2.25,2.25,0,0,1,1,.241l-1.554,1.6,1.1,1.138,1.555-1.6a2.429,2.429,0,0,1,.236,1.033,2.376,2.376,0,0,1-2.341,2.412Zm0,0" transform="translate(-236.813 -386)" fill="#0a346c"/>
      <rect id="Rectangle_2227" data-name="Rectangle 2227" width="13.266" height="1.608" transform="translate(10.17 2.982)" fill="#57a7dc"/>
      <rect id="Rectangle_2228" data-name="Rectangle 2228" width="5.463" height="1.609" transform="translate(10.17 6.198)" fill="#57a7dc"/>
      <rect id="Rectangle_2229" data-name="Rectangle 2229" width="10.238" height="1.609" transform="translate(17.193 6.198)" fill="#57a7dc"/>
      <path id="Path_2114" data-name="Path 2114" d="M244.87,508.91l-1.982,2.041a3.844,3.844,0,0,0-5.424,1.137,4.109,4.109,0,0,0,1.1,5.589,3.843,3.843,0,0,0,5.424-1.138,4.135,4.135,0,0,0,0-4.451l1.982-2.041Zm-4.13,7.806a2.414,2.414,0,0,1,0-4.825,2.241,2.241,0,0,1,1,.245l-1.554,1.6,1.1,1.137,1.555-1.6a2.434,2.434,0,0,1,.236,1.033,2.377,2.377,0,0,1-2.341,2.413Zm0,0" transform="translate(-236.813 -499.261)" fill="#0a346c"/>
      <rect id="Rectangle_2230" data-name="Rectangle 2230" width="13.266" height="1.609" transform="translate(10.17 12.63)" fill="#57a7dc"/>
      <rect id="Rectangle_2231" data-name="Rectangle 2231" width="5.463" height="1.608" transform="translate(10.17 15.847)" fill="#57a7dc"/>
      <rect id="Rectangle_2232" data-name="Rectangle 2232" width="6.243" height="1.608" transform="translate(17.193 15.847)" fill="#57a7dc"/>
      <path id="Path_2115" data-name="Path 2115" d="M244.87,631.82l-1.982,2.041A3.843,3.843,0,0,0,237.463,635a4.107,4.107,0,0,0,1.1,5.588,3.844,3.844,0,0,0,5.424-1.137,4.135,4.135,0,0,0,0-4.451l1.982-2.041Zm-4.13,7.805a2.413,2.413,0,0,1,0-4.824,2.24,2.24,0,0,1,1,.241l-1.554,1.6,1.1,1.137,1.555-1.6a2.434,2.434,0,0,1,.236,1.033,2.377,2.377,0,0,1-2.341,2.413Zm0,0" transform="translate(-236.813 -612.521)" fill="#0a346c"/>
      <rect id="Rectangle_2233" data-name="Rectangle 2233" width="13.266" height="1.608" transform="translate(10.17 22.28)" fill="#57a7dc"/>
      <rect id="Rectangle_2234" data-name="Rectangle 2234" width="5.463" height="1.609" transform="translate(10.17 25.496)" fill="#57a7dc"/>
      <rect id="Rectangle_2235" data-name="Rectangle 2235" width="3.122" height="1.609" transform="translate(17.193 25.496)" fill="#57a7dc"/>
    </g>
  </g>
</svg>
