<svg xmlns="http://www.w3.org/2000/svg" xmlns:xlink="http://www.w3.org/1999/xlink" width="747" height="747" viewBox="0 0 747 747">
  <defs>
    <clipPath id="clip-path">
      <rect width="747" height="747" fill="none"/>
    </clipPath>
    <clipPath id="clip-path-2">
      <rect width="667.079" height="519.442" fill="none"/>
    </clipPath>
  </defs>
  <g id="PTM_2" data-name="PTM 2" clip-path="url(#clip-path)">
    <rect id="Rectangle_2" data-name="Rectangle 2" width="747" height="747" fill="none"/>
    <g id="Component_2_1" data-name="Component 2 – 1" transform="translate(40 114)" clip-path="url(#clip-path-2)">
      <path id="Path_13" data-name="Path 13" d="M624.78,396.91v58.14a25.55,25.55,0,0,1-24.56,25.58c-9.1.31-18.21.13-27.31.14H521.18c-6.25,0-11,2.47-13.47,8.31a14.821,14.821,0,0,0-1,5.62q-.09,45.51-.05,91a12.85,12.85,0,0,1-10.38,13.07c-7.79,1.84-15.69-4.11-15.73-12.13-.1-21-.05-42.08-.06-63.11,0-14.14.17-28.28,0-42.42-.21-13.72,10.65-26.62,26.94-26.62H558.9c7.86,0,13.52-5.64,13.52-13.53,0-34.08-.15-68.15.11-102.22.07-9.39,3.46-17.87,11.16-23.87,9.82-7.66,24.87-6.15,33.89,3.13,5.29,5.44,7.43,12.09,7.44,19.51v59.38Z" transform="translate(-41.78 -111.06)" fill="#56a7dd"/>
      <path id="Path_14" data-name="Path 14" d="M489.67,625.47c-2.38-.55-4.78-1-7.14-1.68-14.59-4-26.28-17.62-28-32.72a48.1,48.1,0,0,1-.38-5.35c0-34.84-.22-69.67.05-104.5.17-21.53,10.42-37.32,29.31-47.44a49.27,49.27,0,0,1,23.65-5.51H546V340.64a58.86,58.86,0,0,1,12.73-36.85c7.75-10.07,17.81-16.86,30.39-19.06,19.61-3.42,36.12,2.68,49.34,17.47A50.71,50.71,0,0,1,651,330.54a59.469,59.469,0,0,1,.28,6.81v51.53c0,22.48,0,45-.14,67.45-.09,12.55-4.76,23.46-13,32.84a51.75,51.75,0,0,1-31.05,17.31,43.309,43.309,0,0,1-7.19.58q-32.08.06-64.15,0h-2.66v2.63c0,24.76-.07,49.52,0,74.29,0,11.89-3.77,22.14-12.38,30.43a38.06,38.06,0,0,1-22.27,10.64,3.758,3.758,0,0,0-.9.4ZM624.78,396.91H625V337.53c0-7.42-2.15-14.07-7.44-19.51-9-9.28-24.07-10.79-33.89-3.13-7.7,6-11.09,14.48-11.16,23.87-.26,34.07-.1,68.14-.11,102.22,0,7.89-5.66,13.53-13.52,13.53h-51.5c-16.29,0-27.15,12.9-26.94,26.62.21,14.14,0,28.28,0,42.42q0,31.5.06,63.11c0,8,7.94,14,15.73,12.13a12.85,12.85,0,0,0,10.38-13.07q0-45.53.05-91a14.818,14.818,0,0,1,1-5.62c2.51-5.84,7.22-8.32,13.47-8.31q25.86.06,51.73,0c9.1,0,18.21.17,27.31-.14a25.55,25.55,0,0,0,24.56-25.58Q624.79,426,624.78,396.91Z" transform="translate(-41.78 -111.06)" fill="#1f386a" stroke="#1f386a" stroke-width="10"/>
      <path id="Path_15" data-name="Path 15" d="M125.7,395.3c0-19.52.1-39,0-58.56a26.09,26.09,0,0,1,19.65-25.86c13.83-3.38,25.73,3.23,30.62,17a37.13,37.13,0,0,1,2.19,12.51q-.08,50,0,99.95c0,7.22,3.85,12.35,10.45,13.95a12.51,12.51,0,0,0,2.87.23h51.74c12.7,0,22.71,7.47,26,19.48a32.569,32.569,0,0,1,1,8.36q.09,51,0,102c0,7.93-3.45,12.7-10.3,14.38A12.84,12.84,0,0,1,244.15,588a40.264,40.264,0,0,1-.35-5.15q0-44.39,0-88.77a12.87,12.87,0,0,0-11.88-13.19,34.339,34.339,0,0,0-3.51-.15H153.08c-8.31,0-15.38-2.61-20.91-8.91a24.42,24.42,0,0,1-6.37-16.37q-.06-30.11,0-60.22Z" transform="translate(-41.78 -111.06)" fill="#56a7dd"/>
      <path id="Path_16" data-name="Path 16" d="M253.32,625.47c-1.87-.41-3.74-.78-5.6-1.23a39.7,39.7,0,0,1-29.89-33.6,51.085,51.085,0,0,1-.24-6.19q0-37.25,0-74.5v-2.87h-2.67c-20.9,0-41.8-.17-62.7.05-25.58.27-48.12-18.93-52.06-43.78a52.4,52.4,0,0,1-.74-8.2q-.09-59.07-.06-118.16c0-22.67,13.2-42.06,34.43-50a49.94,49.94,0,0,1,56.31,14.64,62.46,62.46,0,0,1,14.29,33,20,20,0,0,1,.08,2.68v91h38.48c23.29,0,42.79,13.69,50.66,35.63a45.63,45.63,0,0,1,2.76,15.54v107.6c0,17.69-14.14,34.49-31.6,37.59-1.34.23-2.66.55-4,.83ZM125.7,395.3h.08v60.22a24.42,24.42,0,0,0,6.37,16.37c5.53,6.3,12.6,8.94,20.91,8.91,25.11-.07,50.22,0,75.33,0a34.33,34.33,0,0,1,3.51.15,12.87,12.87,0,0,1,11.88,13.19v88.77a40.257,40.257,0,0,0,.35,5.15,12.84,12.84,0,0,0,15.7,10.73c6.85-1.68,10.29-6.45,10.3-14.38v-102a32.571,32.571,0,0,0-1-8.36c-3.28-12-13.29-19.45-26-19.48H191.39a12.508,12.508,0,0,1-2.87-.23c-6.6-1.6-10.44-6.73-10.45-13.95V340.44a37.13,37.13,0,0,0-2.19-12.51c-4.89-13.76-16.79-20.37-30.62-17a26.09,26.09,0,0,0-19.65,25.86C125.8,356.26,125.7,375.78,125.7,395.3Z" transform="translate(-41.78 -111.06)" fill="#1f386a" stroke="#1f386a" stroke-width="10"/>
      <path id="Path_17" data-name="Path 17" d="M440.81,375.61H309.6v-2.44c0-16.42-.19-32.84,0-49.25.33-22.74,10.9-39.14,31.46-48.91a45.06,45.06,0,0,1,19.17-4.28c9.93-.07,19.86-.16,29.79,0a49.74,49.74,0,0,1,32.11,12.15c12.36,10.48,18.59,24,18.69,40.14.1,17,0,33.94,0,50.9A7.354,7.354,0,0,1,440.81,375.61Z" transform="translate(-41.78 -111.06)" fill="#56a7dd"/>
      <path id="Path_18" data-name="Path 18" d="M283.2,375.71V324.7c0-18.73,5.42-35.66,17.16-50.33,12.52-15.66,28.66-25.51,48.53-28.82a105.708,105.708,0,0,1,15-1.22c8.55-.19,17.11-.21,25.66,0A79.37,79.37,0,0,1,466.33,311a85.261,85.261,0,0,1,.93,13.17c.1,16.28,0,32.56,0,48.84v2.67h38.63c7,0,12.08,3.76,13.69,10a13.05,13.05,0,0,1-12.46,16.23H243.31a13,13,0,0,1-12.73-12.19c-.29-7.21,4.76-13.26,11.6-13.87,1.16-.1,2.34-.16,3.51-.16h34.76Zm157.61-.1c0-.71.1-1.19.1-1.67,0-17,.06-33.93,0-50.9-.1-16.19-6.33-29.66-18.69-40.14a49.74,49.74,0,0,0-32.11-12.15c-9.93-.18-19.86-.09-29.79,0A45.06,45.06,0,0,0,341.11,275c-20.56,9.77-31.13,26.17-31.46,48.91-.24,16.41,0,32.83,0,49.25v2.44Z" transform="translate(-41.78 -111.06)" fill="#1f386a" stroke="#1f386a" stroke-width="10"/>
      <path id="Path_19" data-name="Path 19" d="M46.78,417.28v-55a13,13,0,0,1,8.42-12.11,13.18,13.18,0,0,1,14.64,3.64,14.63,14.63,0,0,1,3.29,9.94q0,38.58,0,77.18c0,9.93-.15,19.87.12,29.79A62.39,62.39,0,0,0,86.81,508a64,64,0,0,0,39.56,24.2,77,77,0,0,0,13.76,1.09c12.27.15,24.55.07,36.83.05,5.65,0,10.26,1.93,13,7.1a13,13,0,0,1-11.6,19.21c-13.66,0-27.31.14-41,0C115.55,559.34,96.28,552,79.54,538a90.28,90.28,0,0,1-23.29-29.65c-5-10.26-8.54-21.05-9-32.51-.48-12.53-.37-25.09-.47-37.63C46.73,431.21,46.78,424.24,46.78,417.28Z" transform="translate(-41.78 -111.06)" fill="#1f386a" stroke="#1f386a" stroke-width="10"/>
      <path id="Path_20" data-name="Path 20" d="M703.81,417.92c0,16.14-.06,32.28,0,48.43.07,15.55-3.16,30.34-10.59,44-13.53,24.89-34.14,40.69-61.77,47.18A86.861,86.861,0,0,1,611,559.67c-12.83-.07-25.66,0-38.5,0-6.66,0-12.44-4.69-13.24-10.73-1-7.18,2.8-13.17,9.59-15a20.551,20.551,0,0,1,5.32-.54c13.86-.09,27.73.16,41.59-.23,13.37-.38,25.39-5.12,36-13.23a64.32,64.32,0,0,0,23.5-35.15,72.584,72.584,0,0,0,2.32-19q.09-51.63,0-103.27c0-6.16,5.06-13,12.8-13.26a13,13,0,0,1,13.35,12.19c.19,2.82.12,5.65.12,8.48Q703.82,393.91,703.81,417.92Z" transform="translate(-41.78 -111.06)" fill="#1f386a" stroke="#1f386a" stroke-width="10"/>
      <path id="Path_21" data-name="Path 21" d="M322.7,168.63a52.58,52.58,0,1,1,52.46,52.59,52.578,52.578,0,0,1-52.46-52.59Zm78.82,0a26.09,26.09,0,0,0-26.16-26.25c-14.24,0-26.17,10.73-26.38,26.28a26.27,26.27,0,1,0,52.54,0Z" transform="translate(-41.78 -111.06)" fill="#57a7dc" stroke="#57a7dc" stroke-width="10"/>
      <path id="Path_22" data-name="Path 22" d="M152,165.47a52.7,52.7,0,0,1,52.46,53.41c-.19,28.36-24.28,52.05-52.89,51.78-29.6-.28-52.84-24.88-52.29-54.06C99.8,188.86,123.81,165.29,152,165.47Zm-26.3,52.46c-.1,14.41,11.29,26.22,25.41,26.34,15.18.13,26.8-11,27-25.82a26.188,26.188,0,1,0-52.374-.52Z" transform="translate(-41.78 -111.06)" fill="#57a7dc" stroke="#57a7dc" stroke-width="10"/>
      <path id="Path_23" data-name="Path 23" d="M651.23,218.14c-.24,29.28-24.08,52.95-53.18,52.5a52.71,52.71,0,0,1-52-52.89c0-28.81,24.19-52.6,52.81-52.28C628,165.79,651.47,189.45,651.23,218.14Zm-52.72,26.13a26,26,0,1,0-18.609-7.756,26.25,26.25,0,0,0,18.609,7.756Z" transform="translate(-41.78 -111.06)" fill="#57a7dc" stroke="#57a7dc" stroke-width="10"/>
    </g>
  </g>
</svg>
