<svg xmlns="http://www.w3.org/2000/svg" width="50" height="50" viewBox="0 0 50 50">
  <g id="Data_Setup" data-name="Data Setup" transform="translate(-859.836 -602.836)">
    <rect id="Rectangle_2012" data-name="Rectangle 2012" width="50" height="50" transform="translate(859.836 602.836)" fill="none"/>
    <g id="setup" transform="translate(860.86 603.859)">
      <path id="Path_1749" data-name="Path 1749" d="M34.592,57.8v2.4H17V57.8a.8.8,0,0,1,.8-.8H33.793A.8.8,0,0,1,34.592,57.8Z" transform="translate(-5.134 -13.045)" fill="#57a7dc"/>
      <path id="Path_1750" data-name="Path 1750" d="M31.995,49l.8,6.4H20l.8-6.4h11.2Z" transform="translate(-5.739 -11.442)" fill="#57a7dc"/>
      <path id="Path_1752" data-name="Path 1752" d="M38.8,7.8h-4A.8.8,0,0,1,34,7V3Z" transform="translate(-8.604 -2.2)" fill="#57a7dc"/>
      <path id="Path_1753" data-name="Path 1753" d="M32.147,46.756a1.593,1.593,0,0,0-1.587-1.6h-.886l-.6-4.8H30.56v-1.6H5.967a2.389,2.389,0,0,1-2.38-2.4v-2.4H21.833v-1.6H3.587V12.39a2.389,2.389,0,0,1,2.38-2.4H9.14V29.173a1.593,1.593,0,0,0,1.587,1.6h8.727v-1.6H10.727V3.6H26.593V6.8a1.593,1.593,0,0,0,1.587,1.6h3.173v1.6h7.933a2.389,2.389,0,0,1,2.38,2.4h1.587a3.986,3.986,0,0,0-3.967-4H32.94v-.8a.8.8,0,0,0-.232-.565l-4.76-4.8A.79.79,0,0,0,27.387,2H10.727A1.593,1.593,0,0,0,9.14,3.6v4.8H5.967A3.986,3.986,0,0,0,2,12.39V36.366a3.986,3.986,0,0,0,3.967,4H16.175l-.6,4.8h-.886a1.593,1.593,0,0,0-1.587,1.6v1.6H11.52v1.6H33.734v-1.6H32.147ZM28.18,4.729,30.232,6.8H28.18ZM17.774,40.362H27.48l.6,4.8h-10.9Zm-3.081,7.992v-1.6H30.56v1.6Z" transform="translate(-2 -2)" fill="#0a346c"/>
      <g id="text" transform="translate(11.168 4.573)">
        <path id="Path_1732" data-name="Path 1732" d="M32,320H44.625v2.1H32Zm0,0" transform="translate(-32 -320)" fill="#57a7dc"/>
        <path id="Path_1733" data-name="Path 1733" d="M32,352h2.1v2.1H32Zm0,0" transform="translate(-32 -347.765)" fill="#57a7dc"/>
        <path id="Path_1734" data-name="Path 1734" d="M64,352h8.416v2.1H64Zm0,0" transform="translate(-59.792 -347.765)" fill="#57a7dc"/>
        <path id="Path_1735" data-name="Path 1735" d="M32,384h9.962v2.1H32Zm0,0" transform="translate(-32 -375.53)" fill="#57a7dc"/>
        <path id="Path_1738" data-name="Path 1738" d="M32,448h8.416v2.1H32Zm0,0" transform="translate(-32 -435.155)" fill="#57a7dc"/>
      </g>
      <g id="Setting" transform="translate(20.765 10.16)">
        <path id="Path_70" data-name="Path 70" d="M39.188,39.233V33.955l-3.16-.395a10.778,10.778,0,0,0-.911-2.2l1.956-2.514L33.34,25.116l-2.514,1.956a10.817,10.817,0,0,0-2.2-.911L28.233,23H22.955l-.395,3.16a10.778,10.778,0,0,0-2.2.911l-2.514-1.956-3.732,3.732,1.956,2.514a10.816,10.816,0,0,0-.911,2.2L12,33.955v5.279l3.16.395a10.779,10.779,0,0,0,.911,2.2L14.116,44.34l3.732,3.732,2.514-1.956a10.817,10.817,0,0,0,2.2.911l.395,3.16h5.279l.395-3.16a10.779,10.779,0,0,0,2.2-.911l2.514,1.956,3.732-3.732-1.956-2.514a10.816,10.816,0,0,0,.911-2.2ZM25.594,43.391a6.8,6.8,0,1,1,6.8-6.8A6.8,6.8,0,0,1,25.594,43.391Z" transform="translate(-12 -23)" fill="#57a7dc"/>
        <path id="Path_71" data-name="Path 71" d="M29.322,45.644a5.322,5.322,0,1,1,5.322-5.322A5.328,5.328,0,0,1,29.322,45.644Zm0-9.314a3.992,3.992,0,1,0,3.992,3.992A4,4,0,0,0,29.322,36.331Z" transform="translate(-15.728 -26.703)" fill="#0a346c"/>
        <path id="Path_72" data-name="Path 72" d="M28.329,47.56c-.275,0-.516-.011-.769-.034l.127-1.373c.211.019.424.024.641.028s.428-.01.638-.029l.128,1.373C28.842,47.547,28.586,47.56,28.329,47.56Zm-2.278-.311a8.329,8.329,0,0,1-1.432-.55l.618-1.235a6.9,6.9,0,0,0,1.192.458Zm4.55,0-.38-1.326a6.965,6.965,0,0,0,1.191-.46l.62,1.233A8.333,8.333,0,0,1,30.6,47.244ZM23.314,45.9a8.36,8.36,0,0,1-1.135-1.026l1.023-.931a7,7,0,0,0,.947.856Zm10.021-.01-.837-1.1a6.993,6.993,0,0,0,.945-.858l1.025.929A8.462,8.462,0,0,1,33.335,45.886ZM21.253,43.654a8.224,8.224,0,0,1-.687-1.364l1.291-.5a6.848,6.848,0,0,0,.573,1.136Zm14.14-.014-1.178-.727a6.793,6.793,0,0,0,.57-1.137l1.293.5A8.209,8.209,0,0,1,35.393,43.64ZM20.143,40.823A8.351,8.351,0,0,1,20,39.3l1.386,0a6.894,6.894,0,0,0,.119,1.266ZM36.5,40.806l-1.363-.252a6.906,6.906,0,0,0,.117-1.267l1.386-.032v.053A8.242,8.242,0,0,1,36.5,40.806Zm-15-2.771-1.363-.248a8.173,8.173,0,0,1,.416-1.47l1.293.5A6.816,6.816,0,0,0,21.5,38.035Zm13.628-.042a6.864,6.864,0,0,0-.354-1.222l1.291-.5a8.222,8.222,0,0,1,.426,1.466Zm-12.714-2.32-1.18-.725a8.309,8.309,0,0,1,.923-1.219l1.027.927A6.949,6.949,0,0,0,22.414,35.673ZM34.2,35.636a6.949,6.949,0,0,0-.776-1.012l1.021-.933a8.259,8.259,0,0,1,.93,1.213ZM24.126,33.8l-.839-1.1a8.343,8.343,0,0,1,1.3-.808l.621,1.233A6.956,6.956,0,0,0,24.126,33.8Zm8.349-.026a6.909,6.909,0,0,0-1.089-.667L32,31.868a8.313,8.313,0,0,1,1.307.8ZM26.4,32.66l-.383-1.325a8.279,8.279,0,0,1,1.508-.283l.13,1.373A6.962,6.962,0,0,0,26.4,32.66Zm3.793-.012a6.955,6.955,0,0,0-1.257-.228l.122-1.373a8.419,8.419,0,0,1,1.509.274Z" transform="translate(-14.724 -25.694)" fill="#0a346c"/>
      </g>
    </g>
  </g>
</svg>
