<svg id="Exam_Planner" data-name="Exam Planner" xmlns="http://www.w3.org/2000/svg" width="51.173" height="50" viewBox="0 0 51.173 50">
  <g id="Pad">
    <path id="Path_1362" data-name="Path 1362" d="M34.651,5.956H30.057V4.393a1.483,1.483,0,0,0-1.5-1.464H23.816a4.529,4.529,0,0,0-8.475,0H10.484a1.483,1.483,0,0,0-1.5,1.464V5.956H4.492A4.458,4.458,0,0,0,0,10.352V45.607A4.458,4.458,0,0,0,4.492,50H34.651a4.457,4.457,0,0,0,4.485-4.407V10.352a4.457,4.457,0,0,0-4.485-4.4Zm-22.668-.1h4.594a1.483,1.483,0,0,0,1.5-1.464,1.5,1.5,0,0,1,3,0,1.483,1.483,0,0,0,1.5,1.464h4.492V7.422a1.483,1.483,0,0,1-1.5,1.464H13.48a1.483,1.483,0,0,1-1.5-1.464ZM36.148,45.6a1.483,1.483,0,0,1-1.5,1.464H4.492A1.483,1.483,0,0,1,3,45.6V10.352a1.483,1.483,0,0,1,1.5-1.464H9.236a4.5,4.5,0,0,0,4.243,2.927H25.562A4.5,4.5,0,0,0,29.8,8.886h4.851a1.483,1.483,0,0,1,1.5,1.464Z" transform="translate(0 0)" fill="#0a346c"/>
    <g id="Group_4271" data-name="Group 4271" transform="translate(6.006 13.816)">
      <path id="Path_1363" data-name="Path 1363" d="M71.69,256.449a1.5,1.5,0,0,0-2.126-.017L64.52,261.4l-1.952-1.952a1.5,1.5,0,1,0-2.126,2.126l3.007,3.007a1.5,1.5,0,0,0,2.116,0l6.113-6.013A1.5,1.5,0,0,0,71.69,256.449Z" transform="translate(-59.988 -245.475)" fill="#57a7dc"/>
      <path id="Path_1364" data-name="Path 1364" d="M71.69,361.449a1.5,1.5,0,0,0-2.126-.017L64.52,366.4l-1.952-1.952a1.5,1.5,0,1,0-2.126,2.126l3.007,3.007a1.5,1.5,0,0,0,2.116,0l6.113-6.013a1.5,1.5,0,0,0,0-2.119Z" transform="translate(-59.988 -339.956)" fill="#57a7dc"/>
      <path id="Path_1365" data-name="Path 1365" d="M68.574,157.452l-1.943-1.943,1.943-1.943a1.5,1.5,0,0,0-2.126-2.126l-1.943,1.943-1.943-1.943a1.5,1.5,0,1,0-2.126,2.126l1.947,1.954-1.943,1.942a1.5,1.5,0,0,0,2.126,2.126l1.943-1.942,1.943,1.943a1.5,1.5,0,0,0,2.126-2.126Z" transform="translate(-59.997 -151.001)" fill="#57a7dc"/>
      <path id="Path_1366" data-name="Path 1366" d="M221.659,181h-9.12a1.5,1.5,0,1,0,0,3.007h9.12a1.5,1.5,0,1,0,0-3.007Z" transform="translate(-195.895 -177.994)" fill="#57a7dc"/>
      <path id="Path_1367" data-name="Path 1367" d="M221.59,286h-9.12a1.5,1.5,0,0,0,0,3.007h9.12a1.5,1.5,0,1,0,0-3.007Z" transform="translate(-195.825 -272.47)" fill="#57a7dc"/>
      <path id="Path_1368" data-name="Path 1368" d="M221.59,391h-9.12a1.5,1.5,0,0,0,0,3.007h9.12a1.5,1.5,0,1,0,0-3.007Z" transform="translate(-195.825 -366.948)" fill="#57a7dc"/>
    </g>
  </g>
  <g id="Pencil" transform="translate(42.151 7.803)">
    <path id="Polygon_1" data-name="Polygon 1" d="M1.535,0,3.07,7.164H0Z" transform="translate(6.131 35.211) rotate(180)" fill="#57a7dc"/>
    <rect id="Rectangle_2031" data-name="Rectangle 2031" width="5.117" height="8.392" transform="translate(2.037 1.846)" fill="#57a7dc"/>
    <path id="Path_1369" data-name="Path 1369" d="M426.509,91A4.523,4.523,0,0,0,422,95.509v24.058a1.543,1.543,0,0,0,.076.476l3.007,9.12a1.5,1.5,0,0,0,2.857,0l3.007-9.12a1.562,1.562,0,0,0,.076-.476V95.523A4.523,4.523,0,0,0,426.5,91Zm0,32.882-1.243-3.766a2.761,2.761,0,0,1,2.483,0Zm1.5-6.868a5.78,5.78,0,0,0-3.007,0V103.026h3.007Zm0-16.992h-3.007V95.5a1.5,1.5,0,1,1,3.007,0Z" transform="translate(-422 -91)" fill="#0a346c"/>
  </g>
</svg>
