<svg xmlns="http://www.w3.org/2000/svg" width="50" height="50" viewBox="0 0 50 50">
  <g id="Reports" transform="translate(0.744 0.745)">
    <rect id="Rectangle_2006" data-name="Rectangle 2006" width="50" height="50" transform="translate(-0.744 -0.745)" fill="none"/>
    <g id="Group_4232" data-name="Group 4232" transform="translate(0.553 0.55)">
      <g id="Group_4231" data-name="Group 4231" transform="translate(4.963 5.068)">
        <path id="Path_1717" data-name="Path 1717" d="M-16622.064-1154.364l-.025.813.025-9.823s9.1,1.053,9.322,9.787h-9.322" transform="translate(16630.914 1164.291)" fill="#57a7dc"/>
        <path id="Path_1713" data-name="Path 1713" d="M62.118,54.729a.926.926,0,0,0-.926.926v1.666a8.516,8.516,0,1,0,9.392,9.392H72.25a.926.926,0,0,0,.926-.926A11.07,11.07,0,0,0,62.118,54.729Zm0,17.722a6.665,6.665,0,0,1-.926-13.265v6.6a.926.926,0,0,0,.926.926h6.6A6.675,6.675,0,0,1,62.118,72.451Zm.926-7.59h0V56.627a9.224,9.224,0,0,1,8.234,8.234Z" transform="translate(-53.602 -54.729)" fill="#0a346c" stroke="#0a346c" stroke-width="0.5"/>
      </g>
      <g id="Group_4230" data-name="Group 4230" transform="translate(0 0)">
        <rect id="Rectangle_2007" data-name="Rectangle 2007" width="5" height="20" transform="translate(31.702 26.705)" fill="#57a7dc"/>
        <path id="Path_1711" data-name="Path 1711" d="M46.482,19.329H40.556a.926.926,0,0,0-.926.926v4.676a.926.926,0,1,0,1.852,0v-3.75h4.074V45.556H41.482V31.875a.926.926,0,1,0-1.852,0V45.556H37.778V26.389a.926.926,0,0,0-.926-.926H30.926a.926.926,0,0,0-.926.926V45.556H28.148V32.87a.926.926,0,0,0-.926-.926H21.3a.926.926,0,0,0-.926.926V45.556H18.519V38.183a.926.926,0,0,0-.926-.926H11.667a.926.926,0,0,0-.926.926v7.373H2.778a.927.927,0,0,1-.926-.926V2.778a.927.927,0,0,1,.926-.926H26.664V7.963a2.781,2.781,0,0,0,2.778,2.778h6.111V22.13a.926.926,0,0,0,1.852,0V9.815a.926.926,0,0,0-.271-.655L28.245.271A.926.926,0,0,0,27.59,0H2.778A2.781,2.781,0,0,0,0,2.778V44.63a2.781,2.781,0,0,0,2.778,2.778h43.7a.926.926,0,0,0,.926-.926V20.255A.926.926,0,0,0,46.482,19.329ZM28.516,3.161l5.728,5.728h-4.8a.927.927,0,0,1-.926-.926ZM16.667,45.556H12.593V39.109h4.074Zm9.63,0H22.222V33.8H26.3Zm9.63,0H31.852V27.315h4.074Z" fill="#0a346c" stroke="#0a346c" stroke-width="0.5"/>
        <path id="Path_1712" data-name="Path 1712" d="M430.529,295.324a1.481,1.481,0,1,0,.434,1.048A1.487,1.487,0,0,0,430.529,295.324Z" transform="translate(-388.829 -268.044)" fill="#57a7dc"/>
      </g>
      <g id="Group_4229" data-name="Group 4229" transform="translate(5 26.668)">
        <path id="Path_1714" data-name="Path 1714" d="M70.936,294.25H54.843c-.465,0-.843.663-.843,1.482s.377,1.482.843,1.482H70.936c.465,0,.843-.663.843-1.482S71.4,294.25,70.936,294.25Z" transform="translate(-54 -294.25)" fill="#57a7dc"/>
        <path id="Path_1715" data-name="Path 1715" d="M61.831,342.5H55.058c-.584,0-1.058.663-1.058,1.482s.474,1.481,1.058,1.481h6.773c.584,0,1.058-.663,1.058-1.481S62.416,342.5,61.831,342.5Z" transform="translate(-54 -338.055)" fill="#57a7dc"/>
        <path id="Path_1716" data-name="Path 1716" d="M170.609,342.934a1.481,1.481,0,1,0,.434,1.047A1.493,1.493,0,0,0,170.609,342.934Z" transform="translate(-157.517 -338.055)" fill="#0a346c"/>
      </g>
    </g>
  </g>
</svg>
