<svg width="26" height="25" viewBox="0 0 26 25" fill="none" xmlns="http://www.w3.org/2000/svg">
<path d="M10.266 15.8608C10.4935 15.8609 10.7119 15.7713 10.8738 15.6114L10.8744 15.6107L12.9554 13.5298L15.036 15.6104C15.0361 15.6105 15.0362 15.6106 15.0362 15.6107C15.116 15.6909 15.2108 15.7545 15.3153 15.7979C15.4198 15.8414 15.5319 15.8638 15.6451 15.8638C15.7583 15.8638 15.8705 15.8414 15.975 15.7979C16.0795 15.7545 16.1743 15.6908 16.2541 15.6106C16.4154 15.449 16.506 15.2301 16.506 15.0019C16.506 14.7736 16.4153 14.5547 16.254 14.3931L16.254 14.3931L14.173 12.3121L16.254 10.2312L16.254 10.2312L16.2551 10.2301C16.4137 10.068 16.5021 9.84989 16.501 9.62309C16.4998 9.39628 16.4093 9.17907 16.249 9.01861L16.2489 9.0185C16.0873 8.85716 15.8684 8.76654 15.6401 8.76654C15.4118 8.76654 15.1928 8.85716 15.0313 9.0185L15.0313 9.01856L12.9554 11.0945L10.8744 9.01353C10.7129 8.85206 10.4939 8.76135 10.2656 8.76135C10.0372 8.76135 9.81822 8.85206 9.65675 9.01353C9.49528 9.175 9.40457 9.394 9.40457 9.62236C9.40457 9.85071 9.49528 10.0697 9.65675 10.2312L11.7377 12.3121L9.65675 14.3931L9.65669 14.3931C9.49535 14.5547 9.40473 14.7736 9.40473 15.0019C9.40473 15.2302 9.49535 15.4492 9.65669 15.6107L9.65675 15.6107C9.73677 15.6908 9.8319 15.7541 9.9366 15.797C10.0411 15.8398 10.1531 15.8615 10.266 15.8608ZM10.266 15.8608C10.2658 15.8608 10.2656 15.8608 10.2654 15.8608L10.2656 15.7108L10.2667 15.8608C10.2664 15.8608 10.2662 15.8608 10.266 15.8608Z" fill="#E80E0E" stroke="white" stroke-width="0.3"/>
<path d="M12.9554 1C10.7181 1 8.53103 1.66344 6.67076 2.90644C4.81049 4.14943 3.36059 5.91614 2.5044 7.98317C1.64821 10.0502 1.42419 12.3247 1.86068 14.519C2.29716 16.7134 3.37453 18.729 4.95656 20.311C6.53859 21.893 8.55422 22.9704 10.7486 23.4069C12.9429 23.8434 15.2174 23.6194 17.2844 22.7632C19.3514 21.907 21.1181 20.4571 22.3611 18.5968C23.6041 16.7365 24.2676 14.5495 24.2676 12.3121C24.2643 9.31299 23.0714 6.43764 20.9507 4.31692C18.8299 2.19621 15.9546 1.00333 12.9554 1ZM12.9554 22.2115C10.9975 22.2115 9.08359 21.6309 7.45565 20.5432C5.82771 19.4554 4.55888 17.9093 3.80962 16.1005C3.06036 14.2916 2.86432 12.3011 3.24629 10.3809C3.62826 8.46057 4.57108 6.69667 5.95553 5.31222C7.33999 3.92777 9.10389 2.98494 11.0242 2.60297C12.9445 2.221 14.9349 2.41704 16.7438 3.1663C18.5526 3.91556 20.0987 5.18439 21.1865 6.81234C22.2742 8.44028 22.8548 10.3542 22.8548 12.3121C22.8522 14.9368 21.8083 17.4532 19.9524 19.3091C18.0965 21.165 15.5801 22.2088 12.9554 22.2115Z" fill="#E80E0E"/>
<path fill-rule="evenodd" clip-rule="evenodd" d="M12.9554 1.00001C15.9545 1.00334 18.8299 2.19622 20.9506 4.31693C23.0713 6.43765 24.2642 9.313 24.2675 12.3121C24.2675 14.5495 23.6041 16.7366 22.3611 18.5968C21.1181 20.4571 19.3514 21.907 17.2844 22.7632C15.2173 23.6194 12.9428 23.8434 10.7485 23.4069C8.55417 22.9704 6.53854 21.8931 4.95651 20.311C3.37448 18.729 2.29711 16.7134 1.86063 14.519C1.42415 12.3247 1.64816 10.0502 2.50435 7.98318C3.36054 5.91616 4.81044 4.14944 6.67071 2.90645C8.53099 1.66346 10.7181 1.00001 12.9554 1.00001ZM12.9554 22.2115C10.9975 22.2115 9.08355 21.6309 7.4556 20.5432C5.82766 19.4554 4.55883 17.9093 3.80957 16.1005C3.06031 14.2916 2.86427 12.3012 3.24624 10.3809C3.62821 8.46058 4.57103 6.69668 5.95549 5.31223C7.33994 3.92778 9.10384 2.98495 11.0241 2.60299C12.9444 2.22102 14.9348 2.41706 16.7437 3.16632C18.5526 3.91558 20.0987 5.1844 21.1864 6.81235C22.2742 8.44029 22.8548 10.3542 22.8548 12.3121C22.8521 14.9368 21.8083 17.4532 19.9524 19.3091C18.0965 21.165 15.5801 22.2089 12.9554 22.2115ZM12.9546 21.4115C15.3674 21.4091 17.6806 20.4495 19.3867 18.7434C21.0928 17.0373 22.0523 14.7241 22.0548 12.3113C22.0546 10.5119 21.521 8.75296 20.5212 7.2568C19.5214 5.76042 18.1003 4.59413 16.4376 3.90542C14.7749 3.21671 12.9453 3.03651 11.1802 3.38761C9.41509 3.73871 7.79374 4.60535 6.52117 5.87792C5.2486 7.15049 4.38197 8.77184 4.03087 10.5369C3.67977 12.302 3.85997 14.1316 4.54868 15.7943C5.23738 17.457 6.40367 18.8781 7.90006 19.878C9.39622 20.8777 11.1552 21.4114 12.9546 21.4115ZM25.0675 12.3113V12.3121C25.0675 14.7077 24.3572 17.0495 23.0263 19.0413C21.6954 21.0331 19.8037 22.5856 17.5905 23.5023C15.3773 24.419 12.942 24.6589 10.5924 24.1915C8.24292 23.7242 6.08474 22.5706 4.39083 20.8767C2.69692 19.1828 1.54335 17.0246 1.076 14.6751C0.608649 12.3256 0.84851 9.89023 1.76525 7.67703C2.68199 5.46383 4.23443 3.57217 6.22626 2.24127C8.21809 0.910376 10.5598 0.200012 12.9554 0.200012V0.999582L12.9563 0.200013C16.1673 0.203575 19.2458 1.48072 21.5163 3.75125C23.7868 6.02177 25.064 9.10025 25.0675 12.3113Z" fill="white"/>
</svg>
