<svg width="22" height="22" viewBox="0 0 22 22" fill="none" xmlns="http://www.w3.org/2000/svg">
<path d="M1.47268 10.7646C1.47268 13.8717 2.87665 16.6495 5.08253 18.5029L1.54643 20.5902L1.0735 20.8694H1.62268H11.5772C17.1579 20.8694 21.682 16.3455 21.682 10.7646C21.682 5.18394 17.1574 0.660059 11.5772 0.660059C5.99658 0.660059 1.47268 5.18395 1.47268 10.7646ZM11.577 19.6836H5.4835L7.10693 18.7409L7.33032 18.6112L7.10693 18.4815C4.44735 16.9372 2.65821 14.0607 2.65821 10.7646C2.65821 5.83876 6.65113 1.84584 11.577 1.84584C16.5028 1.84584 20.496 5.83877 20.496 10.7646C20.496 15.6902 16.5028 19.6836 11.577 19.6836Z" fill="#DEE5EA" stroke="#DEE5EA" stroke-width="0.3"/>
<path d="M12.9824 11.4755L15.7581 14.0172H7.35189L10.1478 11.4572L11.5102 12.2142L11.5832 12.2547L11.6561 12.2141L12.9824 11.4755ZM17.0298 7.21452H6.1246C5.83871 7.21452 5.60681 7.44642 5.60681 7.73232V14.5353C5.60681 14.8208 5.83884 15.0526 6.1246 15.0526H17.0298C17.3158 15.0526 17.5474 14.8204 17.5474 14.5353V7.73232C17.5474 7.44656 17.3158 7.21452 17.0298 7.21452ZM9.19806 10.9296L6.6424 13.2637V9.50954L9.19806 10.9296ZM16.5118 13.3042L13.9314 10.9473L16.5118 9.51057V13.3042ZM16.5115 8.24986V8.32484L11.577 11.0728L6.6424 8.32484V8.24986H16.5115Z" fill="#DEE5EA" stroke="#DEE5EA" stroke-width="0.3"/>
</svg>
