<svg width="26" height="21" viewBox="0 0 26 21" fill="none" xmlns="http://www.w3.org/2000/svg">
<path d="M24.8182 11.0167C24.1654 11.0167 23.6364 11.4941 23.6364 12.0831V15.6378C23.6364 17.402 22.0456 18.8371 20.0909 18.8371H5.90909C3.95436 18.8371 2.36364 17.402 2.36364 15.6378V12.0831C2.36364 11.4941 1.83458 11.0167 1.18182 11.0167C0.529061 11.0167 0 11.4941 0 12.0831V15.6378C0 18.5779 2.65082 20.9699 5.90909 20.9699H20.0909C23.3492 20.9699 26 18.5779 26 15.6378V12.0831C26 11.4941 25.4709 11.0167 24.8182 11.0167Z" fill="white"/>
<path d="M14.5753 0.363525H11.4238C10.9888 0.363525 10.6359 0.682029 10.6359 1.07447V7.49608H7.09042C6.78039 7.49608 6.49912 7.66031 6.37187 7.91518C6.24503 8.17041 6.29545 8.46936 6.50069 8.67838L12.4098 14.6983C12.7092 15.0029 13.2898 15.0029 13.5892 14.6983L19.4983 8.67838C19.7036 8.46901 19.754 8.17005 19.6271 7.91518C19.4999 7.66031 19.2186 7.49608 18.9086 7.49608H15.3631V1.07447C15.3631 0.681673 15.0102 0.363525 14.5753 0.363525Z" fill="white"/>
</svg>
