<svg width="25" height="22" viewBox="0 0 25 22" fill="none" xmlns="http://www.w3.org/2000/svg">
<path d="M22.0679 4.59906H20.8333V1.21063C20.8333 0.985966 20.7358 0.770501 20.5621 0.611637C20.3885 0.452774 20.153 0.363525 19.9074 0.363525H5.09259C4.84702 0.363525 4.61151 0.452774 4.43786 0.611637C4.26422 0.770501 4.16667 0.985966 4.16667 1.21063V4.59906H2.93218C1.31528 4.59906 0 5.73916 0 7.14038V15.6114C0 15.8361 0.0975526 16.0516 0.271197 16.2104C0.444842 16.3693 0.680355 16.4586 0.925926 16.4586H4.16667V20.2705C4.16667 20.4952 4.26422 20.7107 4.43786 20.8695C4.61151 21.0284 4.84702 21.1176 5.09259 21.1176H19.9074C20.153 21.1176 20.3885 21.0284 20.5621 20.8695C20.7358 20.7107 20.8333 20.4952 20.8333 20.2705V16.4586H24.0741C24.3196 16.4586 24.5552 16.3693 24.7288 16.2104C24.9024 16.0516 25 15.8361 25 15.6114V7.14038C25 5.73916 23.6846 4.59906 22.0679 4.59906ZM6.01852 2.05774H18.9815V4.59906H6.01852V2.05774ZM18.9815 19.4234H6.01852V13.9172H18.9815V19.4234ZM19.4444 10.5288C19.1697 10.5288 18.9012 10.4543 18.6728 10.3147C18.4444 10.175 18.2664 9.97659 18.1613 9.74441C18.0562 9.51223 18.0287 9.25674 18.0822 9.01025C18.1358 8.76377 18.2681 8.53736 18.4624 8.35965C18.6566 8.18195 18.9041 8.06093 19.1735 8.0119C19.4429 7.96287 19.7222 7.98804 19.9759 8.08421C20.2297 8.18038 20.4466 8.34325 20.5993 8.55221C20.7519 8.76117 20.8333 9.00683 20.8333 9.25815C20.8333 9.59515 20.687 9.91835 20.4265 10.1566C20.1661 10.3949 19.8128 10.5288 19.4444 10.5288Z" fill="white"/>
</svg>
