<svg width="12" height="11" viewBox="0 0 12 11" fill="none" xmlns="http://www.w3.org/2000/svg">
<g clip-path="url(#clip0)">
<path d="M8.43753 8.69964C8.6973 8.58669 8.94803 8.45401 9.18753 8.30275V10.125C9.18753 10.2245 9.14802 10.3199 9.07769 10.3902C9.00737 10.4605 8.91199 10.5 8.81253 10.5C8.71307 10.5 8.61769 10.4605 8.54736 10.3902C8.47704 10.3199 8.43753 10.2245 8.43753 10.125V8.69964ZM5.66914 3.19853C5.64596 3.24198 5.63157 3.28958 5.62678 3.33859C5.622 3.38761 5.62692 3.43708 5.64126 3.4842C5.65559 3.53131 5.67907 3.57514 5.71035 3.61318C5.74163 3.65122 5.78009 3.68273 5.82354 3.70591L8.01565 4.87502L8.81253 4.45005L6.17651 3.04413C6.13306 3.02093 6.08547 3.00653 6.03645 3.00174C5.98743 2.99695 5.93795 3.00187 5.89083 3.01621C5.84372 3.03054 5.79989 3.05403 5.76185 3.08531C5.72381 3.1166 5.6923 3.15507 5.66914 3.19853V3.19853ZM11.8015 3.04413L6.17651 0.044125C6.1222 0.0151542 6.06159 0 6.00003 0C5.93847 0 5.87786 0.0151542 5.82354 0.044125L0.198545 3.04413C0.13857 3.07611 0.088416 3.12379 0.0534447 3.18207C0.0184733 3.24036 0 3.30705 0 3.37502C0 3.44299 0.0184733 3.50968 0.0534447 3.56796C0.088416 3.62624 0.13857 3.67392 0.198545 3.70591L1.31253 4.3V6.63067C1.31272 6.79277 1.36523 6.95048 1.46225 7.08034C1.83378 7.57469 3.25878 9.18752 6.00003 9.18752C6.83775 9.19517 7.66788 9.02825 8.43753 8.69739V5.10002L8.01565 4.87502L6.00003 5.95005L1.86734 3.74594L1.86467 3.74453L1.1719 3.37502L6.00003 0.799985L10.8282 3.37502L10.1353 3.74448L10.1327 3.74589L8.81253 4.45009L8.98901 4.54417C9.04864 4.57656 9.0985 4.62433 9.13341 4.68251C9.16832 4.74069 9.18701 4.80717 9.18753 4.87502V8.30003C9.70609 7.9764 10.1632 7.56348 10.5378 7.08039C10.6348 6.95052 10.6873 6.79279 10.6875 6.63067V4.30005L11.8015 3.70591C11.8615 3.67392 11.9116 3.62624 11.9466 3.56796C11.9816 3.50968 12.0001 3.44299 12.0001 3.37502C12.0001 3.30705 11.9816 3.24036 11.9466 3.18207C11.9116 3.12379 11.8615 3.07611 11.8015 3.04413V3.04413Z" fill="#797979"/>
</g>
<defs>
<clipPath id="clip0">
<rect width="12.0001" height="10.5" fill="white"/>
</clipPath>
</defs>
</svg>
