<svg width="9" height="13" viewBox="0 0 9 13" fill="none" xmlns="http://www.w3.org/2000/svg">
<g clip-path="url(#clip0)">
<path d="M4.49995 8.16671C5.37601 8.16671 6.0862 7.45652 6.0862 6.58045C6.0862 5.70439 5.37601 4.9942 4.49995 4.9942C3.62389 4.9942 2.9137 5.70439 2.9137 6.58045C2.9137 7.45652 3.62389 8.16671 4.49995 8.16671Z" fill="#797979"/>
<path d="M5.625 1.41669C5.625 1.21778 5.54599 1.02701 5.40533 0.886357C5.26468 0.745705 5.07392 0.666687 4.875 0.666687H4.125C3.92609 0.666687 3.73532 0.745705 3.59467 0.886357C3.45402 1.02701 3.375 1.21778 3.375 1.41669V3.66669H5.625V1.41669Z" fill="#797979"/>
<path d="M1.59751 10.0417C1.53376 10.1186 1.49923 10.2156 1.50001 10.3155V11.1667H7.50003V10.3042C7.50113 10.2043 7.46656 10.1072 7.40252 10.0305C7.03861 9.62506 6.58992 9.30469 6.08831 9.09212C5.58669 8.87954 5.04443 8.77998 4.50002 8.80048C3.95473 8.78138 3.41194 8.8827 2.91026 9.09724C2.40859 9.31178 1.96038 9.63426 1.59751 10.0417V10.0417Z" fill="#797979"/>
<path d="M8.25002 2.16669H6.37501V2.91669H8.25002V11.9167H0.750001V2.91669H2.62501V2.16669H0.750001C0.551089 2.16669 0.360323 2.2457 0.21967 2.38636C0.0790177 2.52701 0 2.71778 0 2.91669V11.9167C0 12.1156 0.0790177 12.3064 0.21967 12.447C0.360323 12.5877 0.551089 12.6667 0.750001 12.6667H8.25002C8.44893 12.6667 8.63969 12.5877 8.78035 12.447C8.921 12.3064 9.00002 12.1156 9.00002 11.9167V2.91669C9.00002 2.71778 8.921 2.52701 8.78035 2.38636C8.63969 2.2457 8.44893 2.16669 8.25002 2.16669V2.16669Z" fill="#797979"/>
</g>
<defs>
<clipPath id="clip0">
<rect width="9.00002" height="12" fill="white" transform="translate(0 0.666687)"/>
</clipPath>
</defs>
</svg>
