<svg xmlns="http://www.w3.org/2000/svg" xmlns:xlink="http://www.w3.org/1999/xlink" width="650.819" height="528.639" viewBox="0 0 650.819 528.639">
  <defs>
    <linearGradient id="linear-gradient" x1="0.492" y1="-1.418" x2="0.505" y2="2.8" gradientUnits="objectBoundingBox">
      <stop offset="0" stop-color="#7763f7"/>
      <stop offset="0.248" stop-color="#6f72f7"/>
      <stop offset="0.337" stop-color="#6c79f7"/>
      <stop offset="0.763" stop-color="#5b9ef8"/>
      <stop offset="1" stop-color="#50b5f8"/>
    </linearGradient>
    <linearGradient id="linear-gradient-2" x1="0.311" y1="0.514" x2="1.285" y2="1.063" gradientUnits="objectBoundingBox">
      <stop offset="0" stop-color="#4f6ad9"/>
      <stop offset="1" stop-color="#658bfd"/>
    </linearGradient>
    <linearGradient id="linear-gradient-3" x1="0.212" y1="0.77" x2="0.922" y2="0.217" gradientUnits="objectBoundingBox">
      <stop offset="0" stop-color="#4869d8"/>
      <stop offset="1" stop-color="#658bfd"/>
    </linearGradient>
    <linearGradient id="linear-gradient-4" x1="0.923" y1="1.037" x2="0.55" y2="0.475" gradientUnits="objectBoundingBox">
      <stop offset="0" stop-color="#8daeff"/>
      <stop offset="1" stop-color="#8daeff" stop-opacity="0"/>
    </linearGradient>
    <linearGradient id="linear-gradient-5" x1="-0.043" y1="0.319" x2="0.934" y2="0.646" gradientUnits="objectBoundingBox">
      <stop offset="0" stop-color="#546aea"/>
      <stop offset="1" stop-color="#658bfd"/>
    </linearGradient>
    <linearGradient id="linear-gradient-6" x1="0.494" y1="1.088" x2="0.499" y2="0.683" xlink:href="#linear-gradient-4"/>
    <linearGradient id="linear-gradient-7" x1="0.075" y1="0.777" x2="0.805" y2="0.117" xlink:href="#linear-gradient-5"/>
    <linearGradient id="linear-gradient-8" x1="0.743" y1="0.886" x2="0.49" y2="0.474" xlink:href="#linear-gradient-4"/>
    <linearGradient id="linear-gradient-9" x1="-2.725" y1="-2.459" x2="-1.404" y2="-2.459" xlink:href="#linear-gradient-5"/>
    <linearGradient id="linear-gradient-10" x1="-11.054" y1="-1.763" x2="-8.411" y2="-1.763" xlink:href="#linear-gradient-5"/>
    <linearGradient id="linear-gradient-11" x1="-1.396" y1="-7.205" x2="-0.355" y2="-7.205" xlink:href="#linear-gradient-5"/>
    <linearGradient id="linear-gradient-12" x1="-1.389" y1="-8.564" x2="-0.359" y2="-8.564" xlink:href="#linear-gradient-5"/>
    <linearGradient id="linear-gradient-13" x1="-1.432" y1="-8.348" x2="-0.401" y2="-8.348" xlink:href="#linear-gradient-5"/>
    <linearGradient id="linear-gradient-14" x1="-1.445" y1="-19.362" x2="-0.457" y2="-19.362" xlink:href="#linear-gradient-5"/>
    <linearGradient id="linear-gradient-15" x1="-15.239" y1="-1.826" x2="-12.671" y2="-1.826" xlink:href="#linear-gradient-5"/>
    <linearGradient id="linear-gradient-16" x1="-11.867" y1="-1.74" x2="-10.182" y2="-1.74" xlink:href="#linear-gradient-5"/>
    <linearGradient id="linear-gradient-17" x1="-10.271" y1="-1.822" x2="-9.129" y2="-1.822" xlink:href="#linear-gradient-5"/>
    <linearGradient id="linear-gradient-18" x1="-4.625" y1="4.226" x2="-3.804" y2="4.226" xlink:href="#linear-gradient-5"/>
    <linearGradient id="linear-gradient-19" x1="-6.373" y1="2.547" x2="-5.799" y2="2.547" xlink:href="#linear-gradient-5"/>
    <linearGradient id="linear-gradient-20" x1="-3.543" y1="9.427" x2="-2.528" y2="9.427" xlink:href="#linear-gradient-5"/>
    <linearGradient id="linear-gradient-21" x1="-3.381" y1="7.659" x2="-2.352" y2="7.659" xlink:href="#linear-gradient-5"/>
    <linearGradient id="linear-gradient-22" x1="-3.231" y1="8.139" x2="-2.205" y2="8.139" xlink:href="#linear-gradient-5"/>
    <linearGradient id="linear-gradient-23" x1="-3.402" y1="4.962" x2="-2.321" y2="4.962" xlink:href="#linear-gradient-5"/>
    <linearGradient id="linear-gradient-24" x1="-7.323" y1="2.555" x2="-6.839" y2="2.555" xlink:href="#linear-gradient-5"/>
    <linearGradient id="linear-gradient-25" x1="-7.516" y1="2.468" x2="-7.081" y2="2.468" xlink:href="#linear-gradient-5"/>
    <linearGradient id="linear-gradient-26" x1="-8.43" y1="2.526" x2="-8.036" y2="2.526" xlink:href="#linear-gradient-5"/>
    <linearGradient id="linear-gradient-27" x1="0.396" y1="0.816" x2="0.611" y2="0.191" gradientUnits="objectBoundingBox">
      <stop offset="0" stop-color="#566dec"/>
      <stop offset="1" stop-color="#658bfd"/>
    </linearGradient>
    <linearGradient id="linear-gradient-28" x1="1.131" y1="0.706" x2="0.529" y2="0.539" xlink:href="#linear-gradient-4"/>
    <linearGradient id="linear-gradient-29" x1="-49.079" y1="0.514" x2="-48.104" y2="1.063" xlink:href="#linear-gradient-2"/>
    <linearGradient id="linear-gradient-30" x1="-43.127" y1="0.77" x2="-42.417" y2="0.217" xlink:href="#linear-gradient-3"/>
    <linearGradient id="linear-gradient-31" x1="-42.416" y1="1.037" x2="-42.789" y2="0.475" xlink:href="#linear-gradient-4"/>
    <linearGradient id="linear-gradient-32" x1="-44.447" y1="0.319" x2="-43.47" y2="0.646" xlink:href="#linear-gradient-5"/>
    <linearGradient id="linear-gradient-33" x1="-43.909" y1="1.088" x2="-43.905" y2="0.683" xlink:href="#linear-gradient-4"/>
    <linearGradient id="linear-gradient-34" x1="-45.048" y1="0.777" x2="-44.317" y2="0.117" xlink:href="#linear-gradient-5"/>
    <linearGradient id="linear-gradient-35" x1="-44.379" y1="0.886" x2="-44.633" y2="0.474" xlink:href="#linear-gradient-4"/>
    <linearGradient id="linear-gradient-36" x1="-147.309" y1="-26.993" x2="-145.988" y2="-26.993" xlink:href="#linear-gradient-5"/>
    <linearGradient id="linear-gradient-37" x1="-593.113" y1="-19.807" x2="-590.467" y2="-19.807" xlink:href="#linear-gradient-5"/>
    <linearGradient id="linear-gradient-38" x1="-72.662" y1="-71.073" x2="-71.621" y2="-71.073" xlink:href="#linear-gradient-5"/>
    <linearGradient id="linear-gradient-39" x1="-69.315" y1="-81.815" x2="-68.286" y2="-81.815" xlink:href="#linear-gradient-5"/>
    <linearGradient id="linear-gradient-40" x1="-68.443" y1="-77.57" x2="-67.411" y2="-77.57" xlink:href="#linear-gradient-5"/>
    <linearGradient id="linear-gradient-41" x1="-66.986" y1="-171.019" x2="-65.998" y2="-171.019" xlink:href="#linear-gradient-5"/>
    <linearGradient id="linear-gradient-42" x1="-802.311" y1="-19.779" x2="-799.751" y2="-19.779" xlink:href="#linear-gradient-5"/>
    <linearGradient id="linear-gradient-43" x1="-619.343" y1="-18.425" x2="-617.656" y2="-18.425" xlink:href="#linear-gradient-5"/>
    <linearGradient id="linear-gradient-44" x1="-528.968" y1="-18.567" x2="-527.827" y2="-18.567" xlink:href="#linear-gradient-5"/>
    <linearGradient id="linear-gradient-45" x1="-93" y1="51.322" x2="-92.178" y2="51.322" xlink:href="#linear-gradient-5"/>
    <linearGradient id="linear-gradient-46" x1="-130.709" y1="26.946" x2="-130.135" y2="26.946" xlink:href="#linear-gradient-5"/>
    <linearGradient id="linear-gradient-47" x1="-72.343" y1="121.173" x2="-71.328" y2="121.173" xlink:href="#linear-gradient-5"/>
    <linearGradient id="linear-gradient-48" x1="-70.832" y1="93.136" x2="-69.803" y2="93.136" xlink:href="#linear-gradient-5"/>
    <linearGradient id="linear-gradient-49" x1="-69.765" y1="94.315" x2="-68.738" y2="94.315" xlink:href="#linear-gradient-5"/>
    <linearGradient id="linear-gradient-50" x1="-75.31" y1="52.526" x2="-74.229" y2="52.526" xlink:href="#linear-gradient-5"/>
    <linearGradient id="linear-gradient-51" x1="-154.23" y1="25.709" x2="-153.745" y2="25.709" xlink:href="#linear-gradient-5"/>
    <linearGradient id="linear-gradient-52" x1="-162.24" y1="23.379" x2="-161.806" y2="23.379" xlink:href="#linear-gradient-5"/>
    <linearGradient id="linear-gradient-53" x1="-185.724" y1="22.974" x2="-185.33" y2="22.974" xlink:href="#linear-gradient-5"/>
    <linearGradient id="linear-gradient-54" x1="-87.085" y1="0.816" x2="-86.869" y2="0.191" xlink:href="#linear-gradient-27"/>
    <linearGradient id="linear-gradient-55" x1="-86.35" y1="0.706" x2="-86.952" y2="0.539" xlink:href="#linear-gradient-4"/>
    <linearGradient id="linear-gradient-56" x1="0.482" y1="-0.858" x2="0.499" y2="0.847" gradientUnits="objectBoundingBox">
      <stop offset="0" stop-color="#a6aeb2"/>
      <stop offset="1" stop-color="#dbdcdd"/>
    </linearGradient>
    <linearGradient id="linear-gradient-57" y1="0.5" x2="1" y2="0.5" gradientUnits="objectBoundingBox">
      <stop offset="0" stop-color="#24247f"/>
      <stop offset="1" stop-color="#0747a6"/>
    </linearGradient>
    <linearGradient id="linear-gradient-58" x1="0.983" y1="-0.055" x2="-0.072" y2="1.218" gradientUnits="objectBoundingBox">
      <stop offset="0" stop-color="#242463"/>
      <stop offset="1" stop-color="#242463" stop-opacity="0"/>
    </linearGradient>
    <linearGradient id="linear-gradient-59" x1="1.535" y1="-0.039" x2="-1.237" y2="1.198" xlink:href="#linear-gradient-58"/>
    <linearGradient id="linear-gradient-60" x1="0" y1="0.5" x2="1" y2="0.5" xlink:href="#linear-gradient-5"/>
    <linearGradient id="linear-gradient-61" x1="0.073" y1="0.937" x2="1.153" y2="-0.031" xlink:href="#linear-gradient-5"/>
    <linearGradient id="linear-gradient-62" x1="-0.001" y1="0.501" x2="1" y2="0.501" gradientUnits="objectBoundingBox">
      <stop offset="0" stop-color="#e1e1e1"/>
      <stop offset="1" stop-color="#fff"/>
    </linearGradient>
    <linearGradient id="linear-gradient-63" x1="0.306" y1="0.965" x2="0.594" y2="0.254" xlink:href="#linear-gradient-5"/>
    <linearGradient id="linear-gradient-64" x1="0.416" y1="1.142" x2="0.528" y2="-0.032" xlink:href="#linear-gradient-62"/>
    <linearGradient id="linear-gradient-65" x1="-0.331" y1="1.503" x2="0.958" y2="-0.134" gradientUnits="objectBoundingBox">
      <stop offset="0" stop-color="#bccace"/>
      <stop offset="1" stop-color="#bccace" stop-opacity="0"/>
    </linearGradient>
    <linearGradient id="linear-gradient-66" x1="4.263" y1="0.478" x2="-8.835" y2="0.553" xlink:href="#linear-gradient-65"/>
    <linearGradient id="linear-gradient-67" x1="0.588" y1="1.151" x2="0.289" y2="-0.786" gradientUnits="objectBoundingBox">
      <stop offset="0" stop-color="#f4ba38"/>
      <stop offset="1" stop-color="#ffd349"/>
    </linearGradient>
    <linearGradient id="linear-gradient-68" x1="1.886" y1="1.974" x2="-0.776" y2="-0.856" gradientUnits="objectBoundingBox">
      <stop offset="0" stop-color="#fff"/>
      <stop offset="1" stop-color="#fff" stop-opacity="0"/>
    </linearGradient>
    <linearGradient id="linear-gradient-69" x1="1.405" y1="1.444" x2="0.036" y2="0.151" xlink:href="#linear-gradient-68"/>
    <linearGradient id="linear-gradient-70" x1="0.923" y1="1.25" x2="-1.061" y2="-0.686" gradientUnits="objectBoundingBox">
      <stop offset="0" stop-color="#ff911e"/>
      <stop offset="1" stop-color="#fe931e" stop-opacity="0"/>
    </linearGradient>
    <linearGradient id="linear-gradient-71" x1="0.998" y1="1.006" x2="0.174" y2="0.17" xlink:href="#linear-gradient-5"/>
    <linearGradient id="linear-gradient-72" x1="0" y1="0.5" x2="1" y2="0.5" xlink:href="#linear-gradient-57"/>
    <linearGradient id="linear-gradient-73" x1="0.591" y1="-0.159" x2="0.352" y2="0.909" xlink:href="#linear-gradient-58"/>
    <linearGradient id="linear-gradient-74" x1="0.837" y1="1.037" x2="0.371" y2="0.248" xlink:href="#linear-gradient-5"/>
    <linearGradient id="linear-gradient-75" x1="1.508" y1="0.178" x2="0.231" y2="0.634" xlink:href="#linear-gradient-62"/>
    <linearGradient id="linear-gradient-76" x1="0.607" y1="1.129" x2="0.246" y2="0.211" xlink:href="#linear-gradient-67"/>
    <linearGradient id="linear-gradient-77" x1="1.146" y1="-0.597" x2="-0.7" y2="2.044" xlink:href="#linear-gradient-70"/>
    <linearGradient id="linear-gradient-78" x1="0.843" y1="0.175" x2="0.165" y2="0.789" xlink:href="#linear-gradient-5"/>
    <linearGradient id="linear-gradient-79" y1="0.499" x2="1" y2="0.499" gradientUnits="objectBoundingBox">
      <stop offset="0" stop-color="#ef6f6f"/>
      <stop offset="1" stop-color="#ef6f6f" stop-opacity="0"/>
    </linearGradient>
    <linearGradient id="linear-gradient-80" x1="0.261" y1="-0.696" x2="0.616" y2="0.821" xlink:href="#linear-gradient-62"/>
    <linearGradient id="linear-gradient-81" x1="0.001" y1="0.499" x2="1.001" y2="0.499" xlink:href="#linear-gradient-5"/>
    <linearGradient id="linear-gradient-82" x1="0" y1="0.499" x2="0.999" y2="0.499" xlink:href="#linear-gradient-5"/>
    <linearGradient id="linear-gradient-83" x1="0" y1="0.499" x2="0.999" y2="0.499" xlink:href="#linear-gradient-5"/>
    <linearGradient id="linear-gradient-84" x1="0.001" y1="0.5" x2="1" y2="0.5" xlink:href="#linear-gradient-5"/>
    <linearGradient id="linear-gradient-85" x1="-0.18" y1="1.096" x2="0.757" y2="0.263" xlink:href="#linear-gradient-5"/>
    <linearGradient id="linear-gradient-86" x1="0" y1="0.5" x2="1" y2="0.5" xlink:href="#linear-gradient-57"/>
    <linearGradient id="linear-gradient-87" x1="0" y1="0.5" x2="1" y2="0.5" xlink:href="#linear-gradient-57"/>
    <linearGradient id="linear-gradient-88" x1="0.398" y1="1.234" x2="0.538" y2="-0.044" xlink:href="#linear-gradient-67"/>
    <linearGradient id="linear-gradient-89" x1="0" y1="0.5" x2="1.004" y2="0.5" xlink:href="#linear-gradient-67"/>
    <linearGradient id="linear-gradient-90" x1="-1.81" y1="-1.85" x2="4.424" y2="4.32" xlink:href="#linear-gradient-67"/>
    <linearGradient id="linear-gradient-91" x1="0.908" y1="1.121" x2="-0.809" y2="-0.638" xlink:href="#linear-gradient-70"/>
    <linearGradient id="linear-gradient-92" x1="0.148" y1="1.228" x2="1.481" y2="-1.147" xlink:href="#linear-gradient-70"/>
    <linearGradient id="linear-gradient-93" x1="0.226" y1="0.988" x2="0.655" y2="0.235" gradientUnits="objectBoundingBox">
      <stop offset="0" stop-color="#f4a238"/>
      <stop offset="1" stop-color="#ffc949"/>
    </linearGradient>
    <linearGradient id="linear-gradient-94" x1="0.682" y1="1.022" x2="0.284" y2="0.158" xlink:href="#linear-gradient-67"/>
    <linearGradient id="linear-gradient-95" x1="0.385" y1="1.122" x2="0.619" y2="0.258" xlink:href="#linear-gradient-67"/>
    <linearGradient id="linear-gradient-96" x1="0.226" y1="0.989" x2="0.655" y2="0.236" xlink:href="#linear-gradient-93"/>
    <linearGradient id="linear-gradient-97" x1="0.682" y1="1.022" x2="0.284" y2="0.158" xlink:href="#linear-gradient-67"/>
    <linearGradient id="linear-gradient-98" x1="0.385" y1="1.122" x2="0.62" y2="0.258" xlink:href="#linear-gradient-67"/>
    <linearGradient id="linear-gradient-99" x1="9.498" y1="0.989" x2="9.927" y2="0.235" xlink:href="#linear-gradient-93"/>
    <linearGradient id="linear-gradient-100" x1="6.771" y1="1.022" x2="6.372" y2="0.158" xlink:href="#linear-gradient-67"/>
    <linearGradient id="linear-gradient-101" x1="12.87" y1="1.122" x2="13.104" y2="0.258" xlink:href="#linear-gradient-67"/>
  </defs>
  <g id="_2488480" data-name="2488480" transform="translate(196.908 50.639)">
    <g id="OBJECTS">
      <g id="Group_3516" data-name="Group 3516">
        <path id="Path_1558" data-name="Path 1558" d="M95.38,88.79h.03c-.59-.01-1.19-.03-1.77-.05A12.337,12.337,0,0,1,95.38,88.79Z" fill="url(#linear-gradient)"/>
        <path id="Path_1559" data-name="Path 1559" d="M217.98,300s-37.74,1.13-40.01,4.72,22.27,3.96,24.34,11.51,7.74,12.45,51.33,12.27,40.2-3.59,32.65-11.51,4.91-7.55,1.51-12.64C284.41,299.24,233.46,299.24,217.98,300Z" fill="#edeff4"/>
        <path id="Path_1560" data-name="Path 1560" d="M345.18,350.01c-4.91,2.45-7.55,6.23.57,6.98s18.68,10.95,38.87,7.36,5.64-17.61-24.45-19.28Z" fill="#edeff4"/>
        <path id="Path_1561" data-name="Path 1561" d="M229.87,404.73s-12.64,2.83-11.89,8.49,20.76,1.51,25.85,6.42,34.91,4.15,30.76-4.91S251.2,402.66,229.87,404.73Z" fill="#edeff4"/>
        <path id="Path_1562" data-name="Path 1562" d="M162.99,366.74a7.808,7.808,0,0,1,5.91,9.58c-.84,3.17-3.1,6.31-8.47,7.47-12.27,2.64-17.93,19.25-42.84,12.64s10.84-28.53,10.84-28.53S135.17,360.62,162.99,366.74Z" fill="#edeff4" opacity="0.75"/>
        <path id="Path_1563" data-name="Path 1563" d="M298.187,69.184c-43.719-12.19-98.551,22.05-134.135,41.046s-87.937,59.128-84.5,108.14,62.395,151.958,218.635,144.342,203.157-107.606,196.284-153.3-93.1-34.393-127-72.223S330.051,86.37,298.187,69.184Z" transform="translate(-41.205 -24.043)" fill="#edeff4" opacity="0.75"/>
        <path id="Path_1564" data-name="Path 1564" d="M391.6,245.08s17.36,4.15,23.59,22.08c0,0-15.66,5.47-30.76,2.08S391.6,245.08,391.6,245.08Z" fill="url(#linear-gradient-2)"/>
        <path id="Path_1565" data-name="Path 1565" d="M383.11,255.84s13.4,1.89,22.27,6.79a123.921,123.921,0,0,0-25.66-4.91Z" fill="#405ebf"/>
        <g id="Group_3496" data-name="Group 3496">
          <path id="Path_1566" data-name="Path 1566" d="M367.91,260.27s22.46,1.89,30.01-11.89,5.85-20.57,5.85-20.57-30.95-.57-41.52,22.27Z" fill="url(#linear-gradient-3)"/>
          <path id="Path_1567" data-name="Path 1567" d="M369.09,257.12s14.3-17.6,32.04-25.53c0,0-20.38,6.42-33.21,24.15Z" fill="#405ebf"/>
          <path id="Path_1568" data-name="Path 1568" d="M367.91,260.27s22.46,1.89,30.01-11.89,5.85-20.57,5.85-20.57-30.95-.57-41.52,22.27Z" fill="url(#linear-gradient-4)"/>
        </g>
        <g id="Group_3497" data-name="Group 3497">
          <path id="Path_1569" data-name="Path 1569" d="M369.9,250.18c23.97,6.6,24.63,29.34,29.91,41.23,0,0-25.48,4.34-37.55-19.8C358.52,261.98,354.87,251.08,369.9,250.18Z" fill="url(#linear-gradient-5)"/>
          <path id="Path_1570" data-name="Path 1570" d="M368.29,259.14s15.1,9.62,21.14,23.97c0,0-13.59-19.25-23.59-21.89Z" fill="#405ebf"/>
          <path id="Path_1571" data-name="Path 1571" d="M369.9,250.18c23.97,6.6,24.63,29.34,29.91,41.23,0,0-25.48,4.34-37.55-19.8C358.52,261.98,354.87,251.08,369.9,250.18Z" fill="url(#linear-gradient-6)"/>
        </g>
        <g id="Group_3498" data-name="Group 3498">
          <path id="Path_1572" data-name="Path 1572" d="M360.08,219.38s10.19-14.12,39.63-11.67c0,0-5.13,1.54-9.51,12.62s-13.91,21.4-30.68,17.38Z" fill="url(#linear-gradient-7)"/>
          <path id="Path_1573" data-name="Path 1573" d="M362.99,230.73s13.98-13.48,27.76-18.76c0,0-12.18,2.67-29.39,17.85Z" fill="#405ebf"/>
          <path id="Path_1574" data-name="Path 1574" d="M360.08,219.38s10.19-14.12,39.63-11.67c0,0-5.13,1.54-9.51,12.62s-13.91,21.4-30.68,17.38Z" fill="url(#linear-gradient-8)"/>
        </g>
        <g id="Group_3499" data-name="Group 3499">
          <path id="Path_1575" data-name="Path 1575" d="M390.08,132.26a67.7,67.7,0,0,1,11.96-18.77S397.73,125.99,390.08,132.26Z" fill="url(#linear-gradient-9)"/>
          <path id="Path_1576" data-name="Path 1576" d="M385.09,137.65s3.37-12.77,2.38-25.52C387.46,112.13,383.31,125.97,385.09,137.65Z" fill="url(#linear-gradient-10)"/>
          <path id="Path_1577" data-name="Path 1577" d="M410.1,130.94s-11.71,5.79-24.21,7.21C385.89,138.15,398.47,131.38,410.1,130.94Z" fill="url(#linear-gradient-11)"/>
          <path id="Path_1578" data-name="Path 1578" d="M405.35,140.28s-12.48,5.62-25.56,6.27C379.8,146.55,393.24,139.89,405.35,140.28Z" fill="url(#linear-gradient-12)"/>
          <path id="Path_1579" data-name="Path 1579" d="M398.25,149.51s-12.75,5.98-26.13,6.63C372.11,156.13,385.85,149.04,398.25,149.51Z" fill="url(#linear-gradient-13)"/>
          <path id="Path_1580" data-name="Path 1580" d="M391.63,162.23s-13.66,3.41-26.93,1.46C364.7,163.69,379.53,159.38,391.63,162.23Z" fill="url(#linear-gradient-14)"/>
          <path id="Path_1581" data-name="Path 1581" d="M378.42,145.76s2.21-13.04.09-25.65C378.51,120.12,375.61,134.28,378.42,145.76Z" fill="url(#linear-gradient-15)"/>
          <path id="Path_1582" data-name="Path 1582" d="M370.18,154.39s2.02-14.33-1.43-27.6C368.75,126.79,365.92,142.43,370.18,154.39Z" fill="url(#linear-gradient-16)"/>
          <path id="Path_1583" data-name="Path 1583" d="M362.58,161.63s1.27-14.42-2.88-27.5C359.7,134.13,357.7,149.91,362.58,161.63Z" fill="url(#linear-gradient-17)"/>
          <path id="Path_1584" data-name="Path 1584" d="M356.37,167.54s12.85-7.8,33.28-34.6c0,0-19.7,29.26-32.64,37.43Z" fill="#192ead"/>
        </g>
        <g id="Group_3500" data-name="Group 3500">
          <path id="Path_1585" data-name="Path 1585" d="M392.88,176.41a67.579,67.579,0,0,1,19.24-11.18S402.55,174.35,392.88,176.41Z" fill="url(#linear-gradient-18)"/>
          <path id="Path_1586" data-name="Path 1586" d="M385.97,178.91s8.86-9.8,13.83-21.58C399.79,157.33,389.75,167.71,385.97,178.91Z" fill="url(#linear-gradient-19)"/>
          <path id="Path_1587" data-name="Path 1587" d="M411.27,184.43s-13.06-.23-24.82-4.71C386.45,179.72,400.74,179.48,411.27,184.43Z" fill="url(#linear-gradient-20)"/>
          <path id="Path_1588" data-name="Path 1588" d="M402.76,190.55s-13.67-.74-25.58-6.16C377.18,184.39,392.18,184.64,402.76,190.55Z" fill="url(#linear-gradient-21)"/>
          <path id="Path_1589" data-name="Path 1589" d="M392.21,195.48s-14.08-.54-26.26-6.11C365.96,189.37,381.42,189.38,392.21,195.48Z" fill="url(#linear-gradient-22)"/>
          <path id="Path_1590" data-name="Path 1590" d="M380.5,203.75s-13.7-3.24-24.6-11.07C355.9,192.68,371.06,195.67,380.5,203.75Z" fill="url(#linear-gradient-23)"/>
          <path id="Path_1591" data-name="Path 1591" d="M376.32,183.06s7.95-10.57,11.85-22.74C388.17,160.31,379.09,171.57,376.32,183.06Z" fill="url(#linear-gradient-24)"/>
          <path id="Path_1592" data-name="Path 1592" d="M365.04,186.94s8.37-11.8,11.4-25.18C376.44,161.76,366.75,174.35,365.04,186.94Z" fill="url(#linear-gradient-25)"/>
          <path id="Path_1593" data-name="Path 1593" d="M354.96,189.88s7.75-12.23,10.07-25.75C365.03,164.13,356.01,177.22,354.96,189.88Z" fill="url(#linear-gradient-26)"/>
          <path id="Path_1594" data-name="Path 1594" d="M346.73,192.28s15-1.03,45.45-15.46c0,0-30.93,16.95-46.18,18.27Z" fill="#192ead"/>
        </g>
        <g id="Group_3501" data-name="Group 3501">
          <path id="Path_1595" data-name="Path 1595" d="M356.31,197.34s3.59-15.66,11.89-25.66c0,0,24.91,31.33-7.55,51.14Z" fill="url(#linear-gradient-27)"/>
          <path id="Path_1596" data-name="Path 1596" d="M360.46,213.38s8.3-11.13,7.74-28.31c0,0-.94,16.98-8.68,26.42Z" fill="#405ebf"/>
          <path id="Path_1597" data-name="Path 1597" d="M356.31,197.34s3.59-15.66,11.89-25.66c0,0,24.91,31.33-7.55,51.14Z" fill="url(#linear-gradient-28)"/>
        </g>
        <path id="Path_1598" data-name="Path 1598" d="M91.81,245.08s-17.36,4.15-23.59,22.08c0,0,15.66,5.47,30.76,2.08S91.81,245.08,91.81,245.08Z" fill="url(#linear-gradient-29)"/>
        <path id="Path_1599" data-name="Path 1599" d="M100.3,255.84s-13.4,1.89-22.27,6.79a123.92,123.92,0,0,1,25.66-4.91Z" fill="#405ebf"/>
        <g id="Group_3502" data-name="Group 3502">
          <path id="Path_1600" data-name="Path 1600" d="M115.49,260.27s-22.46,1.89-30-11.89-5.85-20.57-5.85-20.57,30.95-.57,41.52,22.27Z" fill="url(#linear-gradient-30)"/>
          <path id="Path_1601" data-name="Path 1601" d="M114.32,257.12s-14.3-17.6-32.04-25.53c0,0,20.38,6.42,33.21,24.15Z" fill="#405ebf"/>
          <path id="Path_1602" data-name="Path 1602" d="M115.49,260.27s-22.46,1.89-30-11.89-5.85-20.57-5.85-20.57,30.95-.57,41.52,22.27Z" fill="url(#linear-gradient-31)"/>
        </g>
        <g id="Group_3503" data-name="Group 3503">
          <path id="Path_1603" data-name="Path 1603" d="M113.51,250.18c-23.97,6.6-24.63,29.34-29.91,41.23,0,0,25.48,4.34,37.55-19.8C124.89,261.98,128.54,251.08,113.51,250.18Z" fill="url(#linear-gradient-32)"/>
          <path id="Path_1604" data-name="Path 1604" d="M115.11,259.14s-15.1,9.62-21.14,23.97c0,0,13.59-19.25,23.59-21.89Z" fill="#405ebf"/>
          <path id="Path_1605" data-name="Path 1605" d="M113.51,250.18c-23.97,6.6-24.63,29.34-29.91,41.23,0,0,25.48,4.34,37.55-19.8C124.89,261.98,128.54,251.08,113.51,250.18Z" fill="url(#linear-gradient-33)"/>
        </g>
        <g id="Group_3504" data-name="Group 3504">
          <path id="Path_1606" data-name="Path 1606" d="M123.32,219.38s-10.19-14.12-39.63-11.67c0,0,5.13,1.54,9.51,12.62s13.91,21.4,30.68,17.38Z" fill="url(#linear-gradient-34)"/>
          <path id="Path_1607" data-name="Path 1607" d="M120.41,230.73s-13.98-13.48-27.76-18.76c0,0,12.18,2.67,29.39,17.85Z" fill="#405ebf"/>
          <path id="Path_1608" data-name="Path 1608" d="M123.32,219.38s-10.19-14.12-39.63-11.67c0,0,5.13,1.54,9.51,12.62s13.91,21.4,30.68,17.38Z" fill="url(#linear-gradient-35)"/>
        </g>
        <g id="Group_3505" data-name="Group 3505">
          <path id="Path_1609" data-name="Path 1609" d="M93.32,132.26a67.7,67.7,0,0,0-11.96-18.77S85.68,125.99,93.32,132.26Z" fill="url(#linear-gradient-36)"/>
          <path id="Path_1610" data-name="Path 1610" d="M98.32,137.65s-3.37-12.77-2.38-25.52C95.94,112.13,100.1,125.97,98.32,137.65Z" fill="url(#linear-gradient-37)"/>
          <path id="Path_1611" data-name="Path 1611" d="M73.3,130.94s11.71,5.79,24.21,7.21C97.51,138.15,84.93,131.38,73.3,130.94Z" fill="url(#linear-gradient-38)"/>
          <path id="Path_1612" data-name="Path 1612" d="M78.05,140.28s12.48,5.62,25.56,6.27C103.61,146.55,90.16,139.89,78.05,140.28Z" fill="url(#linear-gradient-39)"/>
          <path id="Path_1613" data-name="Path 1613" d="M85.16,149.51s12.75,5.98,26.13,6.63C111.29,156.13,97.56,149.04,85.16,149.51Z" fill="url(#linear-gradient-40)"/>
          <path id="Path_1614" data-name="Path 1614" d="M91.77,162.23s13.66,3.41,26.93,1.46C118.7,163.69,103.87,159.38,91.77,162.23Z" fill="url(#linear-gradient-41)"/>
          <path id="Path_1615" data-name="Path 1615" d="M104.98,145.76s-2.21-13.04-.09-25.65C104.9,120.12,107.8,134.28,104.98,145.76Z" fill="url(#linear-gradient-42)"/>
          <path id="Path_1616" data-name="Path 1616" d="M113.23,154.39s-2.02-14.33,1.43-27.6C114.66,126.79,117.48,142.43,113.23,154.39Z" fill="url(#linear-gradient-43)"/>
          <path id="Path_1617" data-name="Path 1617" d="M120.83,161.63s-1.27-14.42,2.88-27.5C123.71,134.13,125.71,149.91,120.83,161.63Z" fill="url(#linear-gradient-44)"/>
          <path id="Path_1618" data-name="Path 1618" d="M127.04,167.54s-12.85-7.8-33.28-34.6c0,0,19.7,29.26,32.64,37.43Z" fill="#192ead"/>
        </g>
        <path id="Path_1733" data-name="Path 1733" d="M358.616,9847.83c-12.191,22.757-84.524,85.337-150.355,26.008s-15.442-133.287-4.064-146.291,92.651-78.835,37.385-113.782-189.772,70.907-202.776-77.009" transform="translate(-228 -9568)" fill="none" stroke="#acacac" stroke-linecap="round" stroke-width="2" stroke-dasharray="5"/>
        <g id="Group_3506" data-name="Group 3506">
          <path id="Path_1619" data-name="Path 1619" d="M90.52,176.41a67.578,67.578,0,0,0-19.24-11.18S80.86,174.35,90.52,176.41Z" fill="url(#linear-gradient-45)"/>
          <path id="Path_1620" data-name="Path 1620" d="M97.44,178.91s-8.86-9.8-13.83-21.58C83.61,157.33,93.66,167.71,97.44,178.91Z" fill="url(#linear-gradient-46)"/>
          <path id="Path_1621" data-name="Path 1621" d="M72.13,184.43s13.06-.23,24.82-4.71C96.95,179.72,82.67,179.48,72.13,184.43Z" fill="url(#linear-gradient-47)"/>
          <path id="Path_1622" data-name="Path 1622" d="M80.65,190.55s13.67-.74,25.58-6.16C106.23,184.39,91.22,184.64,80.65,190.55Z" fill="url(#linear-gradient-48)"/>
          <path id="Path_1623" data-name="Path 1623" d="M91.19,195.48s14.08-.54,26.26-6.11C117.45,189.37,101.99,189.38,91.19,195.48Z" fill="url(#linear-gradient-49)"/>
          <path id="Path_1624" data-name="Path 1624" d="M102.91,203.75s13.7-3.24,24.6-11.07C127.5,192.68,112.35,195.67,102.91,203.75Z" fill="url(#linear-gradient-50)"/>
          <path id="Path_1625" data-name="Path 1625" d="M107.08,183.06s-7.95-10.57-11.85-22.74C95.23,160.31,104.31,171.57,107.08,183.06Z" fill="url(#linear-gradient-51)"/>
          <path id="Path_1626" data-name="Path 1626" d="M118.37,186.94s-8.37-11.8-11.4-25.18C106.97,161.76,116.66,174.35,118.37,186.94Z" fill="url(#linear-gradient-52)"/>
          <path id="Path_1627" data-name="Path 1627" d="M128.45,189.88s-7.75-12.23-10.07-25.75C118.38,164.13,127.4,177.22,128.45,189.88Z" fill="url(#linear-gradient-53)"/>
          <path id="Path_1628" data-name="Path 1628" d="M136.67,192.28s-15-1.03-45.45-15.46c0,0,30.93,16.95,46.18,18.27Z" fill="#192ead"/>
        </g>
        <g id="Group_3507" data-name="Group 3507">
          <path id="Path_1629" data-name="Path 1629" d="M127.1,197.34s-3.59-15.66-11.89-25.66c0,0-24.91,31.33,7.55,51.14Z" fill="url(#linear-gradient-54)"/>
          <path id="Path_1630" data-name="Path 1630" d="M122.94,213.38s-8.3-11.13-7.74-28.31c0,0,.94,16.98,8.68,26.42Z" fill="#405ebf"/>
          <path id="Path_1631" data-name="Path 1631" d="M127.1,197.34s-3.59-15.66-11.89-25.66c0,0-24.91,31.33,7.55,51.14Z" fill="url(#linear-gradient-55)"/>
        </g>
        <g id="Group_3509" data-name="Group 3509">
          <path id="Path_1632" data-name="Path 1632" d="M362.18,130.46V278.25a3.239,3.239,0,0,1-3.24,3.24H123.76a4.2,4.2,0,0,1-4.2-4.2V130.46a13.3,13.3,0,0,1,13.32-13.32H348.86a13.3,13.3,0,0,1,13.32,13.32Z" fill="#dbdcdd"/>
          <path id="Path_1633" data-name="Path 1633" d="M362.18,130.46V265.42H119.55V130.46a13.418,13.418,0,0,1,.89-4.8H361.28A13.21,13.21,0,0,1,362.18,130.46Z" fill="#3e5dc1"/>
          <path id="Path_1634" data-name="Path 1634" d="M245.29,272.84a4.3,4.3,0,1,1-4.3-4.3A4.3,4.3,0,0,1,245.29,272.84Z" fill="#1631a4"/>
          <circle id="Ellipse_148" data-name="Ellipse 148" cx="1.82" cy="1.82" r="1.82" transform="translate(209.57 119.6)" fill="#ffbc47"/>
          <path id="Path_1635" data-name="Path 1635" d="M276.24,303.34l-71.27.06,7.29-3.36,4.23-18.54h48.43l3.92,18.77Z" fill="url(#linear-gradient-56)"/>
          <path id="Path_1636" data-name="Path 1636" d="M275.86,304.27H205.55a.58.58,0,0,1-.58-.58v-.01a.58.58,0,0,1,.58-.58h70.31a.58.58,0,0,1,.58.58v.01A.58.58,0,0,1,275.86,304.27Z" fill="#e3e4e5"/>
          <line id="Line_239" data-name="Line 239" x2="52.07" transform="translate(219.85 121.37)" fill="none" stroke="#0747a6" stroke-linecap="round" stroke-miterlimit="10" stroke-width="2.642"/>
          <rect id="Rectangle_1515" data-name="Rectangle 1515" width="224.88" height="128.59" transform="translate(128.43 131.72)" fill="#fff"/>
          <path id="Path_1637" data-name="Path 1637" d="M152.32,146.89v9.92h-7.58a4.96,4.96,0,1,1,0-9.92Z" fill="#ffbc47"/>
          <rect id="Rectangle_1516" data-name="Rectangle 1516" width="224.91" height="6.71" transform="translate(128.4 131.72)" fill="#0747a6"/>
          <g id="Group_3508" data-name="Group 3508">
            <path id="Path_1638" data-name="Path 1638" d="M197.24,147.67a4.19,4.19,0,0,1,0,8.38H153.09v-8.37h44.15m0-.79H152.32v9.92h44.92a4.96,4.96,0,0,0,0-9.92Z" fill="#ffbc47"/>
          </g>
          <rect id="Rectangle_1517" data-name="Rectangle 1517" width="27.71" height="27.71" transform="translate(139.7 167.53)" fill="#e8e8e8"/>
          <rect id="Rectangle_1518" data-name="Rectangle 1518" width="27.71" height="27.71" transform="translate(174.56 167.53)" fill="#e8e8e8"/>
          <rect id="Rectangle_1519" data-name="Rectangle 1519" width="27.71" height="27.71" transform="translate(207.96 167.53)" fill="#e8e8e8"/>
          <rect id="Rectangle_1520" data-name="Rectangle 1520" width="27.71" height="27.71" transform="translate(139.7 205.31)" fill="#e8e8e8"/>
          <rect id="Rectangle_1521" data-name="Rectangle 1521" width="27.71" height="27.71" transform="translate(174.56 205.31)" fill="#e8e8e8"/>
          <rect id="Rectangle_1522" data-name="Rectangle 1522" width="27.71" height="27.71" transform="translate(207.96 205.31)" fill="#e8e8e8"/>
          <rect id="Rectangle_1523" data-name="Rectangle 1523" width="31.8" height="31.8" transform="translate(214.09 157.9)" fill="#ffbc47"/>
          <path id="Path_1639" data-name="Path 1639" d="M181.12,255.04H141.74A2.036,2.036,0,0,1,139.7,253h0a2.036,2.036,0,0,1,2.04-2.04h39.38a2.036,2.036,0,0,1,2.04,2.04h0A2.029,2.029,0,0,1,181.12,255.04Z" fill="#e8e8e8"/>
          <path id="Path_1640" data-name="Path 1640" d="M237.57,255.04H198.19a2.036,2.036,0,0,1-2.04-2.04h0a2.036,2.036,0,0,1,2.04-2.04h39.38a2.036,2.036,0,0,1,2.04,2.04h0A2.036,2.036,0,0,1,237.57,255.04Z" fill="#e8e8e8"/>
          <path id="Path_1641" data-name="Path 1641" d="M332.96,255.04H293.58a2.036,2.036,0,0,1-2.04-2.04h0a2.036,2.036,0,0,1,2.04-2.04h39.38A2.036,2.036,0,0,1,335,253h0A2.036,2.036,0,0,1,332.96,255.04Z" fill="#e8e8e8"/>
          <rect id="Rectangle_1524" data-name="Rectangle 1524" width="16.63" height="16.63" transform="translate(284.1 167.53)" fill="#e8e8e8"/>
          <rect id="Rectangle_1525" data-name="Rectangle 1525" width="16.63" height="16.63" transform="translate(284.1 187.66)" fill="#e8e8e8"/>
          <rect id="Rectangle_1526" data-name="Rectangle 1526" width="16.63" height="16.63" transform="translate(304.66 167.53)" fill="#e8e8e8"/>
          <rect id="Rectangle_1527" data-name="Rectangle 1527" width="16.63" height="16.63" transform="translate(304.66 187.66)" fill="#e8e8e8"/>
          <rect id="Rectangle_1528" data-name="Rectangle 1528" width="16.63" height="16.63" transform="translate(325.67 167.53)" fill="#e8e8e8"/>
          <rect id="Rectangle_1529" data-name="Rectangle 1529" width="16.63" height="16.63" transform="translate(325.67 187.66)" fill="#e8e8e8"/>
          <path id="Path_1642" data-name="Path 1642" d="M287.45,219.16h54.84v-6.71H287.45a3.35,3.35,0,0,0-3.35,3.35h0A3.352,3.352,0,0,0,287.45,219.16Z" fill="#d6d6d8"/>
          <path id="Path_1643" data-name="Path 1643" d="M287.45,229.81h54.84V223.1H287.45a3.35,3.35,0,0,0-3.35,3.35h0A3.352,3.352,0,0,0,287.45,229.81Z" fill="#d6d6d8"/>
          <path id="Path_1644" data-name="Path 1644" d="M313.12,240.46h29.17v-6.71H313.12a3.35,3.35,0,0,0-3.35,3.35h0A3.352,3.352,0,0,0,313.12,240.46Z" fill="#d6d6d8"/>
          <path id="Path_1645" data-name="Path 1645" d="M146.59,149.71a1.994,1.994,0,0,0-2.84,2.8,1.976,1.976,0,0,0,2.47.29l1.85,1.88a.523.523,0,0,0,.75-.73l-1.88-1.91A2,2,0,0,0,146.59,149.71Zm-.42,2.41a1.421,1.421,0,1,1,.01-2.01A1.431,1.431,0,0,1,146.17,152.12Z" fill="#fffdfd"/>
        </g>
        <g id="Group_3510" data-name="Group 3510">
          <path id="Path_1646" data-name="Path 1646" d="M126.03,368.16a16.958,16.958,0,0,0-1.11,6.39,15.257,15.257,0,0,0,7.45-.3c2.57-.75,8.69-1.18,8.99-2.96,1.35-7.92-3.45.59-9.36-3.78Z" fill="#242463"/>
          <path id="Path_1647" data-name="Path 1647" d="M151.4,368.16a16.957,16.957,0,0,0-1.11,6.39,15.257,15.257,0,0,0,7.45-.3c2.57-.75,9.44-.13,10.22-1.77,3.2-6.74-4.68-.59-10.59-4.97Z" fill="#242463"/>
          <path id="Path_1648" data-name="Path 1648" d="M163.9,274.79c0,25.81-3.08,55.93-5.11,90.23-.06,1.06-.13,2.13-.19,3.19h-7.27l-.05-3.19-.68-41.1-1.78-24.57-.7-9.66-.12.61-14.53,74.72-.62,3.19h-6.9c.01-1.05.03-2.12.06-3.19.45-19.27,2.84-42.06,6.22-66.7l1.11-20.58s15.87-6.44,26.05-4.61A12.446,12.446,0,0,1,163.9,274.79Z" fill="url(#linear-gradient-57)"/>
          <path id="Path_1649" data-name="Path 1649" d="M148.02,290.3l-14.53,74.72-.62,3.19h-2.81c.78-11.18,4.35-30.33,7.55-39.56,2.32-6.67,1.23-14.66,2.96-24.83s6.65-22.47,6.65-22.47Z" fill="url(#linear-gradient-58)"/>
          <path id="Path_1650" data-name="Path 1650" d="M163.9,274.79c0,25.81-3.08,55.93-5.11,90.23-.06,1.06-.13,2.13-.19,3.19h-1.71c-.99-11.41,1.07-32.23,2.63-50.44.88-10.23.42-22.4,0-30.04-.24-4.37-.19-10.41-.12-14.6A12.464,12.464,0,0,1,163.9,274.79Z" fill="url(#linear-gradient-59)"/>
          <path id="Path_1651" data-name="Path 1651" d="M142.65,222.57s-4.56,4.27-7.02-.46-9.61-13.72-4.19-15.37a3.564,3.564,0,0,1,.12-4.02,3.5,3.5,0,0,0,.74,3.07s-1.72-4.97,6.16-5.79,7.76-4.61,7.76-4.61a5.974,5.974,0,0,1,.12,3.07s.74-.71.99-3.43a9.433,9.433,0,0,1,.62,8.04,13.717,13.717,0,0,0,1.11-2.6s.12,6.07-2.34,8.59l.62,9.15Z" fill="#192ead"/>
          <path id="Path_1652" data-name="Path 1652" d="M149,223.47a.443.443,0,0,1-.12.15c-.78.8-3.21-.15-3.21-.15l1.08,4.38.03.11-1.46.28h-.02l-.64.12h0l-6.62,1.25.62-5.2c6.53-.71,6.53-8.51,6.53-8.51-2.22.71-3.45-5.09-1.72-4.97s2.71,4.26,2.71,4.26a16.27,16.27,0,0,0-.23-4.12c-.13-.79-.26-1.32-.26-1.32a6.245,6.245,0,0,0,2.46-3.07c.09.26.18.51.27.77C151.24,215.94,149.59,222.44,149,223.47Z" fill="url(#linear-gradient-60)"/>
          <path id="Path_1653" data-name="Path 1653" d="M145.67,223.47l1.08,4.38a14.77,14.77,0,0,1-1.43.39h-.02c-.37.08-.6.12-.64.12h0l.58-8.15c.86,3.17,2.23,2.95,3.64,3.4C148.1,224.43,145.67,223.47,145.67,223.47Z" fill="#4864d8"/>
          <path id="Path_1654" data-name="Path 1654" d="M148.4,207.45a8.88,8.88,0,0,1-2.47,3.62c-.13-.79-.26-1.32-.26-1.32a6.245,6.245,0,0,0,2.46-3.07C148.23,206.94,148.32,207.19,148.4,207.45Z" fill="#4864d8"/>
          <path id="Path_1655" data-name="Path 1655" d="M162.67,236.24s5.17-4.97,5.67-6.39,1.72-4.02,3.45-4.38l-.49,2.89a9.386,9.386,0,0,0,1.6-.76c.25-.24.37-2.01.62-2.01s.86,2.72.25,3.43a7.129,7.129,0,0,1-3.44,2.29l-1.03,3.59-2.3,5Z" fill="url(#linear-gradient-61)"/>
          <path id="Path_1656" data-name="Path 1656" d="M183.6,207.96a25.973,25.973,0,0,0,5.95.66c1.96-.21,7.87-5.12,8.9-6.7s-10.82.52-10.82.52Z" fill="#0747a6"/>
          <ellipse id="Ellipse_149" data-name="Ellipse 149" cx="32.14" cy="28.89" rx="32.14" ry="28.89" transform="matrix(0.313, -0.95, 0.95, 0.313, 154.347, 193.687)" fill="#0747a6"/>
          <path id="Path_1657" data-name="Path 1657" d="M149,230.21l-1.6-2.96a17.928,17.928,0,0,0-11.08,2.25v3.9Z" fill="url(#linear-gradient-62)"/>
          <path id="Path_1658" data-name="Path 1658" d="M196.42,140.28c-15.57-3.54-31.64,7.56-35.88,24.78-3.3,13.38,1.51,26.52,11.12,33.38l.53,2.49a6.652,6.652,0,0,0,3.38,4.44c.63.34,1.26.65,1.9.93l-16.16,56.44,2.34,13.24,19.96-68.02c.24.03.48.05.72.07a7.057,7.057,0,0,0,4.69-1.37l6.3-4.68h0c10.13-3.26,18.68-12.22,21.61-24.1C221.18,160.65,211.99,143.82,196.42,140.28Z" fill="#3e5dc1"/>
          <path id="Path_1659" data-name="Path 1659" d="M184.52,210.05c-.28,2.38-.32,4.43-.47,4.75a23.486,23.486,0,0,1-2.35,4.04,6.63,6.63,0,0,0-.79,2.37c-.43,2.75-.44,7.79-.88,10.77-.35,2.35-.8,5.36-1.17,7.87-.12.82-.24,1.59-.34,2.27-.24,1.63-.4,2.72-.4,2.72l-6.84-3.64c.16-.72.33-1.38.51-2l.18-.6c.27-.87.54-1.66.83-2.42.77-2.08,1.44-3.98,2.31-6.81a61.6,61.6,0,0,0,1.81-9.59c-1.32-2.83-1.09-7.72-1.07-8.62.02-1.13.05-2.09.49-1.77a2.955,2.955,0,0,1,1.05,2.08s-.06,2.06.66,2.49c.14.09.13.09.88.05a7.389,7.389,0,0,0,3.32-.84l1.33-4.2C183.59,208.99,184.61,209.35,184.52,210.05Z" fill="url(#linear-gradient-63)"/>
          <path id="Path_1660" data-name="Path 1660" d="M178.86,239.86c-.12.82-.24,1.59-.34,2.27l-6.73-2.91.18-.6c.27-.87.54-1.66.83-2.42Z" fill="#4864d8"/>
          <path id="Path_1661" data-name="Path 1661" d="M178.43,243.69a75.445,75.445,0,0,1-2.26,7.27,6.442,6.442,0,0,1-1.25,2.25c-1.35,1.06-12.75-6.21-12.75-6.21l.17,2.78h0l1.35,21.77.2,3.24s-12.56,7.69-30.54,3.67l.16-2.63.57-9.07.12-1.89v-.01l.11-1.79v-.12s-.03-.03-.09-.08c-.68-.59-5.14-4.55-6.05-7.82-1.75-6.29-3.33-17.97-1.23-19.39a31.342,31.342,0,0,1,3.86-2.22c10.74-5.29,25.95-6.66,27.55-4.99.16.16.32.33.47.49,6.78,7.13,11.85,13.46,11.85,13.46l1.23-2.6Z" fill="url(#linear-gradient-64)"/>
          <path id="Path_1662" data-name="Path 1662" d="M176.17,250.97a6.442,6.442,0,0,1-1.25,2.25c-1.35,1.06-12.81-6.27-12.81-6.27s-.74-4.26-1.72-9.93c2.09,5.56,2.54,7.65,5.79,8.87C170.84,247.63,171.92,252.7,176.17,250.97Z" fill="url(#linear-gradient-65)"/>
          <path id="Path_1663" data-name="Path 1663" d="M134.36,260.4c-.13-.11-.36-.31-.66-.58a41.6,41.6,0,0,1-1.39-4.95c-.12-1.3,0-14.19,0-14.19C134.4,248.36,134.32,257.12,134.36,260.4Z" fill="url(#linear-gradient-66)"/>
          <path id="Path_1664" data-name="Path 1664" d="M163.7,271.56c-1.23.58-2.44,1.11-3.62,1.58-11.64,4.63-20.96,3.97-26.56,2.69l.57-9.07q.09-.87.12-1.89v-.01q.03-.99.03-1.98a128.364,128.364,0,0,0-3.43-29.44c10.74-5.29,25.95-6.66,27.55-4.99.16.16.32.33.47.49a115.633,115.633,0,0,1,2.39,11.83c.47,3.09.84,6.16,1.13,9.03h0Z" fill="url(#linear-gradient-67)"/>
          <path id="Path_1665" data-name="Path 1665" d="M213.28,174.69c-.13.75-.28,1.49-.47,2.24-2.49,10.1-9.74,17.73-18.35,20.54a23.2,23.2,0,0,1-8.53,1.14,22.36,22.36,0,0,1-3.77-.53,21.965,21.965,0,0,1-6.17-2.41c-9.42-5.42-14.36-17.44-11.34-29.69,3.62-14.71,17.34-24.18,30.64-21.16a22.322,22.322,0,0,1,6.94,2.87,25.11,25.11,0,0,1,11.1,17.45A29.172,29.172,0,0,1,213.28,174.69Z" fill="#eff4f4"/>
          <path id="Path_1666" data-name="Path 1666" d="M177.91,201.56" fill="none" stroke="#ff2a6e" stroke-miterlimit="10" stroke-width="0.377"/>
          <path id="Path_1667" data-name="Path 1667" d="M200.76,146.85c-.63-.2-1.27-.38-1.93-.53-13.3-3.02-27.01,6.45-30.64,21.16-3.09,12.56,2.17,24.87,12.05,30.08-12.12-3.91-19.03-17.59-15.58-31.57,3.62-14.71,17.34-24.18,30.64-21.16A22.711,22.711,0,0,1,200.76,146.85Z" fill="#0747a6"/>
          <path id="Path_1668" data-name="Path 1668" d="M170.24,240.91l1.73-2.95,6.89,2.95-.12,5.33Z" fill="#dbe1e3"/>
          <path id="Path_1669" data-name="Path 1669" d="M194.47,197.48l18.81-22.79c-.13.75-.28,1.49-.47,2.24C210.33,187.04,203.07,194.67,194.47,197.48Z" fill="url(#linear-gradient-68)"/>
          <path id="Path_1670" data-name="Path 1670" d="M213.34,165.16l-27.39,33.47a22.36,22.36,0,0,1-3.77-.53,21.965,21.965,0,0,1-6.17-2.41l26.23-47.98A25.143,25.143,0,0,1,213.34,165.16Z" fill="url(#linear-gradient-69)"/>
          <path id="Path_1671" data-name="Path 1671" d="M160.08,273.13c.83-13.49.31-33.98.31-33.98l.82,1.6c.47,3.09.84,6.16,1.13,9.03h0l1.35,21.77C162.47,272.14,161.26,272.66,160.08,273.13Z" fill="url(#linear-gradient-70)"/>
        </g>
        <g id="Group_3511" data-name="Group 3511">
          <path id="Path_1672" data-name="Path 1672" d="M351.4,221.41s-.61-2.02.24-7.34.64-8.41-2.34-7.77c0,0,.85-5.11-4.79-4.79,0,0,2.66.32,2.66,2.34,0,0-1.92-3.19-7.02-.21s-8.09,2.13-8.09,2.13a5.464,5.464,0,0,0,2.34,1.06,9.224,9.224,0,0,1-4.68-.32s2.77,4.26,6.6,4.36a5.667,5.667,0,0,1-3.51-.43,9.072,9.072,0,0,0,6.54,1.52l8.14,6.57Z" fill="#192ead"/>
          <path id="Path_1673" data-name="Path 1673" d="M353.88,223.96c-.78,1.56-2.81,4.39-7.58,5.34l-.47-3.81-.31-2.54a11.766,11.766,0,0,1-.97.69,7,7,0,0,1-3.39,1.23c-1.86,0-3.8-11.21-4.11-13.05-.03-.17-.04-.26-.04-.26,4.1-.37,5.69-1.76,5.69-1.76a7.586,7.586,0,0,0,.53,1.82,8.429,8.429,0,0,0,3.73,3.93c-.64-2.24.74-4.36,1.7-2.87s-.43,3.73-.43,3.73a29.8,29.8,0,0,0,5.11,7.24A5.791,5.791,0,0,1,353.88,223.96Z" fill="url(#linear-gradient-71)"/>
          <path id="Path_1674" data-name="Path 1674" d="M364.73,350.4s-18.7.48-19.58-.32c-1.1-1,11.06-4.68,12.92-5.27a13.746,13.746,0,0,0,5.64-.05C364.95,346.25,364.73,350.4,364.73,350.4Z" fill="#242463"/>
          <path id="Path_1675" data-name="Path 1675" d="M363.67,342.1v.12a17.743,17.743,0,0,1-2.81.17c-1.26-.01-2.35-.11-2.81-.16l-.02-.24s-2.98-28.52-4.15-35.33-1.6-26.08-4.47-36.4l14.44-2.29,6.96-1.1s-3.73,24.25-5.33,34.36S367.93,314.43,363.67,342.1Z" fill="url(#linear-gradient-72)"/>
          <path id="Path_1676" data-name="Path 1676" d="M363.71,344.76a13.382,13.382,0,0,1-5.64.05,1.077,1.077,0,0,1,.17-.05l-.19-2.53a23.864,23.864,0,0,0,5.62-.01v2.43A.823.823,0,0,0,363.71,344.76Z" fill="#566eec"/>
          <path id="Path_1677" data-name="Path 1677" d="M363.67,342.1v.12a17.743,17.743,0,0,1-2.81.17c3.54-8.09,3.09-25.58,1.64-29.67-1.7-4.79-2.66-7.13-.74-15.11s1.38-27.67,1.38-27.67a9.282,9.282,0,0,1,.71-1.97l6.96-1.1s-3.73,24.25-5.33,34.36S367.93,314.43,363.67,342.1Z" fill="url(#linear-gradient-73)"/>
          <rect id="Rectangle_1530" data-name="Rectangle 1530" width="1.22" height="5.09" transform="matrix(0.995, -0.099, 0.099, 0.995, 325.569, 219.443)" fill="#1b4266"/>
          <path id="Path_1678" data-name="Path 1678" d="M326.61,221.05l-.62.06a.72.72,0,0,1-.79-.65l-.91-9.15a.72.72,0,0,1,.65-.79l.62-.06a.72.72,0,0,1,.79.65l.91,9.15A.727.727,0,0,1,326.61,221.05Z" fill="#17177f"/>
          <path id="Path_1679" data-name="Path 1679" d="M343.62,248.01a12.61,12.61,0,0,1-1.24,1.03c-2.16,1.64-6.39,4.4-8.98,5.2a2.34,2.34,0,0,1-1.88.05c-1.93-1.37-3.74-14.25-4.46-20.06,0-.04-.01-.07-.01-.11-.06-.49-.11-.93-.16-1.3v-.02c-.1-.88-.16-1.39-.16-1.39a.031.031,0,0,0-.02.01,2.922,2.922,0,0,1-2.21-.43c-1.17-.74.74-7.02.74-7.02s-1.7,0-1.7-.64,4.79-2.45,5.11-1.49.85,8.94,2.87,13.84c.6,1.45,1.13,2.77,1.58,3.92v.02c0,.01.01.01.01.02,1.07,2.72,1.7,4.45,1.7,4.45a10.253,10.253,0,0,0,1.7-.77,26.892,26.892,0,0,0,6.16-5.32l.54,5.79Z" fill="url(#linear-gradient-74)"/>
          <path id="Path_1680" data-name="Path 1680" d="M336.42,249.08c-1.01-3.04-3.1-8.91-3.3-9.45,1.07,2.72,1.7,4.45,1.7,4.45a10.253,10.253,0,0,0,1.7-.77A39.32,39.32,0,0,1,336.42,249.08Z" fill="#4864d8"/>
          <path id="Path_1681" data-name="Path 1681" d="M333.41,254.24a2.34,2.34,0,0,1-1.88.05c-1.93-1.37-3.74-14.25-4.46-20.06,0-.04-.01-.07-.01-.11-.05-.42-.1-.86-.16-1.3v-.02c-.06-.47-.12-.93-.18-1.39-.25-1.85-.5-3.44-.51-3.52,2.02,4.04,2.23,9.68,3.09,13.09s2.23,3.94,2.77,9.47A6.211,6.211,0,0,0,333.41,254.24Z" fill="#4864d8"/>
          <path id="Path_1682" data-name="Path 1682" d="M343.62,248.01a12.61,12.61,0,0,1-1.24,1.03l-1.49-9.11,2.34,3.86Z" fill="#4864d8"/>
          <path id="Path_1683" data-name="Path 1683" d="M349.41,246.1s-2.45,3.83-4.9,4.9c0,0-1.38-5-3.62-11.07,0,0,5.53-5.32,6.28-10.11Z" fill="url(#linear-gradient-75)"/>
          <path id="Path_1684" data-name="Path 1684" d="M371.65,266c-7.24,8.2-25.97,8.3-25.97,8.3,1.6-5.96,2.98-20.97,1.92-29.69s-1.28-15.11-1.28-15.11l-.02-.2c4.78-.96,6.81-3.79,7.58-5.34,6.74,4.06,10.92,11.14,13.52,18.34a72.069,72.069,0,0,1,3.32,13.41A76.029,76.029,0,0,1,371.65,266Z" fill="url(#linear-gradient-76)"/>
          <path id="Path_1685" data-name="Path 1685" d="M345.83,225.49l-.31-2.54a11.766,11.766,0,0,1-.97.69,9.6,9.6,0,0,0,2.62-3.51A10.231,10.231,0,0,1,345.83,225.49Z" fill="#4864d8"/>
          <path id="Path_1686" data-name="Path 1686" d="M343.23,211.62a20.489,20.489,0,0,1-6.18.2c-.03-.17-.04-.26-.04-.26,4.1-.37,5.69-1.76,5.69-1.76A7.452,7.452,0,0,0,343.23,211.62Z" fill="#4864d8"/>
          <path id="Path_1687" data-name="Path 1687" d="M370.72,255.71l-11.47,9.92-3.19-2.87s5.75-13.84,5.22-15.86-6.01-9.97-6.01-9.97c4.39.1,8.64,2.53,12.13,5.37A72.67,72.67,0,0,1,370.72,255.71Z" fill="url(#linear-gradient-77)"/>
          <path id="Path_1688" data-name="Path 1688" d="M365.48,256.64c-4.68,6.28-6.28,8.94-6.28,8.94a.6.6,0,0,1,.09.09,7.174,7.174,0,0,1,1.04,1.21c.39.59.6,1.23.03,1.58-2.23,1.38-2.45,2.34-4.26,2.13-.96-.11-1.44-.33-1.73-.74h0a4.367,4.367,0,0,1-.5-1.6c-.21-1.06.85-2.45,2.23-5.43s3.94-7.77,5.85-12.77a49.424,49.424,0,0,1,2.28-5.2.123.123,0,0,0,.02-.03c.01-.01.01-.02.02-.04.05-.09.09-.17.13-.25.01-.03.03-.05.04-.08.14-.25.25-.45.34-.61.02-.03.03-.05.05-.08s.02-.03.03-.05.01-.02.02-.04a.01.01,0,0,1,.01-.01.076.076,0,0,0,.02-.04.251.251,0,0,0,.04-.07c.05-.08.08-.12.08-.12l-1.92-1.17h0l1.91-3.32,2.45-4.24s4.52,3.85,5.7,5.78c.06.1.11.2.16.29C374.21,242.59,370.16,250.36,365.48,256.64Z" fill="url(#linear-gradient-78)"/>
          <path id="Path_1689" data-name="Path 1689" d="M367.93,240.67a12.084,12.084,0,0,0-3.65,4.1c.05-.09.09-.17.13-.25.01-.03.03-.05.04-.08.14-.25.25-.45.34-.61.02-.03.03-.05.05-.08s.02-.03.03-.05.01-.02.02-.04a.01.01,0,0,1,.01-.01.076.076,0,0,0,.02-.04.251.251,0,0,0,.04-.07c.05-.08.08-.12.08-.12l-1.92-1.17h0c.03-.1.88-3.37,1.91-3.32a.753.753,0,0,1,.53.34C366.86,240.88,367.93,240.67,367.93,240.67Z" fill="#4864d8"/>
          <path id="Path_1690" data-name="Path 1690" d="M360.37,268.45c-2.23,1.38-2.45,2.34-4.26,2.13-.96-.11-1.44-.33-1.73-.74h0c.72.65,3.22.45,4.28-.96.44-.59,1.05-1.3,1.67-2C360.72,267.46,360.93,268.1,360.37,268.45Z" fill="url(#linear-gradient-79)"/>
          <path id="Path_1691" data-name="Path 1691" d="M365.48,256.64c-4.68,6.28-6.28,8.94-6.28,8.94a.6.6,0,0,1,.09.09,22.107,22.107,0,0,0-1.8,1.51c1.38-2.45,5.43-9.47,6.71-12.24s2.13-4.47,6.07-9.47a17.211,17.211,0,0,0,2.93-4.97c.06.1.11.2.16.29C374.21,242.59,370.16,250.36,365.48,256.64Z" fill="#4864d8"/>
          <path id="Path_1692" data-name="Path 1692" d="M368.25,234.29s-9.69-7.56-13.62-6.17-2.77,6.07,0,8.3a81.69,81.69,0,0,1,8.51,7.66S368.25,238.33,368.25,234.29Z" fill="url(#linear-gradient-80)"/>
        </g>
        <g id="Group_3512" data-name="Group 3512">
          <path id="Path_1693" data-name="Path 1693" d="M259.73,411.44H247.88c-.51,0-.28-3.66.16-6.82,1.52,2.07,2.66,1.55,3.57.49a8.061,8.061,0,0,1,1.93-1.45.34.34,0,0,1,.5.36,5.113,5.113,0,0,0,.16,2.72c.32.65,8.93,2.44,9.74,2.27S266.38,411.44,259.73,411.44Z" fill="#242463"/>
          <path id="Path_1694" data-name="Path 1694" d="M253.7,403.72a5.719,5.719,0,0,0-2.1,1.39c-.91,1.06-2.06,1.91-3.57-.16a25.522,25.522,0,0,1,.16-2.76h5.36C253.56,402.18,253.61,402.87,253.7,403.72Z" fill="url(#linear-gradient-81)"/>
          <path id="Path_1695" data-name="Path 1695" d="M241.55,411.44H229.7c-.51,0-.28-3.66.16-6.82,1.52,2.07,2.66,1.55,3.57.49a8.061,8.061,0,0,1,1.93-1.45.34.34,0,0,1,.5.36,5.113,5.113,0,0,0,.16,2.72c.32.65,8.93,2.44,9.74,2.27S248.21,411.44,241.55,411.44Z" fill="#242463"/>
          <path id="Path_1696" data-name="Path 1696" d="M235.53,403.72a5.719,5.719,0,0,0-2.1,1.39c-.91,1.06-2.06,1.91-3.57-.16.12-.87.2-3,.41-3.7l5.11.94C235.38,402.18,235.44,402.87,235.53,403.72Z" fill="url(#linear-gradient-82)"/>
          <path id="Path_1697" data-name="Path 1697" d="M274.56,237.93l-1.69,17.32-5.03,16.56-.49-4.38-15.1-2.11,3.93-29.07a1.018,1.018,0,0,1,1.1-.88l16.34,1.45A1,1,0,0,1,274.56,237.93Z" fill="#3c59b5"/>
          <path id="Path_1698" data-name="Path 1698" d="M271.58,238.69l-1.14,16.04-3.74,14.54-.36-3.85-11.24-1.85,3-25.86Z" fill="#fff"/>
          <path id="Path_1699" data-name="Path 1699" d="M270.82,235.31l-.1,1-.06.59a.66.66,0,0,1-.72.59l-8.7-.87a.66.66,0,0,1-.59-.72l.05-.49.11-1.11a.66.66,0,0,1,.72-.59l8.7.87A.664.664,0,0,1,270.82,235.31Z" fill="none" stroke="#6081f7" stroke-miterlimit="10" stroke-width="0.377"/>
          <path id="Path_1700" data-name="Path 1700" d="M270.72,236.3l-.06.59a.66.66,0,0,1-.72.59l-8.7-.87a.66.66,0,0,1-.59-.72l.05-.49C260.81,235.35,270.72,236.3,270.72,236.3Z" fill="#6081f7"/>
          <path id="Path_1701" data-name="Path 1701" d="M256.4,253.87s1.46-1.62,1.79-2.11a4.794,4.794,0,0,0,.32-2.6c-.16-.49-1.38,1.79-1.99,2.2a11.236,11.236,0,0,1-2.72.73l1.18-6.93s-1.02.6-1.18,1.25-1.62,3.9-2.11,5.36a7.563,7.563,0,0,0-.16,3.25Z" fill="url(#linear-gradient-83)"/>
          <path id="Path_1702" data-name="Path 1702" d="M251.54,232.41a79.56,79.56,0,0,1-.1,10.82,18.017,18.017,0,0,1-1.08,5.05,1.268,1.268,0,0,1-.87.8,14.8,14.8,0,0,1-2.76,0s-.09.43-.18,1.07c-.18,1.27-.36,3.37.18,4.46.81,1.62-10.07.97-10.07.97s.49-6.49.81-9.74,4.87-15.75,4.87-15.75l5.47-1.25,3.79-.86s1.64,1.26-.07,4.21A1.562,1.562,0,0,1,251.54,232.41Z" fill="url(#linear-gradient-84)"/>
          <path id="Path_1703" data-name="Path 1703" d="M250.36,248.28a1.268,1.268,0,0,1-.87.8,14.8,14.8,0,0,1-2.76,0s-.09.43-.18,1.07c-1.87-1.67-2.09-5.29-2.09-5.29a9.164,9.164,0,0,0,3.25,3.08A3.675,3.675,0,0,0,250.36,248.28Z" fill="#4864d8"/>
          <path id="Path_1704" data-name="Path 1704" d="M246.41,234.47s5.52-.81,6.66-4.06-4.71-2.92-4.71-2.92l-2.6,6.49Z" fill="#4864d8"/>
          <path id="Path_1705" data-name="Path 1705" d="M276.45,249.57c-.16,1.46-2.76,5.52-2.6,8.61s-.83,12.66-.83,12.66l-3.47-2.38-3.06-2.1s2.98-7.69,2.81-9.32-2.21-4.21-2.11-5.2c0-.05.01-.1.01-.15.14-1.57.01-3.12.64-3.91.65-.81.65,2.44,1.79,4.22.7,1.1,2.6,0,3.73-1.62s.65-4.55.65-4.55l.16-2.92C274.18,242.91,276.61,248.1,276.45,249.57Z" fill="url(#linear-gradient-85)"/>
          <path id="Path_1706" data-name="Path 1706" d="M270.28,258.98c-.81,1.95-2.1,7.73-.73,9.47l-3.06-2.1s2.98-7.69,2.81-9.32-2.21-4.21-2.11-5.2c0-.05.01-.1.01-.15a6.813,6.813,0,0,0,1.77,2.58C270.93,256.06,271.09,257.03,270.28,258.98Z" fill="#4864d8"/>
          <path id="Path_1707" data-name="Path 1707" d="M243.85,326.95l-8.48,75.28h-5.3s-5.19-24.49-2.92-36.98a132.187,132.187,0,0,0,1.19-34.2c-.71-7.54-1.9-19.16,3.94-29.21S243.85,326.95,243.85,326.95Z" fill="url(#linear-gradient-86)"/>
          <path id="Path_1708" data-name="Path 1708" d="M259.73,305.09l-6.17,97.09H248.2s-5.68-23.38-4.22-35.07.49-18.51-1.62-32.8-5.03-18.67-3.08-32.47C240.14,295.68,259.73,305.09,259.73,305.09Z" fill="url(#linear-gradient-87)"/>
          <path id="Path_1709" data-name="Path 1709" d="M273.36,268.72c-.68,4.35-2.16,13.26-4.34,16.51a2.62,2.62,0,0,1-1.35,1.18c-2.92.81-6.82-6.66-6.82-6.66.16,10.23-1.14,25-1.14,25a33.077,33.077,0,0,1-7.74,3.13c-11.34,3.06-22.78.61-22.78.61l1.52-13.69v-.04l.26-2.34a3.816,3.816,0,0,1-2.67,1.71,7.365,7.365,0,0,1-2.53.07c-4.06-.49-2.35-29.79-1.7-31.74s3.57-4.71,12.18-7.79,21.73-1.5,23.46-.89c2.14.75,4.18,6.9,5.31,11,.3,1.09.54,2.04.7,2.7v.01c.15.62.23.98.23.98l.01-.05.56-2.3a.5.5,0,0,1,.12.02C271.77,266.81,273.36,268.72,273.36,268.72Z" fill="url(#linear-gradient-88)"/>
          <path id="Path_1710" data-name="Path 1710" d="M265.04,264.79c.3,1.09.54,2.04.7,2.7Z" fill="url(#linear-gradient-89)"/>
          <path id="Path_1711" data-name="Path 1711" d="M267.84,275.54l-1.85-7.11.56-2.3a.5.5,0,0,1,.12.02Z" fill="url(#linear-gradient-90)"/>
          <path id="Path_1712" data-name="Path 1712" d="M269.03,285.24a2.62,2.62,0,0,1-1.35,1.18c-2.92.81-6.82-6.66-6.82-6.66.16,10.23-1.14,25-1.14,25a33.077,33.077,0,0,1-7.74,3.13c-.54-6.85,1.24-17.74,1.9-24.24a38.745,38.745,0,0,0-2.92-18.02c.12.16,3.3,4.57,6.17,6.16,2.92,1.62,3.57,2.44,7.14,9.25C265.93,284.22,267.65,285.15,269.03,285.24Z" fill="url(#linear-gradient-91)"/>
          <path id="Path_1714" data-name="Path 1714" d="M230.73,294.77l.26-2.34a3.816,3.816,0,0,1-2.67,1.71c.68-2.64,1.43-6.32,1.05-8.53a25.274,25.274,0,0,1,0-11.04,20.471,20.471,0,0,0,0-8.44C233.31,274.35,230.86,293.74,230.73,294.77Z" fill="url(#linear-gradient-92)"/>
          <path id="Path_1715" data-name="Path 1715" d="M246.57,233.82s1.46,4.71-.81,8.28c0,0-.16-6.98-2.44-6.33s-1.4,5.32-.49,5.68c.81.32,1.62-.49,1.62-.49s-.32,10.23-6.17,9.9-7.14-12.86-7.3-16.43,2.25-8.22,4.64-6.89c0,0-.58-1.49,1.59-3.84,1.95-2.11,6.65-6.55,13.65-.8,5.96,4.9.73,11.73.73,11.73a18.957,18.957,0,0,0-.49-5.03A9.023,9.023,0,0,1,246.57,233.82Z" fill="#192ead"/>
        </g>
        <g id="Group_3513" data-name="Group 3513">
          <path id="Path_1716" data-name="Path 1716" d="M313.54,404.86s.41-14.35,5.35-15.4,5.65,8.94,0,18.83Z" fill="url(#linear-gradient-93)"/>
          <path id="Path_1717" data-name="Path 1717" d="M319.48,393.23s-1,3.48-3.38,13.28" fill="none" stroke="#f9962b" stroke-linecap="round" stroke-miterlimit="10" stroke-width="0.566"/>
          <path id="Path_1718" data-name="Path 1718" d="M311.83,408.29s-7.53-7.3-4.71-10.83,9.89,2.59,11.77,10.83Z" fill="url(#linear-gradient-94)"/>
          <path id="Path_1719" data-name="Path 1719" d="M309.24,399.46a26.615,26.615,0,0,1,5.53,7.77" fill="none" stroke="#f9962b" stroke-linecap="round" stroke-miterlimit="10" stroke-width="0.566"/>
          <path id="Path_1720" data-name="Path 1720" d="M318.21,408.29s1.92-8.3,5.81-7.59,0,7.53,0,7.53Z" fill="url(#linear-gradient-95)"/>
          <line id="Line_240" data-name="Line 240" x1="1.3" y2="4.82" transform="translate(322.01 402.35)" fill="none" stroke="#f9962b" stroke-linecap="round" stroke-miterlimit="10" stroke-width="0.566"/>
        </g>
        <g id="Group_3514" data-name="Group 3514">
          <path id="Path_1721" data-name="Path 1721" d="M186.38,351.12s.32-11.42,4.26-12.27,4.5,7.12,0,14.99Z" fill="url(#linear-gradient-96)"/>
          <path id="Path_1722" data-name="Path 1722" d="M191.11,341.86s-.79,2.77-2.69,10.57" fill="none" stroke="#f9962b" stroke-linecap="round" stroke-miterlimit="10" stroke-width="0.566"/>
          <path id="Path_1723" data-name="Path 1723" d="M185.02,353.85s-6-5.81-3.75-8.62,7.87,2.06,9.37,8.62Z" fill="url(#linear-gradient-97)"/>
          <path id="Path_1724" data-name="Path 1724" d="M182.96,346.82a21.343,21.343,0,0,1,4.4,6.19" fill="none" stroke="#f9962b" stroke-linecap="round" stroke-miterlimit="10" stroke-width="0.566"/>
          <path id="Path_1725" data-name="Path 1725" d="M190.1,353.85s1.53-6.61,4.62-6.04,0,6,0,6Z" fill="url(#linear-gradient-98)"/>
          <line id="Line_241" data-name="Line 241" x1="1.03" y2="3.84" transform="translate(193.13 349.12)" fill="none" stroke="#f9962b" stroke-linecap="round" stroke-miterlimit="10" stroke-width="0.566"/>
        </g>
        <g id="Group_3515" data-name="Group 3515">
          <path id="Path_1726" data-name="Path 1726" d="M335.17,331.89s-.32-11.37-4.24-12.21-4.48,7.09,0,14.92Z" fill="url(#linear-gradient-99)"/>
          <path id="Path_1727" data-name="Path 1727" d="M330.47,322.67s.79,2.76,2.68,10.52" fill="none" stroke="#f9962b" stroke-linecap="round" stroke-miterlimit="10" stroke-width="0.566"/>
          <path id="Path_1728" data-name="Path 1728" d="M336.53,334.6s5.97-5.78,3.73-8.58-7.83,2.05-9.32,8.58Z" fill="url(#linear-gradient-100)"/>
          <path id="Path_1729" data-name="Path 1729" d="M338.58,327.61a21.1,21.1,0,0,0-4.38,6.15" fill="none" stroke="#f9962b" stroke-linecap="round" stroke-miterlimit="10" stroke-width="0.566"/>
          <path id="Path_1730" data-name="Path 1730" d="M331.48,334.6s-1.52-6.57-4.6-6.01,0,5.97,0,5.97Z" fill="url(#linear-gradient-101)"/>
          <line id="Line_242" data-name="Line 242" x2="1.02" y2="3.82" transform="translate(327.44 329.9)" fill="none" stroke="#f9962b" stroke-linecap="round" stroke-miterlimit="10" stroke-width="0.566"/>
        </g>
        <g id="Group_3517" data-name="Group 3517" transform="matrix(0.891, 0.454, -0.454, 0.891, -190.033, -49.486)">
          <path id="Path_1538" data-name="Path 1538" d="M94.032,120.819l.586,18.162,5.979-3.472,6.9-2.163Z" transform="translate(-93.05 -121.91)" fill="#acacac"/>
          <path id="Path_1732" data-name="Path 1732" d="M6.818,15.72.1.447" transform="translate(0.906 -1.599)" fill="none" stroke="#f9f9f9" stroke-width="1.5"/>
        </g>
        <text id="_Looking_for_something..._Please_search_here" data-name="   Looking for something...Please search here" transform="translate(246 451)" fill="#9898a3" font-size="16" font-family="OpenSans-Regular, Open Sans"><tspan x="-96.547" y="0" xml:space="preserve">   Looking for something...</tspan><tspan x="-70.129" y="22">Please search here</tspan></text>
      </g>
    </g>
  </g>
</svg>
