<svg xmlns="http://www.w3.org/2000/svg" width="21.555" height="21.555" viewBox="0 0 21.555 21.555">
  <g id="test" transform="translate(0)">
    <g id="Group_2240" data-name="Group 2240">
      <g id="Group_2239" data-name="Group 2239">
        <path id="Path_1362" data-name="Path 1362" d="M14.609,2.568H12.672V1.894a.632.632,0,0,0-.631-.631h-2a1.895,1.895,0,0,0-3.573,0H4.42a.632.632,0,0,0-.631.631v.674H1.894A1.9,1.9,0,0,0,0,4.463v15.2a1.9,1.9,0,0,0,1.894,1.894H14.609A1.9,1.9,0,0,0,16.5,19.661V4.463A1.9,1.9,0,0,0,14.609,2.568ZM5.052,2.526H6.989a.632.632,0,0,0,.631-.631.631.631,0,1,1,1.263,0,.632.632,0,0,0,.631.631h1.894V3.2a.632.632,0,0,1-.631.631H5.683A.632.632,0,0,1,5.052,3.2ZM15.24,19.661a.632.632,0,0,1-.631.631H1.894a.632.632,0,0,1-.631-.631V4.463a.632.632,0,0,1,.631-.631h2A1.9,1.9,0,0,0,5.683,5.094h5.094a1.9,1.9,0,0,0,1.786-1.263h2.045a.632.632,0,0,1,.631.631Z" fill="#b0b0b0"/>
      </g>
    </g>
    <g id="Group_2242" data-name="Group 2242" transform="translate(2.526 10.778)">
      <g id="Group_2241" data-name="Group 2241">
        <path id="Path_1363" data-name="Path 1363" d="M64.912,256.189a.631.631,0,0,0-.893-.007L61.9,258.269l-.82-.82a.631.631,0,0,0-.893.893l1.263,1.263a.632.632,0,0,0,.889,0l2.568-2.526A.632.632,0,0,0,64.912,256.189Z" transform="translate(-59.999 -256)" fill="#b0b0b0"/>
      </g>
    </g>
    <g id="Group_2244" data-name="Group 2244" transform="translate(2.526 15.198)">
      <g id="Group_2243" data-name="Group 2243">
        <path id="Path_1364" data-name="Path 1364" d="M64.912,361.189a.631.631,0,0,0-.893-.007L61.9,363.269l-.82-.82a.631.631,0,0,0-.893.893l1.263,1.263a.631.631,0,0,0,.889,0l2.568-2.526A.631.631,0,0,0,64.912,361.189Z" transform="translate(-59.999 -361.001)" fill="#b0b0b0"/>
      </g>
    </g>
    <g id="Group_2246" data-name="Group 2246" transform="translate(2.526 6.357)">
      <g id="Group_2245" data-name="Group 2245">
        <path id="Path_1365" data-name="Path 1365" d="M63.6,153.711l-.816-.816.816-.816a.631.631,0,0,0-.893-.893l-.816.816-.816-.816a.631.631,0,0,0-.893.893l.816.816-.816.816a.632.632,0,0,0,.893.893l.816-.816.816.816a.631.631,0,0,0,.893-.893Z" transform="translate(-60 -151.001)" fill="#b0b0b0"/>
      </g>
    </g>
    <g id="Group_2248" data-name="Group 2248" transform="translate(8.883 7.62)">
      <g id="Group_2247" data-name="Group 2247">
        <path id="Path_1366" data-name="Path 1366" d="M215.463,181h-3.831a.631.631,0,0,0,0,1.263h3.831a.631.631,0,1,0,0-1.263Z" transform="translate(-211 -181)" fill="#b0b0b0"/>
      </g>
    </g>
    <g id="Group_2250" data-name="Group 2250" transform="translate(8.883 12.041)">
      <g id="Group_2249" data-name="Group 2249">
        <path id="Path_1367" data-name="Path 1367" d="M215.463,286h-3.831a.632.632,0,0,0,0,1.263h3.831a.632.632,0,1,0,0-1.263Z" transform="translate(-211 -286)" fill="#b0b0b0"/>
      </g>
    </g>
    <g id="Group_2252" data-name="Group 2252" transform="translate(8.883 16.461)">
      <g id="Group_2251" data-name="Group 2251">
        <path id="Path_1368" data-name="Path 1368" d="M215.463,391h-3.831a.632.632,0,0,0,0,1.263h3.831a.632.632,0,1,0,0-1.263Z" transform="translate(-211 -391)" fill="#b0b0b0"/>
      </g>
    </g>
    <g id="Group_2254" data-name="Group 2254" transform="translate(17.766 3.831)">
      <g id="Group_2253" data-name="Group 2253">
        <path id="Path_1369" data-name="Path 1369" d="M423.894,91A1.9,1.9,0,0,0,422,92.894V103a.65.65,0,0,0,.032.2l1.263,3.831a.632.632,0,0,0,1.2,0l1.263-3.831a.656.656,0,0,0,.032-.2v-10.1A1.9,1.9,0,0,0,423.894,91Zm0,13.813-.522-1.582a1.16,1.16,0,0,1,1.043,0Zm.632-2.885a2.428,2.428,0,0,0-1.263,0V96.052h1.263Zm0-7.138h-1.263V92.894a.632.632,0,1,1,1.263,0Z" transform="translate(-422 -91)" fill="#b0b0b0"/>
      </g>
    </g>
  </g>
</svg>
