<svg xmlns="http://www.w3.org/2000/svg" width="14.622" height="14.456" viewBox="0 0 14.622 14.456">
  <path id="filter" d="M14.579,9.956a.442.442,0,0,0-.4-.273H.443a.442.442,0,0,0-.4.273.5.5,0,0,0,.059.505l5.28,6.869v6.334a.484.484,0,0,0,.209.4.417.417,0,0,0,.43.022l2.967-1.577a.48.48,0,0,0,.246-.425l.006-4.757,5.28-6.869A.5.5,0,0,0,14.579,9.956Zm-6.124,6.9a.5.5,0,0,0-.1.3l-.006,4.633L6.267,22.9V17.159a.5.5,0,0,0-.1-.3L1.382,10.634H13.238Z" transform="translate(0 -9.683)" fill="#9898a3"/>
</svg>
