<svg xmlns="http://www.w3.org/2000/svg" xmlns:xlink="http://www.w3.org/1999/xlink" width="15.692" height="14.279" viewBox="0 0 15.692 14.279">
  <defs>
    <clipPath id="clip-path">
      <rect width="15.692" height="14.28" fill="none"/>
    </clipPath>
  </defs>
  <g id="checking-attendance" transform="translate(0 0)" clip-path="url(#clip-path)">
    <g id="Group_2492" data-name="Group 2492" transform="translate(0 0)">
      <path id="Path_1455" data-name="Path 1455" d="M3,5.11a.832.832,0,0,0,.208.453c.2,1.346,1.327,2.595,2.356,2.595,1.2,0,2.291-1.352,2.5-2.592a.822.822,0,0,0,.212-.456c.068-.252.156-.69,0-.9a.374.374,0,0,0-.025-.029,2.617,2.617,0,0,0-.327-2.368,2.421,2.421,0,0,0-1.211-.745L6.337.943A5.994,5.994,0,0,0,5.314.707.263.263,0,0,0,5.23.714a.422.422,0,0,1-.152.018A1.04,1.04,0,0,0,4.669.8,2.935,2.935,0,0,0,3.058,2.417a3.622,3.622,0,0,0,.014,1.726A.333.333,0,0,0,3,4.216C2.839,4.42,2.927,4.858,3,5.11Z" transform="translate(0 -0.706)" fill="#1283f4"/>
      <path id="Path_1456" data-name="Path 1456" d="M7.784,13.594c-.221-.124-.461-.243-.717-.356-.124-.055-.25-.107-.375-.156-.1-.037-.214-.085-.3-.106l-1.186-.32L7.43,8.138l.951.6c.2.126.349.233.511.352l.034.025q.241.179.474.367a11.8,11.8,0,0,1,.912.813l.062.061c.093-.1.184-.195.275-.294a3.9,3.9,0,0,0-.429-.92A1.9,1.9,0,0,0,9.4,8.587l-.124-.04a9.316,9.316,0,0,0-1-.4c-.105-.038-.2-.075-.28-.111-.35-.173-.641-.368-.7-.552,0,0,.2,1.955-1.507,2l-.238-.011C3.994,9.34,3.891,7.484,3.891,7.484c-.162.509-2.11,1.1-2.11,1.1a1.906,1.906,0,0,0-.824.556C.1,10.411,0,13.237,0,13.237c.011.646.29.713.29.713a17.357,17.357,0,0,0,5.058,1.034c.167,0,.322-.005.477-.014l0,.016a21.483,21.483,0,0,0,3.089-.423l-.193-.253A3.3,3.3,0,0,0,7.784,13.594Z" transform="translate(0 -0.706)" fill="#1283f4"/>
      <path id="Path_1457" data-name="Path 1457" d="M7.222,7.571c.021-.027.044-.054.066-.084a.2.2,0,0,1-.006-.027C7.263,7.5,7.241,7.532,7.222,7.571Z" transform="translate(0 -0.706)" fill="#1283f4"/>
      <path id="Path_1458" data-name="Path 1458" d="M3.9,7.481,3.895,7.46l0,.022s0-.008.006-.012A.03.03,0,0,1,3.9,7.481Z" transform="translate(0 -0.706)" fill="#1283f4"/>
      <path id="Path_1459" data-name="Path 1459" d="M13.882,8.388A14.42,14.42,0,0,0,12.3,9.7c-.5.474-.972.973-1.427,1.488-.169.192-.333.386-.5.581a.041.041,0,0,1-.005-.009,7.845,7.845,0,0,0-.77-.872c-.27-.266-.55-.512-.838-.746-.145-.116-.291-.23-.44-.342s-.291-.213-.481-.333l-1.182,2.4c.108.029.265.09.4.142s.279.112.417.173c.276.122.545.255.8.4a4.21,4.21,0,0,1,1.251.983l.909,1.192.523-1.134c.263-.568.578-1.162.9-1.728s.674-1.129,1.051-1.668a13.613,13.613,0,0,1,1.233-1.54,6.091,6.091,0,0,1,1.546-1.236A6.4,6.4,0,0,0,13.882,8.388Z" transform="translate(0 -0.706)" fill="#1283f4"/>
    </g>
  </g>
</svg>
