<svg xmlns="http://www.w3.org/2000/svg" xmlns:xlink="http://www.w3.org/1999/xlink" width="20" height="20" viewBox="0 0 20 20">
  <defs>
    <clipPath id="clip-path">
      <rect width="20" height="20" fill="none"/>
    </clipPath>
  </defs>
  <g id="Symbol_71_292" data-name="Symbol 71 – 292" clip-path="url(#clip-path)">
    <rect id="Rectangle_1171" data-name="Rectangle 1171" width="20" height="20" fill="none"/>
    <g id="noun_schedule_694983" transform="translate(2.5 1.667)">
      <path id="Path_1440" data-name="Path 1440" d="M9.034,2.566l2.077-1.483A.5.5,0,0,1,11.375,1a.443.443,0,0,1,.445.445v.676A.7.7,0,0,1,12,2.088a7.535,7.535,0,1,1-7.384,9.048.28.28,0,0,1-.016-.115.723.723,0,1,1,1.434-.181,6.078,6.078,0,1,0,5.95-7.3.7.7,0,0,1-.181-.033V4.4a.5.5,0,0,1-.082.264.449.449,0,0,1-.626.1L9.018,3.274a.438.438,0,0,1-.181-.363A.5.5,0,0,1,9.034,2.566Zm-3.049,6.1h0a.731.731,0,0,0-.61-.841.725.725,0,0,0-.214,1.434c.033,0,.082.016.115,0a.7.7,0,0,0,.709-.593ZM8.111,4.939A.726.726,0,1,0,7.65,5.1.788.788,0,0,0,8.111,4.939Zm-2.654.939h0a.725.725,0,0,0,.264.989A.727.727,0,0,0,6.43,5.6.73.73,0,0,0,5.458,5.879Z" transform="translate(-4.542 -1)" fill="#1283f4"/>
      <path id="Path_1441" data-name="Path 1441" d="M34.7,33.84A3.848,3.848,0,1,1,30.84,30,3.834,3.834,0,0,1,34.7,33.84Zm-2.324.857-1.055-1.055V32.01a.461.461,0,0,0-.461-.461.472.472,0,0,0-.461.461v2.027l1.335,1.335a.468.468,0,1,0,.725-.593.194.194,0,0,1-.082-.082Z" transform="translate(-23.298 -25.22)" fill="#1283f4"/>
    </g>
  </g>
</svg>
