<svg xmlns="http://www.w3.org/2000/svg" width="15.499" height="15.499" viewBox="0 0 15.499 15.499">
  <g id="settings-work-tool" transform="translate(-0.003)">
    <g id="Group_3060" data-name="Group 3060" transform="translate(0.003 0)">
      <path id="Path_1491" data-name="Path 1491" d="M15.453,6.889a.5.5,0,0,0-.5-.382,1.711,1.711,0,0,1-1.171-2.978.43.43,0,0,0,.047-.584A7.669,7.669,0,0,0,12.6,1.705a.431.431,0,0,0-.589.048,1.786,1.786,0,0,1-1.933.434A1.721,1.721,0,0,1,9.035.5a.43.43,0,0,0-.38-.453,7.737,7.737,0,0,0-1.743,0,.431.431,0,0,0-.384.443A1.724,1.724,0,0,1,5.466,2.144a1.791,1.791,0,0,1-1.918-.437.432.432,0,0,0-.585-.049A7.7,7.7,0,0,0,1.709,2.9a.431.431,0,0,0,.046.589A1.717,1.717,0,0,1,2.189,5.42,1.792,1.792,0,0,1,.5,6.468a.421.421,0,0,0-.448.38,7.763,7.763,0,0,0,0,1.762.513.513,0,0,0,.508.381,1.7,1.7,0,0,1,1.595,1.062,1.723,1.723,0,0,1-.433,1.916.431.431,0,0,0-.047.584A7.7,7.7,0,0,0,2.9,13.794a.431.431,0,0,0,.59-.047,1.783,1.783,0,0,1,1.932-.435A1.719,1.719,0,0,1,6.47,15a.43.43,0,0,0,.38.453,7.713,7.713,0,0,0,1.743,0,.431.431,0,0,0,.384-.444,1.722,1.722,0,0,1,1.06-1.653,1.788,1.788,0,0,1,1.919.437.433.433,0,0,0,.585.049A7.715,7.715,0,0,0,13.8,12.6a.43.43,0,0,0-.046-.589,1.717,1.717,0,0,1-.434-1.933A1.735,1.735,0,0,1,14.9,9.029l.1,0a.431.431,0,0,0,.454-.38A7.757,7.757,0,0,0,15.453,6.889ZM7.765,10.351a2.585,2.585,0,1,1,2.585-2.585A2.588,2.588,0,0,1,7.765,10.351Z" transform="translate(-0.003 0)" fill="#9898a3" fill-rule="evenodd"/>
    </g>
  </g>
</svg>
