<svg width="24" height="24" viewBox="0 0 24 24" fill="none" xmlns="http://www.w3.org/2000/svg">
<path d="M13.2892 13.7976H13.2893C15.0024 13.7962 16.6449 13.115 17.8563 11.9037C19.0676 10.6923 19.7488 9.04979 19.7503 7.33669V7.3366C19.7503 6.05874 19.3713 4.80956 18.6614 3.74706C17.9514 2.68455 16.9424 1.85642 15.7618 1.3674C14.5812 0.878385 13.2821 0.750436 12.0288 0.999735C10.7754 1.24904 9.6242 1.86439 8.72061 2.76798C7.81702 3.67157 7.20167 4.82281 6.95237 6.07612C6.70307 7.32944 6.83102 8.62853 7.32004 9.80913C7.80906 10.9897 8.63718 11.9988 9.69969 12.7087C10.7622 13.4187 12.0114 13.7976 13.2892 13.7976ZM10.3203 2.89659C11.1991 2.30934 12.2322 1.99589 13.2891 1.99587C14.7054 1.99727 16.0634 2.56034 17.0651 3.56157C18.0668 4.56277 18.6305 5.92039 18.6327 7.33665C18.6332 8.3936 18.3203 9.42696 17.7334 10.306C17.1466 11.1851 16.3123 11.8704 15.3359 12.2752C14.3596 12.6801 13.2851 12.7863 12.2484 12.5804C11.2117 12.3745 10.2594 11.8658 9.5118 11.1186C8.76424 10.3714 8.25507 9.41933 8.04868 8.38273C7.84228 7.34613 7.94795 6.27161 8.3523 5.29507C8.75665 4.31853 9.44153 3.48385 10.3203 2.89659Z" fill="#7E8A90" stroke="#7E8A90" stroke-width="0.2"/>
<path d="M20.7196 14.2779L20.7208 14.2792L20.7208 14.2792L21.1715 14.8269C21.5298 14.6529 21.9355 14.5989 22.3281 14.6743C22.7479 14.7549 23.1268 14.9785 23.4003 15.307M20.7196 14.2779L23.0465 18.0138C23.256 17.8658 23.4325 17.676 23.565 17.4564L23.4793 17.4048L23.565 17.4564C23.6975 17.2368 23.783 16.9921 23.8162 16.7378C23.8495 16.4835 23.8297 16.2251 23.758 15.9788C23.6864 15.7326 23.5646 15.5038 23.4003 15.307M20.7196 14.2779C20.4842 14.0019 20.1568 13.8206 19.7979 13.7675C19.4391 13.7143 19.0732 13.7929 18.7679 13.9887L18.7679 13.9887L18.7667 13.9895L18.3472 14.2668L18.1077 13.9816L18.1072 13.981C17.8723 13.7053 17.5453 13.5241 17.1869 13.4709C16.8286 13.4177 16.4631 13.4962 16.1581 13.6919L16.1576 13.6922L12.8497 15.8469L9.17402 14.334L9.17373 14.3338C8.58058 14.0918 7.9337 14.0121 7.29954 14.1029C6.66539 14.1936 6.06682 14.4515 5.56532 14.8501L5.5653 14.8501L0.817622 18.6267C0.756367 18.6704 0.704546 18.7259 0.665274 18.7901C0.62547 18.8551 0.599399 18.9276 0.588667 19.0031C0.577935 19.0786 0.582769 19.1555 0.602871 19.2291C0.622973 19.3026 0.657918 19.3713 0.705554 19.4309C0.75319 19.4904 0.812509 19.5396 0.879862 19.5753C0.947214 19.6111 1.02117 19.6327 1.09718 19.6388C1.17319 19.6449 1.24965 19.6354 1.32184 19.6108C1.39298 19.5866 1.45849 19.5483 1.51447 19.4982L6.26194 15.7218L6.26202 15.7218C6.60936 15.4449 7.02443 15.2659 7.46422 15.2034C7.904 15.1409 8.3525 15.1972 8.76323 15.3663L8.76339 15.3664L15.3468 18.0645C15.5229 18.1441 15.6616 18.2885 15.7338 18.4678C15.8063 18.6475 15.8063 18.8484 15.734 19.0282C15.6616 19.208 15.5225 19.3528 15.3457 19.4323C15.1694 19.5116 14.9692 19.5197 14.7871 19.455L10.3354 17.7185C10.267 17.6876 10.1932 17.6708 10.1182 17.669C10.0422 17.6672 9.96659 17.681 9.89607 17.7094C9.82555 17.7378 9.76157 17.7804 9.70805 17.8344C9.65454 17.8884 9.61261 17.9528 9.58484 18.0235C9.55706 18.0943 9.54402 18.17 9.54652 18.246C9.54902 18.322 9.567 18.3967 9.59937 18.4655C9.63173 18.5343 9.6778 18.5958 9.73475 18.6462C9.79093 18.6959 9.85655 18.7338 9.92767 18.7576M20.7196 14.2779L9.92767 18.7576M23.4003 15.307C23.4002 15.307 23.4002 15.3069 23.4002 15.3069L23.3234 15.371L23.4003 15.307C23.4003 15.307 23.4003 15.307 23.4003 15.307ZM9.92767 18.7576L14.3673 20.5081L14.3678 20.5083C14.585 20.5924 14.8158 20.6359 15.0487 20.6365L15.0492 20.6365C15.5298 20.6356 15.9917 20.4503 16.3397 20.1188C16.6738 19.8005 16.8783 19.3707 16.9155 18.9122L16.9172 18.9112L16.9174 18.9116L16.9253 18.9065L21.5653 15.8769C21.5656 15.8768 21.566 15.8766 21.5663 15.8764C21.7289 15.7756 21.9241 15.7416 22.1112 15.7813C22.2987 15.8212 22.4635 15.932 22.5711 16.0906C22.6787 16.2493 22.7207 16.4434 22.6884 16.6323C22.6561 16.8209 22.5523 16.9898 22.3984 17.1036C22.3982 17.1038 22.398 17.104 22.3977 17.1041L16.1111 21.5614L16.111 21.5615C15.7243 21.8368 15.2806 22.0215 14.8127 22.1016C14.3449 22.1818 13.865 22.1554 13.4087 22.0245L13.4082 22.0244L8.09978 20.5293C8.09977 20.5293 8.09976 20.5293 8.09975 20.5293L9.92767 18.7576ZM16.7453 22.4719L23.0465 18.0138L3.68271 22.6169C3.65838 22.7074 3.66236 22.8032 3.69411 22.8914C3.72585 22.9796 3.78384 23.0559 3.86027 23.1102C3.93671 23.1644 4.02792 23.1939 4.12163 23.1948L4.12063 23.2948C4.12066 23.2948 4.12069 23.2948 4.12073 23.2948C4.24943 23.296 4.37442 23.2517 4.4736 23.1697C4.47381 23.1695 4.47403 23.1694 4.47425 23.1692L5.9169 22.0097L5.91764 22.0091C6.17765 21.7959 6.48532 21.6488 6.81445 21.5802C7.14358 21.5116 7.48442 21.5235 7.80793 21.615L7.80802 21.6151L13.103 23.1075C13.7189 23.2813 14.366 23.3144 14.9965 23.2044C15.6269 23.0944 16.2245 22.8441 16.7451 22.472C16.7451 22.472 16.7452 22.4719 16.7453 22.4719ZM16.7461 14.6269C16.7463 14.6268 16.7465 14.6267 16.7467 14.6265C16.8241 14.5777 16.9164 14.5583 17.0069 14.572C17.0976 14.5857 17.1802 14.6317 17.2396 14.7015C17.2397 14.7016 17.2397 14.7016 17.2398 14.7017L17.3938 14.8851L14.7494 16.6267L14.1019 16.3601L16.7461 14.6269ZM20.215 15.4315L16.6226 17.7674C16.4609 17.5128 16.2397 17.3018 15.9787 17.1522L19.3665 14.9238C19.3667 14.9237 19.367 14.9236 19.3672 14.9234C19.4445 14.8747 19.5368 14.8552 19.6272 14.8685C19.7174 14.8818 19.8 14.9269 19.86 14.9955L20.215 15.4315Z" fill="#7E8A90" stroke="#7E8A90" stroke-width="0.2"/>
<path d="M14.9405 4.57354L14.9405 4.57352L14.9388 4.57309C14.5989 4.4862 14.2534 4.42274 13.9048 4.38315V3.84955C13.9048 3.70135 13.846 3.55921 13.7412 3.45442C13.6364 3.34963 13.4943 3.29075 13.3461 3.29075C13.1978 3.29075 13.0557 3.34963 12.9509 3.45442C12.8461 3.55922 12.7873 3.70135 12.7873 3.84955V4.39238C12.2008 4.49059 11.8533 4.74464 11.6537 5.03581C11.4471 5.33733 11.4082 5.66561 11.4082 5.86823C11.4082 6.38508 11.6768 6.74869 12.0113 7.01002C12.3298 7.25882 12.7168 7.42188 13.0052 7.54335C13.0169 7.54832 13.0286 7.55321 13.04 7.55804L13.04 7.55805L13.0414 7.5586L13.1546 7.60443L13.1547 7.60448L13.3273 7.6746L13.3273 7.67461L13.3282 7.67495C13.6275 7.79333 13.8246 7.88371 13.9487 7.99067C14.0634 8.08944 14.1178 8.20429 14.1178 8.39159C14.1178 8.57979 14.0562 8.70632 13.9441 8.79225C13.8266 8.88221 13.6403 8.93812 13.3708 8.95009H13.3461H13.2805C12.766 8.90234 12.2611 8.78041 11.7815 8.58808C11.7128 8.55829 11.6387 8.54263 11.5638 8.54204C11.4883 8.54144 11.4135 8.55613 11.3439 8.58523C11.2743 8.61433 11.2113 8.65723 11.1587 8.71135C11.1061 8.76547 11.065 8.82968 11.0379 8.90011C11.0108 8.97054 10.9982 9.04573 11.001 9.12114C11.0037 9.19656 11.0217 9.27064 11.0539 9.33891C11.086 9.40718 11.1317 9.46824 11.1881 9.51838C11.2439 9.56806 11.3092 9.60601 11.3799 9.63001C11.8356 9.80348 12.3069 9.93229 12.7873 10.0147V10.5479C12.7873 10.6961 12.8461 10.8382 12.9509 10.943C13.0557 11.0478 13.1978 11.1067 13.3461 11.1067C13.4943 11.1067 13.6364 11.0478 13.7412 10.943C13.846 10.8382 13.9048 10.6961 13.9048 10.5479V9.98934C14.3022 9.89817 14.6277 9.71669 14.858 9.45404C15.1043 9.17318 15.2353 8.80679 15.2353 8.37809C15.2353 7.80557 14.9957 7.42011 14.6858 7.15301C14.383 6.89197 14.0134 6.74454 13.7486 6.63886L13.7429 6.63659L13.4738 6.52359L13.4738 6.52359L13.4731 6.52328C13.2606 6.43613 13.0187 6.3367 12.8295 6.21887C12.7351 6.16009 12.6591 6.09984 12.6076 6.03865C12.5566 5.97807 12.5339 5.92199 12.5339 5.86823H12.534L12.5337 5.86324C12.5299 5.78639 12.531 5.70262 12.6096 5.63C12.695 5.55123 12.8922 5.46646 13.3444 5.46626C13.7836 5.4808 14.2199 5.54303 14.6456 5.65185C14.7883 5.69076 14.9406 5.67151 15.0692 5.59832C15.198 5.52496 15.2924 5.40344 15.3316 5.26048C15.3709 5.11752 15.3517 4.96483 15.2783 4.836C15.205 4.70718 15.0835 4.61277 14.9405 4.57354Z" fill="#7E8A90" stroke="#7E8A90" stroke-width="0.2"/>
</svg>
