<svg width="19" height="26" viewBox="0 0 19 26" fill="none" xmlns="http://www.w3.org/2000/svg">
<path d="M9.73204 12.6572C10.1751 12.6572 10.6082 12.5258 10.9767 12.2796C11.3451 12.0335 11.6322 11.6836 11.8018 11.2743C11.9713 10.8649 12.0157 10.4145 11.9292 9.9799C11.8428 9.54533 11.6294 9.14616 11.3161 8.83286C11.0028 8.51955 10.6037 8.30619 10.1691 8.21975C9.73453 8.13331 9.28409 8.17767 8.87474 8.34723C8.46539 8.51679 8.11551 8.80393 7.86935 9.17234C7.62318 9.54074 7.4918 9.97387 7.4918 10.4169C7.4918 11.0111 7.72782 11.5809 8.14795 12.001C8.56808 12.4212 9.13789 12.6572 9.73204 12.6572ZM9.73204 9.2328C9.96624 9.2328 10.1952 9.30225 10.3899 9.43237C10.5846 9.56248 10.7364 9.74742 10.826 9.96379C10.9157 10.1802 10.9391 10.4183 10.8934 10.648C10.8477 10.8777 10.735 11.0887 10.5694 11.2543C10.4038 11.4199 10.1928 11.5327 9.96306 11.5783C9.73335 11.624 9.49526 11.6006 9.27889 11.511C9.06251 11.4213 8.87757 11.2696 8.74746 11.0748C8.61734 10.8801 8.54789 10.6511 8.54789 10.4169C8.54789 10.1029 8.67265 9.8017 8.89472 9.57963C9.11679 9.35756 9.41799 9.2328 9.73204 9.2328Z" fill="#7E8A90" stroke="#7E8A90" stroke-width="0.2"/>
<path d="M7.1634 16.9379H12.3C12.44 16.9379 12.5743 16.8823 12.6734 16.7833C12.7724 16.6842 12.828 16.5499 12.828 16.4099V15.1257C12.828 14.5316 12.592 13.9618 12.1719 13.5416C11.7518 13.1215 11.1819 12.8855 10.5878 12.8855H8.8756C8.28145 12.8855 7.71163 13.1215 7.2915 13.5416C6.87138 13.9618 6.63535 14.5316 6.63535 15.1257V16.4099C6.63535 16.5499 6.69098 16.6842 6.79001 16.7833C6.88904 16.8823 7.02335 16.9379 7.1634 16.9379ZM7.69145 15.1257C7.69145 14.8117 7.81621 14.5105 8.03828 14.2884C8.26035 14.0663 8.56154 13.9416 8.8756 13.9416H10.5878C10.9018 13.9416 11.203 14.0663 11.4251 14.2884C11.6472 14.5105 11.7719 14.8117 11.7719 15.1257V15.8818H7.69145V15.1257Z" fill="#7E8A90" stroke="#7E8A90" stroke-width="0.2"/>
<path d="M12.7282 3.04024H11.5135C11.5338 2.93217 11.5441 2.82235 11.5441 2.71219C11.5441 2.23157 11.3531 1.77063 11.0133 1.43078C10.6734 1.09093 10.2125 0.9 9.73187 0.9C9.25125 0.9 8.79031 1.09093 8.45046 1.43078C8.11061 1.77063 7.91968 2.23157 7.91968 2.7122C7.91967 2.82235 7.92993 2.93217 7.95027 3.04024L6.73553 3.04024L6.73521 3.04024C6.33446 3.04155 5.94545 3.17565 5.62903 3.42157C5.33315 3.65153 5.11635 3.96713 5.00753 4.32439H3.31114C2.71699 4.32439 2.14718 4.56042 1.72705 4.98054C1.30692 5.40067 1.0709 5.97048 1.0709 6.56463V22.8305C1.0709 23.4246 1.30692 23.9945 1.72705 24.4146C2.14718 24.8347 2.71699 25.0707 3.31114 25.0707H16.1526C16.7468 25.0707 17.3166 24.8347 17.7367 24.4146C18.1568 23.9945 18.3929 23.4246 18.3929 22.8305V6.56463C18.3929 5.97048 18.1568 5.40067 17.7367 4.98054C17.3166 4.56042 16.7468 4.32439 16.1526 4.32439H14.4562C14.3474 3.96713 14.1306 3.65153 13.8347 3.42157C13.5183 3.17565 13.1293 3.04155 12.7285 3.04024H12.7282ZM8.78161 4.09634L8.78184 4.09634C8.88387 4.0961 8.98365 4.06631 9.0691 4.01056C9.15456 3.95481 9.22204 3.8755 9.26337 3.78222C9.30471 3.68893 9.31813 3.58567 9.30202 3.48492L9.20328 3.50071L9.30202 3.48492C9.28591 3.38417 9.24096 3.29024 9.1726 3.2145L9.17236 3.21424C9.04727 3.07663 8.97729 2.89775 8.97578 2.71181C8.97588 2.51142 9.05553 2.31926 9.19723 2.17755C9.33903 2.03576 9.53134 1.9561 9.73187 1.9561C9.9324 1.9561 10.1247 2.03576 10.2665 2.17755C10.4082 2.31926 10.4879 2.51142 10.488 2.71181C10.4865 2.89776 10.4165 3.07663 10.2914 3.21424L10.2912 3.2145C10.2228 3.29024 10.1778 3.38417 10.1617 3.48492C10.1456 3.58567 10.159 3.68894 10.2004 3.78222C10.2417 3.8755 10.3092 3.95481 10.3946 4.01056L10.4493 3.9268L10.3946 4.01056C10.4801 4.06631 10.5799 4.0961 10.6819 4.09634H10.6821H12.7282C12.9287 4.09634 13.1211 4.176 13.2629 4.3178C13.4047 4.45959 13.4843 4.65191 13.4843 4.85244C13.4843 5.05297 13.4047 5.24529 13.2629 5.38708C13.1211 5.52888 12.9287 5.60854 12.7282 5.60854H6.73553C6.535 5.60854 6.34269 5.52888 6.20089 5.38708C6.0591 5.24529 5.97943 5.05297 5.97943 4.85244C5.97943 4.65191 6.0591 4.45959 6.20089 4.3178C6.34269 4.176 6.535 4.09634 6.73553 4.09634L8.78161 4.09634ZM6.73521 6.66463H6.73553L12.7282 6.66464L12.7285 6.66463C13.1293 6.66333 13.5183 6.52923 13.8347 6.28331C14.1306 6.05335 14.3474 5.73775 14.4562 5.38049H16.1526C16.4667 5.38049 16.7679 5.50525 16.9899 5.72732C17.212 5.94939 17.3368 6.25058 17.3368 6.56463V22.8305C17.3368 23.1445 17.212 23.4457 16.9899 23.6678C16.7679 23.8899 16.4667 24.0146 16.1526 24.0146H3.31114C2.99709 24.0146 2.69589 23.8899 2.47382 23.6678C2.25175 23.4457 2.127 23.1445 2.127 22.8305V6.56463C2.127 6.25058 2.25175 5.94939 2.47382 5.72732C2.69589 5.50525 2.99709 5.38049 3.31114 5.38049H5.00753C5.11635 5.73775 5.33315 6.05335 5.62903 6.28331C5.94545 6.52923 6.33446 6.66333 6.73521 6.66463Z" fill="#7E8A90" stroke="#7E8A90" stroke-width="0.2"/>
<path d="M5.45149 19.934H14.4405C14.5806 19.934 14.7149 19.8784 14.8139 19.7794C14.9129 19.6803 14.9686 19.546 14.9686 19.406C14.9686 19.2659 14.9129 19.1316 14.8139 19.0326C14.7149 18.9336 14.5806 18.8779 14.4405 18.8779H5.45149C5.31144 18.8779 5.17713 18.9336 5.0781 19.0326C4.97907 19.1316 4.92344 19.2659 4.92344 19.406C4.92344 19.546 4.97907 19.6803 5.0781 19.7794C5.17713 19.8784 5.31144 19.934 5.45149 19.934Z" fill="#7E8A90" stroke="#7E8A90" stroke-width="0.2"/>
<path d="M5.45149 22.0743H14.4405C14.5806 22.0743 14.7149 22.0186 14.8139 21.9196C14.9129 21.8206 14.9686 21.6863 14.9686 21.5462C14.9686 21.4062 14.9129 21.2719 14.8139 21.1728C14.7149 21.0738 14.5806 21.0182 14.4405 21.0182H5.45149C5.31144 21.0182 5.17713 21.0738 5.0781 21.1728C4.97907 21.2719 4.92344 21.4062 4.92344 21.5462C4.92344 21.6863 4.97907 21.8206 5.0781 21.9196C5.17713 22.0186 5.31144 22.0743 5.45149 22.0743Z" fill="#7E8A90" stroke="#7E8A90" stroke-width="0.2"/>
</svg>
