<svg width="18" height="23" viewBox="0 0 18 23" fill="none" xmlns="http://www.w3.org/2000/svg">
<path d="M17.364 5.94522L17.364 5.94527C17.4599 6.04333 17.5135 6.17506 17.5134 6.3122M17.364 5.94522L11.8895 0.434734C11.8453 0.389645 11.7925 0.353837 11.7343 0.329409C11.6761 0.304982 11.6136 0.292427 11.5504 0.29248V0.242481L11.5504 0.242481L3.37088 0.242481C2.72883 0.242481 2.11306 0.497537 1.65906 0.951541C1.20506 1.40554 0.95 2.02131 0.95 2.66336V19.5512C0.95 20.1932 1.20506 20.809 1.65906 21.263C2.11306 21.717 2.72883 21.972 3.37088 21.972H15.0925C15.7346 21.972 16.3504 21.717 16.8044 21.263C17.2584 20.809 17.5134 20.1932 17.5134 19.5512V6.3122M17.364 5.94522L11.9252 0.399734M17.364 5.94522L11.9252 0.399734M17.5134 6.3122L17.4634 6.31215H17.5134V6.3122ZM11.9252 0.399734L11.9252 0.399723L11.8895 0.434727L11.9252 0.399734ZM12.0367 2.00579L15.9669 6.01558H12.6979C12.5226 6.01558 12.3544 5.94591 12.2304 5.8219C12.1063 5.69789 12.0367 5.52969 12.0367 5.35432V2.00579ZM15.0925 20.9237H3.37088C3.00687 20.9237 2.65776 20.7791 2.40036 20.5217C2.14296 20.2643 1.99835 19.9152 1.99835 19.5512V2.65625C1.99835 2.29223 2.14296 1.94313 2.40036 1.68573C2.65776 1.42833 3.00687 1.28372 3.37088 1.28372H10.9883V5.35432C10.9883 5.80774 11.1684 6.24258 11.4891 6.5632C11.8097 6.88381 12.2445 7.06393 12.6979 7.06393H16.4651V19.5512C16.4651 19.9152 16.3205 20.2643 16.0631 20.5217C15.8057 20.7791 15.4565 20.9237 15.0925 20.9237Z" fill="#7E8A90" stroke="#7E8A90" stroke-width="0.1"/>
<path d="M13.8549 10.6411H7.46539C7.32637 10.6411 7.19304 10.6963 7.09474 10.7946C6.99644 10.8929 6.94121 11.0263 6.94121 11.1653C6.94121 11.3043 6.99644 11.4376 7.09474 11.5359C7.19304 11.6342 7.32637 11.6895 7.46539 11.6895H13.8549C13.9939 11.6895 14.1273 11.6342 14.2256 11.5359C14.3239 11.4376 14.3791 11.3043 14.3791 11.1653C14.3791 11.0263 14.3239 10.8929 14.2256 10.7946C14.1273 10.6963 13.9939 10.6411 13.8549 10.6411Z" fill="#7E8A90" stroke="#7E8A90" stroke-width="0.1"/>
<path d="M4.60782 10.4042C4.70871 10.4026 4.80892 10.4211 4.90263 10.4585C4.99646 10.496 5.08188 10.5518 5.15392 10.6227C5.22596 10.6935 5.28317 10.778 5.32222 10.8712C5.36127 10.9644 5.38137 11.0645 5.38136 11.1655L4.60782 10.4042ZM4.60782 10.4042C4.40607 10.4043 4.21261 10.4845 4.06994 10.6272C3.92718 10.77 3.84697 10.9636 3.84697 11.1655C3.84697 11.3674 3.92718 11.561 4.06994 11.7038C4.21271 11.8466 4.40634 11.9268 4.60824 11.9268H4.62009C4.82199 11.9268 5.01562 11.8466 5.15839 11.7038C5.30115 11.561 5.38136 11.3674 5.38136 11.1655L4.60782 10.4042Z" fill="#7E8A90" stroke="#7E8A90" stroke-width="0.1"/>
<path d="M13.8549 13.7232H7.46539C7.32637 13.7232 7.19304 13.7784 7.09474 13.8767C6.99644 13.975 6.94121 14.1083 6.94121 14.2474C6.94121 14.3864 6.99644 14.5197 7.09474 14.618C7.19304 14.7163 7.32637 14.7715 7.46539 14.7715H13.8549C13.9939 14.7715 14.1273 14.7163 14.2256 14.618C14.3239 14.5197 14.3791 14.3864 14.3791 14.2474C14.3791 14.1083 14.3239 13.975 14.2256 13.8767C14.1273 13.7784 13.9939 13.7232 13.8549 13.7232Z" fill="#7E8A90" stroke="#7E8A90" stroke-width="0.1"/>
<path d="M4.60782 13.4863C4.70871 13.4847 4.80892 13.5031 4.90263 13.5406C4.99646 13.5781 5.08188 13.6339 5.15392 13.7047C5.22596 13.7756 5.28317 13.8601 5.32222 13.9533C5.36127 14.0465 5.38137 14.1465 5.38136 14.2476L4.60782 13.4863ZM4.60782 13.4863C4.40607 13.4864 4.21261 13.5666 4.06994 13.7093C3.92718 13.852 3.84697 14.0457 3.84697 14.2476C3.84697 14.4495 3.92718 14.6431 4.06994 14.7859C4.21271 14.9286 4.40634 15.0088 4.60824 15.0088H4.62009C4.82199 15.0088 5.01562 14.9286 5.15839 14.7859C5.30115 14.6431 5.38136 14.4495 5.38136 14.2476L4.60782 13.4863Z" fill="#7E8A90" stroke="#7E8A90" stroke-width="0.1"/>
<path d="M13.8549 16.8056H7.46539C7.32637 16.8056 7.19304 16.8608 7.09474 16.9591C6.99644 17.0574 6.94121 17.1907 6.94121 17.3298C6.94121 17.4688 6.99644 17.6021 7.09474 17.7004C7.19304 17.7987 7.32637 17.8539 7.46539 17.8539H13.8549C13.9939 17.8539 14.1273 17.7987 14.2256 17.7004C14.3239 17.6021 14.3791 17.4688 14.3791 17.3298C14.3791 17.1907 14.3239 17.0574 14.2256 16.9591C14.1273 16.8608 13.9939 16.8056 13.8549 16.8056Z" fill="#7E8A90" stroke="#7E8A90" stroke-width="0.1"/>
<path d="M4.60782 16.5684C4.70871 16.5667 4.80892 16.5852 4.90263 16.6226C4.99646 16.6601 5.08188 16.716 5.15392 16.7868C5.22596 16.8577 5.28317 16.9422 5.32222 17.0354C5.36127 17.1286 5.38137 17.2286 5.38136 17.3296L4.60782 16.5684ZM4.60782 16.5684C4.40607 16.5685 4.21261 16.6487 4.06994 16.7913C3.92718 16.9341 3.84697 17.1277 3.84697 17.3296C3.84697 17.5315 3.92718 17.7252 4.06994 17.8679C4.21271 18.0107 4.40634 18.0909 4.60824 18.0909H4.62009C4.82199 18.0909 5.01562 18.0107 5.15839 17.8679C5.30115 17.7252 5.38136 17.5315 5.38136 17.3296L4.60782 16.5684Z" fill="#7E8A90" stroke="#7E8A90" stroke-width="0.1"/>
</svg>
