<svg width="20" height="13" viewBox="0 0 20 13" fill="none" xmlns="http://www.w3.org/2000/svg">
<rect width="20" height="13" fill="white"/>
<path d="M19.8892 12.3548L16.3705 8.83617C17.1849 7.89855 17.6795 6.67623 17.6795 5.33974C17.6795 2.39551 15.2841 0 12.3397 0C9.39525 0 7 2.39566 7 5.33989C7 8.28412 9.39525 10.6795 12.3397 10.6795C13.676 10.6795 14.8984 10.1849 15.8358 9.37052L19.3548 12.8893C19.4286 12.9631 19.5254 13 19.6222 13C19.7188 13 19.8156 12.9631 19.8892 12.8893C20.0369 12.7417 20.0369 12.5024 19.8892 12.3548ZM7.75603 5.33974C7.75603 2.81223 9.81227 0.756016 12.3397 0.756016C14.8672 0.756016 16.9235 2.81238 16.9235 5.33974C16.9235 7.8671 14.8672 9.92332 12.3397 9.92332C9.81227 9.92332 7.75603 7.8671 7.75603 5.33974Z" fill="#334D6E"/>
</svg>
