<svg width="19" height="18" viewBox="0 0 19 18" fill="none" xmlns="http://www.w3.org/2000/svg">
<path d="M2.5337 0.531579L9.50017 6.81719L16.4667 0.550627C16.6038 0.424704 16.7684 0.32583 16.9501 0.260259C17.1318 0.194688 17.3266 0.163845 17.5222 0.169681C17.9059 0.192088 18.2676 0.339756 18.5395 0.585111C18.8114 0.830465 18.9751 1.15673 18.9999 1.50299C19.0018 1.67324 18.9654 1.84206 18.8928 1.99923C18.8202 2.15639 18.713 2.29861 18.5777 2.41726L11.5901 8.74097L18.5777 15.0647C18.8521 15.3047 19.0041 15.6361 18.9999 15.9789C18.9751 16.3252 18.8114 16.6515 18.5395 16.8968C18.2676 17.1422 17.9059 17.2898 17.5222 17.3123C17.3266 17.3181 17.1318 17.2872 16.9501 17.2217C16.7684 17.1561 16.6038 17.0572 16.4667 16.9313L9.50017 10.6647L2.55481 16.9313C2.41764 17.0572 2.25302 17.1561 2.07133 17.2217C1.88964 17.2872 1.69485 17.3181 1.49928 17.3123C1.10836 17.2939 0.738827 17.1455 0.462027 16.8958C0.185226 16.646 0.0207804 16.3126 0.000432086 15.9599C-0.001478 15.7896 0.0349606 15.6208 0.107537 15.4637C0.180114 15.3065 0.287317 15.1643 0.422643 15.0456L7.41023 8.74097L0.401532 2.41726C0.270017 2.29701 0.166716 2.15406 0.0978003 1.99698C0.0288849 1.83989 -0.00423066 1.67188 0.000432086 1.50299C0.0252673 1.15673 0.18893 0.830465 0.460862 0.585111C0.732794 0.339756 1.0944 0.192088 1.47817 0.169681C1.67222 0.161365 1.86609 0.189206 2.0477 0.251471C2.2293 0.313735 2.39474 0.409086 2.5337 0.531579Z" fill="white"/>
</svg>
