<svg width="16" height="15" viewBox="0 0 16 15" fill="none" xmlns="http://www.w3.org/2000/svg">
<path d="M9.0045 7.55645C9.0045 7.32736 9.14059 6.99584 9.3128 6.81133L14.4305 1.32812C14.6007 1.14569 14.5195 0.9978 14.2419 0.9978H1.27399C0.999558 0.9978 0.913177 1.14361 1.08538 1.32812L6.20305 6.81133C6.37332 6.99376 6.51135 7.32566 6.51135 7.55714V13.8791C6.51135 14.1086 6.71537 14.2266 6.97445 14.1403L8.5414 13.618C8.79717 13.5327 9.0045 13.2812 9.0045 13.0488V7.55645ZM10.0018 7.55645V13.0488C10.0018 13.6207 9.54651 14.178 8.91178 14.3896L7.34482 14.9119C6.43019 15.2168 5.51408 14.6961 5.51408 13.8791V7.55714C5.51408 7.51169 5.45088 7.35907 5.41586 7.32155L0.298193 1.83834C-0.380555 1.11111 0.164851 0.166748 1.27399 0.166748H14.2419C15.3574 0.166748 15.8926 1.11517 15.2177 1.83834L10.1 7.32155C10.0644 7.35964 10.0018 7.51149 10.0018 7.55645Z" fill="#334D6E"/>
</svg>
