<svg id="Add_Campaign_60_" data-name="Add Campaign  (60)" xmlns="http://www.w3.org/2000/svg" xmlns:xlink="http://www.w3.org/1999/xlink" width="60" height="60" viewBox="0 0 60 60">
  <defs>
    <clipPath id="clip-path">
      <rect id="Rectangle_2086" data-name="Rectangle 2086" width="60" height="60" fill="none"/>
    </clipPath>
  </defs>
  <g id="Group_4346" data-name="Group 4346" clip-path="url(#clip-path)">
    <g id="campaign" transform="translate(0.52 3.933)">
      <path id="Path_1935" data-name="Path 1935" d="M190.493,554.371a2.748,2.748,0,0,0,2.408-4.47l-4.253-5.221-5.118,2.254-.1.041,5.213,6.4A2.73,2.73,0,0,0,190.493,554.371Z" transform="translate(-170.192 -507.762)" fill="none"/>
      <path id="Path_1936" data-name="Path 1936" d="M249.739,200.259c3.525-.19,12.589-.026,15.961.043l-9.586-21.752-11.5,11.742c.19-.128.38-.256.567-.386Z" transform="translate(-226.784 -169.091)" fill="none"/>
      <path id="Path_1937" data-name="Path 1937" d="M465.3,271.834l-.082.036,3.245,7.368.082-.037a4.025,4.025,0,1,0-3.245-7.367Z" transform="translate(-430.848 -255.062)" fill="none"/>
      <rect id="Rectangle_2083" data-name="Rectangle 2083" width="1.279" height="12.169" transform="translate(14.211 23.688) rotate(-23.77)" fill="none"/>
      <path id="Path_1938" data-name="Path 1938" d="M108.316,474.663l4.939-2.175-.838-1.9c-.7.3-3.693,1.619-3.9,1.711a1.922,1.922,0,0,1-2.538-.975h0L104.6,468.18a5.02,5.02,0,0,1-1.436.956c-.106.047-.212.087-.319.126l1.737,3.949A2.843,2.843,0,0,0,108.316,474.663Z" transform="translate(-95.647 -436.999)" fill="#57a7dc"/>
      <path id="Path_1939" data-name="Path 1939" d="M235.832,343.07l17.92-.614-.908-2.062c-3.375-.07-12.432-.233-15.961-.043L232.32,330c-.187.13-.375.259-.567.386l-1.042,1.063Z" transform="translate(-213.926 -309.183)" fill="#57a7dc"/>
      <path id="Path_1940" data-name="Path 1940" d="M87.4,181.4h.016l.01.013,5.8,7.115a4.327,4.327,0,1,0,6.708-5.468l-4.025-4.938,1.645-.721,19.541-.671a.756.756,0,0,0,.73-.781.764.764,0,0,0-.064-.279l-3.569-8.1.146-.064.019-.008a5.606,5.606,0,1,0-4.5-10.269l-.18.081-3.385-7.683a.755.755,0,0,0-1.231-.225l-13.69,13.97-6.15,2.709a5.025,5.025,0,0,1,.839,1.282l2.682-1.181,4.1,9.3.071-.03.944,2.142c-.944.332-5.222,2.175-6.136,2.574h0a1.923,1.923,0,0,1-2.538-.975L83,174.249a4.968,4.968,0,0,1-1.4.232l1.888,4.287A4.444,4.444,0,0,0,87.4,181.4Zm22.88-22.709.146-.064a4.094,4.094,0,0,1,3.3,7.493l-.146.065ZM92.528,163.95q.518-.317,1.024-.651l11.8-12.039,9.635,21.871,1.215.029,1.31,2.973s-15.232-.215-19.679-.131Zm-2.406,1.621,1.3-.571,4.961,11.261-1.3.574Zm-.939,15.508c.041-.016.083-.033.125-.052l5.165-2.275,4.288,5.263a2.825,2.825,0,0,1-.406,3.962h0a2.81,2.81,0,0,1-3.962-.4l-5.272-6.47Z" transform="translate(-76 -141.918)" fill="#0a346c"/>
      <path id="Path_1941" data-name="Path 1941" d="M105.948,488.332a2.912,2.912,0,0,1-3.825-1.487l-1.742-3.955-.131.045,2.175,4.942a1.923,1.923,0,0,0,2.538.975h0c.913-.4,5.192-2.242,6.136-2.574l-.944-2.142-.071.03.865,1.964Z" transform="translate(-93.251 -450.606)" fill="#0a346c"/>
      <path id="Path_1942" data-name="Path 1942" d="M250.978,347.381l-1.215-.027.936,2.125h-.051l-18.016.617-5.157-11.708.017-.017.837-.851q-.51.336-1.027.651l5.308,12.049c4.447-.084,19.679.131,19.679.131Z" transform="translate(-210.772 -316.139)" fill="#0a346c"/>
      <path id="Path_1943" data-name="Path 1943" d="M242.79,189.643l.137-.091,11.5-11.742,9.581,21.75h.038l-9.606-21.81Z" transform="translate(-225.1 -168.351)" fill="#0a346c"/>
      <path id="Path_1944" data-name="Path 1944" d="M470.085,273.462a4.059,4.059,0,0,0-5.35-2.079l-.114.05,3.272,7.43.115-.05A4.06,4.06,0,0,0,470.085,273.462Zm-2.092,5.32-.082.037-3.245-7.368.082-.036a4.025,4.025,0,1,1,3.245,7.367Z" transform="translate(-430.293 -254.642)" fill="#0a346c"/>
      <path id="Path_1945" data-name="Path 1945" d="M143.833,376.575l4.067,9.235.032-.014-4.082-9.266L141.2,377.7c.005.01.01.02.015.031Z" transform="translate(-131.13 -352.223)" fill="#0a346c"/>
      <path id="Path_1946" data-name="Path 1946" d="M108.891,156.342l-.119.052-3.356-7.619a.825.825,0,0,0-1.342-.244l-13.682,13.96-6.16,2.713.024.027,6.156-2.711L104.1,148.554a.79.79,0,0,1,1.289.233l3.37,7.65.114-.05.036-.016a5.641,5.641,0,0,1,4.511,10.341l-.114.05,3.555,8.07a.792.792,0,0,1-.7,1.1l-19.542.675-1.591.7,4,4.9a4.362,4.362,0,1,1-6.762,5.511l-5.8-7.116a4.457,4.457,0,0,1-3.944-2.654l-1.893-4.3H80.59l1.9,4.313a4.512,4.512,0,0,0,3.958,2.674l5.788,7.1a4.4,4.4,0,1,0,6.815-5.555l-3.968-4.869,1.544-.68,19.535-.675a.825.825,0,0,0,.726-1.156l-3.541-8.035.083-.037.019-.008a5.674,5.674,0,1,0-4.557-10.393Z" transform="translate(-75.065 -141.095)" fill="#0a346c"/>
      <path id="Path_1947" data-name="Path 1947" d="M187.847,552.859a2.782,2.782,0,0,0,4.312-3.517l-4.275-5.242-5.142,2.265c-.046.02-.094.039-.142.058l5.242,6.434ZM182.76,546.4l5.12-2.254,4.253,5.221a2.747,2.747,0,0,1-4.259,3.472l-5.213-6.4Z" transform="translate(-169.425 -507.225)" fill="#0a346c"/>
      <path id="Path_1948" data-name="Path 1948" d="M200.753,372.542l1.231-.544-4.931-11.2-1.233.54Zm-4.888-11.182,1.168-.515,4.9,11.136-1.171.515Z" transform="translate(-181.653 -337.673)" fill="#0a346c"/>
      <path id="Path_1949" data-name="Path 1949" d="M112.821,485.816l-4.939,2.175a2.843,2.843,0,0,1-3.739-1.452h0l-1.74-3.949-.032.011,1.741,3.952a2.872,2.872,0,0,0,3.785,1.468l4.969-2.189-.848-1.931-.032.014Z" transform="translate(-95.212 -450.328)" fill="#0a346c"/>
      <path id="Path_1950" data-name="Path 1950" d="M253.277,347.164l-17.917.614-5.12-11.625,1.043-1.064-.137.091-.947.965,5.138,11.666,17.993-.617-.924-2.092h-.038Z" transform="translate(-213.455 -313.891)" fill="#0a346c"/>
      <path id="Path_1951" data-name="Path 1951" d="M196.515,360.2l-1.3.571,4.96,11.264,1.3-.571Zm4.913,11.243-1.233.544-4.93-11.2,1.233-.543Z" transform="translate(-181.098 -337.118)" fill="#0a346c"/>
      <path id="Path_1952" data-name="Path 1952" d="M469.56,273.016a4.1,4.1,0,0,0-5.395-2.1l-.145.065,3.3,7.5.146-.064A4.1,4.1,0,0,0,469.56,273.016Zm-2.223,5.415L464.065,271l.114-.05a4.06,4.06,0,1,1,3.273,7.43Z" transform="translate(-429.738 -254.21)" fill="#0a346c"/>
      <path id="Path_1953" data-name="Path 1953" d="M252.788,177.056,262.4,198.87h.038L252.8,177,241,189.039l.137-.09Z" transform="translate(-223.445 -167.658)" fill="#0a346c"/>
      <path id="Path_1954" data-name="Path 1954" d="M143.665,375.938l4.085,9.266.031-.013-4.1-9.3L141,377.074l.014.031Z" transform="translate(-130.945 -351.631)" fill="#0a346c"/>
      <path id="Path_1955" data-name="Path 1955" d="M90.894,162.935l13.69-13.969a.755.755,0,0,1,1.232.225l3.384,7.682.181-.08a5.606,5.606,0,1,1,4.5,10.269l-.019.008-.146.064,3.569,8.1a.764.764,0,0,1,.064.279.756.756,0,0,1-.73.782l-19.541.671-1.645.721,4.025,4.939a4.327,4.327,0,1,1-6.709,5.468l-5.8-7.118-.01-.013h-.016a4.444,4.444,0,0,1-3.914-2.634l-1.888-4.285H81.09l1.893,4.3A4.457,4.457,0,0,0,86.927,181l5.8,7.116a4.362,4.362,0,1,0,6.762-5.511l-4-4.9,1.591-.7,19.542-.675a.792.792,0,0,0,.7-1.109l-3.555-8.07.114-.05a5.64,5.64,0,1,0-4.511-10.339l-.036.016-.114.05-3.37-7.648a.79.79,0,0,0-1.289-.233L90.875,162.906l-6.156,2.711.025.026Z" transform="translate(-75.528 -141.482)" fill="#0a346c"/>
      <path id="Path_1956" data-name="Path 1956" d="M189.079,553.4a2.8,2.8,0,0,0,1.417-.221,2.84,2.84,0,0,0,.648-.4h0a2.824,2.824,0,0,0,.4-3.962l-4.289-5.263-5.165,2.276c-.041.019-.083.035-.124.052l-.059.023,5.273,6.47A2.8,2.8,0,0,0,189.079,553.4Zm-6.975-7.537,5.142-2.265,4.275,5.242a2.782,2.782,0,1,1-4.312,3.515h0l-5.242-6.434.14-.058Z" transform="translate(-168.786 -506.726)" fill="#0a346c"/>
      <path id="Path_1957" data-name="Path 1957" d="M112.5,485.973l-4.969,2.186a2.872,2.872,0,0,1-3.783-1.47L102,482.74l-.032.011,1.742,3.955a2.912,2.912,0,0,0,3.825,1.487l5-2.2-.866-1.964-.031.013Z" transform="translate(-94.842 -450.467)" fill="#0a346c"/>
      <path id="Path_1958" data-name="Path 1958" d="M229.62,337.278l5.157,11.708,18.016-.615h.051l-.936-2.129h-.038l.922,2.093-17.993.617-5.138-11.667.946-.965-.137.09-.834.851Z" transform="translate(-212.918 -315.029)" fill="#0a346c"/>
      <path id="Path_1959" data-name="Path 1959" d="M589.556,207.419h0l-6.126-2.383a1.032,1.032,0,1,0-.75,1.922l3.593,1.4-7.95,3.5a1.031,1.031,0,0,0,.832,1.886l8.122-3.577a1,1,0,0,0,.136-.075l-1.57,4.044a1.031,1.031,0,0,0,1.921.75l2.38-6.13a1.031,1.031,0,0,0-.589-1.336Z" transform="translate(-534.9 -193.526)" fill="#57a7dc"/>
      <path id="Path_1960" data-name="Path 1960" d="M633.712,380.638a1.031,1.031,0,0,0-.525,1.35l1.554,3.525-8.1-3.15a1.031,1.031,0,0,0-.761,1.915l.016.006,8.274,3.215a1.048,1.048,0,0,0,.15.043l-3.975,1.75a1.031,1.031,0,0,0-.525,1.359h0a1.031,1.031,0,0,0,1.358.525l6.02-2.645a1.031,1.031,0,0,0,.525-1.358h0l-2.648-6.017A1.03,1.03,0,0,0,633.712,380.638Z" transform="translate(-578.857 -355.939)" fill="#57a7dc"/>
      <path id="Path_1961" data-name="Path 1961" d="M512.584,64.377l.01-.025,3.213-8.274a1.075,1.075,0,0,0,.043-.15L517.6,59.9a1.03,1.03,0,0,0,1.885-.83l-2.651-6.024a1.03,1.03,0,0,0-1.358-.525h0l-6.016,2.648a1.031,1.031,0,0,0,.831,1.886l3.525-1.553-3.146,8.1a1.03,1.03,0,1,0,1.911.772Z" transform="translate(-471.201 -52.436)" fill="#57a7dc"/>
      <path id="Path_1962" data-name="Path 1962" d="M14.563,356.172A5.44,5.44,0,1,1,17.347,349,5.44,5.44,0,0,1,14.563,356.172Zm-4.055-9.206a4.619,4.619,0,1,0,6.088,2.366,4.619,4.619,0,0,0-6.088-2.366Z" transform="translate(-6.928 -323.754)" fill="#0a346c"/>
      <rect id="Rectangle_2084" data-name="Rectangle 2084" width="0.683" height="6.154" rx="0.342" transform="matrix(1, -0.024, 0.024, 1, 5.025, 24.372)" fill="#57a7dc"/>
      <rect id="Rectangle_2085" data-name="Rectangle 2085" width="0.684" height="6.151" rx="0.342" transform="matrix(0.024, 1, -1, 0.024, 8.509, 27.022)" fill="#57a7dc"/>
    </g>
  </g>
</svg>
