<svg xmlns="http://www.w3.org/2000/svg" width="36" height="36" viewBox="0 0 36 36">
  <g id="Add_Enquiry" data-name="Add Enquiry" transform="translate(23.791 30.791)">
    <rect id="Rectangle_2011" data-name="Rectangle 2011" width="36" height="36" transform="translate(-23.791 -30.791)" fill="none"/>
    <g id="Group_4235" data-name="Group 4235" transform="translate(-20.791 -29.243)">
      <g id="Ppl" transform="translate(0 1.452)">
        <path id="Path_1746" data-name="Path 1746" d="M-16078.165-1345.417h-2.725a2.765,2.765,0,0,1-.877-2.357c.163-1.511,1.122-6.179,4.307-6.082s4.208,2.015,4.208,2.015,2.341,5.233.537,6.3a2.135,2.135,0,0,1-2.877-.292l1.5-1.511-.261-3.412-2.827.195h-2.568l.358,3.12Z" transform="translate(16084.979 1354.526)" fill="#57a7dc"/>
        <path id="Path_1747" data-name="Path 1747" d="M18.165,8.365c1.122-.114,5.232,0,5.232,0v5.98s-1.171,2.828-3.283,2.844-3.265-2.762-3.265-2.762l-.131-4.794A1.8,1.8,0,0,1,18.165,8.365Z" transform="translate(0 0.182)" fill="#57a7dc"/>
        <path id="Subtraction_4" data-name="Subtraction 4" d="M12.166,26.9H0V21.229H.9v-6a3.271,3.271,0,0,1,2.163-3.119l3.244-1.134V9.888h-1.4a1.481,1.481,0,0,1-.45-.047A2.191,2.191,0,0,1,3.053,8.88,2.42,2.42,0,0,1,2.7,7.053l.631-2.977A5.06,5.06,0,0,1,7.119.106a4.788,4.788,0,0,1,4.088,1.019,5.109,5.109,0,0,1,1.725,2.951l.586,2.977a1.69,1.69,0,0,1,.045.473A2.285,2.285,0,0,1,11.31,9.888h-1.4v1.087l3.244,1.134a3.224,3.224,0,0,1,2.164,3.119v2.74l2.253-1.086a4.086,4.086,0,0,1-1.352-3.072v-3.45A2.285,2.285,0,0,1,18.474,8h5.407V13.81a4.085,4.085,0,0,1-1.352,3.072l2.659,1.275a3.3,3.3,0,0,1,1.848,3.025v1.586a3.5,3.5,0,0,0-.992-.157V21.182a2.59,2.59,0,0,0-.158-.9,2.26,2.26,0,0,0-1.148-1.274l-3.2-1.512a3.411,3.411,0,0,1-1.515.354,3.627,3.627,0,0,1-1.549-.354l-3.2,1.512a2.414,2.414,0,0,0-1.306,2.174v4.773H22.5c0,.048,0,.1,0,.156a3.519,3.519,0,0,0,.089.788H13.067V22.174H.9v3.781H12.166V26.9Zm-.9-9.452h.9v3.78h.9v-.094a3.267,3.267,0,0,1,1.352-2.694V15.228a2.4,2.4,0,0,0-1.532-2.221l-.946-.33L9.958,14.755l-1.4-1.087v7.561h2.7V17.45Zm-7.21-1.89h.9v5.67h2.7V13.668l-1.4,1.087L4.28,12.676l-.946.33A2.3,2.3,0,0,0,1.8,15.228v6H4.055V15.56ZM18.474,8.943a1.355,1.355,0,0,0-1.352,1.418v3.45a2.932,2.932,0,1,0,5.858,0V8.943ZM8.562,11.778v.709l1.307,1.04,1.126-1.182-1.622-.567Zm-1.713,0-1.622.567,1.126,1.182,1.307-1.04v-.709H6.849Zm-.069-7.6a1.787,1.787,0,0,0-.877.225V7.053a.438.438,0,0,0,.18.378l.541.378A1.79,1.79,0,0,1,7.3,8.99v1.843H9.1V8.99a1.5,1.5,0,0,1,.586-1.181l.541-.378a.589.589,0,0,0,.18-.378V4.643h-.045a2.537,2.537,0,0,1-1.08.233,2.875,2.875,0,0,1-1.488-.422A2.068,2.068,0,0,0,6.78,4.181ZM11.9,3.887h0l-.676.283V7.006a1.5,1.5,0,0,1-.586,1.182l-.541.378a.6.6,0,0,0-.18.378h1.4a1.33,1.33,0,0,0,1.036-.52,1.3,1.3,0,0,0,.226-1.229l-.586-2.977a.707.707,0,0,1-.045-.165A.707.707,0,0,0,11.9,3.887Zm-6.94.992h0l-.991.615L3.6,7.242a1.375,1.375,0,0,0,.271,1.181,1.307,1.307,0,0,0,.991.52h1.4a.433.433,0,0,0-.18-.378l-.541-.378a1.5,1.5,0,0,1-.586-1.182V4.879ZM8.111.91A4.079,4.079,0,0,0,4.19,4.171v.047l1.127-.661a2.829,2.829,0,0,1,1.409-.384A2.768,2.768,0,0,1,8.2,3.6a1.943,1.943,0,0,0,1.012.289,1.985,1.985,0,0,0,.746-.148l1.622-.708A3.933,3.933,0,0,0,8.111.91Z" transform="translate(0 0)" fill="#0a346c" stroke="#0a346c" stroke-width="0.4"/>
        <g id="Path_1748" data-name="Path 1748" transform="translate(22 22)" fill="none">
          <path d="M4,0A4,4,0,1,1,0,4,4,4,0,0,1,4,0Z" stroke="none"/>
          <path d="M 4 1 C 2.345789909362793 1 1 2.345789909362793 1 4 C 1 5.654210090637207 2.345789909362793 7 4 7 C 5.654210090637207 7 7 5.654210090637207 7 4 C 7 2.345789909362793 5.654210090637207 1 4 1 M 4 0 C 6.209139823913574 0 8 1.790860176086426 8 4 C 8 6.209139823913574 6.209139823913574 8 4 8 C 1.790860176086426 8 0 6.209139823913574 0 4 C 0 1.790860176086426 1.790860176086426 0 4 0 Z" stroke="none" fill="#0a346c"/>
        </g>
        <rect id="Rectangle_15" data-name="Rectangle 15" width="4.672" height="1.016" transform="translate(5.644 23.376)" fill="#57a7dc"/>
        <rect id="Rectangle_19" data-name="Rectangle 19" width="2.844" height="1.016" transform="translate(9.477 15.506)" fill="#57a7dc"/>
        <g id="Icon_ionic-ios-add-circle-outline" data-name="Icon ionic-ios-add-circle-outline" transform="translate(24 24)">
          <path id="Path_1745" data-name="Path 1745" d="M14.211,12.211h-1.4v-1.4a.3.3,0,1,0-.6,0v1.4h-1.4a.288.288,0,0,0-.3.3.291.291,0,0,0,.3.3h1.4v1.4a.291.291,0,0,0,.3.3.3.3,0,0,0,.3-.3v-1.4h1.4a.3.3,0,1,0,0-.6Z" transform="translate(-10.512 -10.512)" fill="#57a7dc" stroke="#57a7dc" stroke-width="0.2"/>
        </g>
      </g>
      <g id="Msg" transform="translate(16.043 1.792)">
        <path id="Path_41" data-name="Path 41" d="M42.929,2H36.143a1.019,1.019,0,0,0-1.071,1V6.067a.294.294,0,0,1-.107.233L34,7.2V8h8.929A1.019,1.019,0,0,0,44,7V3A1.019,1.019,0,0,0,42.929,2Zm.357,5a.327.327,0,0,1-.357.333H34.857l.607-.567a.93.93,0,0,0,.321-.7V3a.327.327,0,0,1,.357-.333h6.786A.327.327,0,0,1,43.286,3Z" transform="translate(-34 -2)" fill="#0a346c" stroke="#0a346c" stroke-width="0.4"/>
        <rect id="Rectangle_16" data-name="Rectangle 16" width="5.278" height="0.601" transform="translate(2.879 1.655)" fill="#57a7dc"/>
        <rect id="Rectangle_17" data-name="Rectangle 17" width="5.278" height="0.668" transform="translate(2.879 2.678)" fill="#57a7dc"/>
        <rect id="Rectangle_18" data-name="Rectangle 18" width="4.008" height="0.601" transform="translate(2.966 3.779)" fill="#57a7dc"/>
      </g>
    </g>
  </g>
</svg>
