<svg xmlns="http://www.w3.org/2000/svg" width="92" height="92" viewBox="0 0 92 92">
  <g id="Counselor_report" data-name="Counselor report" transform="translate(-0.139 -0.139)">
    <rect id="BG" width="92" height="92" transform="translate(0.139 0.139)" fill="none"/>
    <g id="Group_4232" data-name="Group 4232" transform="translate(2.703 2.709)">
      <g id="Group_4231" data-name="Group 4231" transform="translate(9.07 9.294)">
        <path id="Path_1717" data-name="Path 1717" d="M155.144,92.409l-.054,1.5.054-18s16.671,1.928,17.066,17.933H155.144" transform="translate(-138.911 -74.224)" fill="#57a7dc"/>
        <path id="Path_1713" data-name="Path 1713" d="M80.944,66.6a1.692,1.692,0,0,0-1.694,1.694V71.34A15.608,15.608,0,1,0,96.444,88.57H99.49a1.692,1.692,0,0,0,1.692-1.694A20.251,20.251,0,0,0,80.944,66.6Zm0,32.459a12.207,12.207,0,0,1-1.692-24.295V86.858a1.692,1.692,0,0,0,1.692,1.694H93.037A12.223,12.223,0,0,1,80.944,99.059Zm1.7-13.9h0V70.078A16.889,16.889,0,0,1,97.723,85.164Z" transform="translate(-65.322 -66.6)" fill="#0a346c"/>
      </g>
      <g id="Group_4230" data-name="Group 4230">
        <path id="Path_2179" data-name="Path 2179" d="M299.37,33.83,313.356,47.8H299.37V33.83" transform="translate(-248.118 -30.442)" fill="#57a7dc"/>
        <path id="Path_1711" data-name="Path 1711" d="M100.135,98.494H20.077A1.692,1.692,0,0,1,18.383,96.8V20.13a1.692,1.692,0,0,1,1.694-1.694H63.842V29.623a5.077,5.077,0,0,0,5.082,5.082H80.117V55.576a1.694,1.694,0,0,0,3.388,0h0V33.017a1.707,1.707,0,0,0-.5-1.208L66.744,15.535a1.707,1.707,0,0,0-1.208-.5H20.077A5.115,5.115,0,0,0,15,20.13V96.8a5.077,5.077,0,0,0,5.082,5.082H100.14a1.694,1.694,0,1,0-.005-3.388ZM67.225,20.833,77.714,31.323h-8.8a1.692,1.692,0,0,1-1.694-1.694Z" transform="translate(-15 -15.03)" fill="#0a346c"/>
      </g>
      <g id="Group_4229" data-name="Group 4229" transform="translate(9.15 50.662)">
        <path id="Path_1714" data-name="Path 1714" d="M96.811,296.13H67.32c-.847,0-1.55,1.208-1.55,2.721s.685,2.721,1.55,2.721H96.811c.847,0,1.55-1.208,1.55-2.721S97.653,296.13,96.811,296.13Z" transform="translate(-65.77 -296.13)" fill="#57a7dc"/>
        <path id="Path_1714-2" data-name="Path 1714" d="M89.38,388H66.941c-.649,0-1.171,1.208-1.171,2.721s.523,2.721,1.171,2.721H89.38c.649,0,1.171-1.208,1.171-2.721S90.029,388,89.38,388Z" transform="translate(-65.77 -371.442)" fill="#57a7dc"/>
        <path id="Path_1715" data-name="Path 1715" d="M80.116,341.73h-12.4c-1.063,0-1.946,1.208-1.946,2.721s.865,2.721,1.946,2.721h12.4c1.063,0,1.946-1.208,1.946-2.721S81.2,341.73,80.116,341.73Z" transform="translate(-65.77 -333.512)" fill="#57a7dc"/>
        <path id="Path_1716" data-name="Path 1716" d="M177.735,342.491a2.72,2.72,0,1,0,.793,1.928A2.72,2.72,0,0,0,177.735,342.491Z" transform="translate(-153.747 -333.479)" fill="#0a346c"/>
      </g>
    </g>
    <path id="Path_2180" data-name="Path 2180" d="M269.176,372.19h17.149v13.98h-6.708v-2.384s-2.154-3.033-3.817,0v2.384h-7.04V372.19Z" transform="translate(-220.322 -305.111)" fill="#57a7dc"/>
    <path id="Path_2181" data-name="Path 2181" d="M396.581,302.878s.833-9.354-7.128-9.329c-8.141.025-7.126,9.329-7.126,9.329l11.272-1.033Z" transform="translate(-313.387 -240.643)" fill="#57a7dc"/>
    <path id="Path_2182" data-name="Path 2182" d="M412.361,404.77l-1.936,1.217.7,2.062-.89,7.681h4.307l-1.018-7.681.784-2.159Z" transform="translate(-336.303 -331.819)" fill="#57a7dc"/>
    <path id="Path_2183" data-name="Path 2183" d="M300.535,308.657l-4.913-1.132v-1.276a5.227,5.227,0,0,0,1.244-1.442h.7a3.244,3.244,0,0,0,3.244-3.244,3.208,3.208,0,0,0-.647-1.925v-2.613a7.775,7.775,0,1,0-15.55,0v2.612a3.224,3.224,0,0,0,2.592,5.164h.7a5.186,5.186,0,0,0,1.242,1.442v1.276l-4.908,1.132a4.5,4.5,0,0,0-.923.33v-3.531a1.947,1.947,0,0,0-1.945-1.945h-15.55a1.946,1.946,0,0,0-1.943,1.945v11.663a1.946,1.946,0,0,0,1.943,1.943h5.183v1.3h-1.3v1.3h34.341v-8.57a4.506,4.506,0,0,0-3.516-4.419Zm-10.886.083,1.579,1.184-1.6.959-.342-2.06Zm2.038,5.131h1.4l.541,6.479h-2.48Zm1.528-1.3H291.56l-.373-1.116,1.2-.721,1.2.721Zm.332-2.644,1.581-1.184.456.1-.411,2.055Zm4.025-6.42H297.4a5.118,5.118,0,0,0,.171-1.3v-2.6a1.945,1.945,0,0,1,0,3.888Zm-5.183-12.958a6.488,6.488,0,0,1,6.477,6.472V298.6a3.181,3.181,0,0,0-1.3-.276v-1.3h-1.3v.36a3.825,3.825,0,0,1-1.564.815c.025-.025.052-.045.077-.07l-.916-.917a3.785,3.785,0,0,1-1.754.988c.025-.025.052-.045.078-.07l-.916-.917a3.8,3.8,0,0,1-2.671,1.107h-.11v-1.3h-1.294v1.3a3.175,3.175,0,0,0-1.3.276v-1.572a6.488,6.488,0,0,1,6.479-6.477Zm-5.183,12.958a1.945,1.945,0,1,1,0-3.888v2.592a5.2,5.2,0,0,0,.169,1.3Zm1.3-1.3v-2.6h.11a5.081,5.081,0,0,0,1.833-.35v.35h.759a5.081,5.081,0,0,0,1.833-.35v.35h.759a5.124,5.124,0,0,0,2.482-.654v3.244a3.855,3.855,0,0,1-.227,1.3h-3.66v1.3h2.884a3.882,3.882,0,0,1-6.777-2.592Zm3.888,5.183a5.13,5.13,0,0,0,1.943-.382v.707l-1.943,1.458-1.945-1.458v-.707a5.131,5.131,0,0,0,1.945.375Zm-7.856,2.523,3.491-.806.642,3.857,1.384-.829.386,1.161-.58,7.045h-3.3v-7.126h-1.3v7.126h-3.244v-1.408a1.941,1.941,0,0,0,1.3-1.824v-6.627a3.194,3.194,0,0,1,1.22-.571Zm-8.343,9.134h4.536v1.3H276.19Zm-10.367-1.3a.647.647,0,0,1-.647-.647V305.449a.649.649,0,0,1,.647-.649h15.55a.649.649,0,0,1,.649.649v11.663a.649.649,0,0,1-.649.647H276.19v-1.3a2.592,2.592,0,0,0-5.183,0v1.3Zm6.479-1.3a1.3,1.3,0,0,1,2.592,0v3.888H272.3Zm30.459,3.888h-3.244v-7.128h-1.3v7.126h-3.293l-.588-7.047.386-1.161,1.357.815.762-3.821,3.4.784a3.226,3.226,0,0,1,2.511,3.156Z" transform="translate(-216.321 -237.119)" fill="#0a346c"/>
    <circle id="Ellipse_34" data-name="Ellipse 34" cx="3.707" cy="3.707" r="3.707" transform="translate(54.217 48.197)" fill="#57a7dc"/>
    <path id="Path_2184" data-name="Path 2184" d="M296.881,315.41h-7.168a2.544,2.544,0,0,0-2.594,2.491v3.257a12.279,12.279,0,0,0,12.355,0V317.9A2.544,2.544,0,0,0,296.881,315.41Z" transform="translate(-235.373 -258.564)" fill="#57a7dc"/>
    <path id="Path_2185" data-name="Path 2185" d="M274.247,268.163a10.367,10.367,0,1,0-10.367-10.358A10.367,10.367,0,0,0,274.247,268.163Zm0-19.438a9.071,9.071,0,1,1-9.071,9.08,9.071,9.071,0,0,1,9.071-9.08Z" transform="translate(-216.321 -202.836)" fill="#0a346c"/>
    <path id="Path_2186" data-name="Path 2186" d="M396.89,267.68h1.3v1.3h-1.3Z" transform="translate(-325.359 -219.436)" fill="#57a7dc"/>
    <path id="Path_2187" data-name="Path 2187" d="M418.46,267.68h1.3v1.3h-1.3Z" transform="translate(-343.041 -219.436)" fill="#57a7dc"/>
    <path id="Path_2188" data-name="Path 2188" d="M440,267.68h1.3v1.3H440Z" transform="translate(-360.699 -219.436)" fill="#57a7dc"/>
  </g>
</svg>
