<svg xmlns="http://www.w3.org/2000/svg" width="36" height="36" viewBox="0 0 36 36">
  <g id="INtegration" transform="translate(-307.061 737.939)">
    <rect id="Rectangle_2008" data-name="Rectangle 2008" width="36" height="36" transform="translate(307.061 -737.939)" fill="none"/>
    <g id="Layer_27" data-name="Layer 27" transform="translate(308.061 -734.939)">
      <path id="Path_1718" data-name="Path 1718" d="M49.728,5.857A1.8,1.8,0,0,0,48,4.567a1.909,1.909,0,0,0-.8.181.377.377,0,0,1-.351-.041.346.346,0,0,1-.144-.284V.181A.2.2,0,0,0,46.524,0H34.181A.2.2,0,0,0,34,.181V4.422a.243.243,0,0,0,.114.206.134.134,0,0,0,.15,0,1.944,1.944,0,1,1,.882,3.679,2.064,2.064,0,0,1-.872-.2.243.243,0,0,0-.2.031A.191.191,0,0,0,34,8.3v4.242a.2.2,0,0,0,.181.181h4.242a.191.191,0,0,0,.155-.083.227.227,0,0,0,.031-.2,1.842,1.842,0,0,1-.2-.862,1.94,1.94,0,0,1,.753-1.538,1.971,1.971,0,0,1,1.207-.418,1.816,1.816,0,0,1,.516.067,1.951,1.951,0,0,1,1.409,1.873,2.064,2.064,0,0,1-.2.872.212.212,0,0,0,.031.191.191.191,0,0,0,.155.083h4.247a.2.2,0,0,0,.181-.181V8.282a.382.382,0,0,1,.2-.341.294.294,0,0,1,.31,0,1.693,1.693,0,0,0,.79.181,1.806,1.806,0,0,0,1.729-2.281Z" transform="translate(-15.792 0)" fill="#57a7dc"/>
      <path id="Path_1719" data-name="Path 1719" d="M23,21.2h-3.4V21.1a2.466,2.466,0,0,0,.041-.429,2.255,2.255,0,0,0-2.234-2.218,2.225,2.225,0,0,0-1.591.642,2.182,2.182,0,0,0-.648,1.576,1.742,1.742,0,0,0,.057.424v.1H12.317V18.313h.093a2.2,2.2,0,0,0,2.064-.659,2.032,2.032,0,0,0,.516-1.61,2.187,2.187,0,0,0-.663-1.551,2.23,2.23,0,0,0-1.577-.631,1.781,1.781,0,0,0-.428.051l-.1.026V10.55a.554.554,0,0,0-.163-.4.565.565,0,0,0-.4-.165H8.2V9.9a2.061,2.061,0,0,0,.046-.429A2.213,2.213,0,0,0,7.165,7.457a2.258,2.258,0,0,0-2.3,0A2.213,2.213,0,0,0,3.777,9.466a1.732,1.732,0,0,0,.052.424v.1H.568A.565.565,0,0,0,0,10.55V32.9a.554.554,0,0,0,.167.4.565.565,0,0,0,.4.161H23a.56.56,0,0,0,.562-.557V28.57a.557.557,0,0,0-.346-.511.577.577,0,0,0-.619.123.965.965,0,0,1-.691.281,1.115,1.115,0,0,1-.8-.345,1.093,1.093,0,0,1-.3-.815,1.078,1.078,0,0,1,.32-.776,1.1,1.1,0,0,1,.784-.317,1.3,1.3,0,0,1,.738.322.572.572,0,0,0,.6.065.562.562,0,0,0,.323-.5V21.753A.56.56,0,0,0,23,21.2ZM1.13,11.107H4.809a.563.563,0,0,0,.511-.317.553.553,0,0,0-.072-.593,1.272,1.272,0,0,1-.325-.731,1.1,1.1,0,0,1,.53-1.014,1.119,1.119,0,0,1,1.153,0,1.1,1.1,0,0,1,.53,1.014.982.982,0,0,1-.284.67.553.553,0,0,0-.127.611.563.563,0,0,0,.525.345h3.808v3.772a.563.563,0,0,0,.919.44,1.3,1.3,0,0,1,.738-.322,1.1,1.1,0,0,1,.787.315,1.078,1.078,0,0,1,.322.778.309.309,0,0,0,0,.072.944.944,0,0,1-.217.767,1.037,1.037,0,0,1-.769.322.98.98,0,0,1-.691-.281.572.572,0,0,0-.614-.123.557.557,0,0,0-.351.511v3.833h-3.8a.563.563,0,0,0-.511.317.553.553,0,0,0,.072.593,1.272,1.272,0,0,1,.325.731,1.1,1.1,0,0,1-.53,1.014,1.119,1.119,0,0,1-1.153,0,1.1,1.1,0,0,1-.53-1.014.982.982,0,0,1,.284-.685.553.553,0,0,0,.127-.611.563.563,0,0,0-.525-.345H1.13Zm10.119,21.23H1.13V22.315H3.989v.092a2.025,2.025,0,0,0-.046.429,2.213,2.213,0,0,0,1.086,2.009,2.258,2.258,0,0,0,2.3,0,2.213,2.213,0,0,0,1.086-2.009,1.773,1.773,0,0,0-.052-.429l-.026-.092h2.91v2.893h-.093a2.083,2.083,0,0,0-.433-.046,2.217,2.217,0,0,0,0,4.431,1.792,1.792,0,0,0,.433-.051h.093Zm11.187-7.186h-.093a1.792,1.792,0,0,0-.433-.051,2.22,2.22,0,0,0-1.588.641,2.177,2.177,0,0,0-.647,1.572,2.212,2.212,0,0,0,.646,1.582,2.255,2.255,0,0,0,1.588.662,2.49,2.49,0,0,0,.433,0h.093v2.826H12.385V28.57a.562.562,0,0,0-.321-.5.572.572,0,0,0-.6.064,1.322,1.322,0,0,1-.743.322,1.1,1.1,0,0,1,0-2.193.99.99,0,0,1,.7.286.569.569,0,0,0,.965-.394V22.32h3.8A.568.568,0,0,0,16.7,22a.558.558,0,0,0-.065-.592,1.282,1.282,0,0,1-.325-.731,1.078,1.078,0,0,1,.319-.78,1.1,1.1,0,0,1,.786-.319,1.13,1.13,0,0,1,1.1,1.1.971.971,0,0,1-.284.7.553.553,0,0,0-.126.613.563.563,0,0,0,.529.343h3.8Z" transform="translate(0 -3.456)" fill="#0a346c" stroke="#0a346c" stroke-width="0.4"/>
    </g>
  </g>
</svg>
