<svg xmlns="http://www.w3.org/2000/svg" width="48" height="48" viewBox="0 0 48 48">
  <g id="Lead_SMS_Report" data-name="Lead SMS Report" transform="translate(-1.241 2.953)">
    <rect id="Rectangle_2075" data-name="Rectangle 2075" width="48" height="48" transform="translate(1.241 -2.953)" fill="none"/>
    <g id="Lead_SMS_Report-2" data-name="Lead SMS Report" transform="translate(1.77 -1.168)">
      <path id="Blue" d="M10697.8,2229.179l-18.437-15.209s.415-4.062,4.167-4.062,21.354-.1,21.354-.1v10.625s-1.146,1.458,1.563,2.5-6.459,6.25-6.459,6.25Z" transform="translate(-10678.54 -2195.317)" fill="#58a5da"/>
      <path id="Blue-2" data-name="Blue" d="M11537.144,1911.279v5.168a2.435,2.435,0,0,0,2.513,1.991c2.275.095,4.884,0,4.884,0Z" transform="translate(-11497.824 -1910.19)" fill="#58a5da"/>
      <g id="Component_26_3" data-name="Component 26 – 3" transform="translate(0 0)">
        <path id="Path_1845" data-name="Path 1845" d="M47.372,7.316a.764.764,0,0,0-.227-.542L39.779-.515a.768.768,0,0,0-.465-.218L39.16-.747a.712.712,0,0,0-.077,0L28.9-.7a3.673,3.673,0,0,0-3.65,3.689L25.3,13.05H5.138A5.148,5.148,0,0,0,0,18.195V38.711A5.124,5.124,0,0,0,1.185,42a.77.77,0,0,0,.143.193.755.755,0,0,0,.111.089,5.12,5.12,0,0,0,3.7,1.578H35.754a5.121,5.121,0,0,0,3.7-1.575A.761.761,0,0,0,39.705,42a5.129,5.129,0,0,0,1.188-3.286V27.987l2.911-.014a3.674,3.674,0,0,0,3.65-3.689L47.373,7.438Zm-2.6-.738-2.609.012h-.011a2.137,2.137,0,0,1-2.136-2.129L40,1.859Zm-39.629,8H25.305l.047,9.807a3.675,3.675,0,0,0,1.978,3.24L22.5,31.735a3.158,3.158,0,0,1-4.1,0L1.6,17.493a3.614,3.614,0,0,1,3.539-2.91ZM39.362,38.711a3.6,3.6,0,0,1-.442,1.731l-9.2-9.371a.766.766,0,0,0-1.092,1.074L37.914,41.6a3.589,3.589,0,0,1-2.16.72H5.138A3.587,3.587,0,0,1,2.973,41.6l9.234-9.455a.766.766,0,1,0-1.094-1.071L1.969,40.436a3.6,3.6,0,0,1-.439-1.724V19.442L17.413,32.906a4.682,4.682,0,0,0,6.079,0l5.717-4.862,10.153-.049ZM43.8,26.44l-14.766.071h-.011a2.14,2.14,0,0,1-2.136-2.129l-.1-21.4A2.14,2.14,0,0,1,28.907.831L38.463.785l.018,3.684a3.67,3.67,0,0,0,3.666,3.654h.018L45.845,8.1l.077,16.187A2.14,2.14,0,0,1,43.8,26.44Zm0,0" transform="translate(0.001 0.751)" fill="#09346c"/>
      </g>
      <g id="Group_4362" data-name="Group 4362" transform="translate(28.051 5.599)">
        <g id="Group_45" data-name="Group 45" transform="translate(4.876)">
          <path id="Path_75" data-name="Path 75" d="M3658.377,1787.987c-.05-3.324-3.721-3.7-3.721-3.7v3.7Z" transform="translate(-3654.394 -1783.809)" fill="#57a7dc" stroke="#707070" stroke-width="1"/>
          <path id="Path_59" data-name="Path 59" d="M266.995,86.806h-1.434a.269.269,0,0,0-.224.12l-.609.913a3.975,3.975,0,0,0-2.323-.746.269.269,0,0,0-.269.269V91.09a.269.269,0,0,0,.269.269h3.729a.269.269,0,0,0,.269-.269,3.987,3.987,0,0,0-1.258-2.908l.559-.838h1.29a.269.269,0,1,0,0-.538Zm-1.14,4.015h-3.18v-3.18a3.439,3.439,0,0,1,1.755.646l-.24.36a.269.269,0,1,0,.447.3l.205-.308A3.451,3.451,0,0,1,265.855,90.821Z" transform="translate(-262.137 -86.806)" fill="#0a346c"/>
        </g>
        <path id="Path_60" data-name="Path 60" d="M135.164,134.47h-2.432l-.429-.686a3.984,3.984,0,0,0,1.122-2.774.269.269,0,0,0-.269-.269H129.7v-3.46a.269.269,0,0,0-.269-.269,4,4,0,1,0,2.47,7.138l.457.73a.269.269,0,0,0,.228.126h2.581a.269.269,0,0,0,0-.538Zm-3.787-2.168a.269.269,0,1,0-.456.285l.691,1.105a3.459,3.459,0,1,1-2.452-6.131v3.449a.269.269,0,0,0,.269.269h3.449a3.446,3.446,0,0,1-.869,2.033Z" transform="translate(-125.43 -125.579)" fill="#0a346c"/>
      </g>
      <g id="Group_4363" data-name="Group 4363" transform="translate(28.852 18.989)">
        <g id="Group_61" data-name="Group 61">
          <path id="Path_61" data-name="Path 61" d="M105.536,376.3H101.75a.444.444,0,0,0,0,.887h3.786a.444.444,0,0,0,0-.887Z" transform="translate(-101.306 -376.3)" fill="#57a7dc"/>
          <path id="Path_62" data-name="Path 62" d="M202.035,376.3h-3.786a.444.444,0,0,0,0,.887h3.786a.444.444,0,1,0,0-.887Z" transform="translate(-192.126 -376.3)" fill="#57a7dc"/>
          <path id="Path_63" data-name="Path 63" d="M107.9,416.508H101.75a.444.444,0,1,0,0,.887H107.9a.444.444,0,0,0,0-.887Z" transform="translate(-101.306 -414.142)" fill="#57a7dc"/>
          <path id="Path_64" data-name="Path 64" d="M239.876,416.508h-1.42a.444.444,0,1,0,0,.887h1.42a.444.444,0,0,0,0-.887Z" transform="translate(-229.966 -414.142)" fill="#57a7dc"/>
          <path id="Path_65" data-name="Path 65" d="M103.643,456.715H101.75a.444.444,0,1,0,0,.887h1.893a.444.444,0,1,0,0-.887Z" transform="translate(-101.306 -451.982)" fill="#57a7dc"/>
          <path id="Path_66" data-name="Path 66" d="M171.762,456.715h-5.679a.444.444,0,1,0,0,.887h5.679a.444.444,0,1,0,0-.887Z" transform="translate(-161.853 -451.982)" fill="#57a7dc"/>
        </g>
      </g>
    </g>
  </g>
</svg>
