<svg xmlns="http://www.w3.org/2000/svg" width="36" height="36" viewBox="0 0 36 36">
  <g id="Manage" transform="translate(-1352.34 -529.339)">
    <rect id="Rectangle_2010" data-name="Rectangle 2010" width="36" height="36" transform="translate(1352.34 529.339)" fill="none"/>
    <g id="process" transform="translate(1352.34 531.339)">
      <g id="Setting" transform="translate(20.642 17.642)">
        <path id="Path_1727" data-name="Path 1727" d="M286.358,281.115v-3.873l-1.484-.379-.031-.075.781-1.316-2.739-2.739-1.316.781-.075-.031L281.115,272h-3.873l-.379,1.484-.075.031-1.316-.781-2.739,2.739.781,1.316-.031.075-1.483.379v3.873l1.484.379.031.075-.781,1.316,2.739,2.739,1.316-.781.075.031.379,1.483h3.873l.379-1.484.075-.031,1.316.781,2.739-2.739-.781-1.316.031-.075Zm-2.022,1.609-1.612,1.612-1.1-.65-.247.118a5.118,5.118,0,0,1-.489.2l-.258.092-.315,1.234h-2.281l-.315-1.234-.258-.092a4.826,4.826,0,0,1-.489-.2l-.247-.118-1.1.65-1.612-1.612.65-1.1-.118-.247a5.141,5.141,0,0,1-.2-.489l-.092-.258-1.235-.315v-2.281l1.234-.315.092-.258a4.832,4.832,0,0,1,.2-.489l.118-.247-.65-1.1,1.612-1.612,1.1.65.247-.118a5.151,5.151,0,0,1,.489-.2l.258-.092.315-1.235h2.28l.315,1.234.258.092a4.835,4.835,0,0,1,.489.2l.247.118,1.1-.65,1.612,1.612-.65,1.1.118.247a5.127,5.127,0,0,1,.2.489l.092.258,1.235.315v2.28l-1.234.315-.092.258a4.828,4.828,0,0,1-.2.489l-.118.247Zm0,0" transform="translate(-272 -272)" fill="#0a346c" stroke="#0a336b" stroke-width="0.4"/>
        <path id="Path_1728" data-name="Path 1728" d="M324.1,320a4.1,4.1,0,1,0,4.1,4.1A4.107,4.107,0,0,0,324.1,320Zm0,7.179a3.077,3.077,0,1,1,3.077-3.077A3.08,3.08,0,0,1,324.1,327.179Zm0,0" transform="translate(-316.923 -316.923)" fill="#57a7dc"/>
        <path id="Path_1729" data-name="Path 1729" d="M354.051,352a2.051,2.051,0,1,0,2.051,2.051A2.053,2.053,0,0,0,354.051,352Zm0,3.077a1.026,1.026,0,1,1,1.026-1.026A1.027,1.027,0,0,1,354.051,355.077Zm0,0" transform="translate(-346.908 -346.908)" fill="#0a346c"/>
      </g>
      <g id="User" transform="translate(9.827)">
        <path id="Path_1744" data-name="Path 1744" d="M20.986,16.371l-1.3-.567L18.41,17.956l1.787.815Z" transform="translate(-12.014 -4.74)" fill="#57a7dc"/>
        <path id="Path_1743" data-name="Path 1743" d="M18.41,16.458l1.572-.654,1.543,2.483-2.16.94Z" transform="translate(-15.355 -4.738)" fill="#57a7dc"/>
        <path id="Path_1742" data-name="Path 1742" d="M17.019,5.408s-.353-4.6,4-4.774S25.2,5.526,25.2,5.526H24.011l-3-1.263-4,1.572Z" transform="translate(-14.918 -0.192)" fill="#57a7dc"/>
        <path id="Path_1730" data-name="Path 1730" d="M155.244,8.683a3.082,3.082,0,0,0,.859,1.3v.435l-2.438.914a2.575,2.575,0,0,0-1.664,2.4v2.681h12.307V13.728a2.577,2.577,0,0,0-1.664-2.4l-2.439-.914V9.979a3.076,3.076,0,0,0,.859-1.3,2.05,2.05,0,0,0,1.705-2.016V4.615a4.615,4.615,0,1,0-9.23,0V6.666a2.05,2.05,0,0,0,1.705,2.016Zm3.936,1.944-1.026,1.709-1.026-1.709v-.038a3.019,3.019,0,0,0,2.051,0ZM156.4,11.4l1.034,1.722-1.027.513-.664-1.99Zm6.886,2.33v1.655H153.026V13.728a1.545,1.545,0,0,1,1-1.44l.754-.282,1.025,3.076,2.351-1.175,2.351,1.175,1.025-3.076.754.283a1.544,1.544,0,0,1,1,1.44Zm-2.713-2.083-.664,1.99-1.027-.513,1.034-1.723Zm-2.415-1.9A2.053,2.053,0,0,1,156.1,7.692V5.606a3.97,3.97,0,0,0,2.051-.819,3.965,3.965,0,0,0,2.051.819V7.692A2.053,2.053,0,0,1,158.154,9.743Zm3.077-2.194V5.784a1.016,1.016,0,0,1,0,1.766Zm-3.077-6.524a3.594,3.594,0,0,1,3.59,3.59V4.9a2.029,2.029,0,0,0-1.026-.285h-.088a2.968,2.968,0,0,1-2.113-.875l-.363-.363-.363.363a2.968,2.968,0,0,1-2.113.875h-.088a2.029,2.029,0,0,0-1.026.285V4.615a3.594,3.594,0,0,1,3.59-3.59Zm-3.077,4.758V7.549a1.016,1.016,0,0,1,0-1.766Zm0,0" transform="translate(-152 0)" fill="#0a346c" stroke="#0a336b" stroke-width="0.4"/>
      </g>
      <g id="Report" transform="translate(1 18.667)">
        <path id="Path_1731" data-name="Path 1731" d="M0,301.333H10.256V288H0Zm1.026-12.307h8.2v11.281h-8.2Zm0,0" transform="translate(0 -288)" fill="#0a346c" stroke="#0a336b" stroke-width="0.4"/>
        <g id="Group_4234" data-name="Group 4234" transform="translate(2.095 2.051)">
          <path id="Path_1732" data-name="Path 1732" d="M32,320h6.067v1.011H32Zm0,0" transform="translate(-32 -320)" fill="#57a7dc"/>
          <path id="Path_1733" data-name="Path 1733" d="M32,352h1.011v1.011H32Zm0,0" transform="translate(-32 -349.965)" fill="#57a7dc"/>
          <path id="Path_1734" data-name="Path 1734" d="M64,352h4.045v1.011H64Zm0,0" transform="translate(-61.978 -349.965)" fill="#57a7dc"/>
          <path id="Path_1735" data-name="Path 1735" d="M32,384h6.067v1.011H32Zm0,0" transform="translate(-32 -379.929)" fill="#57a7dc"/>
          <path id="Path_1736" data-name="Path 1736" d="M32,416h6.067v1.011H32Zm0,0" transform="translate(-32 -409.868)" fill="#57a7dc"/>
          <path id="Path_1737" data-name="Path 1737" d="M112,448h1.011v1.011H112Zm0,0" transform="translate(-106.899 -439.846)" fill="#57a7dc"/>
          <path id="Path_1738" data-name="Path 1738" d="M32,448h4.045v1.011H32Zm0,0" transform="translate(-32 -439.846)" fill="#57a7dc"/>
        </g>
      </g>
      <g id="Arrow" transform="translate(4.667 4.618)">
        <path id="Path_1739" data-name="Path 1739" d="M167.826,347.069l-.725-.725-2.414,2.414,2.414,2.414.725-.725-1.176-1.176h3.89v-1.026h-3.89Zm0,0" transform="translate(-156.151 -328.555)" fill="#57a7dc"/>
        <path id="Path_1740" data-name="Path 1740" d="M73.026,77.783a.513.513,0,0,1,.513-.513H75.89l-1.176,1.176.725.725,2.414-2.414-2.414-2.414-.725.725,1.176,1.176H73.538A1.54,1.54,0,0,0,72,77.783v9.23h1.026Zm0,0" transform="translate(-72 -74.344)" fill="#57a7dc"/>
        <path id="Path_1741" data-name="Path 1741" d="M339.022,105.538v6.454l-1.176-1.176-.725.725,2.414,2.414,2.414-2.414-.725-.725-1.176,1.176v-6.454A1.54,1.54,0,0,0,338.509,104l-3.562,0v1.021h3.562A.513.513,0,0,1,339.022,105.538Zm0,0" transform="translate(-316.932 -102.104)" fill="#57a7dc"/>
      </g>
    </g>
  </g>
</svg>
