<svg xmlns="http://www.w3.org/2000/svg" width="34" height="34" viewBox="0 0 34 34">
  <g id="Reports" transform="translate(1.001 1.001)">
    <rect id="Rectangle_2006" data-name="Rectangle 2006" width="34" height="34" transform="translate(-1.001 -1.001)" fill="none"/>
    <g id="Group_4232" data-name="Group 4232">
      <g id="Group_4231" data-name="Group 4231">
        <path id="Path_1717" data-name="Path 1717" d="M-16622.066-1157.292l-.018.548.018-6.63s6.145.711,6.293,6.606h-6.293" transform="translate(16631.391 1167.412)" fill="#57a7dc"/>
        <path id="Path_1713" data-name="Path 1713" d="M59.35,54.729a.625.625,0,0,0-.625.625v1.124a5.748,5.748,0,1,0,6.339,6.339h1.124a.625.625,0,0,0,.625-.625A7.472,7.472,0,0,0,59.35,54.729Zm0,11.962a4.5,4.5,0,0,1-.625-8.953v4.455a.625.625,0,0,0,.625.625h4.455A4.505,4.505,0,0,1,59.35,66.691Zm.625-5.123h0V56.01a6.226,6.226,0,0,1,5.557,5.558Z" transform="translate(-50.251 -51.309)" fill="#0a346c" stroke="#0a346c" stroke-width="0.5"/>
      </g>
      <g id="Group_4230" data-name="Group 4230">
        <rect id="Rectangle_2007" data-name="Rectangle 2007" width="4" height="13" transform="translate(20.999 17.999)" fill="#57a7dc"/>
        <path id="Path_1711" data-name="Path 1711" d="M31.374,13.046h-4a.625.625,0,0,0-.625.625v3.156a.625.625,0,0,0,1.25,0V14.3h2.75V30.749H28V21.515a.625.625,0,1,0-1.25,0v9.234H25.5V17.812a.625.625,0,0,0-.625-.625h-4a.625.625,0,0,0-.625.625V30.749H19V22.186a.625.625,0,0,0-.625-.625h-4a.625.625,0,0,0-.625.625v8.562H12.5V25.772a.625.625,0,0,0-.625-.625h-4a.625.625,0,0,0-.625.625v4.976H1.875a.626.626,0,0,1-.625-.625V1.875a.626.626,0,0,1,.625-.625H18V5.375A1.877,1.877,0,0,0,19.873,7.25H24v7.687a.625.625,0,1,0,1.25,0V6.625a.625.625,0,0,0-.183-.442l-6-6A.625.625,0,0,0,18.623,0H1.875A1.877,1.877,0,0,0,0,1.875V30.124A1.877,1.877,0,0,0,1.875,32h29.5A.625.625,0,0,0,32,31.374v-17.7A.625.625,0,0,0,31.374,13.046ZM19.248,2.134,23.114,6H19.873a.626.626,0,0,1-.625-.625Zm-8,28.615H8.5V26.4h2.75Zm6.5,0H15V22.811h2.75Zm6.5,0H21.5V18.437h2.75Z" transform="translate(0.001 -0.001)" fill="#0a346c" stroke="#0a346c" stroke-width="0.5"/>
        <path id="Path_1712" data-name="Path 1712" d="M429.707,295.183a1,1,0,1,0,.293.707A1,1,0,0,0,429.707,295.183Z" transform="translate(-401.56 -276.771)" fill="#57a7dc"/>
      </g>
      <g id="Group_4229" data-name="Group 4229">
        <path id="Path_1714" data-name="Path 1714" d="M65.431,294.25H54.569c-.314,0-.569.448-.569,1s.255,1,.569,1H65.431c.314,0,.569-.448.569-1S65.745,294.25,65.431,294.25Z" transform="translate(-50.624 -276.251)" fill="#57a7dc"/>
        <path id="Path_1715" data-name="Path 1715" d="M59.286,342.5H54.714c-.395,0-.714.448-.714,1s.32,1,.714,1h4.571c.395,0,.714-.448.714-1S59.68,342.5,59.286,342.5Z" transform="translate(-50.624 -321.501)" fill="#57a7dc"/>
        <path id="Path_1716" data-name="Path 1716" d="M169.787,342.793a1,1,0,1,0,.293.707A1.008,1.008,0,0,0,169.787,342.793Z" transform="translate(-157.574 -321.501)" fill="#0a346c"/>
      </g>
    </g>
  </g>
</svg>
