<svg xmlns="http://www.w3.org/2000/svg" width="17.734" height="17.734" viewBox="0 0 17.734 17.734"><path d="M0,0H17.734V17.734H0Z" fill="none"/><g transform="translate(9.758 2.632)" fill="#fff" stroke="#585574" stroke-width="1"><rect width="5.344" height="5.344" rx="1" stroke="none"/><rect x="0.5" y="0.5" width="4.344" height="4.344" rx="0.5" fill="none"/></g><g transform="translate(2.632 9.758)" fill="#fff" stroke="#585574" stroke-width="1"><rect width="5.344" height="5.344" rx="1" stroke="none"/><rect x="0.5" y="0.5" width="4.344" height="4.344" rx="0.5" fill="none"/></g><g transform="translate(9.758 9.758)" fill="#fff" stroke="#585574" stroke-width="1"><rect width="5.344" height="5.344" rx="1" stroke="none"/><rect x="0.5" y="0.5" width="4.344" height="4.344" rx="0.5" fill="none"/></g><g transform="translate(2.632 2.632)" fill="#585574" stroke="#585574" stroke-width="1"><rect width="5.344" height="5.344" rx="1" stroke="none"/><rect x="0.5" y="0.5" width="4.344" height="4.344" rx="0.5" fill="none"/></g><g transform="translate(2.632 9.758)" fill="#585574" stroke="#585574" stroke-width="1"><rect width="5.344" height="5.344" rx="1" stroke="none"/><rect x="0.5" y="0.5" width="4.344" height="4.344" rx="0.5" fill="none"/></g><g transform="translate(9.758 9.758)" fill="#585574" stroke="#585574" stroke-width="1"><rect width="5.344" height="5.344" rx="1" stroke="none"/><rect x="0.5" y="0.5" width="4.344" height="4.344" rx="0.5" fill="none"/></g></svg>