<svg id="call-answer" xmlns="http://www.w3.org/2000/svg" width="10.842" height="10.817" viewBox="0 0 10.842 10.817">
  <g id="Group_3605" data-name="Group 3605" transform="translate(0 0)">
    <g id="Group_3604" data-name="Group 3604">
      <path id="Path_1750" data-name="Path 1750" d="M10.6,8.95,8.924,7.275A.873.873,0,0,0,7.693,7.3l-.844.843-.166-.093A8.4,8.4,0,0,1,4.654,6.582a8.441,8.441,0,0,1-1.47-2.033c-.031-.056-.061-.111-.091-.163l.566-.565.278-.279A.872.872,0,0,0,3.96,2.311L2.286.637A.872.872,0,0,0,1.055.66l-.472.475L.6,1.147a2.729,2.729,0,0,0-.389.686,2.844,2.844,0,0,0-.173.7C-.187,4.362.65,6.037,2.923,8.31c3.142,3.142,5.674,2.9,5.783,2.893a2.829,2.829,0,0,0,.7-.175,2.72,2.72,0,0,0,.683-.387l.01.009.478-.468A.874.874,0,0,0,10.6,8.95Z" transform="translate(0 -0.394)" fill="#585574"/>
    </g>
  </g>
</svg>
