<svg xmlns="http://www.w3.org/2000/svg" width="12.314" height="12.539" viewBox="0 0 12.314 12.539"><g transform="translate(0)"><path d="M14.789,203.583a10.569,10.569,0,0,0-2.609,1.19,5.5,5.5,0,0,1-2.894.1c.272-.128,1.377-.391,1.6-.489,1.182-.52,1.082-1.6.519-1.6-.744.013-1.181.2-2.665.4a22.235,22.235,0,0,0-3.094.341c-.9.344-2.352,2.66-2.352,2.66l2.243,2.174s1.389-1.368,2.065-1.368c1.54,0,1.6-.021,3.032-.1a3.142,3.142,0,0,0,1.083-.175,10.564,10.564,0,0,0,3.881-2.5C15.682,203.76,15.173,203.56,14.789,203.583Z" transform="translate(-3.293 -195.823)" fill="#585574"/><path d="M65.829,6.186a.216.216,0,0,0,.205.016,4.249,4.249,0,0,1,3.619,0,.221.221,0,0,0,.177,0,4.249,4.249,0,0,1,3.619,0,.216.216,0,0,0,.3-.2V.634a.212.212,0,0,0-.129-.2A4.771,4.771,0,0,0,71.66,0a4.712,4.712,0,0,0-1.732.339V2.976a.188.188,0,1,1-.375,0V.339A4.706,4.706,0,0,0,67.822,0a4.776,4.776,0,0,0-1.964.436.238.238,0,0,0-.129.2V6.005A.215.215,0,0,0,65.829,6.186Zm.333-1.2a4.5,4.5,0,0,1,1.661-.327,4.558,4.558,0,0,1,1.875.417.108.108,0,0,0,.088,0,4.558,4.558,0,0,1,1.875-.417,4.5,4.5,0,0,1,1.661.327v.7a4.668,4.668,0,0,0-3.58.087,4.667,4.667,0,0,0-3.58-.087v-.7Z" transform="translate(-63.585)" fill="#585574"/></g></svg>