<svg xmlns="http://www.w3.org/2000/svg" width="12.176" height="12.181" viewBox="0 0 12.176 12.181"><g transform="translate(0 0)"><path d="M51.049,485.593a.616.616,0,0,1-.587.485.2.2,0,0,0-.077.381.615.615,0,0,1,.355.674l-.052.26a.648.648,0,0,1-.778.475c-.093-.022-.188-.04-.282-.058l-.415-.083-.549-.11-.654-.131-.731-.147-.78-.157-.8-.161-.792-.159-.757-.152-.692-.138-.6-.12-.48-.1-.33-.067-.152-.031H41.89a.626.626,0,0,1-.045.394.634.634,0,0,1-.695.356.186.186,0,0,0-.209.091l-.111.241a.187.187,0,0,0,.066.219c.012.01,8.923,4.118,8.938,4.122a.187.187,0,0,0,.209-.091l.111-.241a.187.187,0,0,0-.066-.219.633.633,0,0,1,.516-1.115.186.186,0,0,0,.209-.091l.111-.241a.187.187,0,0,0-.066-.219.633.633,0,0,1,.516-1.115.187.187,0,0,0,.209-.091l.111-.241a.187.187,0,0,0-.066-.219.633.633,0,0,1,.516-1.115.186.186,0,0,0,.209-.091l.122-.267a.152.152,0,0,0-.074-.2L51.07,485.5Z" transform="translate(-40.314 -479.501)" fill="#585574"/><path d="M.322,6.006c.015.007,9.634,1.937,9.65,1.937a.187.187,0,0,0,.182-.137l.052-.26a.188.188,0,0,0-.115-.2.633.633,0,0,1,.242-1.205.187.187,0,0,0,.182-.137l.038-.19.014-.07a.188.188,0,0,0-.115-.2.633.633,0,0,1,.242-1.205.187.187,0,0,0,.182-.137l.052-.26a.188.188,0,0,0-.115-.2.633.633,0,0,1,.242-1.205.187.187,0,0,0,.182-.137l.058-.288a.152.152,0,0,0-.12-.179S1.508,0,1.5,0a.153.153,0,0,0-.15.122L1.291.409a.188.188,0,0,0,.115.2.633.633,0,0,1-.242,1.205.187.187,0,0,0-.182.137l-.052.26a.188.188,0,0,0,.115.2A.633.633,0,0,1,.8,3.613a.187.187,0,0,0-.182.137l-.052.26a.188.188,0,0,0,.115.2A.633.633,0,0,1,.442,5.413.187.187,0,0,0,.26,5.55l-.052.26A.184.184,0,0,0,.322,6.006Zm8.24-3.169a.309.309,0,1,1,.606.121l-.408,2.03L8.508,6.24a.309.309,0,0,1-.3.248.336.336,0,0,1-.061-.006A.309.309,0,0,1,7.9,6.118l.281-1.4ZM2.988,1.719a.309.309,0,1,1,.606.121l-.141.7-.159.795-.129.64L2.936,5.121a.309.309,0,0,1-.3.248.335.335,0,0,1-.061-.006l-.025-.006A.308.308,0,0,1,2.332,5l.046-.231.12-.6Z" transform="translate(-0.205 0.001)" fill="#585574"/></g></svg>