<svg xmlns="http://www.w3.org/2000/svg" width="14.264" height="16.104" viewBox="0 0 14.264 16.104"><g transform="translate(-0.723)"><path d="M245.3,292.719l.55,1.1h4.778l-.55-1.1Zm0,0" transform="translate(-236.889 -282.662)" fill="#585574"/><path d="M69.686,292.719H64.909l-.55,1.1h4.778Zm0,0" transform="translate(-62.16 -282.662)" fill="#585574"/><path d="M101.307,318.609v2.409h-.55v-2.409l-.38.76H96.359v4.4h4.4v-1.924h.55v1.924h4.4v-4.4h-4.018Zm-2.749,4.608H96.909v-.55h1.649Zm0-1.1H96.909v-.55h1.649Zm1.1,1.1h-.55v-.55h.55Zm0,0" transform="translate(-93.061 -307.662)" fill="#585574"/><path d="M173.661,4.083l1.269-.324,1.269.324.1-1.363.675-1.152-1.193-.516L174.93,0l-.851,1.052-1.193.516.675,1.152Zm0,0" transform="translate(-166.959 0)" fill="#585574"/><path d="M14.924,89.62l.4-.682-.708-.307L14.105,88l-.511.632-.708.307.4.682.059.813.76-.194.76.194Zm0,0" transform="translate(-11.456 -84.976)" fill="#585574"/><path d="M381.345,90.434l.76-.194.76.194.059-.813.4-.682-.708-.307L382.1,88l-.511.632-.708.307.4.682Zm0,0" transform="translate(-368.812 -84.976)" fill="#585574"/><path d="M381.21,89.717l.536-.137.536.137.041-.574.282-.481-.5-.216-.36-.446-.36.446-.5.216.282.481Zm0,0" transform="translate(198.568 -338.142) rotate(105)" fill="#585574"/><path d="M381.21,89.717l.536-.137.536.137.041-.574.282-.481-.5-.216-.36-.446-.36.446-.5.216.282.481Zm0,0" transform="translate(-181.452 -338.805) rotate(49)" fill="#585574"/><path d="M78.241,130.312a6.1,6.1,0,0,1,1.381,1.267l1.089,1.36-.225-1.8a3.531,3.531,0,0,0-1.378-2.374l-.263-.2-.806,1.611Zm0,0" transform="translate(-74.37 -124.149)" fill="#585574"/><path d="M309.136,131.13l-.225,1.8L310,131.571a6.1,6.1,0,0,1,1.381-1.267l.2-.135-.806-1.611-.263.2a3.529,3.529,0,0,0-1.378,2.374Zm0,0" transform="translate(-299.309 -124.142)" fill="#585574"/><path d="M224.359,124.719h.55v.55h-.55Zm0,0" transform="translate(-216.663 -120.434)" fill="#585574"/><path d="M224.359,156.719h.55v3.573h-.55Zm0,0" transform="translate(-216.663 -151.334)" fill="#585574"/></g></svg>