<svg xmlns="http://www.w3.org/2000/svg" width="24" height="24" viewBox="0 0 24 24">
  <g id="Branches" transform="translate(-1.179 -10.627)">
    <path id="Subtraction_4" data-name="Subtraction 4" d="M12,24a12.194,12.194,0,0,1-1.227-.062A11.982,11.982,0,0,1,.062,13.227a12.179,12.179,0,0,1,0-2.454A11.982,11.982,0,0,1,10.773.062a12.18,12.18,0,0,1,2.454,0A11.982,11.982,0,0,1,23.938,10.773a12.179,12.179,0,0,1,0,2.454A11.982,11.982,0,0,1,13.227,23.938,12.193,12.193,0,0,1,12,24Zm.579-11.44h4.639v1.289a2.38,2.38,0,1,0,1.1,0V12.01a.551.551,0,0,0-.55-.55h-5.19v-1.3a2.357,2.357,0,1,0-1.1.028v1.276H6.228a.551.551,0,0,0-.55.55v1.839a2.38,2.38,0,1,0,1.1,0V12.56h4.7v1.275a2.393,2.393,0,0,0-1.34.821,2.384,2.384,0,1,0,2.44-.793Zm5.191,4.88a1.275,1.275,0,1,1,.5-.1A1.271,1.271,0,0,1,17.77,17.44Zm-5.788,0a1.275,1.275,0,1,1,.5-.1A1.27,1.27,0,0,1,11.982,17.44Zm-5.756,0a1.275,1.275,0,1,1,.5-.1A1.27,1.27,0,0,1,6.226,17.44Zm5.756-8.3a1.275,1.275,0,1,1,.5-.1A1.269,1.269,0,0,1,11.982,9.136Z" transform="translate(1.179 10.627)" fill="#fff"/>
  </g>
</svg>
