<svg xmlns="http://www.w3.org/2000/svg" width="92" height="92" viewBox="0 0 92 92">
  <g id="Cahnge_Password" data-name="Cahnge Password" transform="translate(-16493 -2771)">
    <rect id="Rectangle_2122" data-name="Rectangle 2122" width="92" height="92" transform="translate(16493 2771)" fill="none"/>
    <g id="key" transform="translate(16491.021 2772)">
      <path id="Path_2209" data-name="Path 2209" d="M35.732,41.826,6.177,71.382V86.446H18.053l5.557-4.715V75.165l7.408-1.01V71.382l4.715-1.268V63.547h6.063l9.26-8.924L49.539,36.27Z" fill="#3b3b3b"/>
      <circle id="Ellipse_35" data-name="Ellipse 35" cx="27.5" cy="27.5" r="27.5" transform="translate(33.979 2)" fill="#3b3b3b"/>
      <path id="Path_2206" data-name="Path 2206" d="M61.767,0a30.419,30.419,0,0,1,0,60.836,29.8,29.8,0,0,1-10.722-1.973l-7.006,7.054a2.2,2.2,0,0,1-1.557.65H37.744v4.768a2.209,2.209,0,0,1-2.2,2.217H33.385v2.172a2.209,2.209,0,0,1-2.2,2.217H25.8V83.37a2.221,2.221,0,0,1-.647,1.567l-4.39,4.414A2.182,2.182,0,0,1,19.208,90H6.181a2.21,2.21,0,0,1-2.2-2.217V71.867A2.228,2.228,0,0,1,4.624,70.3L33.513,41.212A30.468,30.468,0,0,1,61.767,0ZM87.576,30.418a25.809,25.809,0,1,0-49.457,10.43,2.227,2.227,0,0,1-.44,2.438l-.018.02L8.382,72.785V76.79L32.491,52.517a1.975,1.975,0,0,1,2.8,0,2.007,2.007,0,0,1,0,2.822L8.382,82.434v3.132H18.3l3.1-3.117V75.724a2.21,2.21,0,0,1,2.2-2.217h5.383V71.335a2.21,2.21,0,0,1,2.2-2.217h2.158V64.35a2.209,2.209,0,0,1,2.2-2.217h6.028l7.393-7.446.02-.018a2.19,2.19,0,0,1,2.422-.443A25.478,25.478,0,0,0,61.767,56.4,25.927,25.927,0,0,0,87.576,30.418Z" transform="translate(0 -1)" fill="#7b7b7b"/>
      <g id="Ellipse_36" data-name="Ellipse 36" transform="translate(59.979 14)" fill="#e4e4e4" stroke="#707070" stroke-width="2">
        <circle cx="8" cy="8" r="8" stroke="none"/>
        <circle cx="8" cy="8" r="7" fill="none"/>
      </g>
    </g>
  </g>
</svg>
