<svg width="29" height="23" viewBox="0 0 29 23" fill="none" xmlns="http://www.w3.org/2000/svg">
<path d="M4.93515 15.848L3.09925 17.906C4.62442 18.553 6.1683 17.6549 6.80116 17.2046C8.84467 18.3275 11.2392 18.6297 13.4976 18.0497C15.7561 17.4696 17.7087 16.0509 18.9581 14.0823C20.2076 12.1136 20.6601 9.74284 20.2236 7.45236C19.7871 5.16188 18.4943 3.12375 16.6083 1.75267C14.7223 0.381588 12.3847 -0.219443 10.0713 0.071865C7.75784 0.363173 5.64229 1.52493 4.15506 3.32077C2.66784 5.11661 1.92067 7.4116 2.06559 9.73881C2.21051 12.066 3.23662 14.2506 4.93515 15.848V15.848Z" fill="url(#paint0_linear)"/>
<path d="M6.26989 7.66553C8.16389 7.64581 10.0576 7.61195 11.9516 7.58622C12.583 7.57764 13.2144 7.57012 13.8458 7.56366C14.3898 7.558 14.3912 6.712 13.8458 6.71768C11.9518 6.7374 10.058 6.77126 8.16409 6.79699C7.5327 6.80557 6.9013 6.81309 6.26989 6.81955C5.72584 6.82521 5.72445 7.67121 6.26989 7.66553Z" fill="white"/>
<path d="M6.26989 9.63947L13.9247 9.56016L16.1017 9.5376C16.6458 9.53197 16.6472 8.68597 16.1017 8.69162L8.44694 8.77093L6.26989 8.79349C5.72584 8.79912 5.72445 9.64512 6.26989 9.63947Z" fill="white"/>
<path d="M6.26989 11.6134L13.9247 11.5341L16.1017 11.5115C16.6458 11.5059 16.6472 10.6599 16.1017 10.6656L8.44694 10.7449L6.26989 10.7674C5.72584 10.7731 5.72445 11.6191 6.26989 11.6134Z" fill="white"/>
<path d="M0.66694 19.6859C1.03528 19.6859 1.33388 19.3873 1.33388 19.019C1.33388 18.6507 1.03528 18.3521 0.66694 18.3521C0.298599 18.3521 0 18.6507 0 19.019C0 19.3873 0.298599 19.6859 0.66694 19.6859Z" fill="#E6E6E6"/>
<path d="M29.0004 13.2312C28.9996 11.2255 28.34 9.27562 27.1228 7.68142C25.9057 6.08721 24.1986 4.937 22.264 4.40769C20.3294 3.87837 18.2745 3.99927 16.4153 4.75179C14.5561 5.5043 12.9956 6.84676 11.9738 8.57268C10.9521 10.2986 10.5256 12.3124 10.76 14.3044C10.9944 16.2963 11.8767 18.1561 13.2712 19.5977C14.6657 21.0393 16.4952 21.9828 18.4783 22.2832C20.4614 22.5836 22.4883 22.2241 24.2471 21.2602C24.88 21.7105 26.4239 22.6086 27.949 21.9617L26.1131 19.9036C27.0258 19.0485 27.753 18.015 28.2497 16.8673C28.7463 15.7195 29.0019 14.4819 29.0004 13.2312Z" fill="url(#paint1_linear)"/>
<path d="M15.1644 11.7211C17.0584 11.7014 18.9522 11.6676 20.8461 11.6418C21.4775 11.6332 22.1089 11.6257 22.7403 11.6193C23.2843 11.6136 23.2857 10.7676 22.7403 10.7733C20.8463 10.793 18.9525 10.8269 17.0586 10.8526C16.4272 10.8612 15.7958 10.8687 15.1644 10.8752C14.6204 10.8808 14.619 11.7268 15.1644 11.7211Z" fill="white"/>
<path d="M15.1644 13.6951L22.8192 13.6158L24.9963 13.5932C25.5403 13.5876 25.5417 12.7416 24.9963 12.7472L17.3415 12.8265L15.1644 12.8491C14.6204 12.8547 14.619 13.7007 15.1644 13.6951V13.6951Z" fill="white"/>
<path d="M15.1644 15.669L22.8192 15.5897L24.9963 15.5671C25.5403 15.5615 25.5417 14.7155 24.9963 14.7212L17.3415 14.8005L15.1644 14.823C14.6204 14.8287 14.619 15.6747 15.1644 15.669Z" fill="white"/>
<defs>
<linearGradient id="paint0_linear" x1="11.2168" y1="0" x2="11.2168" y2="18.3379" gradientUnits="userSpaceOnUse">
<stop stop-color="#0097F9"/>
<stop offset="1" stop-color="#6E62FF" stop-opacity="0.74"/>
</linearGradient>
<linearGradient id="paint1_linear" x1="19.8488" y1="4.08325" x2="19.8488" y2="22.3864" gradientUnits="userSpaceOnUse">
<stop stop-color="#FFD56F"/>
<stop offset="1" stop-color="#FFBB15"/>
</linearGradient>
</defs>
</svg>
