<svg xmlns="http://www.w3.org/2000/svg" width="92" height="92" viewBox="0 0 92 92">
  <g id="City_Area_Map" data-name="City Area Map" transform="translate(-16448 -2663)">
    <rect id="bg" width="92" height="92" transform="translate(16448 2663)" fill="none"/>
    <g id="map" transform="translate(16442.578 2658.99)">
      <path id="Path_2191" data-name="Path 2191" d="M11.638,62.925H32.652v17.9L8.016,80.628Z" transform="translate(0.05 2.182)" fill="#7b7b7b"/>
      <path id="Path_2194" data-name="Path 2194" d="M86.451,47.007,71.434,56.6l19.19,12.1Z" transform="translate(2.013 1.47)" fill="#7b7b7b"/>
      <path id="Path_2193" data-name="Path 2193" d="M16464.135,2509.075l5.111-26.7,14.912.521-7.4,15.956h12.82v10.23Z" transform="translate(-16451.82 -2453.379)" fill="#7b7b7b" stroke="#707070" stroke-width="0.1"/>
      <path id="Path_2192" data-name="Path 2192" d="M16514.094,2522.066l-6.326-10.232s.432-6.912,6.326-6.541,6.139,6.541,6.139,6.541l-6.139,10.614" transform="translate(-16450.469 -2452.367)" fill="#7b7b7b"/>
      <path id="Path_2190" data-name="Path 2190" d="M16514.094,2522.066l-6.326-10.232s.432-6.912,6.326-6.541,6.139,6.541,6.139,6.541l-6.139,10.614" transform="translate(-16473.15 -2487.95)" fill="#7b7b7b"/>
      <path id="Path_2189" data-name="Path 2189" d="M86.6,28H46.623l.583-.969a7.465,7.465,0,0,0,.942-3.625,7.316,7.316,0,1,0-14.631,0,7.168,7.168,0,0,0,.962,3.662l.561.933H16.248L6.422,84.01h90Zm4.315,39.524-14.588-9.55,11.543-7.811Zm-4.3-24.51h-11.8v-6.6H51.253V30.605H84.434Zm-45.779-24.4a4.8,4.8,0,0,1,4.149,7.1l-4.149,6.906-4.166-6.931a4.8,4.8,0,0,1,4.166-7.072Zm0,19.023L45.057,30.6h3.619v8.412H72.235v6.6H87.069l.305,1.741L70.863,58.531a7.309,7.309,0,0,0-14.61.416,7.181,7.181,0,0,0,.962,3.662l.4.669H46.524l11-19.57H27.194l5.591-13.1h3.821ZM59.4,61.218a4.74,4.74,0,1,1,8.322.036L63.57,68.16Zm-20.328-14.9H53.093L43.558,63.275H12.677l1.048-5.969H39.068V46.313ZM52.434,65.881,59.793,81.4H34.257V65.881ZM18.409,30.6H29.977l-6.7,15.709H36.49V54.7H14.182ZM12.22,65.881H31.678V81.4H9.5ZM62.65,81.4,55.291,65.881h3.89l4.386,7.3,6.373-10.611c.074-.133.13-.274.195-.412l3.854-2.608L91.525,71.028,93.346,81.4H62.65Z" transform="translate(0)" fill="#3b3b3b"/>
    </g>
  </g>
</svg>
