<svg xmlns="http://www.w3.org/2000/svg" width="24" height="24" viewBox="0 0 24 24">
  <g id="Dashboard" transform="translate(-0.211 -0.453)">
    <rect id="Rectangle_55" data-name="Rectangle 55" width="24" height="24" transform="translate(0.211 0.453)" fill="none"/>
    <g id="Dash" transform="translate(1.211 1.453)">
      <path id="Path_164" data-name="Path 164" d="M23,384.086H1v.959a1.3,1.3,0,0,0,1.178,1.385H21.818A1.3,1.3,0,0,0,23,385.045Z" transform="translate(-1 -367.555)" fill="#29c24b"/>
      <path id="Path_165" data-name="Path 165" d="M66.65,238.715a1.957,1.957,0,0,0-1.563,1.914,1.925,1.925,0,0,0,.117.645l1.446-.867v-1.693Z" transform="translate(-62.349 -228.454)" fill="#29c24b"/>
      <path id="Path_166" data-name="Path 166" d="M77.246,295.859a1.935,1.935,0,0,0,2.509.313l-1.136-1.136Z" transform="translate(-73.988 -282.356)" fill="#29c24b"/>
      <rect id="Rectangle_50" data-name="Rectangle 50" width="5.469" height="0.781" transform="translate(8.265 19.656)" fill="#29c24b"/>
      <path id="Path_167" data-name="Path 167" d="M119.943,238.715v1.752l1.237,1.237a1.95,1.95,0,0,0-1.237-2.989Z" transform="translate(-114.832 -228.452)" fill="#29c24b"/>
      <path id="Path_168" data-name="Path 168" d="M130.989,493.8H120.732a.785.785,0,0,0-.789.781h11.835A.785.785,0,0,0,130.989,493.8Z" transform="translate(-114.861 -472.582)" fill="#29c24b"/>
      <rect id="Rectangle_51" data-name="Rectangle 51" width="0.781" height="1.172" transform="translate(18.871 5.109)" fill="#29c24b"/>
      <path id="Path_169" data-name="Path 169" d="M1,15.836H23V1.483a1.3,1.3,0,0,0-1.178-1.4H2.182A1.3,1.3,0,0,0,1,1.483Zm4.713-.787a2.757,2.757,0,1,1,2.749-2.756A2.749,2.749,0,0,1,5.716,15.049ZM8.465,8.21a.545.545,0,0,1-.55.539h-4.4a.544.544,0,0,1-.55-.537V5.205a.393.393,0,1,1,.785,0V7.962H7.68V5.205a.393.393,0,1,1,.785,0v3Zm2.749-6.942a.393.393,0,1,1,.785,0V5.993a.393.393,0,0,0,.393.394h.393V2.056a.786.786,0,0,1,.785-.787h.785a.786.786,0,0,1,.785.787V6.387h.785V3.918a.681.681,0,0,1,.679-.681h1a.681.681,0,0,1,.679.681V6.387h.785V5.039a.62.62,0,0,1,.619-.621h1.118a.62.62,0,0,1,.619.621V6.387a.394.394,0,0,1,0,.787H12.393a1.18,1.18,0,0,1-1.178-1.181V1.268Zm0,7.875a.393.393,0,1,1,.785,0V12.13l.738-.74a1.2,1.2,0,0,1,1.666,0l.46.461a.392.392,0,0,0,.555,0l1.638-1.643a1.2,1.2,0,0,1,1.666,0l.46.461a.392.392,0,0,0,.555,0l1.408-1.412a.393.393,0,0,1,.555.557l-1.408,1.412a1.178,1.178,0,0,1-1.666,0l-.46-.462a.4.4,0,0,0-.555,0l-1.638,1.643a1.176,1.176,0,0,1-1.666,0l-.46-.461a.4.4,0,0,0-.555,0L12,13.243v.624a.393.393,0,0,0,.393.394h9.033a.394.394,0,0,1,0,.787H12.393a1.18,1.18,0,0,1-1.178-1.181V9.143Zm-8.9-5.412.655-.587V2.252a.393.393,0,1,1,.785,0v.186L5.333,1.021a.578.578,0,0,1,.759-.006L9.12,3.732a.393.393,0,0,1-.524.586L5.716,1.733,2.836,4.318a.393.393,0,0,1-.524-.587Z" transform="translate(-1 -0.087)" fill="#29c24b"/>
      <rect id="Rectangle_52" data-name="Rectangle 52" width="0.781" height="2.344" transform="translate(15.716 3.931)" fill="#29c24b"/>
      <rect id="Rectangle_53" data-name="Rectangle 53" width="0.781" height="4.297" transform="translate(12.573 1.953)" fill="#29c24b"/>
    </g>
  </g>
</svg>
