<svg xmlns="http://www.w3.org/2000/svg" width="24" height="24" viewBox="0 0 24 24">
  <g id="Employee" transform="translate(0 -0.274)">
    <rect id="Rectangle_56" data-name="Rectangle 56" width="24" height="24" transform="translate(0 0.274)" fill="none"/>
    <g id="Employee-2" data-name="Employee" transform="translate(7 1.274)">
      <path id="Path_173" data-name="Path 173" d="M36.885,32.326h-.461V31.3c.023-.023.046-.023.069-.047a.964.964,0,0,0,.368-1.166l-1.589-4.338a2.618,2.618,0,0,0-2.441-1.726h-.046l-.737,2.822-.23-2.076h.069a.183.183,0,0,0,.184-.187v-.4A.183.183,0,0,0,31.887,24H31.2a.183.183,0,0,0-.184.187v.4a.183.183,0,0,0,.184.187h.046l-.23,2.052L30.275,24h-.046a2.618,2.618,0,0,0-2.441,1.726L26.2,30.087a.971.971,0,0,0,.553,1.236.951.951,0,0,0,1.221-.56l1.059-2.892V39.953a1.117,1.117,0,0,0,.99,1.143,1.1,1.1,0,0,0,1.2-1.1V32.91a.322.322,0,1,1,.645,0V40a1.117,1.117,0,0,0,.99,1.143,1.1,1.1,0,0,0,1.2-1.1V27.918l1.059,2.892a.938.938,0,0,0,.668.583v.933h-.461a.257.257,0,0,0-.253.257v3.2a.257.257,0,0,0,.253.257h1.566a.257.257,0,0,0,.253-.257v-3.2A.257.257,0,0,0,36.885,32.326Z" transform="translate(-26.138 -19.149)" fill="#fbe160"/>
      <circle id="Ellipse_9" data-name="Ellipse 9" cx="2.189" cy="2.189" r="2.189" transform="translate(3.115 0.196) rotate(-2.569)" fill="#fbe160"/>
    </g>
  </g>
</svg>
