<svg xmlns="http://www.w3.org/2000/svg" width="24" height="24" viewBox="0 0 24 24">
  <g id="Expenses" transform="translate(-0.211 0.07)">
    <rect id="Rectangle_35" data-name="Rectangle 35" width="24" height="24" transform="translate(0.211 -0.07)" fill="none"/>
    <g id="Expense" transform="translate(1.211 0.93)">
      <path id="Path_181" data-name="Path 181" d="M-95.948-75.458a.784.784,0,0,0-1.023-.427.777.777,0,0,0-.429,1.018.857.857,0,0,0,.107.189,3.35,3.35,0,0,1,.52,1.789,2.289,2.289,0,0,1,0,.336,3.64,3.64,0,0,1-.569,1.559l-.107.156a7.1,7.1,0,0,1-2.219,1.855h-.082l-.082.041a13.6,13.6,0,0,1-6.359,1.518,13.576,13.576,0,0,1-6.359-1.469l-.082-.041-.1-.057a6.541,6.541,0,0,1-2.169-1.855l-.091-.131a3.56,3.56,0,0,1-.586-1.559,2.538,2.538,0,0,1-.025-.353c0-2.962,4.313-5.465,9.419-5.465a16.014,16.014,0,0,1,1.658.082.782.782,0,0,0,.866-.7.78.78,0,0,0-.7-.862,16.837,16.837,0,0,0-1.823-.082c-6.161,0-10.986,3.127-10.986,7.024V-68.2a4.9,4.9,0,0,0,0,.492,5.246,5.246,0,0,0,.965,2.462,8.14,8.14,0,0,0,2.68,2.339,15.058,15.058,0,0,0,7.348,1.731,15.085,15.085,0,0,0,7.324-1.764,8.32,8.32,0,0,0,2.68-2.339,5.22,5.22,0,0,0,.99-2.421c.008-.164.008-.336,0-.5v-4.686A5.136,5.136,0,0,0-95.948-75.458Z" transform="translate(117.175 82.357)" fill="#f05050"/>
      <path id="Path_182" data-name="Path 182" d="M-5.258-46H-7.18c-.017,0-.026.017-.009.034a2.089,2.089,0,0,1,.746,1.381.018.018,0,0,0,.017.017h1.493a.018.018,0,0,1,.017.017v.275a.4.4,0,0,1-.4.4h-1.09a.018.018,0,0,0-.017.017c-.154,1.4-1.27,2.3-3.028,2.368-.017,0-.017.017-.009.026.892.927,1.844,2.05,2.805,3.208a.462.462,0,0,1-.36.755H-7.06a.681.681,0,0,1-.523-.249c-.944-1.124-1.853-2.2-2.968-3.4a.93.93,0,0,1-.249-.643h0a.5.5,0,0,1,.5-.5h.275c1.5,0,2.308-.618,2.411-1.57a.018.018,0,0,0-.017-.017h-2.8a.366.366,0,0,1-.369-.369v-.317a.018.018,0,0,1,.017-.017h3.106c.009,0,.017-.009.017-.026-.206-.8-.944-1.192-2.145-1.192h-.6a.384.384,0,0,1-.386-.386v-.06a.461.461,0,0,1,.463-.463h5.061a.362.362,0,0,1,.36.36h0A.364.364,0,0,1-5.258-46Z" transform="translate(19.451 51.64)" fill="#f05050"/>
      <path id="Path_183" data-name="Path 183" d="M64.3-104.3a.832.832,0,0,0,.583-.24L65.93-105.6v4.564a.815.815,0,0,0,.815.815.815.815,0,0,0,.815-.815V-105.6l1.055,1.055a.815.815,0,0,0,1.15-.086.809.809,0,0,0,0-1.064l-2.445-2.445a.813.813,0,0,0-1.15,0L63.717-105.7a.823.823,0,0,0-.009,1.158A.852.852,0,0,0,64.3-104.3Z" transform="translate(-48.861 108.375)" fill="#f05050"/>
    </g>
  </g>
</svg>
