<svg xmlns="http://www.w3.org/2000/svg" xmlns:xlink="http://www.w3.org/1999/xlink" width="32" height="32" viewBox="0 0 32 32">
  <defs>
    <clipPath id="clip-path">
      <path id="Path_85" data-name="Path 85" d="M18.555,10.528l8.192-1.666L24.535,7.388l-4.244.805L19.159,9.558Z" transform="translate(-18.555 -7.388)" fill="#29c24b"/>
    </clipPath>
  </defs>
  <g id="Fees" transform="translate(0.391 -0.142)">
    <rect id="Rectangle_21" data-name="Rectangle 21" width="32" height="32" transform="translate(-0.391 0.142)" fill="none"/>
    <g id="Fees-2" data-name="Fees" transform="translate(1.301 3.942)">
      <g id="note_1" data-name="note 1" transform="translate(0 5.777)">
        <path id="Path_82" data-name="Path 82" d="M3.536,21.042a.208.208,0,0,1-.2-.179L1.029,7.561A.233.233,0,0,1,1.061,7.4a.2.2,0,0,1,.13-.091L25.566,2.451a.2.2,0,0,1,.237.175l2.306,13.3a.234.234,0,0,1-.032.165.2.2,0,0,1-.13.092L3.573,21.039l-.037,0Zm11.029-4.473a4.174,4.174,0,0,1-1.53-.29,4.446,4.446,0,0,1-1.325-.81,4.738,4.738,0,0,1-1-1.246,5.043,5.043,0,0,1-.561-1.6,5.129,5.129,0,0,1,.025-1.905,5.019,5.019,0,0,1,.677-1.69,4.649,4.649,0,0,1,1.233-1.308A4.314,4.314,0,0,1,13.747,7,4.2,4.2,0,0,1,16.1,7.21a4.447,4.447,0,0,1,1.324.811,4.707,4.707,0,0,1,1,1.246,5.015,5.015,0,0,1,.561,1.6,5.133,5.133,0,0,1-.026,1.9,5.011,5.011,0,0,1-.677,1.689,4.65,4.65,0,0,1-1.233,1.308,4.307,4.307,0,0,1-1.665.722,4.2,4.2,0,0,1-.825.083ZM3.7,17.709l.389,2.241,2.1-.418q-.025-.084-.056-.166A2.831,2.831,0,0,0,3.7,17.709ZM2.038,8.121l.39,2.244a3.025,3.025,0,0,0,1.7-2.243,2.26,2.26,0,0,0,.01-.42l-2.1.42Zm24.674,5a3.026,3.026,0,0,0-1.706,2.243,2.257,2.257,0,0,0-.01.42l2.1-.419ZM22.947,3.957q.025.087.058.171a2.831,2.831,0,0,0,2.432,1.651l-.389-2.24-2.1.419Z" transform="translate(-1.026 -2.448)" fill="#29c24b" fill-rule="evenodd"/>
        <path id="Icon_awesome-rupee-sign" data-name="Icon awesome-rupee-sign" d="M4.18,3.119a.163.163,0,0,0,.163-.163V2.413A.163.163,0,0,0,4.18,2.25H.163A.163.163,0,0,0,0,2.413V3.02a.163.163,0,0,0,.163.163H1.32a.979.979,0,0,1,.828.37H.163A.163.163,0,0,0,0,3.716v.543a.163.163,0,0,0,.163.163H2.318a.938.938,0,0,1-1.015.8H.163A.163.163,0,0,0,0,5.38V6.1a.163.163,0,0,0,.052.12l2.24,2.068a.163.163,0,0,0,.11.043H3.524a.163.163,0,0,0,.11-.283L1.586,6.158A1.859,1.859,0,0,0,3.464,4.422H4.18a.163.163,0,0,0,.163-.163V3.716a.163.163,0,0,0-.163-.163h-.8a1.859,1.859,0,0,0-.193-.434Z" transform="matrix(0.985, -0.174, 0.174, 0.985, 10.193, 4.917)" fill="#29c24b"/>
      </g>
      <g id="note_2" data-name="note 2" transform="translate(2.286)">
        <path id="Path_84" data-name="Path 84" d="M2.15,11.155,1.374,6.683a.233.233,0,0,1,.032-.165.2.2,0,0,1,.13-.091L25.911,1.574a.2.2,0,0,1,.237.175l2.306,13.3a.234.234,0,0,1-.032.165.2.2,0,0,1-.13.092l-2.333.465-.165-.953,1.652-.329-.389-2.244a3.336,3.336,0,0,0-1.462,1.428L24.517,7.46a.7.7,0,0,0-.806-.6L18.467,7.906a4.681,4.681,0,0,0-.694-.763,4.447,4.447,0,0,0-1.324-.811,4.2,4.2,0,0,0-2.356-.208,4.315,4.315,0,0,0-1.666.722,4.649,4.649,0,0,0-1.233,1.308,5,5,0,0,0-.587,1.317L2.15,11.155Zm.233-3.912.39,2.244a3.025,3.025,0,0,0,1.7-2.243,2.259,2.259,0,0,0,.01-.42l-2.1.42Zm20.91-4.164q.025.087.058.171A2.831,2.831,0,0,0,25.783,4.9l-.389-2.24-2.1.419Z" transform="translate(-1.371 -1.57)" fill="#29c24b" fill-rule="evenodd"/>
        <g id="Mask_Group_1" data-name="Mask Group 1" transform="translate(9.047 4.756)" clip-path="url(#clip-path)">
          <path id="Icon_awesome-rupee-sign-2" data-name="Icon awesome-rupee-sign" d="M3.8,2.955a.141.141,0,0,0,.148-.132v-.44A.141.141,0,0,0,3.8,2.25H.148A.141.141,0,0,0,0,2.382v.493a.141.141,0,0,0,.148.132H1.2a.936.936,0,0,1,.752.3H.148A.141.141,0,0,0,0,3.439v.44a.141.141,0,0,0,.148.132H2.106a.836.836,0,0,1-.922.646H.148A.141.141,0,0,0,0,4.79v.584a.126.126,0,0,0,.048.1L2.083,7.148a.158.158,0,0,0,.1.035H3.2a.131.131,0,0,0,.1-.229L1.441,5.42A1.624,1.624,0,0,0,3.147,4.012H3.8a.141.141,0,0,0,.148-.132v-.44A.141.141,0,0,0,3.8,3.307H3.075A1.434,1.434,0,0,0,2.9,2.955Z" transform="translate(1.344 -0.724) rotate(-11)" fill="#29c24b"/>
        </g>
      </g>
    </g>
  </g>
</svg>
