<svg width="31" height="31" viewBox="0 0 31 31" fill="none" xmlns="http://www.w3.org/2000/svg">
<path d="M14.7716 19.5417C14.1474 19.5417 13.6011 19 13.6011 18.2917C13.6011 16.375 14.7716 14.7084 16.4494 14.1667C17.1907 13.9167 17.6979 13.2084 17.6589 12.375C17.6589 10.875 16.4884 9.62502 15.0838 9.62502C13.6792 9.62502 12.5086 10.875 12.5086 12.375C12.5086 13.0417 12.0014 13.625 11.3381 13.625C10.7138 13.625 10.1676 13.0834 10.1676 12.375C10.2456 9.50002 12.4306 7.16669 15.1228 7.16669C17.815 7.16669 20 9.50002 20 12.375C20 14.2917 18.8295 15.9584 17.1517 16.5C16.4104 16.75 15.9031 17.4584 15.9422 18.2917C15.9422 18.9584 15.3959 19.5417 14.7716 19.5417Z" fill="#334D6E"/>
<path d="M14.7718 23.625C15.5475 23.625 16.1763 22.9535 16.1763 22.125C16.1763 21.2966 15.5475 20.625 14.7718 20.625C13.996 20.625 13.3672 21.2966 13.3672 22.125C13.3672 22.9535 13.996 23.625 14.7718 23.625Z" fill="#334D6E"/>
<circle cx="15.5" cy="15.5" r="13.65" stroke="#334D6E" stroke-width="2.3"/>
</svg>
