<svg xmlns="http://www.w3.org/2000/svg" width="92" height="92" viewBox="0 0 92 92">
  <g id="inventory" transform="translate(86 73)">
    <rect id="Rectangle_3" data-name="Rectangle 3" width="4" height="90" transform="translate(-83.5 -72)" fill="#7b7b7b"/>
    <rect id="Rectangle_4" data-name="Rectangle 4" width="4" height="88" transform="translate(-0.5 -70)" fill="#7b7b7b"/>
    <rect id="Rectangle_5" data-name="Rectangle 5" width="5" height="8" transform="translate(-54.301 -24.725)" fill="#7b7b7b"/>
    <rect id="Rectangle_6" data-name="Rectangle 6" width="4" height="8" transform="translate(-22.384 -24.725)" fill="#7b7b7b"/>
    <rect id="Rectangle_7" data-name="Rectangle 7" width="5" height="7" transform="translate(-54.301 -64)" fill="#7b7b7b"/>
    <rect id="Rectangle_8" data-name="Rectangle 8" width="5" height="7" transform="translate(-22.384 -64)" fill="#7b7b7b"/>
    <path id="Path_24" data-name="Path 24" d="M87.4,0a4.518,4.518,0,0,0-4.6,4.6V36.8H77.893a5.443,5.443,0,0,0,.307-1.533V10.733a4.518,4.518,0,0,0-4.6-4.6H18.4a4.518,4.518,0,0,0-4.6,4.6V35.267a5.443,5.443,0,0,0,.307,1.533H9.2V4.6A4.518,4.518,0,0,0,4.6,0,4.518,4.518,0,0,0,0,4.6V87.4A4.518,4.518,0,0,0,4.6,92a4.518,4.518,0,0,0,4.6-4.6V79.733H82.8V87.4a4.6,4.6,0,0,0,9.2,0V4.6A4.518,4.518,0,0,0,87.4,0ZM75.133,10.733V35.267A1.448,1.448,0,0,1,73.6,36.8H47.533V9.2h13.8v9.2h9.2V9.2H73.6A1.448,1.448,0,0,1,75.133,10.733ZM64.4,9.2h3.067v6.133H64.4Zm-32.2,0h3.067v6.133H32.2ZM16.867,35.267V10.733A1.448,1.448,0,0,1,18.4,9.2H29.133v9.2h9.2V9.2h6.133V36.8H18.4A1.448,1.448,0,0,1,16.867,35.267ZM6.133,87.4A1.448,1.448,0,0,1,4.6,88.933,1.448,1.448,0,0,1,3.067,87.4V4.6A1.448,1.448,0,0,1,4.6,3.067,1.448,1.448,0,0,1,6.133,4.6ZM16.867,75.133V50.6A1.448,1.448,0,0,1,18.4,49.067H29.133v9.2h9.2v-9.2h6.133v27.6H18.4A1.448,1.448,0,0,1,16.867,75.133ZM32.2,49.067h3.067V55.2H32.2Zm15.333,27.6v-27.6h13.8v9.2h9.2v-9.2H73.6A1.448,1.448,0,0,1,75.133,50.6V75.133A1.448,1.448,0,0,1,73.6,76.667ZM64.4,49.067h3.067V55.2H64.4Zm13.493,27.6a5.443,5.443,0,0,0,.307-1.533V50.6A4.518,4.518,0,0,0,73.6,46H18.4a4.518,4.518,0,0,0-4.6,4.6V75.133a5.443,5.443,0,0,0,.307,1.533H9.2v-36.8H82.8v36.8ZM88.933,87.4a1.533,1.533,0,1,1-3.067,0V4.6a1.533,1.533,0,1,1,3.067,0Zm0,0" transform="translate(-86 -73)" fill="#3b3b3b"/>
  </g>
</svg>
