<svg xmlns="http://www.w3.org/2000/svg" width="24" height="24" viewBox="0 0 24 24">
  <g id="Library" transform="translate(-0.211 0.117)">
    <rect id="Rectangle_42" data-name="Rectangle 42" width="24" height="24" transform="translate(0.211 -0.117)" fill="none"/>
    <path id="Path_118" data-name="Path 118" d="M0,7.254H3.953V8.91H0ZM0,9.573H3.953V20.833H0Zm.725,9.177A1.148,1.148,0,0,0,1.96,19.785,1.148,1.148,0,0,0,3.2,18.749,1.148,1.148,0,0,0,1.96,17.714,1.149,1.149,0,0,0,.725,18.749ZM0,22.821H3.953V21.5H0Zm4.744-1.556v1.557H9.883V21.256a4.747,4.747,0,0,0-2.372-.422A7.79,7.79,0,0,0,4.744,21.264Zm0-9.528a7.8,7.8,0,0,0,2.767.431,4.724,4.724,0,0,0,2.372-.425V10.566H4.744Zm0,.717v8.093a9.273,9.273,0,0,1,2.767-.376,6.935,6.935,0,0,1,2.372.334V12.5a6.951,6.951,0,0,1-2.372.334A9.283,9.283,0,0,1,4.744,12.454ZM18.266,7.18l-2.711.466.4,1.622L18.663,8.8Zm3.257,13.3-2.71.466-2.7-11.031,2.711-.466Zm-.94-1.966a1.092,1.092,0,0,0-1.192-.851.922.922,0,0,0-.7,1.176,1.091,1.091,0,0,0,1.191.851A.922.922,0,0,0,20.583,18.516Zm1.1,2.614-2.711.466.318,1.3L22,22.428ZM11.069,8.91h3.953V7.254H11.069Zm0,13.91h3.953V21.5H11.069Zm0-3.643h3.953V11.229H11.069Zm0,1.656h3.953V19.84H11.069Zm0-10.267h3.953V9.573H11.069Z" transform="translate(1.211 -3.297)" fill="#528ff0"/>
  </g>
</svg>
