<svg xmlns="http://www.w3.org/2000/svg" width="92" height="92" viewBox="0 0 92 92">
  <g id="Master_Data" data-name="Master Data" transform="translate(-16505 -2896)">
    <rect id="Rectangle_2133" data-name="Rectangle 2133" width="92" height="92" transform="translate(16505 2896)" fill="none"/>
    <g id="Master_Data-2" data-name="Master Data" transform="translate(16194.71 2584.69)">
      <rect id="Rectangle_2123" data-name="Rectangle 2123" width="29.147" height="4.457" transform="translate(337.156 320.709)" fill="#7b7b7b"/>
      <circle id="Ellipse_38" data-name="Ellipse 38" cx="3.402" cy="3.402" r="3.402" transform="translate(324.004 319.704)" fill="#7b7b7b"/>
      <rect id="Rectangle_2124" data-name="Rectangle 2124" width="29.147" height="4.457" transform="translate(337.156 346.642)" fill="#7b7b7b"/>
      <circle id="Ellipse_39" data-name="Ellipse 39" cx="3.402" cy="3.402" r="3.402" transform="translate(324.004 345.637)" fill="#7b7b7b"/>
      <rect id="Rectangle_2125" data-name="Rectangle 2125" width="29.147" height="4.457" transform="translate(337.156 372.582)" fill="#7b7b7b"/>
      <circle id="Ellipse_40" data-name="Ellipse 40" cx="3.402" cy="3.402" r="3.402" transform="translate(324.004 371.578)" fill="#7b7b7b"/>
      <rect id="Rectangle_2126" data-name="Rectangle 2126" width="6.229" height="20.278" rx="2" transform="translate(312.292 312.71)" fill="#7b7b7b"/>
      <rect id="Rectangle_2127" data-name="Rectangle 2127" width="6.229" height="20.278" rx="2" transform="translate(373.074 312.71)" fill="#7b7b7b"/>
      <rect id="Rectangle_2128" data-name="Rectangle 2128" width="6.229" height="20.278" rx="2" transform="translate(312.292 338.637)" fill="#7b7b7b"/>
      <rect id="Rectangle_2129" data-name="Rectangle 2129" width="6.229" height="20.278" rx="2" transform="translate(373.074 338.637)" fill="#7b7b7b"/>
      <rect id="Rectangle_2130" data-name="Rectangle 2130" width="6.229" height="20.278" rx="2" transform="translate(312.292 364.563)" fill="#7b7b7b"/>
      <rect id="Rectangle_2131" data-name="Rectangle 2131" width="6.229" height="20.278" rx="2" transform="translate(373.074 364.563)" fill="#7b7b7b"/>
      <path id="Path_2210" data-name="Path 2210" d="M474.682,333.9H417.046a2.3,2.3,0,0,1-2.3-2.295v-17a2.3,2.3,0,0,1,2.3-2.3h57.637a2.3,2.3,0,0,1,2.295,2.3v17a2.3,2.3,0,0,1-2.295,2.3Zm-57.637-20.06a.766.766,0,0,0-.765.765v17a.766.766,0,0,0,.765.766h57.637a.766.766,0,0,0,.765-.766v-17a.766.766,0,0,0-.765-.765Zm0,0" transform="translate(-96.696)" fill="#3b3b3b"/>
      <path id="Path_2211" data-name="Path 2211" d="M371.222,333.9H313.586a2.3,2.3,0,0,1-2.3-2.295v-17a2.3,2.3,0,0,1,2.3-2.3h57.637a2.3,2.3,0,0,1,2.292,2.294v17a2.3,2.3,0,0,1-2.295,2.3Zm-57.637-20.06a.766.766,0,0,0-.765.765v17a.766.766,0,0,0,.765.766h57.637a.766.766,0,0,0,.765-.766v-17a.766.766,0,0,0-.765-.765Zm0,0" fill="#3b3b3b"/>
      <path id="Path_2212" data-name="Path 2212" d="M494.973,418.969a4.394,4.394,0,1,1,4.4-4.395,4.394,4.394,0,0,1-4.4,4.395Zm0-7.257a2.865,2.865,0,1,0,2.864,2.865A2.865,2.865,0,0,0,494.973,411.711Zm0,0" transform="translate(-167.568 -91.471)" fill="#3b3b3b"/>
      <path id="Path_2213" data-name="Path 2213" d="M722.521,430.524h-29.6a.766.766,0,0,1-.766-.765v-5.074a.766.766,0,0,1,.766-.765h29.6a.766.766,0,0,1,.765.765v5.074A.765.765,0,0,1,722.521,430.524Zm-28.83-1.53h28.065v-3.543H693.691Zm0,0" transform="translate(-355.945 -104.313)" fill="#3b3b3b"/>
      <path id="Path_2214" data-name="Path 2214" d="M474.682,729.2H417.046a2.3,2.3,0,0,1-2.3-2.295v-17a2.3,2.3,0,0,1,2.3-2.295h57.637a2.3,2.3,0,0,1,2.295,2.295v17A2.3,2.3,0,0,1,474.682,729.2Zm-57.637-20.06a.766.766,0,0,0-.765.765v17a.766.766,0,0,0,.765.765h57.637a.766.766,0,0,0,.765-.765v-17a.766.766,0,0,0-.765-.765Zm0,0" transform="translate(-96.696 -369.434)" fill="#3b3b3b"/>
      <path id="Path_2215" data-name="Path 2215" d="M371.222,729.2H313.586a2.3,2.3,0,0,1-2.3-2.295v-17a2.3,2.3,0,0,1,2.3-2.295h57.637a2.3,2.3,0,0,1,2.295,2.295v17A2.3,2.3,0,0,1,371.222,729.2Zm-57.637-20.06a.767.767,0,0,0-.765.765v17a.766.766,0,0,0,.765.765h57.637a.766.766,0,0,0,.765-.765v-17a.767.767,0,0,0-.765-.765Zm0,0" transform="translate(0 -369.434)" fill="#3b3b3b"/>
      <path id="Path_2216" data-name="Path 2216" d="M494.973,814.289a4.394,4.394,0,1,1,4.4-4.395,4.394,4.394,0,0,1-4.4,4.395Zm0-7.257a2.864,2.864,0,1,0,2.864,2.864A2.864,2.864,0,0,0,494.973,807.031Zm0,0" transform="translate(-167.568 -460.922)" fill="#3b3b3b"/>
      <path id="Path_2217" data-name="Path 2217" d="M722.521,825.842h-29.6a.766.766,0,0,1-.766-.765V820a.766.766,0,0,1,.766-.765h29.6a.765.765,0,0,1,.765.765v5.074A.764.764,0,0,1,722.521,825.842Zm-28.83-1.531h28.065V820.77H693.691Zm0,0" transform="translate(-355.945 -473.764)" fill="#3b3b3b"/>
      <path id="Path_2218" data-name="Path 2218" d="M474.682,1124.49H417.046a2.3,2.3,0,0,1-2.3-2.295v-17a2.3,2.3,0,0,1,2.3-2.3h57.637a2.3,2.3,0,0,1,2.295,2.295v17a2.3,2.3,0,0,1-2.295,2.295Zm-57.637-20.059a.766.766,0,0,0-.765.765v17a.766.766,0,0,0,.765.765h57.637a.766.766,0,0,0,.765-.765v-17a.766.766,0,0,0-.765-.765Zm0,0" transform="translate(-96.696 -738.858)" fill="#3b3b3b"/>
      <path id="Path_2219" data-name="Path 2219" d="M371.222,1124.49H313.586a2.3,2.3,0,0,1-2.3-2.295v-17a2.3,2.3,0,0,1,2.3-2.3h57.637a2.3,2.3,0,0,1,2.292,2.3v17a2.3,2.3,0,0,1-2.295,2.295Zm-57.637-20.059a.766.766,0,0,0-.765.765v17a.766.766,0,0,0,.765.765h57.637a.766.766,0,0,0,.765-.765v-17a.766.766,0,0,0-.765-.765Zm0,0" transform="translate(0 -738.858)" fill="#3b3b3b"/>
      <path id="Path_2220" data-name="Path 2220" d="M494.954,1209.58a4.395,4.395,0,1,1,4.4-4.4,4.395,4.395,0,0,1-4.4,4.4Zm0-7.257a2.864,2.864,0,1,0,2.864,2.862,2.864,2.864,0,0,0-2.864-2.862Zm0,0" transform="translate(-167.549 -830.35)" fill="#3b3b3b"/>
      <path id="Path_2221" data-name="Path 2221" d="M722.521,1221.152h-29.6a.766.766,0,0,1-.766-.765v-5.072a.766.766,0,0,1,.766-.765h29.6a.765.765,0,0,1,.765.765v5.072A.765.765,0,0,1,722.521,1221.152Zm-28.83-1.53h28.065v-3.539H693.691Zm0,0" transform="translate(-355.945 -843.211)" fill="#3b3b3b"/>
      <path id="Path_2222" data-name="Path 2222" d="M542.822,626.435H492.845a.766.766,0,0,1-.765-.765v-5.785a.766.766,0,0,1,.765-.765h49.977a.765.765,0,0,1,.765.765v5.786a.765.765,0,0,1-.765.765ZM493.61,624.9h48.448V620.65H493.61Zm0,0" transform="translate(-168.97 -286.737)" fill="#3b3b3b"/>
      <path id="Path_2223" data-name="Path 2223" d="M449.212,626.435H399.235a.766.766,0,0,1-.765-.765v-5.785a.766.766,0,0,1,.765-.765h49.977a.765.765,0,0,1,.765.765v5.786a.765.765,0,0,1-.765.765ZM400,624.9h48.448V620.65H400Zm0,0" transform="translate(-81.48 -286.737)" fill="#3b3b3b"/>
      <path id="Path_2224" data-name="Path 2224" d="M542.822,1021.727H492.845a.766.766,0,0,1-.765-.765v-5.787a.766.766,0,0,1,.765-.765h49.977a.766.766,0,0,1,.765.765v5.787A.765.765,0,0,1,542.822,1021.727Zm-49.212-1.53h48.448v-4.257H493.61Zm0,0" transform="translate(-168.97 -656.165)" fill="#3b3b3b"/>
      <path id="Path_2225" data-name="Path 2225" d="M449.212,1021.727H399.235a.766.766,0,0,1-.765-.765v-5.787a.766.766,0,0,1,.765-.765h49.977a.766.766,0,0,1,.765.765v5.787A.765.765,0,0,1,449.212,1021.727ZM400,1020.2h48.448v-4.257H400Zm0,0" transform="translate(-81.48 -656.165)" fill="#3b3b3b"/>
      <rect id="Rectangle_2132" data-name="Rectangle 2132" width="53.613" height="45.767" rx="4" transform="translate(347.058 356.216)" fill="#7b7b7b"/>
      <path id="Path_2226" data-name="Path 2226" d="M894.458,1023.244H846.936a3.83,3.83,0,0,1-3.826-3.826V980.565a3.83,3.83,0,0,1,3.826-3.825h47.523a3.829,3.829,0,0,1,3.825,3.825v38.852a3.83,3.83,0,0,1-3.825,3.826ZM846.936,978.27a2.3,2.3,0,0,0-2.295,2.295v38.852a2.3,2.3,0,0,0,2.295,2.3h47.523a2.3,2.3,0,0,0,2.3-2.3V980.565a2.3,2.3,0,0,0-2.3-2.295Zm0,0" transform="translate(-496.994 -620.934)" fill="#3b3b3b"/>
      <path id="Path_2227" data-name="Path 2227" d="M897.519,987.195H843.876a.766.766,0,0,1-.766-.765v-5.865a3.829,3.829,0,0,1,3.826-3.825h47.523a3.829,3.829,0,0,1,3.826,3.825v5.865A.765.765,0,0,1,897.519,987.195Zm-52.878-1.53h52.113v-5.1a2.3,2.3,0,0,0-2.3-2.295H846.936a2.3,2.3,0,0,0-2.295,2.295Zm0,0" transform="translate(-496.994 -620.958)" fill="#3b3b3b"/>
      <path id="Path_2228" data-name="Path 2228" d="M979.465,1225.261a3.829,3.829,0,0,1-3.826-3.826v-3.06a3.825,3.825,0,1,1,7.65,0v3.06a3.829,3.829,0,0,1-3.825,3.826Zm0-9.18a2.3,2.3,0,0,0-2.3,2.295v3.06a2.3,2.3,0,1,0,4.591,0v-3.06A2.3,2.3,0,0,0,979.465,1216.081Zm0,0" transform="translate(-620.885 -843.209)" fill="#3b3b3b"/>
      <path id="Path_2229" data-name="Path 2229" d="M1119.12,1224.533h-1.53v-8.413h-1.53v-1.531h2.295a.765.765,0,0,1,.765.765Zm0,0" transform="translate(-752.12 -843.247)" fill="#3b3b3b"/>
      <path id="Path_2230" data-name="Path 2230" d="M1213.495,1225.261a3.829,3.829,0,0,1-3.825-3.826v-3.06a3.825,3.825,0,1,1,7.65,0v3.06a3.83,3.83,0,0,1-3.825,3.826Zm0-9.18a2.3,2.3,0,0,0-2.3,2.295v3.06a2.3,2.3,0,0,0,4.59,0v-3.06A2.3,2.3,0,0,0,1213.495,1216.081Zm0,0" transform="translate(-839.603 -843.209)" fill="#3b3b3b"/>
      <path id="Path_2231" data-name="Path 2231" d="M1447.515,1225.261a3.829,3.829,0,0,1-3.825-3.826v-3.06a3.825,3.825,0,1,1,7.65,0v3.06a3.83,3.83,0,0,1-3.826,3.826Zm0-9.18a2.3,2.3,0,0,0-2.3,2.295v3.06a2.3,2.3,0,1,0,4.591,0v-3.06A2.3,2.3,0,0,0,1447.515,1216.081Zm0,0" transform="translate(-1058.307 -843.209)" fill="#3b3b3b"/>
      <path id="Path_2232" data-name="Path 2232" d="M1353.14,1224.533h-1.53v-8.413h-1.53v-1.531h2.295a.765.765,0,0,1,.765.765Zm0,0" transform="translate(-970.829 -843.247)" fill="#3b3b3b"/>
      <path id="Path_2233" data-name="Path 2233" d="M1096.475,1435.891a3.829,3.829,0,0,1-3.825-3.826v-3.06a3.825,3.825,0,1,1,7.65,0v3.06a3.83,3.83,0,0,1-3.826,3.826Zm0-9.18a2.3,2.3,0,0,0-2.295,2.295v3.06a2.295,2.295,0,1,0,4.59,0v-3.06A2.3,2.3,0,0,0,1096.475,1426.711Zm0,0" transform="translate(-730.239 -1040.054)" fill="#3b3b3b"/>
      <path id="Path_2234" data-name="Path 2234" d="M1002.063,1435.116h-1.53V1426.7H999v-1.531h2.3a.766.766,0,0,1,.765.765Zm0,0" transform="translate(-642.718 -1040.044)" fill="#3b3b3b"/>
      <path id="Path_2235" data-name="Path 2235" d="M1236.13,1435.116h-1.53V1426.7h-1.53v-1.531h2.3a.765.765,0,0,1,.765.765Zm0,0" transform="translate(-861.474 -1040.044)" fill="#3b3b3b"/>
      <path id="Path_2236" data-name="Path 2236" d="M1330.5,1435.891a3.829,3.829,0,0,1-3.825-3.826v-3.06a3.825,3.825,0,1,1,7.65,0v3.06a3.83,3.83,0,0,1-3.826,3.826Zm0-9.18a2.3,2.3,0,0,0-2.295,2.295v3.06a2.3,2.3,0,1,0,4.591,0v-3.06a2.3,2.3,0,0,0-2.3-2.295Zm0,0" transform="translate(-948.958 -1040.054)" fill="#3b3b3b"/>
      <path id="Path_2237" data-name="Path 2237" d="M1470.151,1435.116h-1.531V1426.7h-1.53v-1.531h2.295a.765.765,0,0,1,.766.765Zm0,0" transform="translate(-1080.177 -1040.044)" fill="#3b3b3b"/>
    </g>
  </g>
</svg>
