<svg width="22" height="22" viewBox="0 0 22 22" fill="none" xmlns="http://www.w3.org/2000/svg">
<path d="M11 0C4.93263 0 0 4.93263 0 11C0 17.0674 4.93263 22 11 22C17.0674 22 22 17.0674 22 11C22 4.93263 17.0674 0 11 0ZM11 6.29895C12.8989 6.29895 14.4505 7.85053 14.4505 9.74947C14.4505 11.6484 12.8989 13.2 11 13.2C9.10105 13.2 7.54947 11.6484 7.54947 9.74947C7.54947 7.85053 9.10105 6.29895 11 6.29895ZM4.97895 17.6695V17.16C4.97895 15.7011 6.16 14.4968 7.64211 14.4968H14.3579C15.8168 14.4968 17.0211 15.6779 17.0211 17.16V17.6695C15.4232 19.1053 13.3158 19.9853 11 19.9853C8.68421 19.9853 6.57684 19.1053 4.97895 17.6695Z" fill="url(#paint0_linear)"/>
<defs>
<linearGradient id="paint0_linear" x1="11" y1="0" x2="11" y2="22" gradientUnits="userSpaceOnUse">
<stop stop-color="#0097F9"/>
<stop offset="1" stop-color="#6E62FF" stop-opacity="0.74"/>
</linearGradient>
</defs>
</svg>
