<svg xmlns="http://www.w3.org/2000/svg" width="24" height="24" viewBox="0 0 24 24">
  <g id="Setup" transform="translate(20.289 -533.711)">
    <path id="Exclusion_3" data-name="Exclusion 3" d="M12,24a12.088,12.088,0,0,1-2.418-.244,11.933,11.933,0,0,1-4.291-1.806,12.036,12.036,0,0,1-4.348-5.28,11.94,11.94,0,0,1-.7-2.253,12.116,12.116,0,0,1,0-4.837A11.932,11.932,0,0,1,2.049,5.291,12.035,12.035,0,0,1,7.329.943a11.941,11.941,0,0,1,2.253-.7,12.117,12.117,0,0,1,4.837,0,11.934,11.934,0,0,1,4.291,1.806,12.035,12.035,0,0,1,4.348,5.28,11.938,11.938,0,0,1,.7,2.253,12.116,12.116,0,0,1,0,4.837,11.934,11.934,0,0,1-1.806,4.291,12.035,12.035,0,0,1-5.28,4.348,11.939,11.939,0,0,1-2.253.7A12.089,12.089,0,0,1,12,24ZM7.137,16.059H7.107a.32.32,0,0,0-.235.139l-.937,1.383a.321.321,0,0,0,.039.407l.362.362a.321.321,0,0,0,.407.039l1.383-.937a.321.321,0,0,0,.047-.492L8,16.785l3.294-3.294,4.46,4.46a1.556,1.556,0,0,0,2.2-2.2l-3.421-3.421-1.1,1.1.169.169a.321.321,0,1,1-.454.454l-.4-.4-.813-.813-.454-.454-.812-.812-.4-.4a.321.321,0,0,1,.454-.454l.169.169L12,9.8l-.984-.984a2.775,2.775,0,0,0-3.5-3.187.321.321,0,0,0-.137.535L8.431,7.219a.576.576,0,0,1,0,.813l-.4.4a.575.575,0,0,1-.813,0L6.161,7.373a.32.32,0,0,0-.306-.084.322.322,0,0,0-.228.221,2.774,2.774,0,0,0,3.192,3.509l2.018,2.018L7.541,16.331l-.177-.177A.319.319,0,0,0,7.137,16.059ZM17.3,5.88a1.142,1.142,0,0,0-.813.336l-5.132,5.132,1.625,1.625L18.11,7.841A1.149,1.149,0,0,0,17.3,5.88Zm-.564,11.666a.812.812,0,1,1,.575-.238A.807.807,0,0,1,16.733,17.546Zm-3.725-5.907a.321.321,0,0,1-.227-.548L17.192,6.68a.321.321,0,0,1,.454.454l-4.411,4.411A.319.319,0,0,1,13.008,11.639Z" transform="translate(-20.289 533.711)" fill="#fff"/>
  </g>
</svg>
