<svg xmlns="http://www.w3.org/2000/svg" width="24" height="24" viewBox="0 0 24 24">
  <g id="Users" transform="translate(-1 -11)">
    <g id="Group_103" data-name="Group 103" transform="translate(1 11)">
      <path id="Path_161" data-name="Path 161" d="M12,0A12,12,0,1,0,24,12,12,12,0,0,0,12,0ZM3.26,16.52c0-3.749,3.292-3.748,4.023-4.728l.084-.447A3.583,3.583,0,0,1,5.615,8.1c0-1.932,1.257-3.5,2.807-3.5a2.924,2.924,0,0,1,2.643,2.329,4.273,4.273,0,0,0-2.7,4.179A4.649,4.649,0,0,0,9.8,14.562c-.143.073-.3.148-.439.212A6.167,6.167,0,0,0,6.924,16.52H3.26Zm8.778,3.009h-5.2c0-3.749,3.292-3.747,4.023-4.728l.084-.447a3.583,3.583,0,0,1-1.751-3.241c0-1.932,1.257-3.5,2.807-3.5s2.807,1.567,2.807,3.5a3.6,3.6,0,0,1-1.724,3.229l.1.508c.8.933,3.984.993,3.984,4.679Zm5.04-3.009h0a6.17,6.17,0,0,0-2.435-1.745c-.142-.066-.3-.14-.439-.212a4.66,4.66,0,0,0,1.435-3.45,4.273,4.273,0,0,0-2.7-4.178A2.924,2.924,0,0,1,15.58,4.6c1.55,0,2.807,1.567,2.807,3.5a3.6,3.6,0,0,1-1.724,3.229l.1.508c.8.932,3.984.993,3.984,4.679Z" transform="translate(-0.001)" fill="#fff"/>
    </g>
  </g>
</svg>
