<svg width="24" height="25" viewBox="0 0 24 25" fill="none" xmlns="http://www.w3.org/2000/svg">
<path d="M21.8311 2.4375H19.9233V1.625C19.9233 1.19402 19.7625 0.780698 19.4763 0.475951C19.19 0.171205 18.8018 0 18.397 0C17.9922 0 17.604 0.171205 17.3178 0.475951C17.0316 0.780698 16.8708 1.19402 16.8708 1.625V2.4375H13.8183V1.625C13.8183 1.19402 13.6575 0.780698 13.3713 0.475951C13.085 0.171205 12.6968 0 12.2921 0C11.8873 0 11.4991 0.171205 11.2128 0.475951C10.9266 0.780698 10.7658 1.19402 10.7658 1.625V2.4375H7.71332V1.625C7.71332 1.19402 7.55252 0.780698 7.26629 0.475951C6.98006 0.171205 6.59186 0 6.18707 0C5.78229 0 5.39408 0.171205 5.10785 0.475951C4.82163 0.780698 4.66083 1.19402 4.66083 1.625V2.4375H2.75302C2.24704 2.4375 1.76178 2.65151 1.404 3.03244C1.04622 3.41337 0.845215 3.93003 0.845215 4.46875V20.7188C0.845215 21.2575 1.04622 21.7741 1.404 22.1551C1.76178 22.536 2.24704 22.75 2.75302 22.75H13.4367C13.5379 22.75 13.635 22.7072 13.7065 22.631C13.7781 22.5548 13.8183 22.4515 13.8183 22.3438C13.8183 22.236 13.7781 22.1327 13.7065 22.0565C13.635 21.9803 13.5379 21.9375 13.4367 21.9375H2.75302C2.44971 21.9365 2.15908 21.8078 1.94461 21.5795C1.73013 21.3511 1.60924 21.0417 1.60834 20.7188V8.125H22.9758V15.0312C22.9758 15.139 23.016 15.2423 23.0875 15.3185C23.1591 15.3947 23.2561 15.4375 23.3573 15.4375C23.4585 15.4375 23.5556 15.3947 23.6271 15.3185C23.6987 15.2423 23.7389 15.139 23.7389 15.0312V4.46875C23.7389 3.93003 23.5379 3.41337 23.1801 3.03244C22.8223 2.65151 22.3371 2.4375 21.8311 2.4375ZM17.6339 1.625C17.6339 1.40951 17.7143 1.20285 17.8574 1.05048C18.0005 0.898102 18.1946 0.8125 18.397 0.8125C18.5994 0.8125 18.7935 0.898102 18.9366 1.05048C19.0798 1.20285 19.1602 1.40951 19.1602 1.625V4.0625C19.1602 4.27799 19.0798 4.48465 18.9366 4.63702C18.7935 4.7894 18.5994 4.875 18.397 4.875C18.1946 4.875 18.0005 4.7894 17.8574 4.63702C17.7143 4.48465 17.6339 4.27799 17.6339 4.0625V1.625ZM11.5289 1.625C11.5289 1.40951 11.6093 1.20285 11.7524 1.05048C11.8956 0.898102 12.0897 0.8125 12.2921 0.8125C12.4944 0.8125 12.6885 0.898102 12.8317 1.05048C12.9748 1.20285 13.0552 1.40951 13.0552 1.625V4.0625C13.0552 4.27799 12.9748 4.48465 12.8317 4.63702C12.6885 4.7894 12.4944 4.875 12.2921 4.875C12.0897 4.875 11.8956 4.7894 11.7524 4.63702C11.6093 4.48465 11.5289 4.27799 11.5289 4.0625V1.625ZM5.42395 1.625C5.42395 1.40951 5.50435 1.20285 5.64746 1.05048C5.79058 0.898102 5.98468 0.8125 6.18707 0.8125C6.38947 0.8125 6.58357 0.898102 6.72668 1.05048C6.86979 1.20285 6.9502 1.40951 6.9502 1.625V4.0625C6.9502 4.27799 6.86979 4.48465 6.72668 4.63702C6.58357 4.7894 6.38947 4.875 6.18707 4.875C5.98468 4.875 5.79058 4.7894 5.64746 4.63702C5.50435 4.48465 5.42395 4.27799 5.42395 4.0625V1.625ZM22.9758 7.3125H1.60834V4.46875C1.60924 4.14581 1.73013 3.83638 1.94461 3.60803C2.15908 3.37968 2.44971 3.25096 2.75302 3.25H4.66083V4.0625C4.66083 4.49348 4.82163 4.9068 5.10785 5.21155C5.39408 5.5163 5.78229 5.6875 6.18707 5.6875C6.59186 5.6875 6.98006 5.5163 7.26629 5.21155C7.55252 4.9068 7.71332 4.49348 7.71332 4.0625V3.25H10.7658V4.0625C10.7658 4.49348 10.9266 4.9068 11.2128 5.21155C11.4991 5.5163 11.8873 5.6875 12.2921 5.6875C12.6968 5.6875 13.085 5.5163 13.3713 5.21155C13.6575 4.9068 13.8183 4.49348 13.8183 4.0625V3.25H16.8708V4.0625C16.8708 4.49348 17.0316 4.9068 17.3178 5.21155C17.604 5.5163 17.9922 5.6875 18.397 5.6875C18.8018 5.6875 19.19 5.5163 19.4763 5.21155C19.7625 4.9068 19.9233 4.49348 19.9233 4.0625V3.25H21.8311C22.1344 3.25096 22.425 3.37968 22.6395 3.60803C22.854 3.83638 22.9749 4.14581 22.9758 4.46875V7.3125Z" fill="#109CF1"/>
<path d="M11.5289 10.9688C11.5289 10.7533 11.4485 10.5466 11.3054 10.3942C11.1623 10.2419 10.9682 10.1562 10.7658 10.1562H9.23956C9.03717 10.1562 8.84307 10.2419 8.69995 10.3942C8.55684 10.5466 8.47644 10.7533 8.47644 10.9688V12.1875C8.47644 12.403 8.55684 12.6097 8.69995 12.762C8.84307 12.9144 9.03717 13 9.23956 13H10.7658C10.9682 13 11.1623 12.9144 11.3054 12.762C11.4485 12.6097 11.5289 12.403 11.5289 12.1875V10.9688ZM9.23956 12.1875V10.9688H10.7658V12.1875H9.23956Z" fill="#109CF1"/>
<path d="M6.9502 10.9688C6.9502 10.7533 6.8698 10.5466 6.72668 10.3942C6.58357 10.2419 6.38947 10.1562 6.18707 10.1562H4.66083C4.45843 10.1562 4.26433 10.2419 4.12122 10.3942C3.97811 10.5466 3.89771 10.7533 3.89771 10.9688V12.1875C3.89771 12.403 3.97811 12.6097 4.12122 12.762C4.26433 12.9144 4.45843 13 4.66083 13H6.18707C6.38947 13 6.58357 12.9144 6.72668 12.762C6.8698 12.6097 6.9502 12.403 6.9502 12.1875V10.9688ZM4.66083 12.1875V10.9688H6.18707V12.1875H4.66083Z" fill="#109CF1"/>
<path d="M19.9233 13C20.1256 13 20.3197 12.9144 20.4629 12.762C20.606 12.6097 20.6864 12.403 20.6864 12.1875V10.9688C20.6864 10.7533 20.606 10.5466 20.4629 10.3942C20.3197 10.2419 20.1256 10.1562 19.9233 10.1562H18.397C18.1946 10.1562 18.0005 10.2419 17.8574 10.3942C17.7143 10.5466 17.6339 10.7533 17.6339 10.9688V12.1875C17.6339 12.403 17.7143 12.6097 17.8574 12.762C18.0005 12.9144 18.1946 13 18.397 13H19.9233ZM18.397 10.9688H19.9233V12.1875H18.397V10.9688Z" fill="#109CF1"/>
<path d="M11.5289 14.625C11.5289 14.4095 11.4485 14.2028 11.3054 14.0505C11.1623 13.8981 10.9682 13.8125 10.7658 13.8125H9.23956C9.03717 13.8125 8.84307 13.8981 8.69995 14.0505C8.55684 14.2028 8.47644 14.4095 8.47644 14.625V15.8438C8.47644 16.0592 8.55684 16.2659 8.69995 16.4183C8.84307 16.5706 9.03717 16.6562 9.23956 16.6562H10.7658C10.9682 16.6562 11.1623 16.5706 11.3054 16.4183C11.4485 16.2659 11.5289 16.0592 11.5289 15.8438V14.625ZM9.23956 15.8438V14.625H10.7658V15.8438H9.23956Z" fill="#109CF1"/>
<path d="M6.9502 14.625C6.9502 14.4095 6.8698 14.2028 6.72668 14.0505C6.58357 13.8981 6.38947 13.8125 6.18707 13.8125H4.66083C4.45843 13.8125 4.26433 13.8981 4.12122 14.0505C3.97811 14.2028 3.89771 14.4095 3.89771 14.625V15.8438C3.89771 16.0592 3.97811 16.2659 4.12122 16.4183C4.26433 16.5706 4.45843 16.6562 4.66083 16.6562H6.18707C6.38947 16.6562 6.58357 16.5706 6.72668 16.4183C6.8698 16.2659 6.9502 16.0592 6.9502 15.8438V14.625ZM4.66083 15.8438V14.625H6.18707V15.8438H4.66083Z" fill="#109CF1"/>
<path d="M10.7658 17.4688H9.23956C9.03717 17.4688 8.84307 17.5544 8.69995 17.7067C8.55684 17.8591 8.47644 18.0658 8.47644 18.2812V19.5C8.47644 19.7155 8.55684 19.9222 8.69995 20.0745C8.84307 20.2269 9.03717 20.3125 9.23956 20.3125H10.7658C10.9682 20.3125 11.1623 20.2269 11.3054 20.0745C11.4485 19.9222 11.5289 19.7155 11.5289 19.5V18.2812C11.5289 18.0658 11.4485 17.8591 11.3054 17.7067C11.1623 17.5544 10.9682 17.4688 10.7658 17.4688ZM9.23956 19.5V18.2812H10.7658V19.5H9.23956Z" fill="#109CF1"/>
<path d="M13.8183 13H15.3445C15.5469 13 15.741 12.9144 15.8842 12.762C16.0273 12.6097 16.1077 12.403 16.1077 12.1875V10.9688C16.1077 10.7533 16.0273 10.5466 15.8842 10.3942C15.741 10.2419 15.5469 10.1562 15.3445 10.1562H13.8183C13.6159 10.1562 13.4218 10.2419 13.2787 10.3942C13.1356 10.5466 13.0552 10.7533 13.0552 10.9688V12.1875C13.0552 12.403 13.1356 12.6097 13.2787 12.762C13.4218 12.9144 13.6159 13 13.8183 13ZM13.8183 10.9688H15.3445V12.1875H13.8183V10.9688Z" fill="#109CF1"/>
<path d="M13.0552 15.8438C13.0552 16.0592 13.1356 16.2659 13.2787 16.4183C13.4218 16.5706 13.6159 16.6562 13.8183 16.6562C13.9195 16.6562 14.0166 16.6134 14.0881 16.5373C14.1597 16.4611 14.1999 16.3577 14.1999 16.25C14.1999 16.1423 14.1597 16.0389 14.0881 15.9627C14.0166 15.8866 13.9195 15.8438 13.8183 15.8438V14.625H15.3446C15.4458 14.625 15.5428 14.5822 15.6144 14.506C15.6859 14.4298 15.7261 14.3265 15.7261 14.2188C15.7261 14.111 15.6859 14.0077 15.6144 13.9315C15.5428 13.8553 15.4458 13.8125 15.3446 13.8125H13.8183C13.6159 13.8125 13.4218 13.8981 13.2787 14.0505C13.1356 14.2028 13.0552 14.4095 13.0552 14.625V15.8438Z" fill="#109CF1"/>
<path d="M6.18707 17.4688H4.66083C4.45843 17.4688 4.26433 17.5544 4.12122 17.7067C3.97811 17.8591 3.89771 18.0658 3.89771 18.2812V19.5C3.89771 19.7155 3.97811 19.9222 4.12122 20.0745C4.26433 20.2269 4.45843 20.3125 4.66083 20.3125H6.18707C6.38947 20.3125 6.58357 20.2269 6.72668 20.0745C6.8698 19.9222 6.9502 19.7155 6.9502 19.5V18.2812C6.9502 18.0658 6.8698 17.8591 6.72668 17.7067C6.58357 17.5544 6.38947 17.4688 6.18707 17.4688ZM4.66083 19.5V18.2812H6.18707V19.5H4.66083Z" fill="#109CF1"/>
<path d="M18.7786 13.8125C17.7976 13.8125 16.8386 14.1222 16.0229 14.7026C15.2071 15.2829 14.5714 16.1077 14.1959 17.0727C13.8205 18.0377 13.7223 19.0996 13.9137 20.1241C14.1051 21.1485 14.5775 22.0896 15.2712 22.8282C15.9649 23.5668 16.8487 24.0697 17.8109 24.2735C18.7731 24.4773 19.7705 24.3727 20.6769 23.973C21.5832 23.5733 22.3579 22.8963 22.903 22.0279C23.448 21.1594 23.7389 20.1383 23.7389 19.0937C23.7374 17.6936 23.2143 16.3512 22.2844 15.3611C21.3545 14.371 20.0937 13.8141 18.7786 13.8125ZM18.7786 23.5625C17.9485 23.5625 17.137 23.3004 16.4468 22.8094C15.7566 22.3183 15.2186 21.6204 14.901 20.8039C14.5833 19.9873 14.5002 19.0888 14.6621 18.2219C14.8241 17.3551 15.2238 16.5588 15.8108 15.9339C16.3978 15.3089 17.1456 14.8833 17.9598 14.7109C18.774 14.5384 19.6179 14.6269 20.3848 14.9652C21.1518 15.3034 21.8073 15.8762 22.2685 16.611C22.7296 17.3459 22.9758 18.2099 22.9758 19.0937C22.9745 20.2785 22.5319 21.4143 21.745 22.2521C20.9582 23.0898 19.8914 23.5611 18.7786 23.5625Z" fill="#109CF1"/>
<path d="M20.9832 17.3904L18.0155 20.5502L16.6667 19.1137C16.5947 19.0397 16.4983 18.9988 16.3983 18.9997C16.2982 19.0006 16.2025 19.0433 16.1318 19.1187C16.061 19.194 16.0209 19.2959 16.02 19.4024C16.0192 19.5089 16.0576 19.6115 16.1271 19.6881L17.7457 21.4119C17.8173 21.488 17.9143 21.5308 18.0155 21.5308C18.1166 21.5308 18.2137 21.488 18.2852 21.4119L21.5228 17.9648C21.5923 17.8882 21.6307 17.7856 21.6299 17.6791C21.629 17.5726 21.5889 17.4707 21.5181 17.3954C21.4474 17.32 21.3517 17.2773 21.2516 17.2764C21.1516 17.2755 21.0552 17.3164 20.9832 17.3904Z" fill="#109CF1"/>
</svg>
