<svg width="14" height="10" viewBox="0 0 14 10" fill="none" xmlns="http://www.w3.org/2000/svg">
<path d="M4.66667 9.3155C4.66667 9.13396 4.72812 8.95985 4.83752 8.83148C4.94692 8.70312 5.09529 8.631 5.25 8.631H8.75C8.90471 8.631 9.05308 8.70312 9.16248 8.83148C9.27188 8.95985 9.33333 9.13396 9.33333 9.3155C9.33333 9.49704 9.27188 9.67115 9.16248 9.79951C9.05308 9.92788 8.90471 10 8.75 10H5.25C5.09529 10 4.94692 9.92788 4.83752 9.79951C4.72812 9.67115 4.66667 9.49704 4.66667 9.3155ZM2.33333 5.2085C2.33333 5.02696 2.39479 4.85285 2.50419 4.72448C2.61358 4.59611 2.76196 4.524 2.91667 4.524H11.0833C11.238 4.524 11.3864 4.59611 11.4958 4.72448C11.6052 4.85285 11.6667 5.02696 11.6667 5.2085C11.6667 5.39004 11.6052 5.56414 11.4958 5.69251C11.3864 5.82088 11.238 5.893 11.0833 5.893H2.91667C2.76196 5.893 2.61358 5.82088 2.50419 5.69251C2.39479 5.56414 2.33333 5.39004 2.33333 5.2085ZM0 1.10149C0 0.919952 0.0614583 0.745847 0.170854 0.617478C0.280251 0.489109 0.428624 0.416992 0.583333 0.416992H13.4167C13.5714 0.416992 13.7197 0.489109 13.8291 0.617478C13.9385 0.745847 14 0.919952 14 1.10149C14 1.28303 13.9385 1.45714 13.8291 1.58551C13.7197 1.71388 13.5714 1.78599 13.4167 1.78599H0.583333C0.428624 1.78599 0.280251 1.71388 0.170854 1.58551C0.0614583 1.45714 0 1.28303 0 1.10149Z" fill="#334D6E"/>
</svg>
