<svg width="21" height="13" viewBox="0 0 21 13" fill="none" xmlns="http://www.w3.org/2000/svg">
<path d="M10.4894 3.00002C10.1574 3.00521 9.82776 3.05796 9.51065 3.15667C9.65733 3.41463 9.73543 3.70588 9.73749 4.00261C9.73749 4.23302 9.69211 4.46118 9.60393 4.67405C9.51576 4.88692 9.38652 5.08034 9.2236 5.24326C9.06067 5.40619 8.86725 5.53542 8.65438 5.6236C8.44151 5.71177 8.21336 5.75715 7.98295 5.75715C7.68621 5.7551 7.39496 5.677 7.13701 5.53032C6.93349 6.23614 6.95721 6.98811 7.20481 7.67971C7.45241 8.3713 7.91133 8.96746 8.51657 9.38375C9.12181 9.80003 9.84269 10.0153 10.5771 9.99915C11.3115 9.98297 12.0222 9.73613 12.6085 9.29359C13.1948 8.85106 13.6271 8.23526 13.844 7.53344C14.0608 6.83161 14.0514 6.07932 13.817 5.38315C13.5826 4.68697 13.1351 4.08219 12.5379 3.65448C11.9407 3.22676 11.224 2.9978 10.4894 3.00002Z" fill="#0079FF"/>
<path d="M10.36 12C14.349 12 17.818 9.776 19.595 6.5C18.6942 4.8361 17.3604 3.44658 15.7348 2.47842C14.1092 1.51026 12.2521 0.999442 10.36 1C8.46791 0.999442 6.61083 1.51026 4.9852 2.47842C3.35956 3.44658 2.02581 4.8361 1.125 6.5C2.02581 8.1639 3.35956 9.55342 4.9852 10.5216C6.61083 11.4897 8.46791 12.0006 10.36 12ZM10.36 6.42059e-07C12.5234 -0.000722144 14.6431 0.608816 16.4757 1.7586C18.3083 2.90838 19.7794 4.55177 20.72 6.5C19.7794 8.44823 18.3083 10.0916 16.4757 11.2414C14.6431 12.3912 12.5234 13.0007 10.36 13C8.19659 13.0007 6.07685 12.3912 4.24428 11.2414C2.4117 10.0916 0.940613 8.44823 0 6.5C0.940613 4.55177 2.4117 2.90838 4.24428 1.7586C6.07685 0.608816 8.19659 -0.000722144 10.36 6.42059e-07Z" fill="#0079FF"/>
</svg>
