<svg xmlns="http://www.w3.org/2000/svg" xmlns:xlink="http://www.w3.org/1999/xlink" width="78" height="78" viewBox="0 0 78 78"><defs><filter id="a" x="0" y="0" width="78" height="78" filterUnits="userSpaceOnUse"><feOffset dy="3" input="SourceAlpha"/><feGaussianBlur stdDeviation="5" result="b"/><feFlood flood-opacity="0.259"/><feComposite operator="in" in2="b"/><feComposite in="SourceGraphic"/></filter></defs><g transform="translate(2072 -7293)"><g transform="translate(-2238 3573)"><g transform="matrix(1, 0, 0, 1, 166, 3720)" filter="url(#a)"><circle cx="24" cy="24" r="24" transform="translate(15 12)" fill="#fff"/></g></g><g transform="translate(-3705 -6352)"><rect width="28" height="28" transform="translate(1658 13667)" fill="none"/><g transform="translate(1660.333 13668.156)"><path d="M21.4,14.775V5.347a2.139,2.139,0,0,0-2.14-2.139H2.14a1.069,1.069,0,1,1,0-2.139H19.258a.535.535,0,1,0,0-1.069H2.14A2.139,2.139,0,0,0,0,2.139V23.528a2.139,2.139,0,0,0,2.14,2.139h10.7a6.914,6.914,0,0,1-1.481-4.278,7.042,7.042,0,0,1,7.1-6.9A13,13,0,0,1,21.4,14.775Zm-4.28-5.15H5.349V7.486H17.118Z" fill="#9b9b9b"/></g><g transform="translate(1671.373 13678.816)"><path d="M5.377,6a1.08,1.08,0,0,1,.95,1.189,1.061,1.061,0,0,1-.15.444H7.756a3.246,3.246,0,0,1,2.382.986h0a3.372,3.372,0,0,1,0,4.764,3.245,3.245,0,0,1-2.382.986H4.643a1.076,1.076,0,1,1,0-2.153H7.756a1.216,1.216,0,0,0,.859-2.076h0a1.169,1.169,0,0,0-.858-.355H6.2a1.046,1.046,0,0,1,.2.52A1.079,1.079,0,0,1,5.441,11.5a1.043,1.043,0,0,1-.791-.232L2.573,9.587l-.006,0-.039-.031c-.028-.024-.056-.049-.083-.076l-.015-.015-.043-.047c-.018-.02-.034-.041-.05-.062l0,0a.977.977,0,0,1-.087-.14.945.945,0,0,1-.069-.167c-.008-.026-.015-.052-.021-.078a1.076,1.076,0,0,1-.025-.184q0-.044,0-.09a.99.99,0,0,1,.015-.163l.018-.089a1,1,0,0,1,.064-.179l.047-.087.145-.193.036-.036.056-.051c.019-.017.038-.033.058-.048L4.585,6.233A1.043,1.043,0,0,1,5.377,6Z" transform="translate(0 0)" fill="#9b9b9b" fill-rule="evenodd"/></g></g></g></svg>