<svg width="37" height="38" viewBox="0 0 37 38" fill="none" xmlns="http://www.w3.org/2000/svg">
<path d="M10.2779 4.33142C9.60032 4.33142 8.93796 4.53169 8.37457 4.90692C7.81118 5.28214 7.37207 5.81546 7.11277 6.43943C6.85347 7.0634 6.78563 7.75 6.91782 8.41241C7.05001 9.07481 7.3763 9.68327 7.85542 10.1608C8.33454 10.6384 8.94498 10.9636 9.60954 11.0954C10.2741 11.2272 10.9629 11.1595 11.5889 10.9011C12.2149 10.6426 12.75 10.2049 13.1264 9.64337C13.5029 9.08181 13.7038 8.4216 13.7038 7.74621C13.7027 6.84089 13.3414 5.97295 12.6992 5.33279C12.0569 4.69263 11.1862 4.33251 10.2779 4.33142ZM10.2779 9.79509C9.87135 9.79509 9.47393 9.67493 9.1359 9.44979C8.79787 9.22466 8.5344 8.90467 8.37882 8.53029C8.22325 8.1559 8.18254 7.74394 8.26185 7.3465C8.34117 6.94906 8.53694 6.58398 8.82441 6.29744C9.11188 6.0109 9.47815 5.81576 9.87688 5.73671C10.2756 5.65765 10.6889 5.69823 11.0645 5.8533C11.4401 6.00837 11.7612 6.27098 11.987 6.60792C12.2129 6.94486 12.3334 7.34099 12.3334 7.74621C12.3334 8.28961 12.1169 8.81075 11.7314 9.19499C11.3459 9.57923 10.8231 9.79509 10.2779 9.79509Z" fill="#CCD4DD"/>
<path d="M13.7037 34.3464V35.7472C13.7037 36.1094 13.848 36.4569 14.105 36.713C14.362 36.9692 14.7106 37.1131 15.074 37.1131H20.5555C20.9189 37.1131 21.2675 36.9692 21.5245 36.713C21.7815 36.4569 21.9258 36.1094 21.9258 35.7472V29.6006H26.0369V35.7472C26.0369 36.1094 26.1813 36.4569 26.4383 36.713C26.6953 36.9692 27.0438 37.1131 27.4073 37.1131H32.8887C33.2522 37.1131 33.6007 36.9692 33.8577 36.713C34.1147 36.4569 34.2591 36.1094 34.2591 35.7472V24.5071L35.8439 25.9994C35.976 26.1238 36.1523 26.1908 36.334 26.1857C36.5157 26.1806 36.6879 26.1037 36.8128 25.9721C36.9376 25.8404 37.0049 25.6646 36.9997 25.4835C36.9946 25.3024 36.9175 25.1308 36.7854 25.0064L34.0481 22.4296L34.0446 22.4248L24.5556 13.4938L24.4521 13.3961C24.3249 13.2762 24.1564 13.2094 23.9814 13.2094C23.8063 13.2094 23.6379 13.2762 23.5107 13.3961L23.4072 13.4938L13.9181 22.4248V22.4296L11.1774 25.0064C11.112 25.068 11.0594 25.1418 11.0226 25.2237C10.9858 25.3056 10.9656 25.3939 10.963 25.4835C10.9605 25.5732 10.9757 25.6625 11.0078 25.7463C11.0398 25.8302 11.0882 25.9069 11.15 25.9721C11.2118 26.0373 11.2859 26.0897 11.368 26.1263C11.4502 26.163 11.5388 26.1832 11.6287 26.1857C11.7187 26.1883 11.8083 26.1731 11.8924 26.1411C11.9765 26.1092 12.0534 26.061 12.1188 25.9994L13.7037 24.5071V32.9805C11.4947 32.8661 9.35161 32.1921 7.47675 31.0223C5.6019 29.8525 4.05725 28.2255 2.98877 26.2951C1.92028 24.3647 1.36326 22.1947 1.37034 19.99C1.37742 17.7853 1.94835 15.6188 3.0292 13.6953C3.07329 13.6171 3.1015 13.531 3.11221 13.4419C3.12291 13.3528 3.11591 13.2625 3.09161 13.1761C3.0673 13.0898 3.02617 13.009 2.97055 12.9385C2.91494 12.8679 2.84593 12.809 2.76746 12.7651C2.689 12.7211 2.60262 12.693 2.51326 12.6823C2.4239 12.6717 2.3333 12.6786 2.24665 12.7029C2.15999 12.7271 2.07897 12.7681 2.00821 12.8235C1.93745 12.879 1.87834 12.9478 1.83425 13.026C0.636372 15.1573 0.00498016 17.5585 2.93411e-05 20.0015C-0.00492148 22.4445 0.616733 24.8482 1.80596 26.9843C2.99519 29.1205 4.7125 30.9182 6.79484 32.2067C8.87717 33.4952 11.2554 34.2318 13.7037 34.3464ZM15.074 23.2143L22.4473 16.2761L23.9814 14.8324L27.1332 17.8039L30.6962 21.1538L32.8887 23.217V35.7472H27.4073V29.6006C27.4073 29.2383 27.2629 28.8909 27.0059 28.6347C26.7489 28.3786 26.4004 28.2347 26.0369 28.2347H21.9258C21.5624 28.2347 21.2138 28.3786 20.9568 28.6347C20.6998 28.8909 20.5555 29.2383 20.5555 29.6006V35.7472H15.074V23.2143Z" fill="#CCD4DD"/>
<path d="M24.4351 11.7857C24.4924 11.8549 24.5628 11.9122 24.6422 11.9543C24.7217 11.9964 24.8087 12.0224 24.8983 12.031C24.9879 12.0396 25.0783 12.0304 25.1643 12.0042C25.2504 11.9779 25.3304 11.935 25.3998 11.8779C25.4693 11.8209 25.5267 11.7507 25.5689 11.6715C25.6111 11.5923 25.6373 11.5055 25.6459 11.4162C25.6545 11.3269 25.6453 11.2368 25.619 11.1511C25.5926 11.0653 25.5496 10.9855 25.4923 10.9163C23.4732 8.484 20.7067 6.78208 17.6203 6.07348C17.203 4.27839 16.1383 2.69879 14.6288 1.63506C13.1193 0.571335 11.2702 0.0976807 9.43321 0.304175C7.59621 0.510669 5.89941 1.38291 4.66549 2.75502C3.43158 4.12713 2.74662 5.9034 2.74088 7.74604C2.74088 11.7284 9.47484 19.4772 9.76125 19.805C9.82556 19.8786 9.90495 19.9376 9.99407 19.978C10.0832 20.0185 10.18 20.0394 10.2779 20.0394C10.3758 20.0394 10.4726 20.0185 10.5617 19.978C10.6508 19.9376 10.7302 19.8786 10.7945 19.805C11.0809 19.4772 17.8149 11.7284 17.8149 7.74604C17.8149 7.67023 17.806 7.59647 17.8032 7.52135C20.4024 8.22645 22.719 9.71606 24.4351 11.7857ZM10.2779 18.3032C8.17163 15.7879 4.11124 10.3925 4.11124 7.74604C4.11124 6.11586 4.76094 4.55244 5.9174 3.39973C7.07387 2.24701 8.64238 1.59942 10.2779 1.59942C11.9134 1.59942 13.4819 2.24701 14.6383 3.39973C15.7948 4.55244 16.4445 6.11586 16.4445 7.74604C16.4445 10.3911 12.3834 15.7872 10.2779 18.3032Z" fill="#CCD4DD"/>
</svg>
