<svg width="38" height="38" viewBox="0 0 38 38" fill="none" xmlns="http://www.w3.org/2000/svg">
<path d="M19 12.0333C17.0434 12.0333 15.4597 13.6107 15.4597 15.563C15.4597 17.5153 17.0434 19.0927 19 19.0927C20.9567 19.0927 22.5403 17.5153 22.5403 15.563C22.5403 13.6107 20.9567 12.0333 19 12.0333ZM19 17.3965C17.976 17.3965 17.121 16.5431 17.121 15.5244C17.121 14.5057 17.976 13.6523 19 13.6523C20.024 13.6523 20.8791 14.5057 20.8791 15.5244C20.8791 16.5431 20.024 17.3965 19 17.3965Z" fill="#CCD4DD" stroke="#F5F5F5" stroke-width="0.5"/>
<path d="M22.9262 28.2963L22.9262 28.2964L22.93 28.2948C26.661 26.7123 29.0437 23.1106 29.0437 19.0745C29.0437 13.5724 24.5181 9.06262 19.0001 9.06262C13.4828 9.06262 8.95657 13.5332 8.95657 19.0745C8.95657 23.1492 11.3783 26.7908 15.1889 28.3344C16.4208 28.8491 17.692 29.0863 19.0001 29.0863C20.3513 29.0863 21.6605 28.8089 22.9262 28.2963ZM23.8606 19.7193L23.843 19.7149L23.8249 19.7131L19.1798 19.2501L19.1674 19.2489H19.155H19.1547H19.1545H19.1543H19.1541H19.1538H19.1536H19.1534H19.1532H19.1529H19.1527H19.1525H19.1523H19.152H19.1518H19.1516H19.1513H19.1511H19.1509H19.1507H19.1504H19.1502H19.15H19.1498H19.1495H19.1493H19.1491H19.1489H19.1486H19.1484H19.1482H19.1479H19.1477H19.1475H19.1473H19.147H19.1468H19.1466H19.1464H19.1461H19.1459H19.1457H19.1454H19.1452H19.145H19.1448H19.1445H19.1443H19.1441H19.1439H19.1436H19.1434H19.1432H19.143H19.1427H19.1425H19.1423H19.142H19.1418H19.1416H19.1414H19.1411H19.1409H19.1407H19.1405H19.1402H19.14H19.1398H19.1396H19.1393H19.1391H19.1389H19.1386H19.1384H19.1382H19.138H19.1377H19.1375H19.1373H19.1371H19.1368H19.1366H19.1364H19.1362H19.1359H19.1357H19.1355H19.1352H19.135H19.1348H19.1346H19.1343H19.1341H19.1339H19.1337H19.1334H19.1332H19.133H19.1327H19.1325H19.1323H19.1321H19.1318H19.1316H19.1314H19.1312H19.1309H19.1307H19.1305H19.1303H19.13H19.1298H19.1296H19.1293H19.1291H19.1289H19.1287H19.1284H19.1282H19.128H19.1278H19.1275H19.1273H19.1271H19.1269H19.1266H19.1264H19.1262H19.1259H19.1257H19.1255H19.1253H19.125H19.1248H19.1246H19.1244H19.1241H19.1239H19.1237H19.1234H19.1232H19.123H19.1228H19.1225H19.1223H19.1221H19.1219H19.1216H19.1214H19.1212H19.121H19.1207H19.1205H19.1203H19.12H19.1198H19.1196H19.1194H19.1191H19.1189H19.1187H19.1185H19.1182H19.118H19.1178H19.1176H19.1173H19.1171H19.1169H19.1166H19.1164H19.1162H19.116H19.1157H19.1155H19.1153H19.1151H19.1148H19.1146H19.1144H19.1141H19.1139H19.1137H19.1135H19.1132H19.113H19.1128H19.1126H19.1123H19.1121H19.1119H19.1117H19.1114H19.1112H19.111H19.1107H19.1105H19.1103H19.1101H19.1098H19.1096H19.1094H19.1092H19.1089H19.1087H19.1085H19.1083H19.108H19.1078H19.1076H19.1073H19.1071H19.1069H19.1067H19.1064H19.1062H19.106H19.1058H19.1055H19.1053H19.1051H19.1048H19.1046H19.1044H19.1042H19.1039H19.1037H19.1035H19.1033H19.103H19.1028H19.1026H19.1024H19.1021H19.1019H19.1017H19.1014H19.1012H19.101H19.1008H19.1005H19.1003H19.1001H19.0999H19.0996H19.0994H19.0992H19.099H19.0987H19.0985H19.0983H19.098H19.0978H19.0976H19.0974H19.0971H19.0969H19.0967H19.0965H19.0962H19.096H19.0958H19.0955H19.0953H19.0951H19.0949H19.0946H19.0944H19.0942H19.094H19.0937H19.0935H19.0933H19.0931H19.0928H19.0926H19.0924H19.0921H19.0919H19.0917H19.0915H19.0912H19.091H19.0908H19.0906H19.0903H19.0901H19.0899H19.0897H19.0894H19.0892H19.089H19.0887H19.0885H19.0883H19.0881H19.0878H19.0876H19.0874H19.0872H19.0869H19.0867H19.0865H19.0863H19.086H19.0858H19.0856H19.0853H19.0851H19.0849H19.0847H19.0844H19.0842H19.084H19.0838H19.0835H19.0833H19.0831H19.0828H19.0826H19.0824H19.0822H19.0819H19.0817H19.0815H19.0813H19.081H19.0808H19.0806H19.0804H19.0801H19.0799H19.0797H19.0794H19.0792H19.079H19.0788H19.0785H19.0783H19.0781H19.0779H19.0776H19.0774H19.0772H19.077H19.0767H19.0765H19.0763H19.076H19.0758H19.0756H19.0754H19.0751H19.0749H19.0747H19.0745H19.0742H19.074H19.0738H19.0735H19.0733H19.0731H19.0729H19.0726H19.0724H19.0722H19.072H19.0717H19.0715H19.0713H19.0711H19.0708H19.0706H19.0704H19.0701H19.0699H19.0697H19.0695H19.0692H19.069H19.0688H19.0686H19.0683H19.0681H19.0679H19.0677H19.0674H19.0672H19.067H19.0667H19.0665H19.0663H19.0661H19.0658H19.0656H19.0654H19.0652H19.0649H19.0647H19.0645H19.0642H19.064H19.0638H19.0636H19.0633H19.0631H19.0629H19.0627H19.0624H19.0622H19.062H19.0618H19.0615H19.0613H19.0611H19.0608H19.0606H19.0604H19.0602H19.0599H19.0597H19.0595H19.0593H19.059H19.0588H19.0586H19.0584H19.0581H19.0579H19.0577H19.0574H19.0572H19.057H19.0568H19.0565H19.0563H19.0561H19.0559H19.0556H19.0554H19.0552H19.0549H19.0547H19.0545H19.0543H19.054H19.0538H19.0536H19.0534H19.0531H19.0529H19.0527H19.0525H19.0522H19.052H19.0518H19.0515H19.0513H19.0511H19.0509H19.0506H19.0504H19.0502H19.05H19.0497H19.0495H19.0493H19.0491H19.0488H19.0486H19.0484H19.0481H19.0479H19.0477H19.0475H19.0472H19.047H19.0468H19.0466H19.0463H19.0461H19.0459H19.0456H19.0454H19.0452H19.045H19.0447H19.0445H19.0443H19.0441H19.0438H19.0436H19.0434H19.0432H19.0429H19.0427H19.0425H19.0422H19.042H19.0418H19.0416H19.0413H19.0411H19.0409H19.0407H19.0404H19.0402H19.04H19.0398H19.0395H19.0393H19.0391H19.0388H19.0267L19.0146 19.2501L14.2637 19.7121C14.1309 19.7153 14.0122 19.7647 13.9201 19.8238C13.8317 19.8804 13.7541 19.9544 13.6968 20.034C13.5242 20.2178 13.48 20.4544 13.5283 20.701L14.4064 26.0577C12.0764 24.5107 10.6179 21.9234 10.6179 19.0745C10.6179 14.4674 14.3761 10.7202 19.0001 10.7202C23.6241 10.7202 27.3824 14.4674 27.3824 19.0745C27.3824 21.8849 25.9606 24.4665 23.6728 26.0133L24.5485 20.7063C24.6048 20.467 24.5355 20.2405 24.387 20.0431C24.3091 19.9396 24.2241 19.8664 24.1264 19.814C24.0339 19.7643 23.9396 19.739 23.8606 19.7193ZM16.2423 26.9542L15.3036 21.3044L19.0773 20.9461L22.7758 21.3041L21.8737 26.9508C20.0337 27.5656 18.0375 27.5966 16.2423 26.9542Z" fill="#CCD4DD" stroke="#F5F5F5" stroke-width="0.5"/>
<path d="M26.3935 31.0354L26.2625 30.8225C24.9669 31.6201 23.5597 32.2261 22.0794 32.5666L22.0794 32.5663L22.067 32.5698C21.7032 32.6734 21.421 32.9927 21.421 33.389V35.6855H16.5016V33.389C16.5016 32.9927 16.2194 32.6734 15.8556 32.5698L15.8557 32.5695L15.8431 32.5666C14.3597 32.2254 12.9552 31.6575 11.6658 30.8261C11.3306 30.6044 10.8908 30.6626 10.6171 30.9355L9.0129 32.5344L5.49607 29.029L7.09907 27.4312C7.37237 27.1588 7.43151 26.7207 7.21045 26.386C6.41128 25.0956 5.80416 23.6944 5.46291 22.2204L5.46324 22.2203L5.45968 22.2079C5.35541 21.8442 5.03473 21.5638 4.63871 21.5638H2.41129V16.5849H4.71613C5.11215 16.5849 5.43283 16.3045 5.5371 15.9408L5.53742 15.9409L5.54033 15.9283C5.8826 14.4499 6.45225 13.0502 7.28628 11.7651C7.50921 11.4301 7.45044 10.9905 7.17649 10.7175L5.57348 9.11969L9.09032 5.61427L10.6945 7.21322C10.9676 7.48542 11.4059 7.54397 11.7409 7.32414C13.0356 6.52753 14.4416 5.9223 15.9206 5.5821L15.9206 5.58242L15.933 5.5789C16.2968 5.47529 16.579 5.15594 16.579 4.7597V2.54033H21.5758V4.83687C21.5758 5.23311 21.858 5.55245 22.2218 5.65607L22.2218 5.65639L22.2343 5.65927C23.7177 6.00048 25.1222 6.56836 26.4116 7.39974C26.7468 7.62142 27.1866 7.56323 27.4604 7.29039L29.0645 5.69144L32.5814 9.19685L30.9783 10.7947C30.705 11.0671 30.6459 11.5052 30.867 11.8399C31.6661 13.1303 32.2733 14.5315 32.6145 16.0054L32.6142 16.0055L32.6177 16.0179C32.722 16.3817 33.0427 16.662 33.4387 16.662H35.7435V21.5638H33.2839C32.8878 21.5638 32.5672 21.8442 32.4629 22.2079L32.4626 22.2078L32.4597 22.2204C32.1174 23.6987 31.5478 25.0985 30.7137 26.3836C30.4908 26.7186 30.5495 27.1581 30.8235 27.4312L32.4265 29.029L28.9097 32.5344L27.3055 30.9355C27.0314 30.6622 26.5906 30.6043 26.2552 30.8271L26.3935 31.0354ZM26.3935 31.0354C26.6258 30.881 26.9355 30.9196 27.129 31.1125L28.9097 32.8874L21.671 35.6855V33.389C21.671 33.1189 21.8645 32.8874 22.1355 32.8102C23.6452 32.463 25.0774 31.8456 26.3935 31.0354ZM34.2733 8.55678L34.2725 8.55606L29.5507 3.88813C29.5506 3.88801 29.5505 3.8879 29.5503 3.88779C29.2205 3.55938 28.7145 3.55949 28.3848 3.88813L26.623 5.64425C25.5119 5.0193 24.3669 4.55461 23.1597 4.22101V1.71157C23.1597 1.26406 22.776 0.882812 22.329 0.882812H15.671C15.224 0.882812 14.8403 1.26406 14.8403 1.71157V4.1826C13.6299 4.51926 12.4566 5.01372 11.3784 5.60705L9.6152 3.84954C9.28538 3.52079 8.77914 3.52079 8.44932 3.84954L8.44859 3.85027L3.76545 8.55678C3.76531 8.55692 3.76517 8.55706 3.76503 8.5572C3.43517 8.88641 3.43531 9.39211 3.76545 9.72117L5.52645 11.4765C4.89982 12.5835 4.43381 13.7244 4.09921 14.9274H1.58065C1.13366 14.9274 0.75 15.3086 0.75 15.7561V22.3926C0.75 22.8401 1.13366 23.2213 1.58065 23.2213H4.06068C4.39834 24.4275 4.89419 25.5965 5.48914 26.6708L3.72674 28.4275L3.90323 28.6046L3.72674 28.4275C3.39646 28.7567 3.39646 29.2627 3.72674 29.5919L8.41061 34.2606C8.74043 34.5893 9.24667 34.5893 9.57649 34.2606L11.3383 32.5044C12.4494 33.1294 13.5944 33.5941 14.8016 33.9277V36.4371C14.8016 36.8846 15.1853 37.2659 15.6323 37.2659H22.2903C22.7373 37.2659 23.121 36.8846 23.121 36.4371V33.9661C24.3314 33.6294 25.5047 33.135 26.5829 32.5416L28.3461 34.2991C28.6759 34.6279 29.1821 34.6279 29.512 34.2991L34.1958 29.6305C34.5261 29.3013 34.5261 28.7953 34.1958 28.4661L32.4348 26.7108C33.0615 25.6038 33.5275 24.4629 33.8621 23.2599H36.4194C36.8663 23.2599 37.25 22.8787 37.25 22.4311V15.7561C37.25 15.3086 36.8663 14.9274 36.4194 14.9274H33.9393C33.6017 13.7212 33.1058 12.5522 32.5109 11.4778L34.2733 9.72117C34.6035 9.39197 34.6035 8.88598 34.2733 8.55678Z" fill="#CCD4DD" stroke="#F5F5F5" stroke-width="0.5"/>
</svg>
