<svg width="12" height="12" viewBox="0 0 12 12" fill="none" xmlns="http://www.w3.org/2000/svg">
<path d="M6 0C2.65714 0 0 2.65714 0 6C0 9.34286 2.65714 12 6 12C9.34286 12 12 9.34286 12 6C12 2.65714 9.34286 0 6 0ZM6 11.1429C3.17143 11.1429 0.857143 8.82857 0.857143 6C0.857143 3.17143 3.17143 0.857143 6 0.857143C8.82857 0.857143 11.1429 3.17143 11.1429 6C11.1429 8.82857 8.82857 11.1429 6 11.1429Z" fill="#E70B0B"/>
<path d="M8.31429 9L6 6.68571L3.68571 9L3 8.31429L5.31429 6L3 3.68571L3.68571 3L6 5.31429L8.31429 3L9 3.68571L6.68571 6L9 8.31429L8.31429 9Z" fill="#E70B0B"/>
</svg>
