<svg width="33" height="33" viewBox="0 0 33 33" fill="none" xmlns="http://www.w3.org/2000/svg">
<mask id="path-1-outside-1" maskUnits="userSpaceOnUse" x="0" y="0" width="33" height="33" fill="black">
<rect fill="white" width="33" height="33"/>
<path d="M32.6547 1.52124C32.6539 1.38056 32.5968 1.24617 32.496 1.14793C32.3948 1.04995 32.2589 0.996771 32.1182 1.00018H1.53653C1.39585 0.996509 1.25962 1.04995 1.15876 1.14793C1.0579 1.24591 1.00053 1.38056 1.00001 1.52124V26.7993C0.998436 27.0995 1.23631 27.3468 1.53653 27.3567H8.89089L9.14815 27.9341C9.2401 28.1414 9.45309 28.2676 9.67917 28.2488L10.7567 28.167C11.1596 28.6674 11.6269 29.1122 12.1467 29.4897L12.115 30.5643C12.1084 30.7917 12.246 30.9987 12.4582 31.0804L14.747 31.9641C14.9584 32.0455 15.1984 31.9855 15.3464 31.8137L16.0451 31.0039C16.6835 31.0634 17.3264 31.0469 17.9609 30.9542L18.7089 31.7343C18.8647 31.8967 19.105 31.9447 19.3111 31.8546L21.5599 30.8706C21.7682 30.7794 21.8965 30.5667 21.8798 30.3398L21.8007 29.2623C22.3016 28.8594 22.7469 28.3918 23.1247 27.8718L24.2001 27.9035C24.4259 27.9155 24.6342 27.7814 24.7164 27.5708L24.8031 27.3567H32.1182C32.4184 27.3465 32.6563 27.0995 32.6547 26.7993V7.20894C32.6547 7.2071 32.6547 7.20553 32.6547 7.2037C32.6547 7.20186 32.6547 7.20029 32.6547 7.19846V1.52124ZM31.5817 2.07322V6.70071H2.07305V2.07322H31.5817ZM22.8664 26.7906C22.6814 26.7846 22.5064 26.875 22.4042 27.0293C22.005 27.6287 21.5046 28.1542 20.9254 28.5823C20.7774 28.6915 20.6959 28.8694 20.7093 29.0528L20.7818 30.0394L19.2242 30.7207L18.5401 30.0074C18.4154 29.8772 18.2336 29.8185 18.0563 29.851C17.3424 29.9817 16.6125 30.0006 15.8929 29.9068C15.714 29.8835 15.5353 29.9519 15.4177 30.0883L14.7811 30.8261L13.199 30.2159L13.2281 29.2299C13.2336 29.0452 13.1432 28.8704 12.9895 28.7677C12.3901 28.3685 11.8645 27.8681 11.4365 27.2889C11.327 27.1411 11.1494 27.0597 10.966 27.073L9.97913 27.1453L9.76693 26.6604C9.75305 26.6083 9.7313 26.5583 9.70222 26.5124L9.29774 25.5876L10.0111 24.9036C10.1413 24.7789 10.2 24.5971 10.1675 24.42C10.0368 23.7062 10.0179 22.9763 10.1117 22.2567C10.1347 22.0777 10.0666 21.8991 9.93014 21.7812L9.19242 21.1446L9.80256 19.5625L10.7886 19.5916C10.9736 19.5976 11.1486 19.5073 11.2507 19.353C11.65 18.7533 12.1504 18.2278 12.7296 17.8C12.8776 17.6905 12.9591 17.5129 12.9457 17.3292L12.8731 16.3426L14.4308 15.6612L15.1151 16.3746C15.2398 16.5048 15.4216 16.5635 15.5987 16.531C16.3128 16.4003 17.0427 16.3814 17.7623 16.4752C17.9413 16.4982 18.1199 16.4301 18.2378 16.2936L18.8744 15.5559L20.4565 16.1661L20.4274 17.1519C20.4219 17.3368 20.512 17.5115 20.6661 17.6142C21.2654 18.0132 21.791 18.5139 22.2188 19.0931C22.3283 19.2408 22.5059 19.3223 22.6893 19.3089L23.6759 19.2364L24.3575 20.7941L23.6439 21.4781C23.514 21.6028 23.4553 21.7846 23.4875 21.9617C23.6182 22.6756 23.6371 23.4054 23.5436 24.1251C23.5202 24.304 23.5884 24.4826 23.7251 24.6005L24.4628 25.2371L23.8522 26.8192L22.8664 26.7906ZM25.2173 26.2837L25.5995 25.2819C25.681 25.0689 25.6213 24.8277 25.4494 24.6773L24.6397 23.976C24.6994 23.3373 24.6829 22.6936 24.5901 22.0589L25.3703 21.3102C25.5325 21.1543 25.5804 20.9138 25.4903 20.7076L24.5066 18.4588C24.4154 18.2503 24.2027 18.1219 23.9758 18.1387L22.8981 18.2178C22.4954 17.7169 22.0283 17.2716 21.5086 16.8936L21.5403 15.8182C21.5468 15.5908 21.4093 15.3838 21.1971 15.3018L18.9082 14.4184C18.6968 14.337 18.4568 14.3969 18.3088 14.5685L17.6099 15.3788C16.9714 15.3191 16.3283 15.3356 15.6938 15.4283L14.9459 14.6479C14.7903 14.4855 14.5498 14.4376 14.3436 14.5277L12.0948 15.5114C11.8866 15.6025 11.7582 15.8155 11.775 16.0424L11.8541 17.1199C11.3532 17.5228 10.9081 17.9904 10.5301 18.5102L9.45466 18.4787C9.22701 18.4714 9.01978 18.6089 8.93831 18.8217L8.0552 21.1105C7.97373 21.3219 8.03372 21.5619 8.20531 21.7099L9.01533 22.4089C8.9556 23.047 8.97211 23.6902 9.06484 24.3244L8.28495 25.0726C8.12227 25.2324 8.07459 25.4758 8.16471 25.6854L8.42144 26.2837H2.07305V7.77375H31.5817V26.2837H25.2173Z"/>
</mask>
<path d="M32.6547 1.52124C32.6539 1.38056 32.5968 1.24617 32.496 1.14793C32.3948 1.04995 32.2589 0.996771 32.1182 1.00018H1.53653C1.39585 0.996509 1.25962 1.04995 1.15876 1.14793C1.0579 1.24591 1.00053 1.38056 1.00001 1.52124V26.7993C0.998436 27.0995 1.23631 27.3468 1.53653 27.3567H8.89089L9.14815 27.9341C9.2401 28.1414 9.45309 28.2676 9.67917 28.2488L10.7567 28.167C11.1596 28.6674 11.6269 29.1122 12.1467 29.4897L12.115 30.5643C12.1084 30.7917 12.246 30.9987 12.4582 31.0804L14.747 31.9641C14.9584 32.0455 15.1984 31.9855 15.3464 31.8137L16.0451 31.0039C16.6835 31.0634 17.3264 31.0469 17.9609 30.9542L18.7089 31.7343C18.8647 31.8967 19.105 31.9447 19.3111 31.8546L21.5599 30.8706C21.7682 30.7794 21.8965 30.5667 21.8798 30.3398L21.8007 29.2623C22.3016 28.8594 22.7469 28.3918 23.1247 27.8718L24.2001 27.9035C24.4259 27.9155 24.6342 27.7814 24.7164 27.5708L24.8031 27.3567H32.1182C32.4184 27.3465 32.6563 27.0995 32.6547 26.7993V7.20894C32.6547 7.2071 32.6547 7.20553 32.6547 7.2037C32.6547 7.20186 32.6547 7.20029 32.6547 7.19846V1.52124ZM31.5817 2.07322V6.70071H2.07305V2.07322H31.5817ZM22.8664 26.7906C22.6814 26.7846 22.5064 26.875 22.4042 27.0293C22.005 27.6287 21.5046 28.1542 20.9254 28.5823C20.7774 28.6915 20.6959 28.8694 20.7093 29.0528L20.7818 30.0394L19.2242 30.7207L18.5401 30.0074C18.4154 29.8772 18.2336 29.8185 18.0563 29.851C17.3424 29.9817 16.6125 30.0006 15.8929 29.9068C15.714 29.8835 15.5353 29.9519 15.4177 30.0883L14.7811 30.8261L13.199 30.2159L13.2281 29.2299C13.2336 29.0452 13.1432 28.8704 12.9895 28.7677C12.3901 28.3685 11.8645 27.8681 11.4365 27.2889C11.327 27.1411 11.1494 27.0597 10.966 27.073L9.97913 27.1453L9.76693 26.6604C9.75305 26.6083 9.7313 26.5583 9.70222 26.5124L9.29774 25.5876L10.0111 24.9036C10.1413 24.7789 10.2 24.5971 10.1675 24.42C10.0368 23.7062 10.0179 22.9763 10.1117 22.2567C10.1347 22.0777 10.0666 21.8991 9.93014 21.7812L9.19242 21.1446L9.80256 19.5625L10.7886 19.5916C10.9736 19.5976 11.1486 19.5073 11.2507 19.353C11.65 18.7533 12.1504 18.2278 12.7296 17.8C12.8776 17.6905 12.9591 17.5129 12.9457 17.3292L12.8731 16.3426L14.4308 15.6612L15.1151 16.3746C15.2398 16.5048 15.4216 16.5635 15.5987 16.531C16.3128 16.4003 17.0427 16.3814 17.7623 16.4752C17.9413 16.4982 18.1199 16.4301 18.2378 16.2936L18.8744 15.5559L20.4565 16.1661L20.4274 17.1519C20.4219 17.3368 20.512 17.5115 20.6661 17.6142C21.2654 18.0132 21.791 18.5139 22.2188 19.0931C22.3283 19.2408 22.5059 19.3223 22.6893 19.3089L23.6759 19.2364L24.3575 20.7941L23.6439 21.4781C23.514 21.6028 23.4553 21.7846 23.4875 21.9617C23.6182 22.6756 23.6371 23.4054 23.5436 24.1251C23.5202 24.304 23.5884 24.4826 23.7251 24.6005L24.4628 25.2371L23.8522 26.8192L22.8664 26.7906ZM25.2173 26.2837L25.5995 25.2819C25.681 25.0689 25.6213 24.8277 25.4494 24.6773L24.6397 23.976C24.6994 23.3373 24.6829 22.6936 24.5901 22.0589L25.3703 21.3102C25.5325 21.1543 25.5804 20.9138 25.4903 20.7076L24.5066 18.4588C24.4154 18.2503 24.2027 18.1219 23.9758 18.1387L22.8981 18.2178C22.4954 17.7169 22.0283 17.2716 21.5086 16.8936L21.5403 15.8182C21.5468 15.5908 21.4093 15.3838 21.1971 15.3018L18.9082 14.4184C18.6968 14.337 18.4568 14.3969 18.3088 14.5685L17.6099 15.3788C16.9714 15.3191 16.3283 15.3356 15.6938 15.4283L14.9459 14.6479C14.7903 14.4855 14.5498 14.4376 14.3436 14.5277L12.0948 15.5114C11.8866 15.6025 11.7582 15.8155 11.775 16.0424L11.8541 17.1199C11.3532 17.5228 10.9081 17.9904 10.5301 18.5102L9.45466 18.4787C9.22701 18.4714 9.01978 18.6089 8.93831 18.8217L8.0552 21.1105C7.97373 21.3219 8.03372 21.5619 8.20531 21.7099L9.01533 22.4089C8.9556 23.047 8.97211 23.6902 9.06484 24.3244L8.28495 25.0726C8.12227 25.2324 8.07459 25.4758 8.16471 25.6854L8.42144 26.2837H2.07305V7.77375H31.5817V26.2837H25.2173Z" fill="#CCD4DD"/>
<path d="M32.6547 1.52124C32.6539 1.38056 32.5968 1.24617 32.496 1.14793C32.3948 1.04995 32.2589 0.996771 32.1182 1.00018H1.53653C1.39585 0.996509 1.25962 1.04995 1.15876 1.14793C1.0579 1.24591 1.00053 1.38056 1.00001 1.52124V26.7993C0.998436 27.0995 1.23631 27.3468 1.53653 27.3567H8.89089L9.14815 27.9341C9.2401 28.1414 9.45309 28.2676 9.67917 28.2488L10.7567 28.167C11.1596 28.6674 11.6269 29.1122 12.1467 29.4897L12.115 30.5643C12.1084 30.7917 12.246 30.9987 12.4582 31.0804L14.747 31.9641C14.9584 32.0455 15.1984 31.9855 15.3464 31.8137L16.0451 31.0039C16.6835 31.0634 17.3264 31.0469 17.9609 30.9542L18.7089 31.7343C18.8647 31.8967 19.105 31.9447 19.3111 31.8546L21.5599 30.8706C21.7682 30.7794 21.8965 30.5667 21.8798 30.3398L21.8007 29.2623C22.3016 28.8594 22.7469 28.3918 23.1247 27.8718L24.2001 27.9035C24.4259 27.9155 24.6342 27.7814 24.7164 27.5708L24.8031 27.3567H32.1182C32.4184 27.3465 32.6563 27.0995 32.6547 26.7993V7.20894C32.6547 7.2071 32.6547 7.20553 32.6547 7.2037C32.6547 7.20186 32.6547 7.20029 32.6547 7.19846V1.52124ZM31.5817 2.07322V6.70071H2.07305V2.07322H31.5817ZM22.8664 26.7906C22.6814 26.7846 22.5064 26.875 22.4042 27.0293C22.005 27.6287 21.5046 28.1542 20.9254 28.5823C20.7774 28.6915 20.6959 28.8694 20.7093 29.0528L20.7818 30.0394L19.2242 30.7207L18.5401 30.0074C18.4154 29.8772 18.2336 29.8185 18.0563 29.851C17.3424 29.9817 16.6125 30.0006 15.8929 29.9068C15.714 29.8835 15.5353 29.9519 15.4177 30.0883L14.7811 30.8261L13.199 30.2159L13.2281 29.2299C13.2336 29.0452 13.1432 28.8704 12.9895 28.7677C12.3901 28.3685 11.8645 27.8681 11.4365 27.2889C11.327 27.1411 11.1494 27.0597 10.966 27.073L9.97913 27.1453L9.76693 26.6604C9.75305 26.6083 9.7313 26.5583 9.70222 26.5124L9.29774 25.5876L10.0111 24.9036C10.1413 24.7789 10.2 24.5971 10.1675 24.42C10.0368 23.7062 10.0179 22.9763 10.1117 22.2567C10.1347 22.0777 10.0666 21.8991 9.93014 21.7812L9.19242 21.1446L9.80256 19.5625L10.7886 19.5916C10.9736 19.5976 11.1486 19.5073 11.2507 19.353C11.65 18.7533 12.1504 18.2278 12.7296 17.8C12.8776 17.6905 12.9591 17.5129 12.9457 17.3292L12.8731 16.3426L14.4308 15.6612L15.1151 16.3746C15.2398 16.5048 15.4216 16.5635 15.5987 16.531C16.3128 16.4003 17.0427 16.3814 17.7623 16.4752C17.9413 16.4982 18.1199 16.4301 18.2378 16.2936L18.8744 15.5559L20.4565 16.1661L20.4274 17.1519C20.4219 17.3368 20.512 17.5115 20.6661 17.6142C21.2654 18.0132 21.791 18.5139 22.2188 19.0931C22.3283 19.2408 22.5059 19.3223 22.6893 19.3089L23.6759 19.2364L24.3575 20.7941L23.6439 21.4781C23.514 21.6028 23.4553 21.7846 23.4875 21.9617C23.6182 22.6756 23.6371 23.4054 23.5436 24.1251C23.5202 24.304 23.5884 24.4826 23.7251 24.6005L24.4628 25.2371L23.8522 26.8192L22.8664 26.7906ZM25.2173 26.2837L25.5995 25.2819C25.681 25.0689 25.6213 24.8277 25.4494 24.6773L24.6397 23.976C24.6994 23.3373 24.6829 22.6936 24.5901 22.0589L25.3703 21.3102C25.5325 21.1543 25.5804 20.9138 25.4903 20.7076L24.5066 18.4588C24.4154 18.2503 24.2027 18.1219 23.9758 18.1387L22.8981 18.2178C22.4954 17.7169 22.0283 17.2716 21.5086 16.8936L21.5403 15.8182C21.5468 15.5908 21.4093 15.3838 21.1971 15.3018L18.9082 14.4184C18.6968 14.337 18.4568 14.3969 18.3088 14.5685L17.6099 15.3788C16.9714 15.3191 16.3283 15.3356 15.6938 15.4283L14.9459 14.6479C14.7903 14.4855 14.5498 14.4376 14.3436 14.5277L12.0948 15.5114C11.8866 15.6025 11.7582 15.8155 11.775 16.0424L11.8541 17.1199C11.3532 17.5228 10.9081 17.9904 10.5301 18.5102L9.45466 18.4787C9.22701 18.4714 9.01978 18.6089 8.93831 18.8217L8.0552 21.1105C7.97373 21.3219 8.03372 21.5619 8.20531 21.7099L9.01533 22.4089C8.9556 23.047 8.97211 23.6902 9.06484 24.3244L8.28495 25.0726C8.12227 25.2324 8.07459 25.4758 8.16471 25.6854L8.42144 26.2837H2.07305V7.77375H31.5817V26.2837H25.2173Z" stroke="#CCD4DD" stroke-width="0.2" mask="url(#path-1-outside-1)"/>
<path d="M7.9286 6.10513C8.85655 6.10513 9.60886 5.32594 9.60886 4.37143C9.60886 3.4169 8.8568 2.63799 7.9286 2.63799C7.00039 2.63799 6.24834 3.4169 6.24834 4.37143C6.24834 5.32594 7.00065 6.10513 7.9286 6.10513ZM7.9286 3.81077C8.20407 3.81077 8.43581 4.058 8.43581 4.37116C8.43581 4.68435 8.20405 4.93182 7.9286 4.93182C7.65336 4.93182 7.42138 4.68482 7.42138 4.37143C7.42138 4.05801 7.65338 3.81077 7.9286 3.81077Z" fill="#CCD4DD" stroke="#CCD4DD" stroke-width="0.1"/>
<path d="M11.4823 6.10513C12.41 6.10513 13.1623 5.32594 13.1623 4.37143C13.1623 3.41692 12.4105 2.63799 11.4823 2.63799C10.554 2.63799 9.80254 3.41693 9.80254 4.37143C9.80254 5.32592 10.5543 6.10513 11.4823 6.10513ZM11.4823 3.81077C11.7575 3.81077 11.9892 4.05799 11.9892 4.37116C11.9892 4.68437 11.7574 4.93182 11.4823 4.93182C11.2068 4.93182 10.9756 4.6849 10.9756 4.37143C10.9756 4.05794 11.2071 3.81077 11.4823 3.81077Z" fill="#CCD4DD" stroke="#CCD4DD" stroke-width="0.1"/>
<path d="M4.37462 6.10513C5.30257 6.10513 6.05488 5.32594 6.05488 4.37143C6.05488 3.4169 5.30283 2.63799 4.37462 2.63799C3.4464 2.63799 2.69463 3.41718 2.69463 4.37143C2.69463 5.32567 3.44666 6.10513 4.37462 6.10513ZM4.37462 3.81077C4.64985 3.81077 4.88184 4.05802 4.88184 4.37116C4.88184 4.68434 4.64983 4.93182 4.37462 4.93182C4.09944 4.93182 3.86767 4.68462 3.86767 4.37116C3.86767 4.05749 4.0994 3.81077 4.37462 3.81077Z" fill="#CCD4DD" stroke="#CCD4DD" stroke-width="0.1"/>
<path d="M16.8275 17.9788H16.8274C13.949 17.9788 11.6155 20.3123 11.6155 23.191C11.6155 26.0694 13.949 28.4029 16.8274 28.4029C19.7058 28.4029 22.0394 26.0694 22.0394 23.191V23.1909C22.0362 20.3136 19.7045 17.9822 16.8275 17.9788ZM16.8274 27.2299C14.5968 27.2298 12.7886 25.4216 12.7886 23.191C12.7886 20.9601 14.5969 19.1518 16.8274 19.1518C19.058 19.1518 20.8663 20.9601 20.8663 23.1909C20.864 25.4205 19.057 27.2273 16.8274 27.2299Z" fill="#CCD4DD" stroke="#CCD4DD" stroke-width="0.1"/>
<path d="M16.8271 21.7353C17.631 21.7353 18.2824 22.387 18.2824 23.1909C18.2817 23.9942 17.6305 24.6452 16.8271 24.6462C16.0232 24.6462 15.3716 23.9945 15.3716 23.1909C15.3716 22.387 16.0232 21.7353 16.8271 21.7353ZM19.4555 23.1909V23.1908C19.4539 21.74 18.2781 20.5642 16.8272 20.5623L16.8271 20.6123V20.5623C15.3754 20.5623 14.1985 21.7392 14.1985 23.1909C14.1985 24.6423 15.3754 25.8192 16.8271 25.8192C18.2788 25.8192 19.4555 24.6426 19.4555 23.1909Z" fill="#CCD4DD" stroke="#CCD4DD" stroke-width="0.1"/>
</svg>
