<svg width="40" height="38" viewBox="0 0 40 38" fill="none" xmlns="http://www.w3.org/2000/svg">
<path d="M3.82552 23.9572L3.82566 23.9572C3.97916 23.9292 4.12725 23.8872 4.26883 23.8323V31.2866C4.26883 32.7853 5.29129 34.0742 6.71577 34.3385L6.71591 34.3385C7.75848 34.5311 8.79225 34.1806 9.48873 33.438C10.1214 34.113 11.0403 34.4634 11.9693 34.3776C13.5118 34.2454 14.7071 32.8855 14.7071 31.2926V30.1831C14.7071 29.7335 14.3415 29.3701 13.892 29.3701C13.4425 29.3701 13.0769 29.7335 13.0769 30.1831V31.2926C13.0769 32.0649 12.5169 32.6986 11.8247 32.7577L11.8225 32.7579C10.9834 32.8386 10.303 32.1706 10.303 31.3785V23.2216C10.303 22.772 9.93748 22.4085 9.48797 22.4085C9.03845 22.4085 8.67289 22.772 8.67289 23.2216V31.3785C8.67289 32.2132 7.92791 32.9055 7.0133 32.7396C6.39112 32.6238 5.89899 32.0075 5.89899 31.2866V15.1258C5.89899 14.6711 5.51592 14.3128 5.07159 14.3128C4.62208 14.3128 4.25651 14.6762 4.25651 15.1258V21.4C4.25651 21.8837 3.93095 22.285 3.53407 22.3572C2.91748 22.4687 2.43016 22.0199 2.43016 21.465V15.7817C2.43016 13.929 3.94556 12.4197 5.80981 12.4197H13.1601C14.207 12.4197 15.1712 12.8868 15.808 13.7008L15.8081 13.701C16.0853 14.0546 16.5968 14.1177 16.9514 13.842L16.9515 13.842C17.3064 13.5659 17.3706 13.0551 17.0931 12.7006C16.1448 11.4883 14.7104 10.7935 13.1601 10.7935H5.80981C3.04797 10.7935 0.8 13.0301 0.8 15.7817V21.465C0.8 23.0094 2.18292 24.2556 3.82552 23.9572Z" fill="#CCD4DD" stroke="#F5F5F5" stroke-width="0.4"/>
<path d="M6.06829 2.61021L6.06833 2.61016C7.11226 1.31443 8.81783 0.718143 10.4762 1.08579L6.06829 2.61021ZM6.06829 2.61021C5.23107 3.65003 4.92121 5.00655 5.21554 6.33001L5.41077 6.28659M6.06829 2.61021L5.41077 6.28659M5.41077 6.28659L5.21554 6.33001C5.57696 7.95504 6.86305 9.23661 8.49257 9.59668M5.41077 6.28659L8.49257 9.59668M8.49257 9.59668C8.82101 9.66952 9.15473 9.70616 9.48417 9.70616M8.49257 9.59668L9.48417 9.70616M9.48417 9.70616C10.8187 9.70616 12.0641 9.11032 12.9003 8.07197M9.48417 9.70616L12.9003 8.07197M12.9003 8.07197C13.7376 7.0324 14.0471 5.67556 13.7528 4.35243M12.9003 8.07197L13.7528 4.35243M13.7528 4.35243C13.3914 2.72748 12.1057 1.44592 10.4762 1.0858L13.7528 4.35243ZM11.6293 7.05352L11.6292 7.05359C10.9734 7.86856 9.90653 8.24242 8.84472 8.00922C7.84824 7.78875 7.02764 6.97038 6.80703 5.97796L6.80702 5.97793C6.6195 5.13501 6.81497 4.27973 7.33939 3.62864L7.3394 3.62863C7.86483 2.97621 8.64607 2.60245 9.48417 2.60245C9.69503 2.60245 9.91004 2.62621 10.1238 2.6732C11.1203 2.8936 11.9407 3.71199 12.1616 4.70454C12.3489 5.54751 12.1536 6.40248 11.6293 7.05352Z" fill="#CCD4DD" stroke="#F5F5F5" stroke-width="0.4"/>
<path d="M24.9432 2.81341L24.9433 2.81334C25.9971 1.50533 27.7174 0.903664 29.392 1.27461C31.0365 1.638 32.3345 2.93153 32.6992 4.57149L32.504 4.61491L32.6992 4.5715C32.9963 5.90723 32.6834 7.27632 31.8387 8.32542C30.9949 9.37336 29.7378 9.9749 28.3913 9.9749C28.0581 9.9749 27.7213 9.93763 27.3899 9.86419C25.7455 9.5008 24.4477 8.2076 24.083 6.56766L24.9432 2.81341ZM24.9432 2.81341C24.0985 3.86279 23.7857 5.23186 24.083 6.56762L24.9432 2.81341ZM26.2144 3.83179L26.2144 3.83178C26.7473 3.16979 27.5403 2.79007 28.3913 2.79007C28.6047 2.79007 28.8227 2.81439 29.0396 2.86201C30.0511 3.0857 30.8838 3.91605 31.108 4.9235C31.298 5.77876 31.0998 6.64663 30.5676 7.30728L30.5675 7.30734C29.9021 8.13411 28.8181 8.51435 27.7424 8.27681C26.7311 8.05312 25.8984 7.22273 25.6742 6.21551C25.484 5.36035 25.6824 4.49248 26.2144 3.83179Z" fill="#CCD4DD" stroke="#F5F5F5" stroke-width="0.4"/>
<path d="M38.909 17.082L38.9135 17.0892C39.5883 18.1777 39.4303 19.5146 38.5528 20.381C37.3242 21.6254 35.197 21.3366 34.349 19.7663L32.9504 17.6781V18.5959L37.8027 26.3436L37.8028 26.3437C37.9596 26.5945 37.9681 26.9104 37.8242 27.1691C37.6804 27.4276 37.4074 27.5877 37.1115 27.5877H32.5059V31.9349C32.5059 33.2907 31.3997 34.3923 30.0411 34.3923C29.4037 34.3923 28.8266 34.1465 28.3906 33.7506C27.9543 34.1469 27.3769 34.3929 26.739 34.3929H26.5444C25.4966 34.3929 24.591 33.6837 24.3438 32.668C24.2374 32.2313 24.5064 31.7919 24.9432 31.6861C25.3801 31.578 25.822 31.8482 25.9278 32.2844L38.909 17.082ZM38.909 17.082L38.904 17.0751L34.7352 11.4751C34.2745 10.7457 33.4868 10.3093 32.6276 10.3093H24.1579C23.3033 10.3093 22.494 10.757 22.0618 11.4579L21.9172 11.6683C21.9172 11.6683 21.9172 11.6683 21.9172 11.6684C21.6624 12.0391 21.758 12.5455 22.1294 12.7991L22.1296 12.7992C22.5007 13.0516 23.0074 12.9593 23.2622 12.5873L23.2623 12.5871L23.4266 12.3464L23.4268 12.3465L23.4318 12.3384C23.5839 12.0911 23.8626 11.9355 24.1579 11.9355H32.6276C32.9184 11.9355 33.1936 12.0827 33.3855 12.3856L33.3895 12.3919L33.394 12.398L37.5599 17.9931C37.8011 18.3911 37.7396 18.8961 37.3994 19.2315L37.3994 19.2314L37.3973 19.2335C36.9514 19.6863 36.1348 19.6465 35.7508 18.939L35.7464 18.9309L35.7413 18.9232L32.8133 14.546L32.8132 14.5459C32.6141 14.2487 32.243 14.1144 31.8987 14.2192L31.9569 14.4105L31.8992 14.2191C31.5558 14.3226 31.3203 14.6388 31.3203 14.9973V18.8291C31.3203 18.9814 31.3634 19.1307 31.444 19.2598L31.4442 19.26L35.6412 25.9615H28.3896H27.67C27.2205 25.9615 26.8549 26.3249 26.8549 26.7746C26.8549 27.1919 27.1698 27.535 27.5745 27.5821V31.9346C27.5745 32.3926 27.2001 32.7668 26.739 32.7668H26.5444C26.2499 32.7668 25.9969 32.5681 25.9278 32.2844L38.909 17.082ZM30.8758 31.9349C30.8758 32.3926 30.5019 32.7662 30.0411 32.7662C29.5803 32.7662 29.2065 32.3926 29.2065 31.9349V27.5892H30.8758V31.9349Z" fill="#CCD4DD" stroke="#F5F5F5" stroke-width="0.4"/>
<path d="M20.0667 19.7131C21.9455 19.7131 23.4748 18.1897 23.4748 16.3154C23.4748 14.4411 21.9455 12.9176 20.0667 12.9176C18.1879 12.9176 16.6585 14.4411 16.6585 16.3154C16.6585 18.1897 18.1879 19.7131 20.0667 19.7131ZM20.0667 14.5438C21.0476 14.5438 21.8447 15.3392 21.8447 16.3154C21.8447 17.2916 21.0476 18.0869 20.0667 18.0869C19.0857 18.0869 18.2887 17.2916 18.2887 16.3154C18.2887 15.3392 19.0857 14.5438 20.0667 14.5438Z" fill="#CCD4DD" stroke="#F5F5F5" stroke-width="0.4"/>
<path d="M21.7648 35.8169L21.7477 35.6177C21.7108 35.6208 21.6644 35.6201 21.618 35.6178C21.5955 35.6167 21.5748 35.6153 21.5562 35.6141L21.5561 35.614C21.5506 35.6137 21.5445 35.6133 21.5383 35.6129C21.3214 35.5388 21.1619 35.4439 21.0562 35.3264C20.9508 35.2092 20.8866 35.0562 20.8866 34.8404C20.8866 34.82 20.8841 34.8027 20.8815 34.7899C20.8804 34.7847 20.8793 34.7799 20.8782 34.7757V27.6367C20.8782 27.1871 20.5127 26.8236 20.0632 26.8236C19.6136 26.8236 19.2481 27.1871 19.2481 27.6367V34.8212C19.2475 34.8269 19.2472 34.8334 19.2472 34.8404C19.2472 34.8574 19.246 34.8721 19.2428 34.9104C19.2421 34.919 19.2413 34.9289 19.2403 34.9404L19.2403 34.941C19.2209 35.189 19.1139 35.3599 18.9721 35.4686C18.8266 35.58 18.6338 35.6336 18.4375 35.6212C18.2416 35.6088 18.0528 35.5314 17.9145 35.3946C17.7788 35.2605 17.6812 35.0592 17.6812 34.7758V23.8457C17.6812 23.6695 17.6239 23.4986 17.5184 23.3579C15.1309 20.1544 13.6912 18.2622 12.824 17.1224C12.5891 16.8138 12.3963 16.5603 12.2379 16.3508C11.8631 15.8551 11.6892 15.6159 11.6071 15.4765C11.5676 15.4095 11.5572 15.3782 11.5533 15.3614C11.5492 15.3432 11.549 15.3299 11.549 15.2736C11.549 15.0306 11.6952 14.8771 11.8798 14.8217C12.0705 14.7645 12.2831 14.8176 12.4077 14.9858L12.4079 14.9862L16.6898 20.7407L16.6898 20.7408C16.9304 21.0637 17.3137 21.2557 17.7167 21.2557H22.4172C22.8204 21.2557 23.2041 21.0634 23.4442 20.7403L27.7227 14.9899C27.7228 14.9898 27.7229 14.9896 27.7231 14.9894C27.8262 14.853 27.9435 14.8006 28.0518 14.7922C28.1654 14.7835 28.2863 14.8222 28.3875 14.8985C28.4887 14.975 28.5591 15.0808 28.5822 15.1912C28.6042 15.2965 28.5865 15.4194 28.488 15.5482L28.4871 15.5494L22.6156 23.3573L22.6156 23.3573C22.5097 23.4981 22.4523 23.6692 22.4523 23.8457V34.7758C22.4523 35.2204 22.128 35.5838 21.7471 35.6177L21.7648 35.8169ZM21.7648 35.8169C22.2618 35.7727 22.6523 35.3105 22.6523 34.7758V23.8457C22.6523 23.7128 22.6956 23.5837 22.7754 23.4775L20.6782 34.7983C20.6787 34.8051 20.6805 34.8115 20.6824 34.8178C20.6845 34.8251 20.6866 34.8325 20.6866 34.8404C20.6866 35.3614 21.0043 35.6486 21.5008 35.8112C21.5097 35.8114 21.5244 35.8124 21.5432 35.8136C21.5987 35.8173 21.6891 35.8234 21.7648 35.8169ZM11.5031 13.2409L11.5031 13.2409L11.502 13.2412C9.94241 13.6597 9.49575 15.4141 10.3411 16.5235C10.3413 16.5237 10.3414 16.5239 10.3416 16.5241L16.051 24.1169V34.7758C16.051 35.9444 16.8759 36.9446 17.9065 37.1863V37.1921L18.0743 37.2195C18.4459 37.2801 18.7675 37.2409 19.0036 37.1852C19.1218 37.1572 19.2188 37.1251 19.2898 37.0993C19.3154 37.09 19.3379 37.0815 19.356 37.0745L19.3618 37.0841L19.423 37.0533L19.5457 37.0262V36.9916C19.7143 36.9052 19.8981 36.7885 20.0642 36.6463C21.5373 38.0367 24.0825 36.9362 24.0825 34.7758V24.1169L29.7887 16.5288C29.7888 16.5287 29.7889 16.5285 29.789 16.5284C30.198 15.9917 30.3052 15.4182 30.1967 14.896C30.0893 14.3788 29.7735 13.926 29.3604 13.613C28.9471 13.2999 28.4253 13.1183 27.895 13.1585C27.3596 13.1991 26.8323 13.465 26.4173 14.016L26.4166 14.017L22.2404 19.6295H17.8931L13.7178 14.0182C13.7177 14.0181 13.7177 14.0181 13.7176 14.018C13.2183 13.3444 12.3508 13.0182 11.5031 13.2409ZM19.4397 34.9566C19.3449 36.1693 17.4812 36.1087 17.4812 34.7758V23.8457C17.4812 23.7128 17.438 23.5837 17.3581 23.4775L19.4397 34.9566ZM19.2539 34.7881L19.2538 34.7885L19.2539 34.7881Z" fill="#CCD4DD" stroke="#F5F5F5" stroke-width="0.4"/>
</svg>
