<svg width="22" height="22" viewBox="0 0 22 22" fill="none" xmlns="http://www.w3.org/2000/svg">
<path d="M12.1373 16.5497C12.1373 18.958 14.1873 20.8835 16.6937 20.8835C19.1769 20.8835 21.2501 18.9799 21.2501 16.5694C21.2501 14.1611 19.2 12.2356 16.6937 12.2356C14.1889 12.2356 12.1373 14.1399 12.1373 16.5497ZM13.1135 16.5497C13.1135 14.718 14.7064 13.1872 16.6937 13.1872C18.6774 13.1872 20.2325 14.7146 20.2325 16.5497C20.2325 18.3832 18.6585 19.9123 16.673 19.9123C14.7073 19.9123 13.1135 18.3823 13.1135 16.5497Z" fill="#599D15" stroke="#599D15" stroke-width="0.5"/>
<path d="M1.12064 18.209L1.12053 18.2092L1.13065 18.2135C3.58283 19.247 6.18306 19.7842 8.80538 19.7842C9.97886 19.7842 11.1727 19.6848 12.3661 19.4863L12.3835 19.4834L12.4004 19.478C12.6199 19.4087 12.8041 19.1862 12.7576 18.9215L12.7541 18.9013L12.7472 18.8819C12.6679 18.6562 12.432 18.5017 12.1825 18.5412L12.1825 18.5411L12.1762 18.5422C8.65561 19.1909 5.03613 18.8062 1.74689 17.4439V15.9805C1.74689 14.9402 2.22769 13.9509 3.08133 13.2702L3.08134 13.2702L3.08305 13.2688L6.39568 10.579L6.40314 10.573L6.41012 10.5664C6.57688 10.4082 6.62849 10.1213 6.44988 9.90961L6.44092 9.89898L6.43082 9.88941C6.26799 9.735 5.98686 9.69237 5.77644 9.85201L5.7764 9.85195L5.77194 9.8555L2.43861 12.506L2.4386 12.506L2.43652 12.5077C1.36693 13.3771 0.75 14.6249 0.75 15.9609V17.7279C0.75 17.9411 0.885765 18.0977 1.03782 18.1698L1.03782 18.1698L1.12064 18.209Z" fill="#599D15" stroke="#599D15" stroke-width="0.5"/>
<path d="M13.8655 12.6799L13.8769 12.6891L13.8892 12.6969C13.9644 12.7444 14.055 12.7945 14.1884 12.7945C14.3059 12.7945 14.4137 12.7568 14.5084 12.6969L14.541 12.6763L14.5659 12.6468C14.7194 12.4648 14.7466 12.1588 14.5089 11.9751L11.9442 9.8961L11.9443 9.896L11.9379 9.89113C11.7547 9.75213 11.4528 9.72544 11.2644 9.94874C11.1109 10.1307 11.0837 10.4368 11.3215 10.6205L13.8655 12.6799Z" fill="#599D15" stroke="#599D15" stroke-width="0.5"/>
<path d="M3.91759 6.28142C3.91759 9.29696 6.11462 11.8128 8.86738 11.8128C11.6201 11.8128 13.8172 9.29696 13.8172 6.28142C13.8172 3.26589 11.6201 0.75 8.86738 0.75C6.09325 0.75 3.91759 3.26664 3.91759 6.28142ZM4.89378 6.28142C4.89378 3.7166 6.69651 1.70157 8.86738 1.70157C11.0183 1.70157 12.841 3.71744 12.841 6.28142C12.841 8.84625 11.0382 10.8613 8.86738 10.8613C6.71709 10.8613 4.89378 8.82647 4.89378 6.28142Z" fill="#599D15" stroke="#599D15" stroke-width="0.5"/>
<path d="M17.1883 18.144L17.192 18.1226V18.1007V14.7434C17.192 14.4556 16.9639 14.2578 16.6936 14.2578C16.4096 14.2578 16.1952 14.4885 16.1952 14.7434V18.1007C16.1952 18.4015 16.4579 18.5864 16.6936 18.5864C16.8374 18.5864 16.9548 18.5184 17.0338 18.4391C17.1123 18.3603 17.1687 18.2556 17.1883 18.144Z" fill="#599D15" stroke="#599D15" stroke-width="0.5"/>
<path d="M14.913 16.898H18.4534C18.7237 16.898 18.9518 16.7003 18.9518 16.4124C18.9518 16.1117 18.689 15.9268 18.4534 15.9268H14.913C14.629 15.9268 14.4146 16.1575 14.4146 16.4124C14.4146 16.7131 14.6773 16.898 14.913 16.898Z" fill="#599D15" stroke="#599D15" stroke-width="0.5"/>
</svg>
