<svg width="37" height="33" viewBox="0 0 37 33" fill="none" xmlns="http://www.w3.org/2000/svg">
<path d="M31.2643 29.5631L31.2641 29.5632C29.4212 30.6591 27.6059 31.2057 25.7921 31.2057C23.9783 31.2057 22.1623 30.6591 20.3179 29.5632C20.1319 29.4525 20.0084 29.2255 20.0084 28.9855V24.7075C20.0084 24.2786 19.6592 23.9307 19.2292 23.9307C18.7993 23.9307 18.4501 24.2786 18.4501 24.7075V28.9855C18.4501 29.7715 18.8584 30.5048 19.5216 30.8978C21.6004 32.1329 23.6946 32.7524 25.7918 32.7524C27.8889 32.7524 29.9831 32.1329 32.0619 30.8978C32.7251 30.5048 33.1335 29.7715 33.1335 28.9855V24.7075C33.1335 24.2786 32.7842 23.9307 32.3543 23.9307C31.9243 23.9307 31.5751 24.2786 31.5751 24.7075V28.9855C31.5751 29.2255 31.4517 29.4524 31.2643 29.5631Z" fill="#CCD4DD" stroke="#CCD4DD" stroke-width="0.1"/>
<path d="M6.78336 8.25533C6.78336 12.2907 10.0769 15.5733 14.125 15.5733C18.1731 15.5733 21.4667 12.2907 21.4667 8.25533C21.4667 4.21997 18.1731 0.937305 14.125 0.937305C10.0769 0.937305 6.78336 4.21997 6.78336 8.25533ZM8.3417 8.25533C8.3417 5.07644 10.9354 2.49091 14.125 2.49091C17.3147 2.49091 19.9084 5.07644 19.9084 8.25533C19.9084 11.4342 17.3147 14.0197 14.125 14.0197C10.9354 14.0197 8.3417 11.4342 8.3417 8.25533Z" fill="#CCD4DD" stroke="#CCD4DD" stroke-width="0.1"/>
<path d="M1.72917 29.9769H14.8542C15.2842 29.9769 15.6334 29.629 15.6334 29.2001C15.6334 28.7711 15.2842 28.4233 14.8542 28.4233H2.50834V23.3857C2.50834 20.608 4.77539 18.3481 7.56252 18.3481H20.6876C21.1175 18.3481 21.4667 18.0002 21.4667 17.5713C21.4667 17.1423 21.1175 16.7945 20.6876 16.7945H7.56252C3.91692 16.7945 0.95 19.7515 0.95 23.3857V29.2001C0.95 29.629 1.29921 29.9769 1.72917 29.9769Z" fill="#CCD4DD" stroke="#CCD4DD" stroke-width="0.1"/>
<path d="M15.9853 23.9592L15.9854 23.9593L25.4646 28.3201C25.5691 28.3683 25.6812 28.3915 25.7918 28.3915C25.9023 28.3915 26.0144 28.3683 26.1189 28.3201L35.5981 23.9593L35.5982 23.9592C35.8739 23.8319 36.0501 23.5569 36.0501 23.2539C36.0501 22.9509 35.8739 22.6759 35.5982 22.5486L35.5981 22.5485L26.1189 18.1877L26.1188 18.1877C25.9087 18.0915 25.6748 18.0915 25.4647 18.1877L25.4646 18.1877L15.9854 22.5485L15.9853 22.5486C15.7096 22.6759 15.5334 22.9509 15.5334 23.2539C15.5334 23.5569 15.7096 23.8319 15.9853 23.9592ZM25.7918 26.7587L18.172 23.2539L25.7918 19.7491L33.4115 23.2539L25.7918 26.7587Z" fill="#CCD4DD" stroke="#CCD4DD" stroke-width="0.1"/>
</svg>
