<svg width="18" height="18" viewBox="0 0 18 18" fill="none" xmlns="http://www.w3.org/2000/svg">
<path d="M9 15.85C7.18327 15.85 5.44094 15.1283 4.15632 13.8437C2.87169 12.5591 2.15 10.8167 2.15 9C2.15 7.18327 2.87169 5.44094 4.15632 4.15632C5.44094 2.87169 7.18327 2.15 9 2.15C10.8167 2.15 12.5591 2.87169 13.8437 4.15632C15.1283 5.44094 15.85 7.18327 15.85 9C15.85 10.8167 15.1283 12.5591 13.8437 13.8437C12.5591 15.1283 10.8167 15.85 9 15.85ZM9 17.15C11.1615 17.15 13.2345 16.2913 14.7629 14.7629C16.2913 13.2345 17.15 11.1615 17.15 9C17.15 6.83849 16.2913 4.7655 14.7629 3.23708C13.2345 1.70866 11.1615 0.85 9 0.85C6.83849 0.85 4.7655 1.70866 3.23708 3.23708C1.70866 4.7655 0.85 6.83849 0.85 9C0.85 11.1615 1.70866 13.2345 3.23708 14.7629C4.7655 16.2913 6.83849 17.15 9 17.15Z" fill="#0FA931" stroke="#0FA931" stroke-width="0.3"/>
<path d="M9.45962 5.04038C9.33772 4.91848 9.17239 4.85 9 4.85C8.82761 4.85 8.66228 4.91848 8.54038 5.04038C8.41848 5.16228 8.35 5.32761 8.35 5.5V8.35H5.5C5.32761 8.35 5.16228 8.41848 5.04038 8.54038C4.91848 8.66228 4.85 8.82761 4.85 9C4.85 9.17239 4.91848 9.33772 5.04038 9.45962C5.16228 9.58152 5.32761 9.65 5.5 9.65H8.35V12.5C8.35 12.6724 8.41848 12.8377 8.54038 12.9596C8.66228 13.0815 8.82761 13.15 9 13.15C9.17239 13.15 9.33772 13.0815 9.45962 12.9596C9.58152 12.8377 9.65 12.6724 9.65 12.5V9.65H12.5C12.6724 9.65 12.8377 9.58152 12.9596 9.45962C13.0815 9.33772 13.15 9.17239 13.15 9C13.15 8.82761 13.0815 8.66228 12.9596 8.54038C12.8377 8.41848 12.6724 8.35 12.5 8.35H9.65V5.5C9.65 5.32761 9.58152 5.16228 9.45962 5.04038Z" fill="#0FA931" stroke="#0FA931" stroke-width="0.3"/>
</svg>
