<svg width="15" height="16" viewBox="0 0 15 16" fill="none" xmlns="http://www.w3.org/2000/svg">
<path d="M7.5 9.5L9 8L10.5 7.5L12.5 8.5L13.5 11.5L14 14L10.5 14.5H6.5L7.5 9.5Z" fill="#0BA186"/>
<path d="M14.8572 12.2183L13.7144 11.6469V10.2857C13.713 9.47622 13.4254 8.69328 12.9026 8.07529C12.3798 7.4573 11.6553 7.04404 10.8572 6.90856V5.71428H9.71436V6.90856C8.91628 7.04404 8.1918 7.4573 7.66896 8.07529C7.14613 8.69328 6.8586 9.47622 6.85721 10.2857V11.6469L5.71436 12.2183V14.8571H9.14293V16H11.4286V14.8571H14.8572V12.2183ZM13.7144 13.7143H6.85721V12.9246L8.00007 12.3531V10.2857C8.00007 9.6795 8.24089 9.09812 8.66954 8.66946C9.0982 8.24081 9.67957 7.99999 10.2858 7.99999C10.892 7.99999 11.4734 8.24081 11.902 8.66946C12.3307 9.09812 12.5715 9.6795 12.5715 10.2857V12.3531L13.7144 12.9246V13.7143Z" fill="#0BA286"/>
<path d="M13.7143 2.28571C13.7143 1.98261 13.5939 1.69192 13.3796 1.47759C13.1652 1.26326 12.8745 1.14286 12.5714 1.14286H10.2857V0H9.14286V1.14286H4.57143V0H3.42857V1.14286H1.14286C0.839753 1.14286 0.549062 1.26326 0.334735 1.47759C0.120408 1.69192 0 1.98261 0 2.28571V13.7143C0 14.0174 0.120408 14.3081 0.334735 14.5224C0.549062 14.7367 0.839753 14.8571 1.14286 14.8571H3.42857V13.7143H1.14286V2.28571H3.42857V3.42857H4.57143V2.28571H9.14286V3.42857H10.2857V2.28571H12.5714V5.71429H13.7143V2.28571Z" fill="#0BA286"/>
</svg>
