<svg width="83" height="91" viewBox="0 0 83 91" fill="none" xmlns="http://www.w3.org/2000/svg">
<g clip-path="url(#clip0)">
<path d="M40 59.5L69.5 44V75.5L40 91V59.5Z" fill="#A8E7EF"/>
<path d="M40.5 59.5L11 44V75.5L40.5 91V59.5Z" fill="#70D9E6"/>
<path d="M69.5 44L40 28L11 44L40.5 59.5L69.5 44Z" fill="#756F6F"/>
<path d="M60 48.6667L40.3333 38L21 48.6667L40.6667 59L60 48.6667Z" fill="#5B5555"/>
<path d="M1.5 32L30 16.5L40.5 28L11.5 44L1.5 32Z" fill="#D4F2F6"/>
<circle cx="40.5" cy="48.5" r="12.5" fill="#A3E440"/>
<path d="M53.5028 64.0006L82 48.5L69.5009 44.0004L40.5036 59.5001L53.5028 64.0006Z" fill="#D4F2F6"/>
<path d="M80 31.7818L50.7692 16L40 27.7091L69.7436 44L80 31.7818Z" fill="#A8E7EF"/>
<path d="M3.93403e-07 48.5L11 44L40.5 59.5L28 64.5L3.93403e-07 48.5Z" fill="#A8E7EF"/>
<path d="M11 60L11 55L28 64.5L28 69.5L11 60Z" fill="#3AD1E0"/>
<path d="M69 60L69 55L52 64.5L52 69.5L69 60Z" fill="#3AD1E0"/>
<circle cx="52.5" cy="18.5" r="4.5" fill="#31A7FB"/>
<circle cx="19.5" cy="22.5" r="4.5" fill="#31A7FB"/>
<circle cx="64" cy="6" r="6" fill="#70D9E6"/>
<path d="M73.7335 21.7254C73.5662 21.8983 73.3392 21.9954 73.1026 21.9954C72.8659 21.9954 72.639 21.8983 72.4716 21.7254L70.5004 19.3975L68.5291 21.7246C68.4465 21.8114 68.3481 21.8804 68.2395 21.9277C68.131 21.9749 68.0145 21.9995 67.8967 22C67.7789 22.0005 67.6622 21.9769 67.5533 21.9305C67.4443 21.8842 67.3454 21.816 67.2621 21.73C67.1788 21.6439 67.1128 21.5417 67.068 21.4291C67.0231 21.3166 67.0003 21.196 67.0008 21.0743C67.0012 20.9526 67.025 20.8322 67.0708 20.7201C67.1165 20.6079 67.1833 20.5062 67.2673 20.4209L69.3181 18.0008L67.2665 15.5791C67.1825 15.4938 67.1158 15.3921 67.07 15.2799C67.0243 15.1678 67.0005 15.0474 67 14.9257C66.9995 14.804 67.0224 14.6834 67.0672 14.5709C67.1121 14.4583 67.1781 14.3561 67.2614 14.27C67.3446 14.184 67.4436 14.1158 67.5525 14.0695C67.6614 14.0231 67.7781 13.9995 67.8959 14C68.0137 14.0005 68.1303 14.0251 68.2388 14.0723C68.3474 14.1196 68.4458 14.1886 68.5284 14.2754L70.5004 16.604L72.4716 14.2754C72.5542 14.1886 72.6526 14.1196 72.7612 14.0723C72.8697 14.0251 72.9863 14.0005 73.1041 14C73.2219 13.9995 73.3386 14.0231 73.4475 14.0695C73.5564 14.1158 73.6554 14.184 73.7386 14.27C73.8219 14.3561 73.8879 14.4583 73.9328 14.5709C73.9776 14.6834 74.0005 14.804 74 14.9257C73.9995 15.0474 73.9757 15.1678 73.93 15.2799C73.8842 15.3921 73.8175 15.4938 73.7335 15.5791L71.6827 18.0008L73.7335 20.4209C73.8165 20.5065 73.8823 20.6082 73.9272 20.7201C73.9721 20.832 73.9952 20.952 73.9952 21.0731C73.9952 21.1943 73.9721 21.3143 73.9272 21.4262C73.8823 21.5381 73.8165 21.6398 73.7335 21.7254V21.7254Z" fill="#BCEA73"/>
<path d="M30.7335 13.7254C30.5662 13.8983 30.3392 13.9954 30.1026 13.9954C29.8659 13.9954 29.639 13.8983 29.4716 13.7254L27.5004 11.3975L25.5291 13.7246C25.4465 13.8114 25.3481 13.8804 25.2395 13.9277C25.131 13.9749 25.0145 13.9995 24.8967 14C24.7789 14.0005 24.6622 13.9769 24.5533 13.9305C24.4443 13.8842 24.3454 13.816 24.2621 13.73C24.1788 13.6439 24.1128 13.5417 24.068 13.4291C24.0231 13.3166 24.0003 13.196 24.0008 13.0743C24.0012 12.9526 24.025 12.8322 24.0708 12.7201C24.1165 12.6079 24.1833 12.5062 24.2673 12.4209L26.3181 10.0008L24.2665 7.57914C24.1825 7.49379 24.1158 7.3921 24.07 7.27995C24.0243 7.1678 24.0005 7.0474 24 6.92569C23.9995 6.80399 24.0224 6.6834 24.0672 6.57086C24.1121 6.45833 24.1781 6.35609 24.2614 6.27003C24.3446 6.18397 24.4436 6.11581 24.5525 6.06946C24.6614 6.02312 24.7781 5.99951 24.8959 6.00001C25.0137 6.0005 25.1303 6.02509 25.2388 6.07235C25.3474 6.11961 25.4458 6.18861 25.5284 6.27536L27.5004 8.60403L29.4716 6.27536C29.5542 6.18861 29.6526 6.11961 29.7612 6.07235C29.8697 6.02509 29.9863 6.0005 30.1041 6.00001C30.2219 5.99951 30.3386 6.02312 30.4475 6.06946C30.5564 6.11581 30.6554 6.18397 30.7386 6.27003C30.8219 6.35609 30.8879 6.45833 30.9328 6.57086C30.9776 6.6834 31.0005 6.80399 31 6.92569C30.9995 7.0474 30.9757 7.1678 30.93 7.27995C30.8842 7.3921 30.8175 7.49379 30.7335 7.57914L28.6827 10.0008L30.7335 12.4209C30.8165 12.5065 30.8823 12.6082 30.9272 12.7201C30.9721 12.832 30.9952 12.952 30.9952 13.0731C30.9952 13.1943 30.9721 13.3143 30.9272 13.4262C30.8823 13.5381 30.8165 13.6398 30.7335 13.7254V13.7254Z" fill="#BCEA73"/>
<path d="M28 64.5L40.5 59.5V64L28 69.5V64.5Z" fill="#3AD1E0"/>
<path d="M52.5 64L40 59V63.5L52.5 69V64Z" fill="#3AD1E0"/>
<circle cx="35.5" cy="43.5" r="1.5" fill="#82B732"/>
<circle cx="45.5" cy="43.5" r="1.5" fill="#82B732"/>
<mask id="path-21-outside-1" maskUnits="userSpaceOnUse" x="36" y="49" width="9" height="4" fill="black">
<rect fill="white" x="36" y="49" width="9" height="4"/>
<path d="M43.6636 51.5C43.8494 51.5 44.0029 51.3423 43.9179 51.1771C43.8739 51.0914 43.8123 51.0074 43.7336 50.926C43.5577 50.744 43.2999 50.5786 42.9749 50.4393C42.6499 50.3001 42.264 50.1896 41.8394 50.1142C41.4148 50.0388 40.9596 50 40.5 50C40.0404 50 39.5852 50.0388 39.1606 50.1142C38.736 50.1896 38.3501 50.3001 38.0251 50.4393C37.7001 50.5786 37.4423 50.744 37.2664 50.926C37.1877 51.0074 37.1261 51.0914 37.0821 51.1771C36.9971 51.3423 37.1506 51.5 37.3364 51.5V51.5C37.5222 51.5 37.672 51.3401 37.7713 51.1831C37.8028 51.1332 37.8418 51.0842 37.888 51.0363C38.0301 50.8893 38.2384 50.7558 38.5009 50.6432C38.7634 50.5307 39.0751 50.4415 39.4181 50.3806C39.7611 50.3197 40.1287 50.2884 40.5 50.2884C40.8713 50.2884 41.2389 50.3197 41.5819 50.3806C41.9249 50.4415 42.2366 50.5307 42.4991 50.6432C42.7616 50.7558 42.9699 50.8893 43.112 51.0363C43.1582 51.0842 43.1972 51.1332 43.2287 51.1831C43.328 51.3401 43.4778 51.5 43.6636 51.5V51.5Z"/>
</mask>
<path d="M43.6636 51.5C43.8494 51.5 44.0029 51.3423 43.9179 51.1771C43.8739 51.0914 43.8123 51.0074 43.7336 50.926C43.5577 50.744 43.2999 50.5786 42.9749 50.4393C42.6499 50.3001 42.264 50.1896 41.8394 50.1142C41.4148 50.0388 40.9596 50 40.5 50C40.0404 50 39.5852 50.0388 39.1606 50.1142C38.736 50.1896 38.3501 50.3001 38.0251 50.4393C37.7001 50.5786 37.4423 50.744 37.2664 50.926C37.1877 51.0074 37.1261 51.0914 37.0821 51.1771C36.9971 51.3423 37.1506 51.5 37.3364 51.5V51.5C37.5222 51.5 37.672 51.3401 37.7713 51.1831C37.8028 51.1332 37.8418 51.0842 37.888 51.0363C38.0301 50.8893 38.2384 50.7558 38.5009 50.6432C38.7634 50.5307 39.0751 50.4415 39.4181 50.3806C39.7611 50.3197 40.1287 50.2884 40.5 50.2884C40.8713 50.2884 41.2389 50.3197 41.5819 50.3806C41.9249 50.4415 42.2366 50.5307 42.4991 50.6432C42.7616 50.7558 42.9699 50.8893 43.112 51.0363C43.1582 51.0842 43.1972 51.1332 43.2287 51.1831C43.328 51.3401 43.4778 51.5 43.6636 51.5V51.5Z" fill="#82B732"/>
<path d="M43.6636 51.5C43.8494 51.5 44.0029 51.3423 43.9179 51.1771C43.8739 51.0914 43.8123 51.0074 43.7336 50.926C43.5577 50.744 43.2999 50.5786 42.9749 50.4393C42.6499 50.3001 42.264 50.1896 41.8394 50.1142C41.4148 50.0388 40.9596 50 40.5 50C40.0404 50 39.5852 50.0388 39.1606 50.1142C38.736 50.1896 38.3501 50.3001 38.0251 50.4393C37.7001 50.5786 37.4423 50.744 37.2664 50.926C37.1877 51.0074 37.1261 51.0914 37.0821 51.1771C36.9971 51.3423 37.1506 51.5 37.3364 51.5V51.5C37.5222 51.5 37.672 51.3401 37.7713 51.1831C37.8028 51.1332 37.8418 51.0842 37.888 51.0363C38.0301 50.8893 38.2384 50.7558 38.5009 50.6432C38.7634 50.5307 39.0751 50.4415 39.4181 50.3806C39.7611 50.3197 40.1287 50.2884 40.5 50.2884C40.8713 50.2884 41.2389 50.3197 41.5819 50.3806C41.9249 50.4415 42.2366 50.5307 42.4991 50.6432C42.7616 50.7558 42.9699 50.8893 43.112 51.0363C43.1582 51.0842 43.1972 51.1332 43.2287 51.1831C43.328 51.3401 43.4778 51.5 43.6636 51.5V51.5Z" stroke="#82B732" stroke-width="2" mask="url(#path-21-outside-1)"/>
</g>
<defs>
<clipPath id="clip0">
<rect width="82.3924" height="91" fill="white"/>
</clipPath>
</defs>
</svg>
