<svg width="493" height="484" viewBox="0 0 493 484" fill="none" xmlns="http://www.w3.org/2000/svg">
<path d="M493 355.5C493 321.42 467.03 288.735 420.802 264.637C374.574 240.538 311.876 227 246.5 227C181.124 227 118.426 240.538 72.1982 264.637C25.9705 288.735 9.87148e-06 321.42 0 355.5L246.5 355.5H493Z" fill="url(#paint0_linear)"/>
<path fill-rule="evenodd" clip-rule="evenodd" d="M226.309 260.646H227.205C233.426 253.831 238.3 245.563 241.398 236.386C246.412 221.532 246.201 205.943 240.803 192.491C238.074 185.694 234.135 179.357 230.325 173.229C226.461 167.017 222.467 160.591 219.755 153.704C218.634 150.859 217.806 147.8 217.308 144.681C217.083 144.652 216.858 144.629 216.634 144.603C217.134 147.831 217.986 150.997 219.146 153.944C221.878 160.884 225.889 167.336 229.769 173.574C233.564 179.678 237.488 185.989 240.194 192.734C245.535 206.042 245.742 221.472 240.777 236.18C237.641 245.469 232.665 253.815 226.309 260.646Z" fill="white"/>
<path fill-rule="evenodd" clip-rule="evenodd" d="M244.395 57.6284C246.531 60.7392 245.732 64.9868 242.61 67.1155C239.488 69.2442 235.226 68.4479 233.089 65.3373C230.953 62.2267 231.752 57.9792 234.874 55.8504C237.996 53.7217 242.258 54.5178 244.395 57.6284Z" fill="#D3DFFF"/>
<path fill-rule="evenodd" clip-rule="evenodd" d="M248.746 75.5594C248.354 77.6432 246.329 79.0137 244.223 78.6204C242.117 78.2271 240.727 76.2189 241.119 74.1351C241.511 72.0513 243.536 70.681 245.642 71.0741C247.749 71.4677 249.138 73.4758 248.746 75.5594Z" fill="#D3DFFF"/>
<path fill-rule="evenodd" clip-rule="evenodd" d="M248.348 32.0696C245.604 46.6569 231.511 56.2659 216.871 53.5319C202.23 50.7977 192.587 36.7556 195.331 22.1683C198.075 7.58075 212.167 -2.02823 226.808 0.70601C241.448 3.44025 251.092 17.482 248.348 32.0696Z" fill="#D3DFFF"/>
<path fill-rule="evenodd" clip-rule="evenodd" d="M214.881 27.1184C214.881 28.9882 213.36 30.5041 211.483 30.5041C209.607 30.5041 208.085 28.9882 208.085 27.1184C208.085 25.2483 209.607 23.7324 211.483 23.7324C213.36 23.7324 214.881 25.2483 214.881 27.1184Z" fill="white"/>
<path fill-rule="evenodd" clip-rule="evenodd" d="M225.237 27.1184C225.237 28.9882 223.716 30.5041 221.839 30.5041C219.962 30.5041 218.441 28.9882 218.441 27.1184C218.441 25.2483 219.962 23.7324 221.839 23.7324C223.716 23.7324 225.237 25.2483 225.237 27.1184Z" fill="white"/>
<path fill-rule="evenodd" clip-rule="evenodd" d="M235.593 27.1184C235.593 28.9882 234.072 30.5041 232.195 30.5041C230.318 30.5041 228.797 28.9882 228.797 27.1184C228.797 25.2483 230.318 23.7324 232.195 23.7324C234.072 23.7324 235.593 25.2483 235.593 27.1184Z" fill="white"/>
<path fill-rule="evenodd" clip-rule="evenodd" d="M202.519 247.068L205.039 256.749C205.696 259.272 208.146 260.979 210.855 260.794C219.118 260.235 236.285 258.218 246.138 250.983L243.337 237.033C229.79 236.268 217.121 237.02 206.15 240.7C203.404 241.621 201.815 244.364 202.519 247.068Z" fill="#102048"/>
<path fill-rule="evenodd" clip-rule="evenodd" d="M218.308 254.772C218.165 254.772 218.033 254.678 217.993 254.535L214.609 242.463C214.561 242.288 214.663 242.108 214.837 242.061C215.012 242.012 215.192 242.114 215.24 242.288L218.624 254.36C218.672 254.532 218.571 254.712 218.396 254.762C218.367 254.769 218.337 254.772 218.308 254.772Z" fill="white"/>
<path fill-rule="evenodd" clip-rule="evenodd" d="M225.621 253.141C225.477 253.141 225.346 253.047 225.305 252.904L221.922 240.832C221.873 240.658 221.975 240.478 222.149 240.431C222.325 240.381 222.504 240.483 222.553 240.658L225.936 252.729C225.985 252.901 225.883 253.081 225.709 253.131C225.679 253.139 225.65 253.141 225.621 253.141Z" fill="white"/>
<path fill-rule="evenodd" clip-rule="evenodd" d="M202.627 204.055L226.01 235.977L259.581 238.637L305.884 219.13L288.289 192.748L234.113 194.742L202.627 204.055Z" fill="#85A5F8"/>
<path fill-rule="evenodd" clip-rule="evenodd" d="M272.932 199.178C342.078 178.783 353.193 239.674 245.304 250.759C241.493 246.486 237.04 239.071 235.271 232.875L292.245 206.642L272.932 199.178Z" fill="#9DB4F0"/>
<path fill-rule="evenodd" clip-rule="evenodd" d="M275.869 242.816C272.635 241.785 269.536 239.747 269.536 239.747L258.423 243.221L260.97 255.266L272.514 257.602C276.031 251.195 276.236 245.93 275.869 242.816Z" fill="#F9B384"/>
<path fill-rule="evenodd" clip-rule="evenodd" d="M234.114 194.743C169.752 182.552 153.082 244.181 260.97 255.266C264.781 250.994 267.768 245.943 269.536 239.747C252.964 228.699 234.434 218.196 214.126 208.192L234.114 194.743Z" fill="#9DB4F0"/>
<path fill-rule="evenodd" clip-rule="evenodd" d="M307.968 239.23C299.722 234.154 283.736 242.926 279.723 243.367C278.553 243.498 277.199 243.242 275.869 242.817C276.236 245.93 276.031 251.195 272.514 257.602L274.475 257.999C274.475 257.999 288.031 262.953 302.412 260.069C315.685 257.409 314.451 243.221 307.968 239.23Z" fill="#102048"/>
<path fill-rule="evenodd" clip-rule="evenodd" d="M296.728 255.835C296.695 255.835 296.662 255.83 296.629 255.819C296.457 255.764 296.361 255.582 296.416 255.409C297.395 252.319 297.823 246.238 294.985 242.153C294.882 242.005 294.919 241.804 295.068 241.699C295.216 241.597 295.421 241.634 295.524 241.783C298.495 246.058 298.059 252.392 297.04 255.605C296.996 255.744 296.867 255.835 296.728 255.835Z" fill="white"/>
<path fill-rule="evenodd" clip-rule="evenodd" d="M290.261 257.056C290.228 257.056 290.195 257.051 290.162 257.04C289.99 256.988 289.894 256.803 289.949 256.633C290.928 253.54 291.356 247.462 288.519 243.377C288.416 243.228 288.452 243.025 288.601 242.923C288.75 242.821 288.954 242.858 289.057 243.006C292.028 247.281 291.592 253.616 290.573 256.829C290.529 256.967 290.4 257.056 290.261 257.056Z" fill="white"/>
<path fill-rule="evenodd" clip-rule="evenodd" d="M222.727 115.279C222.727 115.279 238.936 101.545 238.336 98.9348C237.907 97.0687 233.316 99.8039 233.316 99.8039C233.316 99.8039 239.755 92.1932 239.427 91.2666C238.842 89.6171 234.389 92.6943 234.389 92.6943C234.389 92.6943 237.399 88.3774 235.96 87.6753C234.521 86.9706 231.383 89.6328 231.383 89.6328C231.383 89.6328 233.216 87.2342 232.355 86.6052C231.493 85.9762 227.778 88.5627 227.778 88.5627C227.778 88.5627 229.112 85.5403 226.279 86.6861C223.447 87.8319 203.586 105.992 203.586 105.992L222.727 115.279Z" fill="#F9B384"/>
<path fill-rule="evenodd" clip-rule="evenodd" d="M229.359 98.9893C229.28 98.9893 229.201 98.9606 229.138 98.9032C226.356 96.3715 225.129 95.7555 222.059 94.8133C221.886 94.7611 221.79 94.5784 221.843 94.4061C221.896 94.2339 222.079 94.1373 222.252 94.1921C225.432 95.1657 226.703 95.8025 229.58 98.4203C229.714 98.543 229.723 98.7492 229.601 98.8823C229.536 98.9528 229.448 98.9893 229.359 98.9893Z" fill="#E28B6D"/>
<path fill-rule="evenodd" clip-rule="evenodd" d="M224.43 106.436C224.25 106.41 224.126 106.246 224.151 106.068C224.469 103.798 225.187 102.378 226.344 101.728C227.334 101.174 228.621 101.232 230.171 101.897C230.337 101.971 230.414 102.161 230.342 102.325C230.27 102.493 230.077 102.568 229.911 102.498C228.559 101.916 227.467 101.848 226.665 102.297C225.711 102.832 225.083 104.132 224.799 106.157C224.776 106.321 224.636 106.439 224.475 106.439L224.43 106.436Z" fill="#E28B6D"/>
<path fill-rule="evenodd" clip-rule="evenodd" d="M223.711 92.7097C223.624 92.7097 223.537 92.6731 223.473 92.6053C223.349 92.4748 223.355 92.2686 223.487 92.1459L227.554 88.3249C227.685 88.2022 227.892 88.2074 228.017 88.3379C228.141 88.471 228.135 88.6772 228.003 88.7999L223.935 92.6183C223.872 92.6784 223.792 92.7097 223.711 92.7097Z" fill="#E28B6D"/>
<path fill-rule="evenodd" clip-rule="evenodd" d="M227.476 94.0152C227.395 94.0152 227.313 93.9839 227.25 93.9238C227.119 93.7985 227.115 93.5923 227.24 93.4618L231.147 89.4059C231.272 89.2754 231.479 89.2702 231.61 89.3955C231.741 89.5208 231.745 89.7269 231.62 89.8574L227.713 93.9134C227.648 93.9812 227.562 94.0152 227.476 94.0152Z" fill="#E28B6D"/>
<path fill-rule="evenodd" clip-rule="evenodd" d="M231.324 96.2984C231.244 96.2984 231.164 96.2671 231.101 96.2096C230.968 96.087 230.961 95.8808 231.084 95.7477L234.15 92.4721C234.273 92.3416 234.48 92.3338 234.612 92.4565C234.745 92.5791 234.752 92.7853 234.629 92.9158L231.563 96.194C231.499 96.2618 231.411 96.2984 231.324 96.2984Z" fill="#E28B6D"/>
<path fill-rule="evenodd" clip-rule="evenodd" d="M283.958 207.14L224.693 209.424L218.145 155.592C218.145 155.592 237.985 136.839 245.618 129.936L258.504 129.278C298.485 147.384 291.939 170 283.958 207.14Z" fill="#3A6BEA"/>
<path fill-rule="evenodd" clip-rule="evenodd" d="M318.666 164.401C332.775 194.954 274.79 205.835 274.79 205.835L258.504 129.278C258.504 129.278 304.246 133.175 318.666 164.401Z" fill="#3A6BEA"/>
<path fill-rule="evenodd" clip-rule="evenodd" d="M206.22 135.968L225.122 113.05L207.446 102.375C200.073 107.485 185.815 119.056 173.732 132.158C171.064 135.05 168.981 138.427 167.932 142.146C167.037 145.32 166.874 148.455 167.377 151.524C168.689 159.526 175.005 165.701 183.437 166.685C190.638 167.526 218.145 165.38 240.41 158.855L246.958 133.672C243.593 131.769 218.584 131.437 206.22 135.968Z" fill="#3A6BEA"/>
<path fill-rule="evenodd" clip-rule="evenodd" d="M262.691 117.309L262.55 131.124L262.533 132.53C262.508 134.731 261.603 136.725 260.142 138.173C258.689 139.611 256.688 140.514 254.471 140.53C250.005 140.554 246.352 136.98 246.31 132.523L246.153 116.481L262.691 117.309Z" fill="#F9B384"/>
<path fill-rule="evenodd" clip-rule="evenodd" d="M262.682 118.145L262.55 131.124C255.31 128.188 252.329 120.379 252.329 120.379L262.682 118.145Z" fill="#102048"/>
<path fill-rule="evenodd" clip-rule="evenodd" d="M265.547 95.4944C268.141 98.5977 275.717 116.176 268.038 122.174C259.396 128.923 246.244 117.831 246.244 117.831L244.479 97.3553L255.895 94.3564L265.547 95.4944Z" fill="#F9B384"/>
<path fill-rule="evenodd" clip-rule="evenodd" d="M247.904 100.595C247.904 104.366 244.837 107.42 241.054 107.42C237.272 107.42 234.205 104.366 234.205 100.595C234.205 96.8262 237.272 93.7725 241.054 93.7725C244.837 93.7725 247.904 96.8262 247.904 100.595Z" fill="#FBC343"/>
<path fill-rule="evenodd" clip-rule="evenodd" d="M249.481 108.795C248.741 104.538 248.29 101.618 252.609 99.4226C252.609 99.4226 267.83 102.181 270.736 96.4602C273.642 90.7365 269.214 81.7069 259.943 87.9803C236.212 83.3606 233.029 105.491 240.225 112.867L247.326 111.781C248.755 111.562 249.728 110.215 249.481 108.795Z" fill="#102048"/>
<path fill-rule="evenodd" clip-rule="evenodd" d="M262.278 108.809C262.278 109.365 261.825 109.817 261.266 109.817C260.707 109.817 260.254 109.365 260.254 108.809C260.254 108.253 260.707 107.802 261.266 107.802C261.825 107.802 262.278 108.253 262.278 108.809Z" fill="#102048"/>
<path fill-rule="evenodd" clip-rule="evenodd" d="M269.127 105.447C269.127 106.005 268.674 106.457 268.115 106.457C267.557 106.457 267.104 106.005 267.104 105.447C267.104 104.891 267.557 104.439 268.115 104.439C268.674 104.439 269.127 104.891 269.127 105.447Z" fill="#102048"/>
<path fill-rule="evenodd" clip-rule="evenodd" d="M267.415 111.912C267.344 111.912 267.273 111.886 267.218 111.834C267.103 111.724 267.098 111.544 267.207 111.429C267.613 111.004 268.058 110.406 267.871 109.973C267.677 109.521 266.857 109.328 266.481 109.328C265.674 109.328 265.286 107.895 265.217 107.608C265.18 107.457 265.274 107.303 265.428 107.264C265.581 107.227 265.736 107.321 265.773 107.475C265.921 108.081 266.255 108.757 266.481 108.757C266.867 108.757 268.049 108.937 268.397 109.746C268.646 110.325 268.386 111.022 267.623 111.823C267.566 111.883 267.491 111.912 267.415 111.912Z" fill="#102048"/>
<path fill-rule="evenodd" clip-rule="evenodd" d="M267.467 115.738C267.412 115.738 267.356 115.722 267.307 115.688C265.401 114.407 263.478 115.482 263.458 115.493C263.322 115.571 263.146 115.524 263.067 115.388C262.988 115.25 263.036 115.078 263.173 114.997C263.264 114.944 265.429 113.736 267.627 115.216C267.758 115.305 267.793 115.482 267.704 115.613C267.649 115.694 267.559 115.738 267.467 115.738Z" fill="#102048"/>
<path fill-rule="evenodd" clip-rule="evenodd" d="M260.823 104.441C261.398 105.519 260.395 105.739 259.22 106.36C258.045 106.981 256.841 107.211 256.567 106.694C256.292 106.18 257.022 105.258 258.198 104.635C259.373 104.013 260.377 103.606 260.823 104.441Z" fill="#102048"/>
<path fill-rule="evenodd" clip-rule="evenodd" d="M265.109 102.493C265.362 103.456 266.083 103.036 267.132 102.762C268.182 102.488 269.029 101.963 268.908 101.504C268.787 101.044 267.839 100.893 266.79 101.167C265.741 101.441 264.913 101.746 265.109 102.493Z" fill="#102048"/>
<path fill-rule="evenodd" clip-rule="evenodd" d="M256.596 116.488C254.948 116.488 253.612 115.156 253.612 113.515C253.612 111.87 254.948 110.542 256.596 110.542C258.244 110.542 259.579 111.87 259.579 113.515C259.579 115.156 258.244 116.488 256.596 116.488Z" fill="#F39176"/>
<path fill-rule="evenodd" clip-rule="evenodd" d="M247.734 110.338C249.742 111.88 250.264 114.558 248.9 116.32C247.537 118.079 244.804 118.254 242.796 116.711C240.788 115.169 240.266 112.488 241.63 110.729C242.993 108.967 245.726 108.792 247.734 110.338Z" fill="#F9B384"/>
<path fill-rule="evenodd" clip-rule="evenodd" d="M247.041 115.015C246.882 115.015 246.754 114.887 246.754 114.73C246.754 113.887 246.342 113.11 245.651 112.645C245.061 112.251 244.356 112.157 243.768 112.397C243.621 112.455 243.455 112.387 243.395 112.241C243.335 112.094 243.405 111.927 243.552 111.867C244.317 111.557 245.221 111.672 245.971 112.173C246.82 112.742 247.327 113.697 247.327 114.73C247.327 114.887 247.199 115.015 247.041 115.015Z" fill="#102048"/>
<path fill-rule="evenodd" clip-rule="evenodd" d="M196.12 147.332L195.639 146.888L205.979 135.746L206.46 136.19L196.12 147.332Z" fill="#102048"/>
<path fill-rule="evenodd" clip-rule="evenodd" d="M283.391 158.37H219.367C217.064 158.37 215.198 160.382 215.198 162.862V208.409C215.198 210.891 217.064 212.903 219.367 212.903H283.391C285.693 212.903 287.56 210.891 287.56 208.409V162.862C287.56 160.382 285.693 158.37 283.391 158.37Z" fill="#D3DFFF"/>
<path fill-rule="evenodd" clip-rule="evenodd" d="M254.759 181.452H247.999C247.034 181.452 246.249 182.251 246.249 183.232V188.04C246.249 189.021 247.034 189.82 247.999 189.82H254.759C255.723 189.82 256.508 189.021 256.508 188.04V183.232C256.508 182.251 255.723 181.452 254.759 181.452ZM254.759 182.757C255.002 182.757 255.199 182.969 255.199 183.232V188.04C255.199 188.301 255.002 188.515 254.759 188.515H247.999C247.756 188.515 247.559 188.301 247.559 188.04V183.232C247.559 182.969 247.756 182.757 247.999 182.757H254.759Z" fill="#1F3C88"/>
<defs>
<linearGradient id="paint0_linear" x1="246.5" y1="227" x2="246.5" y2="279.728" gradientUnits="userSpaceOnUse">
<stop stop-color="white"/>
<stop offset="1" stop-color="#C4C4C4" stop-opacity="0"/>
</linearGradient>
</defs>
</svg>
