<svg width="19" height="14" viewBox="0 0 19 14" fill="none" xmlns="http://www.w3.org/2000/svg">
<path d="M18.9101 9.63049L18.3289 6.43181C18.2941 6.24044 18.1105 6.11363 17.9195 6.14828C17.7281 6.18307 17.6012 6.36636 17.636 6.55768L18.2173 9.75702C18.2739 10.0652 18.207 10.3771 18.0289 10.6352C17.8508 10.8933 17.583 11.0666 17.2735 11.1234L15.0068 11.5478C14.8156 11.5836 14.6897 11.7676 14.7254 11.9587C14.7571 12.128 14.905 12.2461 15.0711 12.2461C15.0926 12.2461 17.4019 11.8158 17.4019 11.8158C17.8951 11.7252 18.3237 11.448 18.6086 11.0351C18.8935 10.6223 19.0005 10.1231 18.9101 9.63049Z" fill="#109CF1"/>
<path d="M13.3459 11.8444L5.54248 13.2763C4.9057 13.3931 4.29259 12.9703 4.17578 12.3338L2.99358 5.89086C2.87673 5.25408 3.2996 4.64097 3.93619 4.52416L15.6685 2.37105C15.9765 2.31452 16.2885 2.38133 16.5467 2.55945C16.8048 2.73753 16.9781 3.00538 17.0347 3.31361L17.3342 4.94651C17.3693 5.13783 17.5526 5.26432 17.7441 5.22934C17.9354 5.19422 18.062 5.01074 18.0269 4.81947L17.7273 3.18651C17.6368 2.69326 17.3595 2.2647 16.9466 1.97977C16.5336 1.69488 16.0346 1.58779 15.5413 1.67835L15.508 1.68445L15.4547 1.39426C15.3727 0.947298 15.1215 0.559118 14.7475 0.301177C14.3736 0.0432829 13.9214 -0.0535741 13.4746 0.0283999L1.39396 2.24508C0.471591 2.41429 -0.141149 3.30257 0.0281048 4.22518L1.27424 11.0168C1.42453 11.8359 2.14178 12.4107 2.94659 12.4107C3.04809 12.4107 3.15105 12.4016 3.25439 12.3826L3.46167 12.3445L3.48303 12.4608C3.649 13.3652 4.44095 14 5.32966 14C5.44173 14 5.55544 13.9899 5.66953 13.969L13.473 12.537C13.6643 12.5019 13.7909 12.3184 13.7558 12.1271C13.7207 11.9359 13.5369 11.8091 13.3459 11.8444ZM3.1273 11.6899C2.58663 11.7892 2.06609 11.4301 1.96698 10.8897L0.720847 4.09814C0.621689 3.55746 0.980666 3.03693 1.5211 2.93782L13.6017 0.721142C13.8636 0.673018 14.1287 0.729827 14.3477 0.880958C14.5669 1.03209 14.714 1.25951 14.762 1.52145L14.8153 1.81164L3.80905 3.83151C2.79053 4.01837 2.11398 4.99924 2.30084 6.018L3.33458 11.6519L3.1273 11.6899Z" fill="#109CF1"/>
<path d="M7.49365 7.82382C7.49365 9.53955 8.88951 10.9354 10.6052 10.9354C12.321 10.9354 13.7168 9.53955 13.7168 7.82382C13.7168 6.10809 12.321 4.71223 10.6052 4.71223C8.88951 4.71223 7.49365 6.10809 7.49365 7.82382ZM13.0125 7.82382C13.0125 9.15123 11.9326 10.2312 10.6052 10.2312C9.27783 10.2312 8.1979 9.15123 8.1979 7.82382C8.1979 6.49641 9.27783 5.41648 10.6052 5.41648C11.9326 5.41648 13.0125 6.49641 13.0125 7.82382Z" fill="#109CF1"/>
</svg>
