<svg width="13" height="16" viewBox="0 0 13 16" fill="none" xmlns="http://www.w3.org/2000/svg">
<g clip-path="url(#clip0)">
<path d="M9 10.5C9 9.12552 7.88528 8 6.5 8C5.11472 8 4 9.12552 4 10.5C4 11.8852 5.12554 12.9999 6.5 12.9999C7.88528 13.0107 9 11.8852 9 10.5ZM7.62554 10.2619L6.58658 11.3008C6.51082 11.3766 6.41342 11.4199 6.31602 11.4199C6.21862 11.4199 6.12121 11.3766 6.04545 11.3008L5.3961 10.6515C5.24459 10.5 5.24459 10.251 5.3961 10.0995C5.54762 9.94802 5.79654 9.94802 5.94805 10.0995L6.32684 10.4783L7.09524 9.70993C7.24675 9.55842 7.49567 9.55842 7.64719 9.70993C7.77706 9.86144 7.77706 10.1104 7.62554 10.2619Z" fill="#099506"/>
<path d="M8.58182 4.80923L8.52051 4.7635C9.13798 4.14235 10.9076 2.22428 10.5659 0.980139C10.4825 0.676264 10.2453 0.279082 9.58944 0.113409C9.2926 0.0381938 8.99559 0.000167504 8.70679 0.000167504C7.6893 0.000167504 6.9018 0.466701 6.39506 1.00979C5.88849 0.466533 5.10083 0 4.08317 0C3.79454 0 3.4977 0.0380262 3.20069 0.113074C2.54487 0.278915 2.30766 0.676096 2.22424 0.979971C1.88301 2.22261 3.64779 4.13749 4.2671 4.76099L4.19256 4.82146C1.51296 6.99415 -0.203409 10.2497 0.0193875 12.7378C0.12442 13.9121 0.645899 14.789 1.52771 15.2742C2.75242 15.9477 5.56284 16 6.39523 16C7.22745 16 10.038 15.9476 11.2628 15.2742C12.1539 14.784 12.692 13.8354 12.7779 12.6028C12.9594 9.99671 11.2339 6.79196 8.58182 4.80923ZM3.19366 1.24599C3.20053 1.22086 3.22163 1.14447 3.44728 1.08735C3.66371 1.03257 3.87779 1.00493 4.08334 1.00493C5.03165 1.00493 5.68278 1.59275 5.95215 2.09613L6.39523 2.92417L6.83848 2.09613C7.10768 1.59275 7.75865 1.0051 8.70696 1.0051C8.91267 1.0051 9.12659 1.03291 9.34319 1.08768C9.569 1.14464 9.58994 1.22103 9.59681 1.24615C9.72261 1.70331 8.85153 2.97325 7.91578 3.94468H4.87485C3.93894 2.97325 3.06785 1.70331 3.19366 1.24599ZM11.775 12.5329C11.7315 13.1556 11.5234 13.9836 10.7781 14.3933C10.1241 14.7532 8.36255 14.9949 6.39506 14.9949C4.42758 14.9949 2.66615 14.7533 2.012 14.3933C1.28581 13.9938 1.07189 13.2241 1.02047 12.6483C0.863838 10.8985 1.94851 8.00142 4.68941 5.71432H8.11177C10.6902 7.70861 11.907 10.637 11.775 12.5329Z" fill="#099506"/>
</g>
<defs>
<clipPath id="clip0">
<rect width="12.791" height="16" fill="white"/>
</clipPath>
</defs>
</svg>
