<svg width="12" height="13" viewBox="0 0 12 13" fill="none" xmlns="http://www.w3.org/2000/svg">
<path d="M3.04176 6.66095C3.04176 6.31096 2.79861 6.10188 2.36986 6.10188C2.19487 6.10188 2.07651 6.11892 2.01434 6.1355V7.25963C2.08803 7.27621 2.17829 7.28219 2.30217 7.28219C2.75946 7.28219 3.04176 7.05055 3.04176 6.66095Z" fill="#797979"/>
<path d="M5.69713 6.11293C5.50509 6.11293 5.38075 6.12997 5.30707 6.14701V8.6375C5.38075 8.65454 5.4991 8.65454 5.60641 8.65454C6.3856 8.66006 6.89402 8.23086 6.89402 7.32179C6.9 6.53108 6.43672 6.11293 5.69713 6.11293Z" fill="#797979"/>
<path d="M10.7844 4.64986H10.4722V3.1435C10.472 3.13393 10.471 3.12439 10.4694 3.11495C10.4699 3.05437 10.4485 2.99565 10.4091 2.94963L7.90251 0.087038L7.90067 0.085196C7.86884 0.0506531 7.82826 0.0253538 7.78324 0.0119735L7.76942 0.00736821C7.75029 0.0025977 7.73065 0.000124252 7.71093 0H1.55057C1.26919 0 1.04077 0.228878 1.04077 0.509795V4.64986H0.728541C0.326048 4.64986 0 4.97591 0 5.37841V9.16756C0 9.56959 0.326508 9.8961 0.728541 9.8961H1.04077V12.4902C1.04077 12.7711 1.26919 13 1.55057 13H9.96241C10.2433 13 10.4722 12.7711 10.4722 12.4902V9.8961H10.7844C11.1869 9.8961 11.513 9.56959 11.513 9.16756V5.37841C11.513 4.97591 11.1865 4.64986 10.7844 4.64986ZM1.55057 0.509795H7.45581V3.11818C7.45581 3.25909 7.57002 3.37284 7.71093 3.37284H9.96287V4.64986H1.55057V0.509795ZM7.80903 7.29324C7.80903 8.02179 7.54377 8.52467 7.17581 8.83506C6.77516 9.16802 6.16543 9.32644 5.41985 9.32644C4.97361 9.32644 4.65769 9.29788 4.44263 9.27025V5.5313C4.75901 5.48064 5.17117 5.45255 5.60636 5.45255C6.32892 5.45255 6.79773 5.58241 7.16476 5.85919C7.56035 6.15254 7.80903 6.62135 7.80903 7.29324ZM1.16097 9.28729V5.5313C1.42623 5.48617 1.79925 5.45255 2.32424 5.45255C2.85522 5.45255 3.23377 5.55432 3.48751 5.75741C3.73021 5.94945 3.89369 6.26583 3.89369 6.63839C3.89369 7.01141 3.76981 7.32732 3.5437 7.54192C3.24988 7.8187 2.81515 7.94304 2.30674 7.94304C2.19391 7.94304 2.09214 7.93751 2.01339 7.926V9.28729H1.16097ZM9.96241 12.352H1.55057V9.8961H9.96241V12.352ZM10.7011 6.18662H9.23802V7.05654H10.6048V7.75699H9.23802V9.28729H8.37454V5.48064H10.7011V6.18662Z" fill="#797979"/>
</svg>
