<svg width="18" height="18" viewBox="0 0 18 18" fill="none" xmlns="http://www.w3.org/2000/svg">
<path d="M16.285 7.85999L14.61 7.35999C14.4942 6.95564 14.3349 6.56503 14.135 6.19499L14.955 4.65998C14.9858 4.60204 14.997 4.53573 14.9871 4.47088C14.9772 4.40602 14.9466 4.3461 14.9 4.29999L13.705 3.09998C13.6589 3.05332 13.5989 3.02277 13.5341 3.01286C13.4692 3.00295 13.4029 3.01422 13.345 3.04499L11.82 3.85998C11.4463 3.65032 11.0506 3.48263 10.64 3.35998L10.14 1.70499C10.1188 1.64399 10.0789 1.59128 10.0259 1.55445C9.97286 1.51761 9.90952 1.49854 9.84499 1.49999H8.15498C8.09006 1.50029 8.02692 1.5213 7.97476 1.55997C7.9226 1.59864 7.88414 1.65295 7.86498 1.71499L7.36498 3.36498C6.95099 3.48697 6.55187 3.65467 6.17498 3.86498L4.67499 3.05499C4.61704 3.02422 4.55073 3.01295 4.48588 3.02286C4.42102 3.03277 4.3611 3.06332 4.31499 3.10998L3.09999 4.29499C3.05332 4.3411 3.02277 4.40102 3.01286 4.46588C3.00295 4.53073 3.01422 4.59704 3.04499 4.65499L3.85498 6.15499C3.64501 6.53028 3.47732 6.92771 3.35499 7.33999L1.69999 7.83999C1.63795 7.85914 1.58364 7.8976 1.54497 7.94976C1.5063 8.00192 1.48529 8.06506 1.48499 8.12999V9.81998C1.48529 9.88491 1.5063 9.94805 1.54497 10.0002C1.58364 10.0524 1.63795 10.0908 1.69999 10.11L3.36499 10.61C3.48866 11.0154 3.65632 11.4061 3.86499 11.775L3.04499 13.345C3.01422 13.4029 3.00295 13.4692 3.01286 13.5341C3.02277 13.5989 3.05332 13.6589 3.09999 13.705L4.29499 14.9C4.3411 14.9466 4.40102 14.9772 4.46588 14.9871C4.53073 14.997 4.59704 14.9858 4.65499 14.955L6.19998 14.13C6.56547 14.3272 6.95099 14.4848 7.34998 14.6L7.84998 16.285C7.86914 16.347 7.9076 16.4013 7.95976 16.44C8.01192 16.4787 8.07506 16.4997 8.13999 16.5H9.82998C9.89491 16.4997 9.95805 16.4787 10.0102 16.44C10.0624 16.4013 10.1008 16.347 10.12 16.285L10.62 14.595C11.0156 14.4792 11.3977 14.3216 11.76 14.125L13.315 14.955C13.3729 14.9858 13.4392 14.997 13.5041 14.9871C13.5689 14.9772 13.6289 14.9466 13.675 14.9L14.87 13.705C14.9166 13.6589 14.9472 13.5989 14.9571 13.5341C14.967 13.4692 14.9558 13.4029 14.925 13.345L14.095 11.795C14.2937 11.4313 14.4529 11.0475 14.57 10.65L16.255 10.15C16.317 10.1308 16.3713 10.0924 16.41 10.0402C16.4487 9.98805 16.4697 9.92491 16.47 9.85998V8.15498C16.4729 8.09281 16.4568 8.03122 16.4237 7.97849C16.3907 7.92576 16.3422 7.88441 16.285 7.85999ZM8.99998 11.75C8.45609 11.75 7.9244 11.5887 7.47217 11.2865C7.01993 10.9844 6.66746 10.5549 6.45932 10.0524C6.25118 9.54987 6.19672 8.99693 6.30283 8.46349C6.40894 7.93004 6.67085 7.44004 7.05544 7.05544C7.44004 6.67085 7.93004 6.40894 8.46349 6.30283C8.99693 6.19672 9.54987 6.25118 10.0524 6.45932C10.5549 6.66746 10.9844 7.01993 11.2865 7.47217C11.5887 7.9244 11.75 8.45609 11.75 8.99999C11.75 9.72933 11.4603 10.4288 10.9445 10.9445C10.4288 11.4603 9.72933 11.75 8.99998 11.75Z" fill="#323C47"/>
</svg>
