<svg width="14" height="13" viewBox="0 0 14 13" fill="none" xmlns="http://www.w3.org/2000/svg">
<path fill-rule="evenodd" clip-rule="evenodd" d="M1.042 6.296C1.042 9.35506 3.249 11.4393 5.728 11.8704C5.79543 11.8822 5.85991 11.9072 5.91773 11.9439C5.97556 11.9807 6.02561 12.0286 6.06503 12.0848C6.10445 12.1411 6.13246 12.2045 6.14747 12.2716C6.16248 12.3387 6.16419 12.4082 6.1525 12.4759C6.14081 12.5437 6.11596 12.6085 6.07935 12.6666C6.04275 12.7247 5.99511 12.775 5.93917 12.8146C5.88322 12.8542 5.82006 12.8824 5.75328 12.8975C5.68651 12.9125 5.61743 12.9143 5.55 12.9025C2.639 12.396 0 9.92988 0 6.296C0 4.75139 0.699 3.53742 1.515 2.61487C2.1 1.95362 2.769 1.41597 3.307 1.00495H1.671C1.53839 1.00495 1.41121 0.952008 1.31745 0.857776C1.22368 0.763544 1.171 0.635738 1.171 0.502474C1.171 0.369209 1.22368 0.241403 1.31745 0.147171C1.41121 0.0529391 1.53839 0 1.671 0H4.671C4.80361 0 4.93079 0.0529391 5.02455 0.147171C5.11832 0.241403 5.171 0.369209 5.171 0.502474V3.51732C5.171 3.65058 5.11832 3.77839 5.02455 3.87262C4.93079 3.96685 4.80361 4.01979 4.671 4.01979C4.53839 4.01979 4.41121 3.96685 4.31745 3.87262C4.22368 3.77839 4.171 3.65058 4.171 3.51732V1.66218L4.17 1.66419C3.598 2.09632 2.9 2.62593 2.295 3.3103C1.58 4.11827 1.042 5.09508 1.042 6.29499V6.296ZM12.15 6.704C12.15 3.6771 9.99 1.60591 7.543 1.14363C7.4748 1.132 7.40958 1.10684 7.35116 1.06961C7.29274 1.03239 7.24228 0.98384 7.20273 0.926808C7.16317 0.869775 7.13532 0.805397 7.12078 0.73743C7.10625 0.669463 7.10533 0.599269 7.11808 0.530941C7.13083 0.462613 7.15699 0.397521 7.19503 0.339462C7.23308 0.281403 7.28225 0.231539 7.33968 0.19278C7.39711 0.154021 7.46164 0.127144 7.52951 0.113714C7.59738 0.100285 7.66724 0.100574 7.735 0.114564C10.609 0.657236 13.192 3.10931 13.192 6.704C13.192 8.24861 12.493 9.46158 11.677 10.3851C11.092 11.0464 10.423 11.584 9.885 11.9951H11.521C11.6536 11.9951 11.7808 12.048 11.8746 12.1422C11.9683 12.2365 12.021 12.3643 12.021 12.4975C12.021 12.6308 11.9683 12.7586 11.8746 12.8528C11.7808 12.9471 11.6536 13 11.521 13H8.521C8.38839 13 8.26121 12.9471 8.16745 12.8528C8.07368 12.7586 8.021 12.6308 8.021 12.4975V9.48269C8.021 9.34942 8.07368 9.22161 8.16745 9.12738C8.26121 9.03315 8.38839 8.98021 8.521 8.98021C8.65361 8.98021 8.78079 9.03315 8.87455 9.12738C8.96832 9.22161 9.021 9.34942 9.021 9.48269V11.3368H9.023C9.594 10.9027 10.293 10.3741 10.897 9.6887C11.612 8.88173 12.15 7.90492 12.15 6.704Z" fill="#797979"/>
</svg>
